G04 #@! TF.GenerationSoftware,KiCad,Pcbnew,7.0.2*
G04 #@! TF.CreationDate,2023-12-14T20:07:15+03:00*
G04 #@! TF.ProjectId,ALERT_RIDER_HARDWARE,414c4552-545f-4524-9944-45525f484152,rev?*
G04 #@! TF.SameCoordinates,Original*
G04 #@! TF.FileFunction,Paste,Bot*
G04 #@! TF.FilePolarity,Positive*
%FSLAX46Y46*%
G04 Gerber Fmt 4.6, Leading zero omitted, Abs format (unit mm)*
G04 Created by KiCad (PCBNEW 7.0.2) date 2023-12-14 20:07:15*
%MOMM*%
%LPD*%
G01*
G04 APERTURE LIST*
G04 Aperture macros list*
%AMRoundRect*
0 Rectangle with rounded corners*
0 $1 Rounding radius*
0 $2 $3 $4 $5 $6 $7 $8 $9 X,Y pos of 4 corners*
0 Add a 4 corners polygon primitive as box body*
4,1,4,$2,$3,$4,$5,$6,$7,$8,$9,$2,$3,0*
0 Add four circle primitives for the rounded corners*
1,1,$1+$1,$2,$3*
1,1,$1+$1,$4,$5*
1,1,$1+$1,$6,$7*
1,1,$1+$1,$8,$9*
0 Add four rect primitives between the rounded corners*
20,1,$1+$1,$2,$3,$4,$5,0*
20,1,$1+$1,$4,$5,$6,$7,0*
20,1,$1+$1,$6,$7,$8,$9,0*
20,1,$1+$1,$8,$9,$2,$3,0*%
G04 Aperture macros list end*
%ADD10C,0.010000*%
%ADD11RoundRect,0.135000X0.185000X-0.135000X0.185000X0.135000X-0.185000X0.135000X-0.185000X-0.135000X0*%
%ADD12RoundRect,0.225000X0.225000X0.250000X-0.225000X0.250000X-0.225000X-0.250000X0.225000X-0.250000X0*%
%ADD13RoundRect,0.140000X0.140000X0.170000X-0.140000X0.170000X-0.140000X-0.170000X0.140000X-0.170000X0*%
%ADD14RoundRect,0.218750X0.218750X0.256250X-0.218750X0.256250X-0.218750X-0.256250X0.218750X-0.256250X0*%
%ADD15RoundRect,0.150000X0.150000X-0.512500X0.150000X0.512500X-0.150000X0.512500X-0.150000X-0.512500X0*%
%ADD16RoundRect,0.075000X-0.662500X-0.075000X0.662500X-0.075000X0.662500X0.075000X-0.662500X0.075000X0*%
%ADD17RoundRect,0.075000X-0.075000X-0.662500X0.075000X-0.662500X0.075000X0.662500X-0.075000X0.662500X0*%
%ADD18RoundRect,0.250000X0.850000X-0.375000X0.850000X0.375000X-0.850000X0.375000X-0.850000X-0.375000X0*%
%ADD19RoundRect,0.140000X0.170000X-0.140000X0.170000X0.140000X-0.170000X0.140000X-0.170000X-0.140000X0*%
%ADD20RoundRect,0.135000X-0.185000X0.135000X-0.185000X-0.135000X0.185000X-0.135000X0.185000X0.135000X0*%
%ADD21RoundRect,0.135000X0.135000X0.185000X-0.135000X0.185000X-0.135000X-0.185000X0.135000X-0.185000X0*%
%ADD22R,2.500000X1.800000*%
%ADD23RoundRect,0.135000X-0.135000X-0.185000X0.135000X-0.185000X0.135000X0.185000X-0.135000X0.185000X0*%
%ADD24RoundRect,0.012500X-0.287500X-0.112500X0.287500X-0.112500X0.287500X0.112500X-0.287500X0.112500X0*%
%ADD25RoundRect,0.012500X-0.437500X-0.112500X0.437500X-0.112500X0.437500X0.112500X-0.437500X0.112500X0*%
%ADD26RoundRect,0.140000X-0.170000X0.140000X-0.170000X-0.140000X0.170000X-0.140000X0.170000X0.140000X0*%
%ADD27RoundRect,0.200000X-0.200000X-0.275000X0.200000X-0.275000X0.200000X0.275000X-0.200000X0.275000X0*%
%ADD28RoundRect,0.225000X0.250000X-0.225000X0.250000X0.225000X-0.250000X0.225000X-0.250000X-0.225000X0*%
%ADD29RoundRect,0.150000X-0.587500X-0.150000X0.587500X-0.150000X0.587500X0.150000X-0.587500X0.150000X0*%
%ADD30RoundRect,0.200000X0.200000X0.275000X-0.200000X0.275000X-0.200000X-0.275000X0.200000X-0.275000X0*%
%ADD31RoundRect,0.218750X0.256250X-0.218750X0.256250X0.218750X-0.256250X0.218750X-0.256250X-0.218750X0*%
%ADD32RoundRect,0.225000X-0.225000X-0.250000X0.225000X-0.250000X0.225000X0.250000X-0.225000X0.250000X0*%
%ADD33R,0.600000X1.150000*%
%ADD34R,0.300000X1.150000*%
%ADD35RoundRect,0.200000X0.275000X-0.200000X0.275000X0.200000X-0.275000X0.200000X-0.275000X-0.200000X0*%
%ADD36RoundRect,0.250000X0.375000X0.625000X-0.375000X0.625000X-0.375000X-0.625000X0.375000X-0.625000X0*%
%ADD37R,2.000000X3.500000*%
%ADD38R,3.000000X3.500000*%
%ADD39RoundRect,0.147500X-0.147500X-0.172500X0.147500X-0.172500X0.147500X0.172500X-0.147500X0.172500X0*%
%ADD40RoundRect,0.150000X0.587500X0.150000X-0.587500X0.150000X-0.587500X-0.150000X0.587500X-0.150000X0*%
%ADD41R,1.550000X2.000000*%
%ADD42R,2.000000X1.550000*%
%ADD43RoundRect,0.140000X-0.140000X-0.170000X0.140000X-0.170000X0.140000X0.170000X-0.140000X0.170000X0*%
%ADD44R,0.900000X0.950000*%
G04 APERTURE END LIST*
D10*
X72608000Y-54726000D02*
X72610000Y-54726000D01*
X72613000Y-54727000D01*
X72615000Y-54727000D01*
X72618000Y-54728000D01*
X72620000Y-54729000D01*
X72623000Y-54730000D01*
X72625000Y-54732000D01*
X72627000Y-54733000D01*
X72629000Y-54735000D01*
X72631000Y-54736000D01*
X72633000Y-54738000D01*
X72635000Y-54740000D01*
X72637000Y-54742000D01*
X72639000Y-54744000D01*
X72640000Y-54746000D01*
X72642000Y-54748000D01*
X72643000Y-54750000D01*
X72645000Y-54752000D01*
X72646000Y-54755000D01*
X72647000Y-54757000D01*
X72648000Y-54760000D01*
X72648000Y-54762000D01*
X72649000Y-54765000D01*
X72649000Y-54767000D01*
X72650000Y-54770000D01*
X72650000Y-54772000D01*
X72650000Y-54775000D01*
X72650000Y-54925000D01*
X72650000Y-54928000D01*
X72650000Y-54930000D01*
X72649000Y-54933000D01*
X72649000Y-54935000D01*
X72648000Y-54938000D01*
X72648000Y-54940000D01*
X72647000Y-54943000D01*
X72646000Y-54945000D01*
X72645000Y-54948000D01*
X72643000Y-54950000D01*
X72642000Y-54952000D01*
X72640000Y-54954000D01*
X72639000Y-54956000D01*
X72637000Y-54958000D01*
X72635000Y-54960000D01*
X72633000Y-54962000D01*
X72631000Y-54964000D01*
X72629000Y-54965000D01*
X72627000Y-54967000D01*
X72625000Y-54968000D01*
X72623000Y-54970000D01*
X72620000Y-54971000D01*
X72618000Y-54972000D01*
X72615000Y-54973000D01*
X72613000Y-54973000D01*
X72610000Y-54974000D01*
X72608000Y-54974000D01*
X72605000Y-54975000D01*
X72603000Y-54975000D01*
X72600000Y-54975000D01*
X72150000Y-54975000D01*
X72147000Y-54975000D01*
X72145000Y-54975000D01*
X72142000Y-54974000D01*
X72140000Y-54974000D01*
X72137000Y-54973000D01*
X72135000Y-54973000D01*
X72132000Y-54972000D01*
X72130000Y-54971000D01*
X72127000Y-54970000D01*
X72125000Y-54968000D01*
X72123000Y-54967000D01*
X72121000Y-54965000D01*
X72119000Y-54964000D01*
X72117000Y-54962000D01*
X72115000Y-54960000D01*
X72113000Y-54958000D01*
X72111000Y-54956000D01*
X72110000Y-54954000D01*
X72108000Y-54952000D01*
X72107000Y-54950000D01*
X72105000Y-54948000D01*
X72104000Y-54945000D01*
X72103000Y-54943000D01*
X72102000Y-54940000D01*
X72102000Y-54938000D01*
X72101000Y-54935000D01*
X72101000Y-54933000D01*
X72100000Y-54930000D01*
X72100000Y-54928000D01*
X72100000Y-54925000D01*
X72100000Y-54775000D01*
X72100000Y-54772000D01*
X72100000Y-54770000D01*
X72101000Y-54767000D01*
X72101000Y-54765000D01*
X72102000Y-54762000D01*
X72102000Y-54760000D01*
X72103000Y-54757000D01*
X72104000Y-54755000D01*
X72105000Y-54752000D01*
X72107000Y-54750000D01*
X72108000Y-54748000D01*
X72110000Y-54746000D01*
X72111000Y-54744000D01*
X72113000Y-54742000D01*
X72115000Y-54740000D01*
X72117000Y-54738000D01*
X72119000Y-54736000D01*
X72121000Y-54735000D01*
X72123000Y-54733000D01*
X72125000Y-54732000D01*
X72127000Y-54730000D01*
X72130000Y-54729000D01*
X72132000Y-54728000D01*
X72135000Y-54727000D01*
X72137000Y-54727000D01*
X72140000Y-54726000D01*
X72142000Y-54726000D01*
X72145000Y-54725000D01*
X72147000Y-54725000D01*
X72150000Y-54725000D01*
X72600000Y-54725000D01*
X72603000Y-54725000D01*
X72605000Y-54725000D01*
X72608000Y-54726000D01*
G36*
X72608000Y-54726000D02*
G01*
X72610000Y-54726000D01*
X72613000Y-54727000D01*
X72615000Y-54727000D01*
X72618000Y-54728000D01*
X72620000Y-54729000D01*
X72623000Y-54730000D01*
X72625000Y-54732000D01*
X72627000Y-54733000D01*
X72629000Y-54735000D01*
X72631000Y-54736000D01*
X72633000Y-54738000D01*
X72635000Y-54740000D01*
X72637000Y-54742000D01*
X72639000Y-54744000D01*
X72640000Y-54746000D01*
X72642000Y-54748000D01*
X72643000Y-54750000D01*
X72645000Y-54752000D01*
X72646000Y-54755000D01*
X72647000Y-54757000D01*
X72648000Y-54760000D01*
X72648000Y-54762000D01*
X72649000Y-54765000D01*
X72649000Y-54767000D01*
X72650000Y-54770000D01*
X72650000Y-54772000D01*
X72650000Y-54775000D01*
X72650000Y-54925000D01*
X72650000Y-54928000D01*
X72650000Y-54930000D01*
X72649000Y-54933000D01*
X72649000Y-54935000D01*
X72648000Y-54938000D01*
X72648000Y-54940000D01*
X72647000Y-54943000D01*
X72646000Y-54945000D01*
X72645000Y-54948000D01*
X72643000Y-54950000D01*
X72642000Y-54952000D01*
X72640000Y-54954000D01*
X72639000Y-54956000D01*
X72637000Y-54958000D01*
X72635000Y-54960000D01*
X72633000Y-54962000D01*
X72631000Y-54964000D01*
X72629000Y-54965000D01*
X72627000Y-54967000D01*
X72625000Y-54968000D01*
X72623000Y-54970000D01*
X72620000Y-54971000D01*
X72618000Y-54972000D01*
X72615000Y-54973000D01*
X72613000Y-54973000D01*
X72610000Y-54974000D01*
X72608000Y-54974000D01*
X72605000Y-54975000D01*
X72603000Y-54975000D01*
X72600000Y-54975000D01*
X72150000Y-54975000D01*
X72147000Y-54975000D01*
X72145000Y-54975000D01*
X72142000Y-54974000D01*
X72140000Y-54974000D01*
X72137000Y-54973000D01*
X72135000Y-54973000D01*
X72132000Y-54972000D01*
X72130000Y-54971000D01*
X72127000Y-54970000D01*
X72125000Y-54968000D01*
X72123000Y-54967000D01*
X72121000Y-54965000D01*
X72119000Y-54964000D01*
X72117000Y-54962000D01*
X72115000Y-54960000D01*
X72113000Y-54958000D01*
X72111000Y-54956000D01*
X72110000Y-54954000D01*
X72108000Y-54952000D01*
X72107000Y-54950000D01*
X72105000Y-54948000D01*
X72104000Y-54945000D01*
X72103000Y-54943000D01*
X72102000Y-54940000D01*
X72102000Y-54938000D01*
X72101000Y-54935000D01*
X72101000Y-54933000D01*
X72100000Y-54930000D01*
X72100000Y-54928000D01*
X72100000Y-54925000D01*
X72100000Y-54775000D01*
X72100000Y-54772000D01*
X72100000Y-54770000D01*
X72101000Y-54767000D01*
X72101000Y-54765000D01*
X72102000Y-54762000D01*
X72102000Y-54760000D01*
X72103000Y-54757000D01*
X72104000Y-54755000D01*
X72105000Y-54752000D01*
X72107000Y-54750000D01*
X72108000Y-54748000D01*
X72110000Y-54746000D01*
X72111000Y-54744000D01*
X72113000Y-54742000D01*
X72115000Y-54740000D01*
X72117000Y-54738000D01*
X72119000Y-54736000D01*
X72121000Y-54735000D01*
X72123000Y-54733000D01*
X72125000Y-54732000D01*
X72127000Y-54730000D01*
X72130000Y-54729000D01*
X72132000Y-54728000D01*
X72135000Y-54727000D01*
X72137000Y-54727000D01*
X72140000Y-54726000D01*
X72142000Y-54726000D01*
X72145000Y-54725000D01*
X72147000Y-54725000D01*
X72150000Y-54725000D01*
X72600000Y-54725000D01*
X72603000Y-54725000D01*
X72605000Y-54725000D01*
X72608000Y-54726000D01*
G37*
X73358000Y-54726000D02*
X73360000Y-54726000D01*
X73363000Y-54727000D01*
X73365000Y-54727000D01*
X73368000Y-54728000D01*
X73370000Y-54729000D01*
X73373000Y-54730000D01*
X73375000Y-54732000D01*
X73377000Y-54733000D01*
X73379000Y-54735000D01*
X73381000Y-54736000D01*
X73383000Y-54738000D01*
X73385000Y-54740000D01*
X73387000Y-54742000D01*
X73389000Y-54744000D01*
X73390000Y-54746000D01*
X73392000Y-54748000D01*
X73393000Y-54750000D01*
X73395000Y-54752000D01*
X73396000Y-54755000D01*
X73397000Y-54757000D01*
X73398000Y-54760000D01*
X73398000Y-54762000D01*
X73399000Y-54765000D01*
X73399000Y-54767000D01*
X73400000Y-54770000D01*
X73400000Y-54772000D01*
X73400000Y-54775000D01*
X73400000Y-54925000D01*
X73400000Y-54928000D01*
X73400000Y-54930000D01*
X73399000Y-54933000D01*
X73399000Y-54935000D01*
X73398000Y-54938000D01*
X73398000Y-54940000D01*
X73397000Y-54943000D01*
X73396000Y-54945000D01*
X73395000Y-54948000D01*
X73393000Y-54950000D01*
X73392000Y-54952000D01*
X73390000Y-54954000D01*
X73389000Y-54956000D01*
X73387000Y-54958000D01*
X73385000Y-54960000D01*
X73383000Y-54962000D01*
X73381000Y-54964000D01*
X73379000Y-54965000D01*
X73377000Y-54967000D01*
X73375000Y-54968000D01*
X73373000Y-54970000D01*
X73370000Y-54971000D01*
X73368000Y-54972000D01*
X73365000Y-54973000D01*
X73363000Y-54973000D01*
X73360000Y-54974000D01*
X73358000Y-54974000D01*
X73355000Y-54975000D01*
X73353000Y-54975000D01*
X73350000Y-54975000D01*
X72900000Y-54975000D01*
X72897000Y-54975000D01*
X72895000Y-54975000D01*
X72892000Y-54974000D01*
X72890000Y-54974000D01*
X72887000Y-54973000D01*
X72885000Y-54973000D01*
X72882000Y-54972000D01*
X72880000Y-54971000D01*
X72877000Y-54970000D01*
X72875000Y-54968000D01*
X72873000Y-54967000D01*
X72871000Y-54965000D01*
X72869000Y-54964000D01*
X72867000Y-54962000D01*
X72865000Y-54960000D01*
X72863000Y-54958000D01*
X72861000Y-54956000D01*
X72860000Y-54954000D01*
X72858000Y-54952000D01*
X72857000Y-54950000D01*
X72855000Y-54948000D01*
X72854000Y-54945000D01*
X72853000Y-54943000D01*
X72852000Y-54940000D01*
X72852000Y-54938000D01*
X72851000Y-54935000D01*
X72851000Y-54933000D01*
X72850000Y-54930000D01*
X72850000Y-54928000D01*
X72850000Y-54925000D01*
X72850000Y-54775000D01*
X72850000Y-54772000D01*
X72850000Y-54770000D01*
X72851000Y-54767000D01*
X72851000Y-54765000D01*
X72852000Y-54762000D01*
X72852000Y-54760000D01*
X72853000Y-54757000D01*
X72854000Y-54755000D01*
X72855000Y-54752000D01*
X72857000Y-54750000D01*
X72858000Y-54748000D01*
X72860000Y-54746000D01*
X72861000Y-54744000D01*
X72863000Y-54742000D01*
X72865000Y-54740000D01*
X72867000Y-54738000D01*
X72869000Y-54736000D01*
X72871000Y-54735000D01*
X72873000Y-54733000D01*
X72875000Y-54732000D01*
X72877000Y-54730000D01*
X72880000Y-54729000D01*
X72882000Y-54728000D01*
X72885000Y-54727000D01*
X72887000Y-54727000D01*
X72890000Y-54726000D01*
X72892000Y-54726000D01*
X72895000Y-54725000D01*
X72897000Y-54725000D01*
X72900000Y-54725000D01*
X73350000Y-54725000D01*
X73353000Y-54725000D01*
X73355000Y-54725000D01*
X73358000Y-54726000D01*
G36*
X73358000Y-54726000D02*
G01*
X73360000Y-54726000D01*
X73363000Y-54727000D01*
X73365000Y-54727000D01*
X73368000Y-54728000D01*
X73370000Y-54729000D01*
X73373000Y-54730000D01*
X73375000Y-54732000D01*
X73377000Y-54733000D01*
X73379000Y-54735000D01*
X73381000Y-54736000D01*
X73383000Y-54738000D01*
X73385000Y-54740000D01*
X73387000Y-54742000D01*
X73389000Y-54744000D01*
X73390000Y-54746000D01*
X73392000Y-54748000D01*
X73393000Y-54750000D01*
X73395000Y-54752000D01*
X73396000Y-54755000D01*
X73397000Y-54757000D01*
X73398000Y-54760000D01*
X73398000Y-54762000D01*
X73399000Y-54765000D01*
X73399000Y-54767000D01*
X73400000Y-54770000D01*
X73400000Y-54772000D01*
X73400000Y-54775000D01*
X73400000Y-54925000D01*
X73400000Y-54928000D01*
X73400000Y-54930000D01*
X73399000Y-54933000D01*
X73399000Y-54935000D01*
X73398000Y-54938000D01*
X73398000Y-54940000D01*
X73397000Y-54943000D01*
X73396000Y-54945000D01*
X73395000Y-54948000D01*
X73393000Y-54950000D01*
X73392000Y-54952000D01*
X73390000Y-54954000D01*
X73389000Y-54956000D01*
X73387000Y-54958000D01*
X73385000Y-54960000D01*
X73383000Y-54962000D01*
X73381000Y-54964000D01*
X73379000Y-54965000D01*
X73377000Y-54967000D01*
X73375000Y-54968000D01*
X73373000Y-54970000D01*
X73370000Y-54971000D01*
X73368000Y-54972000D01*
X73365000Y-54973000D01*
X73363000Y-54973000D01*
X73360000Y-54974000D01*
X73358000Y-54974000D01*
X73355000Y-54975000D01*
X73353000Y-54975000D01*
X73350000Y-54975000D01*
X72900000Y-54975000D01*
X72897000Y-54975000D01*
X72895000Y-54975000D01*
X72892000Y-54974000D01*
X72890000Y-54974000D01*
X72887000Y-54973000D01*
X72885000Y-54973000D01*
X72882000Y-54972000D01*
X72880000Y-54971000D01*
X72877000Y-54970000D01*
X72875000Y-54968000D01*
X72873000Y-54967000D01*
X72871000Y-54965000D01*
X72869000Y-54964000D01*
X72867000Y-54962000D01*
X72865000Y-54960000D01*
X72863000Y-54958000D01*
X72861000Y-54956000D01*
X72860000Y-54954000D01*
X72858000Y-54952000D01*
X72857000Y-54950000D01*
X72855000Y-54948000D01*
X72854000Y-54945000D01*
X72853000Y-54943000D01*
X72852000Y-54940000D01*
X72852000Y-54938000D01*
X72851000Y-54935000D01*
X72851000Y-54933000D01*
X72850000Y-54930000D01*
X72850000Y-54928000D01*
X72850000Y-54925000D01*
X72850000Y-54775000D01*
X72850000Y-54772000D01*
X72850000Y-54770000D01*
X72851000Y-54767000D01*
X72851000Y-54765000D01*
X72852000Y-54762000D01*
X72852000Y-54760000D01*
X72853000Y-54757000D01*
X72854000Y-54755000D01*
X72855000Y-54752000D01*
X72857000Y-54750000D01*
X72858000Y-54748000D01*
X72860000Y-54746000D01*
X72861000Y-54744000D01*
X72863000Y-54742000D01*
X72865000Y-54740000D01*
X72867000Y-54738000D01*
X72869000Y-54736000D01*
X72871000Y-54735000D01*
X72873000Y-54733000D01*
X72875000Y-54732000D01*
X72877000Y-54730000D01*
X72880000Y-54729000D01*
X72882000Y-54728000D01*
X72885000Y-54727000D01*
X72887000Y-54727000D01*
X72890000Y-54726000D01*
X72892000Y-54726000D01*
X72895000Y-54725000D01*
X72897000Y-54725000D01*
X72900000Y-54725000D01*
X73350000Y-54725000D01*
X73353000Y-54725000D01*
X73355000Y-54725000D01*
X73358000Y-54726000D01*
G37*
D11*
X81262500Y-83510000D03*
X81262500Y-82490000D03*
X86462500Y-82910000D03*
X86462500Y-81890000D03*
D12*
X72975000Y-51150000D03*
X71425000Y-51150000D03*
D13*
X142855000Y-61275000D03*
X141895000Y-61275000D03*
D14*
X100962500Y-82736250D03*
X99387500Y-82736250D03*
D15*
X141750000Y-81400000D03*
X140800000Y-81400000D03*
X139850000Y-81400000D03*
X139850000Y-79125000D03*
X140800000Y-79125000D03*
X141750000Y-79125000D03*
D16*
X144637500Y-65400000D03*
X144637500Y-64900000D03*
X144637500Y-64400000D03*
X144637500Y-63900000D03*
X144637500Y-63400000D03*
X144637500Y-62900000D03*
X144637500Y-62400000D03*
X144637500Y-61900000D03*
X144637500Y-61400000D03*
X144637500Y-60900000D03*
X144637500Y-60400000D03*
X144637500Y-59900000D03*
D17*
X146050000Y-58487500D03*
X146550000Y-58487500D03*
X147050000Y-58487500D03*
X147550000Y-58487500D03*
X148050000Y-58487500D03*
X148550000Y-58487500D03*
X149050000Y-58487500D03*
X149550000Y-58487500D03*
X150050000Y-58487500D03*
X150550000Y-58487500D03*
X151050000Y-58487500D03*
X151550000Y-58487500D03*
D16*
X152962500Y-59900000D03*
X152962500Y-60400000D03*
X152962500Y-60900000D03*
X152962500Y-61400000D03*
X152962500Y-61900000D03*
X152962500Y-62400000D03*
X152962500Y-62900000D03*
X152962500Y-63400000D03*
X152962500Y-63900000D03*
X152962500Y-64400000D03*
X152962500Y-64900000D03*
X152962500Y-65400000D03*
D17*
X151550000Y-66812500D03*
X151050000Y-66812500D03*
X150550000Y-66812500D03*
X150050000Y-66812500D03*
X149550000Y-66812500D03*
X149050000Y-66812500D03*
X148550000Y-66812500D03*
X148050000Y-66812500D03*
X147550000Y-66812500D03*
X147050000Y-66812500D03*
X146550000Y-66812500D03*
X146050000Y-66812500D03*
D18*
X76300000Y-55775000D03*
X76300000Y-53625000D03*
D19*
X151750000Y-56830000D03*
X151750000Y-55870000D03*
D20*
X149550000Y-55130000D03*
X149550000Y-56150000D03*
D21*
X82772500Y-78200000D03*
X81752500Y-78200000D03*
D22*
X64350000Y-69600000D03*
X60350000Y-69600000D03*
D13*
X73230000Y-52500000D03*
X72270000Y-52500000D03*
D11*
X81262500Y-80710000D03*
X81262500Y-79690000D03*
D12*
X72925000Y-60650000D03*
X71375000Y-60650000D03*
D23*
X81520000Y-59600000D03*
X82540000Y-59600000D03*
D24*
X71300000Y-55850000D03*
X71300000Y-55350000D03*
X71300000Y-54850000D03*
X71300000Y-54350000D03*
X71300000Y-53850000D03*
D25*
X72950000Y-53850000D03*
X72950000Y-54350000D03*
X72950000Y-55350000D03*
X72950000Y-55850000D03*
D26*
X138500000Y-80920000D03*
X138500000Y-81880000D03*
D27*
X66425000Y-54400000D03*
X68075000Y-54400000D03*
D20*
X148450000Y-70240000D03*
X148450000Y-71260000D03*
D26*
X74250000Y-56720000D03*
X74250000Y-57680000D03*
D28*
X68550000Y-66425000D03*
X68550000Y-64875000D03*
D29*
X59012500Y-66800000D03*
X59012500Y-64900000D03*
X60887500Y-65850000D03*
D30*
X68025000Y-52800000D03*
X66375000Y-52800000D03*
D12*
X72925000Y-57450000D03*
X71375000Y-57450000D03*
D11*
X138500000Y-79610000D03*
X138500000Y-78590000D03*
D31*
X153850000Y-71075000D03*
X153850000Y-69500000D03*
D30*
X68075000Y-56000000D03*
X66425000Y-56000000D03*
D32*
X99450000Y-85976250D03*
X101000000Y-85976250D03*
D29*
X63112500Y-66800000D03*
X63112500Y-64900000D03*
X64987500Y-65850000D03*
D23*
X84552500Y-78200000D03*
X85572500Y-78200000D03*
D11*
X143100000Y-79710000D03*
X143100000Y-78690000D03*
D26*
X145800000Y-68420000D03*
X145800000Y-69380000D03*
D32*
X99400000Y-84376250D03*
X100950000Y-84376250D03*
D33*
X111380000Y-82915000D03*
X104980000Y-82915000D03*
X110580000Y-82915000D03*
X105780000Y-82915000D03*
D34*
X109430000Y-82915000D03*
X108430000Y-82915000D03*
X107930000Y-82915000D03*
X106930000Y-82915000D03*
X106430000Y-82915000D03*
X107430000Y-82915000D03*
X108930000Y-82915000D03*
X109930000Y-82915000D03*
D26*
X143900000Y-66770000D03*
X143900000Y-67730000D03*
D12*
X98975000Y-81000000D03*
X97425000Y-81000000D03*
D35*
X57050000Y-66775000D03*
X57050000Y-65125000D03*
D12*
X72925000Y-59050000D03*
X71375000Y-59050000D03*
D36*
X103600000Y-80600000D03*
X100800000Y-80600000D03*
D35*
X57950000Y-70175000D03*
X57950000Y-68525000D03*
D19*
X120975000Y-48280000D03*
X120975000Y-47320000D03*
D37*
X120975000Y-44825000D03*
D38*
X96775000Y-44875000D03*
D39*
X120955000Y-49390000D03*
X121925000Y-49390000D03*
D40*
X84737500Y-83250000D03*
X84737500Y-85150000D03*
X82862500Y-84200000D03*
D41*
X95350000Y-52300000D03*
X97890000Y-52300000D03*
X100430000Y-52300000D03*
X102970000Y-52300000D03*
X105510000Y-52300000D03*
X108050000Y-52300000D03*
X110590000Y-52300000D03*
D42*
X131470000Y-58030000D03*
X131470000Y-60570000D03*
X131470000Y-69030000D03*
X131470000Y-71570000D03*
D41*
X110590000Y-77300000D03*
X108050000Y-77300000D03*
X105510000Y-77300000D03*
X102970000Y-77300000D03*
X100430000Y-77300000D03*
X97890000Y-77300000D03*
X95350000Y-77300000D03*
D29*
X82925000Y-81550000D03*
X82925000Y-79650000D03*
X84800000Y-80600000D03*
D28*
X66890000Y-66425000D03*
X66890000Y-64875000D03*
D43*
X154570000Y-65650000D03*
X155530000Y-65650000D03*
D11*
X86462500Y-84910000D03*
X86462500Y-83890000D03*
D44*
X78550000Y-59400000D03*
X75400000Y-59400000D03*
M02*
