M48
; DRILL file {KiCad 7.0.2} date Wed May 24 22:35:43 2023
; FORMAT={-:-/ absolute / metric / decimal}
; #@! TF.CreationDate,2023-05-24T22:35:43+03:00
; #@! TF.GenerationSoftware,Kicad,Pcbnew,7.0.2
; #@! TF.FileFunction,Plated,1,4,PTH
FMAT,2
METRIC
; #@! TA.AperFunction,Plated,PTH,ViaDrill
T1C0.400
; #@! TA.AperFunction,Plated,PTH,ComponentDrill
T2C0.600
; #@! TA.AperFunction,Plated,PTH,ComponentDrill
T3C1.000
%
G90
G05
T1
X51.2Y-65.0
X51.4Y-69.2
X52.2Y-62.2
X52.2Y-72.4
X53.0Y-70.5
X54.0Y-57.6
X55.2Y-68.5
X55.4Y-63.2
X55.45Y-77.95
X56.4Y-70.2
X56.4Y-71.8
X57.8Y-71.8
X58.0Y-82.8
X59.2Y-71.8
X60.3Y-71.4
X60.325Y-83.925
X61.0Y-59.0
X62.1Y-65.8
X62.6Y-86.2
X63.0Y-51.0
X63.78Y-81.16
X63.85Y-83.9
X64.25Y-61.15
X64.4Y-76.8
X65.14Y-84.99
X65.3Y-51.7
X65.4Y-55.3
X65.6Y-87.6
X66.0Y-59.8
X66.02Y-79.79
X66.375Y-50.225
X66.63Y-85.849
X66.9Y-63.6
X67.48Y-71.09
X67.6Y-61.2
X67.875Y-87.8
X67.95Y-51.175
X68.0Y-59.4
X68.526Y-58.326
X68.6Y-63.6
X68.8Y-71.0
X68.8Y-79.8
X68.97Y-83.69
X69.05Y-73.72
X69.12Y-72.49
X69.12Y-74.85
X69.165Y-60.774
X69.26Y-77.03
X69.28Y-76.0
X69.31Y-78.1
X69.35Y-55.076
X69.5Y-47.0
X69.929Y-56.671
X70.0Y-59.321
X70.1Y-51.1
X70.2Y-53.1
X70.971Y-62.139
X71.1Y-68.6
X71.125Y-52.475
X71.95Y-83.85
X72.0Y-78.0
X72.0Y-79.0
X72.4Y-72.4
X72.4Y-80.0
X72.47Y-81.82
X72.8Y-74.4
X73.0Y-68.6
X73.15Y-83.85
X73.6Y-80.0
X73.69Y-81.6
X74.15Y-83.85
X75.0Y-77.2
X75.15Y-81.39
X75.2Y-76.0
X75.315Y-71.727
X75.35Y-83.85
X75.4Y-51.75
X75.45Y-87.1
X75.5Y-57.7
X76.0Y-61.2
X76.0Y-71.0
X76.13Y-74.14
X76.5Y-48.0
X77.2Y-51.675
X78.072Y-62.226
X78.1Y-83.8
X78.901Y-79.299
X79.0Y-51.6
X79.1Y-53.3
X79.4Y-62.673
X79.6Y-80.45
X80.475Y-62.55
X81.8Y-72.63
X82.0Y-68.0
X82.51Y-85.57
X82.53Y-58.6
X83.9Y-53.28
X83.92Y-51.82
X83.95Y-48.06
X83.97Y-62.56
X83.99Y-46.1
X84.61Y-69.51
X84.83Y-65.88
X85.2Y-72.6
X85.2Y-76.8
X85.4Y-80.4
X87.0Y-46.6
X87.0Y-49.6
X87.0Y-51.8
X87.0Y-53.2
X87.23Y-85.52
X87.5Y-62.5
X87.52Y-65.93
X87.52Y-69.39
X88.0Y-72.6
X89.1Y-46.1
X89.1Y-47.22
X89.15Y-48.42
X89.15Y-49.66
X89.2Y-50.92
X89.4Y-80.4
X89.94Y-65.59
X90.3Y-46.1
X90.39Y-47.27
X90.44Y-48.47
X90.44Y-49.71
X90.49Y-50.97
X91.348Y-46.048
X91.38Y-75.3
X91.39Y-47.28
X91.4Y-72.8
X91.44Y-48.48
X91.44Y-49.72
X91.49Y-50.98
X92.0Y-62.5
X92.3Y-88.1
X92.4Y-46.05
X92.45Y-47.0
X92.5Y-48.0
X92.55Y-50.41
X92.552Y-49.048
X93.59Y-86.92
X93.65Y-49.2
X93.65Y-50.25
X93.74Y-80.34
X94.5Y-72.5
X94.7Y-49.15
X94.7Y-50.2
X95.4Y-80.4
X95.8Y-49.15
X95.8Y-50.2
X95.8Y-57.026
X95.8Y-59.0
X96.0Y-68.0
X96.3Y-65.18
X97.05Y-49.15
X97.05Y-50.2
X97.5Y-59.5
X97.8Y-53.85
X98.07Y-75.34
X98.4Y-72.6
X98.45Y-49.15
X98.45Y-50.2
X99.75Y-49.15
X99.75Y-50.2
X99.9Y-57.5
X100.3Y-60.1
X100.4Y-54.2
X100.87Y-87.95
X101.05Y-47.85
X101.05Y-49.15
X101.05Y-50.2
X101.1Y-43.95
X101.1Y-45.55
X101.1Y-46.7
X102.0Y-62.0
X102.3Y-47.85
X102.3Y-49.15
X102.3Y-50.2
X102.35Y-43.95
X102.35Y-45.55
X102.35Y-46.7
X102.35Y-70.66
X102.35Y-72.35
X102.501Y-87.826
X102.52Y-65.63
X103.06Y-75.36
X103.1Y-53.8
X103.55Y-47.85
X103.55Y-49.15
X103.55Y-50.2
X103.6Y-43.95
X103.6Y-45.55
X103.6Y-46.7
X104.4Y-54.773
X104.95Y-47.85
X104.95Y-49.15
X105.0Y-43.95
X105.0Y-45.55
X105.0Y-46.7
X105.08Y-88.25
X105.15Y-62.65
X105.35Y-50.65
X105.8Y-81.05
X106.25Y-47.85
X106.25Y-49.15
X106.3Y-43.95
X106.3Y-45.55
X106.3Y-46.7
X106.45Y-84.299
X106.5Y-60.0
X106.8Y-56.8
X107.07Y-65.84
X107.15Y-54.55
X107.2Y-80.91
X107.45Y-47.85
X107.45Y-49.15
X107.45Y-50.2
X107.45Y-69.91
X107.47Y-86.67
X107.5Y-43.95
X107.5Y-45.55
X107.5Y-46.7
X107.95Y-56.85
X108.5Y-69.91
X108.7Y-47.85
X108.7Y-49.15
X108.7Y-50.2
X108.705Y-80.85
X108.75Y-43.95
X108.75Y-45.55
X108.75Y-46.7
X109.09Y-86.71
X109.95Y-47.85
X109.95Y-49.15
X109.95Y-50.2
X110.0Y-43.95
X110.0Y-45.55
X110.0Y-46.7
X110.0Y-60.0
X110.01Y-65.73
X110.05Y-84.65
X110.6Y-80.7
X111.2Y-47.85
X111.2Y-49.15
X111.2Y-50.2
X111.25Y-43.95
X111.25Y-45.55
X111.25Y-46.7
X112.04Y-65.7
X112.35Y-80.7
X112.6Y-47.85
X112.6Y-49.15
X112.65Y-43.95
X112.65Y-45.55
X112.65Y-46.7
X112.65Y-50.2
X112.65Y-51.2
X112.65Y-52.25
X112.77Y-69.16
X112.81Y-72.94
X112.873Y-75.3
X113.4Y-73.95
X113.9Y-47.85
X113.9Y-49.15
X113.95Y-43.95
X113.95Y-45.55
X113.95Y-46.7
X113.95Y-50.2
X113.95Y-51.2
X113.95Y-52.25
X114.326Y-70.3
X114.899Y-62.676
X115.1Y-47.85
X115.1Y-49.15
X115.15Y-43.95
X115.15Y-45.55
X115.15Y-46.7
X115.15Y-50.2
X115.15Y-51.2
X115.15Y-52.25
X115.7Y-87.025
X115.8Y-83.4
X116.45Y-47.85
X116.45Y-49.15
X116.46Y-72.06
X116.5Y-43.95
X116.5Y-45.55
X116.5Y-46.7
X116.5Y-50.2
X116.5Y-51.2
X116.5Y-52.25
X116.541Y-60.98
X117.006Y-86.744
X117.6Y-50.2
X117.7Y-86.025
X117.75Y-47.85
X117.75Y-49.15
X117.8Y-43.95
X117.8Y-45.55
X117.8Y-46.7
X117.8Y-51.2
X117.8Y-52.25
X118.86Y-50.23
X118.91Y-51.18
X118.95Y-47.85
X119.0Y-43.95
X119.0Y-45.55
X119.0Y-46.7
X119.0Y-48.8
X119.17Y-71.17
X119.22Y-73.03
X119.27Y-76.63
X119.28Y-81.37
X119.29Y-78.33
X119.41Y-52.25
X119.85Y-47.25
X119.9Y-48.25
X119.91Y-49.51
X120.02Y-51.44
X120.5Y-59.0
X120.5Y-65.5
X120.6Y-52.3
X121.474Y-52.995
X121.8Y-83.344
X121.95Y-47.25
X121.95Y-48.35
X121.955Y-51.664
X122.03Y-50.38
X122.29Y-81.45
X122.32Y-78.61
X122.33Y-76.88
X122.59Y-46.4
X122.61Y-53.229
X122.639Y-45.35
X122.65Y-44.0
X123.0Y-73.0
X123.02Y-48.47
X123.02Y-71.12
X123.08Y-49.44
X123.09Y-51.831
X123.15Y-47.25
X123.55Y-43.95
X123.55Y-45.3
X123.55Y-46.4
X123.55Y-53.3
X123.65Y-60.603
X124.29Y-51.831
X124.3Y-78.6
X124.64Y-53.229
X124.648Y-82.264
X125.009Y-62.784
X125.56Y-51.831
X125.76Y-53.229
X125.8Y-76.45
X125.8Y-78.2
X126.0Y-66.6
X126.06Y-71.16
X126.06Y-73.03
X126.74Y-51.831
X126.9Y-82.0
X126.91Y-53.229
X127.23Y-47.56
X127.87Y-86.99
X128.01Y-53.229
X128.139Y-51.831
X128.7Y-81.05
X128.8Y-66.6
X128.92Y-63.42
X129.215Y-53.263
X129.5Y-57.9
X129.5Y-59.0
X129.56Y-54.12
X129.56Y-55.37
X129.56Y-56.72
X129.6Y-75.4
X129.61Y-51.918
X130.45Y-47.69
X130.669Y-54.156
X130.73Y-55.27
X130.77Y-56.47
X130.789Y-52.391
X130.8Y-75.4
X131.2Y-81.05
X131.616Y-53.071
X132.2Y-54.15
X132.2Y-55.4
X132.23Y-56.65
X133.0Y-87.0
X133.275Y-66.425
X133.3Y-68.9
X133.4Y-71.0
X133.4Y-75.0
X134.59Y-69.93
X134.822Y-64.448
X135.5Y-81.9
X136.0Y-78.8
X136.15Y-51.05
X136.304Y-63.45
X136.4Y-81.0
X136.675Y-61.925
X136.985Y-52.526
X137.0Y-88.6
X137.4Y-79.7
X137.774Y-77.676
X138.761Y-56.988
X139.0Y-48.5
X139.625Y-72.925
X139.8Y-78.126
X139.98Y-87.81
X140.373Y-55.982
X140.496Y-56.973
X140.5Y-49.5
X140.5Y-83.0
X141.5Y-47.5
X141.9Y-51.332
X142.115Y-59.885
X143.0Y-52.026
X143.154Y-81.65
X143.425Y-69.126
X143.693Y-56.066
X143.8Y-80.6
X144.286Y-52.965
X144.5Y-78.6
X144.7Y-72.925
X144.8Y-56.6
X144.9Y-70.3
X145.5Y-81.0
X145.7Y-53.873
X146.092Y-74.594
X146.323Y-69.65
X146.335Y-49.935
X146.472Y-60.9
X146.823Y-71.727
X146.927Y-64.0
X147.114Y-61.667
X147.351Y-54.0
X147.38Y-62.863
X147.5Y-47.5
X148.0Y-86.5
X148.073Y-60.445
X148.315Y-73.615
X148.5Y-83.0
X149.0Y-80.5
X149.526Y-60.8
X149.537Y-54.097
X150.3Y-74.575
X150.373Y-62.323
X150.647Y-50.051
X150.892Y-69.65
X150.892Y-71.727
X151.09Y-83.16
X151.351Y-63.125
X151.351Y-64.175
X151.448Y-60.848
X151.819Y-68.454
X152.225Y-75.3
X152.35Y-66.375
X152.483Y-80.184
X152.8Y-70.5
X152.9Y-54.7
X152.925Y-86.1
X153.458Y-49.542
X153.8Y-72.7
X154.0Y-59.173
X154.0Y-80.673
X154.075Y-53.425
X154.22Y-82.93
X154.4Y-57.0
X154.4Y-58.0
X155.2Y-78.7
X156.075Y-67.925
X156.075Y-71.6
X156.6Y-54.0
X156.65Y-57.025
X157.1Y-60.873
X157.68Y-58.62
X157.923Y-60.307
X158.7Y-61.444
X159.826Y-74.4
X160.0Y-77.0
X161.0Y-66.4
X161.197Y-62.278
X161.286Y-65.414
X161.923Y-61.45
X162.14Y-77.61
X163.0Y-74.5
X163.5Y-61.0
X164.59Y-71.19
X164.74Y-64.45
T3
X57.35Y-74.75
X57.35Y-77.25
X58.6Y-56.45
X58.6Y-58.95
T2
G00X103.86Y-84.04
M15
G01X103.86Y-82.94
M16
G05
G00X103.86Y-88.07
M15
G01X103.86Y-87.27
M16
G05
G00X112.5Y-84.04
M15
G01X112.5Y-82.94
M16
G05
G00X112.5Y-88.07
M15
G01X112.5Y-87.27
M16
G05
T0
M30
