M48
; DRILL file {KiCad 7.0.2} date Thu Dec 14 20:07:10 2023
; FORMAT={-:-/ absolute / metric / decimal}
; #@! TF.CreationDate,2023-12-14T20:07:10+03:00
; #@! TF.GenerationSoftware,Kicad,Pcbnew,7.0.2
; #@! TF.FileFunction,Plated,1,4,PTH
FMAT,2
METRIC
; #@! TA.AperFunction,Plated,PTH,ViaDrill
T1C0.300
; #@! TA.AperFunction,Plated,PTH,ViaDrill
T2C0.400
; #@! TA.AperFunction,Plated,PTH,ComponentDrill
T3C0.600
; #@! TA.AperFunction,Plated,PTH,ComponentDrill
T4C1.000
%
G90
G05
T1
X68.4Y-61.4
X69.8Y-58.6
X76.2Y-58.4
X77.173Y-73.2
X79.2Y-54.566
X80.543Y-74.943
X80.612Y-75.74
X83.462Y-85.4
X84.2Y-88.6
X89.8Y-60.0
X93.0Y-56.8
X94.4Y-60.2
X100.2Y-56.474
X113.96Y-62.04
X126.8Y-65.2
X138.2Y-87.276
X139.0Y-52.485
X147.864Y-59.736
X148.451Y-55.322
X149.23Y-59.715
X149.427Y-61.068
X151.427Y-54.8
X151.445Y-60.863
X153.6Y-58.826
X154.6Y-86.0
X155.5Y-63.6
X155.6Y-60.273
X156.224Y-58.926
X156.6Y-57.6
X157.0Y-60.426
X158.4Y-55.8
X159.1Y-57.2
X159.313Y-59.787
T2
X51.2Y-65.0
X51.4Y-69.2
X52.2Y-62.2
X52.2Y-72.4
X53.0Y-70.5
X54.0Y-57.6
X55.2Y-68.5
X55.4Y-55.4
X55.4Y-63.2
X55.45Y-77.95
X56.4Y-70.2
X56.4Y-71.8
X57.6Y-79.2
X57.8Y-71.8
X58.0Y-82.8
X59.0Y-62.0
X59.0Y-63.4
X59.2Y-71.8
X59.8Y-51.2
X60.3Y-71.4
X60.325Y-83.925
X61.0Y-59.0
X61.0Y-62.0
X61.6Y-55.0
X62.1Y-65.8
X62.6Y-86.2
X63.0Y-51.0
X63.2Y-62.0
X63.78Y-81.16
X63.85Y-83.9
X64.4Y-76.8
X64.6Y-49.2
X65.3Y-51.7
X65.4Y-55.3
X65.6Y-87.6
X66.02Y-79.79
X66.375Y-50.225
X66.4Y-82.2
X66.6Y-84.0
X66.6Y-85.4
X66.8Y-59.8
X66.9Y-63.6
X67.2Y-61.4
X67.48Y-71.09
X67.875Y-87.8
X67.95Y-51.175
X68.6Y-63.6
X68.8Y-71.0
X68.8Y-79.8
X68.8Y-82.2
X68.8Y-84.0
X68.8Y-85.4
X69.05Y-73.72
X69.12Y-74.85
X69.165Y-60.774
X69.26Y-77.03
X69.28Y-76.0
X69.31Y-78.1
X69.35Y-55.076
X69.4Y-48.4
X69.5Y-47.0
X70.1Y-51.1
X70.2Y-53.1
X70.4Y-59.346
X70.8Y-46.4
X70.971Y-62.139
X71.1Y-68.6
X71.125Y-52.475
X71.95Y-83.85
X72.0Y-78.0
X72.0Y-79.0
X72.4Y-80.0
X72.47Y-81.82
X72.792Y-73.998
X73.0Y-68.6
X73.15Y-83.85
X73.6Y-80.0
X73.69Y-81.6
X73.8Y-46.4
X74.15Y-83.85
X75.0Y-46.1
X75.0Y-47.22
X75.0Y-52.0
X75.0Y-77.2
X75.045Y-57.258
X75.05Y-48.42
X75.05Y-49.66
X75.1Y-50.92
X75.15Y-81.39
X75.2Y-76.0
X75.35Y-83.85
X75.4Y-85.4
X75.45Y-87.1
X76.0Y-46.1
X76.0Y-47.22
X76.0Y-52.0
X76.0Y-61.2
X76.0Y-71.0
X76.05Y-48.42
X76.05Y-49.66
X76.1Y-50.92
X76.4Y-74.14
X77.0Y-46.1
X77.0Y-47.22
X77.0Y-52.0
X77.05Y-48.42
X77.05Y-49.66
X77.1Y-50.92
X78.0Y-46.1
X78.0Y-47.22
X78.0Y-52.0
X78.0Y-78.2
X78.0Y-82.2
X78.05Y-48.42
X78.05Y-49.66
X78.072Y-62.226
X78.1Y-50.92
X78.1Y-83.8
X79.0Y-46.1
X79.0Y-47.22
X79.0Y-52.0
X79.0Y-53.0
X79.05Y-48.42
X79.05Y-49.66
X79.1Y-50.92
X79.4Y-62.673
X79.8Y-65.4
X79.8Y-67.8
X80.06Y-46.1
X80.15Y-47.27
X80.2Y-48.47
X80.2Y-49.71
X80.2Y-80.8
X80.25Y-50.97
X80.25Y-52.05
X80.25Y-53.05
X80.29Y-54.05
X80.432Y-84.52
X80.6Y-63.6
X81.108Y-46.048
X81.15Y-47.28
X81.2Y-48.48
X81.2Y-49.72
X81.2Y-55.0
X81.25Y-50.98
X81.25Y-52.06
X81.25Y-53.06
X81.29Y-54.06
X81.8Y-70.6
X81.8Y-72.63
X82.0Y-62.6
X82.0Y-65.8
X82.0Y-68.0
X82.26Y-46.1
X82.26Y-47.22
X82.31Y-48.42
X82.31Y-49.66
X82.36Y-50.92
X82.36Y-52.0
X82.36Y-53.0
X82.4Y-54.0
X82.4Y-55.0
X82.4Y-55.95
X82.4Y-56.95
X82.53Y-58.6
X83.46Y-46.1
X83.55Y-47.27
X83.6Y-48.47
X83.6Y-49.71
X83.65Y-50.97
X83.65Y-52.05
X83.65Y-53.05
X83.69Y-54.05
X83.69Y-55.05
X83.69Y-56.0
X83.69Y-57.0
X83.69Y-58.0
X83.69Y-58.99
X83.69Y-59.99
X83.97Y-62.56
X84.508Y-46.048
X84.55Y-47.28
X84.6Y-48.48
X84.6Y-49.72
X84.61Y-69.51
X84.65Y-50.98
X84.65Y-52.06
X84.65Y-53.06
X84.69Y-54.06
X84.69Y-55.06
X84.69Y-56.01
X84.69Y-57.01
X84.69Y-58.01
X84.69Y-59.0
X84.69Y-60.0
X84.8Y-67.6
X84.83Y-65.88
X85.2Y-72.6
X85.66Y-46.1
X85.66Y-47.22
X85.71Y-48.42
X85.71Y-49.66
X85.76Y-50.92
X85.76Y-52.0
X85.76Y-53.0
X85.8Y-54.0
X85.8Y-55.0
X85.8Y-55.95
X85.8Y-56.95
X85.8Y-57.95
X85.8Y-58.94
X85.8Y-59.94
X85.8Y-62.6
X85.8Y-76.4
X86.7Y-55.9
X86.86Y-46.1
X86.95Y-47.27
X87.0Y-48.47
X87.0Y-49.71
X87.05Y-50.97
X87.05Y-52.05
X87.05Y-53.05
X87.09Y-54.05
X87.09Y-55.05
X87.4Y-67.6
X87.4Y-79.4
X87.5Y-62.5
X87.52Y-65.93
X87.52Y-69.39
X87.908Y-46.048
X87.95Y-47.28
X88.0Y-48.48
X88.0Y-49.72
X88.0Y-72.6
X88.05Y-50.98
X88.05Y-52.06
X88.05Y-53.06
X88.09Y-54.06
X88.09Y-55.06
X88.8Y-84.2
X89.1Y-46.1
X89.1Y-47.22
X89.15Y-48.42
X89.15Y-49.66
X89.2Y-50.92
X89.2Y-52.0
X89.2Y-53.0
X89.24Y-54.0
X89.24Y-55.0
X89.4Y-80.4
X89.8Y-62.6
X89.8Y-67.6
X89.94Y-65.59
X90.3Y-46.1
X90.39Y-47.27
X90.44Y-48.47
X90.44Y-49.71
X90.49Y-50.97
X90.49Y-52.05
X90.49Y-53.05
X90.53Y-54.05
X90.53Y-55.05
X91.2Y-75.6
X91.348Y-46.048
X91.39Y-47.28
X91.4Y-72.8
X91.44Y-48.48
X91.44Y-49.72
X91.49Y-50.98
X91.49Y-52.06
X91.49Y-53.06
X91.53Y-54.06
X91.53Y-55.06
X91.8Y-67.6
X92.0Y-62.5
X92.3Y-88.1
X92.4Y-46.05
X92.45Y-47.0
X92.5Y-48.0
X92.55Y-50.41
X92.552Y-49.048
X92.6Y-52.0
X93.59Y-86.92
X93.6Y-51.4
X93.65Y-49.2
X93.65Y-50.25
X93.74Y-80.34
X93.8Y-82.6
X94.2Y-62.6
X94.5Y-72.5
X94.7Y-49.15
X94.7Y-50.2
X95.4Y-80.4
X95.8Y-49.15
X95.8Y-50.2
X96.0Y-68.0
X96.3Y-65.18
X97.05Y-49.15
X97.05Y-50.2
X97.5Y-59.8
X97.8Y-53.85
X98.07Y-75.6
X98.2Y-63.4
X98.4Y-72.6
X98.45Y-49.15
X98.45Y-50.2
X99.75Y-49.15
X99.75Y-50.2
X100.3Y-60.1
X100.4Y-54.2
X100.87Y-87.95
X101.05Y-48.0
X101.05Y-49.15
X101.05Y-50.2
X101.1Y-44.05
X101.1Y-45.05
X101.1Y-46.0
X101.1Y-47.0
X102.0Y-60.2
X102.0Y-61.6
X102.0Y-63.4
X102.3Y-48.0
X102.3Y-49.15
X102.3Y-50.2
X102.35Y-44.05
X102.35Y-45.05
X102.35Y-46.0
X102.35Y-47.0
X102.35Y-70.66
X102.35Y-72.35
X102.4Y-67.6
X102.501Y-87.826
X102.52Y-65.63
X103.1Y-53.8
X103.55Y-48.0
X103.55Y-49.15
X103.55Y-50.2
X103.6Y-44.05
X103.6Y-45.05
X103.6Y-46.0
X103.6Y-47.0
X103.6Y-60.2
X103.6Y-61.8
X103.6Y-63.4
X103.8Y-70.6
X104.2Y-72.6
X104.345Y-52.8
X104.4Y-54.773
X104.95Y-48.0
X104.95Y-49.15
X105.0Y-44.05
X105.0Y-45.05
X105.0Y-46.0
X105.0Y-47.0
X105.0Y-50.2
X105.08Y-88.25
X105.15Y-62.65
X105.8Y-81.05
X106.2Y-50.2
X106.25Y-48.0
X106.25Y-49.15
X106.3Y-44.05
X106.3Y-45.05
X106.3Y-46.0
X106.3Y-47.0
X106.45Y-84.299
X106.5Y-60.0
X106.6Y-61.8
X106.8Y-56.8
X107.0Y-67.4
X107.07Y-65.84
X107.15Y-54.55
X107.2Y-80.91
X107.45Y-48.0
X107.45Y-49.15
X107.45Y-50.2
X107.45Y-69.91
X107.47Y-86.67
X107.5Y-44.05
X107.5Y-45.05
X107.5Y-46.0
X107.5Y-47.0
X107.95Y-56.85
X108.4Y-60.0
X108.4Y-61.8
X108.4Y-63.4
X108.5Y-69.91
X108.6Y-65.8
X108.7Y-48.0
X108.7Y-49.15
X108.7Y-50.2
X108.705Y-80.85
X108.75Y-44.05
X108.75Y-45.05
X108.75Y-46.0
X108.75Y-47.0
X109.0Y-57.0
X109.09Y-86.71
X109.6Y-69.2
X109.95Y-48.0
X109.95Y-49.15
X109.95Y-50.2
X110.0Y-44.05
X110.0Y-45.05
X110.0Y-46.0
X110.0Y-47.0
X110.0Y-60.0
X110.0Y-61.8
X110.01Y-65.73
X110.05Y-84.65
X110.6Y-80.7
X111.2Y-48.0
X111.2Y-49.15
X111.2Y-50.2
X111.25Y-44.05
X111.25Y-45.05
X111.25Y-46.0
X111.25Y-47.0
X112.04Y-65.7
X112.35Y-80.7
X112.4Y-78.6
X112.6Y-48.0
X112.6Y-49.15
X112.6Y-53.3
X112.65Y-44.05
X112.65Y-45.05
X112.65Y-46.0
X112.65Y-47.0
X112.65Y-50.2
X112.65Y-51.2
X112.65Y-52.25
X112.77Y-69.16
X112.873Y-72.6
X113.9Y-48.0
X113.9Y-49.15
X113.9Y-53.3
X113.95Y-44.05
X113.95Y-45.05
X113.95Y-46.0
X113.95Y-47.0
X113.95Y-50.2
X113.95Y-51.2
X113.95Y-52.25
X113.951Y-74.784
X114.15Y-73.8
X114.326Y-70.3
X115.1Y-48.0
X115.1Y-49.15
X115.15Y-44.05
X115.15Y-45.05
X115.15Y-46.0
X115.15Y-47.0
X115.15Y-50.2
X115.15Y-51.2
X115.15Y-52.25
X115.7Y-87.025
X116.45Y-48.0
X116.45Y-49.15
X116.5Y-44.05
X116.5Y-45.05
X116.5Y-46.0
X116.5Y-47.0
X116.5Y-50.2
X116.5Y-51.2
X116.5Y-52.25
X116.524Y-83.435
X116.541Y-60.98
X116.8Y-71.2
X116.8Y-73.0
X117.006Y-86.744
X117.6Y-50.2
X117.7Y-86.025
X117.75Y-48.0
X117.75Y-49.15
X117.8Y-44.05
X117.8Y-45.05
X117.8Y-46.0
X117.8Y-47.0
X117.8Y-51.2
X117.8Y-52.25
X118.25Y-59.25
X118.86Y-50.23
X118.9Y-49.1
X118.91Y-51.18
X118.95Y-47.85
X119.0Y-44.05
X119.0Y-45.05
X119.0Y-46.0
X119.17Y-71.17
X119.22Y-73.03
X119.27Y-76.63
X119.28Y-81.37
X119.29Y-78.33
X119.4Y-80.0
X119.41Y-52.25
X119.8Y-47.2
X119.9Y-48.25
X119.9Y-49.4
X119.9Y-50.4
X120.02Y-51.44
X120.5Y-59.0
X120.5Y-65.5
X120.6Y-52.3
X121.0Y-71.2
X121.0Y-73.0
X121.474Y-52.995
X121.95Y-47.25
X121.95Y-48.35
X121.955Y-51.664
X122.03Y-50.38
X122.29Y-81.45
X122.32Y-78.61
X122.33Y-76.88
X122.4Y-80.0
X122.59Y-46.4
X122.6Y-87.4
X122.61Y-53.229
X122.639Y-45.35
X122.65Y-44.0
X123.0Y-50.4
X123.0Y-73.0
X123.02Y-48.47
X123.02Y-71.12
X123.08Y-49.44
X123.09Y-51.831
X123.15Y-47.25
X123.3Y-54.2
X123.4Y-56.0
X123.55Y-43.95
X123.55Y-45.3
X123.55Y-46.4
X123.55Y-53.3
X123.6Y-51.0
X123.6Y-55.1
X123.623Y-83.0
X123.65Y-60.603
X124.0Y-48.2
X124.0Y-49.2
X124.0Y-50.2
X124.2Y-47.2
X124.29Y-51.831
X124.3Y-54.2
X124.3Y-78.6
X124.4Y-80.6
X124.6Y-46.4
X124.6Y-51.0
X124.6Y-55.1
X124.6Y-71.2
X124.6Y-73.0
X124.64Y-53.229
X125.0Y-48.2
X125.0Y-49.2
X125.0Y-50.2
X125.2Y-47.2
X125.2Y-54.2
X125.4Y-62.331
X125.56Y-51.831
X125.56Y-51.0
X125.6Y-46.4
X125.6Y-55.1
X125.76Y-53.229
X125.8Y-76.45
X125.8Y-78.2
X125.96Y-48.2
X125.96Y-49.2
X125.96Y-50.2
X126.0Y-66.6
X126.06Y-71.16
X126.06Y-73.03
X126.154Y-82.665
X126.16Y-47.2
X126.2Y-54.2
X126.56Y-46.4
X126.6Y-55.1
X126.61Y-51.0
X126.74Y-51.831
X126.8Y-80.6
X126.9Y-82.0
X126.91Y-53.229
X127.0Y-75.4
X127.0Y-76.4
X127.0Y-78.2
X127.01Y-48.2
X127.01Y-49.2
X127.01Y-50.2
X127.2Y-54.2
X127.21Y-47.2
X127.4Y-70.0
X127.5Y-71.5
X127.5Y-73.0
X127.6Y-51.0
X127.6Y-55.1
X127.6Y-87.6
X127.61Y-46.4
X128.0Y-48.2
X128.0Y-49.2
X128.0Y-50.2
X128.01Y-53.229
X128.1Y-54.2
X128.139Y-51.831
X128.2Y-47.2
X128.2Y-75.4
X128.56Y-51.0
X128.6Y-46.4
X128.6Y-55.6
X128.7Y-81.05
X128.8Y-66.6
X128.9Y-54.7
X128.92Y-63.42
X128.96Y-48.2
X128.96Y-49.2
X128.96Y-50.2
X129.16Y-47.2
X129.215Y-53.263
X129.5Y-59.6
X129.56Y-54.12
X129.56Y-55.37
X129.56Y-46.4
X129.6Y-75.4
X129.61Y-51.918
X129.611Y-51.0
X129.7Y-56.5
X129.7Y-57.5
X129.7Y-58.6
X130.0Y-69.2
X130.0Y-70.4
X130.0Y-71.6
X130.0Y-72.6
X130.0Y-73.6
X130.011Y-48.2
X130.011Y-49.2
X130.011Y-50.2
X130.21Y-47.2
X130.475Y-59.425
X130.5Y-66.25
X130.6Y-51.0
X130.6Y-87.4
X130.611Y-46.4
X130.669Y-54.156
X130.73Y-55.27
X130.77Y-56.47
X130.789Y-52.391
X130.8Y-75.4
X131.0Y-48.2
X131.0Y-49.2
X131.0Y-50.2
X131.2Y-47.2
X131.2Y-81.05
X131.375Y-59.425
X131.4Y-51.6
X131.6Y-46.4
X131.616Y-53.071
X132.0Y-48.8
X132.0Y-50.0
X132.2Y-47.4
X132.2Y-52.2
X132.2Y-54.15
X132.2Y-55.4
X132.23Y-56.65
X132.325Y-59.425
X132.56Y-46.4
X132.8Y-53.2
X133.0Y-87.8
X133.2Y-47.4
X133.2Y-50.0
X133.2Y-54.2
X133.2Y-55.4
X133.2Y-56.6
X133.2Y-57.8
X133.2Y-58.8
X133.2Y-59.8
X133.275Y-66.425
X133.3Y-68.9
X133.4Y-52.2
X133.4Y-70.0
X133.4Y-71.0
X133.4Y-75.0
X133.611Y-46.4
X134.2Y-50.0
X134.2Y-55.4
X134.2Y-56.6
X134.2Y-57.8
X134.6Y-48.8
X134.6Y-68.8
X134.6Y-70.0
X134.6Y-71.0
X134.8Y-46.4
X134.8Y-47.4
X134.822Y-64.448
X135.189Y-50.0
X135.25Y-56.0
X135.25Y-57.25
X135.5Y-81.9
X135.589Y-48.8
X135.79Y-46.4
X135.79Y-47.4
X136.0Y-78.8
X136.15Y-50.0
X136.304Y-63.45
X136.4Y-81.0
X136.75Y-46.4
X136.75Y-47.4
X136.985Y-52.526
X137.0Y-88.6
X137.2Y-50.0
X137.4Y-79.7
X137.75Y-63.25
X137.774Y-77.676
X137.8Y-46.4
X137.8Y-47.4
X138.0Y-61.75
X138.0Y-69.5
X138.0Y-73.0
X138.761Y-56.988
X139.0Y-46.4
X139.0Y-47.4
X139.0Y-48.5
X139.25Y-60.5
X139.25Y-61.75
X139.25Y-63.25
X139.625Y-72.925
X139.8Y-78.126
X139.98Y-87.81
X140.373Y-55.982
X140.45Y-49.0
X140.496Y-56.973
X140.5Y-60.5
X140.5Y-61.75
X140.5Y-83.0
X140.785Y-50.288
X141.0Y-63.25
X141.25Y-69.5
X141.5Y-47.5
X141.9Y-51.332
X142.115Y-59.885
X142.5Y-63.25
X143.0Y-52.026
X143.154Y-81.65
X143.425Y-69.126
X143.693Y-56.066
X143.8Y-80.6
X144.286Y-52.965
X144.5Y-78.6
X144.603Y-56.85
X144.7Y-72.925
X144.9Y-70.3
X145.5Y-81.0
X145.765Y-55.835
X146.092Y-74.594
X146.323Y-69.65
X146.335Y-49.935
X146.472Y-60.9
X146.823Y-71.727
X146.927Y-64.0
X147.114Y-61.667
X147.314Y-53.774
X147.38Y-62.863
X147.5Y-47.5
X148.0Y-86.5
X148.315Y-73.615
X148.5Y-83.0
X149.0Y-80.5
X149.615Y-53.273
X149.8Y-47.4
X149.927Y-63.33
X150.3Y-74.575
X150.331Y-70.2
X150.5Y-49.124
X150.892Y-71.727
X151.09Y-83.16
X151.276Y-68.724
X151.351Y-63.125
X151.351Y-64.175
X152.225Y-75.3
X152.35Y-66.375
X152.483Y-80.184
X152.8Y-70.5
X152.877Y-53.885
X153.458Y-49.542
X153.6Y-86.4
X153.8Y-72.7
X154.0Y-80.673
X154.075Y-53.425
X154.2Y-82.581
X155.2Y-49.6
X155.2Y-78.7
X156.0Y-71.2
X156.075Y-67.925
X156.075Y-72.8
X156.6Y-54.0
X157.924Y-60.5
X159.4Y-53.6
X159.4Y-62.1
X159.5Y-63.2
X159.826Y-74.4
X160.0Y-77.0
X160.4Y-59.6
X161.482Y-66.59
X161.8Y-56.4
X161.8Y-62.07
X161.823Y-65.65
X162.14Y-77.61
X162.4Y-71.2
X162.7Y-58.1
X163.0Y-74.5
X163.5Y-61.0
X164.2Y-63.0
X164.59Y-71.19
X164.74Y-64.45
T4
X57.35Y-74.75
X57.35Y-77.25
X58.6Y-56.45
X58.6Y-58.95
T3
G00X103.86Y-84.04
M15
G01X103.86Y-82.94
M16
G05
G00X103.86Y-88.07
M15
G01X103.86Y-87.27
M16
G05
G00X112.5Y-84.04
M15
G01X112.5Y-82.94
M16
G05
G00X112.5Y-88.07
M15
G01X112.5Y-87.27
M16
G05
T0
M30
