G04 #@! TF.GenerationSoftware,KiCad,Pcbnew,7.0.5*
G04 #@! TF.CreationDate,2023-12-24T10:56:33+03:00*
G04 #@! TF.ProjectId,ALERT_RIDER_HARDWARE,414c4552-545f-4524-9944-45525f484152,rev?*
G04 #@! TF.SameCoordinates,Original*
G04 #@! TF.FileFunction,Legend,Bot*
G04 #@! TF.FilePolarity,Positive*
%FSLAX46Y46*%
G04 Gerber Fmt 4.6, Leading zero omitted, Abs format (unit mm)*
G04 Created by KiCad (PCBNEW 7.0.5) date 2023-12-24 10:56:33*
%MOMM*%
%LPD*%
G01*
G04 APERTURE LIST*
%ADD10C,0.150000*%
%ADD11C,0.120000*%
%ADD12C,0.127000*%
%ADD13C,0.200000*%
%ADD14C,0.100000*%
G04 APERTURE END LIST*
D10*
X143322801Y-65780000D02*
G75*
G03*
X143322801Y-65780000I-72801J0D01*
G01*
X58200000Y-67400000D02*
G75*
G03*
X58200000Y-67400000I-200000J0D01*
G01*
X70120000Y-56050000D02*
G75*
G03*
X70120000Y-56050000I-200000J0D01*
G01*
X58072801Y-67400000D02*
G75*
G03*
X58072801Y-67400000I-72801J0D01*
G01*
X61300000Y-59690000D02*
G75*
G03*
X61300000Y-59690000I-200000J0D01*
G01*
X141952801Y-82720000D02*
G75*
G03*
X141952801Y-82720000I-72801J0D01*
G01*
X139000000Y-59560000D02*
G75*
G03*
X139000000Y-59560000I-200000J0D01*
G01*
X138872801Y-59560000D02*
G75*
G03*
X138872801Y-59560000I-72801J0D01*
G01*
X54940000Y-74660000D02*
G75*
G03*
X54940000Y-74660000I-200000J0D01*
G01*
X142080000Y-82720000D02*
G75*
G03*
X142080000Y-82720000I-200000J0D01*
G01*
X61172801Y-59690000D02*
G75*
G03*
X61172801Y-59690000I-72801J0D01*
G01*
X54812801Y-74660000D02*
G75*
G03*
X54812801Y-74660000I-72801J0D01*
G01*
X143450000Y-65780000D02*
G75*
G03*
X143450000Y-65780000I-200000J0D01*
G01*
X69992801Y-56050000D02*
G75*
G03*
X69992801Y-56050000I-72801J0D01*
G01*
X141323866Y-72531905D02*
X141276247Y-72579524D01*
X141276247Y-72579524D02*
X141228628Y-72674762D01*
X141228628Y-72674762D02*
X141323866Y-72865238D01*
X141323866Y-72865238D02*
X141276247Y-72960476D01*
X141276247Y-72960476D02*
X141228628Y-73008095D01*
X142085771Y-73674762D02*
X142085771Y-73627143D01*
X142085771Y-73627143D02*
X142038152Y-73531905D01*
X142038152Y-73531905D02*
X141942914Y-73484286D01*
X141942914Y-73484286D02*
X141466723Y-73484286D01*
X141466723Y-73484286D02*
X141371485Y-73436667D01*
X141371485Y-73436667D02*
X141323866Y-73341429D01*
X141323866Y-73341429D02*
X141276247Y-73436667D01*
X141276247Y-73436667D02*
X141181009Y-73484286D01*
X141181009Y-73484286D02*
X140704819Y-73484286D01*
X140704819Y-73484286D02*
X140609580Y-73531905D01*
X140609580Y-73531905D02*
X140561961Y-73627143D01*
X140561961Y-73627143D02*
X140561961Y-73674762D01*
X141704819Y-74055715D02*
X140704819Y-74055715D01*
X141704819Y-74531905D02*
X140704819Y-74531905D01*
X140704819Y-74531905D02*
X141704819Y-75103333D01*
X141704819Y-75103333D02*
X140704819Y-75103333D01*
X140704819Y-75436667D02*
X140704819Y-76008095D01*
X141704819Y-75722381D02*
X140704819Y-75722381D01*
X137254819Y-73550000D02*
X137254819Y-73740476D01*
X137254819Y-73740476D02*
X137302438Y-73835714D01*
X137302438Y-73835714D02*
X137397676Y-73930952D01*
X137397676Y-73930952D02*
X137588152Y-73978571D01*
X137588152Y-73978571D02*
X137921485Y-73978571D01*
X137921485Y-73978571D02*
X138111961Y-73930952D01*
X138111961Y-73930952D02*
X138207200Y-73835714D01*
X138207200Y-73835714D02*
X138254819Y-73740476D01*
X138254819Y-73740476D02*
X138254819Y-73550000D01*
X138254819Y-73550000D02*
X138207200Y-73454762D01*
X138207200Y-73454762D02*
X138111961Y-73359524D01*
X138111961Y-73359524D02*
X137921485Y-73311905D01*
X137921485Y-73311905D02*
X137588152Y-73311905D01*
X137588152Y-73311905D02*
X137397676Y-73359524D01*
X137397676Y-73359524D02*
X137302438Y-73454762D01*
X137302438Y-73454762D02*
X137254819Y-73550000D01*
X137254819Y-74407143D02*
X138064342Y-74407143D01*
X138064342Y-74407143D02*
X138159580Y-74454762D01*
X138159580Y-74454762D02*
X138207200Y-74502381D01*
X138207200Y-74502381D02*
X138254819Y-74597619D01*
X138254819Y-74597619D02*
X138254819Y-74788095D01*
X138254819Y-74788095D02*
X138207200Y-74883333D01*
X138207200Y-74883333D02*
X138159580Y-74930952D01*
X138159580Y-74930952D02*
X138064342Y-74978571D01*
X138064342Y-74978571D02*
X137254819Y-74978571D01*
X137254819Y-75311905D02*
X137254819Y-75883333D01*
X138254819Y-75597619D02*
X137254819Y-75597619D01*
X58137142Y-71411009D02*
X57994285Y-71458628D01*
X57994285Y-71458628D02*
X57946666Y-71506247D01*
X57946666Y-71506247D02*
X57899047Y-71601485D01*
X57899047Y-71601485D02*
X57899047Y-71744342D01*
X57899047Y-71744342D02*
X57946666Y-71839580D01*
X57946666Y-71839580D02*
X57994285Y-71887200D01*
X57994285Y-71887200D02*
X58089523Y-71934819D01*
X58089523Y-71934819D02*
X58470475Y-71934819D01*
X58470475Y-71934819D02*
X58470475Y-70934819D01*
X58470475Y-70934819D02*
X58137142Y-70934819D01*
X58137142Y-70934819D02*
X58041904Y-70982438D01*
X58041904Y-70982438D02*
X57994285Y-71030057D01*
X57994285Y-71030057D02*
X57946666Y-71125295D01*
X57946666Y-71125295D02*
X57946666Y-71220533D01*
X57946666Y-71220533D02*
X57994285Y-71315771D01*
X57994285Y-71315771D02*
X58041904Y-71363390D01*
X58041904Y-71363390D02*
X58137142Y-71411009D01*
X58137142Y-71411009D02*
X58470475Y-71411009D01*
X57518094Y-71649104D02*
X57041904Y-71649104D01*
X57613332Y-71934819D02*
X57279999Y-70934819D01*
X57279999Y-70934819D02*
X56946666Y-71934819D01*
X56756189Y-70934819D02*
X56184761Y-70934819D01*
X56470475Y-71934819D02*
X56470475Y-70934819D01*
X55851427Y-71553866D02*
X55089523Y-71553866D01*
X55470475Y-71934819D02*
X55470475Y-71172914D01*
X144459580Y-73929761D02*
X144507200Y-73882142D01*
X144507200Y-73882142D02*
X144554819Y-73739285D01*
X144554819Y-73739285D02*
X144554819Y-73644047D01*
X144554819Y-73644047D02*
X144507200Y-73501190D01*
X144507200Y-73501190D02*
X144411961Y-73405952D01*
X144411961Y-73405952D02*
X144316723Y-73358333D01*
X144316723Y-73358333D02*
X144126247Y-73310714D01*
X144126247Y-73310714D02*
X143983390Y-73310714D01*
X143983390Y-73310714D02*
X143792914Y-73358333D01*
X143792914Y-73358333D02*
X143697676Y-73405952D01*
X143697676Y-73405952D02*
X143602438Y-73501190D01*
X143602438Y-73501190D02*
X143554819Y-73644047D01*
X143554819Y-73644047D02*
X143554819Y-73739285D01*
X143554819Y-73739285D02*
X143602438Y-73882142D01*
X143602438Y-73882142D02*
X143650057Y-73929761D01*
X144554819Y-74834523D02*
X144554819Y-74358333D01*
X144554819Y-74358333D02*
X143554819Y-74358333D01*
X144554819Y-75739285D02*
X144078628Y-75405952D01*
X144554819Y-75167857D02*
X143554819Y-75167857D01*
X143554819Y-75167857D02*
X143554819Y-75548809D01*
X143554819Y-75548809D02*
X143602438Y-75644047D01*
X143602438Y-75644047D02*
X143650057Y-75691666D01*
X143650057Y-75691666D02*
X143745295Y-75739285D01*
X143745295Y-75739285D02*
X143888152Y-75739285D01*
X143888152Y-75739285D02*
X143983390Y-75691666D01*
X143983390Y-75691666D02*
X144031009Y-75644047D01*
X144031009Y-75644047D02*
X144078628Y-75548809D01*
X144078628Y-75548809D02*
X144078628Y-75167857D01*
X143277200Y-73220238D02*
X143277200Y-75829762D01*
X58557142Y-80731009D02*
X58414285Y-80778628D01*
X58414285Y-80778628D02*
X58366666Y-80826247D01*
X58366666Y-80826247D02*
X58319047Y-80921485D01*
X58319047Y-80921485D02*
X58319047Y-81064342D01*
X58319047Y-81064342D02*
X58366666Y-81159580D01*
X58366666Y-81159580D02*
X58414285Y-81207200D01*
X58414285Y-81207200D02*
X58509523Y-81254819D01*
X58509523Y-81254819D02*
X58890475Y-81254819D01*
X58890475Y-81254819D02*
X58890475Y-80254819D01*
X58890475Y-80254819D02*
X58557142Y-80254819D01*
X58557142Y-80254819D02*
X58461904Y-80302438D01*
X58461904Y-80302438D02*
X58414285Y-80350057D01*
X58414285Y-80350057D02*
X58366666Y-80445295D01*
X58366666Y-80445295D02*
X58366666Y-80540533D01*
X58366666Y-80540533D02*
X58414285Y-80635771D01*
X58414285Y-80635771D02*
X58461904Y-80683390D01*
X58461904Y-80683390D02*
X58557142Y-80731009D01*
X58557142Y-80731009D02*
X58890475Y-80731009D01*
X57938094Y-80969104D02*
X57461904Y-80969104D01*
X58033332Y-81254819D02*
X57699999Y-80254819D01*
X57699999Y-80254819D02*
X57366666Y-81254819D01*
X57176189Y-80254819D02*
X56604761Y-80254819D01*
X56890475Y-81254819D02*
X56890475Y-80254819D01*
X56271427Y-80873866D02*
X55509523Y-80873866D01*
X80447927Y-82549999D02*
X80043165Y-82316666D01*
X80447927Y-82149999D02*
X79597927Y-82149999D01*
X79597927Y-82149999D02*
X79597927Y-82416666D01*
X79597927Y-82416666D02*
X79638403Y-82483333D01*
X79638403Y-82483333D02*
X79678879Y-82516666D01*
X79678879Y-82516666D02*
X79759831Y-82549999D01*
X79759831Y-82549999D02*
X79881260Y-82549999D01*
X79881260Y-82549999D02*
X79962212Y-82516666D01*
X79962212Y-82516666D02*
X80002689Y-82483333D01*
X80002689Y-82483333D02*
X80043165Y-82416666D01*
X80043165Y-82416666D02*
X80043165Y-82149999D01*
X79597927Y-82783333D02*
X79597927Y-83216666D01*
X79597927Y-83216666D02*
X79921736Y-82983333D01*
X79921736Y-82983333D02*
X79921736Y-83083333D01*
X79921736Y-83083333D02*
X79962212Y-83149999D01*
X79962212Y-83149999D02*
X80002689Y-83183333D01*
X80002689Y-83183333D02*
X80083641Y-83216666D01*
X80083641Y-83216666D02*
X80286022Y-83216666D01*
X80286022Y-83216666D02*
X80366974Y-83183333D01*
X80366974Y-83183333D02*
X80407451Y-83149999D01*
X80407451Y-83149999D02*
X80447927Y-83083333D01*
X80447927Y-83083333D02*
X80447927Y-82883333D01*
X80447927Y-82883333D02*
X80407451Y-82816666D01*
X80407451Y-82816666D02*
X80366974Y-82783333D01*
X79597927Y-83850000D02*
X79597927Y-83516666D01*
X79597927Y-83516666D02*
X80002689Y-83483333D01*
X80002689Y-83483333D02*
X79962212Y-83516666D01*
X79962212Y-83516666D02*
X79921736Y-83583333D01*
X79921736Y-83583333D02*
X79921736Y-83750000D01*
X79921736Y-83750000D02*
X79962212Y-83816666D01*
X79962212Y-83816666D02*
X80002689Y-83850000D01*
X80002689Y-83850000D02*
X80083641Y-83883333D01*
X80083641Y-83883333D02*
X80286022Y-83883333D01*
X80286022Y-83883333D02*
X80366974Y-83850000D01*
X80366974Y-83850000D02*
X80407451Y-83816666D01*
X80407451Y-83816666D02*
X80447927Y-83750000D01*
X80447927Y-83750000D02*
X80447927Y-83583333D01*
X80447927Y-83583333D02*
X80407451Y-83516666D01*
X80407451Y-83516666D02*
X80366974Y-83483333D01*
X87847927Y-82283333D02*
X87443165Y-82050000D01*
X87847927Y-81883333D02*
X86997927Y-81883333D01*
X86997927Y-81883333D02*
X86997927Y-82150000D01*
X86997927Y-82150000D02*
X87038403Y-82216667D01*
X87038403Y-82216667D02*
X87078879Y-82250000D01*
X87078879Y-82250000D02*
X87159831Y-82283333D01*
X87159831Y-82283333D02*
X87281260Y-82283333D01*
X87281260Y-82283333D02*
X87362212Y-82250000D01*
X87362212Y-82250000D02*
X87402689Y-82216667D01*
X87402689Y-82216667D02*
X87443165Y-82150000D01*
X87443165Y-82150000D02*
X87443165Y-81883333D01*
X86997927Y-82916667D02*
X86997927Y-82583333D01*
X86997927Y-82583333D02*
X87402689Y-82550000D01*
X87402689Y-82550000D02*
X87362212Y-82583333D01*
X87362212Y-82583333D02*
X87321736Y-82650000D01*
X87321736Y-82650000D02*
X87321736Y-82816667D01*
X87321736Y-82816667D02*
X87362212Y-82883333D01*
X87362212Y-82883333D02*
X87402689Y-82916667D01*
X87402689Y-82916667D02*
X87483641Y-82950000D01*
X87483641Y-82950000D02*
X87686022Y-82950000D01*
X87686022Y-82950000D02*
X87766974Y-82916667D01*
X87766974Y-82916667D02*
X87807451Y-82883333D01*
X87807451Y-82883333D02*
X87847927Y-82816667D01*
X87847927Y-82816667D02*
X87847927Y-82650000D01*
X87847927Y-82650000D02*
X87807451Y-82583333D01*
X87807451Y-82583333D02*
X87766974Y-82550000D01*
X70128571Y-51436104D02*
X70171428Y-51474200D01*
X70171428Y-51474200D02*
X70300000Y-51512295D01*
X70300000Y-51512295D02*
X70385714Y-51512295D01*
X70385714Y-51512295D02*
X70514285Y-51474200D01*
X70514285Y-51474200D02*
X70600000Y-51398009D01*
X70600000Y-51398009D02*
X70642857Y-51321819D01*
X70642857Y-51321819D02*
X70685714Y-51169438D01*
X70685714Y-51169438D02*
X70685714Y-51055152D01*
X70685714Y-51055152D02*
X70642857Y-50902771D01*
X70642857Y-50902771D02*
X70600000Y-50826580D01*
X70600000Y-50826580D02*
X70514285Y-50750390D01*
X70514285Y-50750390D02*
X70385714Y-50712295D01*
X70385714Y-50712295D02*
X70300000Y-50712295D01*
X70300000Y-50712295D02*
X70171428Y-50750390D01*
X70171428Y-50750390D02*
X70128571Y-50788485D01*
X69828571Y-50712295D02*
X69271428Y-50712295D01*
X69271428Y-50712295D02*
X69571428Y-51017057D01*
X69571428Y-51017057D02*
X69442857Y-51017057D01*
X69442857Y-51017057D02*
X69357143Y-51055152D01*
X69357143Y-51055152D02*
X69314285Y-51093247D01*
X69314285Y-51093247D02*
X69271428Y-51169438D01*
X69271428Y-51169438D02*
X69271428Y-51359914D01*
X69271428Y-51359914D02*
X69314285Y-51436104D01*
X69314285Y-51436104D02*
X69357143Y-51474200D01*
X69357143Y-51474200D02*
X69442857Y-51512295D01*
X69442857Y-51512295D02*
X69700000Y-51512295D01*
X69700000Y-51512295D02*
X69785714Y-51474200D01*
X69785714Y-51474200D02*
X69828571Y-51436104D01*
X68500000Y-50978961D02*
X68500000Y-51512295D01*
X68714285Y-50674200D02*
X68928571Y-51245628D01*
X68928571Y-51245628D02*
X68371428Y-51245628D01*
X142953571Y-60401104D02*
X142996428Y-60439200D01*
X142996428Y-60439200D02*
X143125000Y-60477295D01*
X143125000Y-60477295D02*
X143210714Y-60477295D01*
X143210714Y-60477295D02*
X143339285Y-60439200D01*
X143339285Y-60439200D02*
X143425000Y-60363009D01*
X143425000Y-60363009D02*
X143467857Y-60286819D01*
X143467857Y-60286819D02*
X143510714Y-60134438D01*
X143510714Y-60134438D02*
X143510714Y-60020152D01*
X143510714Y-60020152D02*
X143467857Y-59867771D01*
X143467857Y-59867771D02*
X143425000Y-59791580D01*
X143425000Y-59791580D02*
X143339285Y-59715390D01*
X143339285Y-59715390D02*
X143210714Y-59677295D01*
X143210714Y-59677295D02*
X143125000Y-59677295D01*
X143125000Y-59677295D02*
X142996428Y-59715390D01*
X142996428Y-59715390D02*
X142953571Y-59753485D01*
X142096428Y-60477295D02*
X142610714Y-60477295D01*
X142353571Y-60477295D02*
X142353571Y-59677295D01*
X142353571Y-59677295D02*
X142439285Y-59791580D01*
X142439285Y-59791580D02*
X142525000Y-59867771D01*
X142525000Y-59867771D02*
X142610714Y-59905866D01*
X141582142Y-60020152D02*
X141667857Y-59982057D01*
X141667857Y-59982057D02*
X141710714Y-59943961D01*
X141710714Y-59943961D02*
X141753571Y-59867771D01*
X141753571Y-59867771D02*
X141753571Y-59829676D01*
X141753571Y-59829676D02*
X141710714Y-59753485D01*
X141710714Y-59753485D02*
X141667857Y-59715390D01*
X141667857Y-59715390D02*
X141582142Y-59677295D01*
X141582142Y-59677295D02*
X141410714Y-59677295D01*
X141410714Y-59677295D02*
X141325000Y-59715390D01*
X141325000Y-59715390D02*
X141282142Y-59753485D01*
X141282142Y-59753485D02*
X141239285Y-59829676D01*
X141239285Y-59829676D02*
X141239285Y-59867771D01*
X141239285Y-59867771D02*
X141282142Y-59943961D01*
X141282142Y-59943961D02*
X141325000Y-59982057D01*
X141325000Y-59982057D02*
X141410714Y-60020152D01*
X141410714Y-60020152D02*
X141582142Y-60020152D01*
X141582142Y-60020152D02*
X141667857Y-60058247D01*
X141667857Y-60058247D02*
X141710714Y-60096342D01*
X141710714Y-60096342D02*
X141753571Y-60172533D01*
X141753571Y-60172533D02*
X141753571Y-60324914D01*
X141753571Y-60324914D02*
X141710714Y-60401104D01*
X141710714Y-60401104D02*
X141667857Y-60439200D01*
X141667857Y-60439200D02*
X141582142Y-60477295D01*
X141582142Y-60477295D02*
X141410714Y-60477295D01*
X141410714Y-60477295D02*
X141325000Y-60439200D01*
X141325000Y-60439200D02*
X141282142Y-60401104D01*
X141282142Y-60401104D02*
X141239285Y-60324914D01*
X141239285Y-60324914D02*
X141239285Y-60172533D01*
X141239285Y-60172533D02*
X141282142Y-60096342D01*
X141282142Y-60096342D02*
X141325000Y-60058247D01*
X141325000Y-60058247D02*
X141410714Y-60020152D01*
X97974999Y-83088545D02*
X98403571Y-83088545D01*
X98403571Y-83088545D02*
X98403571Y-82288545D01*
X97760714Y-82288545D02*
X97203571Y-82288545D01*
X97203571Y-82288545D02*
X97503571Y-82593307D01*
X97503571Y-82593307D02*
X97375000Y-82593307D01*
X97375000Y-82593307D02*
X97289286Y-82631402D01*
X97289286Y-82631402D02*
X97246428Y-82669497D01*
X97246428Y-82669497D02*
X97203571Y-82745688D01*
X97203571Y-82745688D02*
X97203571Y-82936164D01*
X97203571Y-82936164D02*
X97246428Y-83012354D01*
X97246428Y-83012354D02*
X97289286Y-83050450D01*
X97289286Y-83050450D02*
X97375000Y-83088545D01*
X97375000Y-83088545D02*
X97632143Y-83088545D01*
X97632143Y-83088545D02*
X97717857Y-83050450D01*
X97717857Y-83050450D02*
X97760714Y-83012354D01*
X140085714Y-82462295D02*
X140085714Y-83109914D01*
X140085714Y-83109914D02*
X140042857Y-83186104D01*
X140042857Y-83186104D02*
X140000000Y-83224200D01*
X140000000Y-83224200D02*
X139914285Y-83262295D01*
X139914285Y-83262295D02*
X139742857Y-83262295D01*
X139742857Y-83262295D02*
X139657142Y-83224200D01*
X139657142Y-83224200D02*
X139614285Y-83186104D01*
X139614285Y-83186104D02*
X139571428Y-83109914D01*
X139571428Y-83109914D02*
X139571428Y-82462295D01*
X138757143Y-82728961D02*
X138757143Y-83262295D01*
X138971428Y-82424200D02*
X139185714Y-82995628D01*
X139185714Y-82995628D02*
X138628571Y-82995628D01*
X149485714Y-68062295D02*
X149485714Y-68709914D01*
X149485714Y-68709914D02*
X149442857Y-68786104D01*
X149442857Y-68786104D02*
X149400000Y-68824200D01*
X149400000Y-68824200D02*
X149314285Y-68862295D01*
X149314285Y-68862295D02*
X149142857Y-68862295D01*
X149142857Y-68862295D02*
X149057142Y-68824200D01*
X149057142Y-68824200D02*
X149014285Y-68786104D01*
X149014285Y-68786104D02*
X148971428Y-68709914D01*
X148971428Y-68709914D02*
X148971428Y-68062295D01*
X148585714Y-68138485D02*
X148542857Y-68100390D01*
X148542857Y-68100390D02*
X148457143Y-68062295D01*
X148457143Y-68062295D02*
X148242857Y-68062295D01*
X148242857Y-68062295D02*
X148157143Y-68100390D01*
X148157143Y-68100390D02*
X148114285Y-68138485D01*
X148114285Y-68138485D02*
X148071428Y-68214676D01*
X148071428Y-68214676D02*
X148071428Y-68290866D01*
X148071428Y-68290866D02*
X148114285Y-68405152D01*
X148114285Y-68405152D02*
X148628571Y-68862295D01*
X148628571Y-68862295D02*
X148071428Y-68862295D01*
X78762295Y-54250000D02*
X78762295Y-53821428D01*
X78762295Y-53821428D02*
X77962295Y-53821428D01*
X78762295Y-55021428D02*
X78762295Y-54507142D01*
X78762295Y-54764285D02*
X77962295Y-54764285D01*
X77962295Y-54764285D02*
X78076580Y-54678571D01*
X78076580Y-54678571D02*
X78152771Y-54592856D01*
X78152771Y-54592856D02*
X78190866Y-54507142D01*
X153196104Y-55771428D02*
X153234200Y-55728571D01*
X153234200Y-55728571D02*
X153272295Y-55599999D01*
X153272295Y-55599999D02*
X153272295Y-55514285D01*
X153272295Y-55514285D02*
X153234200Y-55385714D01*
X153234200Y-55385714D02*
X153158009Y-55299999D01*
X153158009Y-55299999D02*
X153081819Y-55257142D01*
X153081819Y-55257142D02*
X152929438Y-55214285D01*
X152929438Y-55214285D02*
X152815152Y-55214285D01*
X152815152Y-55214285D02*
X152662771Y-55257142D01*
X152662771Y-55257142D02*
X152586580Y-55299999D01*
X152586580Y-55299999D02*
X152510390Y-55385714D01*
X152510390Y-55385714D02*
X152472295Y-55514285D01*
X152472295Y-55514285D02*
X152472295Y-55599999D01*
X152472295Y-55599999D02*
X152510390Y-55728571D01*
X152510390Y-55728571D02*
X152548485Y-55771428D01*
X153272295Y-56628571D02*
X153272295Y-56114285D01*
X153272295Y-56371428D02*
X152472295Y-56371428D01*
X152472295Y-56371428D02*
X152586580Y-56285714D01*
X152586580Y-56285714D02*
X152662771Y-56199999D01*
X152662771Y-56199999D02*
X152700866Y-56114285D01*
X152472295Y-56928571D02*
X152472295Y-57528571D01*
X152472295Y-57528571D02*
X153272295Y-57142857D01*
X53294819Y-75086666D02*
X54009104Y-75086666D01*
X54009104Y-75086666D02*
X54151961Y-75039047D01*
X54151961Y-75039047D02*
X54247200Y-74943809D01*
X54247200Y-74943809D02*
X54294819Y-74800952D01*
X54294819Y-74800952D02*
X54294819Y-74705714D01*
X54294819Y-76086666D02*
X54294819Y-75515238D01*
X54294819Y-75800952D02*
X53294819Y-75800952D01*
X53294819Y-75800952D02*
X53437676Y-75705714D01*
X53437676Y-75705714D02*
X53532914Y-75610476D01*
X53532914Y-75610476D02*
X53580533Y-75515238D01*
X149912295Y-53700000D02*
X149531342Y-53400000D01*
X149912295Y-53185714D02*
X149112295Y-53185714D01*
X149112295Y-53185714D02*
X149112295Y-53528571D01*
X149112295Y-53528571D02*
X149150390Y-53614286D01*
X149150390Y-53614286D02*
X149188485Y-53657143D01*
X149188485Y-53657143D02*
X149264676Y-53700000D01*
X149264676Y-53700000D02*
X149378961Y-53700000D01*
X149378961Y-53700000D02*
X149455152Y-53657143D01*
X149455152Y-53657143D02*
X149493247Y-53614286D01*
X149493247Y-53614286D02*
X149531342Y-53528571D01*
X149531342Y-53528571D02*
X149531342Y-53185714D01*
X149455152Y-54214286D02*
X149417057Y-54128571D01*
X149417057Y-54128571D02*
X149378961Y-54085714D01*
X149378961Y-54085714D02*
X149302771Y-54042857D01*
X149302771Y-54042857D02*
X149264676Y-54042857D01*
X149264676Y-54042857D02*
X149188485Y-54085714D01*
X149188485Y-54085714D02*
X149150390Y-54128571D01*
X149150390Y-54128571D02*
X149112295Y-54214286D01*
X149112295Y-54214286D02*
X149112295Y-54385714D01*
X149112295Y-54385714D02*
X149150390Y-54471429D01*
X149150390Y-54471429D02*
X149188485Y-54514286D01*
X149188485Y-54514286D02*
X149264676Y-54557143D01*
X149264676Y-54557143D02*
X149302771Y-54557143D01*
X149302771Y-54557143D02*
X149378961Y-54514286D01*
X149378961Y-54514286D02*
X149417057Y-54471429D01*
X149417057Y-54471429D02*
X149455152Y-54385714D01*
X149455152Y-54385714D02*
X149455152Y-54214286D01*
X149455152Y-54214286D02*
X149493247Y-54128571D01*
X149493247Y-54128571D02*
X149531342Y-54085714D01*
X149531342Y-54085714D02*
X149607533Y-54042857D01*
X149607533Y-54042857D02*
X149759914Y-54042857D01*
X149759914Y-54042857D02*
X149836104Y-54085714D01*
X149836104Y-54085714D02*
X149874200Y-54128571D01*
X149874200Y-54128571D02*
X149912295Y-54214286D01*
X149912295Y-54214286D02*
X149912295Y-54385714D01*
X149912295Y-54385714D02*
X149874200Y-54471429D01*
X149874200Y-54471429D02*
X149836104Y-54514286D01*
X149836104Y-54514286D02*
X149759914Y-54557143D01*
X149759914Y-54557143D02*
X149607533Y-54557143D01*
X149607533Y-54557143D02*
X149531342Y-54514286D01*
X149531342Y-54514286D02*
X149493247Y-54471429D01*
X149493247Y-54471429D02*
X149455152Y-54385714D01*
X82712500Y-77415427D02*
X82945833Y-77010665D01*
X83112500Y-77415427D02*
X83112500Y-76565427D01*
X83112500Y-76565427D02*
X82845833Y-76565427D01*
X82845833Y-76565427D02*
X82779167Y-76605903D01*
X82779167Y-76605903D02*
X82745833Y-76646379D01*
X82745833Y-76646379D02*
X82712500Y-76727331D01*
X82712500Y-76727331D02*
X82712500Y-76848760D01*
X82712500Y-76848760D02*
X82745833Y-76929712D01*
X82745833Y-76929712D02*
X82779167Y-76970189D01*
X82779167Y-76970189D02*
X82845833Y-77010665D01*
X82845833Y-77010665D02*
X83112500Y-77010665D01*
X82479167Y-76565427D02*
X82045833Y-76565427D01*
X82045833Y-76565427D02*
X82279167Y-76889236D01*
X82279167Y-76889236D02*
X82179167Y-76889236D01*
X82179167Y-76889236D02*
X82112500Y-76929712D01*
X82112500Y-76929712D02*
X82079167Y-76970189D01*
X82079167Y-76970189D02*
X82045833Y-77051141D01*
X82045833Y-77051141D02*
X82045833Y-77253522D01*
X82045833Y-77253522D02*
X82079167Y-77334474D01*
X82079167Y-77334474D02*
X82112500Y-77374951D01*
X82112500Y-77374951D02*
X82179167Y-77415427D01*
X82179167Y-77415427D02*
X82379167Y-77415427D01*
X82379167Y-77415427D02*
X82445833Y-77374951D01*
X82445833Y-77374951D02*
X82479167Y-77334474D01*
X81445833Y-76565427D02*
X81579166Y-76565427D01*
X81579166Y-76565427D02*
X81645833Y-76605903D01*
X81645833Y-76605903D02*
X81679166Y-76646379D01*
X81679166Y-76646379D02*
X81745833Y-76767808D01*
X81745833Y-76767808D02*
X81779166Y-76929712D01*
X81779166Y-76929712D02*
X81779166Y-77253522D01*
X81779166Y-77253522D02*
X81745833Y-77334474D01*
X81745833Y-77334474D02*
X81712500Y-77374951D01*
X81712500Y-77374951D02*
X81645833Y-77415427D01*
X81645833Y-77415427D02*
X81512500Y-77415427D01*
X81512500Y-77415427D02*
X81445833Y-77374951D01*
X81445833Y-77374951D02*
X81412500Y-77334474D01*
X81412500Y-77334474D02*
X81379166Y-77253522D01*
X81379166Y-77253522D02*
X81379166Y-77051141D01*
X81379166Y-77051141D02*
X81412500Y-76970189D01*
X81412500Y-76970189D02*
X81445833Y-76929712D01*
X81445833Y-76929712D02*
X81512500Y-76889236D01*
X81512500Y-76889236D02*
X81645833Y-76889236D01*
X81645833Y-76889236D02*
X81712500Y-76929712D01*
X81712500Y-76929712D02*
X81745833Y-76970189D01*
X81745833Y-76970189D02*
X81779166Y-77051141D01*
X66962295Y-70135714D02*
X66162295Y-70135714D01*
X66162295Y-70135714D02*
X66162295Y-70350000D01*
X66162295Y-70350000D02*
X66200390Y-70478571D01*
X66200390Y-70478571D02*
X66276580Y-70564286D01*
X66276580Y-70564286D02*
X66352771Y-70607143D01*
X66352771Y-70607143D02*
X66505152Y-70650000D01*
X66505152Y-70650000D02*
X66619438Y-70650000D01*
X66619438Y-70650000D02*
X66771819Y-70607143D01*
X66771819Y-70607143D02*
X66848009Y-70564286D01*
X66848009Y-70564286D02*
X66924200Y-70478571D01*
X66924200Y-70478571D02*
X66962295Y-70350000D01*
X66962295Y-70350000D02*
X66962295Y-70135714D01*
X66428961Y-71421429D02*
X66962295Y-71421429D01*
X66124200Y-71207143D02*
X66695628Y-70992857D01*
X66695628Y-70992857D02*
X66695628Y-71550000D01*
X71128571Y-52786104D02*
X71171428Y-52824200D01*
X71171428Y-52824200D02*
X71300000Y-52862295D01*
X71300000Y-52862295D02*
X71385714Y-52862295D01*
X71385714Y-52862295D02*
X71514285Y-52824200D01*
X71514285Y-52824200D02*
X71600000Y-52748009D01*
X71600000Y-52748009D02*
X71642857Y-52671819D01*
X71642857Y-52671819D02*
X71685714Y-52519438D01*
X71685714Y-52519438D02*
X71685714Y-52405152D01*
X71685714Y-52405152D02*
X71642857Y-52252771D01*
X71642857Y-52252771D02*
X71600000Y-52176580D01*
X71600000Y-52176580D02*
X71514285Y-52100390D01*
X71514285Y-52100390D02*
X71385714Y-52062295D01*
X71385714Y-52062295D02*
X71300000Y-52062295D01*
X71300000Y-52062295D02*
X71171428Y-52100390D01*
X71171428Y-52100390D02*
X71128571Y-52138485D01*
X70828571Y-52062295D02*
X70271428Y-52062295D01*
X70271428Y-52062295D02*
X70571428Y-52367057D01*
X70571428Y-52367057D02*
X70442857Y-52367057D01*
X70442857Y-52367057D02*
X70357143Y-52405152D01*
X70357143Y-52405152D02*
X70314285Y-52443247D01*
X70314285Y-52443247D02*
X70271428Y-52519438D01*
X70271428Y-52519438D02*
X70271428Y-52709914D01*
X70271428Y-52709914D02*
X70314285Y-52786104D01*
X70314285Y-52786104D02*
X70357143Y-52824200D01*
X70357143Y-52824200D02*
X70442857Y-52862295D01*
X70442857Y-52862295D02*
X70700000Y-52862295D01*
X70700000Y-52862295D02*
X70785714Y-52824200D01*
X70785714Y-52824200D02*
X70828571Y-52786104D01*
X69971428Y-52062295D02*
X69414285Y-52062295D01*
X69414285Y-52062295D02*
X69714285Y-52367057D01*
X69714285Y-52367057D02*
X69585714Y-52367057D01*
X69585714Y-52367057D02*
X69500000Y-52405152D01*
X69500000Y-52405152D02*
X69457142Y-52443247D01*
X69457142Y-52443247D02*
X69414285Y-52519438D01*
X69414285Y-52519438D02*
X69414285Y-52709914D01*
X69414285Y-52709914D02*
X69457142Y-52786104D01*
X69457142Y-52786104D02*
X69500000Y-52824200D01*
X69500000Y-52824200D02*
X69585714Y-52862295D01*
X69585714Y-52862295D02*
X69842857Y-52862295D01*
X69842857Y-52862295D02*
X69928571Y-52824200D01*
X69928571Y-52824200D02*
X69971428Y-52786104D01*
X80447927Y-79749999D02*
X80043165Y-79516666D01*
X80447927Y-79349999D02*
X79597927Y-79349999D01*
X79597927Y-79349999D02*
X79597927Y-79616666D01*
X79597927Y-79616666D02*
X79638403Y-79683333D01*
X79638403Y-79683333D02*
X79678879Y-79716666D01*
X79678879Y-79716666D02*
X79759831Y-79749999D01*
X79759831Y-79749999D02*
X79881260Y-79749999D01*
X79881260Y-79749999D02*
X79962212Y-79716666D01*
X79962212Y-79716666D02*
X80002689Y-79683333D01*
X80002689Y-79683333D02*
X80043165Y-79616666D01*
X80043165Y-79616666D02*
X80043165Y-79349999D01*
X79597927Y-79983333D02*
X79597927Y-80416666D01*
X79597927Y-80416666D02*
X79921736Y-80183333D01*
X79921736Y-80183333D02*
X79921736Y-80283333D01*
X79921736Y-80283333D02*
X79962212Y-80349999D01*
X79962212Y-80349999D02*
X80002689Y-80383333D01*
X80002689Y-80383333D02*
X80083641Y-80416666D01*
X80083641Y-80416666D02*
X80286022Y-80416666D01*
X80286022Y-80416666D02*
X80366974Y-80383333D01*
X80366974Y-80383333D02*
X80407451Y-80349999D01*
X80407451Y-80349999D02*
X80447927Y-80283333D01*
X80447927Y-80283333D02*
X80447927Y-80083333D01*
X80447927Y-80083333D02*
X80407451Y-80016666D01*
X80407451Y-80016666D02*
X80366974Y-79983333D01*
X79597927Y-80650000D02*
X79597927Y-81116666D01*
X79597927Y-81116666D02*
X80447927Y-80816666D01*
X69828571Y-60936104D02*
X69871428Y-60974200D01*
X69871428Y-60974200D02*
X70000000Y-61012295D01*
X70000000Y-61012295D02*
X70085714Y-61012295D01*
X70085714Y-61012295D02*
X70214285Y-60974200D01*
X70214285Y-60974200D02*
X70300000Y-60898009D01*
X70300000Y-60898009D02*
X70342857Y-60821819D01*
X70342857Y-60821819D02*
X70385714Y-60669438D01*
X70385714Y-60669438D02*
X70385714Y-60555152D01*
X70385714Y-60555152D02*
X70342857Y-60402771D01*
X70342857Y-60402771D02*
X70300000Y-60326580D01*
X70300000Y-60326580D02*
X70214285Y-60250390D01*
X70214285Y-60250390D02*
X70085714Y-60212295D01*
X70085714Y-60212295D02*
X70000000Y-60212295D01*
X70000000Y-60212295D02*
X69871428Y-60250390D01*
X69871428Y-60250390D02*
X69828571Y-60288485D01*
X69485714Y-60288485D02*
X69442857Y-60250390D01*
X69442857Y-60250390D02*
X69357143Y-60212295D01*
X69357143Y-60212295D02*
X69142857Y-60212295D01*
X69142857Y-60212295D02*
X69057143Y-60250390D01*
X69057143Y-60250390D02*
X69014285Y-60288485D01*
X69014285Y-60288485D02*
X68971428Y-60364676D01*
X68971428Y-60364676D02*
X68971428Y-60440866D01*
X68971428Y-60440866D02*
X69014285Y-60555152D01*
X69014285Y-60555152D02*
X69528571Y-61012295D01*
X69528571Y-61012295D02*
X68971428Y-61012295D01*
X68157142Y-60212295D02*
X68585714Y-60212295D01*
X68585714Y-60212295D02*
X68628571Y-60593247D01*
X68628571Y-60593247D02*
X68585714Y-60555152D01*
X68585714Y-60555152D02*
X68500000Y-60517057D01*
X68500000Y-60517057D02*
X68285714Y-60517057D01*
X68285714Y-60517057D02*
X68200000Y-60555152D01*
X68200000Y-60555152D02*
X68157142Y-60593247D01*
X68157142Y-60593247D02*
X68114285Y-60669438D01*
X68114285Y-60669438D02*
X68114285Y-60859914D01*
X68114285Y-60859914D02*
X68157142Y-60936104D01*
X68157142Y-60936104D02*
X68200000Y-60974200D01*
X68200000Y-60974200D02*
X68285714Y-61012295D01*
X68285714Y-61012295D02*
X68500000Y-61012295D01*
X68500000Y-61012295D02*
X68585714Y-60974200D01*
X68585714Y-60974200D02*
X68628571Y-60936104D01*
X84992857Y-60074819D02*
X85326190Y-59598628D01*
X85564285Y-60074819D02*
X85564285Y-59074819D01*
X85564285Y-59074819D02*
X85183333Y-59074819D01*
X85183333Y-59074819D02*
X85088095Y-59122438D01*
X85088095Y-59122438D02*
X85040476Y-59170057D01*
X85040476Y-59170057D02*
X84992857Y-59265295D01*
X84992857Y-59265295D02*
X84992857Y-59408152D01*
X84992857Y-59408152D02*
X85040476Y-59503390D01*
X85040476Y-59503390D02*
X85088095Y-59551009D01*
X85088095Y-59551009D02*
X85183333Y-59598628D01*
X85183333Y-59598628D02*
X85564285Y-59598628D01*
X84659523Y-59074819D02*
X84040476Y-59074819D01*
X84040476Y-59074819D02*
X84373809Y-59455771D01*
X84373809Y-59455771D02*
X84230952Y-59455771D01*
X84230952Y-59455771D02*
X84135714Y-59503390D01*
X84135714Y-59503390D02*
X84088095Y-59551009D01*
X84088095Y-59551009D02*
X84040476Y-59646247D01*
X84040476Y-59646247D02*
X84040476Y-59884342D01*
X84040476Y-59884342D02*
X84088095Y-59979580D01*
X84088095Y-59979580D02*
X84135714Y-60027200D01*
X84135714Y-60027200D02*
X84230952Y-60074819D01*
X84230952Y-60074819D02*
X84516666Y-60074819D01*
X84516666Y-60074819D02*
X84611904Y-60027200D01*
X84611904Y-60027200D02*
X84659523Y-59979580D01*
X83088095Y-60074819D02*
X83659523Y-60074819D01*
X83373809Y-60074819D02*
X83373809Y-59074819D01*
X83373809Y-59074819D02*
X83469047Y-59217676D01*
X83469047Y-59217676D02*
X83564285Y-59312914D01*
X83564285Y-59312914D02*
X83659523Y-59360533D01*
X69712295Y-54164285D02*
X70359914Y-54164285D01*
X70359914Y-54164285D02*
X70436104Y-54207142D01*
X70436104Y-54207142D02*
X70474200Y-54250000D01*
X70474200Y-54250000D02*
X70512295Y-54335714D01*
X70512295Y-54335714D02*
X70512295Y-54507142D01*
X70512295Y-54507142D02*
X70474200Y-54592857D01*
X70474200Y-54592857D02*
X70436104Y-54635714D01*
X70436104Y-54635714D02*
X70359914Y-54678571D01*
X70359914Y-54678571D02*
X69712295Y-54678571D01*
X69712295Y-55021428D02*
X69712295Y-55578571D01*
X69712295Y-55578571D02*
X70017057Y-55278571D01*
X70017057Y-55278571D02*
X70017057Y-55407142D01*
X70017057Y-55407142D02*
X70055152Y-55492857D01*
X70055152Y-55492857D02*
X70093247Y-55535714D01*
X70093247Y-55535714D02*
X70169438Y-55578571D01*
X70169438Y-55578571D02*
X70359914Y-55578571D01*
X70359914Y-55578571D02*
X70436104Y-55535714D01*
X70436104Y-55535714D02*
X70474200Y-55492857D01*
X70474200Y-55492857D02*
X70512295Y-55407142D01*
X70512295Y-55407142D02*
X70512295Y-55149999D01*
X70512295Y-55149999D02*
X70474200Y-55064285D01*
X70474200Y-55064285D02*
X70436104Y-55021428D01*
X137786104Y-81121428D02*
X137824200Y-81078571D01*
X137824200Y-81078571D02*
X137862295Y-80949999D01*
X137862295Y-80949999D02*
X137862295Y-80864285D01*
X137862295Y-80864285D02*
X137824200Y-80735714D01*
X137824200Y-80735714D02*
X137748009Y-80649999D01*
X137748009Y-80649999D02*
X137671819Y-80607142D01*
X137671819Y-80607142D02*
X137519438Y-80564285D01*
X137519438Y-80564285D02*
X137405152Y-80564285D01*
X137405152Y-80564285D02*
X137252771Y-80607142D01*
X137252771Y-80607142D02*
X137176580Y-80649999D01*
X137176580Y-80649999D02*
X137100390Y-80735714D01*
X137100390Y-80735714D02*
X137062295Y-80864285D01*
X137062295Y-80864285D02*
X137062295Y-80949999D01*
X137062295Y-80949999D02*
X137100390Y-81078571D01*
X137100390Y-81078571D02*
X137138485Y-81121428D01*
X137138485Y-81464285D02*
X137100390Y-81507142D01*
X137100390Y-81507142D02*
X137062295Y-81592857D01*
X137062295Y-81592857D02*
X137062295Y-81807142D01*
X137062295Y-81807142D02*
X137100390Y-81892857D01*
X137100390Y-81892857D02*
X137138485Y-81935714D01*
X137138485Y-81935714D02*
X137214676Y-81978571D01*
X137214676Y-81978571D02*
X137290866Y-81978571D01*
X137290866Y-81978571D02*
X137405152Y-81935714D01*
X137405152Y-81935714D02*
X137862295Y-81421428D01*
X137862295Y-81421428D02*
X137862295Y-81978571D01*
X137328961Y-82750000D02*
X137862295Y-82750000D01*
X137024200Y-82535714D02*
X137595628Y-82321428D01*
X137595628Y-82321428D02*
X137595628Y-82878571D01*
X64828571Y-54762295D02*
X65128571Y-54381342D01*
X65342857Y-54762295D02*
X65342857Y-53962295D01*
X65342857Y-53962295D02*
X65000000Y-53962295D01*
X65000000Y-53962295D02*
X64914285Y-54000390D01*
X64914285Y-54000390D02*
X64871428Y-54038485D01*
X64871428Y-54038485D02*
X64828571Y-54114676D01*
X64828571Y-54114676D02*
X64828571Y-54228961D01*
X64828571Y-54228961D02*
X64871428Y-54305152D01*
X64871428Y-54305152D02*
X64914285Y-54343247D01*
X64914285Y-54343247D02*
X65000000Y-54381342D01*
X65000000Y-54381342D02*
X65342857Y-54381342D01*
X63971428Y-54762295D02*
X64485714Y-54762295D01*
X64228571Y-54762295D02*
X64228571Y-53962295D01*
X64228571Y-53962295D02*
X64314285Y-54076580D01*
X64314285Y-54076580D02*
X64400000Y-54152771D01*
X64400000Y-54152771D02*
X64485714Y-54190866D01*
X63671428Y-53962295D02*
X63114285Y-53962295D01*
X63114285Y-53962295D02*
X63414285Y-54267057D01*
X63414285Y-54267057D02*
X63285714Y-54267057D01*
X63285714Y-54267057D02*
X63200000Y-54305152D01*
X63200000Y-54305152D02*
X63157142Y-54343247D01*
X63157142Y-54343247D02*
X63114285Y-54419438D01*
X63114285Y-54419438D02*
X63114285Y-54609914D01*
X63114285Y-54609914D02*
X63157142Y-54686104D01*
X63157142Y-54686104D02*
X63200000Y-54724200D01*
X63200000Y-54724200D02*
X63285714Y-54762295D01*
X63285714Y-54762295D02*
X63542857Y-54762295D01*
X63542857Y-54762295D02*
X63628571Y-54724200D01*
X63628571Y-54724200D02*
X63671428Y-54686104D01*
X148812295Y-72350000D02*
X148431342Y-72050000D01*
X148812295Y-71835714D02*
X148012295Y-71835714D01*
X148012295Y-71835714D02*
X148012295Y-72178571D01*
X148012295Y-72178571D02*
X148050390Y-72264286D01*
X148050390Y-72264286D02*
X148088485Y-72307143D01*
X148088485Y-72307143D02*
X148164676Y-72350000D01*
X148164676Y-72350000D02*
X148278961Y-72350000D01*
X148278961Y-72350000D02*
X148355152Y-72307143D01*
X148355152Y-72307143D02*
X148393247Y-72264286D01*
X148393247Y-72264286D02*
X148431342Y-72178571D01*
X148431342Y-72178571D02*
X148431342Y-71835714D01*
X148012295Y-73121429D02*
X148012295Y-72950000D01*
X148012295Y-72950000D02*
X148050390Y-72864286D01*
X148050390Y-72864286D02*
X148088485Y-72821429D01*
X148088485Y-72821429D02*
X148202771Y-72735714D01*
X148202771Y-72735714D02*
X148355152Y-72692857D01*
X148355152Y-72692857D02*
X148659914Y-72692857D01*
X148659914Y-72692857D02*
X148736104Y-72735714D01*
X148736104Y-72735714D02*
X148774200Y-72778571D01*
X148774200Y-72778571D02*
X148812295Y-72864286D01*
X148812295Y-72864286D02*
X148812295Y-73035714D01*
X148812295Y-73035714D02*
X148774200Y-73121429D01*
X148774200Y-73121429D02*
X148736104Y-73164286D01*
X148736104Y-73164286D02*
X148659914Y-73207143D01*
X148659914Y-73207143D02*
X148469438Y-73207143D01*
X148469438Y-73207143D02*
X148393247Y-73164286D01*
X148393247Y-73164286D02*
X148355152Y-73121429D01*
X148355152Y-73121429D02*
X148317057Y-73035714D01*
X148317057Y-73035714D02*
X148317057Y-72864286D01*
X148317057Y-72864286D02*
X148355152Y-72778571D01*
X148355152Y-72778571D02*
X148393247Y-72735714D01*
X148393247Y-72735714D02*
X148469438Y-72692857D01*
X76558571Y-57526104D02*
X76601428Y-57564200D01*
X76601428Y-57564200D02*
X76730000Y-57602295D01*
X76730000Y-57602295D02*
X76815714Y-57602295D01*
X76815714Y-57602295D02*
X76944285Y-57564200D01*
X76944285Y-57564200D02*
X77030000Y-57488009D01*
X77030000Y-57488009D02*
X77072857Y-57411819D01*
X77072857Y-57411819D02*
X77115714Y-57259438D01*
X77115714Y-57259438D02*
X77115714Y-57145152D01*
X77115714Y-57145152D02*
X77072857Y-56992771D01*
X77072857Y-56992771D02*
X77030000Y-56916580D01*
X77030000Y-56916580D02*
X76944285Y-56840390D01*
X76944285Y-56840390D02*
X76815714Y-56802295D01*
X76815714Y-56802295D02*
X76730000Y-56802295D01*
X76730000Y-56802295D02*
X76601428Y-56840390D01*
X76601428Y-56840390D02*
X76558571Y-56878485D01*
X76215714Y-56878485D02*
X76172857Y-56840390D01*
X76172857Y-56840390D02*
X76087143Y-56802295D01*
X76087143Y-56802295D02*
X75872857Y-56802295D01*
X75872857Y-56802295D02*
X75787143Y-56840390D01*
X75787143Y-56840390D02*
X75744285Y-56878485D01*
X75744285Y-56878485D02*
X75701428Y-56954676D01*
X75701428Y-56954676D02*
X75701428Y-57030866D01*
X75701428Y-57030866D02*
X75744285Y-57145152D01*
X75744285Y-57145152D02*
X76258571Y-57602295D01*
X76258571Y-57602295D02*
X75701428Y-57602295D01*
X75358571Y-56878485D02*
X75315714Y-56840390D01*
X75315714Y-56840390D02*
X75230000Y-56802295D01*
X75230000Y-56802295D02*
X75015714Y-56802295D01*
X75015714Y-56802295D02*
X74930000Y-56840390D01*
X74930000Y-56840390D02*
X74887142Y-56878485D01*
X74887142Y-56878485D02*
X74844285Y-56954676D01*
X74844285Y-56954676D02*
X74844285Y-57030866D01*
X74844285Y-57030866D02*
X74887142Y-57145152D01*
X74887142Y-57145152D02*
X75401428Y-57602295D01*
X75401428Y-57602295D02*
X74844285Y-57602295D01*
X68836104Y-67821428D02*
X68874200Y-67778571D01*
X68874200Y-67778571D02*
X68912295Y-67649999D01*
X68912295Y-67649999D02*
X68912295Y-67564285D01*
X68912295Y-67564285D02*
X68874200Y-67435714D01*
X68874200Y-67435714D02*
X68798009Y-67349999D01*
X68798009Y-67349999D02*
X68721819Y-67307142D01*
X68721819Y-67307142D02*
X68569438Y-67264285D01*
X68569438Y-67264285D02*
X68455152Y-67264285D01*
X68455152Y-67264285D02*
X68302771Y-67307142D01*
X68302771Y-67307142D02*
X68226580Y-67349999D01*
X68226580Y-67349999D02*
X68150390Y-67435714D01*
X68150390Y-67435714D02*
X68112295Y-67564285D01*
X68112295Y-67564285D02*
X68112295Y-67649999D01*
X68112295Y-67649999D02*
X68150390Y-67778571D01*
X68150390Y-67778571D02*
X68188485Y-67821428D01*
X68112295Y-68121428D02*
X68112295Y-68678571D01*
X68112295Y-68678571D02*
X68417057Y-68378571D01*
X68417057Y-68378571D02*
X68417057Y-68507142D01*
X68417057Y-68507142D02*
X68455152Y-68592857D01*
X68455152Y-68592857D02*
X68493247Y-68635714D01*
X68493247Y-68635714D02*
X68569438Y-68678571D01*
X68569438Y-68678571D02*
X68759914Y-68678571D01*
X68759914Y-68678571D02*
X68836104Y-68635714D01*
X68836104Y-68635714D02*
X68874200Y-68592857D01*
X68874200Y-68592857D02*
X68912295Y-68507142D01*
X68912295Y-68507142D02*
X68912295Y-68249999D01*
X68912295Y-68249999D02*
X68874200Y-68164285D01*
X68874200Y-68164285D02*
X68836104Y-68121428D01*
X68112295Y-69492857D02*
X68112295Y-69064285D01*
X68112295Y-69064285D02*
X68493247Y-69021428D01*
X68493247Y-69021428D02*
X68455152Y-69064285D01*
X68455152Y-69064285D02*
X68417057Y-69150000D01*
X68417057Y-69150000D02*
X68417057Y-69364285D01*
X68417057Y-69364285D02*
X68455152Y-69450000D01*
X68455152Y-69450000D02*
X68493247Y-69492857D01*
X68493247Y-69492857D02*
X68569438Y-69535714D01*
X68569438Y-69535714D02*
X68759914Y-69535714D01*
X68759914Y-69535714D02*
X68836104Y-69492857D01*
X68836104Y-69492857D02*
X68874200Y-69450000D01*
X68874200Y-69450000D02*
X68912295Y-69364285D01*
X68912295Y-69364285D02*
X68912295Y-69150000D01*
X68912295Y-69150000D02*
X68874200Y-69064285D01*
X68874200Y-69064285D02*
X68836104Y-69021428D01*
X61348214Y-64088485D02*
X61433928Y-64050390D01*
X61433928Y-64050390D02*
X61519642Y-63974200D01*
X61519642Y-63974200D02*
X61648214Y-63859914D01*
X61648214Y-63859914D02*
X61733928Y-63821819D01*
X61733928Y-63821819D02*
X61819642Y-63821819D01*
X61776785Y-64012295D02*
X61862500Y-63974200D01*
X61862500Y-63974200D02*
X61948214Y-63898009D01*
X61948214Y-63898009D02*
X61991071Y-63745628D01*
X61991071Y-63745628D02*
X61991071Y-63478961D01*
X61991071Y-63478961D02*
X61948214Y-63326580D01*
X61948214Y-63326580D02*
X61862500Y-63250390D01*
X61862500Y-63250390D02*
X61776785Y-63212295D01*
X61776785Y-63212295D02*
X61605357Y-63212295D01*
X61605357Y-63212295D02*
X61519642Y-63250390D01*
X61519642Y-63250390D02*
X61433928Y-63326580D01*
X61433928Y-63326580D02*
X61391071Y-63478961D01*
X61391071Y-63478961D02*
X61391071Y-63745628D01*
X61391071Y-63745628D02*
X61433928Y-63898009D01*
X61433928Y-63898009D02*
X61519642Y-63974200D01*
X61519642Y-63974200D02*
X61605357Y-64012295D01*
X61605357Y-64012295D02*
X61776785Y-64012295D01*
X61048214Y-63288485D02*
X61005357Y-63250390D01*
X61005357Y-63250390D02*
X60919643Y-63212295D01*
X60919643Y-63212295D02*
X60705357Y-63212295D01*
X60705357Y-63212295D02*
X60619643Y-63250390D01*
X60619643Y-63250390D02*
X60576785Y-63288485D01*
X60576785Y-63288485D02*
X60533928Y-63364676D01*
X60533928Y-63364676D02*
X60533928Y-63440866D01*
X60533928Y-63440866D02*
X60576785Y-63555152D01*
X60576785Y-63555152D02*
X61091071Y-64012295D01*
X61091071Y-64012295D02*
X60533928Y-64012295D01*
X64849999Y-53162295D02*
X65149999Y-52781342D01*
X65364285Y-53162295D02*
X65364285Y-52362295D01*
X65364285Y-52362295D02*
X65021428Y-52362295D01*
X65021428Y-52362295D02*
X64935713Y-52400390D01*
X64935713Y-52400390D02*
X64892856Y-52438485D01*
X64892856Y-52438485D02*
X64849999Y-52514676D01*
X64849999Y-52514676D02*
X64849999Y-52628961D01*
X64849999Y-52628961D02*
X64892856Y-52705152D01*
X64892856Y-52705152D02*
X64935713Y-52743247D01*
X64935713Y-52743247D02*
X65021428Y-52781342D01*
X65021428Y-52781342D02*
X65364285Y-52781342D01*
X64078571Y-52628961D02*
X64078571Y-53162295D01*
X64292856Y-52324200D02*
X64507142Y-52895628D01*
X64507142Y-52895628D02*
X63949999Y-52895628D01*
X69828571Y-57736104D02*
X69871428Y-57774200D01*
X69871428Y-57774200D02*
X70000000Y-57812295D01*
X70000000Y-57812295D02*
X70085714Y-57812295D01*
X70085714Y-57812295D02*
X70214285Y-57774200D01*
X70214285Y-57774200D02*
X70300000Y-57698009D01*
X70300000Y-57698009D02*
X70342857Y-57621819D01*
X70342857Y-57621819D02*
X70385714Y-57469438D01*
X70385714Y-57469438D02*
X70385714Y-57355152D01*
X70385714Y-57355152D02*
X70342857Y-57202771D01*
X70342857Y-57202771D02*
X70300000Y-57126580D01*
X70300000Y-57126580D02*
X70214285Y-57050390D01*
X70214285Y-57050390D02*
X70085714Y-57012295D01*
X70085714Y-57012295D02*
X70000000Y-57012295D01*
X70000000Y-57012295D02*
X69871428Y-57050390D01*
X69871428Y-57050390D02*
X69828571Y-57088485D01*
X68971428Y-57812295D02*
X69485714Y-57812295D01*
X69228571Y-57812295D02*
X69228571Y-57012295D01*
X69228571Y-57012295D02*
X69314285Y-57126580D01*
X69314285Y-57126580D02*
X69400000Y-57202771D01*
X69400000Y-57202771D02*
X69485714Y-57240866D01*
X68414285Y-57012295D02*
X68328571Y-57012295D01*
X68328571Y-57012295D02*
X68242857Y-57050390D01*
X68242857Y-57050390D02*
X68200000Y-57088485D01*
X68200000Y-57088485D02*
X68157142Y-57164676D01*
X68157142Y-57164676D02*
X68114285Y-57317057D01*
X68114285Y-57317057D02*
X68114285Y-57507533D01*
X68114285Y-57507533D02*
X68157142Y-57659914D01*
X68157142Y-57659914D02*
X68200000Y-57736104D01*
X68200000Y-57736104D02*
X68242857Y-57774200D01*
X68242857Y-57774200D02*
X68328571Y-57812295D01*
X68328571Y-57812295D02*
X68414285Y-57812295D01*
X68414285Y-57812295D02*
X68500000Y-57774200D01*
X68500000Y-57774200D02*
X68542857Y-57736104D01*
X68542857Y-57736104D02*
X68585714Y-57659914D01*
X68585714Y-57659914D02*
X68628571Y-57507533D01*
X68628571Y-57507533D02*
X68628571Y-57317057D01*
X68628571Y-57317057D02*
X68585714Y-57164676D01*
X68585714Y-57164676D02*
X68542857Y-57088485D01*
X68542857Y-57088485D02*
X68500000Y-57050390D01*
X68500000Y-57050390D02*
X68414285Y-57012295D01*
X137762295Y-78521428D02*
X137381342Y-78221428D01*
X137762295Y-78007142D02*
X136962295Y-78007142D01*
X136962295Y-78007142D02*
X136962295Y-78349999D01*
X136962295Y-78349999D02*
X137000390Y-78435714D01*
X137000390Y-78435714D02*
X137038485Y-78478571D01*
X137038485Y-78478571D02*
X137114676Y-78521428D01*
X137114676Y-78521428D02*
X137228961Y-78521428D01*
X137228961Y-78521428D02*
X137305152Y-78478571D01*
X137305152Y-78478571D02*
X137343247Y-78435714D01*
X137343247Y-78435714D02*
X137381342Y-78349999D01*
X137381342Y-78349999D02*
X137381342Y-78007142D01*
X137762295Y-79378571D02*
X137762295Y-78864285D01*
X137762295Y-79121428D02*
X136962295Y-79121428D01*
X136962295Y-79121428D02*
X137076580Y-79035714D01*
X137076580Y-79035714D02*
X137152771Y-78949999D01*
X137152771Y-78949999D02*
X137190866Y-78864285D01*
X137762295Y-80235714D02*
X137762295Y-79721428D01*
X137762295Y-79978571D02*
X136962295Y-79978571D01*
X136962295Y-79978571D02*
X137076580Y-79892857D01*
X137076580Y-79892857D02*
X137152771Y-79807142D01*
X137152771Y-79807142D02*
X137190866Y-79721428D01*
X155642295Y-70137500D02*
X155642295Y-69708928D01*
X155642295Y-69708928D02*
X154842295Y-69708928D01*
X154918485Y-70394642D02*
X154880390Y-70437499D01*
X154880390Y-70437499D02*
X154842295Y-70523214D01*
X154842295Y-70523214D02*
X154842295Y-70737499D01*
X154842295Y-70737499D02*
X154880390Y-70823214D01*
X154880390Y-70823214D02*
X154918485Y-70866071D01*
X154918485Y-70866071D02*
X154994676Y-70908928D01*
X154994676Y-70908928D02*
X155070866Y-70908928D01*
X155070866Y-70908928D02*
X155185152Y-70866071D01*
X155185152Y-70866071D02*
X155642295Y-70351785D01*
X155642295Y-70351785D02*
X155642295Y-70908928D01*
X64878571Y-56362295D02*
X65178571Y-55981342D01*
X65392857Y-56362295D02*
X65392857Y-55562295D01*
X65392857Y-55562295D02*
X65050000Y-55562295D01*
X65050000Y-55562295D02*
X64964285Y-55600390D01*
X64964285Y-55600390D02*
X64921428Y-55638485D01*
X64921428Y-55638485D02*
X64878571Y-55714676D01*
X64878571Y-55714676D02*
X64878571Y-55828961D01*
X64878571Y-55828961D02*
X64921428Y-55905152D01*
X64921428Y-55905152D02*
X64964285Y-55943247D01*
X64964285Y-55943247D02*
X65050000Y-55981342D01*
X65050000Y-55981342D02*
X65392857Y-55981342D01*
X64021428Y-56362295D02*
X64535714Y-56362295D01*
X64278571Y-56362295D02*
X64278571Y-55562295D01*
X64278571Y-55562295D02*
X64364285Y-55676580D01*
X64364285Y-55676580D02*
X64450000Y-55752771D01*
X64450000Y-55752771D02*
X64535714Y-55790866D01*
X63250000Y-55828961D02*
X63250000Y-56362295D01*
X63464285Y-55524200D02*
X63678571Y-56095628D01*
X63678571Y-56095628D02*
X63121428Y-56095628D01*
X99749999Y-87686104D02*
X99792856Y-87724200D01*
X99792856Y-87724200D02*
X99921428Y-87762295D01*
X99921428Y-87762295D02*
X100007142Y-87762295D01*
X100007142Y-87762295D02*
X100135713Y-87724200D01*
X100135713Y-87724200D02*
X100221428Y-87648009D01*
X100221428Y-87648009D02*
X100264285Y-87571819D01*
X100264285Y-87571819D02*
X100307142Y-87419438D01*
X100307142Y-87419438D02*
X100307142Y-87305152D01*
X100307142Y-87305152D02*
X100264285Y-87152771D01*
X100264285Y-87152771D02*
X100221428Y-87076580D01*
X100221428Y-87076580D02*
X100135713Y-87000390D01*
X100135713Y-87000390D02*
X100007142Y-86962295D01*
X100007142Y-86962295D02*
X99921428Y-86962295D01*
X99921428Y-86962295D02*
X99792856Y-87000390D01*
X99792856Y-87000390D02*
X99749999Y-87038485D01*
X98978571Y-87228961D02*
X98978571Y-87762295D01*
X99192856Y-86924200D02*
X99407142Y-87495628D01*
X99407142Y-87495628D02*
X98849999Y-87495628D01*
X65398214Y-64138485D02*
X65483928Y-64100390D01*
X65483928Y-64100390D02*
X65569642Y-64024200D01*
X65569642Y-64024200D02*
X65698214Y-63909914D01*
X65698214Y-63909914D02*
X65783928Y-63871819D01*
X65783928Y-63871819D02*
X65869642Y-63871819D01*
X65826785Y-64062295D02*
X65912500Y-64024200D01*
X65912500Y-64024200D02*
X65998214Y-63948009D01*
X65998214Y-63948009D02*
X66041071Y-63795628D01*
X66041071Y-63795628D02*
X66041071Y-63528961D01*
X66041071Y-63528961D02*
X65998214Y-63376580D01*
X65998214Y-63376580D02*
X65912500Y-63300390D01*
X65912500Y-63300390D02*
X65826785Y-63262295D01*
X65826785Y-63262295D02*
X65655357Y-63262295D01*
X65655357Y-63262295D02*
X65569642Y-63300390D01*
X65569642Y-63300390D02*
X65483928Y-63376580D01*
X65483928Y-63376580D02*
X65441071Y-63528961D01*
X65441071Y-63528961D02*
X65441071Y-63795628D01*
X65441071Y-63795628D02*
X65483928Y-63948009D01*
X65483928Y-63948009D02*
X65569642Y-64024200D01*
X65569642Y-64024200D02*
X65655357Y-64062295D01*
X65655357Y-64062295D02*
X65826785Y-64062295D01*
X65141071Y-63262295D02*
X64541071Y-63262295D01*
X64541071Y-63262295D02*
X64926785Y-64062295D01*
X85512500Y-77585427D02*
X85745833Y-77180665D01*
X85912500Y-77585427D02*
X85912500Y-76735427D01*
X85912500Y-76735427D02*
X85645833Y-76735427D01*
X85645833Y-76735427D02*
X85579167Y-76775903D01*
X85579167Y-76775903D02*
X85545833Y-76816379D01*
X85545833Y-76816379D02*
X85512500Y-76897331D01*
X85512500Y-76897331D02*
X85512500Y-77018760D01*
X85512500Y-77018760D02*
X85545833Y-77099712D01*
X85545833Y-77099712D02*
X85579167Y-77140189D01*
X85579167Y-77140189D02*
X85645833Y-77180665D01*
X85645833Y-77180665D02*
X85912500Y-77180665D01*
X85279167Y-76735427D02*
X84845833Y-76735427D01*
X84845833Y-76735427D02*
X85079167Y-77059236D01*
X85079167Y-77059236D02*
X84979167Y-77059236D01*
X84979167Y-77059236D02*
X84912500Y-77099712D01*
X84912500Y-77099712D02*
X84879167Y-77140189D01*
X84879167Y-77140189D02*
X84845833Y-77221141D01*
X84845833Y-77221141D02*
X84845833Y-77423522D01*
X84845833Y-77423522D02*
X84879167Y-77504474D01*
X84879167Y-77504474D02*
X84912500Y-77544951D01*
X84912500Y-77544951D02*
X84979167Y-77585427D01*
X84979167Y-77585427D02*
X85179167Y-77585427D01*
X85179167Y-77585427D02*
X85245833Y-77544951D01*
X85245833Y-77544951D02*
X85279167Y-77504474D01*
X84245833Y-77018760D02*
X84245833Y-77585427D01*
X84412500Y-76694951D02*
X84579166Y-77302093D01*
X84579166Y-77302093D02*
X84145833Y-77302093D01*
X144562295Y-78621428D02*
X144181342Y-78321428D01*
X144562295Y-78107142D02*
X143762295Y-78107142D01*
X143762295Y-78107142D02*
X143762295Y-78449999D01*
X143762295Y-78449999D02*
X143800390Y-78535714D01*
X143800390Y-78535714D02*
X143838485Y-78578571D01*
X143838485Y-78578571D02*
X143914676Y-78621428D01*
X143914676Y-78621428D02*
X144028961Y-78621428D01*
X144028961Y-78621428D02*
X144105152Y-78578571D01*
X144105152Y-78578571D02*
X144143247Y-78535714D01*
X144143247Y-78535714D02*
X144181342Y-78449999D01*
X144181342Y-78449999D02*
X144181342Y-78107142D01*
X144562295Y-79478571D02*
X144562295Y-78964285D01*
X144562295Y-79221428D02*
X143762295Y-79221428D01*
X143762295Y-79221428D02*
X143876580Y-79135714D01*
X143876580Y-79135714D02*
X143952771Y-79049999D01*
X143952771Y-79049999D02*
X143990866Y-78964285D01*
X143838485Y-79821428D02*
X143800390Y-79864285D01*
X143800390Y-79864285D02*
X143762295Y-79950000D01*
X143762295Y-79950000D02*
X143762295Y-80164285D01*
X143762295Y-80164285D02*
X143800390Y-80250000D01*
X143800390Y-80250000D02*
X143838485Y-80292857D01*
X143838485Y-80292857D02*
X143914676Y-80335714D01*
X143914676Y-80335714D02*
X143990866Y-80335714D01*
X143990866Y-80335714D02*
X144105152Y-80292857D01*
X144105152Y-80292857D02*
X144562295Y-79778571D01*
X144562295Y-79778571D02*
X144562295Y-80335714D01*
X146086104Y-70621428D02*
X146124200Y-70578571D01*
X146124200Y-70578571D02*
X146162295Y-70449999D01*
X146162295Y-70449999D02*
X146162295Y-70364285D01*
X146162295Y-70364285D02*
X146124200Y-70235714D01*
X146124200Y-70235714D02*
X146048009Y-70149999D01*
X146048009Y-70149999D02*
X145971819Y-70107142D01*
X145971819Y-70107142D02*
X145819438Y-70064285D01*
X145819438Y-70064285D02*
X145705152Y-70064285D01*
X145705152Y-70064285D02*
X145552771Y-70107142D01*
X145552771Y-70107142D02*
X145476580Y-70149999D01*
X145476580Y-70149999D02*
X145400390Y-70235714D01*
X145400390Y-70235714D02*
X145362295Y-70364285D01*
X145362295Y-70364285D02*
X145362295Y-70449999D01*
X145362295Y-70449999D02*
X145400390Y-70578571D01*
X145400390Y-70578571D02*
X145438485Y-70621428D01*
X145438485Y-70964285D02*
X145400390Y-71007142D01*
X145400390Y-71007142D02*
X145362295Y-71092857D01*
X145362295Y-71092857D02*
X145362295Y-71307142D01*
X145362295Y-71307142D02*
X145400390Y-71392857D01*
X145400390Y-71392857D02*
X145438485Y-71435714D01*
X145438485Y-71435714D02*
X145514676Y-71478571D01*
X145514676Y-71478571D02*
X145590866Y-71478571D01*
X145590866Y-71478571D02*
X145705152Y-71435714D01*
X145705152Y-71435714D02*
X146162295Y-70921428D01*
X146162295Y-70921428D02*
X146162295Y-71478571D01*
X145362295Y-72035714D02*
X145362295Y-72121428D01*
X145362295Y-72121428D02*
X145400390Y-72207142D01*
X145400390Y-72207142D02*
X145438485Y-72250000D01*
X145438485Y-72250000D02*
X145514676Y-72292857D01*
X145514676Y-72292857D02*
X145667057Y-72335714D01*
X145667057Y-72335714D02*
X145857533Y-72335714D01*
X145857533Y-72335714D02*
X146009914Y-72292857D01*
X146009914Y-72292857D02*
X146086104Y-72250000D01*
X146086104Y-72250000D02*
X146124200Y-72207142D01*
X146124200Y-72207142D02*
X146162295Y-72121428D01*
X146162295Y-72121428D02*
X146162295Y-72035714D01*
X146162295Y-72035714D02*
X146124200Y-71950000D01*
X146124200Y-71950000D02*
X146086104Y-71907142D01*
X146086104Y-71907142D02*
X146009914Y-71864285D01*
X146009914Y-71864285D02*
X145857533Y-71821428D01*
X145857533Y-71821428D02*
X145667057Y-71821428D01*
X145667057Y-71821428D02*
X145514676Y-71864285D01*
X145514676Y-71864285D02*
X145438485Y-71907142D01*
X145438485Y-71907142D02*
X145400390Y-71950000D01*
X145400390Y-71950000D02*
X145362295Y-72035714D01*
X97774999Y-84662354D02*
X97817856Y-84700450D01*
X97817856Y-84700450D02*
X97946428Y-84738545D01*
X97946428Y-84738545D02*
X98032142Y-84738545D01*
X98032142Y-84738545D02*
X98160713Y-84700450D01*
X98160713Y-84700450D02*
X98246428Y-84624259D01*
X98246428Y-84624259D02*
X98289285Y-84548069D01*
X98289285Y-84548069D02*
X98332142Y-84395688D01*
X98332142Y-84395688D02*
X98332142Y-84281402D01*
X98332142Y-84281402D02*
X98289285Y-84129021D01*
X98289285Y-84129021D02*
X98246428Y-84052830D01*
X98246428Y-84052830D02*
X98160713Y-83976640D01*
X98160713Y-83976640D02*
X98032142Y-83938545D01*
X98032142Y-83938545D02*
X97946428Y-83938545D01*
X97946428Y-83938545D02*
X97817856Y-83976640D01*
X97817856Y-83976640D02*
X97774999Y-84014735D01*
X97003571Y-83938545D02*
X97174999Y-83938545D01*
X97174999Y-83938545D02*
X97260713Y-83976640D01*
X97260713Y-83976640D02*
X97303571Y-84014735D01*
X97303571Y-84014735D02*
X97389285Y-84129021D01*
X97389285Y-84129021D02*
X97432142Y-84281402D01*
X97432142Y-84281402D02*
X97432142Y-84586164D01*
X97432142Y-84586164D02*
X97389285Y-84662354D01*
X97389285Y-84662354D02*
X97346428Y-84700450D01*
X97346428Y-84700450D02*
X97260713Y-84738545D01*
X97260713Y-84738545D02*
X97089285Y-84738545D01*
X97089285Y-84738545D02*
X97003571Y-84700450D01*
X97003571Y-84700450D02*
X96960713Y-84662354D01*
X96960713Y-84662354D02*
X96917856Y-84586164D01*
X96917856Y-84586164D02*
X96917856Y-84395688D01*
X96917856Y-84395688D02*
X96960713Y-84319497D01*
X96960713Y-84319497D02*
X97003571Y-84281402D01*
X97003571Y-84281402D02*
X97089285Y-84243307D01*
X97089285Y-84243307D02*
X97260713Y-84243307D01*
X97260713Y-84243307D02*
X97346428Y-84281402D01*
X97346428Y-84281402D02*
X97389285Y-84319497D01*
X97389285Y-84319497D02*
X97432142Y-84395688D01*
X102159999Y-88282295D02*
X102159999Y-88853723D01*
X102159999Y-88853723D02*
X102202856Y-88968009D01*
X102202856Y-88968009D02*
X102288570Y-89044200D01*
X102288570Y-89044200D02*
X102417142Y-89082295D01*
X102417142Y-89082295D02*
X102502856Y-89082295D01*
X101817142Y-88282295D02*
X101259999Y-88282295D01*
X101259999Y-88282295D02*
X101559999Y-88587057D01*
X101559999Y-88587057D02*
X101431428Y-88587057D01*
X101431428Y-88587057D02*
X101345714Y-88625152D01*
X101345714Y-88625152D02*
X101302856Y-88663247D01*
X101302856Y-88663247D02*
X101259999Y-88739438D01*
X101259999Y-88739438D02*
X101259999Y-88929914D01*
X101259999Y-88929914D02*
X101302856Y-89006104D01*
X101302856Y-89006104D02*
X101345714Y-89044200D01*
X101345714Y-89044200D02*
X101431428Y-89082295D01*
X101431428Y-89082295D02*
X101688571Y-89082295D01*
X101688571Y-89082295D02*
X101774285Y-89044200D01*
X101774285Y-89044200D02*
X101817142Y-89006104D01*
X144186104Y-68971428D02*
X144224200Y-68928571D01*
X144224200Y-68928571D02*
X144262295Y-68799999D01*
X144262295Y-68799999D02*
X144262295Y-68714285D01*
X144262295Y-68714285D02*
X144224200Y-68585714D01*
X144224200Y-68585714D02*
X144148009Y-68499999D01*
X144148009Y-68499999D02*
X144071819Y-68457142D01*
X144071819Y-68457142D02*
X143919438Y-68414285D01*
X143919438Y-68414285D02*
X143805152Y-68414285D01*
X143805152Y-68414285D02*
X143652771Y-68457142D01*
X143652771Y-68457142D02*
X143576580Y-68499999D01*
X143576580Y-68499999D02*
X143500390Y-68585714D01*
X143500390Y-68585714D02*
X143462295Y-68714285D01*
X143462295Y-68714285D02*
X143462295Y-68799999D01*
X143462295Y-68799999D02*
X143500390Y-68928571D01*
X143500390Y-68928571D02*
X143538485Y-68971428D01*
X144262295Y-69828571D02*
X144262295Y-69314285D01*
X144262295Y-69571428D02*
X143462295Y-69571428D01*
X143462295Y-69571428D02*
X143576580Y-69485714D01*
X143576580Y-69485714D02*
X143652771Y-69399999D01*
X143652771Y-69399999D02*
X143690866Y-69314285D01*
X144262295Y-70257142D02*
X144262295Y-70428571D01*
X144262295Y-70428571D02*
X144224200Y-70514285D01*
X144224200Y-70514285D02*
X144186104Y-70557142D01*
X144186104Y-70557142D02*
X144071819Y-70642857D01*
X144071819Y-70642857D02*
X143919438Y-70685714D01*
X143919438Y-70685714D02*
X143614676Y-70685714D01*
X143614676Y-70685714D02*
X143538485Y-70642857D01*
X143538485Y-70642857D02*
X143500390Y-70600000D01*
X143500390Y-70600000D02*
X143462295Y-70514285D01*
X143462295Y-70514285D02*
X143462295Y-70342857D01*
X143462295Y-70342857D02*
X143500390Y-70257142D01*
X143500390Y-70257142D02*
X143538485Y-70214285D01*
X143538485Y-70214285D02*
X143614676Y-70171428D01*
X143614676Y-70171428D02*
X143805152Y-70171428D01*
X143805152Y-70171428D02*
X143881342Y-70214285D01*
X143881342Y-70214285D02*
X143919438Y-70257142D01*
X143919438Y-70257142D02*
X143957533Y-70342857D01*
X143957533Y-70342857D02*
X143957533Y-70514285D01*
X143957533Y-70514285D02*
X143919438Y-70600000D01*
X143919438Y-70600000D02*
X143881342Y-70642857D01*
X143881342Y-70642857D02*
X143805152Y-70685714D01*
X95899999Y-81286104D02*
X95942856Y-81324200D01*
X95942856Y-81324200D02*
X96071428Y-81362295D01*
X96071428Y-81362295D02*
X96157142Y-81362295D01*
X96157142Y-81362295D02*
X96285713Y-81324200D01*
X96285713Y-81324200D02*
X96371428Y-81248009D01*
X96371428Y-81248009D02*
X96414285Y-81171819D01*
X96414285Y-81171819D02*
X96457142Y-81019438D01*
X96457142Y-81019438D02*
X96457142Y-80905152D01*
X96457142Y-80905152D02*
X96414285Y-80752771D01*
X96414285Y-80752771D02*
X96371428Y-80676580D01*
X96371428Y-80676580D02*
X96285713Y-80600390D01*
X96285713Y-80600390D02*
X96157142Y-80562295D01*
X96157142Y-80562295D02*
X96071428Y-80562295D01*
X96071428Y-80562295D02*
X95942856Y-80600390D01*
X95942856Y-80600390D02*
X95899999Y-80638485D01*
X95557142Y-80638485D02*
X95514285Y-80600390D01*
X95514285Y-80600390D02*
X95428571Y-80562295D01*
X95428571Y-80562295D02*
X95214285Y-80562295D01*
X95214285Y-80562295D02*
X95128571Y-80600390D01*
X95128571Y-80600390D02*
X95085713Y-80638485D01*
X95085713Y-80638485D02*
X95042856Y-80714676D01*
X95042856Y-80714676D02*
X95042856Y-80790866D01*
X95042856Y-80790866D02*
X95085713Y-80905152D01*
X95085713Y-80905152D02*
X95599999Y-81362295D01*
X95599999Y-81362295D02*
X95042856Y-81362295D01*
X56112295Y-65371428D02*
X55731342Y-65071428D01*
X56112295Y-64857142D02*
X55312295Y-64857142D01*
X55312295Y-64857142D02*
X55312295Y-65199999D01*
X55312295Y-65199999D02*
X55350390Y-65285714D01*
X55350390Y-65285714D02*
X55388485Y-65328571D01*
X55388485Y-65328571D02*
X55464676Y-65371428D01*
X55464676Y-65371428D02*
X55578961Y-65371428D01*
X55578961Y-65371428D02*
X55655152Y-65328571D01*
X55655152Y-65328571D02*
X55693247Y-65285714D01*
X55693247Y-65285714D02*
X55731342Y-65199999D01*
X55731342Y-65199999D02*
X55731342Y-64857142D01*
X56112295Y-66228571D02*
X56112295Y-65714285D01*
X56112295Y-65971428D02*
X55312295Y-65971428D01*
X55312295Y-65971428D02*
X55426580Y-65885714D01*
X55426580Y-65885714D02*
X55502771Y-65799999D01*
X55502771Y-65799999D02*
X55540866Y-65714285D01*
X55655152Y-66742857D02*
X55617057Y-66657142D01*
X55617057Y-66657142D02*
X55578961Y-66614285D01*
X55578961Y-66614285D02*
X55502771Y-66571428D01*
X55502771Y-66571428D02*
X55464676Y-66571428D01*
X55464676Y-66571428D02*
X55388485Y-66614285D01*
X55388485Y-66614285D02*
X55350390Y-66657142D01*
X55350390Y-66657142D02*
X55312295Y-66742857D01*
X55312295Y-66742857D02*
X55312295Y-66914285D01*
X55312295Y-66914285D02*
X55350390Y-67000000D01*
X55350390Y-67000000D02*
X55388485Y-67042857D01*
X55388485Y-67042857D02*
X55464676Y-67085714D01*
X55464676Y-67085714D02*
X55502771Y-67085714D01*
X55502771Y-67085714D02*
X55578961Y-67042857D01*
X55578961Y-67042857D02*
X55617057Y-67000000D01*
X55617057Y-67000000D02*
X55655152Y-66914285D01*
X55655152Y-66914285D02*
X55655152Y-66742857D01*
X55655152Y-66742857D02*
X55693247Y-66657142D01*
X55693247Y-66657142D02*
X55731342Y-66614285D01*
X55731342Y-66614285D02*
X55807533Y-66571428D01*
X55807533Y-66571428D02*
X55959914Y-66571428D01*
X55959914Y-66571428D02*
X56036104Y-66614285D01*
X56036104Y-66614285D02*
X56074200Y-66657142D01*
X56074200Y-66657142D02*
X56112295Y-66742857D01*
X56112295Y-66742857D02*
X56112295Y-66914285D01*
X56112295Y-66914285D02*
X56074200Y-67000000D01*
X56074200Y-67000000D02*
X56036104Y-67042857D01*
X56036104Y-67042857D02*
X55959914Y-67085714D01*
X55959914Y-67085714D02*
X55807533Y-67085714D01*
X55807533Y-67085714D02*
X55731342Y-67042857D01*
X55731342Y-67042857D02*
X55693247Y-67000000D01*
X55693247Y-67000000D02*
X55655152Y-66914285D01*
X69799999Y-59336104D02*
X69842856Y-59374200D01*
X69842856Y-59374200D02*
X69971428Y-59412295D01*
X69971428Y-59412295D02*
X70057142Y-59412295D01*
X70057142Y-59412295D02*
X70185713Y-59374200D01*
X70185713Y-59374200D02*
X70271428Y-59298009D01*
X70271428Y-59298009D02*
X70314285Y-59221819D01*
X70314285Y-59221819D02*
X70357142Y-59069438D01*
X70357142Y-59069438D02*
X70357142Y-58955152D01*
X70357142Y-58955152D02*
X70314285Y-58802771D01*
X70314285Y-58802771D02*
X70271428Y-58726580D01*
X70271428Y-58726580D02*
X70185713Y-58650390D01*
X70185713Y-58650390D02*
X70057142Y-58612295D01*
X70057142Y-58612295D02*
X69971428Y-58612295D01*
X69971428Y-58612295D02*
X69842856Y-58650390D01*
X69842856Y-58650390D02*
X69799999Y-58688485D01*
X69285713Y-58955152D02*
X69371428Y-58917057D01*
X69371428Y-58917057D02*
X69414285Y-58878961D01*
X69414285Y-58878961D02*
X69457142Y-58802771D01*
X69457142Y-58802771D02*
X69457142Y-58764676D01*
X69457142Y-58764676D02*
X69414285Y-58688485D01*
X69414285Y-58688485D02*
X69371428Y-58650390D01*
X69371428Y-58650390D02*
X69285713Y-58612295D01*
X69285713Y-58612295D02*
X69114285Y-58612295D01*
X69114285Y-58612295D02*
X69028571Y-58650390D01*
X69028571Y-58650390D02*
X68985713Y-58688485D01*
X68985713Y-58688485D02*
X68942856Y-58764676D01*
X68942856Y-58764676D02*
X68942856Y-58802771D01*
X68942856Y-58802771D02*
X68985713Y-58878961D01*
X68985713Y-58878961D02*
X69028571Y-58917057D01*
X69028571Y-58917057D02*
X69114285Y-58955152D01*
X69114285Y-58955152D02*
X69285713Y-58955152D01*
X69285713Y-58955152D02*
X69371428Y-58993247D01*
X69371428Y-58993247D02*
X69414285Y-59031342D01*
X69414285Y-59031342D02*
X69457142Y-59107533D01*
X69457142Y-59107533D02*
X69457142Y-59259914D01*
X69457142Y-59259914D02*
X69414285Y-59336104D01*
X69414285Y-59336104D02*
X69371428Y-59374200D01*
X69371428Y-59374200D02*
X69285713Y-59412295D01*
X69285713Y-59412295D02*
X69114285Y-59412295D01*
X69114285Y-59412295D02*
X69028571Y-59374200D01*
X69028571Y-59374200D02*
X68985713Y-59336104D01*
X68985713Y-59336104D02*
X68942856Y-59259914D01*
X68942856Y-59259914D02*
X68942856Y-59107533D01*
X68942856Y-59107533D02*
X68985713Y-59031342D01*
X68985713Y-59031342D02*
X69028571Y-58993247D01*
X69028571Y-58993247D02*
X69114285Y-58955152D01*
X105543333Y-80491009D02*
X105876666Y-80491009D01*
X105876666Y-81014819D02*
X105876666Y-80014819D01*
X105876666Y-80014819D02*
X105400476Y-80014819D01*
X104495714Y-81014819D02*
X105067142Y-81014819D01*
X104781428Y-81014819D02*
X104781428Y-80014819D01*
X104781428Y-80014819D02*
X104876666Y-80157676D01*
X104876666Y-80157676D02*
X104971904Y-80252914D01*
X104971904Y-80252914D02*
X105067142Y-80300533D01*
X57012295Y-68771428D02*
X56631342Y-68471428D01*
X57012295Y-68257142D02*
X56212295Y-68257142D01*
X56212295Y-68257142D02*
X56212295Y-68599999D01*
X56212295Y-68599999D02*
X56250390Y-68685714D01*
X56250390Y-68685714D02*
X56288485Y-68728571D01*
X56288485Y-68728571D02*
X56364676Y-68771428D01*
X56364676Y-68771428D02*
X56478961Y-68771428D01*
X56478961Y-68771428D02*
X56555152Y-68728571D01*
X56555152Y-68728571D02*
X56593247Y-68685714D01*
X56593247Y-68685714D02*
X56631342Y-68599999D01*
X56631342Y-68599999D02*
X56631342Y-68257142D01*
X57012295Y-69628571D02*
X57012295Y-69114285D01*
X57012295Y-69371428D02*
X56212295Y-69371428D01*
X56212295Y-69371428D02*
X56326580Y-69285714D01*
X56326580Y-69285714D02*
X56402771Y-69199999D01*
X56402771Y-69199999D02*
X56440866Y-69114285D01*
X56212295Y-69928571D02*
X56212295Y-70528571D01*
X56212295Y-70528571D02*
X57012295Y-70142857D01*
X119559580Y-46957142D02*
X119607200Y-46909523D01*
X119607200Y-46909523D02*
X119654819Y-46766666D01*
X119654819Y-46766666D02*
X119654819Y-46671428D01*
X119654819Y-46671428D02*
X119607200Y-46528571D01*
X119607200Y-46528571D02*
X119511961Y-46433333D01*
X119511961Y-46433333D02*
X119416723Y-46385714D01*
X119416723Y-46385714D02*
X119226247Y-46338095D01*
X119226247Y-46338095D02*
X119083390Y-46338095D01*
X119083390Y-46338095D02*
X118892914Y-46385714D01*
X118892914Y-46385714D02*
X118797676Y-46433333D01*
X118797676Y-46433333D02*
X118702438Y-46528571D01*
X118702438Y-46528571D02*
X118654819Y-46671428D01*
X118654819Y-46671428D02*
X118654819Y-46766666D01*
X118654819Y-46766666D02*
X118702438Y-46909523D01*
X118702438Y-46909523D02*
X118750057Y-46957142D01*
X118750057Y-47338095D02*
X118702438Y-47385714D01*
X118702438Y-47385714D02*
X118654819Y-47480952D01*
X118654819Y-47480952D02*
X118654819Y-47719047D01*
X118654819Y-47719047D02*
X118702438Y-47814285D01*
X118702438Y-47814285D02*
X118750057Y-47861904D01*
X118750057Y-47861904D02*
X118845295Y-47909523D01*
X118845295Y-47909523D02*
X118940533Y-47909523D01*
X118940533Y-47909523D02*
X119083390Y-47861904D01*
X119083390Y-47861904D02*
X119654819Y-47290476D01*
X119654819Y-47290476D02*
X119654819Y-47909523D01*
X118654819Y-48242857D02*
X118654819Y-48909523D01*
X118654819Y-48909523D02*
X119654819Y-48480952D01*
X93269104Y-35733333D02*
X93269104Y-36209523D01*
X93554819Y-35638095D02*
X92554819Y-35971428D01*
X92554819Y-35971428D02*
X93554819Y-36304761D01*
X93031009Y-36638095D02*
X93031009Y-36971428D01*
X93554819Y-37114285D02*
X93554819Y-36638095D01*
X93554819Y-36638095D02*
X92554819Y-36638095D01*
X92554819Y-36638095D02*
X92554819Y-37114285D01*
X93554819Y-38066666D02*
X93554819Y-37495238D01*
X93554819Y-37780952D02*
X92554819Y-37780952D01*
X92554819Y-37780952D02*
X92697676Y-37685714D01*
X92697676Y-37685714D02*
X92792914Y-37590476D01*
X92792914Y-37590476D02*
X92840533Y-37495238D01*
X58812295Y-52400000D02*
X59383723Y-52400000D01*
X59383723Y-52400000D02*
X59498009Y-52357143D01*
X59498009Y-52357143D02*
X59574200Y-52271429D01*
X59574200Y-52271429D02*
X59612295Y-52142857D01*
X59612295Y-52142857D02*
X59612295Y-52057143D01*
X59078961Y-53214286D02*
X59612295Y-53214286D01*
X58774200Y-53000000D02*
X59345628Y-52785714D01*
X59345628Y-52785714D02*
X59345628Y-53342857D01*
X123531666Y-49869819D02*
X124007856Y-49869819D01*
X124007856Y-49869819D02*
X124007856Y-48869819D01*
X122769761Y-49203152D02*
X122769761Y-49869819D01*
X123007856Y-48822200D02*
X123245951Y-49536485D01*
X123245951Y-49536485D02*
X122626904Y-49536485D01*
X81929166Y-85866379D02*
X81995833Y-85825903D01*
X81995833Y-85825903D02*
X82062500Y-85744951D01*
X82062500Y-85744951D02*
X82162500Y-85623522D01*
X82162500Y-85623522D02*
X82229166Y-85583046D01*
X82229166Y-85583046D02*
X82295833Y-85583046D01*
X82262500Y-85785427D02*
X82329166Y-85744951D01*
X82329166Y-85744951D02*
X82395833Y-85663998D01*
X82395833Y-85663998D02*
X82429166Y-85502093D01*
X82429166Y-85502093D02*
X82429166Y-85218760D01*
X82429166Y-85218760D02*
X82395833Y-85056855D01*
X82395833Y-85056855D02*
X82329166Y-84975903D01*
X82329166Y-84975903D02*
X82262500Y-84935427D01*
X82262500Y-84935427D02*
X82129166Y-84935427D01*
X82129166Y-84935427D02*
X82062500Y-84975903D01*
X82062500Y-84975903D02*
X81995833Y-85056855D01*
X81995833Y-85056855D02*
X81962500Y-85218760D01*
X81962500Y-85218760D02*
X81962500Y-85502093D01*
X81962500Y-85502093D02*
X81995833Y-85663998D01*
X81995833Y-85663998D02*
X82062500Y-85744951D01*
X82062500Y-85744951D02*
X82129166Y-85785427D01*
X82129166Y-85785427D02*
X82262500Y-85785427D01*
X81295833Y-85785427D02*
X81695833Y-85785427D01*
X81495833Y-85785427D02*
X81495833Y-84935427D01*
X81495833Y-84935427D02*
X81562500Y-85056855D01*
X81562500Y-85056855D02*
X81629167Y-85137808D01*
X81629167Y-85137808D02*
X81695833Y-85178284D01*
X88912295Y-54614285D02*
X89559914Y-54614285D01*
X89559914Y-54614285D02*
X89636104Y-54657142D01*
X89636104Y-54657142D02*
X89674200Y-54700000D01*
X89674200Y-54700000D02*
X89712295Y-54785714D01*
X89712295Y-54785714D02*
X89712295Y-54957142D01*
X89712295Y-54957142D02*
X89674200Y-55042857D01*
X89674200Y-55042857D02*
X89636104Y-55085714D01*
X89636104Y-55085714D02*
X89559914Y-55128571D01*
X89559914Y-55128571D02*
X88912295Y-55128571D01*
X88912295Y-55985714D02*
X88912295Y-55557142D01*
X88912295Y-55557142D02*
X89293247Y-55514285D01*
X89293247Y-55514285D02*
X89255152Y-55557142D01*
X89255152Y-55557142D02*
X89217057Y-55642857D01*
X89217057Y-55642857D02*
X89217057Y-55857142D01*
X89217057Y-55857142D02*
X89255152Y-55942857D01*
X89255152Y-55942857D02*
X89293247Y-55985714D01*
X89293247Y-55985714D02*
X89369438Y-56028571D01*
X89369438Y-56028571D02*
X89559914Y-56028571D01*
X89559914Y-56028571D02*
X89636104Y-55985714D01*
X89636104Y-55985714D02*
X89674200Y-55942857D01*
X89674200Y-55942857D02*
X89712295Y-55857142D01*
X89712295Y-55857142D02*
X89712295Y-55642857D01*
X89712295Y-55642857D02*
X89674200Y-55557142D01*
X89674200Y-55557142D02*
X89636104Y-55514285D01*
X85729166Y-79866379D02*
X85795833Y-79825903D01*
X85795833Y-79825903D02*
X85862500Y-79744951D01*
X85862500Y-79744951D02*
X85962500Y-79623522D01*
X85962500Y-79623522D02*
X86029166Y-79583046D01*
X86029166Y-79583046D02*
X86095833Y-79583046D01*
X86062500Y-79785427D02*
X86129166Y-79744951D01*
X86129166Y-79744951D02*
X86195833Y-79663998D01*
X86195833Y-79663998D02*
X86229166Y-79502093D01*
X86229166Y-79502093D02*
X86229166Y-79218760D01*
X86229166Y-79218760D02*
X86195833Y-79056855D01*
X86195833Y-79056855D02*
X86129166Y-78975903D01*
X86129166Y-78975903D02*
X86062500Y-78935427D01*
X86062500Y-78935427D02*
X85929166Y-78935427D01*
X85929166Y-78935427D02*
X85862500Y-78975903D01*
X85862500Y-78975903D02*
X85795833Y-79056855D01*
X85795833Y-79056855D02*
X85762500Y-79218760D01*
X85762500Y-79218760D02*
X85762500Y-79502093D01*
X85762500Y-79502093D02*
X85795833Y-79663998D01*
X85795833Y-79663998D02*
X85862500Y-79744951D01*
X85862500Y-79744951D02*
X85929166Y-79785427D01*
X85929166Y-79785427D02*
X86062500Y-79785427D01*
X85162500Y-78935427D02*
X85295833Y-78935427D01*
X85295833Y-78935427D02*
X85362500Y-78975903D01*
X85362500Y-78975903D02*
X85395833Y-79016379D01*
X85395833Y-79016379D02*
X85462500Y-79137808D01*
X85462500Y-79137808D02*
X85495833Y-79299712D01*
X85495833Y-79299712D02*
X85495833Y-79623522D01*
X85495833Y-79623522D02*
X85462500Y-79704474D01*
X85462500Y-79704474D02*
X85429167Y-79744951D01*
X85429167Y-79744951D02*
X85362500Y-79785427D01*
X85362500Y-79785427D02*
X85229167Y-79785427D01*
X85229167Y-79785427D02*
X85162500Y-79744951D01*
X85162500Y-79744951D02*
X85129167Y-79704474D01*
X85129167Y-79704474D02*
X85095833Y-79623522D01*
X85095833Y-79623522D02*
X85095833Y-79421141D01*
X85095833Y-79421141D02*
X85129167Y-79340189D01*
X85129167Y-79340189D02*
X85162500Y-79299712D01*
X85162500Y-79299712D02*
X85229167Y-79259236D01*
X85229167Y-79259236D02*
X85362500Y-79259236D01*
X85362500Y-79259236D02*
X85429167Y-79299712D01*
X85429167Y-79299712D02*
X85462500Y-79340189D01*
X85462500Y-79340189D02*
X85495833Y-79421141D01*
X67186104Y-67871428D02*
X67224200Y-67828571D01*
X67224200Y-67828571D02*
X67262295Y-67699999D01*
X67262295Y-67699999D02*
X67262295Y-67614285D01*
X67262295Y-67614285D02*
X67224200Y-67485714D01*
X67224200Y-67485714D02*
X67148009Y-67399999D01*
X67148009Y-67399999D02*
X67071819Y-67357142D01*
X67071819Y-67357142D02*
X66919438Y-67314285D01*
X66919438Y-67314285D02*
X66805152Y-67314285D01*
X66805152Y-67314285D02*
X66652771Y-67357142D01*
X66652771Y-67357142D02*
X66576580Y-67399999D01*
X66576580Y-67399999D02*
X66500390Y-67485714D01*
X66500390Y-67485714D02*
X66462295Y-67614285D01*
X66462295Y-67614285D02*
X66462295Y-67699999D01*
X66462295Y-67699999D02*
X66500390Y-67828571D01*
X66500390Y-67828571D02*
X66538485Y-67871428D01*
X66462295Y-68171428D02*
X66462295Y-68728571D01*
X66462295Y-68728571D02*
X66767057Y-68428571D01*
X66767057Y-68428571D02*
X66767057Y-68557142D01*
X66767057Y-68557142D02*
X66805152Y-68642857D01*
X66805152Y-68642857D02*
X66843247Y-68685714D01*
X66843247Y-68685714D02*
X66919438Y-68728571D01*
X66919438Y-68728571D02*
X67109914Y-68728571D01*
X67109914Y-68728571D02*
X67186104Y-68685714D01*
X67186104Y-68685714D02*
X67224200Y-68642857D01*
X67224200Y-68642857D02*
X67262295Y-68557142D01*
X67262295Y-68557142D02*
X67262295Y-68299999D01*
X67262295Y-68299999D02*
X67224200Y-68214285D01*
X67224200Y-68214285D02*
X67186104Y-68171428D01*
X66462295Y-69028571D02*
X66462295Y-69628571D01*
X66462295Y-69628571D02*
X67262295Y-69242857D01*
X157928571Y-65936104D02*
X157971428Y-65974200D01*
X157971428Y-65974200D02*
X158100000Y-66012295D01*
X158100000Y-66012295D02*
X158185714Y-66012295D01*
X158185714Y-66012295D02*
X158314285Y-65974200D01*
X158314285Y-65974200D02*
X158400000Y-65898009D01*
X158400000Y-65898009D02*
X158442857Y-65821819D01*
X158442857Y-65821819D02*
X158485714Y-65669438D01*
X158485714Y-65669438D02*
X158485714Y-65555152D01*
X158485714Y-65555152D02*
X158442857Y-65402771D01*
X158442857Y-65402771D02*
X158400000Y-65326580D01*
X158400000Y-65326580D02*
X158314285Y-65250390D01*
X158314285Y-65250390D02*
X158185714Y-65212295D01*
X158185714Y-65212295D02*
X158100000Y-65212295D01*
X158100000Y-65212295D02*
X157971428Y-65250390D01*
X157971428Y-65250390D02*
X157928571Y-65288485D01*
X157071428Y-66012295D02*
X157585714Y-66012295D01*
X157328571Y-66012295D02*
X157328571Y-65212295D01*
X157328571Y-65212295D02*
X157414285Y-65326580D01*
X157414285Y-65326580D02*
X157500000Y-65402771D01*
X157500000Y-65402771D02*
X157585714Y-65440866D01*
X156300000Y-65212295D02*
X156471428Y-65212295D01*
X156471428Y-65212295D02*
X156557142Y-65250390D01*
X156557142Y-65250390D02*
X156600000Y-65288485D01*
X156600000Y-65288485D02*
X156685714Y-65402771D01*
X156685714Y-65402771D02*
X156728571Y-65555152D01*
X156728571Y-65555152D02*
X156728571Y-65859914D01*
X156728571Y-65859914D02*
X156685714Y-65936104D01*
X156685714Y-65936104D02*
X156642857Y-65974200D01*
X156642857Y-65974200D02*
X156557142Y-66012295D01*
X156557142Y-66012295D02*
X156385714Y-66012295D01*
X156385714Y-66012295D02*
X156300000Y-65974200D01*
X156300000Y-65974200D02*
X156257142Y-65936104D01*
X156257142Y-65936104D02*
X156214285Y-65859914D01*
X156214285Y-65859914D02*
X156214285Y-65669438D01*
X156214285Y-65669438D02*
X156257142Y-65593247D01*
X156257142Y-65593247D02*
X156300000Y-65555152D01*
X156300000Y-65555152D02*
X156385714Y-65517057D01*
X156385714Y-65517057D02*
X156557142Y-65517057D01*
X156557142Y-65517057D02*
X156642857Y-65555152D01*
X156642857Y-65555152D02*
X156685714Y-65593247D01*
X156685714Y-65593247D02*
X156728571Y-65669438D01*
X88017927Y-84283333D02*
X87613165Y-84050000D01*
X88017927Y-83883333D02*
X87167927Y-83883333D01*
X87167927Y-83883333D02*
X87167927Y-84150000D01*
X87167927Y-84150000D02*
X87208403Y-84216667D01*
X87208403Y-84216667D02*
X87248879Y-84250000D01*
X87248879Y-84250000D02*
X87329831Y-84283333D01*
X87329831Y-84283333D02*
X87451260Y-84283333D01*
X87451260Y-84283333D02*
X87532212Y-84250000D01*
X87532212Y-84250000D02*
X87572689Y-84216667D01*
X87572689Y-84216667D02*
X87613165Y-84150000D01*
X87613165Y-84150000D02*
X87613165Y-83883333D01*
X87167927Y-84516667D02*
X87167927Y-84950000D01*
X87167927Y-84950000D02*
X87491736Y-84716667D01*
X87491736Y-84716667D02*
X87491736Y-84816667D01*
X87491736Y-84816667D02*
X87532212Y-84883333D01*
X87532212Y-84883333D02*
X87572689Y-84916667D01*
X87572689Y-84916667D02*
X87653641Y-84950000D01*
X87653641Y-84950000D02*
X87856022Y-84950000D01*
X87856022Y-84950000D02*
X87936974Y-84916667D01*
X87936974Y-84916667D02*
X87977451Y-84883333D01*
X87977451Y-84883333D02*
X88017927Y-84816667D01*
X88017927Y-84816667D02*
X88017927Y-84616667D01*
X88017927Y-84616667D02*
X87977451Y-84550000D01*
X87977451Y-84550000D02*
X87936974Y-84516667D01*
X79329523Y-56994819D02*
X78662857Y-56994819D01*
X78662857Y-56994819D02*
X79329523Y-57994819D01*
X79329523Y-57994819D02*
X78662857Y-57994819D01*
X77758095Y-57994819D02*
X78329523Y-57994819D01*
X78043809Y-57994819D02*
X78043809Y-56994819D01*
X78043809Y-56994819D02*
X78139047Y-57137676D01*
X78139047Y-57137676D02*
X78234285Y-57232914D01*
X78234285Y-57232914D02*
X78329523Y-57280533D01*
D11*
X80882500Y-83153641D02*
X80882500Y-82846359D01*
X81642500Y-83153641D02*
X81642500Y-82846359D01*
X86082500Y-82553641D02*
X86082500Y-82246359D01*
X86842500Y-82553641D02*
X86842500Y-82246359D01*
X72340580Y-51660000D02*
X72059420Y-51660000D01*
X72340580Y-50640000D02*
X72059420Y-50640000D01*
X142482836Y-61635000D02*
X142267164Y-61635000D01*
X142482836Y-60915000D02*
X142267164Y-60915000D01*
X100337779Y-83246250D02*
X100012221Y-83246250D01*
X100337779Y-82226250D02*
X100012221Y-82226250D01*
X139240000Y-80262500D02*
X139240000Y-81062500D01*
X139240000Y-80262500D02*
X139240000Y-79462500D01*
X142360000Y-80262500D02*
X142360000Y-82062500D01*
X142360000Y-80262500D02*
X142360000Y-79462500D01*
X145190000Y-59040000D02*
X145190000Y-59490000D01*
X145190000Y-65810000D02*
X143900000Y-65810000D01*
X145190000Y-66260000D02*
X145190000Y-65810000D01*
X145640000Y-59040000D02*
X145190000Y-59040000D01*
X145640000Y-66260000D02*
X145190000Y-66260000D01*
X151960000Y-59040000D02*
X152410000Y-59040000D01*
X151960000Y-66260000D02*
X152410000Y-66260000D01*
X152410000Y-59040000D02*
X152410000Y-59490000D01*
X152410000Y-66260000D02*
X152410000Y-65810000D01*
X75190000Y-54961252D02*
X75190000Y-54438748D01*
X77410000Y-54961252D02*
X77410000Y-54438748D01*
X151390000Y-56457836D02*
X151390000Y-56242164D01*
X152110000Y-56457836D02*
X152110000Y-56242164D01*
X66660000Y-72190000D02*
X54940000Y-72190000D01*
X54940000Y-72190000D02*
X54940000Y-73610000D01*
X59440000Y-73610000D02*
X59440000Y-76000000D01*
X54940000Y-73610000D02*
X59440000Y-73610000D01*
X55250000Y-74450000D02*
X55250000Y-75050000D01*
X66050000Y-74500000D02*
X66050000Y-75000000D01*
X60550000Y-74500000D02*
X66050000Y-74500000D01*
X55850000Y-74750000D02*
X55250000Y-74450000D01*
X66050000Y-75000000D02*
X60550000Y-75000000D01*
X60550000Y-75000000D02*
X60550000Y-74500000D01*
X55250000Y-75050000D02*
X55850000Y-74750000D01*
X66660000Y-76000000D02*
X66660000Y-72190000D01*
X66660000Y-76000000D02*
X66660000Y-79810000D01*
X66050000Y-77000000D02*
X66050000Y-77500000D01*
X60550000Y-77000000D02*
X66050000Y-77000000D01*
X66050000Y-77500000D02*
X60550000Y-77500000D01*
X60550000Y-77500000D02*
X60550000Y-77000000D01*
X59440000Y-78390000D02*
X59440000Y-76000000D01*
X54940000Y-78390000D02*
X59440000Y-78390000D01*
X66660000Y-79810000D02*
X54940000Y-79810000D01*
X54940000Y-79810000D02*
X54940000Y-78390000D01*
X149930000Y-55486359D02*
X149930000Y-55793641D01*
X149170000Y-55486359D02*
X149170000Y-55793641D01*
X82416141Y-78580000D02*
X82108859Y-78580000D01*
X82416141Y-77820000D02*
X82108859Y-77820000D01*
X65750000Y-71250000D02*
X60350000Y-71250000D01*
X65750000Y-67950000D02*
X65750000Y-71250000D01*
X65750000Y-67950000D02*
X60350000Y-67950000D01*
X72857836Y-52860000D02*
X72642164Y-52860000D01*
X72857836Y-52140000D02*
X72642164Y-52140000D01*
X80882500Y-80353641D02*
X80882500Y-80046359D01*
X81642500Y-80353641D02*
X81642500Y-80046359D01*
X72290580Y-61160000D02*
X72009420Y-61160000D01*
X72290580Y-60140000D02*
X72009420Y-60140000D01*
X81876359Y-59220000D02*
X82183641Y-59220000D01*
X81876359Y-59980000D02*
X82183641Y-59980000D01*
D12*
X71200000Y-53350000D02*
X73200000Y-53350000D01*
X71200000Y-56350000D02*
X73200000Y-56350000D01*
D13*
X70550000Y-56100000D02*
G75*
G03*
X70550000Y-56100000I-100000J0D01*
G01*
D11*
X138860000Y-81292164D02*
X138860000Y-81507836D01*
X138140000Y-81292164D02*
X138140000Y-81507836D01*
X67012742Y-53877500D02*
X67487258Y-53877500D01*
X67012742Y-54922500D02*
X67487258Y-54922500D01*
X148830000Y-70596359D02*
X148830000Y-70903641D01*
X148070000Y-70596359D02*
X148070000Y-70903641D01*
X74610000Y-57092164D02*
X74610000Y-57307836D01*
X73890000Y-57092164D02*
X73890000Y-57307836D01*
X68040000Y-65790580D02*
X68040000Y-65509420D01*
X69060000Y-65790580D02*
X69060000Y-65509420D01*
X59950000Y-64290000D02*
X59300000Y-64290000D01*
X59950000Y-64290000D02*
X60600000Y-64290000D01*
X59950000Y-67410000D02*
X58275000Y-67410000D01*
X59950000Y-67410000D02*
X60600000Y-67410000D01*
X67437258Y-53322500D02*
X66962742Y-53322500D01*
X67437258Y-52277500D02*
X66962742Y-52277500D01*
X72290580Y-57960000D02*
X72009420Y-57960000D01*
X72290580Y-56940000D02*
X72009420Y-56940000D01*
X138120000Y-79253641D02*
X138120000Y-78946359D01*
X138880000Y-79253641D02*
X138880000Y-78946359D01*
X153340000Y-70450279D02*
X153340000Y-70124721D01*
X154360000Y-70450279D02*
X154360000Y-70124721D01*
X67487258Y-56522500D02*
X67012742Y-56522500D01*
X67487258Y-55477500D02*
X67012742Y-55477500D01*
X100084420Y-85466250D02*
X100365580Y-85466250D01*
X100084420Y-86486250D02*
X100365580Y-86486250D01*
X64050000Y-64290000D02*
X63400000Y-64290000D01*
X64050000Y-64290000D02*
X64700000Y-64290000D01*
X64050000Y-67410000D02*
X62375000Y-67410000D01*
X64050000Y-67410000D02*
X64700000Y-67410000D01*
X84908859Y-77820000D02*
X85216141Y-77820000D01*
X84908859Y-78580000D02*
X85216141Y-78580000D01*
X142720000Y-79353641D02*
X142720000Y-79046359D01*
X143480000Y-79353641D02*
X143480000Y-79046359D01*
X146160000Y-68792164D02*
X146160000Y-69007836D01*
X145440000Y-68792164D02*
X145440000Y-69007836D01*
X100034420Y-83866250D02*
X100315580Y-83866250D01*
X100034420Y-84886250D02*
X100315580Y-84886250D01*
D13*
X112970000Y-90270000D02*
X103390000Y-90270000D01*
X112970000Y-88990000D02*
X112970000Y-90270000D01*
X112970000Y-85020000D02*
X112970000Y-86270000D01*
X103390000Y-90270000D02*
X103390000Y-88990000D01*
X103390000Y-85020000D02*
X103390000Y-86270000D01*
D11*
X144260000Y-67142164D02*
X144260000Y-67357836D01*
X143540000Y-67142164D02*
X143540000Y-67357836D01*
X98340580Y-81510000D02*
X98059420Y-81510000D01*
X98340580Y-80490000D02*
X98059420Y-80490000D01*
X56527500Y-66187258D02*
X56527500Y-65712742D01*
X57572500Y-66187258D02*
X57572500Y-65712742D01*
X72290580Y-59560000D02*
X72009420Y-59560000D01*
X72290580Y-58540000D02*
X72009420Y-58540000D01*
X102802064Y-81510000D02*
X101597936Y-81510000D01*
X102802064Y-79690000D02*
X101597936Y-79690000D01*
X57427500Y-69587258D02*
X57427500Y-69112742D01*
X58472500Y-69587258D02*
X58472500Y-69112742D01*
D14*
X144660000Y-76582500D02*
G75*
G03*
X144660000Y-76582500I-650000J0D01*
G01*
D11*
X120615000Y-47907836D02*
X120615000Y-47692164D01*
X121335000Y-47907836D02*
X121335000Y-47692164D01*
X123620000Y-34085000D02*
X94130000Y-34085000D01*
X94130000Y-34085000D02*
X94130000Y-42875000D01*
X94130000Y-42875000D02*
X123620000Y-42875000D01*
X123620000Y-42875000D02*
X123620000Y-34085000D01*
X55990000Y-61860000D02*
X55990000Y-59360000D01*
X58490000Y-61860000D02*
X55990000Y-61860000D01*
X56290000Y-61560000D02*
X56290000Y-53840000D01*
X57790000Y-61560000D02*
X57790000Y-60560000D01*
X58600000Y-61560000D02*
X58600000Y-61060000D01*
X60310000Y-61560000D02*
X56290000Y-61560000D01*
X58600000Y-61060000D02*
X59810000Y-61060000D01*
X59810000Y-61060000D02*
X59810000Y-54340000D01*
X57790000Y-60560000D02*
X56290000Y-60560000D01*
X57790000Y-54840000D02*
X56290000Y-54840000D01*
X58600000Y-54340000D02*
X58600000Y-53840000D01*
X59810000Y-54340000D02*
X58600000Y-54340000D01*
X56290000Y-53840000D02*
X60310000Y-53840000D01*
X57790000Y-53840000D02*
X57790000Y-54840000D01*
X60310000Y-53840000D02*
X60310000Y-61560000D01*
X83800000Y-85760000D02*
X84450000Y-85760000D01*
X83800000Y-85760000D02*
X83150000Y-85760000D01*
X83800000Y-82640000D02*
X85475000Y-82640000D01*
X83800000Y-82640000D02*
X83150000Y-82640000D01*
D14*
X138810000Y-76532500D02*
G75*
G03*
X138810000Y-76532500I-650000J0D01*
G01*
D11*
X131850000Y-51800000D02*
X111850000Y-51800000D01*
X94350000Y-51800000D02*
X90350000Y-51800000D01*
X90350000Y-51800000D02*
X90350000Y-77800000D01*
X131850000Y-56800000D02*
X131850000Y-51800000D01*
X131850000Y-67800000D02*
X131850000Y-61800000D01*
X131850000Y-77800000D02*
X131850000Y-72800000D01*
X111850000Y-77800000D02*
X131850000Y-77800000D01*
X90350000Y-77800000D02*
X94350000Y-77800000D01*
X83862500Y-79040000D02*
X83212500Y-79040000D01*
X83862500Y-79040000D02*
X84512500Y-79040000D01*
X83862500Y-82160000D02*
X82187500Y-82160000D01*
X83862500Y-82160000D02*
X84512500Y-82160000D01*
X66380000Y-65790580D02*
X66380000Y-65509420D01*
X67400000Y-65790580D02*
X67400000Y-65509420D01*
X154942164Y-65290000D02*
X155157836Y-65290000D01*
X154942164Y-66010000D02*
X155157836Y-66010000D01*
X86082500Y-84553641D02*
X86082500Y-84246359D01*
X86842500Y-84553641D02*
X86842500Y-84246359D01*
D14*
X141910000Y-76582500D02*
G75*
G03*
X141910000Y-76582500I-650000J0D01*
G01*
X75650000Y-60375000D02*
X75650000Y-58425000D01*
X75750000Y-60375000D02*
X75750000Y-58425000D01*
X75850000Y-60375000D02*
X75850000Y-58425000D01*
X76000000Y-58425000D02*
X75650000Y-58425000D01*
X76000000Y-60375000D02*
X75650000Y-60375000D01*
X78000000Y-60375000D02*
X78300000Y-60375000D01*
X78300000Y-58425000D02*
X78050000Y-58425000D01*
X78300000Y-58675000D02*
X78300000Y-58425000D01*
X78300000Y-60375000D02*
X78300000Y-60150000D01*
M02*
