G04 #@! TF.GenerationSoftware,KiCad,Pcbnew,7.0.5*
G04 #@! TF.CreationDate,2023-12-24T08:42:57+03:00*
G04 #@! TF.ProjectId,ALERT_RIDER_HARDWARE,414c4552-545f-4524-9944-45525f484152,rev?*
G04 #@! TF.SameCoordinates,Original*
G04 #@! TF.FileFunction,Soldermask,Top*
G04 #@! TF.FilePolarity,Negative*
%FSLAX46Y46*%
G04 Gerber Fmt 4.6, Leading zero omitted, Abs format (unit mm)*
G04 Created by KiCad (PCBNEW 7.0.5) date 2023-12-24 08:42:57*
%MOMM*%
%LPD*%
G01*
G04 APERTURE LIST*
G04 Aperture macros list*
%AMRoundRect*
0 Rectangle with rounded corners*
0 $1 Rounding radius*
0 $2 $3 $4 $5 $6 $7 $8 $9 X,Y pos of 4 corners*
0 Add a 4 corners polygon primitive as box body*
4,1,4,$2,$3,$4,$5,$6,$7,$8,$9,$2,$3,0*
0 Add four circle primitives for the rounded corners*
1,1,$1+$1,$2,$3*
1,1,$1+$1,$4,$5*
1,1,$1+$1,$6,$7*
1,1,$1+$1,$8,$9*
0 Add four rect primitives between the rounded corners*
20,1,$1+$1,$2,$3,$4,$5,0*
20,1,$1+$1,$4,$5,$6,$7,0*
20,1,$1+$1,$6,$7,$8,$9,0*
20,1,$1+$1,$8,$9,$2,$3,0*%
%AMFreePoly0*
4,1,19,0.550000,-0.750000,0.000000,-0.750000,0.000000,-0.744911,-0.071157,-0.744911,-0.207708,-0.704816,-0.327430,-0.627875,-0.420627,-0.520320,-0.479746,-0.390866,-0.500000,-0.250000,-0.500000,0.250000,-0.479746,0.390866,-0.420627,0.520320,-0.327430,0.627875,-0.207708,0.704816,-0.071157,0.744911,0.000000,0.744911,0.000000,0.750000,0.550000,0.750000,0.550000,-0.750000,0.550000,-0.750000,
$1*%
%AMFreePoly1*
4,1,19,0.000000,0.744911,0.071157,0.744911,0.207708,0.704816,0.327430,0.627875,0.420627,0.520320,0.479746,0.390866,0.500000,0.250000,0.500000,-0.250000,0.479746,-0.390866,0.420627,-0.520320,0.327430,-0.627875,0.207708,-0.704816,0.071157,-0.744911,0.000000,-0.744911,0.000000,-0.750000,-0.550000,-0.750000,-0.550000,0.750000,0.000000,0.750000,0.000000,0.744911,0.000000,0.744911,
$1*%
G04 Aperture macros list end*
%ADD10RoundRect,0.147500X0.172500X-0.147500X0.172500X0.147500X-0.172500X0.147500X-0.172500X-0.147500X0*%
%ADD11C,0.900000*%
%ADD12RoundRect,0.135000X0.135000X0.185000X-0.135000X0.185000X-0.135000X-0.185000X0.135000X-0.185000X0*%
%ADD13RoundRect,0.135000X-0.185000X0.135000X-0.185000X-0.135000X0.185000X-0.135000X0.185000X0.135000X0*%
%ADD14RoundRect,0.225000X-0.225000X-0.250000X0.225000X-0.250000X0.225000X0.250000X-0.225000X0.250000X0*%
%ADD15RoundRect,0.140000X0.170000X-0.140000X0.170000X0.140000X-0.170000X0.140000X-0.170000X-0.140000X0*%
%ADD16RoundRect,0.135000X0.185000X-0.135000X0.185000X0.135000X-0.185000X0.135000X-0.185000X-0.135000X0*%
%ADD17R,3.200000X1.500000*%
%ADD18RoundRect,0.135000X-0.135000X-0.185000X0.135000X-0.185000X0.135000X0.185000X-0.135000X0.185000X0*%
%ADD19RoundRect,0.150000X0.587500X0.150000X-0.587500X0.150000X-0.587500X-0.150000X0.587500X-0.150000X0*%
%ADD20FreePoly0,270.000000*%
%ADD21R,1.500000X1.000000*%
%ADD22FreePoly1,270.000000*%
%ADD23RoundRect,0.150000X-0.150000X0.587500X-0.150000X-0.587500X0.150000X-0.587500X0.150000X0.587500X0*%
%ADD24R,2.500000X2.200000*%
%ADD25R,1.550000X2.200000*%
%ADD26RoundRect,0.147500X-0.147500X-0.172500X0.147500X-0.172500X0.147500X0.172500X-0.147500X0.172500X0*%
%ADD27R,1.100000X2.000000*%
%ADD28RoundRect,0.102000X0.200000X-0.250000X0.200000X0.250000X-0.200000X0.250000X-0.200000X-0.250000X0*%
%ADD29RoundRect,0.250000X-0.625000X0.375000X-0.625000X-0.375000X0.625000X-0.375000X0.625000X0.375000X0*%
%ADD30RoundRect,0.140000X-0.140000X-0.170000X0.140000X-0.170000X0.140000X0.170000X-0.140000X0.170000X0*%
%ADD31FreePoly0,180.000000*%
%ADD32R,1.000000X1.500000*%
%ADD33FreePoly1,180.000000*%
%ADD34RoundRect,0.050000X0.725000X-0.150000X0.725000X0.150000X-0.725000X0.150000X-0.725000X-0.150000X0*%
%ADD35R,1.050000X0.650000*%
%ADD36C,1.067000*%
%ADD37C,0.787000*%
%ADD38RoundRect,0.250000X-0.750000X0.600000X-0.750000X-0.600000X0.750000X-0.600000X0.750000X0.600000X0*%
%ADD39O,2.000000X1.700000*%
%ADD40C,0.650000*%
%ADD41O,1.000000X2.000000*%
%ADD42O,1.050000X2.100000*%
%ADD43RoundRect,0.250000X0.750000X-0.600000X0.750000X0.600000X-0.750000X0.600000X-0.750000X-0.600000X0*%
G04 APERTURE END LIST*
D10*
X151400000Y-59285000D03*
X151400000Y-58315000D03*
D11*
X111100000Y-70200000D03*
D12*
X154110000Y-54800000D03*
X153090000Y-54800000D03*
D13*
X117000000Y-55580000D03*
X117000000Y-56600000D03*
D12*
X111630000Y-71890000D03*
X110610000Y-71890000D03*
D14*
X73275000Y-78600000D03*
X74825000Y-78600000D03*
D15*
X138500000Y-50945000D03*
X138500000Y-49985000D03*
D13*
X106450000Y-85540000D03*
X106450000Y-86560000D03*
D16*
X153800000Y-57110000D03*
X153800000Y-56090000D03*
D17*
X68840000Y-65420000D03*
X75640000Y-65420000D03*
X68840000Y-69420000D03*
X75640000Y-69420000D03*
D18*
X88090000Y-60000000D03*
X89110000Y-60000000D03*
D13*
X110000000Y-57690000D03*
X110000000Y-58710000D03*
D11*
X66550000Y-49000000D03*
X53850000Y-63300000D03*
D19*
X120307500Y-62190000D03*
X120307500Y-60290000D03*
X118432500Y-61240000D03*
D11*
X61600000Y-51875000D03*
D14*
X66725000Y-78250000D03*
X68275000Y-78250000D03*
D15*
X96629000Y-52610000D03*
X96629000Y-51650000D03*
D12*
X56510000Y-64800000D03*
X55490000Y-64800000D03*
D20*
X152100000Y-50100000D03*
D21*
X152100000Y-51400000D03*
D22*
X152100000Y-52700000D03*
D18*
X145890000Y-56600000D03*
X146910000Y-56600000D03*
D17*
X148320000Y-65450000D03*
X155120000Y-65450000D03*
X148320000Y-69450000D03*
X155120000Y-69450000D03*
D18*
X64290000Y-60000000D03*
X65310000Y-60000000D03*
D13*
X99040000Y-61250000D03*
X99040000Y-62270000D03*
D15*
X98929000Y-52610000D03*
X98929000Y-51650000D03*
D11*
X71200000Y-72600000D03*
D12*
X65100000Y-73750000D03*
X64080000Y-73750000D03*
D13*
X123040000Y-61220000D03*
X123040000Y-62240000D03*
D20*
X147800000Y-50100000D03*
D21*
X147800000Y-51400000D03*
D22*
X147800000Y-52700000D03*
D23*
X108920000Y-77232500D03*
X107020000Y-77232500D03*
X107970000Y-79107500D03*
D24*
X95200000Y-55470000D03*
D25*
X97775000Y-55470000D03*
D19*
X96307500Y-62220000D03*
X96307500Y-60320000D03*
X94432500Y-61270000D03*
D11*
X53750000Y-75700000D03*
D12*
X128310000Y-60000000D03*
X127290000Y-60000000D03*
X145210000Y-54900000D03*
X144190000Y-54900000D03*
D24*
X78070000Y-57620000D03*
D25*
X80645000Y-57620000D03*
D24*
X71200000Y-55440000D03*
D25*
X73775000Y-55440000D03*
D17*
X135340000Y-72950000D03*
X142140000Y-72950000D03*
X135340000Y-76950000D03*
X142140000Y-76950000D03*
D19*
X72307500Y-62190000D03*
X72307500Y-60290000D03*
X70432500Y-61240000D03*
D24*
X127300000Y-57650000D03*
D25*
X124725000Y-57650000D03*
D24*
X88250000Y-57650000D03*
D25*
X90825000Y-57650000D03*
D26*
X150215000Y-57300000D03*
X151185000Y-57300000D03*
D12*
X65100000Y-74900000D03*
X64080000Y-74900000D03*
D24*
X119200000Y-55440000D03*
D25*
X121775000Y-55440000D03*
D13*
X139750000Y-49955000D03*
X139750000Y-50975000D03*
D27*
X141480000Y-54060000D03*
X139980000Y-54060000D03*
X138480000Y-54060000D03*
X136980000Y-54060000D03*
X135480000Y-54060000D03*
X135480000Y-66060000D03*
X136980000Y-66060000D03*
X138480000Y-66060000D03*
X139980000Y-66060000D03*
X141480000Y-66060000D03*
D13*
X121930000Y-61260000D03*
X121930000Y-62280000D03*
X99800000Y-57290000D03*
X99800000Y-58310000D03*
D28*
X149750000Y-59650000D03*
X150450000Y-59650000D03*
X150450000Y-58350000D03*
X149750000Y-58350000D03*
D29*
X61000000Y-74400000D03*
X61000000Y-77200000D03*
D13*
X75040000Y-61220000D03*
X75040000Y-62240000D03*
D30*
X72970000Y-76100000D03*
X73930000Y-76100000D03*
D12*
X94910000Y-53000000D03*
X93890000Y-53000000D03*
D30*
X72970000Y-77250000D03*
X73930000Y-77250000D03*
D13*
X110050000Y-85540000D03*
X110050000Y-86560000D03*
D11*
X53750000Y-72500000D03*
D17*
X116830000Y-65450000D03*
X123630000Y-65450000D03*
X116830000Y-69450000D03*
X123630000Y-69450000D03*
D15*
X97829000Y-52610000D03*
X97829000Y-51650000D03*
D13*
X73930000Y-61260000D03*
X73930000Y-62280000D03*
D16*
X108930000Y-75590000D03*
X108930000Y-74570000D03*
D18*
X72180000Y-53000000D03*
X73200000Y-53000000D03*
D12*
X65100000Y-76000000D03*
X64080000Y-76000000D03*
D24*
X64250000Y-57620000D03*
D25*
X66825000Y-57620000D03*
D24*
X112250000Y-57620000D03*
D25*
X114825000Y-57620000D03*
D16*
X107020000Y-75590000D03*
X107020000Y-74570000D03*
D11*
X53900000Y-60575000D03*
X111200000Y-73750000D03*
D18*
X145890000Y-58300000D03*
X146910000Y-58300000D03*
D24*
X102070000Y-57650000D03*
D25*
X104645000Y-57650000D03*
D31*
X131000000Y-77200000D03*
D32*
X129700000Y-77200000D03*
D33*
X128400000Y-77200000D03*
D13*
X76000000Y-56690000D03*
X76000000Y-57710000D03*
D34*
X71400000Y-76600000D03*
X71400000Y-76100000D03*
X71400000Y-75600000D03*
X71400000Y-75100000D03*
X71400000Y-74600000D03*
X67000000Y-74600000D03*
X67000000Y-75100000D03*
X67000000Y-75600000D03*
X67000000Y-76100000D03*
X67000000Y-76600000D03*
D35*
X133025000Y-48900000D03*
X137175000Y-48900000D03*
X133025000Y-51050000D03*
X137175000Y-51050000D03*
D17*
X92920000Y-65440000D03*
X99720000Y-65440000D03*
X92920000Y-69440000D03*
X99720000Y-69440000D03*
D13*
X97930000Y-61290000D03*
X97930000Y-62310000D03*
D36*
X153840000Y-77250000D03*
X148760000Y-78266000D03*
X148760000Y-76234000D03*
D37*
X152570000Y-76615000D03*
X152570000Y-77885000D03*
X151300000Y-76615000D03*
X151300000Y-77885000D03*
X150030000Y-76615000D03*
X150030000Y-77885000D03*
D38*
X57350000Y-74750000D03*
D39*
X57350000Y-77250000D03*
D40*
X111070000Y-83990000D03*
X105290000Y-83990000D03*
D41*
X112500000Y-87670000D03*
D42*
X112500000Y-83490000D03*
D41*
X103860000Y-87670000D03*
D42*
X103860000Y-83490000D03*
D43*
X58600000Y-58950000D03*
D39*
X58600000Y-56450000D03*
M02*
