G04 #@! TF.GenerationSoftware,KiCad,Pcbnew,7.0.2*
G04 #@! TF.CreationDate,2023-12-14T20:07:15+03:00*
G04 #@! TF.ProjectId,ALERT_RIDER_HARDWARE,414c4552-545f-4524-9944-45525f484152,rev?*
G04 #@! TF.SameCoordinates,Original*
G04 #@! TF.FileFunction,Legend,Top*
G04 #@! TF.FilePolarity,Positive*
%FSLAX46Y46*%
G04 Gerber Fmt 4.6, Leading zero omitted, Abs format (unit mm)*
G04 Created by KiCad (PCBNEW 7.0.2) date 2023-12-14 20:07:15*
%MOMM*%
%LPD*%
G01*
G04 APERTURE LIST*
%ADD10C,0.150000*%
%ADD11C,0.250000*%
%ADD12C,0.100000*%
%ADD13C,0.120000*%
%ADD14C,0.127000*%
%ADD15C,0.200000*%
G04 APERTURE END LIST*
D10*
X64362801Y-67090000D02*
G75*
G03*
X64362801Y-67090000I-72801J0D01*
G01*
X95165440Y-51020000D02*
G75*
G03*
X95165440Y-51020000I-85440J0D01*
G01*
X66800000Y-64920000D02*
G75*
G03*
X66800000Y-64920000I-200000J0D01*
G01*
X133330000Y-72650000D02*
G75*
G03*
X133330000Y-72650000I-200000J0D01*
G01*
X109800000Y-76000000D02*
G75*
G03*
X109800000Y-76000000I-200000J0D01*
G01*
X149500000Y-59900000D02*
G75*
G03*
X149500000Y-59900000I-200000J0D01*
G01*
X72322801Y-77230000D02*
G75*
G03*
X72322801Y-77230000I-72801J0D01*
G01*
X90682801Y-64960000D02*
G75*
G03*
X90682801Y-64960000I-72801J0D01*
G01*
X64490000Y-67090000D02*
G75*
G03*
X64490000Y-67090000I-200000J0D01*
G01*
X109672801Y-76000000D02*
G75*
G03*
X109672801Y-76000000I-72801J0D01*
G01*
X114562801Y-65230000D02*
G75*
G03*
X114562801Y-65230000I-72801J0D01*
G01*
X114690000Y-65230000D02*
G75*
G03*
X114690000Y-65230000I-200000J0D01*
G01*
X66672801Y-64920000D02*
G75*
G03*
X66672801Y-64920000I-72801J0D01*
G01*
X72450000Y-77230000D02*
G75*
G03*
X72450000Y-77230000I-200000J0D01*
G01*
X149372801Y-59900000D02*
G75*
G03*
X149372801Y-59900000I-72801J0D01*
G01*
X146420000Y-65370000D02*
G75*
G03*
X146420000Y-65370000I-200000J0D01*
G01*
X146292801Y-65370000D02*
G75*
G03*
X146292801Y-65370000I-72801J0D01*
G01*
X133202801Y-72650000D02*
G75*
G03*
X133202801Y-72650000I-72801J0D01*
G01*
X90810000Y-64960000D02*
G75*
G03*
X90810000Y-64960000I-200000J0D01*
G01*
X53442857Y-71213809D02*
X53585714Y-71261428D01*
X53585714Y-71261428D02*
X53633333Y-71309047D01*
X53633333Y-71309047D02*
X53680952Y-71404285D01*
X53680952Y-71404285D02*
X53680952Y-71547142D01*
X53680952Y-71547142D02*
X53633333Y-71642380D01*
X53633333Y-71642380D02*
X53585714Y-71690000D01*
X53585714Y-71690000D02*
X53490476Y-71737619D01*
X53490476Y-71737619D02*
X53109524Y-71737619D01*
X53109524Y-71737619D02*
X53109524Y-70737619D01*
X53109524Y-70737619D02*
X53442857Y-70737619D01*
X53442857Y-70737619D02*
X53538095Y-70785238D01*
X53538095Y-70785238D02*
X53585714Y-70832857D01*
X53585714Y-70832857D02*
X53633333Y-70928095D01*
X53633333Y-70928095D02*
X53633333Y-71023333D01*
X53633333Y-71023333D02*
X53585714Y-71118571D01*
X53585714Y-71118571D02*
X53538095Y-71166190D01*
X53538095Y-71166190D02*
X53442857Y-71213809D01*
X53442857Y-71213809D02*
X53109524Y-71213809D01*
X54061905Y-71451904D02*
X54538095Y-71451904D01*
X53966667Y-71737619D02*
X54300000Y-70737619D01*
X54300000Y-70737619D02*
X54633333Y-71737619D01*
X54823810Y-70737619D02*
X55395238Y-70737619D01*
X55109524Y-71737619D02*
X55109524Y-70737619D01*
X55728572Y-71356666D02*
X56490477Y-71356666D01*
X110418095Y-74702619D02*
X110989523Y-74702619D01*
X110703809Y-75702619D02*
X110703809Y-74702619D01*
X111227619Y-74702619D02*
X111894285Y-75702619D01*
X111894285Y-74702619D02*
X111227619Y-75702619D01*
X64388095Y-47831666D02*
X65150000Y-47831666D01*
X64769047Y-48212619D02*
X64769047Y-47450714D01*
X65530952Y-47212619D02*
X66149999Y-47212619D01*
X66149999Y-47212619D02*
X65816666Y-47593571D01*
X65816666Y-47593571D02*
X65959523Y-47593571D01*
X65959523Y-47593571D02*
X66054761Y-47641190D01*
X66054761Y-47641190D02*
X66102380Y-47688809D01*
X66102380Y-47688809D02*
X66149999Y-47784047D01*
X66149999Y-47784047D02*
X66149999Y-48022142D01*
X66149999Y-48022142D02*
X66102380Y-48117380D01*
X66102380Y-48117380D02*
X66054761Y-48165000D01*
X66054761Y-48165000D02*
X65959523Y-48212619D01*
X65959523Y-48212619D02*
X65673809Y-48212619D01*
X65673809Y-48212619D02*
X65578571Y-48165000D01*
X65578571Y-48165000D02*
X65530952Y-48117380D01*
X66435714Y-47212619D02*
X66769047Y-48212619D01*
X66769047Y-48212619D02*
X67102380Y-47212619D01*
X67340476Y-47212619D02*
X67959523Y-47212619D01*
X67959523Y-47212619D02*
X67626190Y-47593571D01*
X67626190Y-47593571D02*
X67769047Y-47593571D01*
X67769047Y-47593571D02*
X67864285Y-47641190D01*
X67864285Y-47641190D02*
X67911904Y-47688809D01*
X67911904Y-47688809D02*
X67959523Y-47784047D01*
X67959523Y-47784047D02*
X67959523Y-48022142D01*
X67959523Y-48022142D02*
X67911904Y-48117380D01*
X67911904Y-48117380D02*
X67864285Y-48165000D01*
X67864285Y-48165000D02*
X67769047Y-48212619D01*
X67769047Y-48212619D02*
X67483333Y-48212619D01*
X67483333Y-48212619D02*
X67388095Y-48165000D01*
X67388095Y-48165000D02*
X67340476Y-48117380D01*
X54797619Y-62887619D02*
X55369047Y-62887619D01*
X55083333Y-63887619D02*
X55083333Y-62887619D01*
X55702381Y-63887619D02*
X55702381Y-62887619D01*
X55702381Y-63363809D02*
X56273809Y-63363809D01*
X56273809Y-63887619D02*
X56273809Y-62887619D01*
X56750000Y-63363809D02*
X57083333Y-63363809D01*
X57226190Y-63887619D02*
X56750000Y-63887619D01*
X56750000Y-63887619D02*
X56750000Y-62887619D01*
X56750000Y-62887619D02*
X57226190Y-62887619D01*
X58226190Y-63887619D02*
X57892857Y-63411428D01*
X57654762Y-63887619D02*
X57654762Y-62887619D01*
X57654762Y-62887619D02*
X58035714Y-62887619D01*
X58035714Y-62887619D02*
X58130952Y-62935238D01*
X58130952Y-62935238D02*
X58178571Y-62982857D01*
X58178571Y-62982857D02*
X58226190Y-63078095D01*
X58226190Y-63078095D02*
X58226190Y-63220952D01*
X58226190Y-63220952D02*
X58178571Y-63316190D01*
X58178571Y-63316190D02*
X58130952Y-63363809D01*
X58130952Y-63363809D02*
X58035714Y-63411428D01*
X58035714Y-63411428D02*
X57654762Y-63411428D01*
X58654762Y-63887619D02*
X58654762Y-62887619D01*
X58654762Y-62887619D02*
X58988095Y-63601904D01*
X58988095Y-63601904D02*
X59321428Y-62887619D01*
X59321428Y-62887619D02*
X59321428Y-63887619D01*
X59797619Y-63506666D02*
X60559524Y-63506666D01*
X60178571Y-63887619D02*
X60178571Y-63125714D01*
X76257142Y-91762619D02*
X76828570Y-91762619D01*
X76542856Y-92762619D02*
X76542856Y-91762619D01*
X77114285Y-92715000D02*
X77257142Y-92762619D01*
X77257142Y-92762619D02*
X77495237Y-92762619D01*
X77495237Y-92762619D02*
X77590475Y-92715000D01*
X77590475Y-92715000D02*
X77638094Y-92667380D01*
X77638094Y-92667380D02*
X77685713Y-92572142D01*
X77685713Y-92572142D02*
X77685713Y-92476904D01*
X77685713Y-92476904D02*
X77638094Y-92381666D01*
X77638094Y-92381666D02*
X77590475Y-92334047D01*
X77590475Y-92334047D02*
X77495237Y-92286428D01*
X77495237Y-92286428D02*
X77304761Y-92238809D01*
X77304761Y-92238809D02*
X77209523Y-92191190D01*
X77209523Y-92191190D02*
X77161904Y-92143571D01*
X77161904Y-92143571D02*
X77114285Y-92048333D01*
X77114285Y-92048333D02*
X77114285Y-91953095D01*
X77114285Y-91953095D02*
X77161904Y-91857857D01*
X77161904Y-91857857D02*
X77209523Y-91810238D01*
X77209523Y-91810238D02*
X77304761Y-91762619D01*
X77304761Y-91762619D02*
X77542856Y-91762619D01*
X77542856Y-91762619D02*
X77685713Y-91810238D01*
X78590475Y-91762619D02*
X78114285Y-91762619D01*
X78114285Y-91762619D02*
X78066666Y-92238809D01*
X78066666Y-92238809D02*
X78114285Y-92191190D01*
X78114285Y-92191190D02*
X78209523Y-92143571D01*
X78209523Y-92143571D02*
X78447618Y-92143571D01*
X78447618Y-92143571D02*
X78542856Y-92191190D01*
X78542856Y-92191190D02*
X78590475Y-92238809D01*
X78590475Y-92238809D02*
X78638094Y-92334047D01*
X78638094Y-92334047D02*
X78638094Y-92572142D01*
X78638094Y-92572142D02*
X78590475Y-92667380D01*
X78590475Y-92667380D02*
X78542856Y-92715000D01*
X78542856Y-92715000D02*
X78447618Y-92762619D01*
X78447618Y-92762619D02*
X78209523Y-92762619D01*
X78209523Y-92762619D02*
X78114285Y-92715000D01*
X78114285Y-92715000D02*
X78066666Y-92667380D01*
X79019047Y-91857857D02*
X79066666Y-91810238D01*
X79066666Y-91810238D02*
X79161904Y-91762619D01*
X79161904Y-91762619D02*
X79399999Y-91762619D01*
X79399999Y-91762619D02*
X79495237Y-91810238D01*
X79495237Y-91810238D02*
X79542856Y-91857857D01*
X79542856Y-91857857D02*
X79590475Y-91953095D01*
X79590475Y-91953095D02*
X79590475Y-92048333D01*
X79590475Y-92048333D02*
X79542856Y-92191190D01*
X79542856Y-92191190D02*
X78971428Y-92762619D01*
X78971428Y-92762619D02*
X79590475Y-92762619D01*
X80209523Y-91762619D02*
X80304761Y-91762619D01*
X80304761Y-91762619D02*
X80399999Y-91810238D01*
X80399999Y-91810238D02*
X80447618Y-91857857D01*
X80447618Y-91857857D02*
X80495237Y-91953095D01*
X80495237Y-91953095D02*
X80542856Y-92143571D01*
X80542856Y-92143571D02*
X80542856Y-92381666D01*
X80542856Y-92381666D02*
X80495237Y-92572142D01*
X80495237Y-92572142D02*
X80447618Y-92667380D01*
X80447618Y-92667380D02*
X80399999Y-92715000D01*
X80399999Y-92715000D02*
X80304761Y-92762619D01*
X80304761Y-92762619D02*
X80209523Y-92762619D01*
X80209523Y-92762619D02*
X80114285Y-92715000D01*
X80114285Y-92715000D02*
X80066666Y-92667380D01*
X80066666Y-92667380D02*
X80019047Y-92572142D01*
X80019047Y-92572142D02*
X79971428Y-92381666D01*
X79971428Y-92381666D02*
X79971428Y-92143571D01*
X79971428Y-92143571D02*
X80019047Y-91953095D01*
X80019047Y-91953095D02*
X80066666Y-91857857D01*
X80066666Y-91857857D02*
X80114285Y-91810238D01*
X80114285Y-91810238D02*
X80209523Y-91762619D01*
X81114285Y-92191190D02*
X81019047Y-92143571D01*
X81019047Y-92143571D02*
X80971428Y-92095952D01*
X80971428Y-92095952D02*
X80923809Y-92000714D01*
X80923809Y-92000714D02*
X80923809Y-91953095D01*
X80923809Y-91953095D02*
X80971428Y-91857857D01*
X80971428Y-91857857D02*
X81019047Y-91810238D01*
X81019047Y-91810238D02*
X81114285Y-91762619D01*
X81114285Y-91762619D02*
X81304761Y-91762619D01*
X81304761Y-91762619D02*
X81399999Y-91810238D01*
X81399999Y-91810238D02*
X81447618Y-91857857D01*
X81447618Y-91857857D02*
X81495237Y-91953095D01*
X81495237Y-91953095D02*
X81495237Y-92000714D01*
X81495237Y-92000714D02*
X81447618Y-92095952D01*
X81447618Y-92095952D02*
X81399999Y-92143571D01*
X81399999Y-92143571D02*
X81304761Y-92191190D01*
X81304761Y-92191190D02*
X81114285Y-92191190D01*
X81114285Y-92191190D02*
X81019047Y-92238809D01*
X81019047Y-92238809D02*
X80971428Y-92286428D01*
X80971428Y-92286428D02*
X80923809Y-92381666D01*
X80923809Y-92381666D02*
X80923809Y-92572142D01*
X80923809Y-92572142D02*
X80971428Y-92667380D01*
X80971428Y-92667380D02*
X81019047Y-92715000D01*
X81019047Y-92715000D02*
X81114285Y-92762619D01*
X81114285Y-92762619D02*
X81304761Y-92762619D01*
X81304761Y-92762619D02*
X81399999Y-92715000D01*
X81399999Y-92715000D02*
X81447618Y-92667380D01*
X81447618Y-92667380D02*
X81495237Y-92572142D01*
X81495237Y-92572142D02*
X81495237Y-92381666D01*
X81495237Y-92381666D02*
X81447618Y-92286428D01*
X81447618Y-92286428D02*
X81399999Y-92238809D01*
X81399999Y-92238809D02*
X81304761Y-92191190D01*
X81876190Y-92476904D02*
X82352380Y-92476904D01*
X81780952Y-92762619D02*
X82114285Y-91762619D01*
X82114285Y-91762619D02*
X82447618Y-92762619D01*
X84066666Y-92762619D02*
X83495238Y-92762619D01*
X83780952Y-92762619D02*
X83780952Y-91762619D01*
X83780952Y-91762619D02*
X83685714Y-91905476D01*
X83685714Y-91905476D02*
X83590476Y-92000714D01*
X83590476Y-92000714D02*
X83495238Y-92048333D01*
X84923809Y-91762619D02*
X84733333Y-91762619D01*
X84733333Y-91762619D02*
X84638095Y-91810238D01*
X84638095Y-91810238D02*
X84590476Y-91857857D01*
X84590476Y-91857857D02*
X84495238Y-92000714D01*
X84495238Y-92000714D02*
X84447619Y-92191190D01*
X84447619Y-92191190D02*
X84447619Y-92572142D01*
X84447619Y-92572142D02*
X84495238Y-92667380D01*
X84495238Y-92667380D02*
X84542857Y-92715000D01*
X84542857Y-92715000D02*
X84638095Y-92762619D01*
X84638095Y-92762619D02*
X84828571Y-92762619D01*
X84828571Y-92762619D02*
X84923809Y-92715000D01*
X84923809Y-92715000D02*
X84971428Y-92667380D01*
X84971428Y-92667380D02*
X85019047Y-92572142D01*
X85019047Y-92572142D02*
X85019047Y-92334047D01*
X85019047Y-92334047D02*
X84971428Y-92238809D01*
X84971428Y-92238809D02*
X84923809Y-92191190D01*
X84923809Y-92191190D02*
X84828571Y-92143571D01*
X84828571Y-92143571D02*
X84638095Y-92143571D01*
X84638095Y-92143571D02*
X84542857Y-92191190D01*
X84542857Y-92191190D02*
X84495238Y-92238809D01*
X84495238Y-92238809D02*
X84447619Y-92334047D01*
X85638095Y-91762619D02*
X85733333Y-91762619D01*
X85733333Y-91762619D02*
X85828571Y-91810238D01*
X85828571Y-91810238D02*
X85876190Y-91857857D01*
X85876190Y-91857857D02*
X85923809Y-91953095D01*
X85923809Y-91953095D02*
X85971428Y-92143571D01*
X85971428Y-92143571D02*
X85971428Y-92381666D01*
X85971428Y-92381666D02*
X85923809Y-92572142D01*
X85923809Y-92572142D02*
X85876190Y-92667380D01*
X85876190Y-92667380D02*
X85828571Y-92715000D01*
X85828571Y-92715000D02*
X85733333Y-92762619D01*
X85733333Y-92762619D02*
X85638095Y-92762619D01*
X85638095Y-92762619D02*
X85542857Y-92715000D01*
X85542857Y-92715000D02*
X85495238Y-92667380D01*
X85495238Y-92667380D02*
X85447619Y-92572142D01*
X85447619Y-92572142D02*
X85400000Y-92381666D01*
X85400000Y-92381666D02*
X85400000Y-92143571D01*
X85400000Y-92143571D02*
X85447619Y-91953095D01*
X85447619Y-91953095D02*
X85495238Y-91857857D01*
X85495238Y-91857857D02*
X85542857Y-91810238D01*
X85542857Y-91810238D02*
X85638095Y-91762619D01*
X86828571Y-92095952D02*
X86828571Y-92905476D01*
X86828571Y-92905476D02*
X86780952Y-93000714D01*
X86780952Y-93000714D02*
X86733333Y-93048333D01*
X86733333Y-93048333D02*
X86638095Y-93095952D01*
X86638095Y-93095952D02*
X86495238Y-93095952D01*
X86495238Y-93095952D02*
X86400000Y-93048333D01*
X86828571Y-92715000D02*
X86733333Y-92762619D01*
X86733333Y-92762619D02*
X86542857Y-92762619D01*
X86542857Y-92762619D02*
X86447619Y-92715000D01*
X86447619Y-92715000D02*
X86400000Y-92667380D01*
X86400000Y-92667380D02*
X86352381Y-92572142D01*
X86352381Y-92572142D02*
X86352381Y-92286428D01*
X86352381Y-92286428D02*
X86400000Y-92191190D01*
X86400000Y-92191190D02*
X86447619Y-92143571D01*
X86447619Y-92143571D02*
X86542857Y-92095952D01*
X86542857Y-92095952D02*
X86733333Y-92095952D01*
X86733333Y-92095952D02*
X86828571Y-92143571D01*
X87161905Y-92095952D02*
X87542857Y-92095952D01*
X87304762Y-92762619D02*
X87304762Y-91905476D01*
X87304762Y-91905476D02*
X87352381Y-91810238D01*
X87352381Y-91810238D02*
X87447619Y-91762619D01*
X87447619Y-91762619D02*
X87542857Y-91762619D01*
X52442857Y-74338809D02*
X52585714Y-74386428D01*
X52585714Y-74386428D02*
X52633333Y-74434047D01*
X52633333Y-74434047D02*
X52680952Y-74529285D01*
X52680952Y-74529285D02*
X52680952Y-74672142D01*
X52680952Y-74672142D02*
X52633333Y-74767380D01*
X52633333Y-74767380D02*
X52585714Y-74815000D01*
X52585714Y-74815000D02*
X52490476Y-74862619D01*
X52490476Y-74862619D02*
X52109524Y-74862619D01*
X52109524Y-74862619D02*
X52109524Y-73862619D01*
X52109524Y-73862619D02*
X52442857Y-73862619D01*
X52442857Y-73862619D02*
X52538095Y-73910238D01*
X52538095Y-73910238D02*
X52585714Y-73957857D01*
X52585714Y-73957857D02*
X52633333Y-74053095D01*
X52633333Y-74053095D02*
X52633333Y-74148333D01*
X52633333Y-74148333D02*
X52585714Y-74243571D01*
X52585714Y-74243571D02*
X52538095Y-74291190D01*
X52538095Y-74291190D02*
X52442857Y-74338809D01*
X52442857Y-74338809D02*
X52109524Y-74338809D01*
X53061905Y-74576904D02*
X53538095Y-74576904D01*
X52966667Y-74862619D02*
X53300000Y-73862619D01*
X53300000Y-73862619D02*
X53633333Y-74862619D01*
X53823810Y-73862619D02*
X54395238Y-73862619D01*
X54109524Y-74862619D02*
X54109524Y-73862619D01*
X54728572Y-74481666D02*
X55490477Y-74481666D01*
X55109524Y-74862619D02*
X55109524Y-74100714D01*
D11*
X72238095Y-72877619D02*
X72238095Y-71877619D01*
X72238095Y-71877619D02*
X72619047Y-71877619D01*
X72619047Y-71877619D02*
X72714285Y-71925238D01*
X72714285Y-71925238D02*
X72761904Y-71972857D01*
X72761904Y-71972857D02*
X72809523Y-72068095D01*
X72809523Y-72068095D02*
X72809523Y-72210952D01*
X72809523Y-72210952D02*
X72761904Y-72306190D01*
X72761904Y-72306190D02*
X72714285Y-72353809D01*
X72714285Y-72353809D02*
X72619047Y-72401428D01*
X72619047Y-72401428D02*
X72238095Y-72401428D01*
X73761904Y-71925238D02*
X73666666Y-71877619D01*
X73666666Y-71877619D02*
X73523809Y-71877619D01*
X73523809Y-71877619D02*
X73380952Y-71925238D01*
X73380952Y-71925238D02*
X73285714Y-72020476D01*
X73285714Y-72020476D02*
X73238095Y-72115714D01*
X73238095Y-72115714D02*
X73190476Y-72306190D01*
X73190476Y-72306190D02*
X73190476Y-72449047D01*
X73190476Y-72449047D02*
X73238095Y-72639523D01*
X73238095Y-72639523D02*
X73285714Y-72734761D01*
X73285714Y-72734761D02*
X73380952Y-72830000D01*
X73380952Y-72830000D02*
X73523809Y-72877619D01*
X73523809Y-72877619D02*
X73619047Y-72877619D01*
X73619047Y-72877619D02*
X73761904Y-72830000D01*
X73761904Y-72830000D02*
X73809523Y-72782380D01*
X73809523Y-72782380D02*
X73809523Y-72449047D01*
X73809523Y-72449047D02*
X73619047Y-72449047D01*
X72100000Y-71430000D02*
X73900000Y-71430000D01*
D10*
X60838095Y-50010238D02*
X60742857Y-49962619D01*
X60742857Y-49962619D02*
X60600000Y-49962619D01*
X60600000Y-49962619D02*
X60457143Y-50010238D01*
X60457143Y-50010238D02*
X60361905Y-50105476D01*
X60361905Y-50105476D02*
X60314286Y-50200714D01*
X60314286Y-50200714D02*
X60266667Y-50391190D01*
X60266667Y-50391190D02*
X60266667Y-50534047D01*
X60266667Y-50534047D02*
X60314286Y-50724523D01*
X60314286Y-50724523D02*
X60361905Y-50819761D01*
X60361905Y-50819761D02*
X60457143Y-50915000D01*
X60457143Y-50915000D02*
X60600000Y-50962619D01*
X60600000Y-50962619D02*
X60695238Y-50962619D01*
X60695238Y-50962619D02*
X60838095Y-50915000D01*
X60838095Y-50915000D02*
X60885714Y-50867380D01*
X60885714Y-50867380D02*
X60885714Y-50534047D01*
X60885714Y-50534047D02*
X60695238Y-50534047D01*
X61314286Y-50962619D02*
X61314286Y-49962619D01*
X61314286Y-49962619D02*
X61885714Y-50962619D01*
X61885714Y-50962619D02*
X61885714Y-49962619D01*
X62361905Y-50962619D02*
X62361905Y-49962619D01*
X62361905Y-49962619D02*
X62600000Y-49962619D01*
X62600000Y-49962619D02*
X62742857Y-50010238D01*
X62742857Y-50010238D02*
X62838095Y-50105476D01*
X62838095Y-50105476D02*
X62885714Y-50200714D01*
X62885714Y-50200714D02*
X62933333Y-50391190D01*
X62933333Y-50391190D02*
X62933333Y-50534047D01*
X62933333Y-50534047D02*
X62885714Y-50724523D01*
X62885714Y-50724523D02*
X62838095Y-50819761D01*
X62838095Y-50819761D02*
X62742857Y-50915000D01*
X62742857Y-50915000D02*
X62600000Y-50962619D01*
X62600000Y-50962619D02*
X62361905Y-50962619D01*
X110963333Y-69272619D02*
X110630000Y-68796428D01*
X110391905Y-69272619D02*
X110391905Y-68272619D01*
X110391905Y-68272619D02*
X110772857Y-68272619D01*
X110772857Y-68272619D02*
X110868095Y-68320238D01*
X110868095Y-68320238D02*
X110915714Y-68367857D01*
X110915714Y-68367857D02*
X110963333Y-68463095D01*
X110963333Y-68463095D02*
X110963333Y-68605952D01*
X110963333Y-68605952D02*
X110915714Y-68701190D01*
X110915714Y-68701190D02*
X110868095Y-68748809D01*
X110868095Y-68748809D02*
X110772857Y-68796428D01*
X110772857Y-68796428D02*
X110391905Y-68796428D01*
X111296667Y-68272619D02*
X111963333Y-69272619D01*
X111963333Y-68272619D02*
X111296667Y-69272619D01*
X54622619Y-60162619D02*
X55194047Y-60162619D01*
X54908333Y-61162619D02*
X54908333Y-60162619D01*
X55527381Y-61162619D02*
X55527381Y-60162619D01*
X55527381Y-60638809D02*
X56098809Y-60638809D01*
X56098809Y-61162619D02*
X56098809Y-60162619D01*
X56575000Y-60638809D02*
X56908333Y-60638809D01*
X57051190Y-61162619D02*
X56575000Y-61162619D01*
X56575000Y-61162619D02*
X56575000Y-60162619D01*
X56575000Y-60162619D02*
X57051190Y-60162619D01*
X58051190Y-61162619D02*
X57717857Y-60686428D01*
X57479762Y-61162619D02*
X57479762Y-60162619D01*
X57479762Y-60162619D02*
X57860714Y-60162619D01*
X57860714Y-60162619D02*
X57955952Y-60210238D01*
X57955952Y-60210238D02*
X58003571Y-60257857D01*
X58003571Y-60257857D02*
X58051190Y-60353095D01*
X58051190Y-60353095D02*
X58051190Y-60495952D01*
X58051190Y-60495952D02*
X58003571Y-60591190D01*
X58003571Y-60591190D02*
X57955952Y-60638809D01*
X57955952Y-60638809D02*
X57860714Y-60686428D01*
X57860714Y-60686428D02*
X57479762Y-60686428D01*
X58479762Y-61162619D02*
X58479762Y-60162619D01*
X58479762Y-60162619D02*
X58813095Y-60876904D01*
X58813095Y-60876904D02*
X59146428Y-60162619D01*
X59146428Y-60162619D02*
X59146428Y-61162619D01*
X59622619Y-60781666D02*
X60384524Y-60781666D01*
X60003571Y-61162619D02*
X60003571Y-60400714D01*
X153062619Y-59538094D02*
X152062619Y-59538094D01*
X152062619Y-59538094D02*
X152062619Y-59299999D01*
X152062619Y-59299999D02*
X152110238Y-59157142D01*
X152110238Y-59157142D02*
X152205476Y-59061904D01*
X152205476Y-59061904D02*
X152300714Y-59014285D01*
X152300714Y-59014285D02*
X152491190Y-58966666D01*
X152491190Y-58966666D02*
X152634047Y-58966666D01*
X152634047Y-58966666D02*
X152824523Y-59014285D01*
X152824523Y-59014285D02*
X152919761Y-59061904D01*
X152919761Y-59061904D02*
X153015000Y-59157142D01*
X153015000Y-59157142D02*
X153062619Y-59299999D01*
X153062619Y-59299999D02*
X153062619Y-59538094D01*
X152157857Y-58585713D02*
X152110238Y-58538094D01*
X152110238Y-58538094D02*
X152062619Y-58442856D01*
X152062619Y-58442856D02*
X152062619Y-58204761D01*
X152062619Y-58204761D02*
X152110238Y-58109523D01*
X152110238Y-58109523D02*
X152157857Y-58061904D01*
X152157857Y-58061904D02*
X152253095Y-58014285D01*
X152253095Y-58014285D02*
X152348333Y-58014285D01*
X152348333Y-58014285D02*
X152491190Y-58061904D01*
X152491190Y-58061904D02*
X153062619Y-58633332D01*
X153062619Y-58633332D02*
X153062619Y-58014285D01*
X155149999Y-55193227D02*
X154916666Y-54788465D01*
X154749999Y-55193227D02*
X154749999Y-54343227D01*
X154749999Y-54343227D02*
X155016666Y-54343227D01*
X155016666Y-54343227D02*
X155083333Y-54383703D01*
X155083333Y-54383703D02*
X155116666Y-54424179D01*
X155116666Y-54424179D02*
X155149999Y-54505131D01*
X155149999Y-54505131D02*
X155149999Y-54626560D01*
X155149999Y-54626560D02*
X155116666Y-54707512D01*
X155116666Y-54707512D02*
X155083333Y-54747989D01*
X155083333Y-54747989D02*
X155016666Y-54788465D01*
X155016666Y-54788465D02*
X154749999Y-54788465D01*
X155749999Y-54626560D02*
X155749999Y-55193227D01*
X155583333Y-54302751D02*
X155416666Y-54909893D01*
X155416666Y-54909893D02*
X155849999Y-54909893D01*
X156050000Y-54343227D02*
X156516666Y-54343227D01*
X156516666Y-54343227D02*
X156216666Y-55193227D01*
X117393227Y-54650000D02*
X116988465Y-54883333D01*
X117393227Y-55050000D02*
X116543227Y-55050000D01*
X116543227Y-55050000D02*
X116543227Y-54783333D01*
X116543227Y-54783333D02*
X116583703Y-54716667D01*
X116583703Y-54716667D02*
X116624179Y-54683333D01*
X116624179Y-54683333D02*
X116705131Y-54650000D01*
X116705131Y-54650000D02*
X116826560Y-54650000D01*
X116826560Y-54650000D02*
X116907512Y-54683333D01*
X116907512Y-54683333D02*
X116947989Y-54716667D01*
X116947989Y-54716667D02*
X116988465Y-54783333D01*
X116988465Y-54783333D02*
X116988465Y-55050000D01*
X116826560Y-54050000D02*
X117393227Y-54050000D01*
X116502751Y-54216667D02*
X117109893Y-54383333D01*
X117109893Y-54383333D02*
X117109893Y-53950000D01*
X116543227Y-53750000D02*
X116543227Y-53316666D01*
X116543227Y-53316666D02*
X116867036Y-53550000D01*
X116867036Y-53550000D02*
X116867036Y-53450000D01*
X116867036Y-53450000D02*
X116907512Y-53383333D01*
X116907512Y-53383333D02*
X116947989Y-53350000D01*
X116947989Y-53350000D02*
X117028941Y-53316666D01*
X117028941Y-53316666D02*
X117231322Y-53316666D01*
X117231322Y-53316666D02*
X117312274Y-53350000D01*
X117312274Y-53350000D02*
X117352751Y-53383333D01*
X117352751Y-53383333D02*
X117393227Y-53450000D01*
X117393227Y-53450000D02*
X117393227Y-53650000D01*
X117393227Y-53650000D02*
X117352751Y-53716666D01*
X117352751Y-53716666D02*
X117312274Y-53750000D01*
X112889999Y-72273227D02*
X112656666Y-71868465D01*
X112489999Y-72273227D02*
X112489999Y-71423227D01*
X112489999Y-71423227D02*
X112756666Y-71423227D01*
X112756666Y-71423227D02*
X112823333Y-71463703D01*
X112823333Y-71463703D02*
X112856666Y-71504179D01*
X112856666Y-71504179D02*
X112889999Y-71585131D01*
X112889999Y-71585131D02*
X112889999Y-71706560D01*
X112889999Y-71706560D02*
X112856666Y-71787512D01*
X112856666Y-71787512D02*
X112823333Y-71827989D01*
X112823333Y-71827989D02*
X112756666Y-71868465D01*
X112756666Y-71868465D02*
X112489999Y-71868465D01*
X113123333Y-71423227D02*
X113556666Y-71423227D01*
X113556666Y-71423227D02*
X113323333Y-71747036D01*
X113323333Y-71747036D02*
X113423333Y-71747036D01*
X113423333Y-71747036D02*
X113489999Y-71787512D01*
X113489999Y-71787512D02*
X113523333Y-71827989D01*
X113523333Y-71827989D02*
X113556666Y-71908941D01*
X113556666Y-71908941D02*
X113556666Y-72111322D01*
X113556666Y-72111322D02*
X113523333Y-72192274D01*
X113523333Y-72192274D02*
X113489999Y-72232751D01*
X113489999Y-72232751D02*
X113423333Y-72273227D01*
X113423333Y-72273227D02*
X113223333Y-72273227D01*
X113223333Y-72273227D02*
X113156666Y-72232751D01*
X113156666Y-72232751D02*
X113123333Y-72192274D01*
X113990000Y-71423227D02*
X114056666Y-71423227D01*
X114056666Y-71423227D02*
X114123333Y-71463703D01*
X114123333Y-71463703D02*
X114156666Y-71504179D01*
X114156666Y-71504179D02*
X114190000Y-71585131D01*
X114190000Y-71585131D02*
X114223333Y-71747036D01*
X114223333Y-71747036D02*
X114223333Y-71949417D01*
X114223333Y-71949417D02*
X114190000Y-72111322D01*
X114190000Y-72111322D02*
X114156666Y-72192274D01*
X114156666Y-72192274D02*
X114123333Y-72232751D01*
X114123333Y-72232751D02*
X114056666Y-72273227D01*
X114056666Y-72273227D02*
X113990000Y-72273227D01*
X113990000Y-72273227D02*
X113923333Y-72232751D01*
X113923333Y-72232751D02*
X113890000Y-72192274D01*
X113890000Y-72192274D02*
X113856666Y-72111322D01*
X113856666Y-72111322D02*
X113823333Y-71949417D01*
X113823333Y-71949417D02*
X113823333Y-71747036D01*
X113823333Y-71747036D02*
X113856666Y-71585131D01*
X113856666Y-71585131D02*
X113890000Y-71504179D01*
X113890000Y-71504179D02*
X113923333Y-71463703D01*
X113923333Y-71463703D02*
X113990000Y-71423227D01*
X76299999Y-78912274D02*
X76266666Y-78952751D01*
X76266666Y-78952751D02*
X76166666Y-78993227D01*
X76166666Y-78993227D02*
X76099999Y-78993227D01*
X76099999Y-78993227D02*
X75999999Y-78952751D01*
X75999999Y-78952751D02*
X75933333Y-78871798D01*
X75933333Y-78871798D02*
X75899999Y-78790846D01*
X75899999Y-78790846D02*
X75866666Y-78628941D01*
X75866666Y-78628941D02*
X75866666Y-78507512D01*
X75866666Y-78507512D02*
X75899999Y-78345608D01*
X75899999Y-78345608D02*
X75933333Y-78264655D01*
X75933333Y-78264655D02*
X75999999Y-78183703D01*
X75999999Y-78183703D02*
X76099999Y-78143227D01*
X76099999Y-78143227D02*
X76166666Y-78143227D01*
X76166666Y-78143227D02*
X76266666Y-78183703D01*
X76266666Y-78183703D02*
X76299999Y-78224179D01*
X76566666Y-78224179D02*
X76599999Y-78183703D01*
X76599999Y-78183703D02*
X76666666Y-78143227D01*
X76666666Y-78143227D02*
X76833333Y-78143227D01*
X76833333Y-78143227D02*
X76899999Y-78183703D01*
X76899999Y-78183703D02*
X76933333Y-78224179D01*
X76933333Y-78224179D02*
X76966666Y-78305131D01*
X76966666Y-78305131D02*
X76966666Y-78386084D01*
X76966666Y-78386084D02*
X76933333Y-78507512D01*
X76933333Y-78507512D02*
X76533333Y-78993227D01*
X76533333Y-78993227D02*
X76966666Y-78993227D01*
X77566666Y-78143227D02*
X77433333Y-78143227D01*
X77433333Y-78143227D02*
X77366666Y-78183703D01*
X77366666Y-78183703D02*
X77333333Y-78224179D01*
X77333333Y-78224179D02*
X77266666Y-78345608D01*
X77266666Y-78345608D02*
X77233333Y-78507512D01*
X77233333Y-78507512D02*
X77233333Y-78831322D01*
X77233333Y-78831322D02*
X77266666Y-78912274D01*
X77266666Y-78912274D02*
X77300000Y-78952751D01*
X77300000Y-78952751D02*
X77366666Y-78993227D01*
X77366666Y-78993227D02*
X77500000Y-78993227D01*
X77500000Y-78993227D02*
X77566666Y-78952751D01*
X77566666Y-78952751D02*
X77600000Y-78912274D01*
X77600000Y-78912274D02*
X77633333Y-78831322D01*
X77633333Y-78831322D02*
X77633333Y-78628941D01*
X77633333Y-78628941D02*
X77600000Y-78547989D01*
X77600000Y-78547989D02*
X77566666Y-78507512D01*
X77566666Y-78507512D02*
X77500000Y-78467036D01*
X77500000Y-78467036D02*
X77366666Y-78467036D01*
X77366666Y-78467036D02*
X77300000Y-78507512D01*
X77300000Y-78507512D02*
X77266666Y-78547989D01*
X77266666Y-78547989D02*
X77233333Y-78628941D01*
X138812274Y-48575000D02*
X138852751Y-48608333D01*
X138852751Y-48608333D02*
X138893227Y-48708333D01*
X138893227Y-48708333D02*
X138893227Y-48775000D01*
X138893227Y-48775000D02*
X138852751Y-48875000D01*
X138852751Y-48875000D02*
X138771798Y-48941667D01*
X138771798Y-48941667D02*
X138690846Y-48975000D01*
X138690846Y-48975000D02*
X138528941Y-49008333D01*
X138528941Y-49008333D02*
X138407512Y-49008333D01*
X138407512Y-49008333D02*
X138245608Y-48975000D01*
X138245608Y-48975000D02*
X138164655Y-48941667D01*
X138164655Y-48941667D02*
X138083703Y-48875000D01*
X138083703Y-48875000D02*
X138043227Y-48775000D01*
X138043227Y-48775000D02*
X138043227Y-48708333D01*
X138043227Y-48708333D02*
X138083703Y-48608333D01*
X138083703Y-48608333D02*
X138124179Y-48575000D01*
X138893227Y-47908333D02*
X138893227Y-48308333D01*
X138893227Y-48108333D02*
X138043227Y-48108333D01*
X138043227Y-48108333D02*
X138164655Y-48175000D01*
X138164655Y-48175000D02*
X138245608Y-48241667D01*
X138245608Y-48241667D02*
X138286084Y-48308333D01*
X138043227Y-47275000D02*
X138043227Y-47608333D01*
X138043227Y-47608333D02*
X138447989Y-47641666D01*
X138447989Y-47641666D02*
X138407512Y-47608333D01*
X138407512Y-47608333D02*
X138367036Y-47541666D01*
X138367036Y-47541666D02*
X138367036Y-47375000D01*
X138367036Y-47375000D02*
X138407512Y-47308333D01*
X138407512Y-47308333D02*
X138447989Y-47275000D01*
X138447989Y-47275000D02*
X138528941Y-47241666D01*
X138528941Y-47241666D02*
X138731322Y-47241666D01*
X138731322Y-47241666D02*
X138812274Y-47275000D01*
X138812274Y-47275000D02*
X138852751Y-47308333D01*
X138852751Y-47308333D02*
X138893227Y-47375000D01*
X138893227Y-47375000D02*
X138893227Y-47541666D01*
X138893227Y-47541666D02*
X138852751Y-47608333D01*
X138852751Y-47608333D02*
X138812274Y-47641666D01*
X106833227Y-87896666D02*
X106428465Y-88129999D01*
X106833227Y-88296666D02*
X105983227Y-88296666D01*
X105983227Y-88296666D02*
X105983227Y-88029999D01*
X105983227Y-88029999D02*
X106023703Y-87963333D01*
X106023703Y-87963333D02*
X106064179Y-87929999D01*
X106064179Y-87929999D02*
X106145131Y-87896666D01*
X106145131Y-87896666D02*
X106266560Y-87896666D01*
X106266560Y-87896666D02*
X106347512Y-87929999D01*
X106347512Y-87929999D02*
X106387989Y-87963333D01*
X106387989Y-87963333D02*
X106428465Y-88029999D01*
X106428465Y-88029999D02*
X106428465Y-88296666D01*
X106833227Y-87229999D02*
X106833227Y-87629999D01*
X106833227Y-87429999D02*
X105983227Y-87429999D01*
X105983227Y-87429999D02*
X106104655Y-87496666D01*
X106104655Y-87496666D02*
X106185608Y-87563333D01*
X106185608Y-87563333D02*
X106226084Y-87629999D01*
X155303227Y-57080000D02*
X154898465Y-57313333D01*
X155303227Y-57480000D02*
X154453227Y-57480000D01*
X154453227Y-57480000D02*
X154453227Y-57213333D01*
X154453227Y-57213333D02*
X154493703Y-57146667D01*
X154493703Y-57146667D02*
X154534179Y-57113333D01*
X154534179Y-57113333D02*
X154615131Y-57080000D01*
X154615131Y-57080000D02*
X154736560Y-57080000D01*
X154736560Y-57080000D02*
X154817512Y-57113333D01*
X154817512Y-57113333D02*
X154857989Y-57146667D01*
X154857989Y-57146667D02*
X154898465Y-57213333D01*
X154898465Y-57213333D02*
X154898465Y-57480000D01*
X155303227Y-56413333D02*
X155303227Y-56813333D01*
X155303227Y-56613333D02*
X154453227Y-56613333D01*
X154453227Y-56613333D02*
X154574655Y-56680000D01*
X154574655Y-56680000D02*
X154655608Y-56746667D01*
X154655608Y-56746667D02*
X154696084Y-56813333D01*
X154453227Y-55780000D02*
X154453227Y-56113333D01*
X154453227Y-56113333D02*
X154857989Y-56146666D01*
X154857989Y-56146666D02*
X154817512Y-56113333D01*
X154817512Y-56113333D02*
X154777036Y-56046666D01*
X154777036Y-56046666D02*
X154777036Y-55880000D01*
X154777036Y-55880000D02*
X154817512Y-55813333D01*
X154817512Y-55813333D02*
X154857989Y-55780000D01*
X154857989Y-55780000D02*
X154938941Y-55746666D01*
X154938941Y-55746666D02*
X155141322Y-55746666D01*
X155141322Y-55746666D02*
X155222274Y-55780000D01*
X155222274Y-55780000D02*
X155262751Y-55813333D01*
X155262751Y-55813333D02*
X155303227Y-55880000D01*
X155303227Y-55880000D02*
X155303227Y-56046666D01*
X155303227Y-56046666D02*
X155262751Y-56113333D01*
X155262751Y-56113333D02*
X155222274Y-56146666D01*
X73166666Y-63952751D02*
X73266666Y-63993227D01*
X73266666Y-63993227D02*
X73433333Y-63993227D01*
X73433333Y-63993227D02*
X73499999Y-63952751D01*
X73499999Y-63952751D02*
X73533333Y-63912274D01*
X73533333Y-63912274D02*
X73566666Y-63831322D01*
X73566666Y-63831322D02*
X73566666Y-63750370D01*
X73566666Y-63750370D02*
X73533333Y-63669417D01*
X73533333Y-63669417D02*
X73499999Y-63628941D01*
X73499999Y-63628941D02*
X73433333Y-63588465D01*
X73433333Y-63588465D02*
X73299999Y-63547989D01*
X73299999Y-63547989D02*
X73233333Y-63507512D01*
X73233333Y-63507512D02*
X73199999Y-63467036D01*
X73199999Y-63467036D02*
X73166666Y-63386084D01*
X73166666Y-63386084D02*
X73166666Y-63305131D01*
X73166666Y-63305131D02*
X73199999Y-63224179D01*
X73199999Y-63224179D02*
X73233333Y-63183703D01*
X73233333Y-63183703D02*
X73299999Y-63143227D01*
X73299999Y-63143227D02*
X73466666Y-63143227D01*
X73466666Y-63143227D02*
X73566666Y-63183703D01*
X73800000Y-63143227D02*
X73966666Y-63993227D01*
X73966666Y-63993227D02*
X74100000Y-63386084D01*
X74100000Y-63386084D02*
X74233333Y-63993227D01*
X74233333Y-63993227D02*
X74400000Y-63143227D01*
X74966666Y-63426560D02*
X74966666Y-63993227D01*
X74800000Y-63102751D02*
X74633333Y-63709893D01*
X74633333Y-63709893D02*
X75066666Y-63709893D01*
X88169999Y-61563227D02*
X87936666Y-61158465D01*
X87769999Y-61563227D02*
X87769999Y-60713227D01*
X87769999Y-60713227D02*
X88036666Y-60713227D01*
X88036666Y-60713227D02*
X88103333Y-60753703D01*
X88103333Y-60753703D02*
X88136666Y-60794179D01*
X88136666Y-60794179D02*
X88169999Y-60875131D01*
X88169999Y-60875131D02*
X88169999Y-60996560D01*
X88169999Y-60996560D02*
X88136666Y-61077512D01*
X88136666Y-61077512D02*
X88103333Y-61117989D01*
X88103333Y-61117989D02*
X88036666Y-61158465D01*
X88036666Y-61158465D02*
X87769999Y-61158465D01*
X88436666Y-60794179D02*
X88469999Y-60753703D01*
X88469999Y-60753703D02*
X88536666Y-60713227D01*
X88536666Y-60713227D02*
X88703333Y-60713227D01*
X88703333Y-60713227D02*
X88769999Y-60753703D01*
X88769999Y-60753703D02*
X88803333Y-60794179D01*
X88803333Y-60794179D02*
X88836666Y-60875131D01*
X88836666Y-60875131D02*
X88836666Y-60956084D01*
X88836666Y-60956084D02*
X88803333Y-61077512D01*
X88803333Y-61077512D02*
X88403333Y-61563227D01*
X88403333Y-61563227D02*
X88836666Y-61563227D01*
X89436666Y-60713227D02*
X89303333Y-60713227D01*
X89303333Y-60713227D02*
X89236666Y-60753703D01*
X89236666Y-60753703D02*
X89203333Y-60794179D01*
X89203333Y-60794179D02*
X89136666Y-60915608D01*
X89136666Y-60915608D02*
X89103333Y-61077512D01*
X89103333Y-61077512D02*
X89103333Y-61401322D01*
X89103333Y-61401322D02*
X89136666Y-61482274D01*
X89136666Y-61482274D02*
X89170000Y-61522751D01*
X89170000Y-61522751D02*
X89236666Y-61563227D01*
X89236666Y-61563227D02*
X89370000Y-61563227D01*
X89370000Y-61563227D02*
X89436666Y-61522751D01*
X89436666Y-61522751D02*
X89470000Y-61482274D01*
X89470000Y-61482274D02*
X89503333Y-61401322D01*
X89503333Y-61401322D02*
X89503333Y-61198941D01*
X89503333Y-61198941D02*
X89470000Y-61117989D01*
X89470000Y-61117989D02*
X89436666Y-61077512D01*
X89436666Y-61077512D02*
X89370000Y-61037036D01*
X89370000Y-61037036D02*
X89236666Y-61037036D01*
X89236666Y-61037036D02*
X89170000Y-61077512D01*
X89170000Y-61077512D02*
X89136666Y-61117989D01*
X89136666Y-61117989D02*
X89103333Y-61198941D01*
X109223227Y-58670000D02*
X108818465Y-58903333D01*
X109223227Y-59070000D02*
X108373227Y-59070000D01*
X108373227Y-59070000D02*
X108373227Y-58803333D01*
X108373227Y-58803333D02*
X108413703Y-58736667D01*
X108413703Y-58736667D02*
X108454179Y-58703333D01*
X108454179Y-58703333D02*
X108535131Y-58670000D01*
X108535131Y-58670000D02*
X108656560Y-58670000D01*
X108656560Y-58670000D02*
X108737512Y-58703333D01*
X108737512Y-58703333D02*
X108777989Y-58736667D01*
X108777989Y-58736667D02*
X108818465Y-58803333D01*
X108818465Y-58803333D02*
X108818465Y-59070000D01*
X108454179Y-58403333D02*
X108413703Y-58370000D01*
X108413703Y-58370000D02*
X108373227Y-58303333D01*
X108373227Y-58303333D02*
X108373227Y-58136667D01*
X108373227Y-58136667D02*
X108413703Y-58070000D01*
X108413703Y-58070000D02*
X108454179Y-58036667D01*
X108454179Y-58036667D02*
X108535131Y-58003333D01*
X108535131Y-58003333D02*
X108616084Y-58003333D01*
X108616084Y-58003333D02*
X108737512Y-58036667D01*
X108737512Y-58036667D02*
X109223227Y-58436667D01*
X109223227Y-58436667D02*
X109223227Y-58003333D01*
X108373227Y-57770000D02*
X108373227Y-57336666D01*
X108373227Y-57336666D02*
X108697036Y-57570000D01*
X108697036Y-57570000D02*
X108697036Y-57470000D01*
X108697036Y-57470000D02*
X108737512Y-57403333D01*
X108737512Y-57403333D02*
X108777989Y-57370000D01*
X108777989Y-57370000D02*
X108858941Y-57336666D01*
X108858941Y-57336666D02*
X109061322Y-57336666D01*
X109061322Y-57336666D02*
X109142274Y-57370000D01*
X109142274Y-57370000D02*
X109182751Y-57403333D01*
X109182751Y-57403333D02*
X109223227Y-57470000D01*
X109223227Y-57470000D02*
X109223227Y-57670000D01*
X109223227Y-57670000D02*
X109182751Y-57736666D01*
X109182751Y-57736666D02*
X109142274Y-57770000D01*
X116924179Y-60636666D02*
X116883703Y-60703333D01*
X116883703Y-60703333D02*
X116802751Y-60770000D01*
X116802751Y-60770000D02*
X116681322Y-60870000D01*
X116681322Y-60870000D02*
X116640846Y-60936666D01*
X116640846Y-60936666D02*
X116640846Y-61003333D01*
X116843227Y-60970000D02*
X116802751Y-61036666D01*
X116802751Y-61036666D02*
X116721798Y-61103333D01*
X116721798Y-61103333D02*
X116559893Y-61136666D01*
X116559893Y-61136666D02*
X116276560Y-61136666D01*
X116276560Y-61136666D02*
X116114655Y-61103333D01*
X116114655Y-61103333D02*
X116033703Y-61036666D01*
X116033703Y-61036666D02*
X115993227Y-60970000D01*
X115993227Y-60970000D02*
X115993227Y-60836666D01*
X115993227Y-60836666D02*
X116033703Y-60770000D01*
X116033703Y-60770000D02*
X116114655Y-60703333D01*
X116114655Y-60703333D02*
X116276560Y-60670000D01*
X116276560Y-60670000D02*
X116559893Y-60670000D01*
X116559893Y-60670000D02*
X116721798Y-60703333D01*
X116721798Y-60703333D02*
X116802751Y-60770000D01*
X116802751Y-60770000D02*
X116843227Y-60836666D01*
X116843227Y-60836666D02*
X116843227Y-60970000D01*
X116276560Y-60070000D02*
X116843227Y-60070000D01*
X115952751Y-60236667D02*
X116559893Y-60403333D01*
X116559893Y-60403333D02*
X116559893Y-59970000D01*
X64249999Y-78562274D02*
X64216666Y-78602751D01*
X64216666Y-78602751D02*
X64116666Y-78643227D01*
X64116666Y-78643227D02*
X64049999Y-78643227D01*
X64049999Y-78643227D02*
X63949999Y-78602751D01*
X63949999Y-78602751D02*
X63883333Y-78521798D01*
X63883333Y-78521798D02*
X63849999Y-78440846D01*
X63849999Y-78440846D02*
X63816666Y-78278941D01*
X63816666Y-78278941D02*
X63816666Y-78157512D01*
X63816666Y-78157512D02*
X63849999Y-77995608D01*
X63849999Y-77995608D02*
X63883333Y-77914655D01*
X63883333Y-77914655D02*
X63949999Y-77833703D01*
X63949999Y-77833703D02*
X64049999Y-77793227D01*
X64049999Y-77793227D02*
X64116666Y-77793227D01*
X64116666Y-77793227D02*
X64216666Y-77833703D01*
X64216666Y-77833703D02*
X64249999Y-77874179D01*
X64516666Y-77874179D02*
X64549999Y-77833703D01*
X64549999Y-77833703D02*
X64616666Y-77793227D01*
X64616666Y-77793227D02*
X64783333Y-77793227D01*
X64783333Y-77793227D02*
X64849999Y-77833703D01*
X64849999Y-77833703D02*
X64883333Y-77874179D01*
X64883333Y-77874179D02*
X64916666Y-77955131D01*
X64916666Y-77955131D02*
X64916666Y-78036084D01*
X64916666Y-78036084D02*
X64883333Y-78157512D01*
X64883333Y-78157512D02*
X64483333Y-78643227D01*
X64483333Y-78643227D02*
X64916666Y-78643227D01*
X65316666Y-78157512D02*
X65250000Y-78117036D01*
X65250000Y-78117036D02*
X65216666Y-78076560D01*
X65216666Y-78076560D02*
X65183333Y-77995608D01*
X65183333Y-77995608D02*
X65183333Y-77955131D01*
X65183333Y-77955131D02*
X65216666Y-77874179D01*
X65216666Y-77874179D02*
X65250000Y-77833703D01*
X65250000Y-77833703D02*
X65316666Y-77793227D01*
X65316666Y-77793227D02*
X65450000Y-77793227D01*
X65450000Y-77793227D02*
X65516666Y-77833703D01*
X65516666Y-77833703D02*
X65550000Y-77874179D01*
X65550000Y-77874179D02*
X65583333Y-77955131D01*
X65583333Y-77955131D02*
X65583333Y-77995608D01*
X65583333Y-77995608D02*
X65550000Y-78076560D01*
X65550000Y-78076560D02*
X65516666Y-78117036D01*
X65516666Y-78117036D02*
X65450000Y-78157512D01*
X65450000Y-78157512D02*
X65316666Y-78157512D01*
X65316666Y-78157512D02*
X65250000Y-78197989D01*
X65250000Y-78197989D02*
X65216666Y-78238465D01*
X65216666Y-78238465D02*
X65183333Y-78319417D01*
X65183333Y-78319417D02*
X65183333Y-78481322D01*
X65183333Y-78481322D02*
X65216666Y-78562274D01*
X65216666Y-78562274D02*
X65250000Y-78602751D01*
X65250000Y-78602751D02*
X65316666Y-78643227D01*
X65316666Y-78643227D02*
X65450000Y-78643227D01*
X65450000Y-78643227D02*
X65516666Y-78602751D01*
X65516666Y-78602751D02*
X65550000Y-78562274D01*
X65550000Y-78562274D02*
X65583333Y-78481322D01*
X65583333Y-78481322D02*
X65583333Y-78319417D01*
X65583333Y-78319417D02*
X65550000Y-78238465D01*
X65550000Y-78238465D02*
X65516666Y-78197989D01*
X65516666Y-78197989D02*
X65450000Y-78157512D01*
X96941274Y-50546666D02*
X96981751Y-50579999D01*
X96981751Y-50579999D02*
X97022227Y-50679999D01*
X97022227Y-50679999D02*
X97022227Y-50746666D01*
X97022227Y-50746666D02*
X96981751Y-50846666D01*
X96981751Y-50846666D02*
X96900798Y-50913333D01*
X96900798Y-50913333D02*
X96819846Y-50946666D01*
X96819846Y-50946666D02*
X96657941Y-50979999D01*
X96657941Y-50979999D02*
X96536512Y-50979999D01*
X96536512Y-50979999D02*
X96374608Y-50946666D01*
X96374608Y-50946666D02*
X96293655Y-50913333D01*
X96293655Y-50913333D02*
X96212703Y-50846666D01*
X96212703Y-50846666D02*
X96172227Y-50746666D01*
X96172227Y-50746666D02*
X96172227Y-50679999D01*
X96172227Y-50679999D02*
X96212703Y-50579999D01*
X96212703Y-50579999D02*
X96253179Y-50546666D01*
X96172227Y-49913333D02*
X96172227Y-50246666D01*
X96172227Y-50246666D02*
X96576989Y-50279999D01*
X96576989Y-50279999D02*
X96536512Y-50246666D01*
X96536512Y-50246666D02*
X96496036Y-50179999D01*
X96496036Y-50179999D02*
X96496036Y-50013333D01*
X96496036Y-50013333D02*
X96536512Y-49946666D01*
X96536512Y-49946666D02*
X96576989Y-49913333D01*
X96576989Y-49913333D02*
X96657941Y-49879999D01*
X96657941Y-49879999D02*
X96860322Y-49879999D01*
X96860322Y-49879999D02*
X96941274Y-49913333D01*
X96941274Y-49913333D02*
X96981751Y-49946666D01*
X96981751Y-49946666D02*
X97022227Y-50013333D01*
X97022227Y-50013333D02*
X97022227Y-50179999D01*
X97022227Y-50179999D02*
X96981751Y-50246666D01*
X96981751Y-50246666D02*
X96941274Y-50279999D01*
X55549999Y-66363227D02*
X55316666Y-65958465D01*
X55149999Y-66363227D02*
X55149999Y-65513227D01*
X55149999Y-65513227D02*
X55416666Y-65513227D01*
X55416666Y-65513227D02*
X55483333Y-65553703D01*
X55483333Y-65553703D02*
X55516666Y-65594179D01*
X55516666Y-65594179D02*
X55549999Y-65675131D01*
X55549999Y-65675131D02*
X55549999Y-65796560D01*
X55549999Y-65796560D02*
X55516666Y-65877512D01*
X55516666Y-65877512D02*
X55483333Y-65917989D01*
X55483333Y-65917989D02*
X55416666Y-65958465D01*
X55416666Y-65958465D02*
X55149999Y-65958465D01*
X56216666Y-66363227D02*
X55816666Y-66363227D01*
X56016666Y-66363227D02*
X56016666Y-65513227D01*
X56016666Y-65513227D02*
X55949999Y-65634655D01*
X55949999Y-65634655D02*
X55883333Y-65715608D01*
X55883333Y-65715608D02*
X55816666Y-65756084D01*
X56816666Y-65513227D02*
X56683333Y-65513227D01*
X56683333Y-65513227D02*
X56616666Y-65553703D01*
X56616666Y-65553703D02*
X56583333Y-65594179D01*
X56583333Y-65594179D02*
X56516666Y-65715608D01*
X56516666Y-65715608D02*
X56483333Y-65877512D01*
X56483333Y-65877512D02*
X56483333Y-66201322D01*
X56483333Y-66201322D02*
X56516666Y-66282274D01*
X56516666Y-66282274D02*
X56550000Y-66322751D01*
X56550000Y-66322751D02*
X56616666Y-66363227D01*
X56616666Y-66363227D02*
X56750000Y-66363227D01*
X56750000Y-66363227D02*
X56816666Y-66322751D01*
X56816666Y-66322751D02*
X56850000Y-66282274D01*
X56850000Y-66282274D02*
X56883333Y-66201322D01*
X56883333Y-66201322D02*
X56883333Y-65998941D01*
X56883333Y-65998941D02*
X56850000Y-65917989D01*
X56850000Y-65917989D02*
X56816666Y-65877512D01*
X56816666Y-65877512D02*
X56750000Y-65837036D01*
X56750000Y-65837036D02*
X56616666Y-65837036D01*
X56616666Y-65837036D02*
X56550000Y-65877512D01*
X56550000Y-65877512D02*
X56516666Y-65917989D01*
X56516666Y-65917989D02*
X56483333Y-65998941D01*
X153443227Y-51983333D02*
X154050370Y-51983333D01*
X154050370Y-51983333D02*
X154171798Y-52016666D01*
X154171798Y-52016666D02*
X154252751Y-52083333D01*
X154252751Y-52083333D02*
X154293227Y-52183333D01*
X154293227Y-52183333D02*
X154293227Y-52250000D01*
X154293227Y-51650000D02*
X153443227Y-51650000D01*
X153443227Y-51650000D02*
X153443227Y-51383333D01*
X153443227Y-51383333D02*
X153483703Y-51316667D01*
X153483703Y-51316667D02*
X153524179Y-51283333D01*
X153524179Y-51283333D02*
X153605131Y-51250000D01*
X153605131Y-51250000D02*
X153726560Y-51250000D01*
X153726560Y-51250000D02*
X153807512Y-51283333D01*
X153807512Y-51283333D02*
X153847989Y-51316667D01*
X153847989Y-51316667D02*
X153888465Y-51383333D01*
X153888465Y-51383333D02*
X153888465Y-51650000D01*
X154293227Y-50583333D02*
X154293227Y-50983333D01*
X154293227Y-50783333D02*
X153443227Y-50783333D01*
X153443227Y-50783333D02*
X153564655Y-50850000D01*
X153564655Y-50850000D02*
X153645608Y-50916667D01*
X153645608Y-50916667D02*
X153686084Y-50983333D01*
X151562619Y-54333332D02*
X151562619Y-53714285D01*
X151562619Y-53714285D02*
X151943571Y-54047618D01*
X151943571Y-54047618D02*
X151943571Y-53904761D01*
X151943571Y-53904761D02*
X151991190Y-53809523D01*
X151991190Y-53809523D02*
X152038809Y-53761904D01*
X152038809Y-53761904D02*
X152134047Y-53714285D01*
X152134047Y-53714285D02*
X152372142Y-53714285D01*
X152372142Y-53714285D02*
X152467380Y-53761904D01*
X152467380Y-53761904D02*
X152515000Y-53809523D01*
X152515000Y-53809523D02*
X152562619Y-53904761D01*
X152562619Y-53904761D02*
X152562619Y-54190475D01*
X152562619Y-54190475D02*
X152515000Y-54285713D01*
X152515000Y-54285713D02*
X152467380Y-54333332D01*
X152562619Y-48514285D02*
X152562619Y-49085713D01*
X152562619Y-48799999D02*
X151562619Y-48799999D01*
X151562619Y-48799999D02*
X151705476Y-48895237D01*
X151705476Y-48895237D02*
X151800714Y-48990475D01*
X151800714Y-48990475D02*
X151848333Y-49085713D01*
X143949999Y-56993227D02*
X143716666Y-56588465D01*
X143549999Y-56993227D02*
X143549999Y-56143227D01*
X143549999Y-56143227D02*
X143816666Y-56143227D01*
X143816666Y-56143227D02*
X143883333Y-56183703D01*
X143883333Y-56183703D02*
X143916666Y-56224179D01*
X143916666Y-56224179D02*
X143949999Y-56305131D01*
X143949999Y-56305131D02*
X143949999Y-56426560D01*
X143949999Y-56426560D02*
X143916666Y-56507512D01*
X143916666Y-56507512D02*
X143883333Y-56547989D01*
X143883333Y-56547989D02*
X143816666Y-56588465D01*
X143816666Y-56588465D02*
X143549999Y-56588465D01*
X144549999Y-56426560D02*
X144549999Y-56993227D01*
X144383333Y-56102751D02*
X144216666Y-56709893D01*
X144216666Y-56709893D02*
X144649999Y-56709893D01*
X145050000Y-56143227D02*
X145116666Y-56143227D01*
X145116666Y-56143227D02*
X145183333Y-56183703D01*
X145183333Y-56183703D02*
X145216666Y-56224179D01*
X145216666Y-56224179D02*
X145250000Y-56305131D01*
X145250000Y-56305131D02*
X145283333Y-56467036D01*
X145283333Y-56467036D02*
X145283333Y-56669417D01*
X145283333Y-56669417D02*
X145250000Y-56831322D01*
X145250000Y-56831322D02*
X145216666Y-56912274D01*
X145216666Y-56912274D02*
X145183333Y-56952751D01*
X145183333Y-56952751D02*
X145116666Y-56993227D01*
X145116666Y-56993227D02*
X145050000Y-56993227D01*
X145050000Y-56993227D02*
X144983333Y-56952751D01*
X144983333Y-56952751D02*
X144950000Y-56912274D01*
X144950000Y-56912274D02*
X144916666Y-56831322D01*
X144916666Y-56831322D02*
X144883333Y-56669417D01*
X144883333Y-56669417D02*
X144883333Y-56467036D01*
X144883333Y-56467036D02*
X144916666Y-56305131D01*
X144916666Y-56305131D02*
X144950000Y-56224179D01*
X144950000Y-56224179D02*
X144983333Y-56183703D01*
X144983333Y-56183703D02*
X145050000Y-56143227D01*
X150836666Y-63852751D02*
X150936666Y-63893227D01*
X150936666Y-63893227D02*
X151103333Y-63893227D01*
X151103333Y-63893227D02*
X151169999Y-63852751D01*
X151169999Y-63852751D02*
X151203333Y-63812274D01*
X151203333Y-63812274D02*
X151236666Y-63731322D01*
X151236666Y-63731322D02*
X151236666Y-63650370D01*
X151236666Y-63650370D02*
X151203333Y-63569417D01*
X151203333Y-63569417D02*
X151169999Y-63528941D01*
X151169999Y-63528941D02*
X151103333Y-63488465D01*
X151103333Y-63488465D02*
X150969999Y-63447989D01*
X150969999Y-63447989D02*
X150903333Y-63407512D01*
X150903333Y-63407512D02*
X150869999Y-63367036D01*
X150869999Y-63367036D02*
X150836666Y-63286084D01*
X150836666Y-63286084D02*
X150836666Y-63205131D01*
X150836666Y-63205131D02*
X150869999Y-63124179D01*
X150869999Y-63124179D02*
X150903333Y-63083703D01*
X150903333Y-63083703D02*
X150969999Y-63043227D01*
X150969999Y-63043227D02*
X151136666Y-63043227D01*
X151136666Y-63043227D02*
X151236666Y-63083703D01*
X151470000Y-63043227D02*
X151636666Y-63893227D01*
X151636666Y-63893227D02*
X151770000Y-63286084D01*
X151770000Y-63286084D02*
X151903333Y-63893227D01*
X151903333Y-63893227D02*
X152070000Y-63043227D01*
X152636666Y-63043227D02*
X152503333Y-63043227D01*
X152503333Y-63043227D02*
X152436666Y-63083703D01*
X152436666Y-63083703D02*
X152403333Y-63124179D01*
X152403333Y-63124179D02*
X152336666Y-63245608D01*
X152336666Y-63245608D02*
X152303333Y-63407512D01*
X152303333Y-63407512D02*
X152303333Y-63731322D01*
X152303333Y-63731322D02*
X152336666Y-63812274D01*
X152336666Y-63812274D02*
X152370000Y-63852751D01*
X152370000Y-63852751D02*
X152436666Y-63893227D01*
X152436666Y-63893227D02*
X152570000Y-63893227D01*
X152570000Y-63893227D02*
X152636666Y-63852751D01*
X152636666Y-63852751D02*
X152670000Y-63812274D01*
X152670000Y-63812274D02*
X152703333Y-63731322D01*
X152703333Y-63731322D02*
X152703333Y-63528941D01*
X152703333Y-63528941D02*
X152670000Y-63447989D01*
X152670000Y-63447989D02*
X152636666Y-63407512D01*
X152636666Y-63407512D02*
X152570000Y-63367036D01*
X152570000Y-63367036D02*
X152436666Y-63367036D01*
X152436666Y-63367036D02*
X152370000Y-63407512D01*
X152370000Y-63407512D02*
X152336666Y-63447989D01*
X152336666Y-63447989D02*
X152303333Y-63528941D01*
X62249999Y-60493227D02*
X62016666Y-60088465D01*
X61849999Y-60493227D02*
X61849999Y-59643227D01*
X61849999Y-59643227D02*
X62116666Y-59643227D01*
X62116666Y-59643227D02*
X62183333Y-59683703D01*
X62183333Y-59683703D02*
X62216666Y-59724179D01*
X62216666Y-59724179D02*
X62249999Y-59805131D01*
X62249999Y-59805131D02*
X62249999Y-59926560D01*
X62249999Y-59926560D02*
X62216666Y-60007512D01*
X62216666Y-60007512D02*
X62183333Y-60047989D01*
X62183333Y-60047989D02*
X62116666Y-60088465D01*
X62116666Y-60088465D02*
X61849999Y-60088465D01*
X62516666Y-59724179D02*
X62549999Y-59683703D01*
X62549999Y-59683703D02*
X62616666Y-59643227D01*
X62616666Y-59643227D02*
X62783333Y-59643227D01*
X62783333Y-59643227D02*
X62849999Y-59683703D01*
X62849999Y-59683703D02*
X62883333Y-59724179D01*
X62883333Y-59724179D02*
X62916666Y-59805131D01*
X62916666Y-59805131D02*
X62916666Y-59886084D01*
X62916666Y-59886084D02*
X62883333Y-60007512D01*
X62883333Y-60007512D02*
X62483333Y-60493227D01*
X62483333Y-60493227D02*
X62916666Y-60493227D01*
X63350000Y-59643227D02*
X63416666Y-59643227D01*
X63416666Y-59643227D02*
X63483333Y-59683703D01*
X63483333Y-59683703D02*
X63516666Y-59724179D01*
X63516666Y-59724179D02*
X63550000Y-59805131D01*
X63550000Y-59805131D02*
X63583333Y-59967036D01*
X63583333Y-59967036D02*
X63583333Y-60169417D01*
X63583333Y-60169417D02*
X63550000Y-60331322D01*
X63550000Y-60331322D02*
X63516666Y-60412274D01*
X63516666Y-60412274D02*
X63483333Y-60452751D01*
X63483333Y-60452751D02*
X63416666Y-60493227D01*
X63416666Y-60493227D02*
X63350000Y-60493227D01*
X63350000Y-60493227D02*
X63283333Y-60452751D01*
X63283333Y-60452751D02*
X63250000Y-60412274D01*
X63250000Y-60412274D02*
X63216666Y-60331322D01*
X63216666Y-60331322D02*
X63183333Y-60169417D01*
X63183333Y-60169417D02*
X63183333Y-59967036D01*
X63183333Y-59967036D02*
X63216666Y-59805131D01*
X63216666Y-59805131D02*
X63250000Y-59724179D01*
X63250000Y-59724179D02*
X63283333Y-59683703D01*
X63283333Y-59683703D02*
X63350000Y-59643227D01*
X99523227Y-60250000D02*
X99118465Y-60483333D01*
X99523227Y-60650000D02*
X98673227Y-60650000D01*
X98673227Y-60650000D02*
X98673227Y-60383333D01*
X98673227Y-60383333D02*
X98713703Y-60316667D01*
X98713703Y-60316667D02*
X98754179Y-60283333D01*
X98754179Y-60283333D02*
X98835131Y-60250000D01*
X98835131Y-60250000D02*
X98956560Y-60250000D01*
X98956560Y-60250000D02*
X99037512Y-60283333D01*
X99037512Y-60283333D02*
X99077989Y-60316667D01*
X99077989Y-60316667D02*
X99118465Y-60383333D01*
X99118465Y-60383333D02*
X99118465Y-60650000D01*
X98754179Y-59983333D02*
X98713703Y-59950000D01*
X98713703Y-59950000D02*
X98673227Y-59883333D01*
X98673227Y-59883333D02*
X98673227Y-59716667D01*
X98673227Y-59716667D02*
X98713703Y-59650000D01*
X98713703Y-59650000D02*
X98754179Y-59616667D01*
X98754179Y-59616667D02*
X98835131Y-59583333D01*
X98835131Y-59583333D02*
X98916084Y-59583333D01*
X98916084Y-59583333D02*
X99037512Y-59616667D01*
X99037512Y-59616667D02*
X99523227Y-60016667D01*
X99523227Y-60016667D02*
X99523227Y-59583333D01*
X98673227Y-58950000D02*
X98673227Y-59283333D01*
X98673227Y-59283333D02*
X99077989Y-59316666D01*
X99077989Y-59316666D02*
X99037512Y-59283333D01*
X99037512Y-59283333D02*
X98997036Y-59216666D01*
X98997036Y-59216666D02*
X98997036Y-59050000D01*
X98997036Y-59050000D02*
X99037512Y-58983333D01*
X99037512Y-58983333D02*
X99077989Y-58950000D01*
X99077989Y-58950000D02*
X99158941Y-58916666D01*
X99158941Y-58916666D02*
X99361322Y-58916666D01*
X99361322Y-58916666D02*
X99442274Y-58950000D01*
X99442274Y-58950000D02*
X99482751Y-58983333D01*
X99482751Y-58983333D02*
X99523227Y-59050000D01*
X99523227Y-59050000D02*
X99523227Y-59216666D01*
X99523227Y-59216666D02*
X99482751Y-59283333D01*
X99482751Y-59283333D02*
X99442274Y-59316666D01*
X99241274Y-50546666D02*
X99281751Y-50579999D01*
X99281751Y-50579999D02*
X99322227Y-50679999D01*
X99322227Y-50679999D02*
X99322227Y-50746666D01*
X99322227Y-50746666D02*
X99281751Y-50846666D01*
X99281751Y-50846666D02*
X99200798Y-50913333D01*
X99200798Y-50913333D02*
X99119846Y-50946666D01*
X99119846Y-50946666D02*
X98957941Y-50979999D01*
X98957941Y-50979999D02*
X98836512Y-50979999D01*
X98836512Y-50979999D02*
X98674608Y-50946666D01*
X98674608Y-50946666D02*
X98593655Y-50913333D01*
X98593655Y-50913333D02*
X98512703Y-50846666D01*
X98512703Y-50846666D02*
X98472227Y-50746666D01*
X98472227Y-50746666D02*
X98472227Y-50679999D01*
X98472227Y-50679999D02*
X98512703Y-50579999D01*
X98512703Y-50579999D02*
X98553179Y-50546666D01*
X99322227Y-50213333D02*
X99322227Y-50079999D01*
X99322227Y-50079999D02*
X99281751Y-50013333D01*
X99281751Y-50013333D02*
X99241274Y-49979999D01*
X99241274Y-49979999D02*
X99119846Y-49913333D01*
X99119846Y-49913333D02*
X98957941Y-49879999D01*
X98957941Y-49879999D02*
X98634131Y-49879999D01*
X98634131Y-49879999D02*
X98553179Y-49913333D01*
X98553179Y-49913333D02*
X98512703Y-49946666D01*
X98512703Y-49946666D02*
X98472227Y-50013333D01*
X98472227Y-50013333D02*
X98472227Y-50146666D01*
X98472227Y-50146666D02*
X98512703Y-50213333D01*
X98512703Y-50213333D02*
X98553179Y-50246666D01*
X98553179Y-50246666D02*
X98634131Y-50279999D01*
X98634131Y-50279999D02*
X98836512Y-50279999D01*
X98836512Y-50279999D02*
X98917465Y-50246666D01*
X98917465Y-50246666D02*
X98957941Y-50213333D01*
X98957941Y-50213333D02*
X98998417Y-50146666D01*
X98998417Y-50146666D02*
X98998417Y-50013333D01*
X98998417Y-50013333D02*
X98957941Y-49946666D01*
X98957941Y-49946666D02*
X98917465Y-49913333D01*
X98917465Y-49913333D02*
X98836512Y-49879999D01*
X64249999Y-73183227D02*
X64016666Y-72778465D01*
X63849999Y-73183227D02*
X63849999Y-72333227D01*
X63849999Y-72333227D02*
X64116666Y-72333227D01*
X64116666Y-72333227D02*
X64183333Y-72373703D01*
X64183333Y-72373703D02*
X64216666Y-72414179D01*
X64216666Y-72414179D02*
X64249999Y-72495131D01*
X64249999Y-72495131D02*
X64249999Y-72616560D01*
X64249999Y-72616560D02*
X64216666Y-72697512D01*
X64216666Y-72697512D02*
X64183333Y-72737989D01*
X64183333Y-72737989D02*
X64116666Y-72778465D01*
X64116666Y-72778465D02*
X63849999Y-72778465D01*
X64516666Y-72414179D02*
X64549999Y-72373703D01*
X64549999Y-72373703D02*
X64616666Y-72333227D01*
X64616666Y-72333227D02*
X64783333Y-72333227D01*
X64783333Y-72333227D02*
X64849999Y-72373703D01*
X64849999Y-72373703D02*
X64883333Y-72414179D01*
X64883333Y-72414179D02*
X64916666Y-72495131D01*
X64916666Y-72495131D02*
X64916666Y-72576084D01*
X64916666Y-72576084D02*
X64883333Y-72697512D01*
X64883333Y-72697512D02*
X64483333Y-73183227D01*
X64483333Y-73183227D02*
X64916666Y-73183227D01*
X65150000Y-72333227D02*
X65616666Y-72333227D01*
X65616666Y-72333227D02*
X65316666Y-73183227D01*
X123523227Y-59860000D02*
X123118465Y-60093333D01*
X123523227Y-60260000D02*
X122673227Y-60260000D01*
X122673227Y-60260000D02*
X122673227Y-59993333D01*
X122673227Y-59993333D02*
X122713703Y-59926667D01*
X122713703Y-59926667D02*
X122754179Y-59893333D01*
X122754179Y-59893333D02*
X122835131Y-59860000D01*
X122835131Y-59860000D02*
X122956560Y-59860000D01*
X122956560Y-59860000D02*
X123037512Y-59893333D01*
X123037512Y-59893333D02*
X123077989Y-59926667D01*
X123077989Y-59926667D02*
X123118465Y-59993333D01*
X123118465Y-59993333D02*
X123118465Y-60260000D01*
X122754179Y-59593333D02*
X122713703Y-59560000D01*
X122713703Y-59560000D02*
X122673227Y-59493333D01*
X122673227Y-59493333D02*
X122673227Y-59326667D01*
X122673227Y-59326667D02*
X122713703Y-59260000D01*
X122713703Y-59260000D02*
X122754179Y-59226667D01*
X122754179Y-59226667D02*
X122835131Y-59193333D01*
X122835131Y-59193333D02*
X122916084Y-59193333D01*
X122916084Y-59193333D02*
X123037512Y-59226667D01*
X123037512Y-59226667D02*
X123523227Y-59626667D01*
X123523227Y-59626667D02*
X123523227Y-59193333D01*
X122754179Y-58926666D02*
X122713703Y-58893333D01*
X122713703Y-58893333D02*
X122673227Y-58826666D01*
X122673227Y-58826666D02*
X122673227Y-58660000D01*
X122673227Y-58660000D02*
X122713703Y-58593333D01*
X122713703Y-58593333D02*
X122754179Y-58560000D01*
X122754179Y-58560000D02*
X122835131Y-58526666D01*
X122835131Y-58526666D02*
X122916084Y-58526666D01*
X122916084Y-58526666D02*
X123037512Y-58560000D01*
X123037512Y-58560000D02*
X123523227Y-58960000D01*
X123523227Y-58960000D02*
X123523227Y-58526666D01*
X149143227Y-51983333D02*
X149750370Y-51983333D01*
X149750370Y-51983333D02*
X149871798Y-52016666D01*
X149871798Y-52016666D02*
X149952751Y-52083333D01*
X149952751Y-52083333D02*
X149993227Y-52183333D01*
X149993227Y-52183333D02*
X149993227Y-52250000D01*
X149993227Y-51650000D02*
X149143227Y-51650000D01*
X149143227Y-51650000D02*
X149143227Y-51383333D01*
X149143227Y-51383333D02*
X149183703Y-51316667D01*
X149183703Y-51316667D02*
X149224179Y-51283333D01*
X149224179Y-51283333D02*
X149305131Y-51250000D01*
X149305131Y-51250000D02*
X149426560Y-51250000D01*
X149426560Y-51250000D02*
X149507512Y-51283333D01*
X149507512Y-51283333D02*
X149547989Y-51316667D01*
X149547989Y-51316667D02*
X149588465Y-51383333D01*
X149588465Y-51383333D02*
X149588465Y-51650000D01*
X149224179Y-50983333D02*
X149183703Y-50950000D01*
X149183703Y-50950000D02*
X149143227Y-50883333D01*
X149143227Y-50883333D02*
X149143227Y-50716667D01*
X149143227Y-50716667D02*
X149183703Y-50650000D01*
X149183703Y-50650000D02*
X149224179Y-50616667D01*
X149224179Y-50616667D02*
X149305131Y-50583333D01*
X149305131Y-50583333D02*
X149386084Y-50583333D01*
X149386084Y-50583333D02*
X149507512Y-50616667D01*
X149507512Y-50616667D02*
X149993227Y-51016667D01*
X149993227Y-51016667D02*
X149993227Y-50583333D01*
X147262619Y-54333332D02*
X147262619Y-53714285D01*
X147262619Y-53714285D02*
X147643571Y-54047618D01*
X147643571Y-54047618D02*
X147643571Y-53904761D01*
X147643571Y-53904761D02*
X147691190Y-53809523D01*
X147691190Y-53809523D02*
X147738809Y-53761904D01*
X147738809Y-53761904D02*
X147834047Y-53714285D01*
X147834047Y-53714285D02*
X148072142Y-53714285D01*
X148072142Y-53714285D02*
X148167380Y-53761904D01*
X148167380Y-53761904D02*
X148215000Y-53809523D01*
X148215000Y-53809523D02*
X148262619Y-53904761D01*
X148262619Y-53904761D02*
X148262619Y-54190475D01*
X148262619Y-54190475D02*
X148215000Y-54285713D01*
X148215000Y-54285713D02*
X148167380Y-54333332D01*
X148262619Y-48514285D02*
X148262619Y-49085713D01*
X148262619Y-48799999D02*
X147262619Y-48799999D01*
X147262619Y-48799999D02*
X147405476Y-48895237D01*
X147405476Y-48895237D02*
X147500714Y-48990475D01*
X147500714Y-48990475D02*
X147548333Y-49085713D01*
X110763227Y-78686666D02*
X109913227Y-78686666D01*
X109913227Y-78686666D02*
X109913227Y-78519999D01*
X109913227Y-78519999D02*
X109953703Y-78419999D01*
X109953703Y-78419999D02*
X110034655Y-78353333D01*
X110034655Y-78353333D02*
X110115608Y-78319999D01*
X110115608Y-78319999D02*
X110277512Y-78286666D01*
X110277512Y-78286666D02*
X110398941Y-78286666D01*
X110398941Y-78286666D02*
X110560846Y-78319999D01*
X110560846Y-78319999D02*
X110641798Y-78353333D01*
X110641798Y-78353333D02*
X110722751Y-78419999D01*
X110722751Y-78419999D02*
X110763227Y-78519999D01*
X110763227Y-78519999D02*
X110763227Y-78686666D01*
X109913227Y-78053333D02*
X109913227Y-77619999D01*
X109913227Y-77619999D02*
X110237036Y-77853333D01*
X110237036Y-77853333D02*
X110237036Y-77753333D01*
X110237036Y-77753333D02*
X110277512Y-77686666D01*
X110277512Y-77686666D02*
X110317989Y-77653333D01*
X110317989Y-77653333D02*
X110398941Y-77619999D01*
X110398941Y-77619999D02*
X110601322Y-77619999D01*
X110601322Y-77619999D02*
X110682274Y-77653333D01*
X110682274Y-77653333D02*
X110722751Y-77686666D01*
X110722751Y-77686666D02*
X110763227Y-77753333D01*
X110763227Y-77753333D02*
X110763227Y-77953333D01*
X110763227Y-77953333D02*
X110722751Y-78019999D01*
X110722751Y-78019999D02*
X110682274Y-78053333D01*
X93543227Y-56200000D02*
X92693227Y-56200000D01*
X92693227Y-56200000D02*
X92693227Y-56033333D01*
X92693227Y-56033333D02*
X92733703Y-55933333D01*
X92733703Y-55933333D02*
X92814655Y-55866667D01*
X92814655Y-55866667D02*
X92895608Y-55833333D01*
X92895608Y-55833333D02*
X93057512Y-55800000D01*
X93057512Y-55800000D02*
X93178941Y-55800000D01*
X93178941Y-55800000D02*
X93340846Y-55833333D01*
X93340846Y-55833333D02*
X93421798Y-55866667D01*
X93421798Y-55866667D02*
X93502751Y-55933333D01*
X93502751Y-55933333D02*
X93543227Y-56033333D01*
X93543227Y-56033333D02*
X93543227Y-56200000D01*
X93543227Y-55133333D02*
X93543227Y-55533333D01*
X93543227Y-55333333D02*
X92693227Y-55333333D01*
X92693227Y-55333333D02*
X92814655Y-55400000D01*
X92814655Y-55400000D02*
X92895608Y-55466667D01*
X92895608Y-55466667D02*
X92936084Y-55533333D01*
X92693227Y-54900000D02*
X92693227Y-54466666D01*
X92693227Y-54466666D02*
X93017036Y-54700000D01*
X93017036Y-54700000D02*
X93017036Y-54600000D01*
X93017036Y-54600000D02*
X93057512Y-54533333D01*
X93057512Y-54533333D02*
X93097989Y-54500000D01*
X93097989Y-54500000D02*
X93178941Y-54466666D01*
X93178941Y-54466666D02*
X93381322Y-54466666D01*
X93381322Y-54466666D02*
X93462274Y-54500000D01*
X93462274Y-54500000D02*
X93502751Y-54533333D01*
X93502751Y-54533333D02*
X93543227Y-54600000D01*
X93543227Y-54600000D02*
X93543227Y-54800000D01*
X93543227Y-54800000D02*
X93502751Y-54866666D01*
X93502751Y-54866666D02*
X93462274Y-54900000D01*
X92924179Y-60666666D02*
X92883703Y-60733333D01*
X92883703Y-60733333D02*
X92802751Y-60800000D01*
X92802751Y-60800000D02*
X92681322Y-60900000D01*
X92681322Y-60900000D02*
X92640846Y-60966666D01*
X92640846Y-60966666D02*
X92640846Y-61033333D01*
X92843227Y-61000000D02*
X92802751Y-61066666D01*
X92802751Y-61066666D02*
X92721798Y-61133333D01*
X92721798Y-61133333D02*
X92559893Y-61166666D01*
X92559893Y-61166666D02*
X92276560Y-61166666D01*
X92276560Y-61166666D02*
X92114655Y-61133333D01*
X92114655Y-61133333D02*
X92033703Y-61066666D01*
X92033703Y-61066666D02*
X91993227Y-61000000D01*
X91993227Y-61000000D02*
X91993227Y-60866666D01*
X91993227Y-60866666D02*
X92033703Y-60800000D01*
X92033703Y-60800000D02*
X92114655Y-60733333D01*
X92114655Y-60733333D02*
X92276560Y-60700000D01*
X92276560Y-60700000D02*
X92559893Y-60700000D01*
X92559893Y-60700000D02*
X92721798Y-60733333D01*
X92721798Y-60733333D02*
X92802751Y-60800000D01*
X92802751Y-60800000D02*
X92843227Y-60866666D01*
X92843227Y-60866666D02*
X92843227Y-61000000D01*
X91993227Y-60066667D02*
X91993227Y-60400000D01*
X91993227Y-60400000D02*
X92397989Y-60433333D01*
X92397989Y-60433333D02*
X92357512Y-60400000D01*
X92357512Y-60400000D02*
X92317036Y-60333333D01*
X92317036Y-60333333D02*
X92317036Y-60166667D01*
X92317036Y-60166667D02*
X92357512Y-60100000D01*
X92357512Y-60100000D02*
X92397989Y-60066667D01*
X92397989Y-60066667D02*
X92478941Y-60033333D01*
X92478941Y-60033333D02*
X92681322Y-60033333D01*
X92681322Y-60033333D02*
X92762274Y-60066667D01*
X92762274Y-60066667D02*
X92802751Y-60100000D01*
X92802751Y-60100000D02*
X92843227Y-60166667D01*
X92843227Y-60166667D02*
X92843227Y-60333333D01*
X92843227Y-60333333D02*
X92802751Y-60400000D01*
X92802751Y-60400000D02*
X92762274Y-60433333D01*
X127349999Y-61563227D02*
X127116666Y-61158465D01*
X126949999Y-61563227D02*
X126949999Y-60713227D01*
X126949999Y-60713227D02*
X127216666Y-60713227D01*
X127216666Y-60713227D02*
X127283333Y-60753703D01*
X127283333Y-60753703D02*
X127316666Y-60794179D01*
X127316666Y-60794179D02*
X127349999Y-60875131D01*
X127349999Y-60875131D02*
X127349999Y-60996560D01*
X127349999Y-60996560D02*
X127316666Y-61077512D01*
X127316666Y-61077512D02*
X127283333Y-61117989D01*
X127283333Y-61117989D02*
X127216666Y-61158465D01*
X127216666Y-61158465D02*
X126949999Y-61158465D01*
X127949999Y-60996560D02*
X127949999Y-61563227D01*
X127783333Y-60672751D02*
X127616666Y-61279893D01*
X127616666Y-61279893D02*
X128049999Y-61279893D01*
X128616666Y-60996560D02*
X128616666Y-61563227D01*
X128450000Y-60672751D02*
X128283333Y-61279893D01*
X128283333Y-61279893D02*
X128716666Y-61279893D01*
X144299999Y-54143227D02*
X144066666Y-53738465D01*
X143899999Y-54143227D02*
X143899999Y-53293227D01*
X143899999Y-53293227D02*
X144166666Y-53293227D01*
X144166666Y-53293227D02*
X144233333Y-53333703D01*
X144233333Y-53333703D02*
X144266666Y-53374179D01*
X144266666Y-53374179D02*
X144299999Y-53455131D01*
X144299999Y-53455131D02*
X144299999Y-53576560D01*
X144299999Y-53576560D02*
X144266666Y-53657512D01*
X144266666Y-53657512D02*
X144233333Y-53697989D01*
X144233333Y-53697989D02*
X144166666Y-53738465D01*
X144166666Y-53738465D02*
X143899999Y-53738465D01*
X144533333Y-53293227D02*
X144966666Y-53293227D01*
X144966666Y-53293227D02*
X144733333Y-53617036D01*
X144733333Y-53617036D02*
X144833333Y-53617036D01*
X144833333Y-53617036D02*
X144899999Y-53657512D01*
X144899999Y-53657512D02*
X144933333Y-53697989D01*
X144933333Y-53697989D02*
X144966666Y-53778941D01*
X144966666Y-53778941D02*
X144966666Y-53981322D01*
X144966666Y-53981322D02*
X144933333Y-54062274D01*
X144933333Y-54062274D02*
X144899999Y-54102751D01*
X144899999Y-54102751D02*
X144833333Y-54143227D01*
X144833333Y-54143227D02*
X144633333Y-54143227D01*
X144633333Y-54143227D02*
X144566666Y-54102751D01*
X144566666Y-54102751D02*
X144533333Y-54062274D01*
X145300000Y-54143227D02*
X145433333Y-54143227D01*
X145433333Y-54143227D02*
X145500000Y-54102751D01*
X145500000Y-54102751D02*
X145533333Y-54062274D01*
X145533333Y-54062274D02*
X145600000Y-53940846D01*
X145600000Y-53940846D02*
X145633333Y-53778941D01*
X145633333Y-53778941D02*
X145633333Y-53455131D01*
X145633333Y-53455131D02*
X145600000Y-53374179D01*
X145600000Y-53374179D02*
X145566666Y-53333703D01*
X145566666Y-53333703D02*
X145500000Y-53293227D01*
X145500000Y-53293227D02*
X145366666Y-53293227D01*
X145366666Y-53293227D02*
X145300000Y-53333703D01*
X145300000Y-53333703D02*
X145266666Y-53374179D01*
X145266666Y-53374179D02*
X145233333Y-53455131D01*
X145233333Y-53455131D02*
X145233333Y-53657512D01*
X145233333Y-53657512D02*
X145266666Y-53738465D01*
X145266666Y-53738465D02*
X145300000Y-53778941D01*
X145300000Y-53778941D02*
X145366666Y-53819417D01*
X145366666Y-53819417D02*
X145500000Y-53819417D01*
X145500000Y-53819417D02*
X145566666Y-53778941D01*
X145566666Y-53778941D02*
X145600000Y-53738465D01*
X145600000Y-53738465D02*
X145633333Y-53657512D01*
X78603333Y-55613227D02*
X78603333Y-54763227D01*
X78603333Y-54763227D02*
X78770000Y-54763227D01*
X78770000Y-54763227D02*
X78870000Y-54803703D01*
X78870000Y-54803703D02*
X78936667Y-54884655D01*
X78936667Y-54884655D02*
X78970000Y-54965608D01*
X78970000Y-54965608D02*
X79003333Y-55127512D01*
X79003333Y-55127512D02*
X79003333Y-55248941D01*
X79003333Y-55248941D02*
X78970000Y-55410846D01*
X78970000Y-55410846D02*
X78936667Y-55491798D01*
X78936667Y-55491798D02*
X78870000Y-55572751D01*
X78870000Y-55572751D02*
X78770000Y-55613227D01*
X78770000Y-55613227D02*
X78603333Y-55613227D01*
X79403333Y-55127512D02*
X79336667Y-55087036D01*
X79336667Y-55087036D02*
X79303333Y-55046560D01*
X79303333Y-55046560D02*
X79270000Y-54965608D01*
X79270000Y-54965608D02*
X79270000Y-54925131D01*
X79270000Y-54925131D02*
X79303333Y-54844179D01*
X79303333Y-54844179D02*
X79336667Y-54803703D01*
X79336667Y-54803703D02*
X79403333Y-54763227D01*
X79403333Y-54763227D02*
X79536667Y-54763227D01*
X79536667Y-54763227D02*
X79603333Y-54803703D01*
X79603333Y-54803703D02*
X79636667Y-54844179D01*
X79636667Y-54844179D02*
X79670000Y-54925131D01*
X79670000Y-54925131D02*
X79670000Y-54965608D01*
X79670000Y-54965608D02*
X79636667Y-55046560D01*
X79636667Y-55046560D02*
X79603333Y-55087036D01*
X79603333Y-55087036D02*
X79536667Y-55127512D01*
X79536667Y-55127512D02*
X79403333Y-55127512D01*
X79403333Y-55127512D02*
X79336667Y-55167989D01*
X79336667Y-55167989D02*
X79303333Y-55208465D01*
X79303333Y-55208465D02*
X79270000Y-55289417D01*
X79270000Y-55289417D02*
X79270000Y-55451322D01*
X79270000Y-55451322D02*
X79303333Y-55532274D01*
X79303333Y-55532274D02*
X79336667Y-55572751D01*
X79336667Y-55572751D02*
X79403333Y-55613227D01*
X79403333Y-55613227D02*
X79536667Y-55613227D01*
X79536667Y-55613227D02*
X79603333Y-55572751D01*
X79603333Y-55572751D02*
X79636667Y-55532274D01*
X79636667Y-55532274D02*
X79670000Y-55451322D01*
X79670000Y-55451322D02*
X79670000Y-55289417D01*
X79670000Y-55289417D02*
X79636667Y-55208465D01*
X79636667Y-55208465D02*
X79603333Y-55167989D01*
X79603333Y-55167989D02*
X79536667Y-55127512D01*
X74883333Y-55793227D02*
X74883333Y-54943227D01*
X74883333Y-54943227D02*
X75050000Y-54943227D01*
X75050000Y-54943227D02*
X75150000Y-54983703D01*
X75150000Y-54983703D02*
X75216667Y-55064655D01*
X75216667Y-55064655D02*
X75250000Y-55145608D01*
X75250000Y-55145608D02*
X75283333Y-55307512D01*
X75283333Y-55307512D02*
X75283333Y-55428941D01*
X75283333Y-55428941D02*
X75250000Y-55590846D01*
X75250000Y-55590846D02*
X75216667Y-55671798D01*
X75216667Y-55671798D02*
X75150000Y-55752751D01*
X75150000Y-55752751D02*
X75050000Y-55793227D01*
X75050000Y-55793227D02*
X74883333Y-55793227D01*
X75516667Y-54943227D02*
X75983333Y-54943227D01*
X75983333Y-54943227D02*
X75683333Y-55793227D01*
X137856666Y-71352751D02*
X137956666Y-71393227D01*
X137956666Y-71393227D02*
X138123333Y-71393227D01*
X138123333Y-71393227D02*
X138189999Y-71352751D01*
X138189999Y-71352751D02*
X138223333Y-71312274D01*
X138223333Y-71312274D02*
X138256666Y-71231322D01*
X138256666Y-71231322D02*
X138256666Y-71150370D01*
X138256666Y-71150370D02*
X138223333Y-71069417D01*
X138223333Y-71069417D02*
X138189999Y-71028941D01*
X138189999Y-71028941D02*
X138123333Y-70988465D01*
X138123333Y-70988465D02*
X137989999Y-70947989D01*
X137989999Y-70947989D02*
X137923333Y-70907512D01*
X137923333Y-70907512D02*
X137889999Y-70867036D01*
X137889999Y-70867036D02*
X137856666Y-70786084D01*
X137856666Y-70786084D02*
X137856666Y-70705131D01*
X137856666Y-70705131D02*
X137889999Y-70624179D01*
X137889999Y-70624179D02*
X137923333Y-70583703D01*
X137923333Y-70583703D02*
X137989999Y-70543227D01*
X137989999Y-70543227D02*
X138156666Y-70543227D01*
X138156666Y-70543227D02*
X138256666Y-70583703D01*
X138490000Y-70543227D02*
X138656666Y-71393227D01*
X138656666Y-71393227D02*
X138790000Y-70786084D01*
X138790000Y-70786084D02*
X138923333Y-71393227D01*
X138923333Y-71393227D02*
X139090000Y-70543227D01*
X139690000Y-70543227D02*
X139356666Y-70543227D01*
X139356666Y-70543227D02*
X139323333Y-70947989D01*
X139323333Y-70947989D02*
X139356666Y-70907512D01*
X139356666Y-70907512D02*
X139423333Y-70867036D01*
X139423333Y-70867036D02*
X139590000Y-70867036D01*
X139590000Y-70867036D02*
X139656666Y-70907512D01*
X139656666Y-70907512D02*
X139690000Y-70947989D01*
X139690000Y-70947989D02*
X139723333Y-71028941D01*
X139723333Y-71028941D02*
X139723333Y-71231322D01*
X139723333Y-71231322D02*
X139690000Y-71312274D01*
X139690000Y-71312274D02*
X139656666Y-71352751D01*
X139656666Y-71352751D02*
X139590000Y-71393227D01*
X139590000Y-71393227D02*
X139423333Y-71393227D01*
X139423333Y-71393227D02*
X139356666Y-71352751D01*
X139356666Y-71352751D02*
X139323333Y-71312274D01*
X69533333Y-63874179D02*
X69466666Y-63833703D01*
X69466666Y-63833703D02*
X69400000Y-63752751D01*
X69400000Y-63752751D02*
X69300000Y-63631322D01*
X69300000Y-63631322D02*
X69233333Y-63590846D01*
X69233333Y-63590846D02*
X69166666Y-63590846D01*
X69200000Y-63793227D02*
X69133333Y-63752751D01*
X69133333Y-63752751D02*
X69066666Y-63671798D01*
X69066666Y-63671798D02*
X69033333Y-63509893D01*
X69033333Y-63509893D02*
X69033333Y-63226560D01*
X69033333Y-63226560D02*
X69066666Y-63064655D01*
X69066666Y-63064655D02*
X69133333Y-62983703D01*
X69133333Y-62983703D02*
X69200000Y-62943227D01*
X69200000Y-62943227D02*
X69333333Y-62943227D01*
X69333333Y-62943227D02*
X69400000Y-62983703D01*
X69400000Y-62983703D02*
X69466666Y-63064655D01*
X69466666Y-63064655D02*
X69500000Y-63226560D01*
X69500000Y-63226560D02*
X69500000Y-63509893D01*
X69500000Y-63509893D02*
X69466666Y-63671798D01*
X69466666Y-63671798D02*
X69400000Y-63752751D01*
X69400000Y-63752751D02*
X69333333Y-63793227D01*
X69333333Y-63793227D02*
X69200000Y-63793227D01*
X69733333Y-62943227D02*
X70166666Y-62943227D01*
X70166666Y-62943227D02*
X69933333Y-63267036D01*
X69933333Y-63267036D02*
X70033333Y-63267036D01*
X70033333Y-63267036D02*
X70099999Y-63307512D01*
X70099999Y-63307512D02*
X70133333Y-63347989D01*
X70133333Y-63347989D02*
X70166666Y-63428941D01*
X70166666Y-63428941D02*
X70166666Y-63631322D01*
X70166666Y-63631322D02*
X70133333Y-63712274D01*
X70133333Y-63712274D02*
X70099999Y-63752751D01*
X70099999Y-63752751D02*
X70033333Y-63793227D01*
X70033333Y-63793227D02*
X69833333Y-63793227D01*
X69833333Y-63793227D02*
X69766666Y-63752751D01*
X69766666Y-63752751D02*
X69733333Y-63712274D01*
X125399999Y-55793227D02*
X125399999Y-54943227D01*
X125399999Y-54943227D02*
X125566666Y-54943227D01*
X125566666Y-54943227D02*
X125666666Y-54983703D01*
X125666666Y-54983703D02*
X125733333Y-55064655D01*
X125733333Y-55064655D02*
X125766666Y-55145608D01*
X125766666Y-55145608D02*
X125799999Y-55307512D01*
X125799999Y-55307512D02*
X125799999Y-55428941D01*
X125799999Y-55428941D02*
X125766666Y-55590846D01*
X125766666Y-55590846D02*
X125733333Y-55671798D01*
X125733333Y-55671798D02*
X125666666Y-55752751D01*
X125666666Y-55752751D02*
X125566666Y-55793227D01*
X125566666Y-55793227D02*
X125399999Y-55793227D01*
X126466666Y-55793227D02*
X126066666Y-55793227D01*
X126266666Y-55793227D02*
X126266666Y-54943227D01*
X126266666Y-54943227D02*
X126199999Y-55064655D01*
X126199999Y-55064655D02*
X126133333Y-55145608D01*
X126133333Y-55145608D02*
X126066666Y-55186084D01*
X127133333Y-55793227D02*
X126733333Y-55793227D01*
X126933333Y-55793227D02*
X126933333Y-54943227D01*
X126933333Y-54943227D02*
X126866666Y-55064655D01*
X126866666Y-55064655D02*
X126800000Y-55145608D01*
X126800000Y-55145608D02*
X126733333Y-55186084D01*
X88449999Y-55643227D02*
X88449999Y-54793227D01*
X88449999Y-54793227D02*
X88616666Y-54793227D01*
X88616666Y-54793227D02*
X88716666Y-54833703D01*
X88716666Y-54833703D02*
X88783333Y-54914655D01*
X88783333Y-54914655D02*
X88816666Y-54995608D01*
X88816666Y-54995608D02*
X88849999Y-55157512D01*
X88849999Y-55157512D02*
X88849999Y-55278941D01*
X88849999Y-55278941D02*
X88816666Y-55440846D01*
X88816666Y-55440846D02*
X88783333Y-55521798D01*
X88783333Y-55521798D02*
X88716666Y-55602751D01*
X88716666Y-55602751D02*
X88616666Y-55643227D01*
X88616666Y-55643227D02*
X88449999Y-55643227D01*
X89516666Y-55643227D02*
X89116666Y-55643227D01*
X89316666Y-55643227D02*
X89316666Y-54793227D01*
X89316666Y-54793227D02*
X89249999Y-54914655D01*
X89249999Y-54914655D02*
X89183333Y-54995608D01*
X89183333Y-54995608D02*
X89116666Y-55036084D01*
X89783333Y-54874179D02*
X89816666Y-54833703D01*
X89816666Y-54833703D02*
X89883333Y-54793227D01*
X89883333Y-54793227D02*
X90050000Y-54793227D01*
X90050000Y-54793227D02*
X90116666Y-54833703D01*
X90116666Y-54833703D02*
X90150000Y-54874179D01*
X90150000Y-54874179D02*
X90183333Y-54955131D01*
X90183333Y-54955131D02*
X90183333Y-55036084D01*
X90183333Y-55036084D02*
X90150000Y-55157512D01*
X90150000Y-55157512D02*
X89750000Y-55643227D01*
X89750000Y-55643227D02*
X90183333Y-55643227D01*
X149961905Y-56662619D02*
X149961905Y-55662619D01*
X149961905Y-55662619D02*
X150200000Y-55662619D01*
X150200000Y-55662619D02*
X150342857Y-55710238D01*
X150342857Y-55710238D02*
X150438095Y-55805476D01*
X150438095Y-55805476D02*
X150485714Y-55900714D01*
X150485714Y-55900714D02*
X150533333Y-56091190D01*
X150533333Y-56091190D02*
X150533333Y-56234047D01*
X150533333Y-56234047D02*
X150485714Y-56424523D01*
X150485714Y-56424523D02*
X150438095Y-56519761D01*
X150438095Y-56519761D02*
X150342857Y-56615000D01*
X150342857Y-56615000D02*
X150200000Y-56662619D01*
X150200000Y-56662619D02*
X149961905Y-56662619D01*
X151438095Y-55662619D02*
X150961905Y-55662619D01*
X150961905Y-55662619D02*
X150914286Y-56138809D01*
X150914286Y-56138809D02*
X150961905Y-56091190D01*
X150961905Y-56091190D02*
X151057143Y-56043571D01*
X151057143Y-56043571D02*
X151295238Y-56043571D01*
X151295238Y-56043571D02*
X151390476Y-56091190D01*
X151390476Y-56091190D02*
X151438095Y-56138809D01*
X151438095Y-56138809D02*
X151485714Y-56234047D01*
X151485714Y-56234047D02*
X151485714Y-56472142D01*
X151485714Y-56472142D02*
X151438095Y-56567380D01*
X151438095Y-56567380D02*
X151390476Y-56615000D01*
X151390476Y-56615000D02*
X151295238Y-56662619D01*
X151295238Y-56662619D02*
X151057143Y-56662619D01*
X151057143Y-56662619D02*
X150961905Y-56615000D01*
X150961905Y-56615000D02*
X150914286Y-56567380D01*
X63423227Y-75350000D02*
X63018465Y-75583333D01*
X63423227Y-75750000D02*
X62573227Y-75750000D01*
X62573227Y-75750000D02*
X62573227Y-75483333D01*
X62573227Y-75483333D02*
X62613703Y-75416667D01*
X62613703Y-75416667D02*
X62654179Y-75383333D01*
X62654179Y-75383333D02*
X62735131Y-75350000D01*
X62735131Y-75350000D02*
X62856560Y-75350000D01*
X62856560Y-75350000D02*
X62937512Y-75383333D01*
X62937512Y-75383333D02*
X62977989Y-75416667D01*
X62977989Y-75416667D02*
X63018465Y-75483333D01*
X63018465Y-75483333D02*
X63018465Y-75750000D01*
X62654179Y-75083333D02*
X62613703Y-75050000D01*
X62613703Y-75050000D02*
X62573227Y-74983333D01*
X62573227Y-74983333D02*
X62573227Y-74816667D01*
X62573227Y-74816667D02*
X62613703Y-74750000D01*
X62613703Y-74750000D02*
X62654179Y-74716667D01*
X62654179Y-74716667D02*
X62735131Y-74683333D01*
X62735131Y-74683333D02*
X62816084Y-74683333D01*
X62816084Y-74683333D02*
X62937512Y-74716667D01*
X62937512Y-74716667D02*
X63423227Y-75116667D01*
X63423227Y-75116667D02*
X63423227Y-74683333D01*
X62937512Y-74283333D02*
X62897036Y-74350000D01*
X62897036Y-74350000D02*
X62856560Y-74383333D01*
X62856560Y-74383333D02*
X62775608Y-74416666D01*
X62775608Y-74416666D02*
X62735131Y-74416666D01*
X62735131Y-74416666D02*
X62654179Y-74383333D01*
X62654179Y-74383333D02*
X62613703Y-74350000D01*
X62613703Y-74350000D02*
X62573227Y-74283333D01*
X62573227Y-74283333D02*
X62573227Y-74150000D01*
X62573227Y-74150000D02*
X62613703Y-74083333D01*
X62613703Y-74083333D02*
X62654179Y-74050000D01*
X62654179Y-74050000D02*
X62735131Y-74016666D01*
X62735131Y-74016666D02*
X62775608Y-74016666D01*
X62775608Y-74016666D02*
X62856560Y-74050000D01*
X62856560Y-74050000D02*
X62897036Y-74083333D01*
X62897036Y-74083333D02*
X62937512Y-74150000D01*
X62937512Y-74150000D02*
X62937512Y-74283333D01*
X62937512Y-74283333D02*
X62977989Y-74350000D01*
X62977989Y-74350000D02*
X63018465Y-74383333D01*
X63018465Y-74383333D02*
X63099417Y-74416666D01*
X63099417Y-74416666D02*
X63261322Y-74416666D01*
X63261322Y-74416666D02*
X63342274Y-74383333D01*
X63342274Y-74383333D02*
X63382751Y-74350000D01*
X63382751Y-74350000D02*
X63423227Y-74283333D01*
X63423227Y-74283333D02*
X63423227Y-74150000D01*
X63423227Y-74150000D02*
X63382751Y-74083333D01*
X63382751Y-74083333D02*
X63342274Y-74050000D01*
X63342274Y-74050000D02*
X63261322Y-74016666D01*
X63261322Y-74016666D02*
X63099417Y-74016666D01*
X63099417Y-74016666D02*
X63018465Y-74050000D01*
X63018465Y-74050000D02*
X62977989Y-74083333D01*
X62977989Y-74083333D02*
X62937512Y-74150000D01*
X119399999Y-53433227D02*
X119399999Y-52583227D01*
X119399999Y-52583227D02*
X119566666Y-52583227D01*
X119566666Y-52583227D02*
X119666666Y-52623703D01*
X119666666Y-52623703D02*
X119733333Y-52704655D01*
X119733333Y-52704655D02*
X119766666Y-52785608D01*
X119766666Y-52785608D02*
X119799999Y-52947512D01*
X119799999Y-52947512D02*
X119799999Y-53068941D01*
X119799999Y-53068941D02*
X119766666Y-53230846D01*
X119766666Y-53230846D02*
X119733333Y-53311798D01*
X119733333Y-53311798D02*
X119666666Y-53392751D01*
X119666666Y-53392751D02*
X119566666Y-53433227D01*
X119566666Y-53433227D02*
X119399999Y-53433227D01*
X120466666Y-53433227D02*
X120066666Y-53433227D01*
X120266666Y-53433227D02*
X120266666Y-52583227D01*
X120266666Y-52583227D02*
X120199999Y-52704655D01*
X120199999Y-52704655D02*
X120133333Y-52785608D01*
X120133333Y-52785608D02*
X120066666Y-52826084D01*
X120900000Y-52583227D02*
X120966666Y-52583227D01*
X120966666Y-52583227D02*
X121033333Y-52623703D01*
X121033333Y-52623703D02*
X121066666Y-52664179D01*
X121066666Y-52664179D02*
X121100000Y-52745131D01*
X121100000Y-52745131D02*
X121133333Y-52907036D01*
X121133333Y-52907036D02*
X121133333Y-53109417D01*
X121133333Y-53109417D02*
X121100000Y-53271322D01*
X121100000Y-53271322D02*
X121066666Y-53352274D01*
X121066666Y-53352274D02*
X121033333Y-53392751D01*
X121033333Y-53392751D02*
X120966666Y-53433227D01*
X120966666Y-53433227D02*
X120900000Y-53433227D01*
X120900000Y-53433227D02*
X120833333Y-53392751D01*
X120833333Y-53392751D02*
X120800000Y-53352274D01*
X120800000Y-53352274D02*
X120766666Y-53271322D01*
X120766666Y-53271322D02*
X120733333Y-53109417D01*
X120733333Y-53109417D02*
X120733333Y-52907036D01*
X120733333Y-52907036D02*
X120766666Y-52745131D01*
X120766666Y-52745131D02*
X120800000Y-52664179D01*
X120800000Y-52664179D02*
X120833333Y-52623703D01*
X120833333Y-52623703D02*
X120900000Y-52583227D01*
X140143227Y-48691666D02*
X139738465Y-48924999D01*
X140143227Y-49091666D02*
X139293227Y-49091666D01*
X139293227Y-49091666D02*
X139293227Y-48824999D01*
X139293227Y-48824999D02*
X139333703Y-48758333D01*
X139333703Y-48758333D02*
X139374179Y-48724999D01*
X139374179Y-48724999D02*
X139455131Y-48691666D01*
X139455131Y-48691666D02*
X139576560Y-48691666D01*
X139576560Y-48691666D02*
X139657512Y-48724999D01*
X139657512Y-48724999D02*
X139697989Y-48758333D01*
X139697989Y-48758333D02*
X139738465Y-48824999D01*
X139738465Y-48824999D02*
X139738465Y-49091666D01*
X140143227Y-48358333D02*
X140143227Y-48224999D01*
X140143227Y-48224999D02*
X140102751Y-48158333D01*
X140102751Y-48158333D02*
X140062274Y-48124999D01*
X140062274Y-48124999D02*
X139940846Y-48058333D01*
X139940846Y-48058333D02*
X139778941Y-48024999D01*
X139778941Y-48024999D02*
X139455131Y-48024999D01*
X139455131Y-48024999D02*
X139374179Y-48058333D01*
X139374179Y-48058333D02*
X139333703Y-48091666D01*
X139333703Y-48091666D02*
X139293227Y-48158333D01*
X139293227Y-48158333D02*
X139293227Y-48291666D01*
X139293227Y-48291666D02*
X139333703Y-48358333D01*
X139333703Y-48358333D02*
X139374179Y-48391666D01*
X139374179Y-48391666D02*
X139455131Y-48424999D01*
X139455131Y-48424999D02*
X139657512Y-48424999D01*
X139657512Y-48424999D02*
X139738465Y-48391666D01*
X139738465Y-48391666D02*
X139778941Y-48358333D01*
X139778941Y-48358333D02*
X139819417Y-48291666D01*
X139819417Y-48291666D02*
X139819417Y-48158333D01*
X139819417Y-48158333D02*
X139778941Y-48091666D01*
X139778941Y-48091666D02*
X139738465Y-48058333D01*
X139738465Y-48058333D02*
X139657512Y-48024999D01*
X139918333Y-68859272D02*
X139918333Y-68171177D01*
X139918333Y-68171177D02*
X139885000Y-68090225D01*
X139885000Y-68090225D02*
X139851666Y-68049749D01*
X139851666Y-68049749D02*
X139785000Y-68009272D01*
X139785000Y-68009272D02*
X139651666Y-68009272D01*
X139651666Y-68009272D02*
X139585000Y-68049749D01*
X139585000Y-68049749D02*
X139551666Y-68090225D01*
X139551666Y-68090225D02*
X139518333Y-68171177D01*
X139518333Y-68171177D02*
X139518333Y-68859272D01*
X138885000Y-68859272D02*
X139018333Y-68859272D01*
X139018333Y-68859272D02*
X139085000Y-68818796D01*
X139085000Y-68818796D02*
X139118333Y-68778320D01*
X139118333Y-68778320D02*
X139185000Y-68656891D01*
X139185000Y-68656891D02*
X139218333Y-68494987D01*
X139218333Y-68494987D02*
X139218333Y-68171177D01*
X139218333Y-68171177D02*
X139185000Y-68090225D01*
X139185000Y-68090225D02*
X139151667Y-68049749D01*
X139151667Y-68049749D02*
X139085000Y-68009272D01*
X139085000Y-68009272D02*
X138951667Y-68009272D01*
X138951667Y-68009272D02*
X138885000Y-68049749D01*
X138885000Y-68049749D02*
X138851667Y-68090225D01*
X138851667Y-68090225D02*
X138818333Y-68171177D01*
X138818333Y-68171177D02*
X138818333Y-68373558D01*
X138818333Y-68373558D02*
X138851667Y-68454510D01*
X138851667Y-68454510D02*
X138885000Y-68494987D01*
X138885000Y-68494987D02*
X138951667Y-68535463D01*
X138951667Y-68535463D02*
X139085000Y-68535463D01*
X139085000Y-68535463D02*
X139151667Y-68494987D01*
X139151667Y-68494987D02*
X139185000Y-68454510D01*
X139185000Y-68454510D02*
X139218333Y-68373558D01*
X122313227Y-59820000D02*
X121908465Y-60053333D01*
X122313227Y-60220000D02*
X121463227Y-60220000D01*
X121463227Y-60220000D02*
X121463227Y-59953333D01*
X121463227Y-59953333D02*
X121503703Y-59886667D01*
X121503703Y-59886667D02*
X121544179Y-59853333D01*
X121544179Y-59853333D02*
X121625131Y-59820000D01*
X121625131Y-59820000D02*
X121746560Y-59820000D01*
X121746560Y-59820000D02*
X121827512Y-59853333D01*
X121827512Y-59853333D02*
X121867989Y-59886667D01*
X121867989Y-59886667D02*
X121908465Y-59953333D01*
X121908465Y-59953333D02*
X121908465Y-60220000D01*
X121544179Y-59553333D02*
X121503703Y-59520000D01*
X121503703Y-59520000D02*
X121463227Y-59453333D01*
X121463227Y-59453333D02*
X121463227Y-59286667D01*
X121463227Y-59286667D02*
X121503703Y-59220000D01*
X121503703Y-59220000D02*
X121544179Y-59186667D01*
X121544179Y-59186667D02*
X121625131Y-59153333D01*
X121625131Y-59153333D02*
X121706084Y-59153333D01*
X121706084Y-59153333D02*
X121827512Y-59186667D01*
X121827512Y-59186667D02*
X122313227Y-59586667D01*
X122313227Y-59586667D02*
X122313227Y-59153333D01*
X122313227Y-58486666D02*
X122313227Y-58886666D01*
X122313227Y-58686666D02*
X121463227Y-58686666D01*
X121463227Y-58686666D02*
X121584655Y-58753333D01*
X121584655Y-58753333D02*
X121665608Y-58820000D01*
X121665608Y-58820000D02*
X121706084Y-58886666D01*
X100193227Y-56250000D02*
X99788465Y-56483333D01*
X100193227Y-56650000D02*
X99343227Y-56650000D01*
X99343227Y-56650000D02*
X99343227Y-56383333D01*
X99343227Y-56383333D02*
X99383703Y-56316667D01*
X99383703Y-56316667D02*
X99424179Y-56283333D01*
X99424179Y-56283333D02*
X99505131Y-56250000D01*
X99505131Y-56250000D02*
X99626560Y-56250000D01*
X99626560Y-56250000D02*
X99707512Y-56283333D01*
X99707512Y-56283333D02*
X99747989Y-56316667D01*
X99747989Y-56316667D02*
X99788465Y-56383333D01*
X99788465Y-56383333D02*
X99788465Y-56650000D01*
X99626560Y-55650000D02*
X100193227Y-55650000D01*
X99302751Y-55816667D02*
X99909893Y-55983333D01*
X99909893Y-55983333D02*
X99909893Y-55550000D01*
X99343227Y-54983333D02*
X99343227Y-55116666D01*
X99343227Y-55116666D02*
X99383703Y-55183333D01*
X99383703Y-55183333D02*
X99424179Y-55216666D01*
X99424179Y-55216666D02*
X99545608Y-55283333D01*
X99545608Y-55283333D02*
X99707512Y-55316666D01*
X99707512Y-55316666D02*
X100031322Y-55316666D01*
X100031322Y-55316666D02*
X100112274Y-55283333D01*
X100112274Y-55283333D02*
X100152751Y-55250000D01*
X100152751Y-55250000D02*
X100193227Y-55183333D01*
X100193227Y-55183333D02*
X100193227Y-55050000D01*
X100193227Y-55050000D02*
X100152751Y-54983333D01*
X100152751Y-54983333D02*
X100112274Y-54950000D01*
X100112274Y-54950000D02*
X100031322Y-54916666D01*
X100031322Y-54916666D02*
X99828941Y-54916666D01*
X99828941Y-54916666D02*
X99747989Y-54950000D01*
X99747989Y-54950000D02*
X99707512Y-54983333D01*
X99707512Y-54983333D02*
X99667036Y-55050000D01*
X99667036Y-55050000D02*
X99667036Y-55183333D01*
X99667036Y-55183333D02*
X99707512Y-55250000D01*
X99707512Y-55250000D02*
X99747989Y-55283333D01*
X99747989Y-55283333D02*
X99828941Y-55316666D01*
X149120504Y-59541126D02*
X148319622Y-59541126D01*
X148319622Y-59541126D02*
X148319622Y-59350440D01*
X148319622Y-59350440D02*
X148357759Y-59236028D01*
X148357759Y-59236028D02*
X148434033Y-59159754D01*
X148434033Y-59159754D02*
X148510308Y-59121617D01*
X148510308Y-59121617D02*
X148662857Y-59083479D01*
X148662857Y-59083479D02*
X148777269Y-59083479D01*
X148777269Y-59083479D02*
X148929818Y-59121617D01*
X148929818Y-59121617D02*
X149006092Y-59159754D01*
X149006092Y-59159754D02*
X149082367Y-59236028D01*
X149082367Y-59236028D02*
X149120504Y-59350440D01*
X149120504Y-59350440D02*
X149120504Y-59541126D01*
X149120504Y-58320735D02*
X149120504Y-58778382D01*
X149120504Y-58549558D02*
X148319622Y-58549558D01*
X148319622Y-58549558D02*
X148434033Y-58625833D01*
X148434033Y-58625833D02*
X148510308Y-58702107D01*
X148510308Y-58702107D02*
X148548445Y-58778382D01*
X61177989Y-78953333D02*
X61177989Y-79186666D01*
X61623227Y-79186666D02*
X60773227Y-79186666D01*
X60773227Y-79186666D02*
X60773227Y-78853333D01*
X60854179Y-78619999D02*
X60813703Y-78586666D01*
X60813703Y-78586666D02*
X60773227Y-78519999D01*
X60773227Y-78519999D02*
X60773227Y-78353333D01*
X60773227Y-78353333D02*
X60813703Y-78286666D01*
X60813703Y-78286666D02*
X60854179Y-78253333D01*
X60854179Y-78253333D02*
X60935131Y-78219999D01*
X60935131Y-78219999D02*
X61016084Y-78219999D01*
X61016084Y-78219999D02*
X61137512Y-78253333D01*
X61137512Y-78253333D02*
X61623227Y-78653333D01*
X61623227Y-78653333D02*
X61623227Y-78219999D01*
X76593227Y-62250000D02*
X76188465Y-62483333D01*
X76593227Y-62650000D02*
X75743227Y-62650000D01*
X75743227Y-62650000D02*
X75743227Y-62383333D01*
X75743227Y-62383333D02*
X75783703Y-62316667D01*
X75783703Y-62316667D02*
X75824179Y-62283333D01*
X75824179Y-62283333D02*
X75905131Y-62250000D01*
X75905131Y-62250000D02*
X76026560Y-62250000D01*
X76026560Y-62250000D02*
X76107512Y-62283333D01*
X76107512Y-62283333D02*
X76147989Y-62316667D01*
X76147989Y-62316667D02*
X76188465Y-62383333D01*
X76188465Y-62383333D02*
X76188465Y-62650000D01*
X76593227Y-61583333D02*
X76593227Y-61983333D01*
X76593227Y-61783333D02*
X75743227Y-61783333D01*
X75743227Y-61783333D02*
X75864655Y-61850000D01*
X75864655Y-61850000D02*
X75945608Y-61916667D01*
X75945608Y-61916667D02*
X75986084Y-61983333D01*
X76593227Y-61250000D02*
X76593227Y-61116666D01*
X76593227Y-61116666D02*
X76552751Y-61050000D01*
X76552751Y-61050000D02*
X76512274Y-61016666D01*
X76512274Y-61016666D02*
X76390846Y-60950000D01*
X76390846Y-60950000D02*
X76228941Y-60916666D01*
X76228941Y-60916666D02*
X75905131Y-60916666D01*
X75905131Y-60916666D02*
X75824179Y-60950000D01*
X75824179Y-60950000D02*
X75783703Y-60983333D01*
X75783703Y-60983333D02*
X75743227Y-61050000D01*
X75743227Y-61050000D02*
X75743227Y-61183333D01*
X75743227Y-61183333D02*
X75783703Y-61250000D01*
X75783703Y-61250000D02*
X75824179Y-61283333D01*
X75824179Y-61283333D02*
X75905131Y-61316666D01*
X75905131Y-61316666D02*
X76107512Y-61316666D01*
X76107512Y-61316666D02*
X76188465Y-61283333D01*
X76188465Y-61283333D02*
X76228941Y-61250000D01*
X76228941Y-61250000D02*
X76269417Y-61183333D01*
X76269417Y-61183333D02*
X76269417Y-61050000D01*
X76269417Y-61050000D02*
X76228941Y-60983333D01*
X76228941Y-60983333D02*
X76188465Y-60950000D01*
X76188465Y-60950000D02*
X76107512Y-60916666D01*
X75099999Y-76412274D02*
X75066666Y-76452751D01*
X75066666Y-76452751D02*
X74966666Y-76493227D01*
X74966666Y-76493227D02*
X74899999Y-76493227D01*
X74899999Y-76493227D02*
X74799999Y-76452751D01*
X74799999Y-76452751D02*
X74733333Y-76371798D01*
X74733333Y-76371798D02*
X74699999Y-76290846D01*
X74699999Y-76290846D02*
X74666666Y-76128941D01*
X74666666Y-76128941D02*
X74666666Y-76007512D01*
X74666666Y-76007512D02*
X74699999Y-75845608D01*
X74699999Y-75845608D02*
X74733333Y-75764655D01*
X74733333Y-75764655D02*
X74799999Y-75683703D01*
X74799999Y-75683703D02*
X74899999Y-75643227D01*
X74899999Y-75643227D02*
X74966666Y-75643227D01*
X74966666Y-75643227D02*
X75066666Y-75683703D01*
X75066666Y-75683703D02*
X75099999Y-75724179D01*
X75366666Y-75724179D02*
X75399999Y-75683703D01*
X75399999Y-75683703D02*
X75466666Y-75643227D01*
X75466666Y-75643227D02*
X75633333Y-75643227D01*
X75633333Y-75643227D02*
X75699999Y-75683703D01*
X75699999Y-75683703D02*
X75733333Y-75724179D01*
X75733333Y-75724179D02*
X75766666Y-75805131D01*
X75766666Y-75805131D02*
X75766666Y-75886084D01*
X75766666Y-75886084D02*
X75733333Y-76007512D01*
X75733333Y-76007512D02*
X75333333Y-76493227D01*
X75333333Y-76493227D02*
X75766666Y-76493227D01*
X76433333Y-76493227D02*
X76033333Y-76493227D01*
X76233333Y-76493227D02*
X76233333Y-75643227D01*
X76233333Y-75643227D02*
X76166666Y-75764655D01*
X76166666Y-75764655D02*
X76100000Y-75845608D01*
X76100000Y-75845608D02*
X76033333Y-75886084D01*
X93949999Y-52393227D02*
X93716666Y-51988465D01*
X93549999Y-52393227D02*
X93549999Y-51543227D01*
X93549999Y-51543227D02*
X93816666Y-51543227D01*
X93816666Y-51543227D02*
X93883333Y-51583703D01*
X93883333Y-51583703D02*
X93916666Y-51624179D01*
X93916666Y-51624179D02*
X93949999Y-51705131D01*
X93949999Y-51705131D02*
X93949999Y-51826560D01*
X93949999Y-51826560D02*
X93916666Y-51907512D01*
X93916666Y-51907512D02*
X93883333Y-51947989D01*
X93883333Y-51947989D02*
X93816666Y-51988465D01*
X93816666Y-51988465D02*
X93549999Y-51988465D01*
X94549999Y-51826560D02*
X94549999Y-52393227D01*
X94383333Y-51502751D02*
X94216666Y-52109893D01*
X94216666Y-52109893D02*
X94649999Y-52109893D01*
X95250000Y-51543227D02*
X94916666Y-51543227D01*
X94916666Y-51543227D02*
X94883333Y-51947989D01*
X94883333Y-51947989D02*
X94916666Y-51907512D01*
X94916666Y-51907512D02*
X94983333Y-51867036D01*
X94983333Y-51867036D02*
X95150000Y-51867036D01*
X95150000Y-51867036D02*
X95216666Y-51907512D01*
X95216666Y-51907512D02*
X95250000Y-51947989D01*
X95250000Y-51947989D02*
X95283333Y-52028941D01*
X95283333Y-52028941D02*
X95283333Y-52231322D01*
X95283333Y-52231322D02*
X95250000Y-52312274D01*
X95250000Y-52312274D02*
X95216666Y-52352751D01*
X95216666Y-52352751D02*
X95150000Y-52393227D01*
X95150000Y-52393227D02*
X94983333Y-52393227D01*
X94983333Y-52393227D02*
X94916666Y-52352751D01*
X94916666Y-52352751D02*
X94883333Y-52312274D01*
X75149999Y-77562274D02*
X75116666Y-77602751D01*
X75116666Y-77602751D02*
X75016666Y-77643227D01*
X75016666Y-77643227D02*
X74949999Y-77643227D01*
X74949999Y-77643227D02*
X74849999Y-77602751D01*
X74849999Y-77602751D02*
X74783333Y-77521798D01*
X74783333Y-77521798D02*
X74749999Y-77440846D01*
X74749999Y-77440846D02*
X74716666Y-77278941D01*
X74716666Y-77278941D02*
X74716666Y-77157512D01*
X74716666Y-77157512D02*
X74749999Y-76995608D01*
X74749999Y-76995608D02*
X74783333Y-76914655D01*
X74783333Y-76914655D02*
X74849999Y-76833703D01*
X74849999Y-76833703D02*
X74949999Y-76793227D01*
X74949999Y-76793227D02*
X75016666Y-76793227D01*
X75016666Y-76793227D02*
X75116666Y-76833703D01*
X75116666Y-76833703D02*
X75149999Y-76874179D01*
X75416666Y-76874179D02*
X75449999Y-76833703D01*
X75449999Y-76833703D02*
X75516666Y-76793227D01*
X75516666Y-76793227D02*
X75683333Y-76793227D01*
X75683333Y-76793227D02*
X75749999Y-76833703D01*
X75749999Y-76833703D02*
X75783333Y-76874179D01*
X75783333Y-76874179D02*
X75816666Y-76955131D01*
X75816666Y-76955131D02*
X75816666Y-77036084D01*
X75816666Y-77036084D02*
X75783333Y-77157512D01*
X75783333Y-77157512D02*
X75383333Y-77643227D01*
X75383333Y-77643227D02*
X75816666Y-77643227D01*
X76050000Y-76793227D02*
X76483333Y-76793227D01*
X76483333Y-76793227D02*
X76250000Y-77117036D01*
X76250000Y-77117036D02*
X76350000Y-77117036D01*
X76350000Y-77117036D02*
X76416666Y-77157512D01*
X76416666Y-77157512D02*
X76450000Y-77197989D01*
X76450000Y-77197989D02*
X76483333Y-77278941D01*
X76483333Y-77278941D02*
X76483333Y-77481322D01*
X76483333Y-77481322D02*
X76450000Y-77562274D01*
X76450000Y-77562274D02*
X76416666Y-77602751D01*
X76416666Y-77602751D02*
X76350000Y-77643227D01*
X76350000Y-77643227D02*
X76150000Y-77643227D01*
X76150000Y-77643227D02*
X76083333Y-77602751D01*
X76083333Y-77602751D02*
X76050000Y-77562274D01*
X110443227Y-88026666D02*
X110038465Y-88259999D01*
X110443227Y-88426666D02*
X109593227Y-88426666D01*
X109593227Y-88426666D02*
X109593227Y-88159999D01*
X109593227Y-88159999D02*
X109633703Y-88093333D01*
X109633703Y-88093333D02*
X109674179Y-88059999D01*
X109674179Y-88059999D02*
X109755131Y-88026666D01*
X109755131Y-88026666D02*
X109876560Y-88026666D01*
X109876560Y-88026666D02*
X109957512Y-88059999D01*
X109957512Y-88059999D02*
X109997989Y-88093333D01*
X109997989Y-88093333D02*
X110038465Y-88159999D01*
X110038465Y-88159999D02*
X110038465Y-88426666D01*
X109674179Y-87759999D02*
X109633703Y-87726666D01*
X109633703Y-87726666D02*
X109593227Y-87659999D01*
X109593227Y-87659999D02*
X109593227Y-87493333D01*
X109593227Y-87493333D02*
X109633703Y-87426666D01*
X109633703Y-87426666D02*
X109674179Y-87393333D01*
X109674179Y-87393333D02*
X109755131Y-87359999D01*
X109755131Y-87359999D02*
X109836084Y-87359999D01*
X109836084Y-87359999D02*
X109957512Y-87393333D01*
X109957512Y-87393333D02*
X110443227Y-87793333D01*
X110443227Y-87793333D02*
X110443227Y-87359999D01*
X119346666Y-63852751D02*
X119446666Y-63893227D01*
X119446666Y-63893227D02*
X119613333Y-63893227D01*
X119613333Y-63893227D02*
X119679999Y-63852751D01*
X119679999Y-63852751D02*
X119713333Y-63812274D01*
X119713333Y-63812274D02*
X119746666Y-63731322D01*
X119746666Y-63731322D02*
X119746666Y-63650370D01*
X119746666Y-63650370D02*
X119713333Y-63569417D01*
X119713333Y-63569417D02*
X119679999Y-63528941D01*
X119679999Y-63528941D02*
X119613333Y-63488465D01*
X119613333Y-63488465D02*
X119479999Y-63447989D01*
X119479999Y-63447989D02*
X119413333Y-63407512D01*
X119413333Y-63407512D02*
X119379999Y-63367036D01*
X119379999Y-63367036D02*
X119346666Y-63286084D01*
X119346666Y-63286084D02*
X119346666Y-63205131D01*
X119346666Y-63205131D02*
X119379999Y-63124179D01*
X119379999Y-63124179D02*
X119413333Y-63083703D01*
X119413333Y-63083703D02*
X119479999Y-63043227D01*
X119479999Y-63043227D02*
X119646666Y-63043227D01*
X119646666Y-63043227D02*
X119746666Y-63083703D01*
X119980000Y-63043227D02*
X120146666Y-63893227D01*
X120146666Y-63893227D02*
X120280000Y-63286084D01*
X120280000Y-63286084D02*
X120413333Y-63893227D01*
X120413333Y-63893227D02*
X120580000Y-63043227D01*
X120813333Y-63124179D02*
X120846666Y-63083703D01*
X120846666Y-63083703D02*
X120913333Y-63043227D01*
X120913333Y-63043227D02*
X121080000Y-63043227D01*
X121080000Y-63043227D02*
X121146666Y-63083703D01*
X121146666Y-63083703D02*
X121180000Y-63124179D01*
X121180000Y-63124179D02*
X121213333Y-63205131D01*
X121213333Y-63205131D02*
X121213333Y-63286084D01*
X121213333Y-63286084D02*
X121180000Y-63407512D01*
X121180000Y-63407512D02*
X120780000Y-63893227D01*
X120780000Y-63893227D02*
X121213333Y-63893227D01*
X98141274Y-50496666D02*
X98181751Y-50529999D01*
X98181751Y-50529999D02*
X98222227Y-50629999D01*
X98222227Y-50629999D02*
X98222227Y-50696666D01*
X98222227Y-50696666D02*
X98181751Y-50796666D01*
X98181751Y-50796666D02*
X98100798Y-50863333D01*
X98100798Y-50863333D02*
X98019846Y-50896666D01*
X98019846Y-50896666D02*
X97857941Y-50929999D01*
X97857941Y-50929999D02*
X97736512Y-50929999D01*
X97736512Y-50929999D02*
X97574608Y-50896666D01*
X97574608Y-50896666D02*
X97493655Y-50863333D01*
X97493655Y-50863333D02*
X97412703Y-50796666D01*
X97412703Y-50796666D02*
X97372227Y-50696666D01*
X97372227Y-50696666D02*
X97372227Y-50629999D01*
X97372227Y-50629999D02*
X97412703Y-50529999D01*
X97412703Y-50529999D02*
X97453179Y-50496666D01*
X97372227Y-50263333D02*
X97372227Y-49796666D01*
X97372227Y-49796666D02*
X98222227Y-50096666D01*
X74313227Y-60250000D02*
X73908465Y-60483333D01*
X74313227Y-60650000D02*
X73463227Y-60650000D01*
X73463227Y-60650000D02*
X73463227Y-60383333D01*
X73463227Y-60383333D02*
X73503703Y-60316667D01*
X73503703Y-60316667D02*
X73544179Y-60283333D01*
X73544179Y-60283333D02*
X73625131Y-60250000D01*
X73625131Y-60250000D02*
X73746560Y-60250000D01*
X73746560Y-60250000D02*
X73827512Y-60283333D01*
X73827512Y-60283333D02*
X73867989Y-60316667D01*
X73867989Y-60316667D02*
X73908465Y-60383333D01*
X73908465Y-60383333D02*
X73908465Y-60650000D01*
X74313227Y-59583333D02*
X74313227Y-59983333D01*
X74313227Y-59783333D02*
X73463227Y-59783333D01*
X73463227Y-59783333D02*
X73584655Y-59850000D01*
X73584655Y-59850000D02*
X73665608Y-59916667D01*
X73665608Y-59916667D02*
X73706084Y-59983333D01*
X73463227Y-59150000D02*
X73463227Y-59083333D01*
X73463227Y-59083333D02*
X73503703Y-59016666D01*
X73503703Y-59016666D02*
X73544179Y-58983333D01*
X73544179Y-58983333D02*
X73625131Y-58950000D01*
X73625131Y-58950000D02*
X73787036Y-58916666D01*
X73787036Y-58916666D02*
X73989417Y-58916666D01*
X73989417Y-58916666D02*
X74151322Y-58950000D01*
X74151322Y-58950000D02*
X74232274Y-58983333D01*
X74232274Y-58983333D02*
X74272751Y-59016666D01*
X74272751Y-59016666D02*
X74313227Y-59083333D01*
X74313227Y-59083333D02*
X74313227Y-59150000D01*
X74313227Y-59150000D02*
X74272751Y-59216666D01*
X74272751Y-59216666D02*
X74232274Y-59250000D01*
X74232274Y-59250000D02*
X74151322Y-59283333D01*
X74151322Y-59283333D02*
X73989417Y-59316666D01*
X73989417Y-59316666D02*
X73787036Y-59316666D01*
X73787036Y-59316666D02*
X73625131Y-59283333D01*
X73625131Y-59283333D02*
X73544179Y-59250000D01*
X73544179Y-59250000D02*
X73503703Y-59216666D01*
X73503703Y-59216666D02*
X73463227Y-59150000D01*
X109323227Y-73170000D02*
X108918465Y-73403333D01*
X109323227Y-73570000D02*
X108473227Y-73570000D01*
X108473227Y-73570000D02*
X108473227Y-73303333D01*
X108473227Y-73303333D02*
X108513703Y-73236667D01*
X108513703Y-73236667D02*
X108554179Y-73203333D01*
X108554179Y-73203333D02*
X108635131Y-73170000D01*
X108635131Y-73170000D02*
X108756560Y-73170000D01*
X108756560Y-73170000D02*
X108837512Y-73203333D01*
X108837512Y-73203333D02*
X108877989Y-73236667D01*
X108877989Y-73236667D02*
X108918465Y-73303333D01*
X108918465Y-73303333D02*
X108918465Y-73570000D01*
X108473227Y-72936667D02*
X108473227Y-72503333D01*
X108473227Y-72503333D02*
X108797036Y-72736667D01*
X108797036Y-72736667D02*
X108797036Y-72636667D01*
X108797036Y-72636667D02*
X108837512Y-72570000D01*
X108837512Y-72570000D02*
X108877989Y-72536667D01*
X108877989Y-72536667D02*
X108958941Y-72503333D01*
X108958941Y-72503333D02*
X109161322Y-72503333D01*
X109161322Y-72503333D02*
X109242274Y-72536667D01*
X109242274Y-72536667D02*
X109282751Y-72570000D01*
X109282751Y-72570000D02*
X109323227Y-72636667D01*
X109323227Y-72636667D02*
X109323227Y-72836667D01*
X109323227Y-72836667D02*
X109282751Y-72903333D01*
X109282751Y-72903333D02*
X109242274Y-72936667D01*
X108473227Y-72270000D02*
X108473227Y-71836666D01*
X108473227Y-71836666D02*
X108797036Y-72070000D01*
X108797036Y-72070000D02*
X108797036Y-71970000D01*
X108797036Y-71970000D02*
X108837512Y-71903333D01*
X108837512Y-71903333D02*
X108877989Y-71870000D01*
X108877989Y-71870000D02*
X108958941Y-71836666D01*
X108958941Y-71836666D02*
X109161322Y-71836666D01*
X109161322Y-71836666D02*
X109242274Y-71870000D01*
X109242274Y-71870000D02*
X109282751Y-71903333D01*
X109282751Y-71903333D02*
X109323227Y-71970000D01*
X109323227Y-71970000D02*
X109323227Y-72170000D01*
X109323227Y-72170000D02*
X109282751Y-72236666D01*
X109282751Y-72236666D02*
X109242274Y-72270000D01*
X70239999Y-53393227D02*
X70006666Y-52988465D01*
X69839999Y-53393227D02*
X69839999Y-52543227D01*
X69839999Y-52543227D02*
X70106666Y-52543227D01*
X70106666Y-52543227D02*
X70173333Y-52583703D01*
X70173333Y-52583703D02*
X70206666Y-52624179D01*
X70206666Y-52624179D02*
X70239999Y-52705131D01*
X70239999Y-52705131D02*
X70239999Y-52826560D01*
X70239999Y-52826560D02*
X70206666Y-52907512D01*
X70206666Y-52907512D02*
X70173333Y-52947989D01*
X70173333Y-52947989D02*
X70106666Y-52988465D01*
X70106666Y-52988465D02*
X69839999Y-52988465D01*
X70839999Y-52826560D02*
X70839999Y-53393227D01*
X70673333Y-52502751D02*
X70506666Y-53109893D01*
X70506666Y-53109893D02*
X70939999Y-53109893D01*
X71573333Y-53393227D02*
X71173333Y-53393227D01*
X71373333Y-53393227D02*
X71373333Y-52543227D01*
X71373333Y-52543227D02*
X71306666Y-52664655D01*
X71306666Y-52664655D02*
X71240000Y-52745608D01*
X71240000Y-52745608D02*
X71173333Y-52786084D01*
X64179999Y-77433227D02*
X63946666Y-77028465D01*
X63779999Y-77433227D02*
X63779999Y-76583227D01*
X63779999Y-76583227D02*
X64046666Y-76583227D01*
X64046666Y-76583227D02*
X64113333Y-76623703D01*
X64113333Y-76623703D02*
X64146666Y-76664179D01*
X64146666Y-76664179D02*
X64179999Y-76745131D01*
X64179999Y-76745131D02*
X64179999Y-76866560D01*
X64179999Y-76866560D02*
X64146666Y-76947512D01*
X64146666Y-76947512D02*
X64113333Y-76987989D01*
X64113333Y-76987989D02*
X64046666Y-77028465D01*
X64046666Y-77028465D02*
X63779999Y-77028465D01*
X64446666Y-76664179D02*
X64479999Y-76623703D01*
X64479999Y-76623703D02*
X64546666Y-76583227D01*
X64546666Y-76583227D02*
X64713333Y-76583227D01*
X64713333Y-76583227D02*
X64779999Y-76623703D01*
X64779999Y-76623703D02*
X64813333Y-76664179D01*
X64813333Y-76664179D02*
X64846666Y-76745131D01*
X64846666Y-76745131D02*
X64846666Y-76826084D01*
X64846666Y-76826084D02*
X64813333Y-76947512D01*
X64813333Y-76947512D02*
X64413333Y-77433227D01*
X64413333Y-77433227D02*
X64846666Y-77433227D01*
X65180000Y-77433227D02*
X65313333Y-77433227D01*
X65313333Y-77433227D02*
X65380000Y-77392751D01*
X65380000Y-77392751D02*
X65413333Y-77352274D01*
X65413333Y-77352274D02*
X65480000Y-77230846D01*
X65480000Y-77230846D02*
X65513333Y-77068941D01*
X65513333Y-77068941D02*
X65513333Y-76745131D01*
X65513333Y-76745131D02*
X65480000Y-76664179D01*
X65480000Y-76664179D02*
X65446666Y-76623703D01*
X65446666Y-76623703D02*
X65380000Y-76583227D01*
X65380000Y-76583227D02*
X65246666Y-76583227D01*
X65246666Y-76583227D02*
X65180000Y-76623703D01*
X65180000Y-76623703D02*
X65146666Y-76664179D01*
X65146666Y-76664179D02*
X65113333Y-76745131D01*
X65113333Y-76745131D02*
X65113333Y-76947512D01*
X65113333Y-76947512D02*
X65146666Y-77028465D01*
X65146666Y-77028465D02*
X65180000Y-77068941D01*
X65180000Y-77068941D02*
X65246666Y-77109417D01*
X65246666Y-77109417D02*
X65380000Y-77109417D01*
X65380000Y-77109417D02*
X65446666Y-77068941D01*
X65446666Y-77068941D02*
X65480000Y-77028465D01*
X65480000Y-77028465D02*
X65513333Y-76947512D01*
X61283333Y-57993227D02*
X61283333Y-57143227D01*
X61283333Y-57143227D02*
X61450000Y-57143227D01*
X61450000Y-57143227D02*
X61550000Y-57183703D01*
X61550000Y-57183703D02*
X61616667Y-57264655D01*
X61616667Y-57264655D02*
X61650000Y-57345608D01*
X61650000Y-57345608D02*
X61683333Y-57507512D01*
X61683333Y-57507512D02*
X61683333Y-57628941D01*
X61683333Y-57628941D02*
X61650000Y-57790846D01*
X61650000Y-57790846D02*
X61616667Y-57871798D01*
X61616667Y-57871798D02*
X61550000Y-57952751D01*
X61550000Y-57952751D02*
X61450000Y-57993227D01*
X61450000Y-57993227D02*
X61283333Y-57993227D01*
X62283333Y-57143227D02*
X62150000Y-57143227D01*
X62150000Y-57143227D02*
X62083333Y-57183703D01*
X62083333Y-57183703D02*
X62050000Y-57224179D01*
X62050000Y-57224179D02*
X61983333Y-57345608D01*
X61983333Y-57345608D02*
X61950000Y-57507512D01*
X61950000Y-57507512D02*
X61950000Y-57831322D01*
X61950000Y-57831322D02*
X61983333Y-57912274D01*
X61983333Y-57912274D02*
X62016667Y-57952751D01*
X62016667Y-57952751D02*
X62083333Y-57993227D01*
X62083333Y-57993227D02*
X62216667Y-57993227D01*
X62216667Y-57993227D02*
X62283333Y-57952751D01*
X62283333Y-57952751D02*
X62316667Y-57912274D01*
X62316667Y-57912274D02*
X62350000Y-57831322D01*
X62350000Y-57831322D02*
X62350000Y-57628941D01*
X62350000Y-57628941D02*
X62316667Y-57547989D01*
X62316667Y-57547989D02*
X62283333Y-57507512D01*
X62283333Y-57507512D02*
X62216667Y-57467036D01*
X62216667Y-57467036D02*
X62083333Y-57467036D01*
X62083333Y-57467036D02*
X62016667Y-57507512D01*
X62016667Y-57507512D02*
X61983333Y-57547989D01*
X61983333Y-57547989D02*
X61950000Y-57628941D01*
X112783333Y-55613227D02*
X112783333Y-54763227D01*
X112783333Y-54763227D02*
X112950000Y-54763227D01*
X112950000Y-54763227D02*
X113050000Y-54803703D01*
X113050000Y-54803703D02*
X113116667Y-54884655D01*
X113116667Y-54884655D02*
X113150000Y-54965608D01*
X113150000Y-54965608D02*
X113183333Y-55127512D01*
X113183333Y-55127512D02*
X113183333Y-55248941D01*
X113183333Y-55248941D02*
X113150000Y-55410846D01*
X113150000Y-55410846D02*
X113116667Y-55491798D01*
X113116667Y-55491798D02*
X113050000Y-55572751D01*
X113050000Y-55572751D02*
X112950000Y-55613227D01*
X112950000Y-55613227D02*
X112783333Y-55613227D01*
X113516667Y-55613227D02*
X113650000Y-55613227D01*
X113650000Y-55613227D02*
X113716667Y-55572751D01*
X113716667Y-55572751D02*
X113750000Y-55532274D01*
X113750000Y-55532274D02*
X113816667Y-55410846D01*
X113816667Y-55410846D02*
X113850000Y-55248941D01*
X113850000Y-55248941D02*
X113850000Y-54925131D01*
X113850000Y-54925131D02*
X113816667Y-54844179D01*
X113816667Y-54844179D02*
X113783333Y-54803703D01*
X113783333Y-54803703D02*
X113716667Y-54763227D01*
X113716667Y-54763227D02*
X113583333Y-54763227D01*
X113583333Y-54763227D02*
X113516667Y-54803703D01*
X113516667Y-54803703D02*
X113483333Y-54844179D01*
X113483333Y-54844179D02*
X113450000Y-54925131D01*
X113450000Y-54925131D02*
X113450000Y-55127512D01*
X113450000Y-55127512D02*
X113483333Y-55208465D01*
X113483333Y-55208465D02*
X113516667Y-55248941D01*
X113516667Y-55248941D02*
X113583333Y-55289417D01*
X113583333Y-55289417D02*
X113716667Y-55289417D01*
X113716667Y-55289417D02*
X113783333Y-55248941D01*
X113783333Y-55248941D02*
X113816667Y-55208465D01*
X113816667Y-55208465D02*
X113850000Y-55127512D01*
X107403227Y-73230000D02*
X106998465Y-73463333D01*
X107403227Y-73630000D02*
X106553227Y-73630000D01*
X106553227Y-73630000D02*
X106553227Y-73363333D01*
X106553227Y-73363333D02*
X106593703Y-73296667D01*
X106593703Y-73296667D02*
X106634179Y-73263333D01*
X106634179Y-73263333D02*
X106715131Y-73230000D01*
X106715131Y-73230000D02*
X106836560Y-73230000D01*
X106836560Y-73230000D02*
X106917512Y-73263333D01*
X106917512Y-73263333D02*
X106957989Y-73296667D01*
X106957989Y-73296667D02*
X106998465Y-73363333D01*
X106998465Y-73363333D02*
X106998465Y-73630000D01*
X106553227Y-72996667D02*
X106553227Y-72563333D01*
X106553227Y-72563333D02*
X106877036Y-72796667D01*
X106877036Y-72796667D02*
X106877036Y-72696667D01*
X106877036Y-72696667D02*
X106917512Y-72630000D01*
X106917512Y-72630000D02*
X106957989Y-72596667D01*
X106957989Y-72596667D02*
X107038941Y-72563333D01*
X107038941Y-72563333D02*
X107241322Y-72563333D01*
X107241322Y-72563333D02*
X107322274Y-72596667D01*
X107322274Y-72596667D02*
X107362751Y-72630000D01*
X107362751Y-72630000D02*
X107403227Y-72696667D01*
X107403227Y-72696667D02*
X107403227Y-72896667D01*
X107403227Y-72896667D02*
X107362751Y-72963333D01*
X107362751Y-72963333D02*
X107322274Y-72996667D01*
X106634179Y-72296666D02*
X106593703Y-72263333D01*
X106593703Y-72263333D02*
X106553227Y-72196666D01*
X106553227Y-72196666D02*
X106553227Y-72030000D01*
X106553227Y-72030000D02*
X106593703Y-71963333D01*
X106593703Y-71963333D02*
X106634179Y-71930000D01*
X106634179Y-71930000D02*
X106715131Y-71896666D01*
X106715131Y-71896666D02*
X106796084Y-71896666D01*
X106796084Y-71896666D02*
X106917512Y-71930000D01*
X106917512Y-71930000D02*
X107403227Y-72330000D01*
X107403227Y-72330000D02*
X107403227Y-71896666D01*
X143949999Y-58893227D02*
X143716666Y-58488465D01*
X143549999Y-58893227D02*
X143549999Y-58043227D01*
X143549999Y-58043227D02*
X143816666Y-58043227D01*
X143816666Y-58043227D02*
X143883333Y-58083703D01*
X143883333Y-58083703D02*
X143916666Y-58124179D01*
X143916666Y-58124179D02*
X143949999Y-58205131D01*
X143949999Y-58205131D02*
X143949999Y-58326560D01*
X143949999Y-58326560D02*
X143916666Y-58407512D01*
X143916666Y-58407512D02*
X143883333Y-58447989D01*
X143883333Y-58447989D02*
X143816666Y-58488465D01*
X143816666Y-58488465D02*
X143549999Y-58488465D01*
X144183333Y-58043227D02*
X144616666Y-58043227D01*
X144616666Y-58043227D02*
X144383333Y-58367036D01*
X144383333Y-58367036D02*
X144483333Y-58367036D01*
X144483333Y-58367036D02*
X144549999Y-58407512D01*
X144549999Y-58407512D02*
X144583333Y-58447989D01*
X144583333Y-58447989D02*
X144616666Y-58528941D01*
X144616666Y-58528941D02*
X144616666Y-58731322D01*
X144616666Y-58731322D02*
X144583333Y-58812274D01*
X144583333Y-58812274D02*
X144549999Y-58852751D01*
X144549999Y-58852751D02*
X144483333Y-58893227D01*
X144483333Y-58893227D02*
X144283333Y-58893227D01*
X144283333Y-58893227D02*
X144216666Y-58852751D01*
X144216666Y-58852751D02*
X144183333Y-58812274D01*
X145016666Y-58407512D02*
X144950000Y-58367036D01*
X144950000Y-58367036D02*
X144916666Y-58326560D01*
X144916666Y-58326560D02*
X144883333Y-58245608D01*
X144883333Y-58245608D02*
X144883333Y-58205131D01*
X144883333Y-58205131D02*
X144916666Y-58124179D01*
X144916666Y-58124179D02*
X144950000Y-58083703D01*
X144950000Y-58083703D02*
X145016666Y-58043227D01*
X145016666Y-58043227D02*
X145150000Y-58043227D01*
X145150000Y-58043227D02*
X145216666Y-58083703D01*
X145216666Y-58083703D02*
X145250000Y-58124179D01*
X145250000Y-58124179D02*
X145283333Y-58205131D01*
X145283333Y-58205131D02*
X145283333Y-58245608D01*
X145283333Y-58245608D02*
X145250000Y-58326560D01*
X145250000Y-58326560D02*
X145216666Y-58367036D01*
X145216666Y-58367036D02*
X145150000Y-58407512D01*
X145150000Y-58407512D02*
X145016666Y-58407512D01*
X145016666Y-58407512D02*
X144950000Y-58447989D01*
X144950000Y-58447989D02*
X144916666Y-58488465D01*
X144916666Y-58488465D02*
X144883333Y-58569417D01*
X144883333Y-58569417D02*
X144883333Y-58731322D01*
X144883333Y-58731322D02*
X144916666Y-58812274D01*
X144916666Y-58812274D02*
X144950000Y-58852751D01*
X144950000Y-58852751D02*
X145016666Y-58893227D01*
X145016666Y-58893227D02*
X145150000Y-58893227D01*
X145150000Y-58893227D02*
X145216666Y-58852751D01*
X145216666Y-58852751D02*
X145250000Y-58812274D01*
X145250000Y-58812274D02*
X145283333Y-58731322D01*
X145283333Y-58731322D02*
X145283333Y-58569417D01*
X145283333Y-58569417D02*
X145250000Y-58488465D01*
X145250000Y-58488465D02*
X145216666Y-58447989D01*
X145216666Y-58447989D02*
X145150000Y-58407512D01*
X102269999Y-55643227D02*
X102269999Y-54793227D01*
X102269999Y-54793227D02*
X102436666Y-54793227D01*
X102436666Y-54793227D02*
X102536666Y-54833703D01*
X102536666Y-54833703D02*
X102603333Y-54914655D01*
X102603333Y-54914655D02*
X102636666Y-54995608D01*
X102636666Y-54995608D02*
X102669999Y-55157512D01*
X102669999Y-55157512D02*
X102669999Y-55278941D01*
X102669999Y-55278941D02*
X102636666Y-55440846D01*
X102636666Y-55440846D02*
X102603333Y-55521798D01*
X102603333Y-55521798D02*
X102536666Y-55602751D01*
X102536666Y-55602751D02*
X102436666Y-55643227D01*
X102436666Y-55643227D02*
X102269999Y-55643227D01*
X103336666Y-55643227D02*
X102936666Y-55643227D01*
X103136666Y-55643227D02*
X103136666Y-54793227D01*
X103136666Y-54793227D02*
X103069999Y-54914655D01*
X103069999Y-54914655D02*
X103003333Y-54995608D01*
X103003333Y-54995608D02*
X102936666Y-55036084D01*
X103936666Y-55076560D02*
X103936666Y-55643227D01*
X103770000Y-54752751D02*
X103603333Y-55359893D01*
X103603333Y-55359893D02*
X104036666Y-55359893D01*
X129116666Y-78543227D02*
X129116666Y-79150370D01*
X129116666Y-79150370D02*
X129083333Y-79271798D01*
X129083333Y-79271798D02*
X129016666Y-79352751D01*
X129016666Y-79352751D02*
X128916666Y-79393227D01*
X128916666Y-79393227D02*
X128850000Y-79393227D01*
X129449999Y-79393227D02*
X129449999Y-78543227D01*
X129449999Y-78543227D02*
X129716666Y-78543227D01*
X129716666Y-78543227D02*
X129783333Y-78583703D01*
X129783333Y-78583703D02*
X129816666Y-78624179D01*
X129816666Y-78624179D02*
X129849999Y-78705131D01*
X129849999Y-78705131D02*
X129849999Y-78826560D01*
X129849999Y-78826560D02*
X129816666Y-78907512D01*
X129816666Y-78907512D02*
X129783333Y-78947989D01*
X129783333Y-78947989D02*
X129716666Y-78988465D01*
X129716666Y-78988465D02*
X129449999Y-78988465D01*
X130083333Y-78543227D02*
X130516666Y-78543227D01*
X130516666Y-78543227D02*
X130283333Y-78867036D01*
X130283333Y-78867036D02*
X130383333Y-78867036D01*
X130383333Y-78867036D02*
X130449999Y-78907512D01*
X130449999Y-78907512D02*
X130483333Y-78947989D01*
X130483333Y-78947989D02*
X130516666Y-79028941D01*
X130516666Y-79028941D02*
X130516666Y-79231322D01*
X130516666Y-79231322D02*
X130483333Y-79312274D01*
X130483333Y-79312274D02*
X130449999Y-79352751D01*
X130449999Y-79352751D02*
X130383333Y-79393227D01*
X130383333Y-79393227D02*
X130183333Y-79393227D01*
X130183333Y-79393227D02*
X130116666Y-79352751D01*
X130116666Y-79352751D02*
X130083333Y-79312274D01*
X132585714Y-77662619D02*
X132014286Y-77662619D01*
X132300000Y-77662619D02*
X132300000Y-76662619D01*
X132300000Y-76662619D02*
X132204762Y-76805476D01*
X132204762Y-76805476D02*
X132109524Y-76900714D01*
X132109524Y-76900714D02*
X132014286Y-76948333D01*
X126766667Y-76662619D02*
X127385714Y-76662619D01*
X127385714Y-76662619D02*
X127052381Y-77043571D01*
X127052381Y-77043571D02*
X127195238Y-77043571D01*
X127195238Y-77043571D02*
X127290476Y-77091190D01*
X127290476Y-77091190D02*
X127338095Y-77138809D01*
X127338095Y-77138809D02*
X127385714Y-77234047D01*
X127385714Y-77234047D02*
X127385714Y-77472142D01*
X127385714Y-77472142D02*
X127338095Y-77567380D01*
X127338095Y-77567380D02*
X127290476Y-77615000D01*
X127290476Y-77615000D02*
X127195238Y-77662619D01*
X127195238Y-77662619D02*
X126909524Y-77662619D01*
X126909524Y-77662619D02*
X126814286Y-77615000D01*
X126814286Y-77615000D02*
X126766667Y-77567380D01*
X75393227Y-58050000D02*
X74988465Y-58283333D01*
X75393227Y-58450000D02*
X74543227Y-58450000D01*
X74543227Y-58450000D02*
X74543227Y-58183333D01*
X74543227Y-58183333D02*
X74583703Y-58116667D01*
X74583703Y-58116667D02*
X74624179Y-58083333D01*
X74624179Y-58083333D02*
X74705131Y-58050000D01*
X74705131Y-58050000D02*
X74826560Y-58050000D01*
X74826560Y-58050000D02*
X74907512Y-58083333D01*
X74907512Y-58083333D02*
X74947989Y-58116667D01*
X74947989Y-58116667D02*
X74988465Y-58183333D01*
X74988465Y-58183333D02*
X74988465Y-58450000D01*
X74826560Y-57450000D02*
X75393227Y-57450000D01*
X74502751Y-57616667D02*
X75109893Y-57783333D01*
X75109893Y-57783333D02*
X75109893Y-57350000D01*
X74624179Y-57116666D02*
X74583703Y-57083333D01*
X74583703Y-57083333D02*
X74543227Y-57016666D01*
X74543227Y-57016666D02*
X74543227Y-56850000D01*
X74543227Y-56850000D02*
X74583703Y-56783333D01*
X74583703Y-56783333D02*
X74624179Y-56750000D01*
X74624179Y-56750000D02*
X74705131Y-56716666D01*
X74705131Y-56716666D02*
X74786084Y-56716666D01*
X74786084Y-56716666D02*
X74907512Y-56750000D01*
X74907512Y-56750000D02*
X75393227Y-57150000D01*
X75393227Y-57150000D02*
X75393227Y-56716666D01*
X69516666Y-77443227D02*
X69516666Y-78131322D01*
X69516666Y-78131322D02*
X69550000Y-78212274D01*
X69550000Y-78212274D02*
X69583333Y-78252751D01*
X69583333Y-78252751D02*
X69650000Y-78293227D01*
X69650000Y-78293227D02*
X69783333Y-78293227D01*
X69783333Y-78293227D02*
X69850000Y-78252751D01*
X69850000Y-78252751D02*
X69883333Y-78212274D01*
X69883333Y-78212274D02*
X69916666Y-78131322D01*
X69916666Y-78131322D02*
X69916666Y-77443227D01*
X70183333Y-77443227D02*
X70649999Y-77443227D01*
X70649999Y-77443227D02*
X70349999Y-78293227D01*
X134166666Y-47827751D02*
X134266666Y-47868227D01*
X134266666Y-47868227D02*
X134433333Y-47868227D01*
X134433333Y-47868227D02*
X134499999Y-47827751D01*
X134499999Y-47827751D02*
X134533333Y-47787274D01*
X134533333Y-47787274D02*
X134566666Y-47706322D01*
X134566666Y-47706322D02*
X134566666Y-47625370D01*
X134566666Y-47625370D02*
X134533333Y-47544417D01*
X134533333Y-47544417D02*
X134499999Y-47503941D01*
X134499999Y-47503941D02*
X134433333Y-47463465D01*
X134433333Y-47463465D02*
X134299999Y-47422989D01*
X134299999Y-47422989D02*
X134233333Y-47382512D01*
X134233333Y-47382512D02*
X134199999Y-47342036D01*
X134199999Y-47342036D02*
X134166666Y-47261084D01*
X134166666Y-47261084D02*
X134166666Y-47180131D01*
X134166666Y-47180131D02*
X134199999Y-47099179D01*
X134199999Y-47099179D02*
X134233333Y-47058703D01*
X134233333Y-47058703D02*
X134299999Y-47018227D01*
X134299999Y-47018227D02*
X134466666Y-47018227D01*
X134466666Y-47018227D02*
X134566666Y-47058703D01*
X134800000Y-47018227D02*
X134966666Y-47868227D01*
X134966666Y-47868227D02*
X135100000Y-47261084D01*
X135100000Y-47261084D02*
X135233333Y-47868227D01*
X135233333Y-47868227D02*
X135400000Y-47018227D01*
X136033333Y-47868227D02*
X135633333Y-47868227D01*
X135833333Y-47868227D02*
X135833333Y-47018227D01*
X135833333Y-47018227D02*
X135766666Y-47139655D01*
X135766666Y-47139655D02*
X135700000Y-47220608D01*
X135700000Y-47220608D02*
X135633333Y-47261084D01*
X94566666Y-63952751D02*
X94666666Y-63993227D01*
X94666666Y-63993227D02*
X94833333Y-63993227D01*
X94833333Y-63993227D02*
X94899999Y-63952751D01*
X94899999Y-63952751D02*
X94933333Y-63912274D01*
X94933333Y-63912274D02*
X94966666Y-63831322D01*
X94966666Y-63831322D02*
X94966666Y-63750370D01*
X94966666Y-63750370D02*
X94933333Y-63669417D01*
X94933333Y-63669417D02*
X94899999Y-63628941D01*
X94899999Y-63628941D02*
X94833333Y-63588465D01*
X94833333Y-63588465D02*
X94699999Y-63547989D01*
X94699999Y-63547989D02*
X94633333Y-63507512D01*
X94633333Y-63507512D02*
X94599999Y-63467036D01*
X94599999Y-63467036D02*
X94566666Y-63386084D01*
X94566666Y-63386084D02*
X94566666Y-63305131D01*
X94566666Y-63305131D02*
X94599999Y-63224179D01*
X94599999Y-63224179D02*
X94633333Y-63183703D01*
X94633333Y-63183703D02*
X94699999Y-63143227D01*
X94699999Y-63143227D02*
X94866666Y-63143227D01*
X94866666Y-63143227D02*
X94966666Y-63183703D01*
X95200000Y-63143227D02*
X95366666Y-63993227D01*
X95366666Y-63993227D02*
X95500000Y-63386084D01*
X95500000Y-63386084D02*
X95633333Y-63993227D01*
X95633333Y-63993227D02*
X95800000Y-63143227D01*
X96000000Y-63143227D02*
X96433333Y-63143227D01*
X96433333Y-63143227D02*
X96200000Y-63467036D01*
X96200000Y-63467036D02*
X96300000Y-63467036D01*
X96300000Y-63467036D02*
X96366666Y-63507512D01*
X96366666Y-63507512D02*
X96400000Y-63547989D01*
X96400000Y-63547989D02*
X96433333Y-63628941D01*
X96433333Y-63628941D02*
X96433333Y-63831322D01*
X96433333Y-63831322D02*
X96400000Y-63912274D01*
X96400000Y-63912274D02*
X96366666Y-63952751D01*
X96366666Y-63952751D02*
X96300000Y-63993227D01*
X96300000Y-63993227D02*
X96100000Y-63993227D01*
X96100000Y-63993227D02*
X96033333Y-63952751D01*
X96033333Y-63952751D02*
X96000000Y-63912274D01*
X98313227Y-60250000D02*
X97908465Y-60483333D01*
X98313227Y-60650000D02*
X97463227Y-60650000D01*
X97463227Y-60650000D02*
X97463227Y-60383333D01*
X97463227Y-60383333D02*
X97503703Y-60316667D01*
X97503703Y-60316667D02*
X97544179Y-60283333D01*
X97544179Y-60283333D02*
X97625131Y-60250000D01*
X97625131Y-60250000D02*
X97746560Y-60250000D01*
X97746560Y-60250000D02*
X97827512Y-60283333D01*
X97827512Y-60283333D02*
X97867989Y-60316667D01*
X97867989Y-60316667D02*
X97908465Y-60383333D01*
X97908465Y-60383333D02*
X97908465Y-60650000D01*
X97544179Y-59983333D02*
X97503703Y-59950000D01*
X97503703Y-59950000D02*
X97463227Y-59883333D01*
X97463227Y-59883333D02*
X97463227Y-59716667D01*
X97463227Y-59716667D02*
X97503703Y-59650000D01*
X97503703Y-59650000D02*
X97544179Y-59616667D01*
X97544179Y-59616667D02*
X97625131Y-59583333D01*
X97625131Y-59583333D02*
X97706084Y-59583333D01*
X97706084Y-59583333D02*
X97827512Y-59616667D01*
X97827512Y-59616667D02*
X98313227Y-60016667D01*
X98313227Y-60016667D02*
X98313227Y-59583333D01*
X97746560Y-58983333D02*
X98313227Y-58983333D01*
X97422751Y-59150000D02*
X98029893Y-59316666D01*
X98029893Y-59316666D02*
X98029893Y-58883333D01*
X152346666Y-79663227D02*
X152346666Y-80270370D01*
X152346666Y-80270370D02*
X152313333Y-80391798D01*
X152313333Y-80391798D02*
X152246666Y-80472751D01*
X152246666Y-80472751D02*
X152146666Y-80513227D01*
X152146666Y-80513227D02*
X152080000Y-80513227D01*
X152779999Y-80027512D02*
X152713333Y-79987036D01*
X152713333Y-79987036D02*
X152679999Y-79946560D01*
X152679999Y-79946560D02*
X152646666Y-79865608D01*
X152646666Y-79865608D02*
X152646666Y-79825131D01*
X152646666Y-79825131D02*
X152679999Y-79744179D01*
X152679999Y-79744179D02*
X152713333Y-79703703D01*
X152713333Y-79703703D02*
X152779999Y-79663227D01*
X152779999Y-79663227D02*
X152913333Y-79663227D01*
X152913333Y-79663227D02*
X152979999Y-79703703D01*
X152979999Y-79703703D02*
X153013333Y-79744179D01*
X153013333Y-79744179D02*
X153046666Y-79825131D01*
X153046666Y-79825131D02*
X153046666Y-79865608D01*
X153046666Y-79865608D02*
X153013333Y-79946560D01*
X153013333Y-79946560D02*
X152979999Y-79987036D01*
X152979999Y-79987036D02*
X152913333Y-80027512D01*
X152913333Y-80027512D02*
X152779999Y-80027512D01*
X152779999Y-80027512D02*
X152713333Y-80067989D01*
X152713333Y-80067989D02*
X152679999Y-80108465D01*
X152679999Y-80108465D02*
X152646666Y-80189417D01*
X152646666Y-80189417D02*
X152646666Y-80351322D01*
X152646666Y-80351322D02*
X152679999Y-80432274D01*
X152679999Y-80432274D02*
X152713333Y-80472751D01*
X152713333Y-80472751D02*
X152779999Y-80513227D01*
X152779999Y-80513227D02*
X152913333Y-80513227D01*
X152913333Y-80513227D02*
X152979999Y-80472751D01*
X152979999Y-80472751D02*
X153013333Y-80432274D01*
X153013333Y-80432274D02*
X153046666Y-80351322D01*
X153046666Y-80351322D02*
X153046666Y-80189417D01*
X153046666Y-80189417D02*
X153013333Y-80108465D01*
X153013333Y-80108465D02*
X152979999Y-80067989D01*
X152979999Y-80067989D02*
X152913333Y-80027512D01*
D12*
X151450000Y-59890000D02*
G75*
G03*
X151450000Y-59890000I-50000J0D01*
G01*
X111750000Y-70200000D02*
G75*
G03*
X111750000Y-70200000I-650000J0D01*
G01*
D13*
X153753641Y-55180000D02*
X153446359Y-55180000D01*
X153753641Y-54420000D02*
X153446359Y-54420000D01*
X117380000Y-55936359D02*
X117380000Y-56243641D01*
X116620000Y-55936359D02*
X116620000Y-56243641D01*
X111273641Y-72270000D02*
X110966359Y-72270000D01*
X111273641Y-71510000D02*
X110966359Y-71510000D01*
X73909420Y-78090000D02*
X74190580Y-78090000D01*
X73909420Y-79110000D02*
X74190580Y-79110000D01*
X138140000Y-50572836D02*
X138140000Y-50357164D01*
X138860000Y-50572836D02*
X138860000Y-50357164D01*
X106830000Y-85896359D02*
X106830000Y-86203641D01*
X106070000Y-85896359D02*
X106070000Y-86203641D01*
X153420000Y-56753641D02*
X153420000Y-56446359D01*
X154180000Y-56753641D02*
X154180000Y-56446359D01*
X68890000Y-64320000D02*
X68890000Y-64520000D01*
X68890000Y-66220000D02*
X68890000Y-68620000D01*
X68890000Y-70520000D02*
X68890000Y-70320000D01*
X68890000Y-70520000D02*
X75590000Y-70520000D01*
X75590000Y-64320000D02*
X68890000Y-64320000D01*
X75590000Y-64320000D02*
X75590000Y-64520000D01*
X75590000Y-66220000D02*
X75590000Y-68620000D01*
X75590000Y-70520000D02*
X75590000Y-70320000D01*
X88446359Y-59620000D02*
X88753641Y-59620000D01*
X88446359Y-60380000D02*
X88753641Y-60380000D01*
X110380000Y-58046359D02*
X110380000Y-58353641D01*
X109620000Y-58046359D02*
X109620000Y-58353641D01*
D12*
X67200000Y-49000000D02*
G75*
G03*
X67200000Y-49000000I-650000J0D01*
G01*
X54500000Y-63300000D02*
G75*
G03*
X54500000Y-63300000I-650000J0D01*
G01*
D13*
X119370000Y-62800000D02*
X121045000Y-62800000D01*
X119370000Y-62800000D02*
X118720000Y-62800000D01*
X119370000Y-59680000D02*
X120020000Y-59680000D01*
X119370000Y-59680000D02*
X118720000Y-59680000D01*
D12*
X62250000Y-51875000D02*
G75*
G03*
X62250000Y-51875000I-650000J0D01*
G01*
D13*
X67359420Y-77740000D02*
X67640580Y-77740000D01*
X67359420Y-78760000D02*
X67640580Y-78760000D01*
X96269000Y-52237836D02*
X96269000Y-52022164D01*
X96989000Y-52237836D02*
X96989000Y-52022164D01*
X56153641Y-65180000D02*
X55846359Y-65180000D01*
X56153641Y-64420000D02*
X55846359Y-64420000D01*
X151800000Y-49350000D02*
X152400000Y-49350000D01*
X153100000Y-50000000D02*
X153100000Y-52800000D01*
X151100000Y-52800000D02*
X151100000Y-50000000D01*
X152400000Y-53450000D02*
X151800000Y-53450000D01*
X153100000Y-50050000D02*
G75*
G03*
X152400000Y-49350000I-699999J1D01*
G01*
X151800000Y-49350000D02*
G75*
G03*
X151100000Y-50050000I-1J-699999D01*
G01*
X152400000Y-53450000D02*
G75*
G03*
X153100000Y-52750000I0J700000D01*
G01*
X151100000Y-52750000D02*
G75*
G03*
X151800000Y-53450000I700000J0D01*
G01*
X146246359Y-56220000D02*
X146553641Y-56220000D01*
X146246359Y-56980000D02*
X146553641Y-56980000D01*
X148370000Y-64350000D02*
X148370000Y-64550000D01*
X148370000Y-66250000D02*
X148370000Y-68650000D01*
X148370000Y-70550000D02*
X148370000Y-70350000D01*
X148370000Y-70550000D02*
X155070000Y-70550000D01*
X155070000Y-64350000D02*
X148370000Y-64350000D01*
X155070000Y-64350000D02*
X155070000Y-64550000D01*
X155070000Y-66250000D02*
X155070000Y-68650000D01*
X155070000Y-70550000D02*
X155070000Y-70350000D01*
X64646359Y-59620000D02*
X64953641Y-59620000D01*
X64646359Y-60380000D02*
X64953641Y-60380000D01*
X99420000Y-61606359D02*
X99420000Y-61913641D01*
X98660000Y-61606359D02*
X98660000Y-61913641D01*
X98569000Y-52237836D02*
X98569000Y-52022164D01*
X99289000Y-52237836D02*
X99289000Y-52022164D01*
D12*
X71850000Y-72600000D02*
G75*
G03*
X71850000Y-72600000I-650000J0D01*
G01*
D13*
X64743641Y-74130000D02*
X64436359Y-74130000D01*
X64743641Y-73370000D02*
X64436359Y-73370000D01*
X123420000Y-61576359D02*
X123420000Y-61883641D01*
X122660000Y-61576359D02*
X122660000Y-61883641D01*
X147500000Y-49350000D02*
X148100000Y-49350000D01*
X148800000Y-50000000D02*
X148800000Y-52800000D01*
X146800000Y-52800000D02*
X146800000Y-50000000D01*
X148100000Y-53450000D02*
X147500000Y-53450000D01*
X148800000Y-50050000D02*
G75*
G03*
X148100000Y-49350000I-699999J1D01*
G01*
X147500000Y-49350000D02*
G75*
G03*
X146800000Y-50050000I-1J-699999D01*
G01*
X148100000Y-53450000D02*
G75*
G03*
X148800000Y-52750000I0J700000D01*
G01*
X146800000Y-52750000D02*
G75*
G03*
X147500000Y-53450000I700000J0D01*
G01*
X109530000Y-78170000D02*
X109530000Y-76495000D01*
X109530000Y-78170000D02*
X109530000Y-78820000D01*
X106410000Y-78170000D02*
X106410000Y-77520000D01*
X106410000Y-78170000D02*
X106410000Y-78820000D01*
X93750000Y-53870000D02*
X93750000Y-57070000D01*
X97650000Y-53870000D02*
X93750000Y-53870000D01*
X97650000Y-57070000D02*
X93750000Y-57070000D01*
X95370000Y-62830000D02*
X97045000Y-62830000D01*
X95370000Y-62830000D02*
X94720000Y-62830000D01*
X95370000Y-59710000D02*
X96020000Y-59710000D01*
X95370000Y-59710000D02*
X94720000Y-59710000D01*
D12*
X54400000Y-75700000D02*
G75*
G03*
X54400000Y-75700000I-650000J0D01*
G01*
D13*
X127953641Y-60380000D02*
X127646359Y-60380000D01*
X127953641Y-59620000D02*
X127646359Y-59620000D01*
X144853641Y-55280000D02*
X144546359Y-55280000D01*
X144853641Y-54520000D02*
X144546359Y-54520000D01*
X76620000Y-56020000D02*
X76620000Y-59220000D01*
X80520000Y-56020000D02*
X76620000Y-56020000D01*
X80520000Y-59220000D02*
X76620000Y-59220000D01*
X69750000Y-53840000D02*
X69750000Y-57040000D01*
X73650000Y-53840000D02*
X69750000Y-53840000D01*
X73650000Y-57040000D02*
X69750000Y-57040000D01*
X135390000Y-71850000D02*
X135390000Y-72050000D01*
X135390000Y-73750000D02*
X135390000Y-76150000D01*
X135390000Y-78050000D02*
X135390000Y-77850000D01*
X135390000Y-78050000D02*
X142090000Y-78050000D01*
X142090000Y-71850000D02*
X135390000Y-71850000D01*
X142090000Y-71850000D02*
X142090000Y-72050000D01*
X142090000Y-73750000D02*
X142090000Y-76150000D01*
X142090000Y-78050000D02*
X142090000Y-77850000D01*
X71370000Y-62800000D02*
X73045000Y-62800000D01*
X71370000Y-62800000D02*
X70720000Y-62800000D01*
X71370000Y-59680000D02*
X72020000Y-59680000D01*
X71370000Y-59680000D02*
X70720000Y-59680000D01*
X128750000Y-59250000D02*
X128750000Y-56050000D01*
X124850000Y-59250000D02*
X128750000Y-59250000D01*
X124850000Y-56050000D02*
X128750000Y-56050000D01*
X86800000Y-56050000D02*
X86800000Y-59250000D01*
X90700000Y-56050000D02*
X86800000Y-56050000D01*
X90700000Y-59250000D02*
X86800000Y-59250000D01*
D12*
X149660000Y-57300000D02*
G75*
G03*
X149660000Y-57300000I-50000J0D01*
G01*
D13*
X64743641Y-75280000D02*
X64436359Y-75280000D01*
X64743641Y-74520000D02*
X64436359Y-74520000D01*
X117750000Y-53840000D02*
X117750000Y-57040000D01*
X121650000Y-53840000D02*
X117750000Y-53840000D01*
X121650000Y-57040000D02*
X117750000Y-57040000D01*
X140130000Y-50311359D02*
X140130000Y-50618641D01*
X139370000Y-50311359D02*
X139370000Y-50618641D01*
X142485000Y-67227500D02*
X134435000Y-67227500D01*
X134435000Y-67227500D02*
X134435000Y-52827500D01*
X134435000Y-52827500D02*
X142485000Y-52827500D01*
X142485000Y-52827500D02*
X142485000Y-67227500D01*
X142135000Y-52202500D02*
G75*
G03*
X142135000Y-52202500I0J0D01*
G01*
X142235000Y-52202500D02*
G75*
G03*
X142235000Y-52202500I-100000J0D01*
G01*
X142341155Y-52202500D02*
G75*
G03*
X142341155Y-52202500I-206155J0D01*
G01*
X142460000Y-52202500D02*
G75*
G03*
X142460000Y-52202500I-325000J0D01*
G01*
X122310000Y-61616359D02*
X122310000Y-61923641D01*
X121550000Y-61616359D02*
X121550000Y-61923641D01*
X100180000Y-57646359D02*
X100180000Y-57953641D01*
X99420000Y-57646359D02*
X99420000Y-57953641D01*
D14*
X149700000Y-59200000D02*
X149700000Y-58800000D01*
X150500000Y-59200000D02*
X150500000Y-58800000D01*
D15*
X149900000Y-60500000D02*
G75*
G03*
X149900000Y-60500000I-100000J0D01*
G01*
D13*
X61910000Y-75197936D02*
X61910000Y-76402064D01*
X60090000Y-75197936D02*
X60090000Y-76402064D01*
X75420000Y-61576359D02*
X75420000Y-61883641D01*
X74660000Y-61576359D02*
X74660000Y-61883641D01*
X73342164Y-75740000D02*
X73557836Y-75740000D01*
X73342164Y-76460000D02*
X73557836Y-76460000D01*
X94553641Y-53380000D02*
X94246359Y-53380000D01*
X94553641Y-52620000D02*
X94246359Y-52620000D01*
X73342164Y-76890000D02*
X73557836Y-76890000D01*
X73342164Y-77610000D02*
X73557836Y-77610000D01*
X110430000Y-85896359D02*
X110430000Y-86203641D01*
X109670000Y-85896359D02*
X109670000Y-86203641D01*
D12*
X54400000Y-72500000D02*
G75*
G03*
X54400000Y-72500000I-650000J0D01*
G01*
D13*
X116880000Y-64350000D02*
X116880000Y-64550000D01*
X116880000Y-66250000D02*
X116880000Y-68650000D01*
X116880000Y-70550000D02*
X116880000Y-70350000D01*
X116880000Y-70550000D02*
X123580000Y-70550000D01*
X123580000Y-64350000D02*
X116880000Y-64350000D01*
X123580000Y-64350000D02*
X123580000Y-64550000D01*
X123580000Y-66250000D02*
X123580000Y-68650000D01*
X123580000Y-70550000D02*
X123580000Y-70350000D01*
X97469000Y-52237836D02*
X97469000Y-52022164D01*
X98189000Y-52237836D02*
X98189000Y-52022164D01*
X74310000Y-61616359D02*
X74310000Y-61923641D01*
X73550000Y-61616359D02*
X73550000Y-61923641D01*
X108550000Y-75233641D02*
X108550000Y-74926359D01*
X109310000Y-75233641D02*
X109310000Y-74926359D01*
X72536359Y-52620000D02*
X72843641Y-52620000D01*
X72536359Y-53380000D02*
X72843641Y-53380000D01*
X64743641Y-76380000D02*
X64436359Y-76380000D01*
X64743641Y-75620000D02*
X64436359Y-75620000D01*
X62800000Y-56020000D02*
X62800000Y-59220000D01*
X66700000Y-56020000D02*
X62800000Y-56020000D01*
X66700000Y-59220000D02*
X62800000Y-59220000D01*
X110800000Y-56020000D02*
X110800000Y-59220000D01*
X114700000Y-56020000D02*
X110800000Y-56020000D01*
X114700000Y-59220000D02*
X110800000Y-59220000D01*
X106640000Y-75233641D02*
X106640000Y-74926359D01*
X107400000Y-75233641D02*
X107400000Y-74926359D01*
D12*
X54550000Y-60575000D02*
G75*
G03*
X54550000Y-60575000I-650000J0D01*
G01*
X111850000Y-73750000D02*
G75*
G03*
X111850000Y-73750000I-650000J0D01*
G01*
D13*
X146246359Y-57920000D02*
X146553641Y-57920000D01*
X146246359Y-58680000D02*
X146553641Y-58680000D01*
X100620000Y-56050000D02*
X100620000Y-59250000D01*
X104520000Y-56050000D02*
X100620000Y-56050000D01*
X104520000Y-59250000D02*
X100620000Y-59250000D01*
X131750000Y-76900000D02*
X131750000Y-77500000D01*
X131100000Y-78200000D02*
X128300000Y-78200000D01*
X128300000Y-76200000D02*
X131100000Y-76200000D01*
X127650000Y-77500000D02*
X127650000Y-76900000D01*
X131050000Y-78200000D02*
G75*
G03*
X131750000Y-77500000I1J699999D01*
G01*
X131750000Y-76900000D02*
G75*
G03*
X131050000Y-76200000I-699999J1D01*
G01*
X127650000Y-77500000D02*
G75*
G03*
X128350000Y-78200000I700000J0D01*
G01*
X128350000Y-76200000D02*
G75*
G03*
X127650000Y-76900000I0J-700000D01*
G01*
X76380000Y-57046359D02*
X76380000Y-57353641D01*
X75620000Y-57046359D02*
X75620000Y-57353641D01*
D12*
X67600000Y-77200000D02*
X67600000Y-76900000D01*
X67900000Y-77200000D02*
X67600000Y-77200000D01*
X70500000Y-77200000D02*
X70800000Y-76900000D01*
X70800000Y-76900000D02*
X72000000Y-76900000D01*
X67600000Y-74300000D02*
X67600000Y-74000000D01*
X67600000Y-74000000D02*
X67900000Y-74000000D01*
X70500000Y-74000000D02*
X70800000Y-74000000D01*
X70800000Y-74000000D02*
X70800000Y-74300000D01*
G36*
X86991281Y-80919074D02*
G01*
X86956676Y-80953678D01*
X86922071Y-80919074D01*
X86956676Y-80884469D01*
X86991281Y-80919074D01*
G37*
G36*
X87215736Y-75457309D02*
G01*
X87379494Y-75502493D01*
X87566315Y-75562412D01*
X87790491Y-75626897D01*
X87966201Y-75657144D01*
X88043527Y-75650414D01*
X88087256Y-75645654D01*
X88070642Y-75683039D01*
X87956603Y-75749269D01*
X87765749Y-75755371D01*
X87543755Y-75705687D01*
X87351731Y-75614724D01*
X87212645Y-75517941D01*
X87145498Y-75455693D01*
X87144749Y-75447984D01*
X87215736Y-75457309D01*
G37*
G36*
X82744496Y-77774579D02*
G01*
X82783513Y-77872517D01*
X82783977Y-77873842D01*
X82904966Y-78132391D01*
X83059624Y-78276274D01*
X83270774Y-78314412D01*
X83561243Y-78255729D01*
X83669210Y-78219891D01*
X84044007Y-78126808D01*
X84351725Y-78131757D01*
X84577866Y-78233946D01*
X84617434Y-78271798D01*
X84807874Y-78545369D01*
X84921656Y-78844579D01*
X84945737Y-79126357D01*
X84916118Y-79258038D01*
X84878650Y-79320300D01*
X84840568Y-79280318D01*
X84789625Y-79122595D01*
X84779359Y-79085014D01*
X84646195Y-78757047D01*
X84460630Y-78531097D01*
X84239385Y-78416365D01*
X83999182Y-78422053D01*
X83782358Y-78536358D01*
X83629825Y-78688670D01*
X83607994Y-78799056D01*
X83715578Y-78862872D01*
X83876839Y-78877384D01*
X84076096Y-78893813D01*
X84143097Y-78936944D01*
X84079262Y-78997547D01*
X83886008Y-79066392D01*
X83846192Y-79076797D01*
X83446956Y-79143083D01*
X83140919Y-79112387D01*
X82921274Y-78978885D01*
X82781211Y-78736749D01*
X82713921Y-78380156D01*
X82705736Y-78100997D01*
X82710781Y-77873800D01*
X82721976Y-77770001D01*
X82744496Y-77774579D01*
G37*
G36*
X87070190Y-75653092D02*
G01*
X87231337Y-75730710D01*
X87443884Y-75827311D01*
X87636952Y-75880524D01*
X87850373Y-75893235D01*
X88123977Y-75868330D01*
X88441445Y-75818401D01*
X88712865Y-75777703D01*
X88897265Y-75770483D01*
X89042441Y-75798845D01*
X89166045Y-75850270D01*
X89361805Y-75980165D01*
X89516181Y-76142820D01*
X89526176Y-76158164D01*
X89654339Y-76325855D01*
X89831218Y-76512749D01*
X89892916Y-76569710D01*
X90053138Y-76726478D01*
X90095859Y-76810604D01*
X90020954Y-76822816D01*
X89857423Y-76774577D01*
X89680613Y-76674071D01*
X89488075Y-76512484D01*
X89421402Y-76441964D01*
X89222018Y-76246429D01*
X89013494Y-76126330D01*
X88764870Y-76074729D01*
X88445190Y-76084685D01*
X88074220Y-76139987D01*
X87705352Y-76197209D01*
X87448423Y-76214237D01*
X87283274Y-76192223D01*
X87266504Y-76186161D01*
X87095095Y-76117766D01*
X87285422Y-76113379D01*
X87435419Y-76089719D01*
X87457938Y-76026880D01*
X87351956Y-75922315D01*
X87158872Y-75798022D01*
X86956801Y-75670364D01*
X86877680Y-75600854D01*
X86916984Y-75593696D01*
X87070190Y-75653092D01*
G37*
G36*
X82943716Y-74856457D02*
G01*
X82972984Y-75030702D01*
X82981416Y-75226567D01*
X82998404Y-75703751D01*
X83043147Y-76086779D01*
X83122383Y-76418308D01*
X83207175Y-76655537D01*
X83377207Y-76963760D01*
X83605294Y-77162036D01*
X83913211Y-77264030D01*
X84211349Y-77285559D01*
X84611534Y-77324239D01*
X84906276Y-77445164D01*
X85106523Y-77655662D01*
X85223129Y-77962626D01*
X85238282Y-78130313D01*
X85197960Y-78180473D01*
X85122352Y-78111490D01*
X85052826Y-77976255D01*
X84874703Y-77699024D01*
X84621465Y-77507049D01*
X84327647Y-77425227D01*
X84286788Y-77423978D01*
X84090002Y-77438791D01*
X84026773Y-77487126D01*
X84095032Y-77574830D01*
X84205586Y-77653556D01*
X84395913Y-77776774D01*
X84188283Y-77740293D01*
X83947692Y-77751552D01*
X83711833Y-77831827D01*
X83459410Y-77919751D01*
X83261166Y-77898703D01*
X83076165Y-77760271D01*
X83011492Y-77687928D01*
X82834856Y-77418545D01*
X82718270Y-77092684D01*
X82660528Y-76695543D01*
X82660426Y-76212319D01*
X82716759Y-75628210D01*
X82799949Y-75088147D01*
X82850175Y-74879822D01*
X82900439Y-74804378D01*
X82943716Y-74856457D01*
G37*
G36*
X85286920Y-70665250D02*
G01*
X85186801Y-70806539D01*
X85034190Y-71002597D01*
X84952354Y-71103096D01*
X84613876Y-71553045D01*
X84380874Y-71962913D01*
X84239216Y-72362290D01*
X84179567Y-72721075D01*
X84167338Y-73054025D01*
X84197881Y-73380848D01*
X84278298Y-73721498D01*
X84415692Y-74095928D01*
X84617167Y-74524089D01*
X84889825Y-75025934D01*
X85170558Y-75504849D01*
X85338629Y-75792305D01*
X85474133Y-76037968D01*
X85564113Y-76217305D01*
X85595612Y-76305783D01*
X85595068Y-76308633D01*
X85547914Y-76280264D01*
X85436704Y-76159390D01*
X85278402Y-75965734D01*
X85102747Y-75736209D01*
X84664177Y-75140648D01*
X84306751Y-74637767D01*
X84023391Y-74213579D01*
X83807018Y-73854103D01*
X83650555Y-73545354D01*
X83546924Y-73273347D01*
X83489045Y-73024099D01*
X83469843Y-72783626D01*
X83482237Y-72537944D01*
X83482521Y-72535172D01*
X83556016Y-72164261D01*
X83707008Y-71843778D01*
X83958408Y-71528865D01*
X84038192Y-71447180D01*
X84193404Y-71310925D01*
X84403884Y-71149541D01*
X84641956Y-70981290D01*
X84879943Y-70824430D01*
X85090168Y-70697220D01*
X85244953Y-70617922D01*
X85316031Y-70604133D01*
X85286920Y-70665250D01*
G37*
G36*
X91543622Y-71388154D02*
G01*
X91760541Y-71399158D01*
X91894410Y-71420784D01*
X91921355Y-71453590D01*
X91905177Y-71465606D01*
X91803142Y-71500799D01*
X91592689Y-71557933D01*
X91300794Y-71630182D01*
X90954436Y-71710719D01*
X90802538Y-71744640D01*
X90438652Y-71827642D01*
X90115325Y-71906454D01*
X89860488Y-71973891D01*
X89702076Y-72022768D01*
X89672137Y-72035421D01*
X89582817Y-72099700D01*
X89604620Y-72173682D01*
X89650116Y-72226898D01*
X89712874Y-72346613D01*
X89751439Y-72510641D01*
X89760614Y-72668702D01*
X89735202Y-72770520D01*
X89707766Y-72784618D01*
X89622615Y-72742735D01*
X89493412Y-72646962D01*
X89165113Y-72461403D01*
X88774712Y-72393038D01*
X88430971Y-72424718D01*
X88222749Y-72460625D01*
X88077708Y-72475483D01*
X88036926Y-72470933D01*
X88055331Y-72405767D01*
X88178374Y-72300431D01*
X88382666Y-72167374D01*
X88644817Y-72019045D01*
X88941437Y-71867894D01*
X89249136Y-71726371D01*
X89544525Y-71606924D01*
X89804214Y-71522004D01*
X89834868Y-71513963D01*
X90048780Y-71472945D01*
X90322873Y-71439204D01*
X90633276Y-71413297D01*
X90956117Y-71395781D01*
X91267523Y-71387214D01*
X91543622Y-71388154D01*
G37*
G36*
X79696568Y-85370980D02*
G01*
X79684712Y-85525201D01*
X79682436Y-85538828D01*
X79549377Y-86126929D01*
X79358510Y-86613138D01*
X79090369Y-87026966D01*
X78725486Y-87397923D01*
X78244395Y-87755518D01*
X78201635Y-87783566D01*
X77670845Y-88128804D01*
X77244788Y-88405172D01*
X76912396Y-88619630D01*
X76662601Y-88779137D01*
X76484333Y-88890654D01*
X76366527Y-88961140D01*
X76298113Y-88997556D01*
X76268024Y-89006861D01*
X76263760Y-89002167D01*
X76314910Y-88894348D01*
X76452608Y-88725386D01*
X76653233Y-88517934D01*
X76893158Y-88294645D01*
X77148761Y-88078172D01*
X77396417Y-87891168D01*
X77483493Y-87832569D01*
X77752854Y-87646697D01*
X77995666Y-87457659D01*
X78174447Y-87295513D01*
X78225170Y-87237832D01*
X78356446Y-87040528D01*
X78460825Y-86838927D01*
X78521068Y-86671864D01*
X78519936Y-86578175D01*
X78518619Y-86576748D01*
X78445377Y-86589218D01*
X78291953Y-86656323D01*
X78160109Y-86725777D01*
X77975044Y-86821945D01*
X77844823Y-86876030D01*
X77806907Y-86880113D01*
X77817392Y-86803448D01*
X77927794Y-86678911D01*
X78116221Y-86524370D01*
X78360779Y-86357693D01*
X78639575Y-86196750D01*
X78652520Y-86189957D01*
X79011002Y-85981824D01*
X79264271Y-85782199D01*
X79411927Y-85612267D01*
X79566069Y-85412914D01*
X79658985Y-85333018D01*
X79696568Y-85370980D01*
G37*
G36*
X89067575Y-70155836D02*
G01*
X88944366Y-70247777D01*
X88733291Y-70394940D01*
X88462953Y-70577746D01*
X88161955Y-70776617D01*
X88133242Y-70795349D01*
X87394611Y-71330487D01*
X86786927Y-71887021D01*
X86311358Y-72462849D01*
X85969070Y-73055867D01*
X85761229Y-73663973D01*
X85689002Y-74285064D01*
X85753556Y-74917035D01*
X85780899Y-75036240D01*
X85862823Y-75325293D01*
X85957282Y-75601016D01*
X86036054Y-75786952D01*
X86124384Y-75985143D01*
X86133906Y-76070428D01*
X86066667Y-76042248D01*
X85924717Y-75900044D01*
X85866294Y-75833226D01*
X85606437Y-75439067D01*
X85401209Y-74934873D01*
X85258624Y-74340944D01*
X85245465Y-74260511D01*
X85201680Y-74017185D01*
X85158122Y-73838200D01*
X85123258Y-73757414D01*
X85119263Y-73755858D01*
X85078535Y-73818458D01*
X85036664Y-73980359D01*
X85001193Y-74202719D01*
X84979668Y-74446693D01*
X84978115Y-74482561D01*
X84970599Y-74603216D01*
X84952721Y-74612946D01*
X84912458Y-74502886D01*
X84884282Y-74413351D01*
X84793718Y-73917896D01*
X84803467Y-73370654D01*
X84908915Y-72810114D01*
X85105445Y-72274764D01*
X85152133Y-72180172D01*
X85417480Y-71779636D01*
X85787611Y-71380053D01*
X86231186Y-71007485D01*
X86716866Y-70687993D01*
X87213310Y-70447639D01*
X87254557Y-70431859D01*
X87823065Y-70253810D01*
X88449383Y-70116091D01*
X88859945Y-70055823D01*
X89240599Y-70012424D01*
X89067575Y-70155836D01*
G37*
G36*
X88306267Y-80071097D02*
G01*
X88313999Y-80423797D01*
X88342656Y-80660063D01*
X88400434Y-80801297D01*
X88495525Y-80868896D01*
X88617711Y-80884469D01*
X88753044Y-80864139D01*
X88843607Y-80788871D01*
X88897638Y-80637249D01*
X88923373Y-80387857D01*
X88929155Y-80074714D01*
X88929155Y-79431063D01*
X89690463Y-79431063D01*
X89690204Y-80140463D01*
X89685196Y-80488628D01*
X89667204Y-80732299D01*
X89631330Y-80905169D01*
X89572677Y-81040927D01*
X89554845Y-81071436D01*
X89330608Y-81314217D01*
X89022394Y-81476238D01*
X88667030Y-81544318D01*
X88325303Y-81511479D01*
X88016963Y-81401146D01*
X87795746Y-81234023D01*
X87652330Y-80992808D01*
X87577393Y-80660202D01*
X87570360Y-80463549D01*
X87752589Y-80463549D01*
X87769244Y-80730210D01*
X87826886Y-80884230D01*
X87937029Y-80948215D01*
X88002228Y-80953678D01*
X88109957Y-80936858D01*
X88114882Y-80928903D01*
X89085936Y-80928903D01*
X89172416Y-80948221D01*
X89248381Y-80941892D01*
X89366667Y-80917968D01*
X89429112Y-80856209D01*
X89457656Y-80719050D01*
X89468846Y-80564424D01*
X89475554Y-80354582D01*
X89453722Y-80244032D01*
X89387908Y-80194268D01*
X89313124Y-80176065D01*
X89202921Y-80165516D01*
X89151888Y-80212641D01*
X89137408Y-80351108D01*
X89136785Y-80438542D01*
X89126780Y-80651889D01*
X89101853Y-80819248D01*
X89092659Y-80849719D01*
X89085936Y-80928903D01*
X88114882Y-80928903D01*
X88157247Y-80860475D01*
X88167846Y-80685646D01*
X88167847Y-80682500D01*
X88151192Y-80415839D01*
X88093549Y-80261819D01*
X87983407Y-80197834D01*
X87918208Y-80192371D01*
X87810479Y-80209191D01*
X87763189Y-80285574D01*
X87752590Y-80460403D01*
X87752589Y-80463549D01*
X87570360Y-80463549D01*
X87561611Y-80218905D01*
X87565328Y-80101188D01*
X87591457Y-79465668D01*
X87948862Y-79444748D01*
X88306267Y-79423829D01*
X88306267Y-80071097D01*
G37*
G36*
X90763215Y-70771898D02*
G01*
X90852987Y-70797075D01*
X90867811Y-70826848D01*
X90792406Y-70871821D01*
X90611491Y-70942597D01*
X90417166Y-71012015D01*
X89654710Y-71301332D01*
X89018482Y-71588718D01*
X88496557Y-71880800D01*
X88077007Y-72184207D01*
X87765304Y-72485676D01*
X87570028Y-72724192D01*
X87482413Y-72876288D01*
X87502417Y-72942494D01*
X87630001Y-72923342D01*
X87735286Y-72881407D01*
X87956480Y-72799363D01*
X88171720Y-72745116D01*
X88343977Y-72724914D01*
X88436220Y-72745003D01*
X88442778Y-72762047D01*
X88388101Y-72826566D01*
X88245755Y-72941262D01*
X88045228Y-73082596D01*
X88021480Y-73098365D01*
X87499150Y-73503078D01*
X87098327Y-73942432D01*
X86821342Y-74407391D01*
X86670530Y-74888916D01*
X86648222Y-75377971D01*
X86756751Y-75865517D01*
X86998452Y-76342517D01*
X87135294Y-76531314D01*
X87255379Y-76703714D01*
X87283320Y-76791728D01*
X87233602Y-76799234D01*
X87120708Y-76730108D01*
X86959125Y-76588229D01*
X86825384Y-76448350D01*
X86556334Y-76084648D01*
X86378245Y-75674196D01*
X86369107Y-75645147D01*
X86272624Y-75283306D01*
X86237293Y-74982930D01*
X86261420Y-74682156D01*
X86333787Y-74355306D01*
X86408866Y-74026915D01*
X86434061Y-73826813D01*
X86415579Y-73756745D01*
X86359631Y-73818456D01*
X86272426Y-74013692D01*
X86170930Y-74309537D01*
X86096904Y-74541995D01*
X86054471Y-74653069D01*
X86034410Y-74653640D01*
X86027504Y-74554590D01*
X86026231Y-74480342D01*
X86043499Y-74248047D01*
X86091827Y-73967641D01*
X86127079Y-73822848D01*
X86190178Y-73592931D01*
X86240535Y-73406026D01*
X86259968Y-73331381D01*
X86369341Y-73045228D01*
X86558241Y-72705312D01*
X86802205Y-72349228D01*
X87076771Y-72014570D01*
X87203644Y-71881128D01*
X87704907Y-71467381D01*
X88284648Y-71134183D01*
X88914371Y-70890413D01*
X89565583Y-70744951D01*
X90209789Y-70706676D01*
X90763215Y-70771898D01*
G37*
G36*
X77114924Y-79462792D02*
G01*
X77526870Y-79553382D01*
X77822828Y-79716694D01*
X78001902Y-79952231D01*
X78063197Y-80259494D01*
X78063215Y-80265590D01*
X77998533Y-80535366D01*
X77820414Y-80770168D01*
X77552746Y-80952380D01*
X77219419Y-81064383D01*
X76942941Y-81091712D01*
X76811205Y-81112960D01*
X76752397Y-81203835D01*
X76735311Y-81317030D01*
X76715071Y-81448341D01*
X76662518Y-81517712D01*
X76540692Y-81548744D01*
X76350272Y-81562881D01*
X76147022Y-81568004D01*
X76014237Y-81558748D01*
X75984885Y-81545579D01*
X75984027Y-81466401D01*
X75983031Y-81274149D01*
X75981998Y-80994169D01*
X75981031Y-80651804D01*
X75980844Y-80571056D01*
X76194550Y-80571056D01*
X76199074Y-80806731D01*
X76219286Y-80934546D01*
X76265150Y-80984943D01*
X76331560Y-80989662D01*
X76468192Y-80959467D01*
X76516120Y-80932018D01*
X76611342Y-80900224D01*
X76782671Y-80884446D01*
X76811671Y-80884083D01*
X77164826Y-80849303D01*
X77469535Y-80754952D01*
X77700783Y-80614288D01*
X77833555Y-80440570D01*
X77855586Y-80330790D01*
X77815034Y-80222247D01*
X77682561Y-80192371D01*
X77545240Y-80227179D01*
X77509537Y-80292261D01*
X77445845Y-80427709D01*
X77275587Y-80534569D01*
X77029989Y-80597414D01*
X76871249Y-80607629D01*
X76672186Y-80602273D01*
X76575043Y-80571535D01*
X76543360Y-80493409D01*
X76540599Y-80408068D01*
X76513094Y-80253958D01*
X76458860Y-80218324D01*
X76748229Y-80218324D01*
X76765325Y-80341648D01*
X76844205Y-80391617D01*
X76986379Y-80400000D01*
X77159996Y-80380003D01*
X77266166Y-80331214D01*
X77271029Y-80324760D01*
X77274952Y-80217284D01*
X77146349Y-80129995D01*
X76970998Y-80081202D01*
X76818854Y-80061392D01*
X76758509Y-80103846D01*
X76748229Y-80218324D01*
X76458860Y-80218324D01*
X76407379Y-80184499D01*
X76367575Y-80175431D01*
X76272970Y-80164150D01*
X76221219Y-80196005D01*
X76199403Y-80300537D01*
X76194605Y-80507283D01*
X76194550Y-80571056D01*
X75980844Y-80571056D01*
X75980649Y-80486512D01*
X75978447Y-79465668D01*
X76587887Y-79445424D01*
X77114924Y-79462792D01*
G37*
G36*
X92291181Y-79358000D02*
G01*
X92301774Y-79538755D01*
X92307565Y-79811934D01*
X92307973Y-80154563D01*
X92304848Y-80417302D01*
X92285831Y-81541962D01*
X91922480Y-81562881D01*
X91559128Y-81583800D01*
X91559128Y-81164925D01*
X91553236Y-80944810D01*
X91537912Y-80793100D01*
X91519905Y-80746049D01*
X91445374Y-80784293D01*
X91306148Y-80880015D01*
X91250972Y-80921258D01*
X91021262Y-81096467D01*
X90813038Y-80921258D01*
X90670527Y-80809502D01*
X90574970Y-80749373D01*
X90562897Y-80746049D01*
X90540788Y-80808939D01*
X90525599Y-80972401D01*
X90520981Y-81161308D01*
X90520981Y-81576567D01*
X90186467Y-81576567D01*
X89981440Y-81567738D01*
X89838658Y-81545310D01*
X89805813Y-81530427D01*
X89791151Y-81451655D01*
X89779092Y-81265875D01*
X89769805Y-81001172D01*
X89763460Y-80685632D01*
X89763120Y-80650125D01*
X89967302Y-80650125D01*
X89991521Y-80832193D01*
X90080359Y-80928122D01*
X90123025Y-80946940D01*
X90220297Y-80971263D01*
X90269801Y-80928655D01*
X90293167Y-80789210D01*
X90299841Y-80702475D01*
X90326894Y-80519786D01*
X90370496Y-80412164D01*
X90390971Y-80400000D01*
X90487483Y-80438132D01*
X90639436Y-80532751D01*
X90681321Y-80562814D01*
X90878766Y-80702273D01*
X91013273Y-80761098D01*
X91132114Y-80742404D01*
X91282558Y-80649307D01*
X91342253Y-80606370D01*
X91518996Y-80487613D01*
X91654652Y-80413011D01*
X91696948Y-80400000D01*
X91739243Y-80461713D01*
X91764045Y-80617236D01*
X91766757Y-80699878D01*
X91774731Y-80887109D01*
X91811470Y-80971859D01*
X91896201Y-80989736D01*
X91922480Y-80988283D01*
X92012674Y-80967859D01*
X92059275Y-80900555D01*
X92076320Y-80751542D01*
X92078202Y-80601893D01*
X92078202Y-80226975D01*
X91788969Y-80188370D01*
X91548563Y-80182153D01*
X91373177Y-80248987D01*
X91339105Y-80273343D01*
X91105723Y-80384480D01*
X90877418Y-80358587D01*
X90767290Y-80293984D01*
X90613154Y-80228855D01*
X90398424Y-80194136D01*
X90342133Y-80192371D01*
X90139859Y-80210593D01*
X90025817Y-80284537D01*
X89976328Y-80443122D01*
X89967302Y-80650125D01*
X89763120Y-80650125D01*
X89760225Y-80347338D01*
X89760271Y-80014375D01*
X89763765Y-79714827D01*
X89770878Y-79476780D01*
X89781778Y-79328317D01*
X89792330Y-79292643D01*
X89857292Y-79332065D01*
X90007844Y-79438780D01*
X90220029Y-79595467D01*
X90417827Y-79744979D01*
X90689425Y-79942037D01*
X90907283Y-80079959D01*
X91051571Y-80146933D01*
X91094571Y-80148153D01*
X91183629Y-80086416D01*
X91353176Y-79961434D01*
X91574258Y-79794710D01*
X91703672Y-79695817D01*
X91934611Y-79522113D01*
X92124487Y-79385971D01*
X92246889Y-79305983D01*
X92276367Y-79292643D01*
X92291181Y-79358000D01*
G37*
G36*
X86557428Y-82068720D02*
G01*
X86631077Y-82105087D01*
X86788098Y-82143159D01*
X87057024Y-82139489D01*
X87190565Y-82126258D01*
X87490209Y-82108406D01*
X87816807Y-82116853D01*
X88133282Y-82147400D01*
X88402556Y-82195850D01*
X88587553Y-82258004D01*
X88633761Y-82289658D01*
X88676908Y-82373273D01*
X88653358Y-82501683D01*
X88589409Y-82650890D01*
X88494088Y-82885644D01*
X88430716Y-83106559D01*
X88406143Y-83279417D01*
X88427221Y-83369998D01*
X88444233Y-83376022D01*
X88509808Y-83324250D01*
X88639270Y-83183485D01*
X88813565Y-82975549D01*
X89003193Y-82735831D01*
X89264961Y-82407466D01*
X89458439Y-82192227D01*
X89589335Y-82086260D01*
X89663359Y-82085713D01*
X89686219Y-82186733D01*
X89679644Y-82279284D01*
X89652121Y-82510899D01*
X90027094Y-82320572D01*
X90362579Y-82187584D01*
X90667137Y-82135248D01*
X90920965Y-82159162D01*
X91104260Y-82254925D01*
X91197220Y-82418134D01*
X91196079Y-82580427D01*
X91191768Y-82710086D01*
X91234089Y-82733541D01*
X91298697Y-82663426D01*
X91361249Y-82512376D01*
X91366845Y-82491804D01*
X91464130Y-82321380D01*
X91660001Y-82207502D01*
X91966108Y-82145664D01*
X92300698Y-82130631D01*
X92527170Y-82140911D01*
X92657838Y-82181563D01*
X92734319Y-82266376D01*
X92739671Y-82276095D01*
X92778293Y-82434721D01*
X92717143Y-82525779D01*
X92584427Y-82520883D01*
X92526043Y-82491093D01*
X92373400Y-82445906D01*
X92172226Y-82443878D01*
X91976263Y-82478350D01*
X91839251Y-82542664D01*
X91811108Y-82579669D01*
X91826259Y-82656334D01*
X91858743Y-82664419D01*
X92067574Y-82674679D01*
X92162083Y-82726844D01*
X92169549Y-82801361D01*
X92095105Y-82890556D01*
X91901447Y-82962907D01*
X91771667Y-82991688D01*
X91520771Y-83054612D01*
X91390471Y-83115718D01*
X91383522Y-83164308D01*
X91502682Y-83189681D01*
X91722215Y-83183643D01*
X91958250Y-83178880D01*
X92152940Y-83200634D01*
X92225938Y-83224827D01*
X92307354Y-83281546D01*
X92275482Y-83323852D01*
X92182016Y-83362292D01*
X92028133Y-83406816D01*
X91788475Y-83461751D01*
X91513923Y-83515469D01*
X91504042Y-83517231D01*
X91239560Y-83560718D01*
X91074432Y-83574095D01*
X90972532Y-83555624D01*
X90897732Y-83503566D01*
X90881154Y-83487259D01*
X90803522Y-83387781D01*
X90829944Y-83316335D01*
X90867030Y-83283897D01*
X90967303Y-83174642D01*
X91070006Y-83025273D01*
X91136262Y-82895227D01*
X91143869Y-82860661D01*
X91093414Y-82883714D01*
X90959219Y-82973850D01*
X90767046Y-83113479D01*
X90700569Y-83163424D01*
X90297956Y-83426110D01*
X89898131Y-83609911D01*
X89533506Y-83701287D01*
X89395059Y-83708780D01*
X89221506Y-83683977D01*
X89178208Y-83627078D01*
X89268562Y-83549423D01*
X89337692Y-83517226D01*
X89496152Y-83387320D01*
X89602556Y-83185559D01*
X89967302Y-83185559D01*
X90015079Y-83187004D01*
X90137931Y-83120667D01*
X90305142Y-83008032D01*
X90485997Y-82870581D01*
X90649778Y-82729797D01*
X90723116Y-82656944D01*
X90825134Y-82530353D01*
X90860757Y-82450396D01*
X90857803Y-82443998D01*
X90777679Y-82440440D01*
X90608724Y-82467306D01*
X90482644Y-82495632D01*
X90278255Y-82554451D01*
X90175686Y-82617549D01*
X90140303Y-82712449D01*
X90137115Y-82770188D01*
X90105956Y-82942252D01*
X90050602Y-83043567D01*
X89977494Y-83147323D01*
X89967302Y-83185559D01*
X89602556Y-83185559D01*
X89603364Y-83184027D01*
X89629032Y-82970788D01*
X89619975Y-82926158D01*
X89600146Y-82799922D01*
X89595885Y-82735831D01*
X89577962Y-82636537D01*
X89527433Y-82642283D01*
X89433267Y-82760201D01*
X89344748Y-82898250D01*
X89195733Y-83111763D01*
X89002246Y-83353737D01*
X88883839Y-83487561D01*
X88712433Y-83660554D01*
X88589709Y-83745758D01*
X88477996Y-83763569D01*
X88399037Y-83750022D01*
X88191814Y-83682564D01*
X88079042Y-83582118D01*
X88039783Y-83413915D01*
X88050427Y-83171188D01*
X88079354Y-82925582D01*
X88114589Y-82715618D01*
X88134978Y-82632016D01*
X88153095Y-82526780D01*
X88094368Y-82483938D01*
X87949986Y-82476294D01*
X87835131Y-82484006D01*
X87744919Y-82522711D01*
X87656659Y-82615758D01*
X87547662Y-82786500D01*
X87409320Y-83032719D01*
X87222899Y-83358796D01*
X87082894Y-83571550D01*
X86978402Y-83683649D01*
X86898517Y-83707764D01*
X86852266Y-83679949D01*
X86846240Y-83584427D01*
X86900374Y-83387264D01*
X87008999Y-83108587D01*
X87021011Y-83080757D01*
X87131520Y-82819987D01*
X87188466Y-82660477D01*
X87196632Y-82577967D01*
X87160803Y-82548196D01*
X87126572Y-82545504D01*
X86997099Y-82512005D01*
X86956676Y-82476294D01*
X86882311Y-82411674D01*
X86788826Y-82442378D01*
X86667884Y-82577193D01*
X86511146Y-82824904D01*
X86353537Y-83111857D01*
X86171736Y-83447379D01*
X86037207Y-83671987D01*
X85938469Y-83800099D01*
X85864045Y-83846132D01*
X85802454Y-83824506D01*
X85793086Y-83815792D01*
X85753953Y-83740771D01*
X85759360Y-83621772D01*
X85815174Y-83439543D01*
X85927260Y-83174834D01*
X86097665Y-82816208D01*
X86239168Y-82529345D01*
X86359270Y-82290862D01*
X86444711Y-82126757D01*
X86481466Y-82063655D01*
X86557428Y-82068720D01*
G37*
G36*
X83217392Y-73814606D02*
G01*
X83300858Y-73963060D01*
X83346020Y-74064422D01*
X83495275Y-74318398D01*
X83749877Y-74622352D01*
X83968908Y-74841803D01*
X84402733Y-75256392D01*
X84746007Y-75595625D01*
X85012476Y-75875150D01*
X85215889Y-76110615D01*
X85369993Y-76317671D01*
X85488533Y-76511964D01*
X85559336Y-76652217D01*
X85751334Y-77199136D01*
X85856000Y-77808744D01*
X85866922Y-78431429D01*
X85831323Y-78757302D01*
X85789014Y-79023070D01*
X85753368Y-79247894D01*
X85731780Y-79385123D01*
X85731177Y-79389009D01*
X85749372Y-79510198D01*
X85789699Y-79547928D01*
X85860497Y-79505357D01*
X85940211Y-79344968D01*
X86024251Y-79086698D01*
X86108024Y-78750488D01*
X86186942Y-78356277D01*
X86256412Y-77924005D01*
X86311844Y-77473611D01*
X86339803Y-77158670D01*
X86374525Y-76803272D01*
X86427076Y-76577567D01*
X86512865Y-76475742D01*
X86647300Y-76491987D01*
X86845790Y-76620488D01*
X87123744Y-76855433D01*
X87129700Y-76860717D01*
X87271830Y-77000375D01*
X87300921Y-77064160D01*
X87220290Y-77051177D01*
X87033251Y-76960529D01*
X86944171Y-76910809D01*
X86768328Y-76821911D01*
X86645141Y-76781125D01*
X86615424Y-76784758D01*
X86588801Y-76875451D01*
X86576028Y-77051411D01*
X86575765Y-77270446D01*
X86586668Y-77490365D01*
X86607398Y-77668975D01*
X86636612Y-77764084D01*
X86646751Y-77770027D01*
X86776288Y-77736889D01*
X86981333Y-77651642D01*
X87220009Y-77535534D01*
X87450443Y-77409816D01*
X87630759Y-77295737D01*
X87706456Y-77232275D01*
X87799845Y-77078883D01*
X87888418Y-76857939D01*
X87918282Y-76755934D01*
X87985465Y-76544379D01*
X88073325Y-76422106D01*
X88219662Y-76341041D01*
X88255583Y-76326943D01*
X88594069Y-76266256D01*
X88926683Y-76329091D01*
X89182207Y-76481395D01*
X89305388Y-76622892D01*
X89305083Y-76722249D01*
X89190460Y-76776849D01*
X88970691Y-76784076D01*
X88654945Y-76741313D01*
X88437219Y-76693974D01*
X88318214Y-76678606D01*
X88256300Y-76730997D01*
X88218533Y-76883793D01*
X88213139Y-76916019D01*
X88103486Y-77264879D01*
X87911042Y-77560471D01*
X87670996Y-77756773D01*
X87400244Y-77921460D01*
X87212370Y-78094200D01*
X87082159Y-78311592D01*
X86984391Y-78610238D01*
X86934654Y-78825477D01*
X86805984Y-79431063D01*
X87475749Y-79431063D01*
X87475749Y-80538420D01*
X87472358Y-80912305D01*
X87462987Y-81232270D01*
X87448837Y-81475152D01*
X87431110Y-81617790D01*
X87418285Y-81645777D01*
X87342589Y-81606265D01*
X87183020Y-81499462D01*
X86965036Y-81342966D01*
X86778094Y-81203241D01*
X86195368Y-80760705D01*
X86160763Y-81151333D01*
X86126158Y-81541962D01*
X85748624Y-81541962D01*
X85528523Y-81535968D01*
X85408383Y-81507521D01*
X85349910Y-81440918D01*
X85326629Y-81368937D01*
X85282166Y-81195913D01*
X85254298Y-81368937D01*
X85220866Y-81475221D01*
X85139217Y-81531163D01*
X84970440Y-81557649D01*
X84892254Y-81563278D01*
X84683535Y-81567373D01*
X84574090Y-81537901D01*
X84526655Y-81464046D01*
X84524596Y-81456561D01*
X84473289Y-81372471D01*
X84354362Y-81349352D01*
X84235884Y-81358673D01*
X84083849Y-81382891D01*
X84056984Y-81409944D01*
X84119074Y-81440659D01*
X84182888Y-81466679D01*
X84205658Y-81491017D01*
X84170416Y-81521487D01*
X84060191Y-81565907D01*
X83858014Y-81632092D01*
X83546916Y-81727857D01*
X83395227Y-81774051D01*
X83099790Y-81867466D01*
X82923728Y-81933466D01*
X82852441Y-81979435D01*
X82871329Y-82012756D01*
X82900714Y-82024149D01*
X83006979Y-82099812D01*
X83029892Y-82245205D01*
X82970830Y-82479231D01*
X82939949Y-82562807D01*
X82929293Y-82632093D01*
X82984773Y-82668621D01*
X83134262Y-82682405D01*
X83277067Y-82683924D01*
X83513466Y-82671109D01*
X83660560Y-82638319D01*
X83704590Y-82594036D01*
X83631798Y-82546742D01*
X83538406Y-82522804D01*
X83376421Y-82450186D01*
X83284349Y-82333898D01*
X83288595Y-82213411D01*
X83311412Y-82183520D01*
X83398960Y-82161953D01*
X83599432Y-82143397D01*
X83887340Y-82129297D01*
X84237196Y-82121098D01*
X84438340Y-82119640D01*
X84965049Y-82119229D01*
X85370816Y-82120625D01*
X85673119Y-82124631D01*
X85889431Y-82132047D01*
X86037229Y-82143675D01*
X86133986Y-82160318D01*
X86197180Y-82182776D01*
X86229973Y-82201830D01*
X86292149Y-82265797D01*
X86246064Y-82336395D01*
X86199442Y-82373795D01*
X86038438Y-82444406D01*
X85830764Y-82476158D01*
X85817786Y-82476294D01*
X85697869Y-82482720D01*
X85606063Y-82517499D01*
X85519274Y-82603879D01*
X85414410Y-82765112D01*
X85268376Y-83024447D01*
X85262210Y-83035633D01*
X85062463Y-83370541D01*
X84896405Y-83591594D01*
X84768815Y-83693614D01*
X84684471Y-83671422D01*
X84680767Y-83665830D01*
X84690466Y-83580387D01*
X84746955Y-83402669D01*
X84839117Y-83166123D01*
X84874101Y-83083991D01*
X85102424Y-82558768D01*
X84896239Y-82517531D01*
X84677076Y-82488706D01*
X84439422Y-82477265D01*
X84439169Y-82477266D01*
X84316922Y-82483913D01*
X84224667Y-82518490D01*
X84138981Y-82604635D01*
X84036444Y-82765987D01*
X83893633Y-83026183D01*
X83891672Y-83029831D01*
X83715342Y-83332106D01*
X83560515Y-83548914D01*
X83437007Y-83670687D01*
X83354636Y-83687858D01*
X83323219Y-83590860D01*
X83323161Y-83583863D01*
X83349475Y-83426297D01*
X83414176Y-83224184D01*
X83427884Y-83190148D01*
X83488063Y-83024841D01*
X83508556Y-82922831D01*
X83505173Y-82912076D01*
X83426998Y-82905020D01*
X83255893Y-82916443D01*
X83115286Y-82932723D01*
X82900276Y-82968253D01*
X82774185Y-83025519D01*
X82688225Y-83140270D01*
X82614680Y-83299530D01*
X82415703Y-83750882D01*
X82258938Y-84087715D01*
X82136889Y-84324697D01*
X82042060Y-84476493D01*
X81974827Y-84551545D01*
X81901042Y-84603650D01*
X81874740Y-84577494D01*
X81887201Y-84449417D01*
X81902581Y-84355486D01*
X81957593Y-84125264D01*
X82047093Y-83841819D01*
X82122371Y-83640617D01*
X82206583Y-83417569D01*
X82259991Y-83244863D01*
X82271131Y-83164337D01*
X82202601Y-83154907D01*
X82051975Y-83197893D01*
X81956267Y-83237205D01*
X81807228Y-83310830D01*
X81714752Y-83389649D01*
X81671822Y-83502544D01*
X81671416Y-83678395D01*
X81706514Y-83946085D01*
X81737484Y-84137330D01*
X81805862Y-84687243D01*
X81806839Y-85131723D01*
X81735784Y-85488703D01*
X81588068Y-85776116D01*
X81359064Y-86011895D01*
X81229564Y-86105076D01*
X81115067Y-86174119D01*
X81058237Y-86179640D01*
X81055189Y-86102971D01*
X81102035Y-85925443D01*
X81155979Y-85751626D01*
X81219856Y-85477798D01*
X81202690Y-85313453D01*
X81103159Y-85254916D01*
X80984437Y-85274718D01*
X80872508Y-85349014D01*
X80781319Y-85505175D01*
X80703182Y-85761998D01*
X80630408Y-86138279D01*
X80629856Y-86141645D01*
X80471995Y-86725952D01*
X80198217Y-87246779D01*
X79804422Y-87709264D01*
X79286514Y-88118544D01*
X78847369Y-88376430D01*
X78574568Y-88514455D01*
X78341356Y-88623585D01*
X78178485Y-88689915D01*
X78124063Y-88703489D01*
X78125223Y-88662842D01*
X78215522Y-88556922D01*
X78376171Y-88407125D01*
X78409264Y-88378718D01*
X78923320Y-87911113D01*
X79313669Y-87484868D01*
X79586400Y-87093248D01*
X79610378Y-87050349D01*
X79701076Y-86842941D01*
X79812847Y-86521355D01*
X79938986Y-86107016D01*
X80072788Y-85621351D01*
X80142998Y-85348405D01*
X80283417Y-84815445D01*
X80421462Y-84339796D01*
X80549914Y-83944506D01*
X80661553Y-83652621D01*
X80700277Y-83569204D01*
X81009462Y-83041392D01*
X81258626Y-82710942D01*
X82363636Y-82710942D01*
X82385760Y-82750933D01*
X82416029Y-82753133D01*
X82490357Y-82697662D01*
X82521428Y-82639529D01*
X82539174Y-82564813D01*
X82480123Y-82596674D01*
X82459622Y-82613399D01*
X82363636Y-82710942D01*
X81258626Y-82710942D01*
X81290635Y-82668490D01*
X81830849Y-82668490D01*
X81841768Y-82683924D01*
X81921978Y-82637470D01*
X82063621Y-82516286D01*
X82218696Y-82364169D01*
X82353436Y-82215037D01*
X82415577Y-82125668D01*
X82392542Y-82114388D01*
X82388828Y-82116254D01*
X82271040Y-82197628D01*
X82128193Y-82322752D01*
X81988443Y-82462414D01*
X81879944Y-82587398D01*
X81830849Y-82668490D01*
X81290635Y-82668490D01*
X81377163Y-82553734D01*
X81778416Y-82134261D01*
X82188259Y-81811001D01*
X82354223Y-81712119D01*
X82596458Y-81582684D01*
X82194600Y-81579626D01*
X81956465Y-81585548D01*
X81802683Y-81620887D01*
X81679539Y-81705192D01*
X81584935Y-81801499D01*
X81473564Y-81933572D01*
X81341528Y-82113942D01*
X81179731Y-82356771D01*
X80979076Y-82676224D01*
X80730466Y-83086464D01*
X80424806Y-83601654D01*
X80380678Y-83676614D01*
X79896394Y-84435021D01*
X79411043Y-85063580D01*
X78917886Y-85570745D01*
X78767071Y-85700766D01*
X78518545Y-85892014D01*
X78255302Y-86072177D01*
X78003828Y-86225811D01*
X77790611Y-86337473D01*
X77642136Y-86391719D01*
X77590437Y-86386804D01*
X77620253Y-86327943D01*
X77731000Y-86207937D01*
X77872853Y-86076006D01*
X78139304Y-85796881D01*
X78431066Y-85404720D01*
X78751688Y-84894014D01*
X79104725Y-84259258D01*
X79346341Y-83791281D01*
X79691022Y-83131119D01*
X80002762Y-82583230D01*
X80278122Y-82153218D01*
X80513664Y-81846686D01*
X80587233Y-81768450D01*
X80778161Y-81579679D01*
X79472595Y-81560820D01*
X78167030Y-81541962D01*
X78167030Y-81403542D01*
X81177657Y-81403542D01*
X81212262Y-81438147D01*
X81232405Y-81418003D01*
X82712992Y-81418003D01*
X82747854Y-81462659D01*
X82850867Y-81488995D01*
X82945624Y-81416068D01*
X82961251Y-81381914D01*
X82927137Y-81316611D01*
X82844460Y-81299727D01*
X82719957Y-81333210D01*
X82712992Y-81418003D01*
X81232405Y-81418003D01*
X81246866Y-81403542D01*
X81212262Y-81368937D01*
X81177657Y-81403542D01*
X78167030Y-81403542D01*
X78167030Y-80559259D01*
X78340054Y-80559259D01*
X78351355Y-80786027D01*
X78396186Y-80906155D01*
X78490943Y-80950362D01*
X78550568Y-80953678D01*
X78657001Y-80890302D01*
X78706861Y-80763351D01*
X78719671Y-80552082D01*
X78698209Y-80356908D01*
X78653155Y-80211942D01*
X78582987Y-80175159D01*
X78495777Y-80198956D01*
X78394995Y-80261820D01*
X78349510Y-80379182D01*
X78340054Y-80559259D01*
X78167030Y-80559259D01*
X78167030Y-79465668D01*
X78928338Y-79465668D01*
X78948061Y-80175068D01*
X78967785Y-80884469D01*
X80269573Y-80884469D01*
X80291054Y-81128458D01*
X80302565Y-81209856D01*
X80325621Y-81242837D01*
X80369798Y-81214861D01*
X80444667Y-81113385D01*
X80533887Y-80968079D01*
X80810437Y-80968079D01*
X80851430Y-80976033D01*
X80967860Y-80948120D01*
X81156865Y-80940643D01*
X81210333Y-80942817D01*
X81379712Y-80942242D01*
X81415304Y-80913136D01*
X81396209Y-80896468D01*
X81338757Y-80826667D01*
X81374483Y-80720940D01*
X81393824Y-80688887D01*
X81471480Y-80589979D01*
X81546971Y-80604559D01*
X81607832Y-80655734D01*
X81716908Y-80787163D01*
X81701803Y-80867798D01*
X81610218Y-80891367D01*
X81565327Y-80908353D01*
X81653646Y-80944048D01*
X81661227Y-80946183D01*
X81877274Y-80976575D01*
X82067996Y-80954134D01*
X82191446Y-80887769D01*
X82215804Y-80828426D01*
X82178298Y-80708324D01*
X82083638Y-80532706D01*
X82031140Y-80452414D01*
X81911560Y-80293764D01*
X81804877Y-80218358D01*
X81654635Y-80199965D01*
X81501771Y-80206460D01*
X81266155Y-80236708D01*
X81117082Y-80306063D01*
X81028775Y-80400000D01*
X80935782Y-80552974D01*
X80861056Y-80722484D01*
X80815604Y-80872772D01*
X80810437Y-80968079D01*
X80533887Y-80968079D01*
X80559804Y-80925869D01*
X80724781Y-80639771D01*
X80898078Y-80333267D01*
X81126435Y-79938083D01*
X81311741Y-79638459D01*
X81448497Y-79442622D01*
X81531206Y-79358802D01*
X81548836Y-79359299D01*
X81605421Y-79441184D01*
X81714589Y-79619642D01*
X81861780Y-79870204D01*
X82032437Y-80168396D01*
X82073396Y-80241003D01*
X82261473Y-80571370D01*
X82399726Y-80799487D01*
X82504065Y-80944921D01*
X82590400Y-81027239D01*
X82674641Y-81066006D01*
X82754927Y-81079181D01*
X82906425Y-81081767D01*
X82976534Y-81058909D01*
X82977112Y-81055705D01*
X82953452Y-81020716D01*
X83738420Y-81020716D01*
X83744758Y-81167573D01*
X83760046Y-81230480D01*
X83760463Y-81230518D01*
X83833396Y-81212492D01*
X83997541Y-81166123D01*
X84141117Y-81124022D01*
X84353984Y-81051038D01*
X84462514Y-80979855D01*
X84498388Y-80886598D01*
X84499727Y-80853768D01*
X84487618Y-80752580D01*
X84426209Y-80712166D01*
X84277878Y-80715893D01*
X84205586Y-80723728D01*
X83957851Y-80757333D01*
X83817724Y-80799578D01*
X83754806Y-80869788D01*
X83738700Y-80987288D01*
X83738420Y-81020716D01*
X82953452Y-81020716D01*
X82931169Y-80987762D01*
X82811241Y-80854898D01*
X82658509Y-80700895D01*
X82535036Y-80573025D01*
X83115531Y-80573025D01*
X83119212Y-80790668D01*
X83142189Y-80903955D01*
X83202368Y-80946940D01*
X83315658Y-80953678D01*
X83472936Y-80924319D01*
X83550217Y-80811343D01*
X83561440Y-80771771D01*
X83578625Y-80585827D01*
X84651663Y-80585827D01*
X84672015Y-80741684D01*
X84709268Y-80911719D01*
X84764700Y-80976134D01*
X84872155Y-80966840D01*
X84902537Y-80959033D01*
X85014646Y-80914170D01*
X85073864Y-80829748D01*
X85101364Y-80664935D01*
X85108562Y-80561682D01*
X85108968Y-80551385D01*
X85509181Y-80551385D01*
X85522074Y-80738979D01*
X85564240Y-80891067D01*
X85658883Y-80947696D01*
X85755090Y-80953678D01*
X85905037Y-80929763D01*
X85977246Y-80829664D01*
X85998120Y-80746049D01*
X86035049Y-80595440D01*
X86088063Y-80551277D01*
X86194761Y-80603758D01*
X86289647Y-80670049D01*
X86579822Y-80840650D01*
X86860617Y-80942448D01*
X87092179Y-80961942D01*
X87129700Y-80954614D01*
X87234058Y-80911928D01*
X87285346Y-80828740D01*
X87301806Y-80664295D01*
X87302725Y-80568045D01*
X87296741Y-80363684D01*
X87265413Y-80259376D01*
X87188676Y-80216858D01*
X87112398Y-80205076D01*
X86974553Y-80206792D01*
X86921011Y-80239681D01*
X86886713Y-80343307D01*
X86861668Y-80388120D01*
X86799793Y-80434084D01*
X86689673Y-80411556D01*
X86535006Y-80336213D01*
X86184758Y-80217421D01*
X85910319Y-80192371D01*
X85698136Y-80199098D01*
X85586062Y-80230138D01*
X85536023Y-80301774D01*
X85522287Y-80358325D01*
X85509181Y-80551385D01*
X85108968Y-80551385D01*
X85116675Y-80356141D01*
X85098310Y-80261580D01*
X85271963Y-80261580D01*
X85282840Y-80359833D01*
X85306872Y-80348093D01*
X85316013Y-80206396D01*
X85306872Y-80175068D01*
X85281611Y-80166374D01*
X85271963Y-80261580D01*
X85098310Y-80261580D01*
X85096565Y-80252593D01*
X85029130Y-80214910D01*
X84921401Y-80207714D01*
X84752011Y-80241218D01*
X84664193Y-80362771D01*
X84651663Y-80585827D01*
X83578625Y-80585827D01*
X83580766Y-80562664D01*
X83563444Y-80391117D01*
X83504926Y-80245288D01*
X83385658Y-80195165D01*
X83317662Y-80192371D01*
X83202096Y-80199202D01*
X83141944Y-80242404D01*
X83119118Y-80356035D01*
X83115531Y-80573025D01*
X82535036Y-80573025D01*
X82467731Y-80503323D01*
X82386092Y-80387896D01*
X82413743Y-80355341D01*
X82550831Y-80406385D01*
X82603463Y-80432941D01*
X82810171Y-80523413D01*
X82925796Y-80521960D01*
X82967534Y-80422887D01*
X82964194Y-80313488D01*
X82942110Y-80177634D01*
X82884292Y-80108229D01*
X82751880Y-80078263D01*
X82609974Y-80067307D01*
X82277440Y-80046057D01*
X82298529Y-79755863D01*
X82319619Y-79465668D01*
X83340463Y-79446515D01*
X84361308Y-79427362D01*
X84361308Y-80053951D01*
X84049864Y-80053951D01*
X83856065Y-80062490D01*
X83764326Y-80099315D01*
X83738766Y-80181237D01*
X83738420Y-80199873D01*
X83759815Y-80301088D01*
X83850843Y-80315092D01*
X83919518Y-80300343D01*
X84133148Y-80250446D01*
X84296832Y-80215647D01*
X84413441Y-80180301D01*
X84475183Y-80108560D01*
X84477797Y-80095025D01*
X86568565Y-80095025D01*
X86595770Y-80175068D01*
X86666279Y-80249255D01*
X86701795Y-80222520D01*
X86713141Y-80078948D01*
X86713421Y-80002044D01*
X86710064Y-79837774D01*
X86692123Y-79798336D01*
X86645063Y-79870144D01*
X86620881Y-79915531D01*
X86568565Y-80095025D01*
X84477797Y-80095025D01*
X84503654Y-79961129D01*
X84513690Y-79821036D01*
X84534332Y-79465668D01*
X84891951Y-79444947D01*
X85109631Y-79440675D01*
X85226106Y-79466652D01*
X85277025Y-79532369D01*
X85281879Y-79548762D01*
X85307253Y-79618570D01*
X85319992Y-79557425D01*
X85322217Y-79521014D01*
X85374029Y-79372071D01*
X85438725Y-79308023D01*
X85514907Y-79197892D01*
X85584321Y-78965102D01*
X85624100Y-78750530D01*
X85659040Y-78201049D01*
X85605414Y-77640560D01*
X85470316Y-77119676D01*
X85358863Y-76858484D01*
X85182491Y-76579767D01*
X84938304Y-76282527D01*
X84664492Y-76007087D01*
X84399252Y-75793771D01*
X84284910Y-75724621D01*
X84142460Y-75660283D01*
X84073557Y-75667807D01*
X84042311Y-75723063D01*
X84036822Y-75911018D01*
X84126271Y-76152415D01*
X84295717Y-76416518D01*
X84481134Y-76625766D01*
X84651978Y-76806335D01*
X84713935Y-76905992D01*
X84665138Y-76926146D01*
X84503722Y-76868202D01*
X84293516Y-76767204D01*
X83936773Y-76514731D01*
X83623614Y-76150723D01*
X83374227Y-75700074D01*
X83320864Y-75567894D01*
X83263540Y-75366741D01*
X83211641Y-75099179D01*
X83167846Y-74794826D01*
X83134834Y-74483298D01*
X83115282Y-74194212D01*
X83111869Y-73957184D01*
X83127274Y-73801831D01*
X83157011Y-73756118D01*
X83217392Y-73814606D01*
G37*
D13*
X132975000Y-48150000D02*
X132975000Y-48400000D01*
X132975000Y-48150000D02*
X137275000Y-48150000D01*
X132975000Y-51700000D02*
X132975000Y-51450000D01*
X132975000Y-51700000D02*
X137275000Y-51700000D01*
X137275000Y-48150000D02*
X137275000Y-48400000D01*
X137275000Y-51700000D02*
X137275000Y-51500000D01*
X136175000Y-49975000D02*
G75*
G03*
X136175000Y-49975000I-1075000J0D01*
G01*
X92970000Y-64340000D02*
X92970000Y-64540000D01*
X92970000Y-66240000D02*
X92970000Y-68640000D01*
X92970000Y-70540000D02*
X92970000Y-70340000D01*
X92970000Y-70540000D02*
X99670000Y-70540000D01*
X99670000Y-64340000D02*
X92970000Y-64340000D01*
X99670000Y-64340000D02*
X99670000Y-64540000D01*
X99670000Y-66240000D02*
X99670000Y-68640000D01*
X99670000Y-70540000D02*
X99670000Y-70340000D01*
X98310000Y-61646359D02*
X98310000Y-61953641D01*
X97550000Y-61646359D02*
X97550000Y-61953641D01*
X154740000Y-79080000D02*
X147920000Y-79080000D01*
X147920000Y-79080000D02*
X147920000Y-75420000D01*
X147920000Y-75420000D02*
X154740000Y-75420000D01*
X154740000Y-75420000D02*
X154740000Y-79080000D01*
D15*
X152670000Y-75140000D02*
G75*
G03*
X152670000Y-75140000I-100000J0D01*
G01*
M02*
