G04 #@! TF.GenerationSoftware,KiCad,Pcbnew,7.0.5*
G04 #@! TF.CreationDate,2023-12-24T08:42:56+03:00*
G04 #@! TF.ProjectId,ALERT_RIDER_HARDWARE,414c4552-545f-4524-9944-45525f484152,rev?*
G04 #@! TF.SameCoordinates,Original*
G04 #@! TF.FileFunction,Legend,Top*
G04 #@! TF.FilePolarity,Positive*
%FSLAX46Y46*%
G04 Gerber Fmt 4.6, Leading zero omitted, Abs format (unit mm)*
G04 Created by KiCad (PCBNEW 7.0.5) date 2023-12-24 08:42:56*
%MOMM*%
%LPD*%
G01*
G04 APERTURE LIST*
%ADD10C,0.150000*%
%ADD11C,0.250000*%
%ADD12C,0.100000*%
%ADD13C,0.120000*%
%ADD14C,0.127000*%
%ADD15C,0.200000*%
G04 APERTURE END LIST*
D10*
X64362801Y-67090000D02*
G75*
G03*
X64362801Y-67090000I-72801J0D01*
G01*
X95165440Y-51020000D02*
G75*
G03*
X95165440Y-51020000I-85440J0D01*
G01*
X66800000Y-64920000D02*
G75*
G03*
X66800000Y-64920000I-200000J0D01*
G01*
X133330000Y-72650000D02*
G75*
G03*
X133330000Y-72650000I-200000J0D01*
G01*
X109800000Y-76000000D02*
G75*
G03*
X109800000Y-76000000I-200000J0D01*
G01*
X149500000Y-59900000D02*
G75*
G03*
X149500000Y-59900000I-200000J0D01*
G01*
X72322801Y-77230000D02*
G75*
G03*
X72322801Y-77230000I-72801J0D01*
G01*
X90682801Y-64960000D02*
G75*
G03*
X90682801Y-64960000I-72801J0D01*
G01*
X64490000Y-67090000D02*
G75*
G03*
X64490000Y-67090000I-200000J0D01*
G01*
X109672801Y-76000000D02*
G75*
G03*
X109672801Y-76000000I-72801J0D01*
G01*
X114562801Y-65230000D02*
G75*
G03*
X114562801Y-65230000I-72801J0D01*
G01*
X114690000Y-65230000D02*
G75*
G03*
X114690000Y-65230000I-200000J0D01*
G01*
X66672801Y-64920000D02*
G75*
G03*
X66672801Y-64920000I-72801J0D01*
G01*
X72450000Y-77230000D02*
G75*
G03*
X72450000Y-77230000I-200000J0D01*
G01*
X149372801Y-59900000D02*
G75*
G03*
X149372801Y-59900000I-72801J0D01*
G01*
X146420000Y-65370000D02*
G75*
G03*
X146420000Y-65370000I-200000J0D01*
G01*
X146292801Y-65370000D02*
G75*
G03*
X146292801Y-65370000I-72801J0D01*
G01*
X133202801Y-72650000D02*
G75*
G03*
X133202801Y-72650000I-72801J0D01*
G01*
X90810000Y-64960000D02*
G75*
G03*
X90810000Y-64960000I-200000J0D01*
G01*
X53442857Y-71206009D02*
X53585714Y-71253628D01*
X53585714Y-71253628D02*
X53633333Y-71301247D01*
X53633333Y-71301247D02*
X53680952Y-71396485D01*
X53680952Y-71396485D02*
X53680952Y-71539342D01*
X53680952Y-71539342D02*
X53633333Y-71634580D01*
X53633333Y-71634580D02*
X53585714Y-71682200D01*
X53585714Y-71682200D02*
X53490476Y-71729819D01*
X53490476Y-71729819D02*
X53109524Y-71729819D01*
X53109524Y-71729819D02*
X53109524Y-70729819D01*
X53109524Y-70729819D02*
X53442857Y-70729819D01*
X53442857Y-70729819D02*
X53538095Y-70777438D01*
X53538095Y-70777438D02*
X53585714Y-70825057D01*
X53585714Y-70825057D02*
X53633333Y-70920295D01*
X53633333Y-70920295D02*
X53633333Y-71015533D01*
X53633333Y-71015533D02*
X53585714Y-71110771D01*
X53585714Y-71110771D02*
X53538095Y-71158390D01*
X53538095Y-71158390D02*
X53442857Y-71206009D01*
X53442857Y-71206009D02*
X53109524Y-71206009D01*
X54061905Y-71444104D02*
X54538095Y-71444104D01*
X53966667Y-71729819D02*
X54300000Y-70729819D01*
X54300000Y-70729819D02*
X54633333Y-71729819D01*
X54823810Y-70729819D02*
X55395238Y-70729819D01*
X55109524Y-71729819D02*
X55109524Y-70729819D01*
X55728572Y-71348866D02*
X56490477Y-71348866D01*
X110418095Y-74694819D02*
X110989523Y-74694819D01*
X110703809Y-75694819D02*
X110703809Y-74694819D01*
X111227619Y-74694819D02*
X111894285Y-75694819D01*
X111894285Y-74694819D02*
X111227619Y-75694819D01*
X64388095Y-47823866D02*
X65150000Y-47823866D01*
X64769047Y-48204819D02*
X64769047Y-47442914D01*
X65530952Y-47204819D02*
X66149999Y-47204819D01*
X66149999Y-47204819D02*
X65816666Y-47585771D01*
X65816666Y-47585771D02*
X65959523Y-47585771D01*
X65959523Y-47585771D02*
X66054761Y-47633390D01*
X66054761Y-47633390D02*
X66102380Y-47681009D01*
X66102380Y-47681009D02*
X66149999Y-47776247D01*
X66149999Y-47776247D02*
X66149999Y-48014342D01*
X66149999Y-48014342D02*
X66102380Y-48109580D01*
X66102380Y-48109580D02*
X66054761Y-48157200D01*
X66054761Y-48157200D02*
X65959523Y-48204819D01*
X65959523Y-48204819D02*
X65673809Y-48204819D01*
X65673809Y-48204819D02*
X65578571Y-48157200D01*
X65578571Y-48157200D02*
X65530952Y-48109580D01*
X66435714Y-47204819D02*
X66769047Y-48204819D01*
X66769047Y-48204819D02*
X67102380Y-47204819D01*
X67340476Y-47204819D02*
X67959523Y-47204819D01*
X67959523Y-47204819D02*
X67626190Y-47585771D01*
X67626190Y-47585771D02*
X67769047Y-47585771D01*
X67769047Y-47585771D02*
X67864285Y-47633390D01*
X67864285Y-47633390D02*
X67911904Y-47681009D01*
X67911904Y-47681009D02*
X67959523Y-47776247D01*
X67959523Y-47776247D02*
X67959523Y-48014342D01*
X67959523Y-48014342D02*
X67911904Y-48109580D01*
X67911904Y-48109580D02*
X67864285Y-48157200D01*
X67864285Y-48157200D02*
X67769047Y-48204819D01*
X67769047Y-48204819D02*
X67483333Y-48204819D01*
X67483333Y-48204819D02*
X67388095Y-48157200D01*
X67388095Y-48157200D02*
X67340476Y-48109580D01*
X54797619Y-62879819D02*
X55369047Y-62879819D01*
X55083333Y-63879819D02*
X55083333Y-62879819D01*
X55702381Y-63879819D02*
X55702381Y-62879819D01*
X55702381Y-63356009D02*
X56273809Y-63356009D01*
X56273809Y-63879819D02*
X56273809Y-62879819D01*
X56750000Y-63356009D02*
X57083333Y-63356009D01*
X57226190Y-63879819D02*
X56750000Y-63879819D01*
X56750000Y-63879819D02*
X56750000Y-62879819D01*
X56750000Y-62879819D02*
X57226190Y-62879819D01*
X58226190Y-63879819D02*
X57892857Y-63403628D01*
X57654762Y-63879819D02*
X57654762Y-62879819D01*
X57654762Y-62879819D02*
X58035714Y-62879819D01*
X58035714Y-62879819D02*
X58130952Y-62927438D01*
X58130952Y-62927438D02*
X58178571Y-62975057D01*
X58178571Y-62975057D02*
X58226190Y-63070295D01*
X58226190Y-63070295D02*
X58226190Y-63213152D01*
X58226190Y-63213152D02*
X58178571Y-63308390D01*
X58178571Y-63308390D02*
X58130952Y-63356009D01*
X58130952Y-63356009D02*
X58035714Y-63403628D01*
X58035714Y-63403628D02*
X57654762Y-63403628D01*
X58654762Y-63879819D02*
X58654762Y-62879819D01*
X58654762Y-62879819D02*
X58988095Y-63594104D01*
X58988095Y-63594104D02*
X59321428Y-62879819D01*
X59321428Y-62879819D02*
X59321428Y-63879819D01*
X59797619Y-63498866D02*
X60559524Y-63498866D01*
X60178571Y-63879819D02*
X60178571Y-63117914D01*
X76257142Y-91754819D02*
X76828570Y-91754819D01*
X76542856Y-92754819D02*
X76542856Y-91754819D01*
X77114285Y-92707200D02*
X77257142Y-92754819D01*
X77257142Y-92754819D02*
X77495237Y-92754819D01*
X77495237Y-92754819D02*
X77590475Y-92707200D01*
X77590475Y-92707200D02*
X77638094Y-92659580D01*
X77638094Y-92659580D02*
X77685713Y-92564342D01*
X77685713Y-92564342D02*
X77685713Y-92469104D01*
X77685713Y-92469104D02*
X77638094Y-92373866D01*
X77638094Y-92373866D02*
X77590475Y-92326247D01*
X77590475Y-92326247D02*
X77495237Y-92278628D01*
X77495237Y-92278628D02*
X77304761Y-92231009D01*
X77304761Y-92231009D02*
X77209523Y-92183390D01*
X77209523Y-92183390D02*
X77161904Y-92135771D01*
X77161904Y-92135771D02*
X77114285Y-92040533D01*
X77114285Y-92040533D02*
X77114285Y-91945295D01*
X77114285Y-91945295D02*
X77161904Y-91850057D01*
X77161904Y-91850057D02*
X77209523Y-91802438D01*
X77209523Y-91802438D02*
X77304761Y-91754819D01*
X77304761Y-91754819D02*
X77542856Y-91754819D01*
X77542856Y-91754819D02*
X77685713Y-91802438D01*
X78590475Y-91754819D02*
X78114285Y-91754819D01*
X78114285Y-91754819D02*
X78066666Y-92231009D01*
X78066666Y-92231009D02*
X78114285Y-92183390D01*
X78114285Y-92183390D02*
X78209523Y-92135771D01*
X78209523Y-92135771D02*
X78447618Y-92135771D01*
X78447618Y-92135771D02*
X78542856Y-92183390D01*
X78542856Y-92183390D02*
X78590475Y-92231009D01*
X78590475Y-92231009D02*
X78638094Y-92326247D01*
X78638094Y-92326247D02*
X78638094Y-92564342D01*
X78638094Y-92564342D02*
X78590475Y-92659580D01*
X78590475Y-92659580D02*
X78542856Y-92707200D01*
X78542856Y-92707200D02*
X78447618Y-92754819D01*
X78447618Y-92754819D02*
X78209523Y-92754819D01*
X78209523Y-92754819D02*
X78114285Y-92707200D01*
X78114285Y-92707200D02*
X78066666Y-92659580D01*
X79019047Y-91850057D02*
X79066666Y-91802438D01*
X79066666Y-91802438D02*
X79161904Y-91754819D01*
X79161904Y-91754819D02*
X79399999Y-91754819D01*
X79399999Y-91754819D02*
X79495237Y-91802438D01*
X79495237Y-91802438D02*
X79542856Y-91850057D01*
X79542856Y-91850057D02*
X79590475Y-91945295D01*
X79590475Y-91945295D02*
X79590475Y-92040533D01*
X79590475Y-92040533D02*
X79542856Y-92183390D01*
X79542856Y-92183390D02*
X78971428Y-92754819D01*
X78971428Y-92754819D02*
X79590475Y-92754819D01*
X80209523Y-91754819D02*
X80304761Y-91754819D01*
X80304761Y-91754819D02*
X80399999Y-91802438D01*
X80399999Y-91802438D02*
X80447618Y-91850057D01*
X80447618Y-91850057D02*
X80495237Y-91945295D01*
X80495237Y-91945295D02*
X80542856Y-92135771D01*
X80542856Y-92135771D02*
X80542856Y-92373866D01*
X80542856Y-92373866D02*
X80495237Y-92564342D01*
X80495237Y-92564342D02*
X80447618Y-92659580D01*
X80447618Y-92659580D02*
X80399999Y-92707200D01*
X80399999Y-92707200D02*
X80304761Y-92754819D01*
X80304761Y-92754819D02*
X80209523Y-92754819D01*
X80209523Y-92754819D02*
X80114285Y-92707200D01*
X80114285Y-92707200D02*
X80066666Y-92659580D01*
X80066666Y-92659580D02*
X80019047Y-92564342D01*
X80019047Y-92564342D02*
X79971428Y-92373866D01*
X79971428Y-92373866D02*
X79971428Y-92135771D01*
X79971428Y-92135771D02*
X80019047Y-91945295D01*
X80019047Y-91945295D02*
X80066666Y-91850057D01*
X80066666Y-91850057D02*
X80114285Y-91802438D01*
X80114285Y-91802438D02*
X80209523Y-91754819D01*
X81114285Y-92183390D02*
X81019047Y-92135771D01*
X81019047Y-92135771D02*
X80971428Y-92088152D01*
X80971428Y-92088152D02*
X80923809Y-91992914D01*
X80923809Y-91992914D02*
X80923809Y-91945295D01*
X80923809Y-91945295D02*
X80971428Y-91850057D01*
X80971428Y-91850057D02*
X81019047Y-91802438D01*
X81019047Y-91802438D02*
X81114285Y-91754819D01*
X81114285Y-91754819D02*
X81304761Y-91754819D01*
X81304761Y-91754819D02*
X81399999Y-91802438D01*
X81399999Y-91802438D02*
X81447618Y-91850057D01*
X81447618Y-91850057D02*
X81495237Y-91945295D01*
X81495237Y-91945295D02*
X81495237Y-91992914D01*
X81495237Y-91992914D02*
X81447618Y-92088152D01*
X81447618Y-92088152D02*
X81399999Y-92135771D01*
X81399999Y-92135771D02*
X81304761Y-92183390D01*
X81304761Y-92183390D02*
X81114285Y-92183390D01*
X81114285Y-92183390D02*
X81019047Y-92231009D01*
X81019047Y-92231009D02*
X80971428Y-92278628D01*
X80971428Y-92278628D02*
X80923809Y-92373866D01*
X80923809Y-92373866D02*
X80923809Y-92564342D01*
X80923809Y-92564342D02*
X80971428Y-92659580D01*
X80971428Y-92659580D02*
X81019047Y-92707200D01*
X81019047Y-92707200D02*
X81114285Y-92754819D01*
X81114285Y-92754819D02*
X81304761Y-92754819D01*
X81304761Y-92754819D02*
X81399999Y-92707200D01*
X81399999Y-92707200D02*
X81447618Y-92659580D01*
X81447618Y-92659580D02*
X81495237Y-92564342D01*
X81495237Y-92564342D02*
X81495237Y-92373866D01*
X81495237Y-92373866D02*
X81447618Y-92278628D01*
X81447618Y-92278628D02*
X81399999Y-92231009D01*
X81399999Y-92231009D02*
X81304761Y-92183390D01*
X81876190Y-92469104D02*
X82352380Y-92469104D01*
X81780952Y-92754819D02*
X82114285Y-91754819D01*
X82114285Y-91754819D02*
X82447618Y-92754819D01*
X84066666Y-92754819D02*
X83495238Y-92754819D01*
X83780952Y-92754819D02*
X83780952Y-91754819D01*
X83780952Y-91754819D02*
X83685714Y-91897676D01*
X83685714Y-91897676D02*
X83590476Y-91992914D01*
X83590476Y-91992914D02*
X83495238Y-92040533D01*
X84923809Y-91754819D02*
X84733333Y-91754819D01*
X84733333Y-91754819D02*
X84638095Y-91802438D01*
X84638095Y-91802438D02*
X84590476Y-91850057D01*
X84590476Y-91850057D02*
X84495238Y-91992914D01*
X84495238Y-91992914D02*
X84447619Y-92183390D01*
X84447619Y-92183390D02*
X84447619Y-92564342D01*
X84447619Y-92564342D02*
X84495238Y-92659580D01*
X84495238Y-92659580D02*
X84542857Y-92707200D01*
X84542857Y-92707200D02*
X84638095Y-92754819D01*
X84638095Y-92754819D02*
X84828571Y-92754819D01*
X84828571Y-92754819D02*
X84923809Y-92707200D01*
X84923809Y-92707200D02*
X84971428Y-92659580D01*
X84971428Y-92659580D02*
X85019047Y-92564342D01*
X85019047Y-92564342D02*
X85019047Y-92326247D01*
X85019047Y-92326247D02*
X84971428Y-92231009D01*
X84971428Y-92231009D02*
X84923809Y-92183390D01*
X84923809Y-92183390D02*
X84828571Y-92135771D01*
X84828571Y-92135771D02*
X84638095Y-92135771D01*
X84638095Y-92135771D02*
X84542857Y-92183390D01*
X84542857Y-92183390D02*
X84495238Y-92231009D01*
X84495238Y-92231009D02*
X84447619Y-92326247D01*
X85638095Y-91754819D02*
X85733333Y-91754819D01*
X85733333Y-91754819D02*
X85828571Y-91802438D01*
X85828571Y-91802438D02*
X85876190Y-91850057D01*
X85876190Y-91850057D02*
X85923809Y-91945295D01*
X85923809Y-91945295D02*
X85971428Y-92135771D01*
X85971428Y-92135771D02*
X85971428Y-92373866D01*
X85971428Y-92373866D02*
X85923809Y-92564342D01*
X85923809Y-92564342D02*
X85876190Y-92659580D01*
X85876190Y-92659580D02*
X85828571Y-92707200D01*
X85828571Y-92707200D02*
X85733333Y-92754819D01*
X85733333Y-92754819D02*
X85638095Y-92754819D01*
X85638095Y-92754819D02*
X85542857Y-92707200D01*
X85542857Y-92707200D02*
X85495238Y-92659580D01*
X85495238Y-92659580D02*
X85447619Y-92564342D01*
X85447619Y-92564342D02*
X85400000Y-92373866D01*
X85400000Y-92373866D02*
X85400000Y-92135771D01*
X85400000Y-92135771D02*
X85447619Y-91945295D01*
X85447619Y-91945295D02*
X85495238Y-91850057D01*
X85495238Y-91850057D02*
X85542857Y-91802438D01*
X85542857Y-91802438D02*
X85638095Y-91754819D01*
X86828571Y-92088152D02*
X86828571Y-92897676D01*
X86828571Y-92897676D02*
X86780952Y-92992914D01*
X86780952Y-92992914D02*
X86733333Y-93040533D01*
X86733333Y-93040533D02*
X86638095Y-93088152D01*
X86638095Y-93088152D02*
X86495238Y-93088152D01*
X86495238Y-93088152D02*
X86400000Y-93040533D01*
X86828571Y-92707200D02*
X86733333Y-92754819D01*
X86733333Y-92754819D02*
X86542857Y-92754819D01*
X86542857Y-92754819D02*
X86447619Y-92707200D01*
X86447619Y-92707200D02*
X86400000Y-92659580D01*
X86400000Y-92659580D02*
X86352381Y-92564342D01*
X86352381Y-92564342D02*
X86352381Y-92278628D01*
X86352381Y-92278628D02*
X86400000Y-92183390D01*
X86400000Y-92183390D02*
X86447619Y-92135771D01*
X86447619Y-92135771D02*
X86542857Y-92088152D01*
X86542857Y-92088152D02*
X86733333Y-92088152D01*
X86733333Y-92088152D02*
X86828571Y-92135771D01*
X87161905Y-92088152D02*
X87542857Y-92088152D01*
X87304762Y-92754819D02*
X87304762Y-91897676D01*
X87304762Y-91897676D02*
X87352381Y-91802438D01*
X87352381Y-91802438D02*
X87447619Y-91754819D01*
X87447619Y-91754819D02*
X87542857Y-91754819D01*
X52442857Y-74331009D02*
X52585714Y-74378628D01*
X52585714Y-74378628D02*
X52633333Y-74426247D01*
X52633333Y-74426247D02*
X52680952Y-74521485D01*
X52680952Y-74521485D02*
X52680952Y-74664342D01*
X52680952Y-74664342D02*
X52633333Y-74759580D01*
X52633333Y-74759580D02*
X52585714Y-74807200D01*
X52585714Y-74807200D02*
X52490476Y-74854819D01*
X52490476Y-74854819D02*
X52109524Y-74854819D01*
X52109524Y-74854819D02*
X52109524Y-73854819D01*
X52109524Y-73854819D02*
X52442857Y-73854819D01*
X52442857Y-73854819D02*
X52538095Y-73902438D01*
X52538095Y-73902438D02*
X52585714Y-73950057D01*
X52585714Y-73950057D02*
X52633333Y-74045295D01*
X52633333Y-74045295D02*
X52633333Y-74140533D01*
X52633333Y-74140533D02*
X52585714Y-74235771D01*
X52585714Y-74235771D02*
X52538095Y-74283390D01*
X52538095Y-74283390D02*
X52442857Y-74331009D01*
X52442857Y-74331009D02*
X52109524Y-74331009D01*
X53061905Y-74569104D02*
X53538095Y-74569104D01*
X52966667Y-74854819D02*
X53300000Y-73854819D01*
X53300000Y-73854819D02*
X53633333Y-74854819D01*
X53823810Y-73854819D02*
X54395238Y-73854819D01*
X54109524Y-74854819D02*
X54109524Y-73854819D01*
X54728572Y-74473866D02*
X55490477Y-74473866D01*
X55109524Y-74854819D02*
X55109524Y-74092914D01*
D11*
X72402568Y-72864619D02*
X72402568Y-71864619D01*
X72402568Y-71864619D02*
X72783520Y-71864619D01*
X72783520Y-71864619D02*
X72878758Y-71912238D01*
X72878758Y-71912238D02*
X72926377Y-71959857D01*
X72926377Y-71959857D02*
X72973996Y-72055095D01*
X72973996Y-72055095D02*
X72973996Y-72197952D01*
X72973996Y-72197952D02*
X72926377Y-72293190D01*
X72926377Y-72293190D02*
X72878758Y-72340809D01*
X72878758Y-72340809D02*
X72783520Y-72388428D01*
X72783520Y-72388428D02*
X72402568Y-72388428D01*
X73926377Y-71912238D02*
X73831139Y-71864619D01*
X73831139Y-71864619D02*
X73688282Y-71864619D01*
X73688282Y-71864619D02*
X73545425Y-71912238D01*
X73545425Y-71912238D02*
X73450187Y-72007476D01*
X73450187Y-72007476D02*
X73402568Y-72102714D01*
X73402568Y-72102714D02*
X73354949Y-72293190D01*
X73354949Y-72293190D02*
X73354949Y-72436047D01*
X73354949Y-72436047D02*
X73402568Y-72626523D01*
X73402568Y-72626523D02*
X73450187Y-72721761D01*
X73450187Y-72721761D02*
X73545425Y-72817000D01*
X73545425Y-72817000D02*
X73688282Y-72864619D01*
X73688282Y-72864619D02*
X73783520Y-72864619D01*
X73783520Y-72864619D02*
X73926377Y-72817000D01*
X73926377Y-72817000D02*
X73973996Y-72769380D01*
X73973996Y-72769380D02*
X73973996Y-72436047D01*
X73973996Y-72436047D02*
X73783520Y-72436047D01*
X72264473Y-71587000D02*
X74064473Y-71587000D01*
D10*
X60838095Y-50002438D02*
X60742857Y-49954819D01*
X60742857Y-49954819D02*
X60600000Y-49954819D01*
X60600000Y-49954819D02*
X60457143Y-50002438D01*
X60457143Y-50002438D02*
X60361905Y-50097676D01*
X60361905Y-50097676D02*
X60314286Y-50192914D01*
X60314286Y-50192914D02*
X60266667Y-50383390D01*
X60266667Y-50383390D02*
X60266667Y-50526247D01*
X60266667Y-50526247D02*
X60314286Y-50716723D01*
X60314286Y-50716723D02*
X60361905Y-50811961D01*
X60361905Y-50811961D02*
X60457143Y-50907200D01*
X60457143Y-50907200D02*
X60600000Y-50954819D01*
X60600000Y-50954819D02*
X60695238Y-50954819D01*
X60695238Y-50954819D02*
X60838095Y-50907200D01*
X60838095Y-50907200D02*
X60885714Y-50859580D01*
X60885714Y-50859580D02*
X60885714Y-50526247D01*
X60885714Y-50526247D02*
X60695238Y-50526247D01*
X61314286Y-50954819D02*
X61314286Y-49954819D01*
X61314286Y-49954819D02*
X61885714Y-50954819D01*
X61885714Y-50954819D02*
X61885714Y-49954819D01*
X62361905Y-50954819D02*
X62361905Y-49954819D01*
X62361905Y-49954819D02*
X62600000Y-49954819D01*
X62600000Y-49954819D02*
X62742857Y-50002438D01*
X62742857Y-50002438D02*
X62838095Y-50097676D01*
X62838095Y-50097676D02*
X62885714Y-50192914D01*
X62885714Y-50192914D02*
X62933333Y-50383390D01*
X62933333Y-50383390D02*
X62933333Y-50526247D01*
X62933333Y-50526247D02*
X62885714Y-50716723D01*
X62885714Y-50716723D02*
X62838095Y-50811961D01*
X62838095Y-50811961D02*
X62742857Y-50907200D01*
X62742857Y-50907200D02*
X62600000Y-50954819D01*
X62600000Y-50954819D02*
X62361905Y-50954819D01*
X110963333Y-69264819D02*
X110630000Y-68788628D01*
X110391905Y-69264819D02*
X110391905Y-68264819D01*
X110391905Y-68264819D02*
X110772857Y-68264819D01*
X110772857Y-68264819D02*
X110868095Y-68312438D01*
X110868095Y-68312438D02*
X110915714Y-68360057D01*
X110915714Y-68360057D02*
X110963333Y-68455295D01*
X110963333Y-68455295D02*
X110963333Y-68598152D01*
X110963333Y-68598152D02*
X110915714Y-68693390D01*
X110915714Y-68693390D02*
X110868095Y-68741009D01*
X110868095Y-68741009D02*
X110772857Y-68788628D01*
X110772857Y-68788628D02*
X110391905Y-68788628D01*
X111296667Y-68264819D02*
X111963333Y-69264819D01*
X111963333Y-68264819D02*
X111296667Y-69264819D01*
X54622619Y-60154819D02*
X55194047Y-60154819D01*
X54908333Y-61154819D02*
X54908333Y-60154819D01*
X55527381Y-61154819D02*
X55527381Y-60154819D01*
X55527381Y-60631009D02*
X56098809Y-60631009D01*
X56098809Y-61154819D02*
X56098809Y-60154819D01*
X56575000Y-60631009D02*
X56908333Y-60631009D01*
X57051190Y-61154819D02*
X56575000Y-61154819D01*
X56575000Y-61154819D02*
X56575000Y-60154819D01*
X56575000Y-60154819D02*
X57051190Y-60154819D01*
X58051190Y-61154819D02*
X57717857Y-60678628D01*
X57479762Y-61154819D02*
X57479762Y-60154819D01*
X57479762Y-60154819D02*
X57860714Y-60154819D01*
X57860714Y-60154819D02*
X57955952Y-60202438D01*
X57955952Y-60202438D02*
X58003571Y-60250057D01*
X58003571Y-60250057D02*
X58051190Y-60345295D01*
X58051190Y-60345295D02*
X58051190Y-60488152D01*
X58051190Y-60488152D02*
X58003571Y-60583390D01*
X58003571Y-60583390D02*
X57955952Y-60631009D01*
X57955952Y-60631009D02*
X57860714Y-60678628D01*
X57860714Y-60678628D02*
X57479762Y-60678628D01*
X58479762Y-61154819D02*
X58479762Y-60154819D01*
X58479762Y-60154819D02*
X58813095Y-60869104D01*
X58813095Y-60869104D02*
X59146428Y-60154819D01*
X59146428Y-60154819D02*
X59146428Y-61154819D01*
X59622619Y-60773866D02*
X60384524Y-60773866D01*
X60003571Y-61154819D02*
X60003571Y-60392914D01*
X153054819Y-59538094D02*
X152054819Y-59538094D01*
X152054819Y-59538094D02*
X152054819Y-59299999D01*
X152054819Y-59299999D02*
X152102438Y-59157142D01*
X152102438Y-59157142D02*
X152197676Y-59061904D01*
X152197676Y-59061904D02*
X152292914Y-59014285D01*
X152292914Y-59014285D02*
X152483390Y-58966666D01*
X152483390Y-58966666D02*
X152626247Y-58966666D01*
X152626247Y-58966666D02*
X152816723Y-59014285D01*
X152816723Y-59014285D02*
X152911961Y-59061904D01*
X152911961Y-59061904D02*
X153007200Y-59157142D01*
X153007200Y-59157142D02*
X153054819Y-59299999D01*
X153054819Y-59299999D02*
X153054819Y-59538094D01*
X152150057Y-58585713D02*
X152102438Y-58538094D01*
X152102438Y-58538094D02*
X152054819Y-58442856D01*
X152054819Y-58442856D02*
X152054819Y-58204761D01*
X152054819Y-58204761D02*
X152102438Y-58109523D01*
X152102438Y-58109523D02*
X152150057Y-58061904D01*
X152150057Y-58061904D02*
X152245295Y-58014285D01*
X152245295Y-58014285D02*
X152340533Y-58014285D01*
X152340533Y-58014285D02*
X152483390Y-58061904D01*
X152483390Y-58061904D02*
X153054819Y-58633332D01*
X153054819Y-58633332D02*
X153054819Y-58014285D01*
X155149999Y-55185427D02*
X154916666Y-54780665D01*
X154749999Y-55185427D02*
X154749999Y-54335427D01*
X154749999Y-54335427D02*
X155016666Y-54335427D01*
X155016666Y-54335427D02*
X155083333Y-54375903D01*
X155083333Y-54375903D02*
X155116666Y-54416379D01*
X155116666Y-54416379D02*
X155149999Y-54497331D01*
X155149999Y-54497331D02*
X155149999Y-54618760D01*
X155149999Y-54618760D02*
X155116666Y-54699712D01*
X155116666Y-54699712D02*
X155083333Y-54740189D01*
X155083333Y-54740189D02*
X155016666Y-54780665D01*
X155016666Y-54780665D02*
X154749999Y-54780665D01*
X155749999Y-54618760D02*
X155749999Y-55185427D01*
X155583333Y-54294951D02*
X155416666Y-54902093D01*
X155416666Y-54902093D02*
X155849999Y-54902093D01*
X156050000Y-54335427D02*
X156516666Y-54335427D01*
X156516666Y-54335427D02*
X156216666Y-55185427D01*
X117385427Y-54650000D02*
X116980665Y-54883333D01*
X117385427Y-55050000D02*
X116535427Y-55050000D01*
X116535427Y-55050000D02*
X116535427Y-54783333D01*
X116535427Y-54783333D02*
X116575903Y-54716667D01*
X116575903Y-54716667D02*
X116616379Y-54683333D01*
X116616379Y-54683333D02*
X116697331Y-54650000D01*
X116697331Y-54650000D02*
X116818760Y-54650000D01*
X116818760Y-54650000D02*
X116899712Y-54683333D01*
X116899712Y-54683333D02*
X116940189Y-54716667D01*
X116940189Y-54716667D02*
X116980665Y-54783333D01*
X116980665Y-54783333D02*
X116980665Y-55050000D01*
X116818760Y-54050000D02*
X117385427Y-54050000D01*
X116494951Y-54216667D02*
X117102093Y-54383333D01*
X117102093Y-54383333D02*
X117102093Y-53950000D01*
X116535427Y-53750000D02*
X116535427Y-53316666D01*
X116535427Y-53316666D02*
X116859236Y-53550000D01*
X116859236Y-53550000D02*
X116859236Y-53450000D01*
X116859236Y-53450000D02*
X116899712Y-53383333D01*
X116899712Y-53383333D02*
X116940189Y-53350000D01*
X116940189Y-53350000D02*
X117021141Y-53316666D01*
X117021141Y-53316666D02*
X117223522Y-53316666D01*
X117223522Y-53316666D02*
X117304474Y-53350000D01*
X117304474Y-53350000D02*
X117344951Y-53383333D01*
X117344951Y-53383333D02*
X117385427Y-53450000D01*
X117385427Y-53450000D02*
X117385427Y-53650000D01*
X117385427Y-53650000D02*
X117344951Y-53716666D01*
X117344951Y-53716666D02*
X117304474Y-53750000D01*
X112889999Y-72265427D02*
X112656666Y-71860665D01*
X112489999Y-72265427D02*
X112489999Y-71415427D01*
X112489999Y-71415427D02*
X112756666Y-71415427D01*
X112756666Y-71415427D02*
X112823333Y-71455903D01*
X112823333Y-71455903D02*
X112856666Y-71496379D01*
X112856666Y-71496379D02*
X112889999Y-71577331D01*
X112889999Y-71577331D02*
X112889999Y-71698760D01*
X112889999Y-71698760D02*
X112856666Y-71779712D01*
X112856666Y-71779712D02*
X112823333Y-71820189D01*
X112823333Y-71820189D02*
X112756666Y-71860665D01*
X112756666Y-71860665D02*
X112489999Y-71860665D01*
X113123333Y-71415427D02*
X113556666Y-71415427D01*
X113556666Y-71415427D02*
X113323333Y-71739236D01*
X113323333Y-71739236D02*
X113423333Y-71739236D01*
X113423333Y-71739236D02*
X113489999Y-71779712D01*
X113489999Y-71779712D02*
X113523333Y-71820189D01*
X113523333Y-71820189D02*
X113556666Y-71901141D01*
X113556666Y-71901141D02*
X113556666Y-72103522D01*
X113556666Y-72103522D02*
X113523333Y-72184474D01*
X113523333Y-72184474D02*
X113489999Y-72224951D01*
X113489999Y-72224951D02*
X113423333Y-72265427D01*
X113423333Y-72265427D02*
X113223333Y-72265427D01*
X113223333Y-72265427D02*
X113156666Y-72224951D01*
X113156666Y-72224951D02*
X113123333Y-72184474D01*
X113990000Y-71415427D02*
X114056666Y-71415427D01*
X114056666Y-71415427D02*
X114123333Y-71455903D01*
X114123333Y-71455903D02*
X114156666Y-71496379D01*
X114156666Y-71496379D02*
X114190000Y-71577331D01*
X114190000Y-71577331D02*
X114223333Y-71739236D01*
X114223333Y-71739236D02*
X114223333Y-71941617D01*
X114223333Y-71941617D02*
X114190000Y-72103522D01*
X114190000Y-72103522D02*
X114156666Y-72184474D01*
X114156666Y-72184474D02*
X114123333Y-72224951D01*
X114123333Y-72224951D02*
X114056666Y-72265427D01*
X114056666Y-72265427D02*
X113990000Y-72265427D01*
X113990000Y-72265427D02*
X113923333Y-72224951D01*
X113923333Y-72224951D02*
X113890000Y-72184474D01*
X113890000Y-72184474D02*
X113856666Y-72103522D01*
X113856666Y-72103522D02*
X113823333Y-71941617D01*
X113823333Y-71941617D02*
X113823333Y-71739236D01*
X113823333Y-71739236D02*
X113856666Y-71577331D01*
X113856666Y-71577331D02*
X113890000Y-71496379D01*
X113890000Y-71496379D02*
X113923333Y-71455903D01*
X113923333Y-71455903D02*
X113990000Y-71415427D01*
X76299999Y-78904474D02*
X76266666Y-78944951D01*
X76266666Y-78944951D02*
X76166666Y-78985427D01*
X76166666Y-78985427D02*
X76099999Y-78985427D01*
X76099999Y-78985427D02*
X75999999Y-78944951D01*
X75999999Y-78944951D02*
X75933333Y-78863998D01*
X75933333Y-78863998D02*
X75899999Y-78783046D01*
X75899999Y-78783046D02*
X75866666Y-78621141D01*
X75866666Y-78621141D02*
X75866666Y-78499712D01*
X75866666Y-78499712D02*
X75899999Y-78337808D01*
X75899999Y-78337808D02*
X75933333Y-78256855D01*
X75933333Y-78256855D02*
X75999999Y-78175903D01*
X75999999Y-78175903D02*
X76099999Y-78135427D01*
X76099999Y-78135427D02*
X76166666Y-78135427D01*
X76166666Y-78135427D02*
X76266666Y-78175903D01*
X76266666Y-78175903D02*
X76299999Y-78216379D01*
X76566666Y-78216379D02*
X76599999Y-78175903D01*
X76599999Y-78175903D02*
X76666666Y-78135427D01*
X76666666Y-78135427D02*
X76833333Y-78135427D01*
X76833333Y-78135427D02*
X76899999Y-78175903D01*
X76899999Y-78175903D02*
X76933333Y-78216379D01*
X76933333Y-78216379D02*
X76966666Y-78297331D01*
X76966666Y-78297331D02*
X76966666Y-78378284D01*
X76966666Y-78378284D02*
X76933333Y-78499712D01*
X76933333Y-78499712D02*
X76533333Y-78985427D01*
X76533333Y-78985427D02*
X76966666Y-78985427D01*
X77566666Y-78135427D02*
X77433333Y-78135427D01*
X77433333Y-78135427D02*
X77366666Y-78175903D01*
X77366666Y-78175903D02*
X77333333Y-78216379D01*
X77333333Y-78216379D02*
X77266666Y-78337808D01*
X77266666Y-78337808D02*
X77233333Y-78499712D01*
X77233333Y-78499712D02*
X77233333Y-78823522D01*
X77233333Y-78823522D02*
X77266666Y-78904474D01*
X77266666Y-78904474D02*
X77300000Y-78944951D01*
X77300000Y-78944951D02*
X77366666Y-78985427D01*
X77366666Y-78985427D02*
X77500000Y-78985427D01*
X77500000Y-78985427D02*
X77566666Y-78944951D01*
X77566666Y-78944951D02*
X77600000Y-78904474D01*
X77600000Y-78904474D02*
X77633333Y-78823522D01*
X77633333Y-78823522D02*
X77633333Y-78621141D01*
X77633333Y-78621141D02*
X77600000Y-78540189D01*
X77600000Y-78540189D02*
X77566666Y-78499712D01*
X77566666Y-78499712D02*
X77500000Y-78459236D01*
X77500000Y-78459236D02*
X77366666Y-78459236D01*
X77366666Y-78459236D02*
X77300000Y-78499712D01*
X77300000Y-78499712D02*
X77266666Y-78540189D01*
X77266666Y-78540189D02*
X77233333Y-78621141D01*
X138804474Y-48575000D02*
X138844951Y-48608333D01*
X138844951Y-48608333D02*
X138885427Y-48708333D01*
X138885427Y-48708333D02*
X138885427Y-48775000D01*
X138885427Y-48775000D02*
X138844951Y-48875000D01*
X138844951Y-48875000D02*
X138763998Y-48941667D01*
X138763998Y-48941667D02*
X138683046Y-48975000D01*
X138683046Y-48975000D02*
X138521141Y-49008333D01*
X138521141Y-49008333D02*
X138399712Y-49008333D01*
X138399712Y-49008333D02*
X138237808Y-48975000D01*
X138237808Y-48975000D02*
X138156855Y-48941667D01*
X138156855Y-48941667D02*
X138075903Y-48875000D01*
X138075903Y-48875000D02*
X138035427Y-48775000D01*
X138035427Y-48775000D02*
X138035427Y-48708333D01*
X138035427Y-48708333D02*
X138075903Y-48608333D01*
X138075903Y-48608333D02*
X138116379Y-48575000D01*
X138885427Y-47908333D02*
X138885427Y-48308333D01*
X138885427Y-48108333D02*
X138035427Y-48108333D01*
X138035427Y-48108333D02*
X138156855Y-48175000D01*
X138156855Y-48175000D02*
X138237808Y-48241667D01*
X138237808Y-48241667D02*
X138278284Y-48308333D01*
X138035427Y-47275000D02*
X138035427Y-47608333D01*
X138035427Y-47608333D02*
X138440189Y-47641666D01*
X138440189Y-47641666D02*
X138399712Y-47608333D01*
X138399712Y-47608333D02*
X138359236Y-47541666D01*
X138359236Y-47541666D02*
X138359236Y-47375000D01*
X138359236Y-47375000D02*
X138399712Y-47308333D01*
X138399712Y-47308333D02*
X138440189Y-47275000D01*
X138440189Y-47275000D02*
X138521141Y-47241666D01*
X138521141Y-47241666D02*
X138723522Y-47241666D01*
X138723522Y-47241666D02*
X138804474Y-47275000D01*
X138804474Y-47275000D02*
X138844951Y-47308333D01*
X138844951Y-47308333D02*
X138885427Y-47375000D01*
X138885427Y-47375000D02*
X138885427Y-47541666D01*
X138885427Y-47541666D02*
X138844951Y-47608333D01*
X138844951Y-47608333D02*
X138804474Y-47641666D01*
X106825427Y-87896666D02*
X106420665Y-88129999D01*
X106825427Y-88296666D02*
X105975427Y-88296666D01*
X105975427Y-88296666D02*
X105975427Y-88029999D01*
X105975427Y-88029999D02*
X106015903Y-87963333D01*
X106015903Y-87963333D02*
X106056379Y-87929999D01*
X106056379Y-87929999D02*
X106137331Y-87896666D01*
X106137331Y-87896666D02*
X106258760Y-87896666D01*
X106258760Y-87896666D02*
X106339712Y-87929999D01*
X106339712Y-87929999D02*
X106380189Y-87963333D01*
X106380189Y-87963333D02*
X106420665Y-88029999D01*
X106420665Y-88029999D02*
X106420665Y-88296666D01*
X106825427Y-87229999D02*
X106825427Y-87629999D01*
X106825427Y-87429999D02*
X105975427Y-87429999D01*
X105975427Y-87429999D02*
X106096855Y-87496666D01*
X106096855Y-87496666D02*
X106177808Y-87563333D01*
X106177808Y-87563333D02*
X106218284Y-87629999D01*
X155295427Y-57080000D02*
X154890665Y-57313333D01*
X155295427Y-57480000D02*
X154445427Y-57480000D01*
X154445427Y-57480000D02*
X154445427Y-57213333D01*
X154445427Y-57213333D02*
X154485903Y-57146667D01*
X154485903Y-57146667D02*
X154526379Y-57113333D01*
X154526379Y-57113333D02*
X154607331Y-57080000D01*
X154607331Y-57080000D02*
X154728760Y-57080000D01*
X154728760Y-57080000D02*
X154809712Y-57113333D01*
X154809712Y-57113333D02*
X154850189Y-57146667D01*
X154850189Y-57146667D02*
X154890665Y-57213333D01*
X154890665Y-57213333D02*
X154890665Y-57480000D01*
X155295427Y-56413333D02*
X155295427Y-56813333D01*
X155295427Y-56613333D02*
X154445427Y-56613333D01*
X154445427Y-56613333D02*
X154566855Y-56680000D01*
X154566855Y-56680000D02*
X154647808Y-56746667D01*
X154647808Y-56746667D02*
X154688284Y-56813333D01*
X154445427Y-55780000D02*
X154445427Y-56113333D01*
X154445427Y-56113333D02*
X154850189Y-56146666D01*
X154850189Y-56146666D02*
X154809712Y-56113333D01*
X154809712Y-56113333D02*
X154769236Y-56046666D01*
X154769236Y-56046666D02*
X154769236Y-55880000D01*
X154769236Y-55880000D02*
X154809712Y-55813333D01*
X154809712Y-55813333D02*
X154850189Y-55780000D01*
X154850189Y-55780000D02*
X154931141Y-55746666D01*
X154931141Y-55746666D02*
X155133522Y-55746666D01*
X155133522Y-55746666D02*
X155214474Y-55780000D01*
X155214474Y-55780000D02*
X155254951Y-55813333D01*
X155254951Y-55813333D02*
X155295427Y-55880000D01*
X155295427Y-55880000D02*
X155295427Y-56046666D01*
X155295427Y-56046666D02*
X155254951Y-56113333D01*
X155254951Y-56113333D02*
X155214474Y-56146666D01*
X73166666Y-63944951D02*
X73266666Y-63985427D01*
X73266666Y-63985427D02*
X73433333Y-63985427D01*
X73433333Y-63985427D02*
X73499999Y-63944951D01*
X73499999Y-63944951D02*
X73533333Y-63904474D01*
X73533333Y-63904474D02*
X73566666Y-63823522D01*
X73566666Y-63823522D02*
X73566666Y-63742570D01*
X73566666Y-63742570D02*
X73533333Y-63661617D01*
X73533333Y-63661617D02*
X73499999Y-63621141D01*
X73499999Y-63621141D02*
X73433333Y-63580665D01*
X73433333Y-63580665D02*
X73299999Y-63540189D01*
X73299999Y-63540189D02*
X73233333Y-63499712D01*
X73233333Y-63499712D02*
X73199999Y-63459236D01*
X73199999Y-63459236D02*
X73166666Y-63378284D01*
X73166666Y-63378284D02*
X73166666Y-63297331D01*
X73166666Y-63297331D02*
X73199999Y-63216379D01*
X73199999Y-63216379D02*
X73233333Y-63175903D01*
X73233333Y-63175903D02*
X73299999Y-63135427D01*
X73299999Y-63135427D02*
X73466666Y-63135427D01*
X73466666Y-63135427D02*
X73566666Y-63175903D01*
X73800000Y-63135427D02*
X73966666Y-63985427D01*
X73966666Y-63985427D02*
X74100000Y-63378284D01*
X74100000Y-63378284D02*
X74233333Y-63985427D01*
X74233333Y-63985427D02*
X74400000Y-63135427D01*
X74966666Y-63418760D02*
X74966666Y-63985427D01*
X74800000Y-63094951D02*
X74633333Y-63702093D01*
X74633333Y-63702093D02*
X75066666Y-63702093D01*
X88169999Y-61555427D02*
X87936666Y-61150665D01*
X87769999Y-61555427D02*
X87769999Y-60705427D01*
X87769999Y-60705427D02*
X88036666Y-60705427D01*
X88036666Y-60705427D02*
X88103333Y-60745903D01*
X88103333Y-60745903D02*
X88136666Y-60786379D01*
X88136666Y-60786379D02*
X88169999Y-60867331D01*
X88169999Y-60867331D02*
X88169999Y-60988760D01*
X88169999Y-60988760D02*
X88136666Y-61069712D01*
X88136666Y-61069712D02*
X88103333Y-61110189D01*
X88103333Y-61110189D02*
X88036666Y-61150665D01*
X88036666Y-61150665D02*
X87769999Y-61150665D01*
X88436666Y-60786379D02*
X88469999Y-60745903D01*
X88469999Y-60745903D02*
X88536666Y-60705427D01*
X88536666Y-60705427D02*
X88703333Y-60705427D01*
X88703333Y-60705427D02*
X88769999Y-60745903D01*
X88769999Y-60745903D02*
X88803333Y-60786379D01*
X88803333Y-60786379D02*
X88836666Y-60867331D01*
X88836666Y-60867331D02*
X88836666Y-60948284D01*
X88836666Y-60948284D02*
X88803333Y-61069712D01*
X88803333Y-61069712D02*
X88403333Y-61555427D01*
X88403333Y-61555427D02*
X88836666Y-61555427D01*
X89436666Y-60705427D02*
X89303333Y-60705427D01*
X89303333Y-60705427D02*
X89236666Y-60745903D01*
X89236666Y-60745903D02*
X89203333Y-60786379D01*
X89203333Y-60786379D02*
X89136666Y-60907808D01*
X89136666Y-60907808D02*
X89103333Y-61069712D01*
X89103333Y-61069712D02*
X89103333Y-61393522D01*
X89103333Y-61393522D02*
X89136666Y-61474474D01*
X89136666Y-61474474D02*
X89170000Y-61514951D01*
X89170000Y-61514951D02*
X89236666Y-61555427D01*
X89236666Y-61555427D02*
X89370000Y-61555427D01*
X89370000Y-61555427D02*
X89436666Y-61514951D01*
X89436666Y-61514951D02*
X89470000Y-61474474D01*
X89470000Y-61474474D02*
X89503333Y-61393522D01*
X89503333Y-61393522D02*
X89503333Y-61191141D01*
X89503333Y-61191141D02*
X89470000Y-61110189D01*
X89470000Y-61110189D02*
X89436666Y-61069712D01*
X89436666Y-61069712D02*
X89370000Y-61029236D01*
X89370000Y-61029236D02*
X89236666Y-61029236D01*
X89236666Y-61029236D02*
X89170000Y-61069712D01*
X89170000Y-61069712D02*
X89136666Y-61110189D01*
X89136666Y-61110189D02*
X89103333Y-61191141D01*
X109215427Y-58670000D02*
X108810665Y-58903333D01*
X109215427Y-59070000D02*
X108365427Y-59070000D01*
X108365427Y-59070000D02*
X108365427Y-58803333D01*
X108365427Y-58803333D02*
X108405903Y-58736667D01*
X108405903Y-58736667D02*
X108446379Y-58703333D01*
X108446379Y-58703333D02*
X108527331Y-58670000D01*
X108527331Y-58670000D02*
X108648760Y-58670000D01*
X108648760Y-58670000D02*
X108729712Y-58703333D01*
X108729712Y-58703333D02*
X108770189Y-58736667D01*
X108770189Y-58736667D02*
X108810665Y-58803333D01*
X108810665Y-58803333D02*
X108810665Y-59070000D01*
X108446379Y-58403333D02*
X108405903Y-58370000D01*
X108405903Y-58370000D02*
X108365427Y-58303333D01*
X108365427Y-58303333D02*
X108365427Y-58136667D01*
X108365427Y-58136667D02*
X108405903Y-58070000D01*
X108405903Y-58070000D02*
X108446379Y-58036667D01*
X108446379Y-58036667D02*
X108527331Y-58003333D01*
X108527331Y-58003333D02*
X108608284Y-58003333D01*
X108608284Y-58003333D02*
X108729712Y-58036667D01*
X108729712Y-58036667D02*
X109215427Y-58436667D01*
X109215427Y-58436667D02*
X109215427Y-58003333D01*
X108365427Y-57770000D02*
X108365427Y-57336666D01*
X108365427Y-57336666D02*
X108689236Y-57570000D01*
X108689236Y-57570000D02*
X108689236Y-57470000D01*
X108689236Y-57470000D02*
X108729712Y-57403333D01*
X108729712Y-57403333D02*
X108770189Y-57370000D01*
X108770189Y-57370000D02*
X108851141Y-57336666D01*
X108851141Y-57336666D02*
X109053522Y-57336666D01*
X109053522Y-57336666D02*
X109134474Y-57370000D01*
X109134474Y-57370000D02*
X109174951Y-57403333D01*
X109174951Y-57403333D02*
X109215427Y-57470000D01*
X109215427Y-57470000D02*
X109215427Y-57670000D01*
X109215427Y-57670000D02*
X109174951Y-57736666D01*
X109174951Y-57736666D02*
X109134474Y-57770000D01*
X116916379Y-60636666D02*
X116875903Y-60703333D01*
X116875903Y-60703333D02*
X116794951Y-60770000D01*
X116794951Y-60770000D02*
X116673522Y-60870000D01*
X116673522Y-60870000D02*
X116633046Y-60936666D01*
X116633046Y-60936666D02*
X116633046Y-61003333D01*
X116835427Y-60970000D02*
X116794951Y-61036666D01*
X116794951Y-61036666D02*
X116713998Y-61103333D01*
X116713998Y-61103333D02*
X116552093Y-61136666D01*
X116552093Y-61136666D02*
X116268760Y-61136666D01*
X116268760Y-61136666D02*
X116106855Y-61103333D01*
X116106855Y-61103333D02*
X116025903Y-61036666D01*
X116025903Y-61036666D02*
X115985427Y-60970000D01*
X115985427Y-60970000D02*
X115985427Y-60836666D01*
X115985427Y-60836666D02*
X116025903Y-60770000D01*
X116025903Y-60770000D02*
X116106855Y-60703333D01*
X116106855Y-60703333D02*
X116268760Y-60670000D01*
X116268760Y-60670000D02*
X116552093Y-60670000D01*
X116552093Y-60670000D02*
X116713998Y-60703333D01*
X116713998Y-60703333D02*
X116794951Y-60770000D01*
X116794951Y-60770000D02*
X116835427Y-60836666D01*
X116835427Y-60836666D02*
X116835427Y-60970000D01*
X116268760Y-60070000D02*
X116835427Y-60070000D01*
X115944951Y-60236667D02*
X116552093Y-60403333D01*
X116552093Y-60403333D02*
X116552093Y-59970000D01*
X64249999Y-78554474D02*
X64216666Y-78594951D01*
X64216666Y-78594951D02*
X64116666Y-78635427D01*
X64116666Y-78635427D02*
X64049999Y-78635427D01*
X64049999Y-78635427D02*
X63949999Y-78594951D01*
X63949999Y-78594951D02*
X63883333Y-78513998D01*
X63883333Y-78513998D02*
X63849999Y-78433046D01*
X63849999Y-78433046D02*
X63816666Y-78271141D01*
X63816666Y-78271141D02*
X63816666Y-78149712D01*
X63816666Y-78149712D02*
X63849999Y-77987808D01*
X63849999Y-77987808D02*
X63883333Y-77906855D01*
X63883333Y-77906855D02*
X63949999Y-77825903D01*
X63949999Y-77825903D02*
X64049999Y-77785427D01*
X64049999Y-77785427D02*
X64116666Y-77785427D01*
X64116666Y-77785427D02*
X64216666Y-77825903D01*
X64216666Y-77825903D02*
X64249999Y-77866379D01*
X64516666Y-77866379D02*
X64549999Y-77825903D01*
X64549999Y-77825903D02*
X64616666Y-77785427D01*
X64616666Y-77785427D02*
X64783333Y-77785427D01*
X64783333Y-77785427D02*
X64849999Y-77825903D01*
X64849999Y-77825903D02*
X64883333Y-77866379D01*
X64883333Y-77866379D02*
X64916666Y-77947331D01*
X64916666Y-77947331D02*
X64916666Y-78028284D01*
X64916666Y-78028284D02*
X64883333Y-78149712D01*
X64883333Y-78149712D02*
X64483333Y-78635427D01*
X64483333Y-78635427D02*
X64916666Y-78635427D01*
X65316666Y-78149712D02*
X65250000Y-78109236D01*
X65250000Y-78109236D02*
X65216666Y-78068760D01*
X65216666Y-78068760D02*
X65183333Y-77987808D01*
X65183333Y-77987808D02*
X65183333Y-77947331D01*
X65183333Y-77947331D02*
X65216666Y-77866379D01*
X65216666Y-77866379D02*
X65250000Y-77825903D01*
X65250000Y-77825903D02*
X65316666Y-77785427D01*
X65316666Y-77785427D02*
X65450000Y-77785427D01*
X65450000Y-77785427D02*
X65516666Y-77825903D01*
X65516666Y-77825903D02*
X65550000Y-77866379D01*
X65550000Y-77866379D02*
X65583333Y-77947331D01*
X65583333Y-77947331D02*
X65583333Y-77987808D01*
X65583333Y-77987808D02*
X65550000Y-78068760D01*
X65550000Y-78068760D02*
X65516666Y-78109236D01*
X65516666Y-78109236D02*
X65450000Y-78149712D01*
X65450000Y-78149712D02*
X65316666Y-78149712D01*
X65316666Y-78149712D02*
X65250000Y-78190189D01*
X65250000Y-78190189D02*
X65216666Y-78230665D01*
X65216666Y-78230665D02*
X65183333Y-78311617D01*
X65183333Y-78311617D02*
X65183333Y-78473522D01*
X65183333Y-78473522D02*
X65216666Y-78554474D01*
X65216666Y-78554474D02*
X65250000Y-78594951D01*
X65250000Y-78594951D02*
X65316666Y-78635427D01*
X65316666Y-78635427D02*
X65450000Y-78635427D01*
X65450000Y-78635427D02*
X65516666Y-78594951D01*
X65516666Y-78594951D02*
X65550000Y-78554474D01*
X65550000Y-78554474D02*
X65583333Y-78473522D01*
X65583333Y-78473522D02*
X65583333Y-78311617D01*
X65583333Y-78311617D02*
X65550000Y-78230665D01*
X65550000Y-78230665D02*
X65516666Y-78190189D01*
X65516666Y-78190189D02*
X65450000Y-78149712D01*
X96933474Y-50546666D02*
X96973951Y-50579999D01*
X96973951Y-50579999D02*
X97014427Y-50679999D01*
X97014427Y-50679999D02*
X97014427Y-50746666D01*
X97014427Y-50746666D02*
X96973951Y-50846666D01*
X96973951Y-50846666D02*
X96892998Y-50913333D01*
X96892998Y-50913333D02*
X96812046Y-50946666D01*
X96812046Y-50946666D02*
X96650141Y-50979999D01*
X96650141Y-50979999D02*
X96528712Y-50979999D01*
X96528712Y-50979999D02*
X96366808Y-50946666D01*
X96366808Y-50946666D02*
X96285855Y-50913333D01*
X96285855Y-50913333D02*
X96204903Y-50846666D01*
X96204903Y-50846666D02*
X96164427Y-50746666D01*
X96164427Y-50746666D02*
X96164427Y-50679999D01*
X96164427Y-50679999D02*
X96204903Y-50579999D01*
X96204903Y-50579999D02*
X96245379Y-50546666D01*
X96164427Y-49913333D02*
X96164427Y-50246666D01*
X96164427Y-50246666D02*
X96569189Y-50279999D01*
X96569189Y-50279999D02*
X96528712Y-50246666D01*
X96528712Y-50246666D02*
X96488236Y-50179999D01*
X96488236Y-50179999D02*
X96488236Y-50013333D01*
X96488236Y-50013333D02*
X96528712Y-49946666D01*
X96528712Y-49946666D02*
X96569189Y-49913333D01*
X96569189Y-49913333D02*
X96650141Y-49879999D01*
X96650141Y-49879999D02*
X96852522Y-49879999D01*
X96852522Y-49879999D02*
X96933474Y-49913333D01*
X96933474Y-49913333D02*
X96973951Y-49946666D01*
X96973951Y-49946666D02*
X97014427Y-50013333D01*
X97014427Y-50013333D02*
X97014427Y-50179999D01*
X97014427Y-50179999D02*
X96973951Y-50246666D01*
X96973951Y-50246666D02*
X96933474Y-50279999D01*
X55549999Y-66355427D02*
X55316666Y-65950665D01*
X55149999Y-66355427D02*
X55149999Y-65505427D01*
X55149999Y-65505427D02*
X55416666Y-65505427D01*
X55416666Y-65505427D02*
X55483333Y-65545903D01*
X55483333Y-65545903D02*
X55516666Y-65586379D01*
X55516666Y-65586379D02*
X55549999Y-65667331D01*
X55549999Y-65667331D02*
X55549999Y-65788760D01*
X55549999Y-65788760D02*
X55516666Y-65869712D01*
X55516666Y-65869712D02*
X55483333Y-65910189D01*
X55483333Y-65910189D02*
X55416666Y-65950665D01*
X55416666Y-65950665D02*
X55149999Y-65950665D01*
X56216666Y-66355427D02*
X55816666Y-66355427D01*
X56016666Y-66355427D02*
X56016666Y-65505427D01*
X56016666Y-65505427D02*
X55949999Y-65626855D01*
X55949999Y-65626855D02*
X55883333Y-65707808D01*
X55883333Y-65707808D02*
X55816666Y-65748284D01*
X56816666Y-65505427D02*
X56683333Y-65505427D01*
X56683333Y-65505427D02*
X56616666Y-65545903D01*
X56616666Y-65545903D02*
X56583333Y-65586379D01*
X56583333Y-65586379D02*
X56516666Y-65707808D01*
X56516666Y-65707808D02*
X56483333Y-65869712D01*
X56483333Y-65869712D02*
X56483333Y-66193522D01*
X56483333Y-66193522D02*
X56516666Y-66274474D01*
X56516666Y-66274474D02*
X56550000Y-66314951D01*
X56550000Y-66314951D02*
X56616666Y-66355427D01*
X56616666Y-66355427D02*
X56750000Y-66355427D01*
X56750000Y-66355427D02*
X56816666Y-66314951D01*
X56816666Y-66314951D02*
X56850000Y-66274474D01*
X56850000Y-66274474D02*
X56883333Y-66193522D01*
X56883333Y-66193522D02*
X56883333Y-65991141D01*
X56883333Y-65991141D02*
X56850000Y-65910189D01*
X56850000Y-65910189D02*
X56816666Y-65869712D01*
X56816666Y-65869712D02*
X56750000Y-65829236D01*
X56750000Y-65829236D02*
X56616666Y-65829236D01*
X56616666Y-65829236D02*
X56550000Y-65869712D01*
X56550000Y-65869712D02*
X56516666Y-65910189D01*
X56516666Y-65910189D02*
X56483333Y-65991141D01*
X153435427Y-51983333D02*
X154042570Y-51983333D01*
X154042570Y-51983333D02*
X154163998Y-52016666D01*
X154163998Y-52016666D02*
X154244951Y-52083333D01*
X154244951Y-52083333D02*
X154285427Y-52183333D01*
X154285427Y-52183333D02*
X154285427Y-52250000D01*
X154285427Y-51650000D02*
X153435427Y-51650000D01*
X153435427Y-51650000D02*
X153435427Y-51383333D01*
X153435427Y-51383333D02*
X153475903Y-51316667D01*
X153475903Y-51316667D02*
X153516379Y-51283333D01*
X153516379Y-51283333D02*
X153597331Y-51250000D01*
X153597331Y-51250000D02*
X153718760Y-51250000D01*
X153718760Y-51250000D02*
X153799712Y-51283333D01*
X153799712Y-51283333D02*
X153840189Y-51316667D01*
X153840189Y-51316667D02*
X153880665Y-51383333D01*
X153880665Y-51383333D02*
X153880665Y-51650000D01*
X154285427Y-50583333D02*
X154285427Y-50983333D01*
X154285427Y-50783333D02*
X153435427Y-50783333D01*
X153435427Y-50783333D02*
X153556855Y-50850000D01*
X153556855Y-50850000D02*
X153637808Y-50916667D01*
X153637808Y-50916667D02*
X153678284Y-50983333D01*
X151554819Y-54333332D02*
X151554819Y-53714285D01*
X151554819Y-53714285D02*
X151935771Y-54047618D01*
X151935771Y-54047618D02*
X151935771Y-53904761D01*
X151935771Y-53904761D02*
X151983390Y-53809523D01*
X151983390Y-53809523D02*
X152031009Y-53761904D01*
X152031009Y-53761904D02*
X152126247Y-53714285D01*
X152126247Y-53714285D02*
X152364342Y-53714285D01*
X152364342Y-53714285D02*
X152459580Y-53761904D01*
X152459580Y-53761904D02*
X152507200Y-53809523D01*
X152507200Y-53809523D02*
X152554819Y-53904761D01*
X152554819Y-53904761D02*
X152554819Y-54190475D01*
X152554819Y-54190475D02*
X152507200Y-54285713D01*
X152507200Y-54285713D02*
X152459580Y-54333332D01*
X152554819Y-48514285D02*
X152554819Y-49085713D01*
X152554819Y-48799999D02*
X151554819Y-48799999D01*
X151554819Y-48799999D02*
X151697676Y-48895237D01*
X151697676Y-48895237D02*
X151792914Y-48990475D01*
X151792914Y-48990475D02*
X151840533Y-49085713D01*
X143949999Y-56985427D02*
X143716666Y-56580665D01*
X143549999Y-56985427D02*
X143549999Y-56135427D01*
X143549999Y-56135427D02*
X143816666Y-56135427D01*
X143816666Y-56135427D02*
X143883333Y-56175903D01*
X143883333Y-56175903D02*
X143916666Y-56216379D01*
X143916666Y-56216379D02*
X143949999Y-56297331D01*
X143949999Y-56297331D02*
X143949999Y-56418760D01*
X143949999Y-56418760D02*
X143916666Y-56499712D01*
X143916666Y-56499712D02*
X143883333Y-56540189D01*
X143883333Y-56540189D02*
X143816666Y-56580665D01*
X143816666Y-56580665D02*
X143549999Y-56580665D01*
X144549999Y-56418760D02*
X144549999Y-56985427D01*
X144383333Y-56094951D02*
X144216666Y-56702093D01*
X144216666Y-56702093D02*
X144649999Y-56702093D01*
X145050000Y-56135427D02*
X145116666Y-56135427D01*
X145116666Y-56135427D02*
X145183333Y-56175903D01*
X145183333Y-56175903D02*
X145216666Y-56216379D01*
X145216666Y-56216379D02*
X145250000Y-56297331D01*
X145250000Y-56297331D02*
X145283333Y-56459236D01*
X145283333Y-56459236D02*
X145283333Y-56661617D01*
X145283333Y-56661617D02*
X145250000Y-56823522D01*
X145250000Y-56823522D02*
X145216666Y-56904474D01*
X145216666Y-56904474D02*
X145183333Y-56944951D01*
X145183333Y-56944951D02*
X145116666Y-56985427D01*
X145116666Y-56985427D02*
X145050000Y-56985427D01*
X145050000Y-56985427D02*
X144983333Y-56944951D01*
X144983333Y-56944951D02*
X144950000Y-56904474D01*
X144950000Y-56904474D02*
X144916666Y-56823522D01*
X144916666Y-56823522D02*
X144883333Y-56661617D01*
X144883333Y-56661617D02*
X144883333Y-56459236D01*
X144883333Y-56459236D02*
X144916666Y-56297331D01*
X144916666Y-56297331D02*
X144950000Y-56216379D01*
X144950000Y-56216379D02*
X144983333Y-56175903D01*
X144983333Y-56175903D02*
X145050000Y-56135427D01*
X150836666Y-63844951D02*
X150936666Y-63885427D01*
X150936666Y-63885427D02*
X151103333Y-63885427D01*
X151103333Y-63885427D02*
X151169999Y-63844951D01*
X151169999Y-63844951D02*
X151203333Y-63804474D01*
X151203333Y-63804474D02*
X151236666Y-63723522D01*
X151236666Y-63723522D02*
X151236666Y-63642570D01*
X151236666Y-63642570D02*
X151203333Y-63561617D01*
X151203333Y-63561617D02*
X151169999Y-63521141D01*
X151169999Y-63521141D02*
X151103333Y-63480665D01*
X151103333Y-63480665D02*
X150969999Y-63440189D01*
X150969999Y-63440189D02*
X150903333Y-63399712D01*
X150903333Y-63399712D02*
X150869999Y-63359236D01*
X150869999Y-63359236D02*
X150836666Y-63278284D01*
X150836666Y-63278284D02*
X150836666Y-63197331D01*
X150836666Y-63197331D02*
X150869999Y-63116379D01*
X150869999Y-63116379D02*
X150903333Y-63075903D01*
X150903333Y-63075903D02*
X150969999Y-63035427D01*
X150969999Y-63035427D02*
X151136666Y-63035427D01*
X151136666Y-63035427D02*
X151236666Y-63075903D01*
X151470000Y-63035427D02*
X151636666Y-63885427D01*
X151636666Y-63885427D02*
X151770000Y-63278284D01*
X151770000Y-63278284D02*
X151903333Y-63885427D01*
X151903333Y-63885427D02*
X152070000Y-63035427D01*
X152636666Y-63035427D02*
X152503333Y-63035427D01*
X152503333Y-63035427D02*
X152436666Y-63075903D01*
X152436666Y-63075903D02*
X152403333Y-63116379D01*
X152403333Y-63116379D02*
X152336666Y-63237808D01*
X152336666Y-63237808D02*
X152303333Y-63399712D01*
X152303333Y-63399712D02*
X152303333Y-63723522D01*
X152303333Y-63723522D02*
X152336666Y-63804474D01*
X152336666Y-63804474D02*
X152370000Y-63844951D01*
X152370000Y-63844951D02*
X152436666Y-63885427D01*
X152436666Y-63885427D02*
X152570000Y-63885427D01*
X152570000Y-63885427D02*
X152636666Y-63844951D01*
X152636666Y-63844951D02*
X152670000Y-63804474D01*
X152670000Y-63804474D02*
X152703333Y-63723522D01*
X152703333Y-63723522D02*
X152703333Y-63521141D01*
X152703333Y-63521141D02*
X152670000Y-63440189D01*
X152670000Y-63440189D02*
X152636666Y-63399712D01*
X152636666Y-63399712D02*
X152570000Y-63359236D01*
X152570000Y-63359236D02*
X152436666Y-63359236D01*
X152436666Y-63359236D02*
X152370000Y-63399712D01*
X152370000Y-63399712D02*
X152336666Y-63440189D01*
X152336666Y-63440189D02*
X152303333Y-63521141D01*
X62249999Y-60485427D02*
X62016666Y-60080665D01*
X61849999Y-60485427D02*
X61849999Y-59635427D01*
X61849999Y-59635427D02*
X62116666Y-59635427D01*
X62116666Y-59635427D02*
X62183333Y-59675903D01*
X62183333Y-59675903D02*
X62216666Y-59716379D01*
X62216666Y-59716379D02*
X62249999Y-59797331D01*
X62249999Y-59797331D02*
X62249999Y-59918760D01*
X62249999Y-59918760D02*
X62216666Y-59999712D01*
X62216666Y-59999712D02*
X62183333Y-60040189D01*
X62183333Y-60040189D02*
X62116666Y-60080665D01*
X62116666Y-60080665D02*
X61849999Y-60080665D01*
X62516666Y-59716379D02*
X62549999Y-59675903D01*
X62549999Y-59675903D02*
X62616666Y-59635427D01*
X62616666Y-59635427D02*
X62783333Y-59635427D01*
X62783333Y-59635427D02*
X62849999Y-59675903D01*
X62849999Y-59675903D02*
X62883333Y-59716379D01*
X62883333Y-59716379D02*
X62916666Y-59797331D01*
X62916666Y-59797331D02*
X62916666Y-59878284D01*
X62916666Y-59878284D02*
X62883333Y-59999712D01*
X62883333Y-59999712D02*
X62483333Y-60485427D01*
X62483333Y-60485427D02*
X62916666Y-60485427D01*
X63350000Y-59635427D02*
X63416666Y-59635427D01*
X63416666Y-59635427D02*
X63483333Y-59675903D01*
X63483333Y-59675903D02*
X63516666Y-59716379D01*
X63516666Y-59716379D02*
X63550000Y-59797331D01*
X63550000Y-59797331D02*
X63583333Y-59959236D01*
X63583333Y-59959236D02*
X63583333Y-60161617D01*
X63583333Y-60161617D02*
X63550000Y-60323522D01*
X63550000Y-60323522D02*
X63516666Y-60404474D01*
X63516666Y-60404474D02*
X63483333Y-60444951D01*
X63483333Y-60444951D02*
X63416666Y-60485427D01*
X63416666Y-60485427D02*
X63350000Y-60485427D01*
X63350000Y-60485427D02*
X63283333Y-60444951D01*
X63283333Y-60444951D02*
X63250000Y-60404474D01*
X63250000Y-60404474D02*
X63216666Y-60323522D01*
X63216666Y-60323522D02*
X63183333Y-60161617D01*
X63183333Y-60161617D02*
X63183333Y-59959236D01*
X63183333Y-59959236D02*
X63216666Y-59797331D01*
X63216666Y-59797331D02*
X63250000Y-59716379D01*
X63250000Y-59716379D02*
X63283333Y-59675903D01*
X63283333Y-59675903D02*
X63350000Y-59635427D01*
X99515427Y-60250000D02*
X99110665Y-60483333D01*
X99515427Y-60650000D02*
X98665427Y-60650000D01*
X98665427Y-60650000D02*
X98665427Y-60383333D01*
X98665427Y-60383333D02*
X98705903Y-60316667D01*
X98705903Y-60316667D02*
X98746379Y-60283333D01*
X98746379Y-60283333D02*
X98827331Y-60250000D01*
X98827331Y-60250000D02*
X98948760Y-60250000D01*
X98948760Y-60250000D02*
X99029712Y-60283333D01*
X99029712Y-60283333D02*
X99070189Y-60316667D01*
X99070189Y-60316667D02*
X99110665Y-60383333D01*
X99110665Y-60383333D02*
X99110665Y-60650000D01*
X98746379Y-59983333D02*
X98705903Y-59950000D01*
X98705903Y-59950000D02*
X98665427Y-59883333D01*
X98665427Y-59883333D02*
X98665427Y-59716667D01*
X98665427Y-59716667D02*
X98705903Y-59650000D01*
X98705903Y-59650000D02*
X98746379Y-59616667D01*
X98746379Y-59616667D02*
X98827331Y-59583333D01*
X98827331Y-59583333D02*
X98908284Y-59583333D01*
X98908284Y-59583333D02*
X99029712Y-59616667D01*
X99029712Y-59616667D02*
X99515427Y-60016667D01*
X99515427Y-60016667D02*
X99515427Y-59583333D01*
X98665427Y-58950000D02*
X98665427Y-59283333D01*
X98665427Y-59283333D02*
X99070189Y-59316666D01*
X99070189Y-59316666D02*
X99029712Y-59283333D01*
X99029712Y-59283333D02*
X98989236Y-59216666D01*
X98989236Y-59216666D02*
X98989236Y-59050000D01*
X98989236Y-59050000D02*
X99029712Y-58983333D01*
X99029712Y-58983333D02*
X99070189Y-58950000D01*
X99070189Y-58950000D02*
X99151141Y-58916666D01*
X99151141Y-58916666D02*
X99353522Y-58916666D01*
X99353522Y-58916666D02*
X99434474Y-58950000D01*
X99434474Y-58950000D02*
X99474951Y-58983333D01*
X99474951Y-58983333D02*
X99515427Y-59050000D01*
X99515427Y-59050000D02*
X99515427Y-59216666D01*
X99515427Y-59216666D02*
X99474951Y-59283333D01*
X99474951Y-59283333D02*
X99434474Y-59316666D01*
X99233474Y-50546666D02*
X99273951Y-50579999D01*
X99273951Y-50579999D02*
X99314427Y-50679999D01*
X99314427Y-50679999D02*
X99314427Y-50746666D01*
X99314427Y-50746666D02*
X99273951Y-50846666D01*
X99273951Y-50846666D02*
X99192998Y-50913333D01*
X99192998Y-50913333D02*
X99112046Y-50946666D01*
X99112046Y-50946666D02*
X98950141Y-50979999D01*
X98950141Y-50979999D02*
X98828712Y-50979999D01*
X98828712Y-50979999D02*
X98666808Y-50946666D01*
X98666808Y-50946666D02*
X98585855Y-50913333D01*
X98585855Y-50913333D02*
X98504903Y-50846666D01*
X98504903Y-50846666D02*
X98464427Y-50746666D01*
X98464427Y-50746666D02*
X98464427Y-50679999D01*
X98464427Y-50679999D02*
X98504903Y-50579999D01*
X98504903Y-50579999D02*
X98545379Y-50546666D01*
X99314427Y-50213333D02*
X99314427Y-50079999D01*
X99314427Y-50079999D02*
X99273951Y-50013333D01*
X99273951Y-50013333D02*
X99233474Y-49979999D01*
X99233474Y-49979999D02*
X99112046Y-49913333D01*
X99112046Y-49913333D02*
X98950141Y-49879999D01*
X98950141Y-49879999D02*
X98626331Y-49879999D01*
X98626331Y-49879999D02*
X98545379Y-49913333D01*
X98545379Y-49913333D02*
X98504903Y-49946666D01*
X98504903Y-49946666D02*
X98464427Y-50013333D01*
X98464427Y-50013333D02*
X98464427Y-50146666D01*
X98464427Y-50146666D02*
X98504903Y-50213333D01*
X98504903Y-50213333D02*
X98545379Y-50246666D01*
X98545379Y-50246666D02*
X98626331Y-50279999D01*
X98626331Y-50279999D02*
X98828712Y-50279999D01*
X98828712Y-50279999D02*
X98909665Y-50246666D01*
X98909665Y-50246666D02*
X98950141Y-50213333D01*
X98950141Y-50213333D02*
X98990617Y-50146666D01*
X98990617Y-50146666D02*
X98990617Y-50013333D01*
X98990617Y-50013333D02*
X98950141Y-49946666D01*
X98950141Y-49946666D02*
X98909665Y-49913333D01*
X98909665Y-49913333D02*
X98828712Y-49879999D01*
X64249999Y-73175427D02*
X64016666Y-72770665D01*
X63849999Y-73175427D02*
X63849999Y-72325427D01*
X63849999Y-72325427D02*
X64116666Y-72325427D01*
X64116666Y-72325427D02*
X64183333Y-72365903D01*
X64183333Y-72365903D02*
X64216666Y-72406379D01*
X64216666Y-72406379D02*
X64249999Y-72487331D01*
X64249999Y-72487331D02*
X64249999Y-72608760D01*
X64249999Y-72608760D02*
X64216666Y-72689712D01*
X64216666Y-72689712D02*
X64183333Y-72730189D01*
X64183333Y-72730189D02*
X64116666Y-72770665D01*
X64116666Y-72770665D02*
X63849999Y-72770665D01*
X64516666Y-72406379D02*
X64549999Y-72365903D01*
X64549999Y-72365903D02*
X64616666Y-72325427D01*
X64616666Y-72325427D02*
X64783333Y-72325427D01*
X64783333Y-72325427D02*
X64849999Y-72365903D01*
X64849999Y-72365903D02*
X64883333Y-72406379D01*
X64883333Y-72406379D02*
X64916666Y-72487331D01*
X64916666Y-72487331D02*
X64916666Y-72568284D01*
X64916666Y-72568284D02*
X64883333Y-72689712D01*
X64883333Y-72689712D02*
X64483333Y-73175427D01*
X64483333Y-73175427D02*
X64916666Y-73175427D01*
X65150000Y-72325427D02*
X65616666Y-72325427D01*
X65616666Y-72325427D02*
X65316666Y-73175427D01*
X123515427Y-59860000D02*
X123110665Y-60093333D01*
X123515427Y-60260000D02*
X122665427Y-60260000D01*
X122665427Y-60260000D02*
X122665427Y-59993333D01*
X122665427Y-59993333D02*
X122705903Y-59926667D01*
X122705903Y-59926667D02*
X122746379Y-59893333D01*
X122746379Y-59893333D02*
X122827331Y-59860000D01*
X122827331Y-59860000D02*
X122948760Y-59860000D01*
X122948760Y-59860000D02*
X123029712Y-59893333D01*
X123029712Y-59893333D02*
X123070189Y-59926667D01*
X123070189Y-59926667D02*
X123110665Y-59993333D01*
X123110665Y-59993333D02*
X123110665Y-60260000D01*
X122746379Y-59593333D02*
X122705903Y-59560000D01*
X122705903Y-59560000D02*
X122665427Y-59493333D01*
X122665427Y-59493333D02*
X122665427Y-59326667D01*
X122665427Y-59326667D02*
X122705903Y-59260000D01*
X122705903Y-59260000D02*
X122746379Y-59226667D01*
X122746379Y-59226667D02*
X122827331Y-59193333D01*
X122827331Y-59193333D02*
X122908284Y-59193333D01*
X122908284Y-59193333D02*
X123029712Y-59226667D01*
X123029712Y-59226667D02*
X123515427Y-59626667D01*
X123515427Y-59626667D02*
X123515427Y-59193333D01*
X122746379Y-58926666D02*
X122705903Y-58893333D01*
X122705903Y-58893333D02*
X122665427Y-58826666D01*
X122665427Y-58826666D02*
X122665427Y-58660000D01*
X122665427Y-58660000D02*
X122705903Y-58593333D01*
X122705903Y-58593333D02*
X122746379Y-58560000D01*
X122746379Y-58560000D02*
X122827331Y-58526666D01*
X122827331Y-58526666D02*
X122908284Y-58526666D01*
X122908284Y-58526666D02*
X123029712Y-58560000D01*
X123029712Y-58560000D02*
X123515427Y-58960000D01*
X123515427Y-58960000D02*
X123515427Y-58526666D01*
X149135427Y-51983333D02*
X149742570Y-51983333D01*
X149742570Y-51983333D02*
X149863998Y-52016666D01*
X149863998Y-52016666D02*
X149944951Y-52083333D01*
X149944951Y-52083333D02*
X149985427Y-52183333D01*
X149985427Y-52183333D02*
X149985427Y-52250000D01*
X149985427Y-51650000D02*
X149135427Y-51650000D01*
X149135427Y-51650000D02*
X149135427Y-51383333D01*
X149135427Y-51383333D02*
X149175903Y-51316667D01*
X149175903Y-51316667D02*
X149216379Y-51283333D01*
X149216379Y-51283333D02*
X149297331Y-51250000D01*
X149297331Y-51250000D02*
X149418760Y-51250000D01*
X149418760Y-51250000D02*
X149499712Y-51283333D01*
X149499712Y-51283333D02*
X149540189Y-51316667D01*
X149540189Y-51316667D02*
X149580665Y-51383333D01*
X149580665Y-51383333D02*
X149580665Y-51650000D01*
X149216379Y-50983333D02*
X149175903Y-50950000D01*
X149175903Y-50950000D02*
X149135427Y-50883333D01*
X149135427Y-50883333D02*
X149135427Y-50716667D01*
X149135427Y-50716667D02*
X149175903Y-50650000D01*
X149175903Y-50650000D02*
X149216379Y-50616667D01*
X149216379Y-50616667D02*
X149297331Y-50583333D01*
X149297331Y-50583333D02*
X149378284Y-50583333D01*
X149378284Y-50583333D02*
X149499712Y-50616667D01*
X149499712Y-50616667D02*
X149985427Y-51016667D01*
X149985427Y-51016667D02*
X149985427Y-50583333D01*
X147254819Y-54333332D02*
X147254819Y-53714285D01*
X147254819Y-53714285D02*
X147635771Y-54047618D01*
X147635771Y-54047618D02*
X147635771Y-53904761D01*
X147635771Y-53904761D02*
X147683390Y-53809523D01*
X147683390Y-53809523D02*
X147731009Y-53761904D01*
X147731009Y-53761904D02*
X147826247Y-53714285D01*
X147826247Y-53714285D02*
X148064342Y-53714285D01*
X148064342Y-53714285D02*
X148159580Y-53761904D01*
X148159580Y-53761904D02*
X148207200Y-53809523D01*
X148207200Y-53809523D02*
X148254819Y-53904761D01*
X148254819Y-53904761D02*
X148254819Y-54190475D01*
X148254819Y-54190475D02*
X148207200Y-54285713D01*
X148207200Y-54285713D02*
X148159580Y-54333332D01*
X148254819Y-48514285D02*
X148254819Y-49085713D01*
X148254819Y-48799999D02*
X147254819Y-48799999D01*
X147254819Y-48799999D02*
X147397676Y-48895237D01*
X147397676Y-48895237D02*
X147492914Y-48990475D01*
X147492914Y-48990475D02*
X147540533Y-49085713D01*
X110755427Y-78686666D02*
X109905427Y-78686666D01*
X109905427Y-78686666D02*
X109905427Y-78519999D01*
X109905427Y-78519999D02*
X109945903Y-78419999D01*
X109945903Y-78419999D02*
X110026855Y-78353333D01*
X110026855Y-78353333D02*
X110107808Y-78319999D01*
X110107808Y-78319999D02*
X110269712Y-78286666D01*
X110269712Y-78286666D02*
X110391141Y-78286666D01*
X110391141Y-78286666D02*
X110553046Y-78319999D01*
X110553046Y-78319999D02*
X110633998Y-78353333D01*
X110633998Y-78353333D02*
X110714951Y-78419999D01*
X110714951Y-78419999D02*
X110755427Y-78519999D01*
X110755427Y-78519999D02*
X110755427Y-78686666D01*
X109905427Y-78053333D02*
X109905427Y-77619999D01*
X109905427Y-77619999D02*
X110229236Y-77853333D01*
X110229236Y-77853333D02*
X110229236Y-77753333D01*
X110229236Y-77753333D02*
X110269712Y-77686666D01*
X110269712Y-77686666D02*
X110310189Y-77653333D01*
X110310189Y-77653333D02*
X110391141Y-77619999D01*
X110391141Y-77619999D02*
X110593522Y-77619999D01*
X110593522Y-77619999D02*
X110674474Y-77653333D01*
X110674474Y-77653333D02*
X110714951Y-77686666D01*
X110714951Y-77686666D02*
X110755427Y-77753333D01*
X110755427Y-77753333D02*
X110755427Y-77953333D01*
X110755427Y-77953333D02*
X110714951Y-78019999D01*
X110714951Y-78019999D02*
X110674474Y-78053333D01*
X93535427Y-56200000D02*
X92685427Y-56200000D01*
X92685427Y-56200000D02*
X92685427Y-56033333D01*
X92685427Y-56033333D02*
X92725903Y-55933333D01*
X92725903Y-55933333D02*
X92806855Y-55866667D01*
X92806855Y-55866667D02*
X92887808Y-55833333D01*
X92887808Y-55833333D02*
X93049712Y-55800000D01*
X93049712Y-55800000D02*
X93171141Y-55800000D01*
X93171141Y-55800000D02*
X93333046Y-55833333D01*
X93333046Y-55833333D02*
X93413998Y-55866667D01*
X93413998Y-55866667D02*
X93494951Y-55933333D01*
X93494951Y-55933333D02*
X93535427Y-56033333D01*
X93535427Y-56033333D02*
X93535427Y-56200000D01*
X93535427Y-55133333D02*
X93535427Y-55533333D01*
X93535427Y-55333333D02*
X92685427Y-55333333D01*
X92685427Y-55333333D02*
X92806855Y-55400000D01*
X92806855Y-55400000D02*
X92887808Y-55466667D01*
X92887808Y-55466667D02*
X92928284Y-55533333D01*
X92685427Y-54900000D02*
X92685427Y-54466666D01*
X92685427Y-54466666D02*
X93009236Y-54700000D01*
X93009236Y-54700000D02*
X93009236Y-54600000D01*
X93009236Y-54600000D02*
X93049712Y-54533333D01*
X93049712Y-54533333D02*
X93090189Y-54500000D01*
X93090189Y-54500000D02*
X93171141Y-54466666D01*
X93171141Y-54466666D02*
X93373522Y-54466666D01*
X93373522Y-54466666D02*
X93454474Y-54500000D01*
X93454474Y-54500000D02*
X93494951Y-54533333D01*
X93494951Y-54533333D02*
X93535427Y-54600000D01*
X93535427Y-54600000D02*
X93535427Y-54800000D01*
X93535427Y-54800000D02*
X93494951Y-54866666D01*
X93494951Y-54866666D02*
X93454474Y-54900000D01*
X92916379Y-60666666D02*
X92875903Y-60733333D01*
X92875903Y-60733333D02*
X92794951Y-60800000D01*
X92794951Y-60800000D02*
X92673522Y-60900000D01*
X92673522Y-60900000D02*
X92633046Y-60966666D01*
X92633046Y-60966666D02*
X92633046Y-61033333D01*
X92835427Y-61000000D02*
X92794951Y-61066666D01*
X92794951Y-61066666D02*
X92713998Y-61133333D01*
X92713998Y-61133333D02*
X92552093Y-61166666D01*
X92552093Y-61166666D02*
X92268760Y-61166666D01*
X92268760Y-61166666D02*
X92106855Y-61133333D01*
X92106855Y-61133333D02*
X92025903Y-61066666D01*
X92025903Y-61066666D02*
X91985427Y-61000000D01*
X91985427Y-61000000D02*
X91985427Y-60866666D01*
X91985427Y-60866666D02*
X92025903Y-60800000D01*
X92025903Y-60800000D02*
X92106855Y-60733333D01*
X92106855Y-60733333D02*
X92268760Y-60700000D01*
X92268760Y-60700000D02*
X92552093Y-60700000D01*
X92552093Y-60700000D02*
X92713998Y-60733333D01*
X92713998Y-60733333D02*
X92794951Y-60800000D01*
X92794951Y-60800000D02*
X92835427Y-60866666D01*
X92835427Y-60866666D02*
X92835427Y-61000000D01*
X91985427Y-60066667D02*
X91985427Y-60400000D01*
X91985427Y-60400000D02*
X92390189Y-60433333D01*
X92390189Y-60433333D02*
X92349712Y-60400000D01*
X92349712Y-60400000D02*
X92309236Y-60333333D01*
X92309236Y-60333333D02*
X92309236Y-60166667D01*
X92309236Y-60166667D02*
X92349712Y-60100000D01*
X92349712Y-60100000D02*
X92390189Y-60066667D01*
X92390189Y-60066667D02*
X92471141Y-60033333D01*
X92471141Y-60033333D02*
X92673522Y-60033333D01*
X92673522Y-60033333D02*
X92754474Y-60066667D01*
X92754474Y-60066667D02*
X92794951Y-60100000D01*
X92794951Y-60100000D02*
X92835427Y-60166667D01*
X92835427Y-60166667D02*
X92835427Y-60333333D01*
X92835427Y-60333333D02*
X92794951Y-60400000D01*
X92794951Y-60400000D02*
X92754474Y-60433333D01*
X127349999Y-61555427D02*
X127116666Y-61150665D01*
X126949999Y-61555427D02*
X126949999Y-60705427D01*
X126949999Y-60705427D02*
X127216666Y-60705427D01*
X127216666Y-60705427D02*
X127283333Y-60745903D01*
X127283333Y-60745903D02*
X127316666Y-60786379D01*
X127316666Y-60786379D02*
X127349999Y-60867331D01*
X127349999Y-60867331D02*
X127349999Y-60988760D01*
X127349999Y-60988760D02*
X127316666Y-61069712D01*
X127316666Y-61069712D02*
X127283333Y-61110189D01*
X127283333Y-61110189D02*
X127216666Y-61150665D01*
X127216666Y-61150665D02*
X126949999Y-61150665D01*
X127949999Y-60988760D02*
X127949999Y-61555427D01*
X127783333Y-60664951D02*
X127616666Y-61272093D01*
X127616666Y-61272093D02*
X128049999Y-61272093D01*
X128616666Y-60988760D02*
X128616666Y-61555427D01*
X128450000Y-60664951D02*
X128283333Y-61272093D01*
X128283333Y-61272093D02*
X128716666Y-61272093D01*
X144299999Y-54135427D02*
X144066666Y-53730665D01*
X143899999Y-54135427D02*
X143899999Y-53285427D01*
X143899999Y-53285427D02*
X144166666Y-53285427D01*
X144166666Y-53285427D02*
X144233333Y-53325903D01*
X144233333Y-53325903D02*
X144266666Y-53366379D01*
X144266666Y-53366379D02*
X144299999Y-53447331D01*
X144299999Y-53447331D02*
X144299999Y-53568760D01*
X144299999Y-53568760D02*
X144266666Y-53649712D01*
X144266666Y-53649712D02*
X144233333Y-53690189D01*
X144233333Y-53690189D02*
X144166666Y-53730665D01*
X144166666Y-53730665D02*
X143899999Y-53730665D01*
X144533333Y-53285427D02*
X144966666Y-53285427D01*
X144966666Y-53285427D02*
X144733333Y-53609236D01*
X144733333Y-53609236D02*
X144833333Y-53609236D01*
X144833333Y-53609236D02*
X144899999Y-53649712D01*
X144899999Y-53649712D02*
X144933333Y-53690189D01*
X144933333Y-53690189D02*
X144966666Y-53771141D01*
X144966666Y-53771141D02*
X144966666Y-53973522D01*
X144966666Y-53973522D02*
X144933333Y-54054474D01*
X144933333Y-54054474D02*
X144899999Y-54094951D01*
X144899999Y-54094951D02*
X144833333Y-54135427D01*
X144833333Y-54135427D02*
X144633333Y-54135427D01*
X144633333Y-54135427D02*
X144566666Y-54094951D01*
X144566666Y-54094951D02*
X144533333Y-54054474D01*
X145300000Y-54135427D02*
X145433333Y-54135427D01*
X145433333Y-54135427D02*
X145500000Y-54094951D01*
X145500000Y-54094951D02*
X145533333Y-54054474D01*
X145533333Y-54054474D02*
X145600000Y-53933046D01*
X145600000Y-53933046D02*
X145633333Y-53771141D01*
X145633333Y-53771141D02*
X145633333Y-53447331D01*
X145633333Y-53447331D02*
X145600000Y-53366379D01*
X145600000Y-53366379D02*
X145566666Y-53325903D01*
X145566666Y-53325903D02*
X145500000Y-53285427D01*
X145500000Y-53285427D02*
X145366666Y-53285427D01*
X145366666Y-53285427D02*
X145300000Y-53325903D01*
X145300000Y-53325903D02*
X145266666Y-53366379D01*
X145266666Y-53366379D02*
X145233333Y-53447331D01*
X145233333Y-53447331D02*
X145233333Y-53649712D01*
X145233333Y-53649712D02*
X145266666Y-53730665D01*
X145266666Y-53730665D02*
X145300000Y-53771141D01*
X145300000Y-53771141D02*
X145366666Y-53811617D01*
X145366666Y-53811617D02*
X145500000Y-53811617D01*
X145500000Y-53811617D02*
X145566666Y-53771141D01*
X145566666Y-53771141D02*
X145600000Y-53730665D01*
X145600000Y-53730665D02*
X145633333Y-53649712D01*
X78603333Y-55605427D02*
X78603333Y-54755427D01*
X78603333Y-54755427D02*
X78770000Y-54755427D01*
X78770000Y-54755427D02*
X78870000Y-54795903D01*
X78870000Y-54795903D02*
X78936667Y-54876855D01*
X78936667Y-54876855D02*
X78970000Y-54957808D01*
X78970000Y-54957808D02*
X79003333Y-55119712D01*
X79003333Y-55119712D02*
X79003333Y-55241141D01*
X79003333Y-55241141D02*
X78970000Y-55403046D01*
X78970000Y-55403046D02*
X78936667Y-55483998D01*
X78936667Y-55483998D02*
X78870000Y-55564951D01*
X78870000Y-55564951D02*
X78770000Y-55605427D01*
X78770000Y-55605427D02*
X78603333Y-55605427D01*
X79403333Y-55119712D02*
X79336667Y-55079236D01*
X79336667Y-55079236D02*
X79303333Y-55038760D01*
X79303333Y-55038760D02*
X79270000Y-54957808D01*
X79270000Y-54957808D02*
X79270000Y-54917331D01*
X79270000Y-54917331D02*
X79303333Y-54836379D01*
X79303333Y-54836379D02*
X79336667Y-54795903D01*
X79336667Y-54795903D02*
X79403333Y-54755427D01*
X79403333Y-54755427D02*
X79536667Y-54755427D01*
X79536667Y-54755427D02*
X79603333Y-54795903D01*
X79603333Y-54795903D02*
X79636667Y-54836379D01*
X79636667Y-54836379D02*
X79670000Y-54917331D01*
X79670000Y-54917331D02*
X79670000Y-54957808D01*
X79670000Y-54957808D02*
X79636667Y-55038760D01*
X79636667Y-55038760D02*
X79603333Y-55079236D01*
X79603333Y-55079236D02*
X79536667Y-55119712D01*
X79536667Y-55119712D02*
X79403333Y-55119712D01*
X79403333Y-55119712D02*
X79336667Y-55160189D01*
X79336667Y-55160189D02*
X79303333Y-55200665D01*
X79303333Y-55200665D02*
X79270000Y-55281617D01*
X79270000Y-55281617D02*
X79270000Y-55443522D01*
X79270000Y-55443522D02*
X79303333Y-55524474D01*
X79303333Y-55524474D02*
X79336667Y-55564951D01*
X79336667Y-55564951D02*
X79403333Y-55605427D01*
X79403333Y-55605427D02*
X79536667Y-55605427D01*
X79536667Y-55605427D02*
X79603333Y-55564951D01*
X79603333Y-55564951D02*
X79636667Y-55524474D01*
X79636667Y-55524474D02*
X79670000Y-55443522D01*
X79670000Y-55443522D02*
X79670000Y-55281617D01*
X79670000Y-55281617D02*
X79636667Y-55200665D01*
X79636667Y-55200665D02*
X79603333Y-55160189D01*
X79603333Y-55160189D02*
X79536667Y-55119712D01*
X74883333Y-55785427D02*
X74883333Y-54935427D01*
X74883333Y-54935427D02*
X75050000Y-54935427D01*
X75050000Y-54935427D02*
X75150000Y-54975903D01*
X75150000Y-54975903D02*
X75216667Y-55056855D01*
X75216667Y-55056855D02*
X75250000Y-55137808D01*
X75250000Y-55137808D02*
X75283333Y-55299712D01*
X75283333Y-55299712D02*
X75283333Y-55421141D01*
X75283333Y-55421141D02*
X75250000Y-55583046D01*
X75250000Y-55583046D02*
X75216667Y-55663998D01*
X75216667Y-55663998D02*
X75150000Y-55744951D01*
X75150000Y-55744951D02*
X75050000Y-55785427D01*
X75050000Y-55785427D02*
X74883333Y-55785427D01*
X75516667Y-54935427D02*
X75983333Y-54935427D01*
X75983333Y-54935427D02*
X75683333Y-55785427D01*
X137856666Y-71344951D02*
X137956666Y-71385427D01*
X137956666Y-71385427D02*
X138123333Y-71385427D01*
X138123333Y-71385427D02*
X138189999Y-71344951D01*
X138189999Y-71344951D02*
X138223333Y-71304474D01*
X138223333Y-71304474D02*
X138256666Y-71223522D01*
X138256666Y-71223522D02*
X138256666Y-71142570D01*
X138256666Y-71142570D02*
X138223333Y-71061617D01*
X138223333Y-71061617D02*
X138189999Y-71021141D01*
X138189999Y-71021141D02*
X138123333Y-70980665D01*
X138123333Y-70980665D02*
X137989999Y-70940189D01*
X137989999Y-70940189D02*
X137923333Y-70899712D01*
X137923333Y-70899712D02*
X137889999Y-70859236D01*
X137889999Y-70859236D02*
X137856666Y-70778284D01*
X137856666Y-70778284D02*
X137856666Y-70697331D01*
X137856666Y-70697331D02*
X137889999Y-70616379D01*
X137889999Y-70616379D02*
X137923333Y-70575903D01*
X137923333Y-70575903D02*
X137989999Y-70535427D01*
X137989999Y-70535427D02*
X138156666Y-70535427D01*
X138156666Y-70535427D02*
X138256666Y-70575903D01*
X138490000Y-70535427D02*
X138656666Y-71385427D01*
X138656666Y-71385427D02*
X138790000Y-70778284D01*
X138790000Y-70778284D02*
X138923333Y-71385427D01*
X138923333Y-71385427D02*
X139090000Y-70535427D01*
X139690000Y-70535427D02*
X139356666Y-70535427D01*
X139356666Y-70535427D02*
X139323333Y-70940189D01*
X139323333Y-70940189D02*
X139356666Y-70899712D01*
X139356666Y-70899712D02*
X139423333Y-70859236D01*
X139423333Y-70859236D02*
X139590000Y-70859236D01*
X139590000Y-70859236D02*
X139656666Y-70899712D01*
X139656666Y-70899712D02*
X139690000Y-70940189D01*
X139690000Y-70940189D02*
X139723333Y-71021141D01*
X139723333Y-71021141D02*
X139723333Y-71223522D01*
X139723333Y-71223522D02*
X139690000Y-71304474D01*
X139690000Y-71304474D02*
X139656666Y-71344951D01*
X139656666Y-71344951D02*
X139590000Y-71385427D01*
X139590000Y-71385427D02*
X139423333Y-71385427D01*
X139423333Y-71385427D02*
X139356666Y-71344951D01*
X139356666Y-71344951D02*
X139323333Y-71304474D01*
X69533333Y-63866379D02*
X69466666Y-63825903D01*
X69466666Y-63825903D02*
X69400000Y-63744951D01*
X69400000Y-63744951D02*
X69300000Y-63623522D01*
X69300000Y-63623522D02*
X69233333Y-63583046D01*
X69233333Y-63583046D02*
X69166666Y-63583046D01*
X69200000Y-63785427D02*
X69133333Y-63744951D01*
X69133333Y-63744951D02*
X69066666Y-63663998D01*
X69066666Y-63663998D02*
X69033333Y-63502093D01*
X69033333Y-63502093D02*
X69033333Y-63218760D01*
X69033333Y-63218760D02*
X69066666Y-63056855D01*
X69066666Y-63056855D02*
X69133333Y-62975903D01*
X69133333Y-62975903D02*
X69200000Y-62935427D01*
X69200000Y-62935427D02*
X69333333Y-62935427D01*
X69333333Y-62935427D02*
X69400000Y-62975903D01*
X69400000Y-62975903D02*
X69466666Y-63056855D01*
X69466666Y-63056855D02*
X69500000Y-63218760D01*
X69500000Y-63218760D02*
X69500000Y-63502093D01*
X69500000Y-63502093D02*
X69466666Y-63663998D01*
X69466666Y-63663998D02*
X69400000Y-63744951D01*
X69400000Y-63744951D02*
X69333333Y-63785427D01*
X69333333Y-63785427D02*
X69200000Y-63785427D01*
X69733333Y-62935427D02*
X70166666Y-62935427D01*
X70166666Y-62935427D02*
X69933333Y-63259236D01*
X69933333Y-63259236D02*
X70033333Y-63259236D01*
X70033333Y-63259236D02*
X70099999Y-63299712D01*
X70099999Y-63299712D02*
X70133333Y-63340189D01*
X70133333Y-63340189D02*
X70166666Y-63421141D01*
X70166666Y-63421141D02*
X70166666Y-63623522D01*
X70166666Y-63623522D02*
X70133333Y-63704474D01*
X70133333Y-63704474D02*
X70099999Y-63744951D01*
X70099999Y-63744951D02*
X70033333Y-63785427D01*
X70033333Y-63785427D02*
X69833333Y-63785427D01*
X69833333Y-63785427D02*
X69766666Y-63744951D01*
X69766666Y-63744951D02*
X69733333Y-63704474D01*
X125399999Y-55785427D02*
X125399999Y-54935427D01*
X125399999Y-54935427D02*
X125566666Y-54935427D01*
X125566666Y-54935427D02*
X125666666Y-54975903D01*
X125666666Y-54975903D02*
X125733333Y-55056855D01*
X125733333Y-55056855D02*
X125766666Y-55137808D01*
X125766666Y-55137808D02*
X125799999Y-55299712D01*
X125799999Y-55299712D02*
X125799999Y-55421141D01*
X125799999Y-55421141D02*
X125766666Y-55583046D01*
X125766666Y-55583046D02*
X125733333Y-55663998D01*
X125733333Y-55663998D02*
X125666666Y-55744951D01*
X125666666Y-55744951D02*
X125566666Y-55785427D01*
X125566666Y-55785427D02*
X125399999Y-55785427D01*
X126466666Y-55785427D02*
X126066666Y-55785427D01*
X126266666Y-55785427D02*
X126266666Y-54935427D01*
X126266666Y-54935427D02*
X126199999Y-55056855D01*
X126199999Y-55056855D02*
X126133333Y-55137808D01*
X126133333Y-55137808D02*
X126066666Y-55178284D01*
X127133333Y-55785427D02*
X126733333Y-55785427D01*
X126933333Y-55785427D02*
X126933333Y-54935427D01*
X126933333Y-54935427D02*
X126866666Y-55056855D01*
X126866666Y-55056855D02*
X126800000Y-55137808D01*
X126800000Y-55137808D02*
X126733333Y-55178284D01*
X88449999Y-55635427D02*
X88449999Y-54785427D01*
X88449999Y-54785427D02*
X88616666Y-54785427D01*
X88616666Y-54785427D02*
X88716666Y-54825903D01*
X88716666Y-54825903D02*
X88783333Y-54906855D01*
X88783333Y-54906855D02*
X88816666Y-54987808D01*
X88816666Y-54987808D02*
X88849999Y-55149712D01*
X88849999Y-55149712D02*
X88849999Y-55271141D01*
X88849999Y-55271141D02*
X88816666Y-55433046D01*
X88816666Y-55433046D02*
X88783333Y-55513998D01*
X88783333Y-55513998D02*
X88716666Y-55594951D01*
X88716666Y-55594951D02*
X88616666Y-55635427D01*
X88616666Y-55635427D02*
X88449999Y-55635427D01*
X89516666Y-55635427D02*
X89116666Y-55635427D01*
X89316666Y-55635427D02*
X89316666Y-54785427D01*
X89316666Y-54785427D02*
X89249999Y-54906855D01*
X89249999Y-54906855D02*
X89183333Y-54987808D01*
X89183333Y-54987808D02*
X89116666Y-55028284D01*
X89783333Y-54866379D02*
X89816666Y-54825903D01*
X89816666Y-54825903D02*
X89883333Y-54785427D01*
X89883333Y-54785427D02*
X90050000Y-54785427D01*
X90050000Y-54785427D02*
X90116666Y-54825903D01*
X90116666Y-54825903D02*
X90150000Y-54866379D01*
X90150000Y-54866379D02*
X90183333Y-54947331D01*
X90183333Y-54947331D02*
X90183333Y-55028284D01*
X90183333Y-55028284D02*
X90150000Y-55149712D01*
X90150000Y-55149712D02*
X89750000Y-55635427D01*
X89750000Y-55635427D02*
X90183333Y-55635427D01*
X149961905Y-56654819D02*
X149961905Y-55654819D01*
X149961905Y-55654819D02*
X150200000Y-55654819D01*
X150200000Y-55654819D02*
X150342857Y-55702438D01*
X150342857Y-55702438D02*
X150438095Y-55797676D01*
X150438095Y-55797676D02*
X150485714Y-55892914D01*
X150485714Y-55892914D02*
X150533333Y-56083390D01*
X150533333Y-56083390D02*
X150533333Y-56226247D01*
X150533333Y-56226247D02*
X150485714Y-56416723D01*
X150485714Y-56416723D02*
X150438095Y-56511961D01*
X150438095Y-56511961D02*
X150342857Y-56607200D01*
X150342857Y-56607200D02*
X150200000Y-56654819D01*
X150200000Y-56654819D02*
X149961905Y-56654819D01*
X151438095Y-55654819D02*
X150961905Y-55654819D01*
X150961905Y-55654819D02*
X150914286Y-56131009D01*
X150914286Y-56131009D02*
X150961905Y-56083390D01*
X150961905Y-56083390D02*
X151057143Y-56035771D01*
X151057143Y-56035771D02*
X151295238Y-56035771D01*
X151295238Y-56035771D02*
X151390476Y-56083390D01*
X151390476Y-56083390D02*
X151438095Y-56131009D01*
X151438095Y-56131009D02*
X151485714Y-56226247D01*
X151485714Y-56226247D02*
X151485714Y-56464342D01*
X151485714Y-56464342D02*
X151438095Y-56559580D01*
X151438095Y-56559580D02*
X151390476Y-56607200D01*
X151390476Y-56607200D02*
X151295238Y-56654819D01*
X151295238Y-56654819D02*
X151057143Y-56654819D01*
X151057143Y-56654819D02*
X150961905Y-56607200D01*
X150961905Y-56607200D02*
X150914286Y-56559580D01*
X63415427Y-75350000D02*
X63010665Y-75583333D01*
X63415427Y-75750000D02*
X62565427Y-75750000D01*
X62565427Y-75750000D02*
X62565427Y-75483333D01*
X62565427Y-75483333D02*
X62605903Y-75416667D01*
X62605903Y-75416667D02*
X62646379Y-75383333D01*
X62646379Y-75383333D02*
X62727331Y-75350000D01*
X62727331Y-75350000D02*
X62848760Y-75350000D01*
X62848760Y-75350000D02*
X62929712Y-75383333D01*
X62929712Y-75383333D02*
X62970189Y-75416667D01*
X62970189Y-75416667D02*
X63010665Y-75483333D01*
X63010665Y-75483333D02*
X63010665Y-75750000D01*
X62646379Y-75083333D02*
X62605903Y-75050000D01*
X62605903Y-75050000D02*
X62565427Y-74983333D01*
X62565427Y-74983333D02*
X62565427Y-74816667D01*
X62565427Y-74816667D02*
X62605903Y-74750000D01*
X62605903Y-74750000D02*
X62646379Y-74716667D01*
X62646379Y-74716667D02*
X62727331Y-74683333D01*
X62727331Y-74683333D02*
X62808284Y-74683333D01*
X62808284Y-74683333D02*
X62929712Y-74716667D01*
X62929712Y-74716667D02*
X63415427Y-75116667D01*
X63415427Y-75116667D02*
X63415427Y-74683333D01*
X62929712Y-74283333D02*
X62889236Y-74350000D01*
X62889236Y-74350000D02*
X62848760Y-74383333D01*
X62848760Y-74383333D02*
X62767808Y-74416666D01*
X62767808Y-74416666D02*
X62727331Y-74416666D01*
X62727331Y-74416666D02*
X62646379Y-74383333D01*
X62646379Y-74383333D02*
X62605903Y-74350000D01*
X62605903Y-74350000D02*
X62565427Y-74283333D01*
X62565427Y-74283333D02*
X62565427Y-74150000D01*
X62565427Y-74150000D02*
X62605903Y-74083333D01*
X62605903Y-74083333D02*
X62646379Y-74050000D01*
X62646379Y-74050000D02*
X62727331Y-74016666D01*
X62727331Y-74016666D02*
X62767808Y-74016666D01*
X62767808Y-74016666D02*
X62848760Y-74050000D01*
X62848760Y-74050000D02*
X62889236Y-74083333D01*
X62889236Y-74083333D02*
X62929712Y-74150000D01*
X62929712Y-74150000D02*
X62929712Y-74283333D01*
X62929712Y-74283333D02*
X62970189Y-74350000D01*
X62970189Y-74350000D02*
X63010665Y-74383333D01*
X63010665Y-74383333D02*
X63091617Y-74416666D01*
X63091617Y-74416666D02*
X63253522Y-74416666D01*
X63253522Y-74416666D02*
X63334474Y-74383333D01*
X63334474Y-74383333D02*
X63374951Y-74350000D01*
X63374951Y-74350000D02*
X63415427Y-74283333D01*
X63415427Y-74283333D02*
X63415427Y-74150000D01*
X63415427Y-74150000D02*
X63374951Y-74083333D01*
X63374951Y-74083333D02*
X63334474Y-74050000D01*
X63334474Y-74050000D02*
X63253522Y-74016666D01*
X63253522Y-74016666D02*
X63091617Y-74016666D01*
X63091617Y-74016666D02*
X63010665Y-74050000D01*
X63010665Y-74050000D02*
X62970189Y-74083333D01*
X62970189Y-74083333D02*
X62929712Y-74150000D01*
X119399999Y-53425427D02*
X119399999Y-52575427D01*
X119399999Y-52575427D02*
X119566666Y-52575427D01*
X119566666Y-52575427D02*
X119666666Y-52615903D01*
X119666666Y-52615903D02*
X119733333Y-52696855D01*
X119733333Y-52696855D02*
X119766666Y-52777808D01*
X119766666Y-52777808D02*
X119799999Y-52939712D01*
X119799999Y-52939712D02*
X119799999Y-53061141D01*
X119799999Y-53061141D02*
X119766666Y-53223046D01*
X119766666Y-53223046D02*
X119733333Y-53303998D01*
X119733333Y-53303998D02*
X119666666Y-53384951D01*
X119666666Y-53384951D02*
X119566666Y-53425427D01*
X119566666Y-53425427D02*
X119399999Y-53425427D01*
X120466666Y-53425427D02*
X120066666Y-53425427D01*
X120266666Y-53425427D02*
X120266666Y-52575427D01*
X120266666Y-52575427D02*
X120199999Y-52696855D01*
X120199999Y-52696855D02*
X120133333Y-52777808D01*
X120133333Y-52777808D02*
X120066666Y-52818284D01*
X120900000Y-52575427D02*
X120966666Y-52575427D01*
X120966666Y-52575427D02*
X121033333Y-52615903D01*
X121033333Y-52615903D02*
X121066666Y-52656379D01*
X121066666Y-52656379D02*
X121100000Y-52737331D01*
X121100000Y-52737331D02*
X121133333Y-52899236D01*
X121133333Y-52899236D02*
X121133333Y-53101617D01*
X121133333Y-53101617D02*
X121100000Y-53263522D01*
X121100000Y-53263522D02*
X121066666Y-53344474D01*
X121066666Y-53344474D02*
X121033333Y-53384951D01*
X121033333Y-53384951D02*
X120966666Y-53425427D01*
X120966666Y-53425427D02*
X120900000Y-53425427D01*
X120900000Y-53425427D02*
X120833333Y-53384951D01*
X120833333Y-53384951D02*
X120800000Y-53344474D01*
X120800000Y-53344474D02*
X120766666Y-53263522D01*
X120766666Y-53263522D02*
X120733333Y-53101617D01*
X120733333Y-53101617D02*
X120733333Y-52899236D01*
X120733333Y-52899236D02*
X120766666Y-52737331D01*
X120766666Y-52737331D02*
X120800000Y-52656379D01*
X120800000Y-52656379D02*
X120833333Y-52615903D01*
X120833333Y-52615903D02*
X120900000Y-52575427D01*
X140135427Y-48691666D02*
X139730665Y-48924999D01*
X140135427Y-49091666D02*
X139285427Y-49091666D01*
X139285427Y-49091666D02*
X139285427Y-48824999D01*
X139285427Y-48824999D02*
X139325903Y-48758333D01*
X139325903Y-48758333D02*
X139366379Y-48724999D01*
X139366379Y-48724999D02*
X139447331Y-48691666D01*
X139447331Y-48691666D02*
X139568760Y-48691666D01*
X139568760Y-48691666D02*
X139649712Y-48724999D01*
X139649712Y-48724999D02*
X139690189Y-48758333D01*
X139690189Y-48758333D02*
X139730665Y-48824999D01*
X139730665Y-48824999D02*
X139730665Y-49091666D01*
X140135427Y-48358333D02*
X140135427Y-48224999D01*
X140135427Y-48224999D02*
X140094951Y-48158333D01*
X140094951Y-48158333D02*
X140054474Y-48124999D01*
X140054474Y-48124999D02*
X139933046Y-48058333D01*
X139933046Y-48058333D02*
X139771141Y-48024999D01*
X139771141Y-48024999D02*
X139447331Y-48024999D01*
X139447331Y-48024999D02*
X139366379Y-48058333D01*
X139366379Y-48058333D02*
X139325903Y-48091666D01*
X139325903Y-48091666D02*
X139285427Y-48158333D01*
X139285427Y-48158333D02*
X139285427Y-48291666D01*
X139285427Y-48291666D02*
X139325903Y-48358333D01*
X139325903Y-48358333D02*
X139366379Y-48391666D01*
X139366379Y-48391666D02*
X139447331Y-48424999D01*
X139447331Y-48424999D02*
X139649712Y-48424999D01*
X139649712Y-48424999D02*
X139730665Y-48391666D01*
X139730665Y-48391666D02*
X139771141Y-48358333D01*
X139771141Y-48358333D02*
X139811617Y-48291666D01*
X139811617Y-48291666D02*
X139811617Y-48158333D01*
X139811617Y-48158333D02*
X139771141Y-48091666D01*
X139771141Y-48091666D02*
X139730665Y-48058333D01*
X139730665Y-48058333D02*
X139649712Y-48024999D01*
X139913333Y-68874572D02*
X139913333Y-68186477D01*
X139913333Y-68186477D02*
X139880000Y-68105525D01*
X139880000Y-68105525D02*
X139846666Y-68065049D01*
X139846666Y-68065049D02*
X139780000Y-68024572D01*
X139780000Y-68024572D02*
X139646666Y-68024572D01*
X139646666Y-68024572D02*
X139580000Y-68065049D01*
X139580000Y-68065049D02*
X139546666Y-68105525D01*
X139546666Y-68105525D02*
X139513333Y-68186477D01*
X139513333Y-68186477D02*
X139513333Y-68874572D01*
X138880000Y-68874572D02*
X139013333Y-68874572D01*
X139013333Y-68874572D02*
X139080000Y-68834096D01*
X139080000Y-68834096D02*
X139113333Y-68793620D01*
X139113333Y-68793620D02*
X139180000Y-68672191D01*
X139180000Y-68672191D02*
X139213333Y-68510287D01*
X139213333Y-68510287D02*
X139213333Y-68186477D01*
X139213333Y-68186477D02*
X139180000Y-68105525D01*
X139180000Y-68105525D02*
X139146667Y-68065049D01*
X139146667Y-68065049D02*
X139080000Y-68024572D01*
X139080000Y-68024572D02*
X138946667Y-68024572D01*
X138946667Y-68024572D02*
X138880000Y-68065049D01*
X138880000Y-68065049D02*
X138846667Y-68105525D01*
X138846667Y-68105525D02*
X138813333Y-68186477D01*
X138813333Y-68186477D02*
X138813333Y-68388858D01*
X138813333Y-68388858D02*
X138846667Y-68469810D01*
X138846667Y-68469810D02*
X138880000Y-68510287D01*
X138880000Y-68510287D02*
X138946667Y-68550763D01*
X138946667Y-68550763D02*
X139080000Y-68550763D01*
X139080000Y-68550763D02*
X139146667Y-68510287D01*
X139146667Y-68510287D02*
X139180000Y-68469810D01*
X139180000Y-68469810D02*
X139213333Y-68388858D01*
X122305427Y-59820000D02*
X121900665Y-60053333D01*
X122305427Y-60220000D02*
X121455427Y-60220000D01*
X121455427Y-60220000D02*
X121455427Y-59953333D01*
X121455427Y-59953333D02*
X121495903Y-59886667D01*
X121495903Y-59886667D02*
X121536379Y-59853333D01*
X121536379Y-59853333D02*
X121617331Y-59820000D01*
X121617331Y-59820000D02*
X121738760Y-59820000D01*
X121738760Y-59820000D02*
X121819712Y-59853333D01*
X121819712Y-59853333D02*
X121860189Y-59886667D01*
X121860189Y-59886667D02*
X121900665Y-59953333D01*
X121900665Y-59953333D02*
X121900665Y-60220000D01*
X121536379Y-59553333D02*
X121495903Y-59520000D01*
X121495903Y-59520000D02*
X121455427Y-59453333D01*
X121455427Y-59453333D02*
X121455427Y-59286667D01*
X121455427Y-59286667D02*
X121495903Y-59220000D01*
X121495903Y-59220000D02*
X121536379Y-59186667D01*
X121536379Y-59186667D02*
X121617331Y-59153333D01*
X121617331Y-59153333D02*
X121698284Y-59153333D01*
X121698284Y-59153333D02*
X121819712Y-59186667D01*
X121819712Y-59186667D02*
X122305427Y-59586667D01*
X122305427Y-59586667D02*
X122305427Y-59153333D01*
X122305427Y-58486666D02*
X122305427Y-58886666D01*
X122305427Y-58686666D02*
X121455427Y-58686666D01*
X121455427Y-58686666D02*
X121576855Y-58753333D01*
X121576855Y-58753333D02*
X121657808Y-58820000D01*
X121657808Y-58820000D02*
X121698284Y-58886666D01*
X100185427Y-56250000D02*
X99780665Y-56483333D01*
X100185427Y-56650000D02*
X99335427Y-56650000D01*
X99335427Y-56650000D02*
X99335427Y-56383333D01*
X99335427Y-56383333D02*
X99375903Y-56316667D01*
X99375903Y-56316667D02*
X99416379Y-56283333D01*
X99416379Y-56283333D02*
X99497331Y-56250000D01*
X99497331Y-56250000D02*
X99618760Y-56250000D01*
X99618760Y-56250000D02*
X99699712Y-56283333D01*
X99699712Y-56283333D02*
X99740189Y-56316667D01*
X99740189Y-56316667D02*
X99780665Y-56383333D01*
X99780665Y-56383333D02*
X99780665Y-56650000D01*
X99618760Y-55650000D02*
X100185427Y-55650000D01*
X99294951Y-55816667D02*
X99902093Y-55983333D01*
X99902093Y-55983333D02*
X99902093Y-55550000D01*
X99335427Y-54983333D02*
X99335427Y-55116666D01*
X99335427Y-55116666D02*
X99375903Y-55183333D01*
X99375903Y-55183333D02*
X99416379Y-55216666D01*
X99416379Y-55216666D02*
X99537808Y-55283333D01*
X99537808Y-55283333D02*
X99699712Y-55316666D01*
X99699712Y-55316666D02*
X100023522Y-55316666D01*
X100023522Y-55316666D02*
X100104474Y-55283333D01*
X100104474Y-55283333D02*
X100144951Y-55250000D01*
X100144951Y-55250000D02*
X100185427Y-55183333D01*
X100185427Y-55183333D02*
X100185427Y-55050000D01*
X100185427Y-55050000D02*
X100144951Y-54983333D01*
X100144951Y-54983333D02*
X100104474Y-54950000D01*
X100104474Y-54950000D02*
X100023522Y-54916666D01*
X100023522Y-54916666D02*
X99821141Y-54916666D01*
X99821141Y-54916666D02*
X99740189Y-54950000D01*
X99740189Y-54950000D02*
X99699712Y-54983333D01*
X99699712Y-54983333D02*
X99659236Y-55050000D01*
X99659236Y-55050000D02*
X99659236Y-55183333D01*
X99659236Y-55183333D02*
X99699712Y-55250000D01*
X99699712Y-55250000D02*
X99740189Y-55283333D01*
X99740189Y-55283333D02*
X99821141Y-55316666D01*
X149112704Y-59541126D02*
X148311822Y-59541126D01*
X148311822Y-59541126D02*
X148311822Y-59350440D01*
X148311822Y-59350440D02*
X148349959Y-59236028D01*
X148349959Y-59236028D02*
X148426233Y-59159754D01*
X148426233Y-59159754D02*
X148502508Y-59121617D01*
X148502508Y-59121617D02*
X148655057Y-59083479D01*
X148655057Y-59083479D02*
X148769469Y-59083479D01*
X148769469Y-59083479D02*
X148922018Y-59121617D01*
X148922018Y-59121617D02*
X148998292Y-59159754D01*
X148998292Y-59159754D02*
X149074567Y-59236028D01*
X149074567Y-59236028D02*
X149112704Y-59350440D01*
X149112704Y-59350440D02*
X149112704Y-59541126D01*
X149112704Y-58320735D02*
X149112704Y-58778382D01*
X149112704Y-58549558D02*
X148311822Y-58549558D01*
X148311822Y-58549558D02*
X148426233Y-58625833D01*
X148426233Y-58625833D02*
X148502508Y-58702107D01*
X148502508Y-58702107D02*
X148540645Y-58778382D01*
X61170189Y-78953333D02*
X61170189Y-79186666D01*
X61615427Y-79186666D02*
X60765427Y-79186666D01*
X60765427Y-79186666D02*
X60765427Y-78853333D01*
X60846379Y-78619999D02*
X60805903Y-78586666D01*
X60805903Y-78586666D02*
X60765427Y-78519999D01*
X60765427Y-78519999D02*
X60765427Y-78353333D01*
X60765427Y-78353333D02*
X60805903Y-78286666D01*
X60805903Y-78286666D02*
X60846379Y-78253333D01*
X60846379Y-78253333D02*
X60927331Y-78219999D01*
X60927331Y-78219999D02*
X61008284Y-78219999D01*
X61008284Y-78219999D02*
X61129712Y-78253333D01*
X61129712Y-78253333D02*
X61615427Y-78653333D01*
X61615427Y-78653333D02*
X61615427Y-78219999D01*
X76585427Y-62250000D02*
X76180665Y-62483333D01*
X76585427Y-62650000D02*
X75735427Y-62650000D01*
X75735427Y-62650000D02*
X75735427Y-62383333D01*
X75735427Y-62383333D02*
X75775903Y-62316667D01*
X75775903Y-62316667D02*
X75816379Y-62283333D01*
X75816379Y-62283333D02*
X75897331Y-62250000D01*
X75897331Y-62250000D02*
X76018760Y-62250000D01*
X76018760Y-62250000D02*
X76099712Y-62283333D01*
X76099712Y-62283333D02*
X76140189Y-62316667D01*
X76140189Y-62316667D02*
X76180665Y-62383333D01*
X76180665Y-62383333D02*
X76180665Y-62650000D01*
X76585427Y-61583333D02*
X76585427Y-61983333D01*
X76585427Y-61783333D02*
X75735427Y-61783333D01*
X75735427Y-61783333D02*
X75856855Y-61850000D01*
X75856855Y-61850000D02*
X75937808Y-61916667D01*
X75937808Y-61916667D02*
X75978284Y-61983333D01*
X76585427Y-61250000D02*
X76585427Y-61116666D01*
X76585427Y-61116666D02*
X76544951Y-61050000D01*
X76544951Y-61050000D02*
X76504474Y-61016666D01*
X76504474Y-61016666D02*
X76383046Y-60950000D01*
X76383046Y-60950000D02*
X76221141Y-60916666D01*
X76221141Y-60916666D02*
X75897331Y-60916666D01*
X75897331Y-60916666D02*
X75816379Y-60950000D01*
X75816379Y-60950000D02*
X75775903Y-60983333D01*
X75775903Y-60983333D02*
X75735427Y-61050000D01*
X75735427Y-61050000D02*
X75735427Y-61183333D01*
X75735427Y-61183333D02*
X75775903Y-61250000D01*
X75775903Y-61250000D02*
X75816379Y-61283333D01*
X75816379Y-61283333D02*
X75897331Y-61316666D01*
X75897331Y-61316666D02*
X76099712Y-61316666D01*
X76099712Y-61316666D02*
X76180665Y-61283333D01*
X76180665Y-61283333D02*
X76221141Y-61250000D01*
X76221141Y-61250000D02*
X76261617Y-61183333D01*
X76261617Y-61183333D02*
X76261617Y-61050000D01*
X76261617Y-61050000D02*
X76221141Y-60983333D01*
X76221141Y-60983333D02*
X76180665Y-60950000D01*
X76180665Y-60950000D02*
X76099712Y-60916666D01*
X75099999Y-76404474D02*
X75066666Y-76444951D01*
X75066666Y-76444951D02*
X74966666Y-76485427D01*
X74966666Y-76485427D02*
X74899999Y-76485427D01*
X74899999Y-76485427D02*
X74799999Y-76444951D01*
X74799999Y-76444951D02*
X74733333Y-76363998D01*
X74733333Y-76363998D02*
X74699999Y-76283046D01*
X74699999Y-76283046D02*
X74666666Y-76121141D01*
X74666666Y-76121141D02*
X74666666Y-75999712D01*
X74666666Y-75999712D02*
X74699999Y-75837808D01*
X74699999Y-75837808D02*
X74733333Y-75756855D01*
X74733333Y-75756855D02*
X74799999Y-75675903D01*
X74799999Y-75675903D02*
X74899999Y-75635427D01*
X74899999Y-75635427D02*
X74966666Y-75635427D01*
X74966666Y-75635427D02*
X75066666Y-75675903D01*
X75066666Y-75675903D02*
X75099999Y-75716379D01*
X75366666Y-75716379D02*
X75399999Y-75675903D01*
X75399999Y-75675903D02*
X75466666Y-75635427D01*
X75466666Y-75635427D02*
X75633333Y-75635427D01*
X75633333Y-75635427D02*
X75699999Y-75675903D01*
X75699999Y-75675903D02*
X75733333Y-75716379D01*
X75733333Y-75716379D02*
X75766666Y-75797331D01*
X75766666Y-75797331D02*
X75766666Y-75878284D01*
X75766666Y-75878284D02*
X75733333Y-75999712D01*
X75733333Y-75999712D02*
X75333333Y-76485427D01*
X75333333Y-76485427D02*
X75766666Y-76485427D01*
X76433333Y-76485427D02*
X76033333Y-76485427D01*
X76233333Y-76485427D02*
X76233333Y-75635427D01*
X76233333Y-75635427D02*
X76166666Y-75756855D01*
X76166666Y-75756855D02*
X76100000Y-75837808D01*
X76100000Y-75837808D02*
X76033333Y-75878284D01*
X93949999Y-52385427D02*
X93716666Y-51980665D01*
X93549999Y-52385427D02*
X93549999Y-51535427D01*
X93549999Y-51535427D02*
X93816666Y-51535427D01*
X93816666Y-51535427D02*
X93883333Y-51575903D01*
X93883333Y-51575903D02*
X93916666Y-51616379D01*
X93916666Y-51616379D02*
X93949999Y-51697331D01*
X93949999Y-51697331D02*
X93949999Y-51818760D01*
X93949999Y-51818760D02*
X93916666Y-51899712D01*
X93916666Y-51899712D02*
X93883333Y-51940189D01*
X93883333Y-51940189D02*
X93816666Y-51980665D01*
X93816666Y-51980665D02*
X93549999Y-51980665D01*
X94549999Y-51818760D02*
X94549999Y-52385427D01*
X94383333Y-51494951D02*
X94216666Y-52102093D01*
X94216666Y-52102093D02*
X94649999Y-52102093D01*
X95250000Y-51535427D02*
X94916666Y-51535427D01*
X94916666Y-51535427D02*
X94883333Y-51940189D01*
X94883333Y-51940189D02*
X94916666Y-51899712D01*
X94916666Y-51899712D02*
X94983333Y-51859236D01*
X94983333Y-51859236D02*
X95150000Y-51859236D01*
X95150000Y-51859236D02*
X95216666Y-51899712D01*
X95216666Y-51899712D02*
X95250000Y-51940189D01*
X95250000Y-51940189D02*
X95283333Y-52021141D01*
X95283333Y-52021141D02*
X95283333Y-52223522D01*
X95283333Y-52223522D02*
X95250000Y-52304474D01*
X95250000Y-52304474D02*
X95216666Y-52344951D01*
X95216666Y-52344951D02*
X95150000Y-52385427D01*
X95150000Y-52385427D02*
X94983333Y-52385427D01*
X94983333Y-52385427D02*
X94916666Y-52344951D01*
X94916666Y-52344951D02*
X94883333Y-52304474D01*
X75149999Y-77554474D02*
X75116666Y-77594951D01*
X75116666Y-77594951D02*
X75016666Y-77635427D01*
X75016666Y-77635427D02*
X74949999Y-77635427D01*
X74949999Y-77635427D02*
X74849999Y-77594951D01*
X74849999Y-77594951D02*
X74783333Y-77513998D01*
X74783333Y-77513998D02*
X74749999Y-77433046D01*
X74749999Y-77433046D02*
X74716666Y-77271141D01*
X74716666Y-77271141D02*
X74716666Y-77149712D01*
X74716666Y-77149712D02*
X74749999Y-76987808D01*
X74749999Y-76987808D02*
X74783333Y-76906855D01*
X74783333Y-76906855D02*
X74849999Y-76825903D01*
X74849999Y-76825903D02*
X74949999Y-76785427D01*
X74949999Y-76785427D02*
X75016666Y-76785427D01*
X75016666Y-76785427D02*
X75116666Y-76825903D01*
X75116666Y-76825903D02*
X75149999Y-76866379D01*
X75416666Y-76866379D02*
X75449999Y-76825903D01*
X75449999Y-76825903D02*
X75516666Y-76785427D01*
X75516666Y-76785427D02*
X75683333Y-76785427D01*
X75683333Y-76785427D02*
X75749999Y-76825903D01*
X75749999Y-76825903D02*
X75783333Y-76866379D01*
X75783333Y-76866379D02*
X75816666Y-76947331D01*
X75816666Y-76947331D02*
X75816666Y-77028284D01*
X75816666Y-77028284D02*
X75783333Y-77149712D01*
X75783333Y-77149712D02*
X75383333Y-77635427D01*
X75383333Y-77635427D02*
X75816666Y-77635427D01*
X76050000Y-76785427D02*
X76483333Y-76785427D01*
X76483333Y-76785427D02*
X76250000Y-77109236D01*
X76250000Y-77109236D02*
X76350000Y-77109236D01*
X76350000Y-77109236D02*
X76416666Y-77149712D01*
X76416666Y-77149712D02*
X76450000Y-77190189D01*
X76450000Y-77190189D02*
X76483333Y-77271141D01*
X76483333Y-77271141D02*
X76483333Y-77473522D01*
X76483333Y-77473522D02*
X76450000Y-77554474D01*
X76450000Y-77554474D02*
X76416666Y-77594951D01*
X76416666Y-77594951D02*
X76350000Y-77635427D01*
X76350000Y-77635427D02*
X76150000Y-77635427D01*
X76150000Y-77635427D02*
X76083333Y-77594951D01*
X76083333Y-77594951D02*
X76050000Y-77554474D01*
X110435427Y-88026666D02*
X110030665Y-88259999D01*
X110435427Y-88426666D02*
X109585427Y-88426666D01*
X109585427Y-88426666D02*
X109585427Y-88159999D01*
X109585427Y-88159999D02*
X109625903Y-88093333D01*
X109625903Y-88093333D02*
X109666379Y-88059999D01*
X109666379Y-88059999D02*
X109747331Y-88026666D01*
X109747331Y-88026666D02*
X109868760Y-88026666D01*
X109868760Y-88026666D02*
X109949712Y-88059999D01*
X109949712Y-88059999D02*
X109990189Y-88093333D01*
X109990189Y-88093333D02*
X110030665Y-88159999D01*
X110030665Y-88159999D02*
X110030665Y-88426666D01*
X109666379Y-87759999D02*
X109625903Y-87726666D01*
X109625903Y-87726666D02*
X109585427Y-87659999D01*
X109585427Y-87659999D02*
X109585427Y-87493333D01*
X109585427Y-87493333D02*
X109625903Y-87426666D01*
X109625903Y-87426666D02*
X109666379Y-87393333D01*
X109666379Y-87393333D02*
X109747331Y-87359999D01*
X109747331Y-87359999D02*
X109828284Y-87359999D01*
X109828284Y-87359999D02*
X109949712Y-87393333D01*
X109949712Y-87393333D02*
X110435427Y-87793333D01*
X110435427Y-87793333D02*
X110435427Y-87359999D01*
X119346666Y-63844951D02*
X119446666Y-63885427D01*
X119446666Y-63885427D02*
X119613333Y-63885427D01*
X119613333Y-63885427D02*
X119679999Y-63844951D01*
X119679999Y-63844951D02*
X119713333Y-63804474D01*
X119713333Y-63804474D02*
X119746666Y-63723522D01*
X119746666Y-63723522D02*
X119746666Y-63642570D01*
X119746666Y-63642570D02*
X119713333Y-63561617D01*
X119713333Y-63561617D02*
X119679999Y-63521141D01*
X119679999Y-63521141D02*
X119613333Y-63480665D01*
X119613333Y-63480665D02*
X119479999Y-63440189D01*
X119479999Y-63440189D02*
X119413333Y-63399712D01*
X119413333Y-63399712D02*
X119379999Y-63359236D01*
X119379999Y-63359236D02*
X119346666Y-63278284D01*
X119346666Y-63278284D02*
X119346666Y-63197331D01*
X119346666Y-63197331D02*
X119379999Y-63116379D01*
X119379999Y-63116379D02*
X119413333Y-63075903D01*
X119413333Y-63075903D02*
X119479999Y-63035427D01*
X119479999Y-63035427D02*
X119646666Y-63035427D01*
X119646666Y-63035427D02*
X119746666Y-63075903D01*
X119980000Y-63035427D02*
X120146666Y-63885427D01*
X120146666Y-63885427D02*
X120280000Y-63278284D01*
X120280000Y-63278284D02*
X120413333Y-63885427D01*
X120413333Y-63885427D02*
X120580000Y-63035427D01*
X120813333Y-63116379D02*
X120846666Y-63075903D01*
X120846666Y-63075903D02*
X120913333Y-63035427D01*
X120913333Y-63035427D02*
X121080000Y-63035427D01*
X121080000Y-63035427D02*
X121146666Y-63075903D01*
X121146666Y-63075903D02*
X121180000Y-63116379D01*
X121180000Y-63116379D02*
X121213333Y-63197331D01*
X121213333Y-63197331D02*
X121213333Y-63278284D01*
X121213333Y-63278284D02*
X121180000Y-63399712D01*
X121180000Y-63399712D02*
X120780000Y-63885427D01*
X120780000Y-63885427D02*
X121213333Y-63885427D01*
X98133474Y-50496666D02*
X98173951Y-50529999D01*
X98173951Y-50529999D02*
X98214427Y-50629999D01*
X98214427Y-50629999D02*
X98214427Y-50696666D01*
X98214427Y-50696666D02*
X98173951Y-50796666D01*
X98173951Y-50796666D02*
X98092998Y-50863333D01*
X98092998Y-50863333D02*
X98012046Y-50896666D01*
X98012046Y-50896666D02*
X97850141Y-50929999D01*
X97850141Y-50929999D02*
X97728712Y-50929999D01*
X97728712Y-50929999D02*
X97566808Y-50896666D01*
X97566808Y-50896666D02*
X97485855Y-50863333D01*
X97485855Y-50863333D02*
X97404903Y-50796666D01*
X97404903Y-50796666D02*
X97364427Y-50696666D01*
X97364427Y-50696666D02*
X97364427Y-50629999D01*
X97364427Y-50629999D02*
X97404903Y-50529999D01*
X97404903Y-50529999D02*
X97445379Y-50496666D01*
X97364427Y-50263333D02*
X97364427Y-49796666D01*
X97364427Y-49796666D02*
X98214427Y-50096666D01*
X74305427Y-60250000D02*
X73900665Y-60483333D01*
X74305427Y-60650000D02*
X73455427Y-60650000D01*
X73455427Y-60650000D02*
X73455427Y-60383333D01*
X73455427Y-60383333D02*
X73495903Y-60316667D01*
X73495903Y-60316667D02*
X73536379Y-60283333D01*
X73536379Y-60283333D02*
X73617331Y-60250000D01*
X73617331Y-60250000D02*
X73738760Y-60250000D01*
X73738760Y-60250000D02*
X73819712Y-60283333D01*
X73819712Y-60283333D02*
X73860189Y-60316667D01*
X73860189Y-60316667D02*
X73900665Y-60383333D01*
X73900665Y-60383333D02*
X73900665Y-60650000D01*
X74305427Y-59583333D02*
X74305427Y-59983333D01*
X74305427Y-59783333D02*
X73455427Y-59783333D01*
X73455427Y-59783333D02*
X73576855Y-59850000D01*
X73576855Y-59850000D02*
X73657808Y-59916667D01*
X73657808Y-59916667D02*
X73698284Y-59983333D01*
X73455427Y-59150000D02*
X73455427Y-59083333D01*
X73455427Y-59083333D02*
X73495903Y-59016666D01*
X73495903Y-59016666D02*
X73536379Y-58983333D01*
X73536379Y-58983333D02*
X73617331Y-58950000D01*
X73617331Y-58950000D02*
X73779236Y-58916666D01*
X73779236Y-58916666D02*
X73981617Y-58916666D01*
X73981617Y-58916666D02*
X74143522Y-58950000D01*
X74143522Y-58950000D02*
X74224474Y-58983333D01*
X74224474Y-58983333D02*
X74264951Y-59016666D01*
X74264951Y-59016666D02*
X74305427Y-59083333D01*
X74305427Y-59083333D02*
X74305427Y-59150000D01*
X74305427Y-59150000D02*
X74264951Y-59216666D01*
X74264951Y-59216666D02*
X74224474Y-59250000D01*
X74224474Y-59250000D02*
X74143522Y-59283333D01*
X74143522Y-59283333D02*
X73981617Y-59316666D01*
X73981617Y-59316666D02*
X73779236Y-59316666D01*
X73779236Y-59316666D02*
X73617331Y-59283333D01*
X73617331Y-59283333D02*
X73536379Y-59250000D01*
X73536379Y-59250000D02*
X73495903Y-59216666D01*
X73495903Y-59216666D02*
X73455427Y-59150000D01*
X109315427Y-73170000D02*
X108910665Y-73403333D01*
X109315427Y-73570000D02*
X108465427Y-73570000D01*
X108465427Y-73570000D02*
X108465427Y-73303333D01*
X108465427Y-73303333D02*
X108505903Y-73236667D01*
X108505903Y-73236667D02*
X108546379Y-73203333D01*
X108546379Y-73203333D02*
X108627331Y-73170000D01*
X108627331Y-73170000D02*
X108748760Y-73170000D01*
X108748760Y-73170000D02*
X108829712Y-73203333D01*
X108829712Y-73203333D02*
X108870189Y-73236667D01*
X108870189Y-73236667D02*
X108910665Y-73303333D01*
X108910665Y-73303333D02*
X108910665Y-73570000D01*
X108465427Y-72936667D02*
X108465427Y-72503333D01*
X108465427Y-72503333D02*
X108789236Y-72736667D01*
X108789236Y-72736667D02*
X108789236Y-72636667D01*
X108789236Y-72636667D02*
X108829712Y-72570000D01*
X108829712Y-72570000D02*
X108870189Y-72536667D01*
X108870189Y-72536667D02*
X108951141Y-72503333D01*
X108951141Y-72503333D02*
X109153522Y-72503333D01*
X109153522Y-72503333D02*
X109234474Y-72536667D01*
X109234474Y-72536667D02*
X109274951Y-72570000D01*
X109274951Y-72570000D02*
X109315427Y-72636667D01*
X109315427Y-72636667D02*
X109315427Y-72836667D01*
X109315427Y-72836667D02*
X109274951Y-72903333D01*
X109274951Y-72903333D02*
X109234474Y-72936667D01*
X108465427Y-72270000D02*
X108465427Y-71836666D01*
X108465427Y-71836666D02*
X108789236Y-72070000D01*
X108789236Y-72070000D02*
X108789236Y-71970000D01*
X108789236Y-71970000D02*
X108829712Y-71903333D01*
X108829712Y-71903333D02*
X108870189Y-71870000D01*
X108870189Y-71870000D02*
X108951141Y-71836666D01*
X108951141Y-71836666D02*
X109153522Y-71836666D01*
X109153522Y-71836666D02*
X109234474Y-71870000D01*
X109234474Y-71870000D02*
X109274951Y-71903333D01*
X109274951Y-71903333D02*
X109315427Y-71970000D01*
X109315427Y-71970000D02*
X109315427Y-72170000D01*
X109315427Y-72170000D02*
X109274951Y-72236666D01*
X109274951Y-72236666D02*
X109234474Y-72270000D01*
X70239999Y-53385427D02*
X70006666Y-52980665D01*
X69839999Y-53385427D02*
X69839999Y-52535427D01*
X69839999Y-52535427D02*
X70106666Y-52535427D01*
X70106666Y-52535427D02*
X70173333Y-52575903D01*
X70173333Y-52575903D02*
X70206666Y-52616379D01*
X70206666Y-52616379D02*
X70239999Y-52697331D01*
X70239999Y-52697331D02*
X70239999Y-52818760D01*
X70239999Y-52818760D02*
X70206666Y-52899712D01*
X70206666Y-52899712D02*
X70173333Y-52940189D01*
X70173333Y-52940189D02*
X70106666Y-52980665D01*
X70106666Y-52980665D02*
X69839999Y-52980665D01*
X70839999Y-52818760D02*
X70839999Y-53385427D01*
X70673333Y-52494951D02*
X70506666Y-53102093D01*
X70506666Y-53102093D02*
X70939999Y-53102093D01*
X71573333Y-53385427D02*
X71173333Y-53385427D01*
X71373333Y-53385427D02*
X71373333Y-52535427D01*
X71373333Y-52535427D02*
X71306666Y-52656855D01*
X71306666Y-52656855D02*
X71240000Y-52737808D01*
X71240000Y-52737808D02*
X71173333Y-52778284D01*
X64179999Y-77425427D02*
X63946666Y-77020665D01*
X63779999Y-77425427D02*
X63779999Y-76575427D01*
X63779999Y-76575427D02*
X64046666Y-76575427D01*
X64046666Y-76575427D02*
X64113333Y-76615903D01*
X64113333Y-76615903D02*
X64146666Y-76656379D01*
X64146666Y-76656379D02*
X64179999Y-76737331D01*
X64179999Y-76737331D02*
X64179999Y-76858760D01*
X64179999Y-76858760D02*
X64146666Y-76939712D01*
X64146666Y-76939712D02*
X64113333Y-76980189D01*
X64113333Y-76980189D02*
X64046666Y-77020665D01*
X64046666Y-77020665D02*
X63779999Y-77020665D01*
X64446666Y-76656379D02*
X64479999Y-76615903D01*
X64479999Y-76615903D02*
X64546666Y-76575427D01*
X64546666Y-76575427D02*
X64713333Y-76575427D01*
X64713333Y-76575427D02*
X64779999Y-76615903D01*
X64779999Y-76615903D02*
X64813333Y-76656379D01*
X64813333Y-76656379D02*
X64846666Y-76737331D01*
X64846666Y-76737331D02*
X64846666Y-76818284D01*
X64846666Y-76818284D02*
X64813333Y-76939712D01*
X64813333Y-76939712D02*
X64413333Y-77425427D01*
X64413333Y-77425427D02*
X64846666Y-77425427D01*
X65180000Y-77425427D02*
X65313333Y-77425427D01*
X65313333Y-77425427D02*
X65380000Y-77384951D01*
X65380000Y-77384951D02*
X65413333Y-77344474D01*
X65413333Y-77344474D02*
X65480000Y-77223046D01*
X65480000Y-77223046D02*
X65513333Y-77061141D01*
X65513333Y-77061141D02*
X65513333Y-76737331D01*
X65513333Y-76737331D02*
X65480000Y-76656379D01*
X65480000Y-76656379D02*
X65446666Y-76615903D01*
X65446666Y-76615903D02*
X65380000Y-76575427D01*
X65380000Y-76575427D02*
X65246666Y-76575427D01*
X65246666Y-76575427D02*
X65180000Y-76615903D01*
X65180000Y-76615903D02*
X65146666Y-76656379D01*
X65146666Y-76656379D02*
X65113333Y-76737331D01*
X65113333Y-76737331D02*
X65113333Y-76939712D01*
X65113333Y-76939712D02*
X65146666Y-77020665D01*
X65146666Y-77020665D02*
X65180000Y-77061141D01*
X65180000Y-77061141D02*
X65246666Y-77101617D01*
X65246666Y-77101617D02*
X65380000Y-77101617D01*
X65380000Y-77101617D02*
X65446666Y-77061141D01*
X65446666Y-77061141D02*
X65480000Y-77020665D01*
X65480000Y-77020665D02*
X65513333Y-76939712D01*
X61283333Y-57985427D02*
X61283333Y-57135427D01*
X61283333Y-57135427D02*
X61450000Y-57135427D01*
X61450000Y-57135427D02*
X61550000Y-57175903D01*
X61550000Y-57175903D02*
X61616667Y-57256855D01*
X61616667Y-57256855D02*
X61650000Y-57337808D01*
X61650000Y-57337808D02*
X61683333Y-57499712D01*
X61683333Y-57499712D02*
X61683333Y-57621141D01*
X61683333Y-57621141D02*
X61650000Y-57783046D01*
X61650000Y-57783046D02*
X61616667Y-57863998D01*
X61616667Y-57863998D02*
X61550000Y-57944951D01*
X61550000Y-57944951D02*
X61450000Y-57985427D01*
X61450000Y-57985427D02*
X61283333Y-57985427D01*
X62283333Y-57135427D02*
X62150000Y-57135427D01*
X62150000Y-57135427D02*
X62083333Y-57175903D01*
X62083333Y-57175903D02*
X62050000Y-57216379D01*
X62050000Y-57216379D02*
X61983333Y-57337808D01*
X61983333Y-57337808D02*
X61950000Y-57499712D01*
X61950000Y-57499712D02*
X61950000Y-57823522D01*
X61950000Y-57823522D02*
X61983333Y-57904474D01*
X61983333Y-57904474D02*
X62016667Y-57944951D01*
X62016667Y-57944951D02*
X62083333Y-57985427D01*
X62083333Y-57985427D02*
X62216667Y-57985427D01*
X62216667Y-57985427D02*
X62283333Y-57944951D01*
X62283333Y-57944951D02*
X62316667Y-57904474D01*
X62316667Y-57904474D02*
X62350000Y-57823522D01*
X62350000Y-57823522D02*
X62350000Y-57621141D01*
X62350000Y-57621141D02*
X62316667Y-57540189D01*
X62316667Y-57540189D02*
X62283333Y-57499712D01*
X62283333Y-57499712D02*
X62216667Y-57459236D01*
X62216667Y-57459236D02*
X62083333Y-57459236D01*
X62083333Y-57459236D02*
X62016667Y-57499712D01*
X62016667Y-57499712D02*
X61983333Y-57540189D01*
X61983333Y-57540189D02*
X61950000Y-57621141D01*
X112783333Y-55605427D02*
X112783333Y-54755427D01*
X112783333Y-54755427D02*
X112950000Y-54755427D01*
X112950000Y-54755427D02*
X113050000Y-54795903D01*
X113050000Y-54795903D02*
X113116667Y-54876855D01*
X113116667Y-54876855D02*
X113150000Y-54957808D01*
X113150000Y-54957808D02*
X113183333Y-55119712D01*
X113183333Y-55119712D02*
X113183333Y-55241141D01*
X113183333Y-55241141D02*
X113150000Y-55403046D01*
X113150000Y-55403046D02*
X113116667Y-55483998D01*
X113116667Y-55483998D02*
X113050000Y-55564951D01*
X113050000Y-55564951D02*
X112950000Y-55605427D01*
X112950000Y-55605427D02*
X112783333Y-55605427D01*
X113516667Y-55605427D02*
X113650000Y-55605427D01*
X113650000Y-55605427D02*
X113716667Y-55564951D01*
X113716667Y-55564951D02*
X113750000Y-55524474D01*
X113750000Y-55524474D02*
X113816667Y-55403046D01*
X113816667Y-55403046D02*
X113850000Y-55241141D01*
X113850000Y-55241141D02*
X113850000Y-54917331D01*
X113850000Y-54917331D02*
X113816667Y-54836379D01*
X113816667Y-54836379D02*
X113783333Y-54795903D01*
X113783333Y-54795903D02*
X113716667Y-54755427D01*
X113716667Y-54755427D02*
X113583333Y-54755427D01*
X113583333Y-54755427D02*
X113516667Y-54795903D01*
X113516667Y-54795903D02*
X113483333Y-54836379D01*
X113483333Y-54836379D02*
X113450000Y-54917331D01*
X113450000Y-54917331D02*
X113450000Y-55119712D01*
X113450000Y-55119712D02*
X113483333Y-55200665D01*
X113483333Y-55200665D02*
X113516667Y-55241141D01*
X113516667Y-55241141D02*
X113583333Y-55281617D01*
X113583333Y-55281617D02*
X113716667Y-55281617D01*
X113716667Y-55281617D02*
X113783333Y-55241141D01*
X113783333Y-55241141D02*
X113816667Y-55200665D01*
X113816667Y-55200665D02*
X113850000Y-55119712D01*
X107395427Y-73230000D02*
X106990665Y-73463333D01*
X107395427Y-73630000D02*
X106545427Y-73630000D01*
X106545427Y-73630000D02*
X106545427Y-73363333D01*
X106545427Y-73363333D02*
X106585903Y-73296667D01*
X106585903Y-73296667D02*
X106626379Y-73263333D01*
X106626379Y-73263333D02*
X106707331Y-73230000D01*
X106707331Y-73230000D02*
X106828760Y-73230000D01*
X106828760Y-73230000D02*
X106909712Y-73263333D01*
X106909712Y-73263333D02*
X106950189Y-73296667D01*
X106950189Y-73296667D02*
X106990665Y-73363333D01*
X106990665Y-73363333D02*
X106990665Y-73630000D01*
X106545427Y-72996667D02*
X106545427Y-72563333D01*
X106545427Y-72563333D02*
X106869236Y-72796667D01*
X106869236Y-72796667D02*
X106869236Y-72696667D01*
X106869236Y-72696667D02*
X106909712Y-72630000D01*
X106909712Y-72630000D02*
X106950189Y-72596667D01*
X106950189Y-72596667D02*
X107031141Y-72563333D01*
X107031141Y-72563333D02*
X107233522Y-72563333D01*
X107233522Y-72563333D02*
X107314474Y-72596667D01*
X107314474Y-72596667D02*
X107354951Y-72630000D01*
X107354951Y-72630000D02*
X107395427Y-72696667D01*
X107395427Y-72696667D02*
X107395427Y-72896667D01*
X107395427Y-72896667D02*
X107354951Y-72963333D01*
X107354951Y-72963333D02*
X107314474Y-72996667D01*
X106626379Y-72296666D02*
X106585903Y-72263333D01*
X106585903Y-72263333D02*
X106545427Y-72196666D01*
X106545427Y-72196666D02*
X106545427Y-72030000D01*
X106545427Y-72030000D02*
X106585903Y-71963333D01*
X106585903Y-71963333D02*
X106626379Y-71930000D01*
X106626379Y-71930000D02*
X106707331Y-71896666D01*
X106707331Y-71896666D02*
X106788284Y-71896666D01*
X106788284Y-71896666D02*
X106909712Y-71930000D01*
X106909712Y-71930000D02*
X107395427Y-72330000D01*
X107395427Y-72330000D02*
X107395427Y-71896666D01*
X143949999Y-58885427D02*
X143716666Y-58480665D01*
X143549999Y-58885427D02*
X143549999Y-58035427D01*
X143549999Y-58035427D02*
X143816666Y-58035427D01*
X143816666Y-58035427D02*
X143883333Y-58075903D01*
X143883333Y-58075903D02*
X143916666Y-58116379D01*
X143916666Y-58116379D02*
X143949999Y-58197331D01*
X143949999Y-58197331D02*
X143949999Y-58318760D01*
X143949999Y-58318760D02*
X143916666Y-58399712D01*
X143916666Y-58399712D02*
X143883333Y-58440189D01*
X143883333Y-58440189D02*
X143816666Y-58480665D01*
X143816666Y-58480665D02*
X143549999Y-58480665D01*
X144183333Y-58035427D02*
X144616666Y-58035427D01*
X144616666Y-58035427D02*
X144383333Y-58359236D01*
X144383333Y-58359236D02*
X144483333Y-58359236D01*
X144483333Y-58359236D02*
X144549999Y-58399712D01*
X144549999Y-58399712D02*
X144583333Y-58440189D01*
X144583333Y-58440189D02*
X144616666Y-58521141D01*
X144616666Y-58521141D02*
X144616666Y-58723522D01*
X144616666Y-58723522D02*
X144583333Y-58804474D01*
X144583333Y-58804474D02*
X144549999Y-58844951D01*
X144549999Y-58844951D02*
X144483333Y-58885427D01*
X144483333Y-58885427D02*
X144283333Y-58885427D01*
X144283333Y-58885427D02*
X144216666Y-58844951D01*
X144216666Y-58844951D02*
X144183333Y-58804474D01*
X145016666Y-58399712D02*
X144950000Y-58359236D01*
X144950000Y-58359236D02*
X144916666Y-58318760D01*
X144916666Y-58318760D02*
X144883333Y-58237808D01*
X144883333Y-58237808D02*
X144883333Y-58197331D01*
X144883333Y-58197331D02*
X144916666Y-58116379D01*
X144916666Y-58116379D02*
X144950000Y-58075903D01*
X144950000Y-58075903D02*
X145016666Y-58035427D01*
X145016666Y-58035427D02*
X145150000Y-58035427D01*
X145150000Y-58035427D02*
X145216666Y-58075903D01*
X145216666Y-58075903D02*
X145250000Y-58116379D01*
X145250000Y-58116379D02*
X145283333Y-58197331D01*
X145283333Y-58197331D02*
X145283333Y-58237808D01*
X145283333Y-58237808D02*
X145250000Y-58318760D01*
X145250000Y-58318760D02*
X145216666Y-58359236D01*
X145216666Y-58359236D02*
X145150000Y-58399712D01*
X145150000Y-58399712D02*
X145016666Y-58399712D01*
X145016666Y-58399712D02*
X144950000Y-58440189D01*
X144950000Y-58440189D02*
X144916666Y-58480665D01*
X144916666Y-58480665D02*
X144883333Y-58561617D01*
X144883333Y-58561617D02*
X144883333Y-58723522D01*
X144883333Y-58723522D02*
X144916666Y-58804474D01*
X144916666Y-58804474D02*
X144950000Y-58844951D01*
X144950000Y-58844951D02*
X145016666Y-58885427D01*
X145016666Y-58885427D02*
X145150000Y-58885427D01*
X145150000Y-58885427D02*
X145216666Y-58844951D01*
X145216666Y-58844951D02*
X145250000Y-58804474D01*
X145250000Y-58804474D02*
X145283333Y-58723522D01*
X145283333Y-58723522D02*
X145283333Y-58561617D01*
X145283333Y-58561617D02*
X145250000Y-58480665D01*
X145250000Y-58480665D02*
X145216666Y-58440189D01*
X145216666Y-58440189D02*
X145150000Y-58399712D01*
X102269999Y-55635427D02*
X102269999Y-54785427D01*
X102269999Y-54785427D02*
X102436666Y-54785427D01*
X102436666Y-54785427D02*
X102536666Y-54825903D01*
X102536666Y-54825903D02*
X102603333Y-54906855D01*
X102603333Y-54906855D02*
X102636666Y-54987808D01*
X102636666Y-54987808D02*
X102669999Y-55149712D01*
X102669999Y-55149712D02*
X102669999Y-55271141D01*
X102669999Y-55271141D02*
X102636666Y-55433046D01*
X102636666Y-55433046D02*
X102603333Y-55513998D01*
X102603333Y-55513998D02*
X102536666Y-55594951D01*
X102536666Y-55594951D02*
X102436666Y-55635427D01*
X102436666Y-55635427D02*
X102269999Y-55635427D01*
X103336666Y-55635427D02*
X102936666Y-55635427D01*
X103136666Y-55635427D02*
X103136666Y-54785427D01*
X103136666Y-54785427D02*
X103069999Y-54906855D01*
X103069999Y-54906855D02*
X103003333Y-54987808D01*
X103003333Y-54987808D02*
X102936666Y-55028284D01*
X103936666Y-55068760D02*
X103936666Y-55635427D01*
X103770000Y-54744951D02*
X103603333Y-55352093D01*
X103603333Y-55352093D02*
X104036666Y-55352093D01*
X129116666Y-78535427D02*
X129116666Y-79142570D01*
X129116666Y-79142570D02*
X129083333Y-79263998D01*
X129083333Y-79263998D02*
X129016666Y-79344951D01*
X129016666Y-79344951D02*
X128916666Y-79385427D01*
X128916666Y-79385427D02*
X128850000Y-79385427D01*
X129449999Y-79385427D02*
X129449999Y-78535427D01*
X129449999Y-78535427D02*
X129716666Y-78535427D01*
X129716666Y-78535427D02*
X129783333Y-78575903D01*
X129783333Y-78575903D02*
X129816666Y-78616379D01*
X129816666Y-78616379D02*
X129849999Y-78697331D01*
X129849999Y-78697331D02*
X129849999Y-78818760D01*
X129849999Y-78818760D02*
X129816666Y-78899712D01*
X129816666Y-78899712D02*
X129783333Y-78940189D01*
X129783333Y-78940189D02*
X129716666Y-78980665D01*
X129716666Y-78980665D02*
X129449999Y-78980665D01*
X130083333Y-78535427D02*
X130516666Y-78535427D01*
X130516666Y-78535427D02*
X130283333Y-78859236D01*
X130283333Y-78859236D02*
X130383333Y-78859236D01*
X130383333Y-78859236D02*
X130449999Y-78899712D01*
X130449999Y-78899712D02*
X130483333Y-78940189D01*
X130483333Y-78940189D02*
X130516666Y-79021141D01*
X130516666Y-79021141D02*
X130516666Y-79223522D01*
X130516666Y-79223522D02*
X130483333Y-79304474D01*
X130483333Y-79304474D02*
X130449999Y-79344951D01*
X130449999Y-79344951D02*
X130383333Y-79385427D01*
X130383333Y-79385427D02*
X130183333Y-79385427D01*
X130183333Y-79385427D02*
X130116666Y-79344951D01*
X130116666Y-79344951D02*
X130083333Y-79304474D01*
X132585714Y-77654819D02*
X132014286Y-77654819D01*
X132300000Y-77654819D02*
X132300000Y-76654819D01*
X132300000Y-76654819D02*
X132204762Y-76797676D01*
X132204762Y-76797676D02*
X132109524Y-76892914D01*
X132109524Y-76892914D02*
X132014286Y-76940533D01*
X126766667Y-76654819D02*
X127385714Y-76654819D01*
X127385714Y-76654819D02*
X127052381Y-77035771D01*
X127052381Y-77035771D02*
X127195238Y-77035771D01*
X127195238Y-77035771D02*
X127290476Y-77083390D01*
X127290476Y-77083390D02*
X127338095Y-77131009D01*
X127338095Y-77131009D02*
X127385714Y-77226247D01*
X127385714Y-77226247D02*
X127385714Y-77464342D01*
X127385714Y-77464342D02*
X127338095Y-77559580D01*
X127338095Y-77559580D02*
X127290476Y-77607200D01*
X127290476Y-77607200D02*
X127195238Y-77654819D01*
X127195238Y-77654819D02*
X126909524Y-77654819D01*
X126909524Y-77654819D02*
X126814286Y-77607200D01*
X126814286Y-77607200D02*
X126766667Y-77559580D01*
X75385427Y-58050000D02*
X74980665Y-58283333D01*
X75385427Y-58450000D02*
X74535427Y-58450000D01*
X74535427Y-58450000D02*
X74535427Y-58183333D01*
X74535427Y-58183333D02*
X74575903Y-58116667D01*
X74575903Y-58116667D02*
X74616379Y-58083333D01*
X74616379Y-58083333D02*
X74697331Y-58050000D01*
X74697331Y-58050000D02*
X74818760Y-58050000D01*
X74818760Y-58050000D02*
X74899712Y-58083333D01*
X74899712Y-58083333D02*
X74940189Y-58116667D01*
X74940189Y-58116667D02*
X74980665Y-58183333D01*
X74980665Y-58183333D02*
X74980665Y-58450000D01*
X74818760Y-57450000D02*
X75385427Y-57450000D01*
X74494951Y-57616667D02*
X75102093Y-57783333D01*
X75102093Y-57783333D02*
X75102093Y-57350000D01*
X74616379Y-57116666D02*
X74575903Y-57083333D01*
X74575903Y-57083333D02*
X74535427Y-57016666D01*
X74535427Y-57016666D02*
X74535427Y-56850000D01*
X74535427Y-56850000D02*
X74575903Y-56783333D01*
X74575903Y-56783333D02*
X74616379Y-56750000D01*
X74616379Y-56750000D02*
X74697331Y-56716666D01*
X74697331Y-56716666D02*
X74778284Y-56716666D01*
X74778284Y-56716666D02*
X74899712Y-56750000D01*
X74899712Y-56750000D02*
X75385427Y-57150000D01*
X75385427Y-57150000D02*
X75385427Y-56716666D01*
X69516666Y-77435427D02*
X69516666Y-78123522D01*
X69516666Y-78123522D02*
X69550000Y-78204474D01*
X69550000Y-78204474D02*
X69583333Y-78244951D01*
X69583333Y-78244951D02*
X69650000Y-78285427D01*
X69650000Y-78285427D02*
X69783333Y-78285427D01*
X69783333Y-78285427D02*
X69850000Y-78244951D01*
X69850000Y-78244951D02*
X69883333Y-78204474D01*
X69883333Y-78204474D02*
X69916666Y-78123522D01*
X69916666Y-78123522D02*
X69916666Y-77435427D01*
X70183333Y-77435427D02*
X70649999Y-77435427D01*
X70649999Y-77435427D02*
X70349999Y-78285427D01*
X134166666Y-47819951D02*
X134266666Y-47860427D01*
X134266666Y-47860427D02*
X134433333Y-47860427D01*
X134433333Y-47860427D02*
X134499999Y-47819951D01*
X134499999Y-47819951D02*
X134533333Y-47779474D01*
X134533333Y-47779474D02*
X134566666Y-47698522D01*
X134566666Y-47698522D02*
X134566666Y-47617570D01*
X134566666Y-47617570D02*
X134533333Y-47536617D01*
X134533333Y-47536617D02*
X134499999Y-47496141D01*
X134499999Y-47496141D02*
X134433333Y-47455665D01*
X134433333Y-47455665D02*
X134299999Y-47415189D01*
X134299999Y-47415189D02*
X134233333Y-47374712D01*
X134233333Y-47374712D02*
X134199999Y-47334236D01*
X134199999Y-47334236D02*
X134166666Y-47253284D01*
X134166666Y-47253284D02*
X134166666Y-47172331D01*
X134166666Y-47172331D02*
X134199999Y-47091379D01*
X134199999Y-47091379D02*
X134233333Y-47050903D01*
X134233333Y-47050903D02*
X134299999Y-47010427D01*
X134299999Y-47010427D02*
X134466666Y-47010427D01*
X134466666Y-47010427D02*
X134566666Y-47050903D01*
X134800000Y-47010427D02*
X134966666Y-47860427D01*
X134966666Y-47860427D02*
X135100000Y-47253284D01*
X135100000Y-47253284D02*
X135233333Y-47860427D01*
X135233333Y-47860427D02*
X135400000Y-47010427D01*
X136033333Y-47860427D02*
X135633333Y-47860427D01*
X135833333Y-47860427D02*
X135833333Y-47010427D01*
X135833333Y-47010427D02*
X135766666Y-47131855D01*
X135766666Y-47131855D02*
X135700000Y-47212808D01*
X135700000Y-47212808D02*
X135633333Y-47253284D01*
X94566666Y-63944951D02*
X94666666Y-63985427D01*
X94666666Y-63985427D02*
X94833333Y-63985427D01*
X94833333Y-63985427D02*
X94899999Y-63944951D01*
X94899999Y-63944951D02*
X94933333Y-63904474D01*
X94933333Y-63904474D02*
X94966666Y-63823522D01*
X94966666Y-63823522D02*
X94966666Y-63742570D01*
X94966666Y-63742570D02*
X94933333Y-63661617D01*
X94933333Y-63661617D02*
X94899999Y-63621141D01*
X94899999Y-63621141D02*
X94833333Y-63580665D01*
X94833333Y-63580665D02*
X94699999Y-63540189D01*
X94699999Y-63540189D02*
X94633333Y-63499712D01*
X94633333Y-63499712D02*
X94599999Y-63459236D01*
X94599999Y-63459236D02*
X94566666Y-63378284D01*
X94566666Y-63378284D02*
X94566666Y-63297331D01*
X94566666Y-63297331D02*
X94599999Y-63216379D01*
X94599999Y-63216379D02*
X94633333Y-63175903D01*
X94633333Y-63175903D02*
X94699999Y-63135427D01*
X94699999Y-63135427D02*
X94866666Y-63135427D01*
X94866666Y-63135427D02*
X94966666Y-63175903D01*
X95200000Y-63135427D02*
X95366666Y-63985427D01*
X95366666Y-63985427D02*
X95500000Y-63378284D01*
X95500000Y-63378284D02*
X95633333Y-63985427D01*
X95633333Y-63985427D02*
X95800000Y-63135427D01*
X96000000Y-63135427D02*
X96433333Y-63135427D01*
X96433333Y-63135427D02*
X96200000Y-63459236D01*
X96200000Y-63459236D02*
X96300000Y-63459236D01*
X96300000Y-63459236D02*
X96366666Y-63499712D01*
X96366666Y-63499712D02*
X96400000Y-63540189D01*
X96400000Y-63540189D02*
X96433333Y-63621141D01*
X96433333Y-63621141D02*
X96433333Y-63823522D01*
X96433333Y-63823522D02*
X96400000Y-63904474D01*
X96400000Y-63904474D02*
X96366666Y-63944951D01*
X96366666Y-63944951D02*
X96300000Y-63985427D01*
X96300000Y-63985427D02*
X96100000Y-63985427D01*
X96100000Y-63985427D02*
X96033333Y-63944951D01*
X96033333Y-63944951D02*
X96000000Y-63904474D01*
X98305427Y-60250000D02*
X97900665Y-60483333D01*
X98305427Y-60650000D02*
X97455427Y-60650000D01*
X97455427Y-60650000D02*
X97455427Y-60383333D01*
X97455427Y-60383333D02*
X97495903Y-60316667D01*
X97495903Y-60316667D02*
X97536379Y-60283333D01*
X97536379Y-60283333D02*
X97617331Y-60250000D01*
X97617331Y-60250000D02*
X97738760Y-60250000D01*
X97738760Y-60250000D02*
X97819712Y-60283333D01*
X97819712Y-60283333D02*
X97860189Y-60316667D01*
X97860189Y-60316667D02*
X97900665Y-60383333D01*
X97900665Y-60383333D02*
X97900665Y-60650000D01*
X97536379Y-59983333D02*
X97495903Y-59950000D01*
X97495903Y-59950000D02*
X97455427Y-59883333D01*
X97455427Y-59883333D02*
X97455427Y-59716667D01*
X97455427Y-59716667D02*
X97495903Y-59650000D01*
X97495903Y-59650000D02*
X97536379Y-59616667D01*
X97536379Y-59616667D02*
X97617331Y-59583333D01*
X97617331Y-59583333D02*
X97698284Y-59583333D01*
X97698284Y-59583333D02*
X97819712Y-59616667D01*
X97819712Y-59616667D02*
X98305427Y-60016667D01*
X98305427Y-60016667D02*
X98305427Y-59583333D01*
X97738760Y-58983333D02*
X98305427Y-58983333D01*
X97414951Y-59150000D02*
X98022093Y-59316666D01*
X98022093Y-59316666D02*
X98022093Y-58883333D01*
X152346666Y-79655427D02*
X152346666Y-80262570D01*
X152346666Y-80262570D02*
X152313333Y-80383998D01*
X152313333Y-80383998D02*
X152246666Y-80464951D01*
X152246666Y-80464951D02*
X152146666Y-80505427D01*
X152146666Y-80505427D02*
X152080000Y-80505427D01*
X152779999Y-80019712D02*
X152713333Y-79979236D01*
X152713333Y-79979236D02*
X152679999Y-79938760D01*
X152679999Y-79938760D02*
X152646666Y-79857808D01*
X152646666Y-79857808D02*
X152646666Y-79817331D01*
X152646666Y-79817331D02*
X152679999Y-79736379D01*
X152679999Y-79736379D02*
X152713333Y-79695903D01*
X152713333Y-79695903D02*
X152779999Y-79655427D01*
X152779999Y-79655427D02*
X152913333Y-79655427D01*
X152913333Y-79655427D02*
X152979999Y-79695903D01*
X152979999Y-79695903D02*
X153013333Y-79736379D01*
X153013333Y-79736379D02*
X153046666Y-79817331D01*
X153046666Y-79817331D02*
X153046666Y-79857808D01*
X153046666Y-79857808D02*
X153013333Y-79938760D01*
X153013333Y-79938760D02*
X152979999Y-79979236D01*
X152979999Y-79979236D02*
X152913333Y-80019712D01*
X152913333Y-80019712D02*
X152779999Y-80019712D01*
X152779999Y-80019712D02*
X152713333Y-80060189D01*
X152713333Y-80060189D02*
X152679999Y-80100665D01*
X152679999Y-80100665D02*
X152646666Y-80181617D01*
X152646666Y-80181617D02*
X152646666Y-80343522D01*
X152646666Y-80343522D02*
X152679999Y-80424474D01*
X152679999Y-80424474D02*
X152713333Y-80464951D01*
X152713333Y-80464951D02*
X152779999Y-80505427D01*
X152779999Y-80505427D02*
X152913333Y-80505427D01*
X152913333Y-80505427D02*
X152979999Y-80464951D01*
X152979999Y-80464951D02*
X153013333Y-80424474D01*
X153013333Y-80424474D02*
X153046666Y-80343522D01*
X153046666Y-80343522D02*
X153046666Y-80181617D01*
X153046666Y-80181617D02*
X153013333Y-80100665D01*
X153013333Y-80100665D02*
X152979999Y-80060189D01*
X152979999Y-80060189D02*
X152913333Y-80019712D01*
D12*
X151450000Y-59890000D02*
G75*
G03*
X151450000Y-59890000I-50000J0D01*
G01*
X111750000Y-70200000D02*
G75*
G03*
X111750000Y-70200000I-650000J0D01*
G01*
D13*
X153753641Y-55180000D02*
X153446359Y-55180000D01*
X153753641Y-54420000D02*
X153446359Y-54420000D01*
X117380000Y-55936359D02*
X117380000Y-56243641D01*
X116620000Y-55936359D02*
X116620000Y-56243641D01*
X111273641Y-72270000D02*
X110966359Y-72270000D01*
X111273641Y-71510000D02*
X110966359Y-71510000D01*
X73909420Y-78090000D02*
X74190580Y-78090000D01*
X73909420Y-79110000D02*
X74190580Y-79110000D01*
X138140000Y-50572836D02*
X138140000Y-50357164D01*
X138860000Y-50572836D02*
X138860000Y-50357164D01*
X106830000Y-85896359D02*
X106830000Y-86203641D01*
X106070000Y-85896359D02*
X106070000Y-86203641D01*
X153420000Y-56753641D02*
X153420000Y-56446359D01*
X154180000Y-56753641D02*
X154180000Y-56446359D01*
X68890000Y-64320000D02*
X68890000Y-64520000D01*
X68890000Y-66220000D02*
X68890000Y-68620000D01*
X68890000Y-70520000D02*
X68890000Y-70320000D01*
X68890000Y-70520000D02*
X75590000Y-70520000D01*
X75590000Y-64320000D02*
X68890000Y-64320000D01*
X75590000Y-64320000D02*
X75590000Y-64520000D01*
X75590000Y-66220000D02*
X75590000Y-68620000D01*
X75590000Y-70520000D02*
X75590000Y-70320000D01*
X88446359Y-59620000D02*
X88753641Y-59620000D01*
X88446359Y-60380000D02*
X88753641Y-60380000D01*
X110380000Y-58046359D02*
X110380000Y-58353641D01*
X109620000Y-58046359D02*
X109620000Y-58353641D01*
D12*
X67200000Y-49000000D02*
G75*
G03*
X67200000Y-49000000I-650000J0D01*
G01*
X54500000Y-63300000D02*
G75*
G03*
X54500000Y-63300000I-650000J0D01*
G01*
D13*
X119370000Y-62800000D02*
X121045000Y-62800000D01*
X119370000Y-62800000D02*
X118720000Y-62800000D01*
X119370000Y-59680000D02*
X120020000Y-59680000D01*
X119370000Y-59680000D02*
X118720000Y-59680000D01*
D12*
X62250000Y-51875000D02*
G75*
G03*
X62250000Y-51875000I-650000J0D01*
G01*
D13*
X67359420Y-77740000D02*
X67640580Y-77740000D01*
X67359420Y-78760000D02*
X67640580Y-78760000D01*
X96269000Y-52237836D02*
X96269000Y-52022164D01*
X96989000Y-52237836D02*
X96989000Y-52022164D01*
X56153641Y-65180000D02*
X55846359Y-65180000D01*
X56153641Y-64420000D02*
X55846359Y-64420000D01*
X151800000Y-49350000D02*
X152400000Y-49350000D01*
X153100000Y-50000000D02*
X153100000Y-52800000D01*
X151100000Y-52800000D02*
X151100000Y-50000000D01*
X152400000Y-53450000D02*
X151800000Y-53450000D01*
X153100000Y-50050000D02*
G75*
G03*
X152400000Y-49350000I-699999J1D01*
G01*
X151800000Y-49350000D02*
G75*
G03*
X151100000Y-50050000I-1J-699999D01*
G01*
X152400000Y-53450000D02*
G75*
G03*
X153100000Y-52750000I0J700000D01*
G01*
X151100000Y-52750000D02*
G75*
G03*
X151800000Y-53450000I700000J0D01*
G01*
X146246359Y-56220000D02*
X146553641Y-56220000D01*
X146246359Y-56980000D02*
X146553641Y-56980000D01*
X148370000Y-64350000D02*
X148370000Y-64550000D01*
X148370000Y-66250000D02*
X148370000Y-68650000D01*
X148370000Y-70550000D02*
X148370000Y-70350000D01*
X148370000Y-70550000D02*
X155070000Y-70550000D01*
X155070000Y-64350000D02*
X148370000Y-64350000D01*
X155070000Y-64350000D02*
X155070000Y-64550000D01*
X155070000Y-66250000D02*
X155070000Y-68650000D01*
X155070000Y-70550000D02*
X155070000Y-70350000D01*
X64646359Y-59620000D02*
X64953641Y-59620000D01*
X64646359Y-60380000D02*
X64953641Y-60380000D01*
X99420000Y-61606359D02*
X99420000Y-61913641D01*
X98660000Y-61606359D02*
X98660000Y-61913641D01*
X98569000Y-52237836D02*
X98569000Y-52022164D01*
X99289000Y-52237836D02*
X99289000Y-52022164D01*
D12*
X71850000Y-72600000D02*
G75*
G03*
X71850000Y-72600000I-650000J0D01*
G01*
D13*
X64743641Y-74130000D02*
X64436359Y-74130000D01*
X64743641Y-73370000D02*
X64436359Y-73370000D01*
X123420000Y-61576359D02*
X123420000Y-61883641D01*
X122660000Y-61576359D02*
X122660000Y-61883641D01*
X147500000Y-49350000D02*
X148100000Y-49350000D01*
X148800000Y-50000000D02*
X148800000Y-52800000D01*
X146800000Y-52800000D02*
X146800000Y-50000000D01*
X148100000Y-53450000D02*
X147500000Y-53450000D01*
X148800000Y-50050000D02*
G75*
G03*
X148100000Y-49350000I-699999J1D01*
G01*
X147500000Y-49350000D02*
G75*
G03*
X146800000Y-50050000I-1J-699999D01*
G01*
X148100000Y-53450000D02*
G75*
G03*
X148800000Y-52750000I0J700000D01*
G01*
X146800000Y-52750000D02*
G75*
G03*
X147500000Y-53450000I700000J0D01*
G01*
X109530000Y-78170000D02*
X109530000Y-76495000D01*
X109530000Y-78170000D02*
X109530000Y-78820000D01*
X106410000Y-78170000D02*
X106410000Y-77520000D01*
X106410000Y-78170000D02*
X106410000Y-78820000D01*
X93750000Y-53870000D02*
X93750000Y-57070000D01*
X97650000Y-53870000D02*
X93750000Y-53870000D01*
X97650000Y-57070000D02*
X93750000Y-57070000D01*
X95370000Y-62830000D02*
X97045000Y-62830000D01*
X95370000Y-62830000D02*
X94720000Y-62830000D01*
X95370000Y-59710000D02*
X96020000Y-59710000D01*
X95370000Y-59710000D02*
X94720000Y-59710000D01*
D12*
X54400000Y-75700000D02*
G75*
G03*
X54400000Y-75700000I-650000J0D01*
G01*
D13*
X127953641Y-60380000D02*
X127646359Y-60380000D01*
X127953641Y-59620000D02*
X127646359Y-59620000D01*
X144853641Y-55280000D02*
X144546359Y-55280000D01*
X144853641Y-54520000D02*
X144546359Y-54520000D01*
X76620000Y-56020000D02*
X76620000Y-59220000D01*
X80520000Y-56020000D02*
X76620000Y-56020000D01*
X80520000Y-59220000D02*
X76620000Y-59220000D01*
X69750000Y-53840000D02*
X69750000Y-57040000D01*
X73650000Y-53840000D02*
X69750000Y-53840000D01*
X73650000Y-57040000D02*
X69750000Y-57040000D01*
X135390000Y-71850000D02*
X135390000Y-72050000D01*
X135390000Y-73750000D02*
X135390000Y-76150000D01*
X135390000Y-78050000D02*
X135390000Y-77850000D01*
X135390000Y-78050000D02*
X142090000Y-78050000D01*
X142090000Y-71850000D02*
X135390000Y-71850000D01*
X142090000Y-71850000D02*
X142090000Y-72050000D01*
X142090000Y-73750000D02*
X142090000Y-76150000D01*
X142090000Y-78050000D02*
X142090000Y-77850000D01*
X71370000Y-62800000D02*
X73045000Y-62800000D01*
X71370000Y-62800000D02*
X70720000Y-62800000D01*
X71370000Y-59680000D02*
X72020000Y-59680000D01*
X71370000Y-59680000D02*
X70720000Y-59680000D01*
X128750000Y-59250000D02*
X128750000Y-56050000D01*
X124850000Y-59250000D02*
X128750000Y-59250000D01*
X124850000Y-56050000D02*
X128750000Y-56050000D01*
X86800000Y-56050000D02*
X86800000Y-59250000D01*
X90700000Y-56050000D02*
X86800000Y-56050000D01*
X90700000Y-59250000D02*
X86800000Y-59250000D01*
D12*
X149660000Y-57300000D02*
G75*
G03*
X149660000Y-57300000I-50000J0D01*
G01*
D13*
X64743641Y-75280000D02*
X64436359Y-75280000D01*
X64743641Y-74520000D02*
X64436359Y-74520000D01*
X117750000Y-53840000D02*
X117750000Y-57040000D01*
X121650000Y-53840000D02*
X117750000Y-53840000D01*
X121650000Y-57040000D02*
X117750000Y-57040000D01*
X140130000Y-50311359D02*
X140130000Y-50618641D01*
X139370000Y-50311359D02*
X139370000Y-50618641D01*
X142480000Y-67235000D02*
X134430000Y-67235000D01*
X134430000Y-67235000D02*
X134430000Y-52835000D01*
X134430000Y-52835000D02*
X142480000Y-52835000D01*
X142480000Y-52835000D02*
X142480000Y-67235000D01*
X142130000Y-52210000D02*
G75*
G03*
X142130000Y-52210000I0J0D01*
G01*
X142230000Y-52210000D02*
G75*
G03*
X142230000Y-52210000I-100000J0D01*
G01*
X142336155Y-52210000D02*
G75*
G03*
X142336155Y-52210000I-206155J0D01*
G01*
X142455000Y-52210000D02*
G75*
G03*
X142455000Y-52210000I-325000J0D01*
G01*
X122310000Y-61616359D02*
X122310000Y-61923641D01*
X121550000Y-61616359D02*
X121550000Y-61923641D01*
X100180000Y-57646359D02*
X100180000Y-57953641D01*
X99420000Y-57646359D02*
X99420000Y-57953641D01*
D14*
X149700000Y-59200000D02*
X149700000Y-58800000D01*
X150500000Y-59200000D02*
X150500000Y-58800000D01*
D15*
X149900000Y-60500000D02*
G75*
G03*
X149900000Y-60500000I-100000J0D01*
G01*
D13*
X61910000Y-75197936D02*
X61910000Y-76402064D01*
X60090000Y-75197936D02*
X60090000Y-76402064D01*
X75420000Y-61576359D02*
X75420000Y-61883641D01*
X74660000Y-61576359D02*
X74660000Y-61883641D01*
X73342164Y-75740000D02*
X73557836Y-75740000D01*
X73342164Y-76460000D02*
X73557836Y-76460000D01*
X94553641Y-53380000D02*
X94246359Y-53380000D01*
X94553641Y-52620000D02*
X94246359Y-52620000D01*
X73342164Y-76890000D02*
X73557836Y-76890000D01*
X73342164Y-77610000D02*
X73557836Y-77610000D01*
X110430000Y-85896359D02*
X110430000Y-86203641D01*
X109670000Y-85896359D02*
X109670000Y-86203641D01*
D12*
X54400000Y-72500000D02*
G75*
G03*
X54400000Y-72500000I-650000J0D01*
G01*
D13*
X116880000Y-64350000D02*
X116880000Y-64550000D01*
X116880000Y-66250000D02*
X116880000Y-68650000D01*
X116880000Y-70550000D02*
X116880000Y-70350000D01*
X116880000Y-70550000D02*
X123580000Y-70550000D01*
X123580000Y-64350000D02*
X116880000Y-64350000D01*
X123580000Y-64350000D02*
X123580000Y-64550000D01*
X123580000Y-66250000D02*
X123580000Y-68650000D01*
X123580000Y-70550000D02*
X123580000Y-70350000D01*
X97469000Y-52237836D02*
X97469000Y-52022164D01*
X98189000Y-52237836D02*
X98189000Y-52022164D01*
X74310000Y-61616359D02*
X74310000Y-61923641D01*
X73550000Y-61616359D02*
X73550000Y-61923641D01*
X108550000Y-75233641D02*
X108550000Y-74926359D01*
X109310000Y-75233641D02*
X109310000Y-74926359D01*
X72536359Y-52620000D02*
X72843641Y-52620000D01*
X72536359Y-53380000D02*
X72843641Y-53380000D01*
X64743641Y-76380000D02*
X64436359Y-76380000D01*
X64743641Y-75620000D02*
X64436359Y-75620000D01*
X62800000Y-56020000D02*
X62800000Y-59220000D01*
X66700000Y-56020000D02*
X62800000Y-56020000D01*
X66700000Y-59220000D02*
X62800000Y-59220000D01*
X110800000Y-56020000D02*
X110800000Y-59220000D01*
X114700000Y-56020000D02*
X110800000Y-56020000D01*
X114700000Y-59220000D02*
X110800000Y-59220000D01*
X106640000Y-75233641D02*
X106640000Y-74926359D01*
X107400000Y-75233641D02*
X107400000Y-74926359D01*
D12*
X54550000Y-60575000D02*
G75*
G03*
X54550000Y-60575000I-650000J0D01*
G01*
X111850000Y-73750000D02*
G75*
G03*
X111850000Y-73750000I-650000J0D01*
G01*
D13*
X146246359Y-57920000D02*
X146553641Y-57920000D01*
X146246359Y-58680000D02*
X146553641Y-58680000D01*
X100620000Y-56050000D02*
X100620000Y-59250000D01*
X104520000Y-56050000D02*
X100620000Y-56050000D01*
X104520000Y-59250000D02*
X100620000Y-59250000D01*
X131750000Y-76900000D02*
X131750000Y-77500000D01*
X131100000Y-78200000D02*
X128300000Y-78200000D01*
X128300000Y-76200000D02*
X131100000Y-76200000D01*
X127650000Y-77500000D02*
X127650000Y-76900000D01*
X131050000Y-78200000D02*
G75*
G03*
X131750000Y-77500000I1J699999D01*
G01*
X131750000Y-76900000D02*
G75*
G03*
X131050000Y-76200000I-699999J1D01*
G01*
X127650000Y-77500000D02*
G75*
G03*
X128350000Y-78200000I700000J0D01*
G01*
X128350000Y-76200000D02*
G75*
G03*
X127650000Y-76900000I0J-700000D01*
G01*
X76380000Y-57046359D02*
X76380000Y-57353641D01*
X75620000Y-57046359D02*
X75620000Y-57353641D01*
D12*
X67600000Y-77200000D02*
X67600000Y-76900000D01*
X67900000Y-77200000D02*
X67600000Y-77200000D01*
X70500000Y-77200000D02*
X70800000Y-76900000D01*
X70800000Y-76900000D02*
X72000000Y-76900000D01*
X67600000Y-74300000D02*
X67600000Y-74000000D01*
X67600000Y-74000000D02*
X67900000Y-74000000D01*
X70500000Y-74000000D02*
X70800000Y-74000000D01*
X70800000Y-74000000D02*
X70800000Y-74300000D01*
D13*
X132975000Y-48150000D02*
X132975000Y-48400000D01*
X132975000Y-48150000D02*
X137275000Y-48150000D01*
X132975000Y-51700000D02*
X132975000Y-51450000D01*
X132975000Y-51700000D02*
X137275000Y-51700000D01*
X137275000Y-48150000D02*
X137275000Y-48400000D01*
X137275000Y-51700000D02*
X137275000Y-51500000D01*
X136175000Y-49975000D02*
G75*
G03*
X136175000Y-49975000I-1075000J0D01*
G01*
X92970000Y-64340000D02*
X92970000Y-64540000D01*
X92970000Y-66240000D02*
X92970000Y-68640000D01*
X92970000Y-70540000D02*
X92970000Y-70340000D01*
X92970000Y-70540000D02*
X99670000Y-70540000D01*
X99670000Y-64340000D02*
X92970000Y-64340000D01*
X99670000Y-64340000D02*
X99670000Y-64540000D01*
X99670000Y-66240000D02*
X99670000Y-68640000D01*
X99670000Y-70540000D02*
X99670000Y-70340000D01*
X98310000Y-61646359D02*
X98310000Y-61953641D01*
X97550000Y-61646359D02*
X97550000Y-61953641D01*
X154740000Y-79080000D02*
X147920000Y-79080000D01*
X147920000Y-79080000D02*
X147920000Y-75420000D01*
X147920000Y-75420000D02*
X154740000Y-75420000D01*
X154740000Y-75420000D02*
X154740000Y-79080000D01*
D15*
X152670000Y-75140000D02*
G75*
G03*
X152670000Y-75140000I-100000J0D01*
G01*
M02*
