M48
; DRILL file {KiCad 7.0.5} date Sun Dec 24 10:56:36 2023
; FORMAT={-:-/ absolute / inch / decimal}
; #@! TF.CreationDate,2023-12-24T10:56:36+03:00
; #@! TF.GenerationSoftware,Kicad,Pcbnew,7.0.5
; #@! TF.FileFunction,Plated,1,4,PTH
FMAT,2
INCH
; #@! TA.AperFunction,Plated,PTH,ViaDrill
T1C0.0118
; #@! TA.AperFunction,Plated,PTH,ViaDrill
T2C0.0157
; #@! TA.AperFunction,Plated,PTH,ComponentDrill
T3C0.0236
; #@! TA.AperFunction,Plated,PTH,ComponentDrill
T4C0.0394
%
G90
G05
T1
X2.6929Y-2.4173
X2.748Y-2.3071
X3.0Y-2.2992
X3.1181Y-2.1482
X3.171Y-2.9505
X3.1732Y-2.9843
X3.2859Y-3.3622
X3.315Y-3.4882
X3.3621Y-3.0395
X3.5354Y-2.3622
X3.6614Y-2.2362
X3.7165Y-2.3701
X3.8555Y-2.3807
X4.0319Y-2.978
X4.1102Y-2.5906
X4.1102Y-2.6772
X4.1102Y-2.7323
X4.1374Y-2.9717
X4.2079Y-2.8764
X4.2094Y-2.0047
X4.2114Y-2.787
X4.2323Y-2.1323
X4.2362Y-2.6457
X4.252Y-2.0008
X4.2531Y-2.9469
X4.2835Y-2.8031
X4.2913Y-2.8819
X4.4331Y-2.8189
X4.4409Y-3.1024
X4.4782Y-3.1049
X4.5066Y-3.0913
X4.5551Y-3.122
X4.586Y-3.1159
X4.6225Y-3.1183
X4.6575Y-3.1299
X4.984Y-2.5365
X4.9921Y-2.5669
X4.9961Y-2.622
X4.9961Y-2.6939
X5.2831Y-2.3225
X5.313Y-2.5354
X5.3332Y-2.5065
X5.4016Y-3.1343
X5.4409Y-3.4361
X5.444Y-2.7097
X5.444Y-2.7432
X5.4484Y-2.539
X5.4724Y-2.0663
X5.6283Y-3.1717
X5.8214Y-2.3518
X5.8445Y-2.1781
X5.8752Y-2.351
X5.8829Y-2.4043
X5.9617Y-2.1575
X5.9624Y-2.3962
X6.0472Y-2.316
X6.0602Y-2.848
X6.0866Y-3.3858
X6.122Y-2.5039
X6.126Y-2.373
X6.1506Y-2.3199
X6.1654Y-2.2677
X6.1811Y-2.379
X6.2362Y-2.1969
X6.2638Y-2.252
X6.2721Y-2.3538
T2
X2.0157Y-2.5591
X2.0236Y-2.7244
X2.0551Y-2.4488
X2.0551Y-2.8504
X2.0866Y-2.7756
X2.126Y-2.2677
X2.1732Y-2.6969
X2.1811Y-2.1811
X2.1811Y-2.4882
X2.1831Y-3.0689
X2.2205Y-2.7638
X2.2205Y-2.8268
X2.2677Y-3.1181
X2.2756Y-2.8268
X2.2835Y-3.2598
X2.3228Y-2.4409
X2.3228Y-2.4961
X2.3307Y-2.8268
X2.3543Y-2.0157
X2.374Y-2.811
X2.375Y-3.3041
X2.4016Y-2.3228
X2.4016Y-2.4409
X2.4252Y-2.1654
X2.4449Y-2.5906
X2.4646Y-3.3937
X2.4803Y-2.0079
X2.4882Y-2.4409
X2.511Y-3.1953
X2.5138Y-3.3031
X2.5354Y-3.0236
X2.5433Y-1.937
X2.5709Y-2.0354
X2.5748Y-2.1772
X2.5827Y-3.4488
X2.5992Y-3.1413
X2.6132Y-1.9774
X2.6142Y-3.2362
X2.622Y-3.3071
X2.622Y-3.3622
X2.6299Y-2.3543
X2.6339Y-2.5039
X2.6457Y-2.4173
X2.6567Y-2.7988
X2.6722Y-3.4567
X2.6752Y-2.0148
X2.7008Y-2.5039
X2.7087Y-2.7953
X2.7087Y-3.1417
X2.7087Y-3.2362
X2.7087Y-3.3071
X2.7087Y-3.3622
X2.7185Y-2.9024
X2.7213Y-2.9469
X2.723Y-2.3927
X2.7268Y-3.0327
X2.7276Y-2.9921
X2.7287Y-3.0748
X2.7303Y-2.1684
X2.7323Y-1.9055
X2.7362Y-1.8504
X2.7598Y-2.0118
X2.7638Y-2.0906
X2.7717Y-2.3365
X2.7874Y-1.8268
X2.7941Y-2.4464
X2.7992Y-2.7008
X2.8002Y-2.0659
X2.8327Y-3.3012
X2.8346Y-3.0709
X2.8346Y-3.1102
X2.8504Y-3.1496
X2.8531Y-3.2213
X2.8658Y-2.9133
X2.874Y-2.7008
X2.8799Y-3.3012
X2.8976Y-3.1496
X2.9012Y-3.2126
X2.9055Y-1.8268
X2.9193Y-3.3012
X2.9528Y-1.815
X2.9528Y-1.8591
X2.9528Y-2.0472
X2.9528Y-3.0394
X2.9545Y-2.2543
X2.9547Y-1.9063
X2.9547Y-1.9551
X2.9567Y-2.0047
X2.9587Y-3.2043
X2.9606Y-2.9921
X2.9665Y-3.3012
X2.9685Y-3.3622
X2.9705Y-3.4291
X2.9921Y-1.815
X2.9921Y-1.8591
X2.9921Y-2.0472
X2.9921Y-2.4094
X2.9921Y-2.7953
X2.9941Y-1.9063
X2.9941Y-1.9551
X2.9961Y-2.0047
X3.0079Y-2.9189
X3.0315Y-1.815
X3.0315Y-1.8591
X3.0315Y-2.0472
X3.0335Y-1.9063
X3.0335Y-1.9551
X3.0354Y-2.0047
X3.0709Y-1.815
X3.0709Y-1.8591
X3.0709Y-2.0472
X3.0709Y-3.0787
X3.0709Y-3.2362
X3.0728Y-1.9063
X3.0728Y-1.9551
X3.0737Y-2.4499
X3.0748Y-2.0047
X3.0748Y-3.2992
X3.1102Y-1.815
X3.1102Y-1.8591
X3.1102Y-2.0472
X3.1102Y-2.0866
X3.1122Y-1.9063
X3.1122Y-1.9551
X3.1142Y-2.0047
X3.126Y-2.4675
X3.1417Y-2.5748
X3.1417Y-2.6693
X3.152Y-1.815
X3.1555Y-1.861
X3.1575Y-1.9083
X3.1575Y-1.9571
X3.1575Y-3.1811
X3.1594Y-2.0067
X3.1594Y-2.0492
X3.1594Y-2.0886
X3.161Y-2.128
X3.1666Y-3.3276
X3.1732Y-2.5039
X3.1932Y-1.8129
X3.1949Y-1.8614
X3.1969Y-1.9087
X3.1969Y-1.9575
X3.1969Y-2.1654
X3.1988Y-2.0071
X3.1988Y-2.0496
X3.1988Y-2.089
X3.2004Y-2.1283
X3.2205Y-2.7795
X3.2205Y-2.8594
X3.2283Y-2.4646
X3.2283Y-2.5906
X3.2283Y-2.6772
X3.2386Y-1.815
X3.2386Y-1.8591
X3.2406Y-1.9063
X3.2406Y-1.9551
X3.2425Y-2.0047
X3.2425Y-2.0472
X3.2425Y-2.0866
X3.2441Y-2.126
X3.2441Y-2.1654
X3.2441Y-2.2028
X3.2441Y-2.2421
X3.2492Y-2.3071
X3.2858Y-1.815
X3.2894Y-1.861
X3.2913Y-1.9083
X3.2913Y-1.9571
X3.2933Y-2.0067
X3.2933Y-2.0492
X3.2933Y-2.0886
X3.2949Y-2.128
X3.2949Y-2.1673
X3.2949Y-2.2047
X3.2949Y-2.2441
X3.2949Y-2.2835
X3.2949Y-2.3224
X3.2949Y-2.3618
X3.3059Y-2.463
X3.3071Y-2.9134
X3.3271Y-1.8129
X3.3287Y-1.8614
X3.3307Y-1.9087
X3.3307Y-1.9575
X3.3311Y-2.7366
X3.3327Y-2.0071
X3.3327Y-2.0496
X3.3327Y-2.089
X3.3343Y-2.1283
X3.3343Y-2.1677
X3.3343Y-2.2051
X3.3343Y-2.2445
X3.3343Y-2.2839
X3.3343Y-2.3228
X3.3343Y-2.3622
X3.3386Y-2.6614
X3.3398Y-2.5937
X3.3543Y-2.8583
X3.3724Y-1.815
X3.3724Y-1.8591
X3.3744Y-1.9063
X3.3744Y-1.9551
X3.3764Y-2.0047
X3.3764Y-2.0472
X3.3764Y-2.0866
X3.378Y-2.126
X3.378Y-2.1654
X3.378Y-2.2028
X3.378Y-2.2421
X3.378Y-2.2815
X3.378Y-2.3205
X3.378Y-2.3598
X3.378Y-2.4646
X3.4134Y-2.2008
X3.4197Y-1.815
X3.4232Y-1.861
X3.4252Y-1.9083
X3.4252Y-1.9571
X3.4272Y-2.0067
X3.4272Y-2.0492
X3.4272Y-2.0886
X3.4287Y-2.128
X3.4287Y-2.1673
X3.4409Y-2.6614
X3.4409Y-3.126
X3.4449Y-2.4606
X3.4457Y-2.5957
X3.4457Y-2.7319
X3.461Y-1.8129
X3.4626Y-1.8614
X3.4646Y-1.9087
X3.4646Y-1.9575
X3.4646Y-2.8583
X3.4665Y-2.0071
X3.4665Y-2.0496
X3.4665Y-2.089
X3.4681Y-2.1283
X3.4681Y-2.1677
X3.4961Y-3.315
X3.5079Y-1.815
X3.5079Y-1.8591
X3.5098Y-1.9063
X3.5098Y-1.9551
X3.5118Y-2.0047
X3.5118Y-2.0472
X3.5118Y-2.0866
X3.5134Y-2.126
X3.5134Y-2.1654
X3.5197Y-3.1654
X3.5354Y-2.4646
X3.5354Y-2.6614
X3.5409Y-2.5823
X3.5551Y-1.815
X3.5587Y-1.861
X3.5606Y-1.9083
X3.5606Y-1.9571
X3.5626Y-2.0067
X3.5626Y-2.0492
X3.5626Y-2.0886
X3.5642Y-2.128
X3.5642Y-2.1673
X3.5906Y-2.9764
X3.5964Y-1.8129
X3.598Y-1.8614
X3.5984Y-2.8661
X3.6Y-1.9087
X3.6Y-1.9575
X3.602Y-2.0071
X3.602Y-2.0496
X3.602Y-2.089
X3.6035Y-2.1283
X3.6035Y-2.1677
X3.6142Y-2.6614
X3.622Y-2.4606
X3.6339Y-3.4685
X3.6378Y-1.813
X3.6398Y-1.8504
X3.6417Y-1.8898
X3.6437Y-1.9846
X3.6438Y-1.931
X3.6457Y-2.0472
X3.6846Y-3.422
X3.685Y-2.0236
X3.687Y-1.937
X3.687Y-1.9783
X3.6906Y-3.163
X3.6929Y-3.252
X3.7087Y-2.4646
X3.7205Y-2.8543
X3.7283Y-1.935
X3.7283Y-1.9764
X3.7559Y-3.1654
X3.7717Y-1.935
X3.7717Y-1.9764
X3.7795Y-2.6772
X3.7913Y-2.5661
X3.811Y-3.2992
X3.8209Y-1.935
X3.8209Y-1.9764
X3.8504Y-2.1201
X3.861Y-2.9764
X3.8661Y-2.4961
X3.874Y-2.8583
X3.876Y-1.935
X3.876Y-1.9764
X3.8843Y-2.35
X3.9272Y-1.935
X3.9272Y-1.9764
X3.9528Y-2.1339
X3.9713Y-3.4626
X3.9783Y-1.8898
X3.9783Y-1.935
X3.9783Y-1.9764
X3.9803Y-1.7343
X3.9803Y-1.7736
X3.9803Y-1.811
X3.9803Y-1.8504
X4.0157Y-2.3701
X4.0157Y-2.4252
X4.0157Y-2.4961
X4.0276Y-1.8898
X4.0276Y-1.935
X4.0276Y-1.9764
X4.0295Y-1.7343
X4.0295Y-1.7736
X4.0295Y-1.811
X4.0295Y-1.8504
X4.0295Y-2.7819
X4.0315Y-2.6614
X4.0355Y-3.4577
X4.0362Y-2.5839
X4.0591Y-2.1181
X4.0768Y-1.8898
X4.0768Y-1.935
X4.0768Y-1.9764
X4.0787Y-1.7343
X4.0787Y-1.7736
X4.0787Y-1.811
X4.0787Y-1.8504
X4.0787Y-2.3701
X4.0787Y-2.4331
X4.0787Y-2.4961
X4.0866Y-2.7795
X4.1024Y-2.8583
X4.1081Y-2.0787
X4.1102Y-2.1564
X4.1319Y-1.8898
X4.1319Y-1.935
X4.1339Y-1.7343
X4.1339Y-1.7736
X4.1339Y-1.811
X4.1339Y-1.8504
X4.1339Y-1.9764
X4.137Y-3.4744
X4.1654Y-3.1909
X4.1811Y-1.9764
X4.1831Y-1.8898
X4.1831Y-1.935
X4.185Y-1.7343
X4.185Y-1.7736
X4.185Y-1.811
X4.185Y-1.8504
X4.1909Y-3.3189
X4.2047Y-2.2362
X4.2175Y-2.439
X4.2205Y-3.1855
X4.2303Y-1.8898
X4.2303Y-1.935
X4.2311Y-3.4122
X4.2323Y-1.7343
X4.2323Y-1.7736
X4.2323Y-1.811
X4.2323Y-1.8504
X4.2402Y-2.2677
X4.2598Y-2.2126
X4.2677Y-2.3622
X4.2677Y-2.4331
X4.2677Y-2.4961
X4.2756Y-2.5906
X4.2795Y-1.8898
X4.2795Y-1.935
X4.2797Y-3.1831
X4.2815Y-1.7343
X4.2815Y-1.7736
X4.2815Y-1.811
X4.2815Y-1.8504
X4.2874Y-2.7638
X4.2949Y-3.4138
X4.3287Y-1.8898
X4.3287Y-1.935
X4.3287Y-1.9764
X4.3307Y-1.7343
X4.3307Y-1.7736
X4.3307Y-1.811
X4.3307Y-1.8504
X4.3307Y-2.3622
X4.3307Y-2.4331
X4.3307Y-2.4961
X4.3311Y-2.6142
X4.3327Y-3.3327
X4.3543Y-3.1772
X4.378Y-1.8898
X4.378Y-1.935
X4.378Y-1.9764
X4.3799Y-1.7343
X4.3799Y-1.7736
X4.3799Y-1.811
X4.3799Y-1.8504
X4.411Y-2.6063
X4.4232Y-3.1772
X4.4331Y-1.8898
X4.4331Y-1.935
X4.4331Y-2.0984
X4.435Y-1.7343
X4.435Y-1.7736
X4.435Y-1.811
X4.435Y-1.8504
X4.435Y-1.9764
X4.435Y-2.0157
X4.435Y-2.0571
X4.4398Y-2.7228
X4.4438Y-2.8583
X4.4843Y-1.8898
X4.4843Y-1.935
X4.4843Y-2.0984
X4.4862Y-1.7343
X4.4862Y-1.7736
X4.4862Y-1.811
X4.4862Y-1.8504
X4.4862Y-1.9764
X4.4862Y-2.0157
X4.4862Y-2.0571
X4.5315Y-1.8898
X4.5315Y-1.935
X4.5335Y-1.7343
X4.5335Y-1.7736
X4.5335Y-1.811
X4.5335Y-1.8504
X4.5335Y-1.9764
X4.5335Y-2.0157
X4.5335Y-2.0571
X4.5551Y-3.4262
X4.5846Y-1.8898
X4.5846Y-1.935
X4.5866Y-1.7343
X4.5866Y-1.7736
X4.5866Y-1.811
X4.5866Y-1.8504
X4.5866Y-1.9764
X4.5866Y-2.0157
X4.5866Y-2.0571
X4.5876Y-3.2849
X4.5984Y-2.8031
X4.5984Y-2.874
X4.6065Y-3.4151
X4.6299Y-1.9764
X4.6339Y-3.3868
X4.6358Y-1.8898
X4.6358Y-1.935
X4.6378Y-1.7343
X4.6378Y-1.7736
X4.6378Y-1.811
X4.6378Y-1.8504
X4.6378Y-2.0157
X4.6378Y-2.0571
X4.6555Y-2.3327
X4.6795Y-1.9776
X4.6811Y-1.9331
X4.6815Y-2.015
X4.6831Y-1.8839
X4.685Y-1.7343
X4.685Y-1.7736
X4.685Y-1.811
X4.6917Y-2.802
X4.6921Y-2.9913
X4.6937Y-2.8752
X4.6961Y-3.2035
X4.7008Y-3.1496
X4.7012Y-2.0571
X4.7165Y-1.8583
X4.7205Y-1.8996
X4.7205Y-1.9449
X4.7205Y-1.9843
X4.7252Y-2.0252
X4.7441Y-2.3228
X4.7441Y-2.5787
X4.748Y-2.0591
X4.7638Y-2.8031
X4.7638Y-2.874
X4.7824Y-2.0864
X4.8012Y-1.8602
X4.8012Y-1.9035
X4.8014Y-2.034
X4.8043Y-1.9835
X4.8134Y-2.9941
X4.8146Y-3.2067
X4.8189Y-3.1496
X4.8264Y-1.8268
X4.8268Y-3.4409
X4.8272Y-2.0956
X4.8283Y-1.7854
X4.8287Y-1.7323
X4.8425Y-1.9843
X4.8425Y-2.874
X4.8433Y-1.9083
X4.8433Y-2.8
X4.8457Y-1.9465
X4.8461Y-2.0406
X4.8484Y-1.8602
X4.8543Y-2.1339
X4.8642Y-1.7303
X4.8642Y-1.7835
X4.8642Y-1.8268
X4.8642Y-2.0984
X4.8661Y-2.0079
X4.8661Y-2.1693
X4.8671Y-3.2677
X4.8681Y-2.386
X4.8819Y-1.8976
X4.8819Y-1.937
X4.8819Y-1.9764
X4.8898Y-1.8583
X4.8933Y-2.0406
X4.8937Y-2.1339
X4.8976Y-3.1732
X4.9055Y-1.8268
X4.9055Y-2.0079
X4.9055Y-2.1693
X4.9055Y-2.8031
X4.9055Y-2.874
X4.9071Y-2.0956
X4.9213Y-1.8976
X4.9213Y-1.937
X4.9213Y-1.9764
X4.9291Y-1.8583
X4.9291Y-2.1339
X4.937Y-2.454
X4.9433Y-2.0406
X4.9433Y-2.0079
X4.9449Y-1.8268
X4.9449Y-2.1693
X4.9512Y-2.0956
X4.9528Y-3.0098
X4.9528Y-3.0787
X4.9567Y-2.6024
X4.9591Y-1.8976
X4.9591Y-1.937
X4.9591Y-1.9764
X4.963Y-2.8016
X4.963Y-2.8752
X4.9667Y-3.2545
X4.9669Y-1.8583
X4.9685Y-2.1339
X4.9827Y-1.8268
X4.9843Y-2.1693
X4.9847Y-2.0079
X4.9898Y-2.0406
X4.9921Y-3.1732
X4.9961Y-3.2283
X4.9965Y-2.0956
X5.0Y-2.9685
X5.0Y-3.0079
X5.0Y-3.0787
X5.0004Y-1.8976
X5.0004Y-1.937
X5.0004Y-1.9764
X5.0079Y-2.1339
X5.0083Y-1.8583
X5.0157Y-2.7559
X5.0197Y-2.815
X5.0197Y-2.874
X5.0236Y-2.0079
X5.0236Y-2.1693
X5.0236Y-3.4488
X5.024Y-1.8268
X5.0394Y-1.8976
X5.0394Y-1.937
X5.0394Y-1.9764
X5.0398Y-2.0956
X5.0433Y-2.1339
X5.0449Y-2.0406
X5.0472Y-1.8583
X5.0472Y-2.9685
X5.0614Y-2.0079
X5.063Y-1.8268
X5.063Y-2.189
X5.0669Y-3.1909
X5.0709Y-2.622
X5.0748Y-2.1535
X5.0772Y-1.8976
X5.0772Y-1.937
X5.0772Y-1.9764
X5.0851Y-1.8583
X5.0872Y-2.097
X5.0984Y-2.3465
X5.1008Y-2.1307
X5.1008Y-2.1799
X5.1008Y-1.8268
X5.1028Y-2.044
X5.1028Y-2.0079
X5.1102Y-2.2205
X5.1124Y-3.1024
X5.113Y-2.2638
X5.113Y-2.3071
X5.1181Y-2.7244
X5.1181Y-2.7717
X5.1181Y-2.8189
X5.1181Y-2.8583
X5.1181Y-2.8976
X5.1185Y-1.8976
X5.1185Y-1.937
X5.1185Y-1.9764
X5.1264Y-1.8583
X5.1368Y-2.3396
X5.1378Y-2.6083
X5.1417Y-2.0079
X5.1417Y-3.4409
X5.1421Y-1.8268
X5.1444Y-2.1321
X5.1469Y-2.176
X5.1484Y-2.2232
X5.1492Y-2.0626
X5.1575Y-1.8976
X5.1575Y-1.937
X5.1575Y-1.9764
X5.1654Y-1.8583
X5.1654Y-3.1909
X5.1722Y-2.3396
X5.1732Y-2.0315
X5.1811Y-1.8268
X5.1817Y-2.0894
X5.1969Y-1.9213
X5.1969Y-1.9685
X5.2047Y-1.8661
X5.2047Y-2.0551
X5.2047Y-2.1319
X5.2047Y-2.1811
X5.2059Y-2.2303
X5.2096Y-2.3396
X5.2189Y-1.8268
X5.2283Y-2.0945
X5.2362Y-3.4567
X5.2371Y-2.4429
X5.2441Y-1.8661
X5.2441Y-1.9685
X5.2441Y-2.1339
X5.2441Y-2.1811
X5.2441Y-2.2283
X5.2441Y-2.2756
X5.2441Y-2.315
X5.2441Y-2.3543
X5.252Y-2.0551
X5.252Y-2.7559
X5.252Y-2.7953
X5.252Y-2.9528
X5.2603Y-1.8268
X5.2658Y-3.1024
X5.2835Y-1.9685
X5.2835Y-2.1811
X5.2835Y-2.2283
X5.2835Y-2.2756
X5.2854Y-2.7191
X5.2992Y-1.9213
X5.2992Y-2.7559
X5.2992Y-2.7953
X5.3071Y-1.8268
X5.3071Y-1.8661
X5.3224Y-1.9685
X5.3248Y-2.2047
X5.3248Y-2.2539
X5.3346Y-3.2244
X5.3382Y-1.9213
X5.346Y-1.8268
X5.346Y-1.8661
X5.3543Y-3.1024
X5.3602Y-1.9685
X5.3701Y-3.189
X5.3839Y-1.8268
X5.3839Y-1.8661
X5.3931Y-2.068
X5.3937Y-2.5276
X5.3937Y-3.4882
X5.4016Y-1.9685
X5.4242Y-3.0581
X5.4252Y-1.8268
X5.4252Y-1.8661
X5.4331Y-2.4311
X5.4331Y-2.874
X5.463Y-2.2436
X5.4724Y-1.8268
X5.4724Y-1.8661
X5.4724Y-1.9094
X5.4823Y-2.3819
X5.4823Y-2.4311
X5.4823Y-2.4902
X5.4969Y-2.9236
X5.497Y-2.8711
X5.5039Y-3.0758
X5.511Y-3.4571
X5.5265Y-2.204
X5.5295Y-1.9291
X5.5313Y-2.2431
X5.5315Y-2.3819
X5.5315Y-2.4311
X5.5315Y-3.2677
X5.5427Y-1.9798
X5.5512Y-2.4902
X5.561Y-2.7362
X5.5709Y-1.8701
X5.5866Y-2.021
X5.5951Y-2.3577
X5.6016Y-2.9472
X5.6102Y-2.4902
X5.6299Y-2.0483
X5.636Y-3.2146
X5.6467Y-2.7215
X5.6572Y-2.2073
X5.6806Y-2.0853
X5.689Y-3.0945
X5.6969Y-2.8711
X5.7047Y-2.7677
X5.7283Y-3.189
X5.7388Y-2.1982
X5.7517Y-2.9368
X5.7608Y-2.7421
X5.7612Y-1.9659
X5.7666Y-2.3976
X5.7805Y-2.8239
X5.7845Y-2.5197
X5.7919Y-2.4278
X5.7998Y-2.1171
X5.8024Y-2.4749
X5.8071Y-1.8701
X5.8268Y-3.4055
X5.8392Y-2.8982
X5.8465Y-3.2677
X5.8661Y-3.1693
X5.8904Y-2.0973
X5.8976Y-1.8661
X5.9026Y-2.4933
X5.9173Y-2.936
X5.9185Y-2.7638
X5.9252Y-1.934
X5.9406Y-2.8239
X5.9484Y-3.274
X5.9558Y-2.7056
X5.9587Y-2.4852
X5.9587Y-2.5266
X5.9931Y-2.9646
X5.998Y-2.6132
X6.0033Y-3.1569
X6.0157Y-2.7756
X6.0188Y-2.1214
X6.0417Y-1.9505
X6.0472Y-3.4016
X6.063Y-3.1761
X6.0659Y-2.1033
X6.0709Y-3.2512
X6.1102Y-1.9528
X6.1102Y-3.0984
X6.1417Y-2.8031
X6.1447Y-2.6742
X6.1447Y-2.8661
X6.1546Y-2.2283
X6.1654Y-2.126
X6.2175Y-2.3819
X6.2756Y-2.1102
X6.2756Y-2.4449
X6.2795Y-2.4882
X6.2924Y-2.9291
X6.2992Y-3.0315
X6.315Y-2.3465
X6.3576Y-2.6217
X6.3701Y-2.2205
X6.3701Y-2.4437
X6.371Y-2.5847
X6.3835Y-3.0555
X6.3937Y-2.8031
X6.4055Y-2.2874
X6.4173Y-2.9331
X6.437Y-2.4016
X6.4646Y-2.4803
X6.4799Y-2.8028
X6.4858Y-2.5374
T4
X2.2579Y-2.9429
X2.2579Y-3.0413
X2.3071Y-2.2224
X2.3071Y-2.3209
T3
G00X4.089Y-3.3087
M15
G01X4.089Y-3.2654
M16
G05
G00X4.089Y-3.4673
M15
G01X4.089Y-3.4358
M16
G05
G00X4.4291Y-3.3087
M15
G01X4.4291Y-3.2654
M16
G05
G00X4.4291Y-3.4673
M15
G01X4.4291Y-3.4358
M16
G05
T0
M30
