G04 #@! TF.GenerationSoftware,KiCad,Pcbnew,7.0.2*
G04 #@! TF.CreationDate,2023-05-24T22:35:41+03:00*
G04 #@! TF.ProjectId,ALERT_RIDER_HARDWARE,414c4552-545f-4524-9944-45525f484152,rev?*
G04 #@! TF.SameCoordinates,Original*
G04 #@! TF.FileFunction,Copper,L3,Inr*
G04 #@! TF.FilePolarity,Positive*
%FSLAX46Y46*%
G04 Gerber Fmt 4.6, Leading zero omitted, Abs format (unit mm)*
G04 Created by KiCad (PCBNEW 7.0.2) date 2023-05-24 22:35:41*
%MOMM*%
%LPD*%
G01*
G04 APERTURE LIST*
G04 Aperture macros list*
%AMRoundRect*
0 Rectangle with rounded corners*
0 $1 Rounding radius*
0 $2 $3 $4 $5 $6 $7 $8 $9 X,Y pos of 4 corners*
0 Add a 4 corners polygon primitive as box body*
4,1,4,$2,$3,$4,$5,$6,$7,$8,$9,$2,$3,0*
0 Add four circle primitives for the rounded corners*
1,1,$1+$1,$2,$3*
1,1,$1+$1,$4,$5*
1,1,$1+$1,$6,$7*
1,1,$1+$1,$8,$9*
0 Add four rect primitives between the rounded corners*
20,1,$1+$1,$2,$3,$4,$5,0*
20,1,$1+$1,$4,$5,$6,$7,0*
20,1,$1+$1,$6,$7,$8,$9,0*
20,1,$1+$1,$8,$9,$2,$3,0*%
G04 Aperture macros list end*
G04 #@! TA.AperFunction,ComponentPad*
%ADD10RoundRect,0.250000X-0.750000X0.600000X-0.750000X-0.600000X0.750000X-0.600000X0.750000X0.600000X0*%
G04 #@! TD*
G04 #@! TA.AperFunction,ComponentPad*
%ADD11O,2.000000X1.700000*%
G04 #@! TD*
G04 #@! TA.AperFunction,ComponentPad*
%ADD12O,1.000000X2.000000*%
G04 #@! TD*
G04 #@! TA.AperFunction,ComponentPad*
%ADD13O,1.050000X2.100000*%
G04 #@! TD*
G04 #@! TA.AperFunction,ComponentPad*
%ADD14RoundRect,0.250000X0.750000X-0.600000X0.750000X0.600000X-0.750000X0.600000X-0.750000X-0.600000X0*%
G04 #@! TD*
G04 #@! TA.AperFunction,ViaPad*
%ADD15C,0.800000*%
G04 #@! TD*
G04 #@! TA.AperFunction,Conductor*
%ADD16C,0.254000*%
G04 #@! TD*
G04 APERTURE END LIST*
D10*
X57350000Y-74750000D03*
D11*
X57350000Y-77250000D03*
D12*
X112500000Y-87670000D03*
D13*
X112500000Y-83490000D03*
D12*
X103860000Y-87670000D03*
D13*
X103860000Y-83490000D03*
D14*
X58600000Y-58950000D03*
D11*
X58600000Y-56450000D03*
D15*
X69120000Y-72490000D03*
X69050000Y-73720000D03*
X69120000Y-74850000D03*
X69310000Y-78100000D03*
X69260000Y-77030000D03*
X69280000Y-76000000D03*
X75314620Y-71727500D03*
X55450000Y-77950000D03*
X136400000Y-81000000D03*
X66020000Y-79790000D03*
X62100000Y-65800000D03*
X117006115Y-86744395D03*
X102500540Y-87825674D03*
X137000000Y-88600000D03*
X107500000Y-46700000D03*
X122589500Y-46400000D03*
X119910000Y-49510000D03*
X113950000Y-46700000D03*
X111200000Y-50200000D03*
X83990000Y-46100000D03*
X148500000Y-83000000D03*
X91348424Y-46048424D03*
X121950000Y-48350000D03*
X160000000Y-77000000D03*
X127870000Y-86990000D03*
X123550000Y-45300000D03*
X156075000Y-71600000D03*
X63850000Y-83900000D03*
X87000000Y-51800000D03*
X119000000Y-48800000D03*
X135500000Y-81900000D03*
X130668750Y-54156431D03*
X130770500Y-56470000D03*
X126740000Y-51830500D03*
X120500000Y-65500000D03*
X128700000Y-81050000D03*
X127230000Y-47560000D03*
X129500000Y-57900000D03*
X112650000Y-52250000D03*
X123000000Y-73000000D03*
X117800000Y-46700000D03*
X121474064Y-52994913D03*
X163000000Y-74500000D03*
X65400000Y-55300000D03*
X125800000Y-78200000D03*
X96000000Y-68000000D03*
X103550000Y-50200000D03*
X156650000Y-57025000D03*
X109950000Y-50200000D03*
X103550000Y-47850000D03*
X73690000Y-81600000D03*
X121950000Y-47250000D03*
X139625000Y-72925000D03*
X123020000Y-71120000D03*
X100870000Y-87950000D03*
X110000000Y-60000000D03*
X92450000Y-47000000D03*
X70970500Y-62139500D03*
X111250000Y-46700000D03*
X101050000Y-47850000D03*
X151090000Y-83160000D03*
X66630000Y-85849500D03*
X91380000Y-75300000D03*
X101050000Y-49150000D03*
X75450000Y-87100000D03*
X97050000Y-50200000D03*
X116500000Y-51200000D03*
X125760000Y-53229500D03*
X162140000Y-77610000D03*
X67950000Y-51175000D03*
X52200000Y-62200000D03*
X83900000Y-53280000D03*
X54000000Y-57600000D03*
X152350000Y-66375000D03*
X111200000Y-47850000D03*
X122330000Y-76880000D03*
X70100000Y-51100000D03*
X94700000Y-50200000D03*
X75150000Y-81390000D03*
X97500000Y-59500000D03*
X132200000Y-54150000D03*
X122290000Y-81450000D03*
X84830000Y-65880000D03*
X68800000Y-79800000D03*
X92400000Y-46050000D03*
X83950000Y-48060000D03*
X116500000Y-52250000D03*
X75500000Y-57700000D03*
X119000000Y-45550000D03*
X67875000Y-87800000D03*
X107450000Y-50200000D03*
X116450000Y-49150000D03*
X75000000Y-77200000D03*
X102300000Y-47850000D03*
X123550000Y-43950000D03*
X143425037Y-69126069D03*
X116500000Y-50200000D03*
X129560000Y-56720000D03*
X105000000Y-46700000D03*
X65600000Y-87600000D03*
X117750000Y-49150000D03*
X67480000Y-71090000D03*
X119220000Y-73030000D03*
X154220000Y-82930000D03*
X51200000Y-65000000D03*
X123650000Y-60603500D03*
X151448433Y-60848500D03*
X52200000Y-72400000D03*
X112650000Y-51200000D03*
X119290000Y-78330000D03*
X89100000Y-47220000D03*
X147113873Y-61666581D03*
X117600000Y-50200000D03*
X85200000Y-76800000D03*
X101100000Y-46700000D03*
X71100000Y-68600000D03*
X120600000Y-52300000D03*
X87520000Y-69390000D03*
X95800000Y-50200000D03*
X92500000Y-48000000D03*
X120500000Y-59000000D03*
X119170000Y-71170000D03*
X119900000Y-48250000D03*
X107450000Y-49150000D03*
X67600000Y-61200000D03*
X87000000Y-53200000D03*
X133000000Y-87000000D03*
X104950000Y-47850000D03*
X108700000Y-49150000D03*
X79000000Y-51600000D03*
X89200000Y-50920000D03*
X112650000Y-43950000D03*
X81800000Y-72630000D03*
X150300000Y-74575000D03*
X106250000Y-49150000D03*
X101050000Y-50200000D03*
X148000000Y-86500000D03*
X91440000Y-49720000D03*
X94700000Y-49150000D03*
X85400000Y-80400000D03*
X98450000Y-50200000D03*
X60325000Y-83925000D03*
X94500000Y-72500000D03*
X123020000Y-48470000D03*
X123150000Y-47250000D03*
X75200000Y-76000000D03*
X92551576Y-49048424D03*
X58000000Y-82800000D03*
X139980000Y-87810000D03*
X116500000Y-45550000D03*
X107500000Y-43950000D03*
X91440000Y-48480000D03*
X117800000Y-52250000D03*
X75400000Y-51750000D03*
X112650000Y-45550000D03*
X62600000Y-86200000D03*
X134590000Y-69930000D03*
X110010000Y-65730000D03*
X133400000Y-75000000D03*
X101100000Y-43950000D03*
X104950000Y-49150000D03*
X136675000Y-61925000D03*
X112810000Y-72940000D03*
X120020000Y-51440000D03*
X133300000Y-68900000D03*
X87230000Y-85520000D03*
X156075000Y-67925000D03*
X107450000Y-47850000D03*
X88000000Y-72600000D03*
X99750000Y-50200000D03*
X107500000Y-45550000D03*
X73000000Y-68600000D03*
X112650000Y-46700000D03*
X69350498Y-55076500D03*
X53000000Y-70500000D03*
X118910000Y-51180000D03*
X84610000Y-69510000D03*
X128800000Y-66600000D03*
X126000000Y-66600000D03*
X123080000Y-49440000D03*
X101100000Y-45550000D03*
X108750000Y-43950000D03*
X145500000Y-81000000D03*
X112770000Y-69160000D03*
X89940000Y-65590000D03*
X121955161Y-51664468D03*
X82510000Y-85570000D03*
X87500000Y-62500000D03*
X91490000Y-50980000D03*
X152925000Y-86100000D03*
X108750000Y-45550000D03*
X55200000Y-68500000D03*
X113900000Y-49150000D03*
X90490000Y-50970000D03*
X68000000Y-59400000D03*
X107470000Y-86670000D03*
X97050000Y-49150000D03*
X122320000Y-78610000D03*
X164590000Y-71190000D03*
X129500000Y-59000000D03*
X147500000Y-47500000D03*
X106500000Y-60000000D03*
X133400000Y-71000000D03*
X144700000Y-72925000D03*
X72800000Y-74400000D03*
X102520000Y-65630000D03*
X91390000Y-47280000D03*
X89150000Y-48420000D03*
X71125000Y-52475000D03*
X146926500Y-64000000D03*
X132229500Y-56650000D03*
X90300000Y-46100000D03*
X123090000Y-51830500D03*
X126910000Y-53229500D03*
X129560000Y-55370000D03*
X103600000Y-43950000D03*
X76000000Y-61200000D03*
X113950000Y-45550000D03*
X98400000Y-72600000D03*
X113950000Y-52250000D03*
X119270000Y-76630000D03*
X82530000Y-58600000D03*
X116500000Y-43950000D03*
X77200000Y-51675000D03*
X93650000Y-49200000D03*
X119000000Y-46700000D03*
X103600000Y-45550000D03*
X93740000Y-80340000D03*
X112600000Y-49150000D03*
X129214956Y-53262861D03*
X98450000Y-49150000D03*
X122639500Y-45350000D03*
X109950000Y-47850000D03*
X118860000Y-50230000D03*
X112600000Y-47850000D03*
X109950000Y-49150000D03*
X115150000Y-50200000D03*
X107070000Y-65840000D03*
X124290000Y-51830500D03*
X111250000Y-43950000D03*
X112650000Y-50200000D03*
X89150000Y-49660000D03*
X96300000Y-65180000D03*
X122030000Y-50380000D03*
X109090000Y-86710000D03*
X131616157Y-53071349D03*
X93650000Y-50250000D03*
X85200000Y-72600000D03*
X95800000Y-49150000D03*
X115150000Y-51200000D03*
X115150000Y-46700000D03*
X89400000Y-80400000D03*
X115100000Y-47850000D03*
X130730000Y-55270000D03*
X157680000Y-58620000D03*
X119410000Y-52250000D03*
X158700000Y-61444500D03*
X111200000Y-49150000D03*
X102350000Y-46700000D03*
X163500000Y-61000000D03*
X117800000Y-45550000D03*
X63000000Y-51000000D03*
X51400000Y-69200000D03*
X102300000Y-50200000D03*
X164740000Y-64450000D03*
X126060000Y-73030000D03*
X130789076Y-52390794D03*
X116500000Y-46700000D03*
X61000000Y-59000000D03*
X103600000Y-46700000D03*
X154400000Y-58000000D03*
X110000000Y-45550000D03*
X95400000Y-80400000D03*
X122650000Y-44000000D03*
X119000000Y-43950000D03*
X70200000Y-53100000D03*
X90390000Y-47270000D03*
X105080000Y-88250000D03*
X113900000Y-47850000D03*
X99750000Y-49150000D03*
X113950000Y-43950000D03*
X116460000Y-72060000D03*
X65300000Y-51700000D03*
X105000000Y-43950000D03*
X69165142Y-60774494D03*
X118950000Y-47850000D03*
X112040000Y-65700000D03*
X112350000Y-80700000D03*
X106300000Y-46700000D03*
X119850000Y-47250000D03*
X146323500Y-69650000D03*
X149000000Y-80500000D03*
X111250000Y-45550000D03*
X79100000Y-53300000D03*
X129560000Y-54120000D03*
X83970000Y-62560000D03*
X113950000Y-51200000D03*
X83920000Y-51820000D03*
X72470000Y-81820000D03*
X115150000Y-45550000D03*
X69500000Y-47000000D03*
X106300000Y-45550000D03*
X119280000Y-81370000D03*
X98070000Y-75340000D03*
X153458095Y-49541905D03*
X102350000Y-72350000D03*
X125560000Y-51830500D03*
X125800000Y-76450000D03*
X90440000Y-49710000D03*
X115700000Y-87025000D03*
X126060000Y-71160000D03*
X130450000Y-47690000D03*
X115150000Y-43950000D03*
X76130000Y-74140000D03*
X105000000Y-45550000D03*
X146091970Y-74594159D03*
X102300000Y-49150000D03*
X108700000Y-50200000D03*
X63780000Y-81160000D03*
X102350000Y-45550000D03*
X123550000Y-46400000D03*
X102350000Y-70660000D03*
X140500000Y-83000000D03*
X91400000Y-72800000D03*
X68600000Y-63600000D03*
X129610319Y-51918121D03*
X141500000Y-47500000D03*
X110000000Y-43950000D03*
X92550000Y-50410000D03*
X117800000Y-51200000D03*
X108700000Y-47850000D03*
X117750000Y-47850000D03*
X117800000Y-43950000D03*
X116450000Y-47850000D03*
X102350000Y-43950000D03*
X103550000Y-49150000D03*
X154075000Y-53425000D03*
X103060000Y-75360000D03*
X93590000Y-86920000D03*
X139000000Y-48500000D03*
X90440000Y-48470000D03*
X92000000Y-62500000D03*
X115150000Y-52250000D03*
X108750000Y-46700000D03*
X128010000Y-53229500D03*
X123550000Y-53300000D03*
X124640000Y-53229500D03*
X87520000Y-65930000D03*
X87000000Y-46600000D03*
X66900000Y-63600000D03*
X68800000Y-71000000D03*
X122609938Y-53229500D03*
X115100000Y-49150000D03*
X150892500Y-69649647D03*
X102000000Y-62000000D03*
X106250000Y-47850000D03*
X106300000Y-43950000D03*
X150373433Y-62323433D03*
X87000000Y-49600000D03*
X76500000Y-48000000D03*
X113950000Y-50200000D03*
X132200000Y-55400000D03*
X128139320Y-51830500D03*
X89100000Y-46100000D03*
X82000000Y-68000000D03*
X131200000Y-81050000D03*
X70000000Y-59320994D03*
X110000000Y-46700000D03*
X76000000Y-71000000D03*
X97800000Y-53850000D03*
X124300000Y-78600000D03*
X80475000Y-62550000D03*
X104400000Y-54773500D03*
X79600000Y-80450000D03*
X105150000Y-62650000D03*
X143800000Y-80600000D03*
X153800000Y-72700000D03*
X112873500Y-75300000D03*
X137400000Y-79700000D03*
X134821631Y-64447848D03*
X66375000Y-50225000D03*
X128920000Y-63420000D03*
X107150000Y-54550000D03*
X65140000Y-84990000D03*
X152800000Y-70500000D03*
X150646868Y-50051232D03*
X150892500Y-71726500D03*
X142115260Y-59884740D03*
X140500000Y-49500000D03*
X146823500Y-71726500D03*
X152900000Y-54700000D03*
X136304000Y-63450500D03*
X152225000Y-75300000D03*
X59200000Y-71800000D03*
X71950000Y-83850000D03*
X56400000Y-70200000D03*
X75350000Y-83850000D03*
X56400000Y-71800000D03*
X60300000Y-71400000D03*
X72000000Y-78000000D03*
X73600000Y-80000000D03*
X74150000Y-83850000D03*
X73150000Y-83850000D03*
X72400000Y-80000000D03*
X72000000Y-79000000D03*
X78100000Y-83800000D03*
X57800000Y-71800000D03*
X110600000Y-80700000D03*
X105800000Y-81050000D03*
X108500000Y-69910000D03*
X151351000Y-64175000D03*
X151351000Y-63125000D03*
X107450000Y-69910000D03*
X154000000Y-59173500D03*
X155200000Y-78700000D03*
X149526500Y-60800000D03*
X143693377Y-56065500D03*
X144800000Y-56600000D03*
X64400000Y-76800000D03*
X55400000Y-63200000D03*
X154000000Y-80673500D03*
X152483178Y-80184105D03*
X68526500Y-58326500D03*
X69928506Y-56671494D03*
X64250000Y-61150000D03*
X99900000Y-57500000D03*
X95800000Y-57025500D03*
X95800000Y-59000000D03*
X110050000Y-84650000D03*
X108705000Y-80850000D03*
X92300000Y-88100000D03*
X124648308Y-82264318D03*
X78072500Y-62226500D03*
X106450000Y-84299500D03*
X125009083Y-62784500D03*
X115800000Y-83400000D03*
X121800000Y-83343561D03*
X100300000Y-60100000D03*
X148315260Y-73615260D03*
X161923500Y-61450000D03*
X161000000Y-66400000D03*
X149537010Y-54097486D03*
X130800000Y-75400000D03*
X143154000Y-81650500D03*
X105350000Y-50650000D03*
X106800000Y-56800000D03*
X113400000Y-73950000D03*
X107950000Y-56850000D03*
X114326500Y-70300000D03*
X103100000Y-53800000D03*
X116541497Y-60979965D03*
X114898786Y-62676214D03*
X148073500Y-60445439D03*
X100400000Y-54200000D03*
X154400000Y-57000000D03*
X145700000Y-53873500D03*
X129600000Y-75400000D03*
X137773880Y-77676500D03*
X139800000Y-78126500D03*
X117700000Y-86025000D03*
X126900000Y-82000000D03*
X66000000Y-59800000D03*
X79400000Y-62673500D03*
X78900688Y-79299312D03*
X68970000Y-83690000D03*
X140372886Y-55981613D03*
X140496034Y-56973500D03*
X138761000Y-56988500D03*
X146472500Y-60900000D03*
X156600000Y-54000000D03*
X136150000Y-51050000D03*
X161197000Y-62278251D03*
X159826500Y-74400000D03*
X147380500Y-62862966D03*
X144286286Y-52965500D03*
X72400000Y-72400000D03*
X136985000Y-52526500D03*
X141900000Y-51332500D03*
X143000000Y-52026500D03*
X157100000Y-60873500D03*
X157923268Y-60306725D03*
X146334740Y-49934740D03*
X151818560Y-68454013D03*
X161286286Y-65413714D03*
X144900000Y-70300000D03*
X136000000Y-78800000D03*
X144500000Y-78600000D03*
X133275000Y-66425000D03*
X147351500Y-54000000D03*
X107200000Y-80910500D03*
D16*
X99173000Y-64223000D02*
X99173000Y-55427000D01*
X146785801Y-59157740D02*
X135442260Y-59157740D01*
X123000000Y-65600000D02*
X121650000Y-66950000D01*
X121650000Y-66950000D02*
X101900000Y-66950000D01*
X132450000Y-65600000D02*
X123000000Y-65600000D01*
X148073500Y-60445439D02*
X146785801Y-59157740D01*
X133750000Y-64300000D02*
X132450000Y-65600000D01*
X99173000Y-55427000D02*
X100400000Y-54200000D01*
X133750000Y-60850000D02*
X133750000Y-64300000D01*
X135442260Y-59157740D02*
X133750000Y-60850000D01*
X101900000Y-66950000D02*
X99173000Y-64223000D01*
G04 #@! TA.AperFunction,Conductor*
G36*
X93017121Y-43345002D02*
G01*
X93063614Y-43398658D01*
X93074999Y-43450999D01*
X93075000Y-48425000D01*
X100225000Y-48425000D01*
X100225000Y-48056977D01*
X142859500Y-48056977D01*
X142897020Y-48281823D01*
X142897021Y-48281825D01*
X142971036Y-48497425D01*
X142971037Y-48497426D01*
X143079531Y-48697906D01*
X143219543Y-48877794D01*
X143219544Y-48877794D01*
X143387257Y-49032185D01*
X143578087Y-49156860D01*
X143578089Y-49156861D01*
X143578091Y-49156862D01*
X143786845Y-49248430D01*
X144007824Y-49304390D01*
X144235000Y-49323214D01*
X144462176Y-49304390D01*
X144683155Y-49248430D01*
X144891909Y-49156862D01*
X145082745Y-49032183D01*
X145250456Y-48877794D01*
X145390469Y-48697906D01*
X145498963Y-48497426D01*
X145572980Y-48281823D01*
X145610500Y-48056977D01*
X145610500Y-47943000D01*
X145610500Y-47903118D01*
X145610500Y-47829023D01*
X145572980Y-47604177D01*
X145498963Y-47388574D01*
X145390469Y-47188094D01*
X145250456Y-47008206D01*
X145120685Y-46888743D01*
X145082742Y-46853814D01*
X144891912Y-46729139D01*
X144683150Y-46637568D01*
X144462180Y-46581611D01*
X144462179Y-46581610D01*
X144462176Y-46581610D01*
X144235000Y-46562786D01*
X144007824Y-46581610D01*
X144007820Y-46581610D01*
X144007819Y-46581611D01*
X143786849Y-46637568D01*
X143578087Y-46729139D01*
X143387257Y-46853814D01*
X143219544Y-47008205D01*
X143079530Y-47188095D01*
X142971036Y-47388574D01*
X142908727Y-47570075D01*
X142897020Y-47604177D01*
X142859500Y-47829023D01*
X142859500Y-47903118D01*
X142859500Y-47943000D01*
X142859500Y-48056977D01*
X100225000Y-48056977D01*
X100225000Y-43451000D01*
X100245002Y-43382879D01*
X100298658Y-43336386D01*
X100351000Y-43325000D01*
X123883500Y-43325000D01*
X123951621Y-43345002D01*
X123998114Y-43398658D01*
X124009500Y-43450999D01*
X124009500Y-45397237D01*
X124009500Y-45488763D01*
X124013395Y-45496851D01*
X124022713Y-45523481D01*
X124024710Y-45532231D01*
X124030304Y-45539245D01*
X124045317Y-45563136D01*
X124049212Y-45571224D01*
X124056231Y-45576822D01*
X124076180Y-45596771D01*
X124081776Y-45603788D01*
X124089856Y-45607679D01*
X124089858Y-45607680D01*
X124113749Y-45622692D01*
X124120769Y-45628290D01*
X124129518Y-45630286D01*
X124156143Y-45639602D01*
X124164237Y-45643500D01*
X124187410Y-45643500D01*
X144195118Y-45643500D01*
X144233645Y-45643500D01*
X144236318Y-45643527D01*
X145157531Y-45663085D01*
X145162856Y-45663311D01*
X146081076Y-45721864D01*
X146086384Y-45722316D01*
X147001292Y-45819785D01*
X147006522Y-45820454D01*
X147916488Y-45956670D01*
X147921759Y-45957574D01*
X148373418Y-46044925D01*
X148825082Y-46132278D01*
X148830302Y-46133403D01*
X149725414Y-46346291D01*
X149730561Y-46347632D01*
X150615818Y-46598314D01*
X150620922Y-46599877D01*
X151494760Y-46887912D01*
X151499757Y-46889677D01*
X152360624Y-47214554D01*
X152365532Y-47216527D01*
X153194087Y-47570075D01*
X153211776Y-47577623D01*
X153216645Y-47579823D01*
X154046821Y-47976518D01*
X154051561Y-47978908D01*
X154621910Y-48281823D01*
X154864128Y-48410466D01*
X154868797Y-48413074D01*
X155662346Y-48878747D01*
X155666895Y-48881548D01*
X156439924Y-49380454D01*
X156444335Y-49383435D01*
X157195533Y-49914728D01*
X157199803Y-49917885D01*
X157927771Y-50480578D01*
X157931925Y-50483933D01*
X158635338Y-51076998D01*
X158639349Y-51080529D01*
X159116501Y-51518794D01*
X159316957Y-51702914D01*
X159320818Y-51706615D01*
X159971384Y-52357181D01*
X159975085Y-52361042D01*
X160468334Y-52898056D01*
X160597467Y-53038646D01*
X160601000Y-53042660D01*
X161121554Y-53660070D01*
X161194060Y-53746066D01*
X161197419Y-53750226D01*
X161701173Y-54401944D01*
X161760102Y-54478181D01*
X161763276Y-54482474D01*
X162208077Y-55111379D01*
X162294557Y-55233654D01*
X162297552Y-55238086D01*
X162796447Y-56011098D01*
X162799252Y-56015653D01*
X163264925Y-56809202D01*
X163267533Y-56813871D01*
X163699082Y-57626420D01*
X163701490Y-57631196D01*
X164098173Y-58461349D01*
X164100376Y-58466223D01*
X164379829Y-59121133D01*
X164409184Y-59189928D01*
X164461461Y-59312440D01*
X164463454Y-59317400D01*
X164749235Y-60074669D01*
X164788311Y-60178212D01*
X164790093Y-60183256D01*
X165078122Y-61057079D01*
X165079688Y-61062193D01*
X165330363Y-61947424D01*
X165331711Y-61952600D01*
X165544595Y-62847693D01*
X165545722Y-62852922D01*
X165720425Y-63756240D01*
X165721329Y-63761511D01*
X165857539Y-64671436D01*
X165858218Y-64676742D01*
X165955682Y-65591604D01*
X165956136Y-65596934D01*
X166014687Y-66515133D01*
X166014914Y-66520477D01*
X166034443Y-67440326D01*
X166034443Y-67445674D01*
X166014914Y-68365522D01*
X166014687Y-68370866D01*
X165956136Y-69289065D01*
X165955682Y-69294395D01*
X165858218Y-70209257D01*
X165857539Y-70214563D01*
X165721329Y-71124488D01*
X165720425Y-71129759D01*
X165545722Y-72033077D01*
X165544595Y-72038306D01*
X165331711Y-72933399D01*
X165330363Y-72938575D01*
X165079688Y-73823806D01*
X165078122Y-73828920D01*
X164790093Y-74702743D01*
X164788311Y-74707787D01*
X164463456Y-75568596D01*
X164461461Y-75573559D01*
X164100376Y-76419776D01*
X164098173Y-76424650D01*
X163701490Y-77254803D01*
X163699082Y-77259579D01*
X163267533Y-78072128D01*
X163264925Y-78076797D01*
X162799252Y-78870346D01*
X162796447Y-78874901D01*
X162297552Y-79647913D01*
X162294557Y-79652345D01*
X161763282Y-80403518D01*
X161760102Y-80407818D01*
X161197421Y-81135771D01*
X161194060Y-81139933D01*
X160601001Y-81843338D01*
X160597467Y-81847353D01*
X159975085Y-82524957D01*
X159971384Y-82528818D01*
X159320818Y-83179384D01*
X159316957Y-83183085D01*
X158639353Y-83805467D01*
X158635338Y-83809001D01*
X157931933Y-84402060D01*
X157927771Y-84405421D01*
X157199818Y-84968102D01*
X157195518Y-84971282D01*
X156444345Y-85502557D01*
X156439913Y-85505552D01*
X155666901Y-86004447D01*
X155662346Y-86007252D01*
X154868797Y-86472925D01*
X154864128Y-86475533D01*
X154051579Y-86907082D01*
X154046803Y-86909490D01*
X153216650Y-87306173D01*
X153211776Y-87308376D01*
X152365559Y-87669461D01*
X152360596Y-87671456D01*
X151499787Y-87996311D01*
X151494743Y-87998093D01*
X150620920Y-88286122D01*
X150615806Y-88287688D01*
X149730575Y-88538363D01*
X149725399Y-88539711D01*
X148830306Y-88752595D01*
X148825077Y-88753722D01*
X147921759Y-88928425D01*
X147916488Y-88929329D01*
X147006563Y-89065539D01*
X147001257Y-89066218D01*
X146086395Y-89163682D01*
X146081065Y-89164136D01*
X145162866Y-89222687D01*
X145157522Y-89222914D01*
X144236319Y-89242472D01*
X144233645Y-89242500D01*
X137896336Y-89242500D01*
X137828215Y-89222498D01*
X137781722Y-89168842D01*
X137771618Y-89098568D01*
X137787217Y-89053500D01*
X137834527Y-88971556D01*
X137860663Y-88891118D01*
X137893542Y-88789928D01*
X137913504Y-88600000D01*
X137893542Y-88410072D01*
X137834527Y-88228444D01*
X137834527Y-88228443D01*
X137739041Y-88063057D01*
X137611252Y-87921133D01*
X137479864Y-87825674D01*
X137456752Y-87808882D01*
X137282288Y-87731206D01*
X137095487Y-87691500D01*
X136904513Y-87691500D01*
X136779979Y-87717970D01*
X136717711Y-87731206D01*
X136543246Y-87808883D01*
X136388747Y-87921133D01*
X136260958Y-88063057D01*
X136165472Y-88228443D01*
X136106458Y-88410070D01*
X136086496Y-88599999D01*
X136106458Y-88789929D01*
X136165472Y-88971556D01*
X136212783Y-89053500D01*
X136229521Y-89122495D01*
X136206301Y-89189587D01*
X136150493Y-89233474D01*
X136103664Y-89242500D01*
X92493413Y-89242500D01*
X92425292Y-89222498D01*
X92378799Y-89168842D01*
X92368695Y-89098568D01*
X92398189Y-89033988D01*
X92457915Y-88995604D01*
X92467204Y-88993255D01*
X92582288Y-88968794D01*
X92756752Y-88891118D01*
X92911253Y-88778866D01*
X93039040Y-88636944D01*
X93134527Y-88471556D01*
X93193542Y-88289928D01*
X93213504Y-88100000D01*
X93193542Y-87910072D01*
X93142593Y-87753267D01*
X93134527Y-87728443D01*
X93039041Y-87563057D01*
X92911252Y-87421133D01*
X92834002Y-87365007D01*
X92756752Y-87308882D01*
X92582288Y-87231206D01*
X92395487Y-87191500D01*
X92204513Y-87191500D01*
X92079979Y-87217970D01*
X92017711Y-87231206D01*
X91843246Y-87308883D01*
X91688747Y-87421133D01*
X91560958Y-87563057D01*
X91465472Y-87728443D01*
X91406458Y-87910070D01*
X91386496Y-88099999D01*
X91406458Y-88289929D01*
X91465472Y-88471556D01*
X91560958Y-88636942D01*
X91665651Y-88753215D01*
X91688747Y-88778866D01*
X91843248Y-88891118D01*
X92017712Y-88968794D01*
X92132785Y-88993253D01*
X92195258Y-89026982D01*
X92229579Y-89089131D01*
X92224851Y-89159970D01*
X92182575Y-89217008D01*
X92116174Y-89242135D01*
X92106587Y-89242500D01*
X72236355Y-89242500D01*
X72233681Y-89242472D01*
X71312477Y-89222914D01*
X71307133Y-89222687D01*
X70388934Y-89164136D01*
X70383604Y-89163682D01*
X69468742Y-89066218D01*
X69463436Y-89065539D01*
X68553511Y-88929329D01*
X68548240Y-88928425D01*
X67644922Y-88753722D01*
X67639693Y-88752595D01*
X66744600Y-88539711D01*
X66739424Y-88538363D01*
X65854193Y-88287688D01*
X65849079Y-88286122D01*
X64975256Y-87998093D01*
X64970212Y-87996311D01*
X64771003Y-87921133D01*
X64109400Y-87671454D01*
X64104440Y-87669461D01*
X63258223Y-87308376D01*
X63253349Y-87306173D01*
X62731847Y-87056977D01*
X70859500Y-87056977D01*
X70897020Y-87281823D01*
X70906310Y-87308883D01*
X70971036Y-87497425D01*
X71043906Y-87632076D01*
X71079531Y-87697906D01*
X71219544Y-87877793D01*
X71219544Y-87877794D01*
X71387257Y-88032185D01*
X71578087Y-88156860D01*
X71578089Y-88156861D01*
X71578091Y-88156862D01*
X71786845Y-88248430D01*
X72007824Y-88304390D01*
X72235000Y-88323214D01*
X72462176Y-88304390D01*
X72683155Y-88248430D01*
X72891909Y-88156862D01*
X73082745Y-88032183D01*
X73250456Y-87877794D01*
X73390469Y-87697906D01*
X73498963Y-87497426D01*
X73572980Y-87281823D01*
X73610500Y-87056977D01*
X94859500Y-87056977D01*
X94897020Y-87281823D01*
X94906310Y-87308883D01*
X94971036Y-87497425D01*
X95043906Y-87632076D01*
X95079531Y-87697906D01*
X95219544Y-87877794D01*
X95387257Y-88032185D01*
X95578087Y-88156860D01*
X95578089Y-88156861D01*
X95578091Y-88156862D01*
X95786845Y-88248430D01*
X96007824Y-88304390D01*
X96235000Y-88323214D01*
X96462176Y-88304390D01*
X96683155Y-88248430D01*
X96891909Y-88156862D01*
X97082745Y-88032183D01*
X97250456Y-87877794D01*
X97291024Y-87825673D01*
X101587036Y-87825673D01*
X101606998Y-88015603D01*
X101666012Y-88197230D01*
X101761498Y-88362616D01*
X101761500Y-88362618D01*
X101889287Y-88504540D01*
X102043788Y-88616792D01*
X102218252Y-88694468D01*
X102405053Y-88734174D01*
X102405055Y-88734174D01*
X102596025Y-88734174D01*
X102596027Y-88734174D01*
X102782828Y-88694468D01*
X102957292Y-88616792D01*
X103111793Y-88504540D01*
X103239580Y-88362618D01*
X103335067Y-88197230D01*
X103394082Y-88015602D01*
X103414044Y-87825674D01*
X103394082Y-87635746D01*
X103349139Y-87497426D01*
X103335067Y-87454117D01*
X103239581Y-87288731D01*
X103111792Y-87146807D01*
X102988152Y-87056977D01*
X102957292Y-87034556D01*
X102782828Y-86956880D01*
X102596027Y-86917174D01*
X102405053Y-86917174D01*
X102283552Y-86943000D01*
X102218251Y-86956880D01*
X102043786Y-87034557D01*
X101889287Y-87146807D01*
X101761498Y-87288731D01*
X101666012Y-87454117D01*
X101606998Y-87635744D01*
X101587036Y-87825673D01*
X97291024Y-87825673D01*
X97390469Y-87697906D01*
X97498963Y-87497426D01*
X97572980Y-87281823D01*
X97610500Y-87056977D01*
X97610500Y-86943000D01*
X97610500Y-86903118D01*
X97610500Y-86829023D01*
X97596378Y-86744394D01*
X116092611Y-86744394D01*
X116112573Y-86934324D01*
X116171587Y-87115951D01*
X116267073Y-87281337D01*
X116290473Y-87307325D01*
X116394862Y-87423261D01*
X116549363Y-87535513D01*
X116723827Y-87613189D01*
X116910628Y-87652895D01*
X116910630Y-87652895D01*
X117101600Y-87652895D01*
X117101602Y-87652895D01*
X117288403Y-87613189D01*
X117462867Y-87535513D01*
X117617368Y-87423261D01*
X117745155Y-87281339D01*
X117840642Y-87115951D01*
X117859804Y-87056977D01*
X118859500Y-87056977D01*
X118897020Y-87281823D01*
X118906310Y-87308883D01*
X118971036Y-87497425D01*
X119043906Y-87632076D01*
X119079531Y-87697906D01*
X119219543Y-87877794D01*
X119219544Y-87877794D01*
X119387257Y-88032185D01*
X119578087Y-88156860D01*
X119578089Y-88156861D01*
X119578091Y-88156862D01*
X119786845Y-88248430D01*
X120007824Y-88304390D01*
X120235000Y-88323214D01*
X120462176Y-88304390D01*
X120683155Y-88248430D01*
X120891909Y-88156862D01*
X121082745Y-88032183D01*
X121250456Y-87877794D01*
X121390469Y-87697906D01*
X121498963Y-87497426D01*
X121572980Y-87281823D01*
X121610500Y-87056977D01*
X142859500Y-87056977D01*
X142897020Y-87281823D01*
X142906310Y-87308883D01*
X142971036Y-87497425D01*
X143043906Y-87632076D01*
X143079531Y-87697906D01*
X143219543Y-87877793D01*
X143219544Y-87877794D01*
X143387257Y-88032185D01*
X143578087Y-88156860D01*
X143578089Y-88156861D01*
X143578091Y-88156862D01*
X143786845Y-88248430D01*
X144007824Y-88304390D01*
X144235000Y-88323214D01*
X144462176Y-88304390D01*
X144683155Y-88248430D01*
X144891909Y-88156862D01*
X145082745Y-88032183D01*
X145250456Y-87877794D01*
X145390469Y-87697906D01*
X145498963Y-87497426D01*
X145572980Y-87281823D01*
X145610500Y-87056977D01*
X145610500Y-86943000D01*
X145610500Y-86903118D01*
X145610500Y-86829023D01*
X145572980Y-86604177D01*
X145498963Y-86388574D01*
X145390469Y-86188094D01*
X145250456Y-86008206D01*
X145105609Y-85874865D01*
X145082742Y-85853814D01*
X144891912Y-85729139D01*
X144719342Y-85653443D01*
X144683155Y-85637570D01*
X144683153Y-85637569D01*
X144683150Y-85637568D01*
X144462180Y-85581611D01*
X144462179Y-85581610D01*
X144462176Y-85581610D01*
X144235000Y-85562786D01*
X144007824Y-85581610D01*
X144007820Y-85581610D01*
X144007819Y-85581611D01*
X143786849Y-85637568D01*
X143578087Y-85729139D01*
X143387257Y-85853814D01*
X143219544Y-86008205D01*
X143079530Y-86188095D01*
X142971036Y-86388574D01*
X142908727Y-86570075D01*
X142897020Y-86604177D01*
X142859500Y-86829023D01*
X142859500Y-86903118D01*
X142859500Y-86943000D01*
X142859500Y-87056977D01*
X121610500Y-87056977D01*
X121610500Y-86943000D01*
X121610500Y-86903118D01*
X121610500Y-86829023D01*
X121572980Y-86604177D01*
X121498963Y-86388574D01*
X121390469Y-86188094D01*
X121250456Y-86008206D01*
X121105609Y-85874865D01*
X121082742Y-85853814D01*
X120891912Y-85729139D01*
X120719342Y-85653443D01*
X120683155Y-85637570D01*
X120683153Y-85637569D01*
X120683150Y-85637568D01*
X120462180Y-85581611D01*
X120462179Y-85581610D01*
X120462176Y-85581610D01*
X120235000Y-85562786D01*
X120234999Y-85562786D01*
X120206842Y-85565119D01*
X120007824Y-85581610D01*
X120007820Y-85581610D01*
X120007819Y-85581611D01*
X119786849Y-85637568D01*
X119578087Y-85729139D01*
X119387257Y-85853814D01*
X119219544Y-86008205D01*
X119079530Y-86188095D01*
X118971036Y-86388574D01*
X118908727Y-86570075D01*
X118897020Y-86604177D01*
X118859500Y-86829023D01*
X118859500Y-86903117D01*
X118859500Y-86903118D01*
X118859500Y-86943000D01*
X118859500Y-87056977D01*
X117859804Y-87056977D01*
X117885193Y-86978836D01*
X117925265Y-86920234D01*
X117978827Y-86894529D01*
X117982288Y-86893794D01*
X118156752Y-86816118D01*
X118311253Y-86703866D01*
X118439040Y-86561944D01*
X118534527Y-86396556D01*
X118593542Y-86214928D01*
X118613504Y-86025000D01*
X118593542Y-85835072D01*
X118534527Y-85653444D01*
X118534527Y-85653443D01*
X118439041Y-85488057D01*
X118311252Y-85346133D01*
X118156753Y-85233883D01*
X118156752Y-85233882D01*
X117982288Y-85156206D01*
X117795487Y-85116500D01*
X117604513Y-85116500D01*
X117479978Y-85142970D01*
X117417711Y-85156206D01*
X117243246Y-85233883D01*
X117088747Y-85346133D01*
X116960958Y-85488057D01*
X116865473Y-85653442D01*
X116820922Y-85790556D01*
X116780848Y-85849161D01*
X116727288Y-85874865D01*
X116723829Y-85875600D01*
X116549361Y-85953278D01*
X116394862Y-86065528D01*
X116267073Y-86207452D01*
X116171587Y-86372838D01*
X116112573Y-86554465D01*
X116092611Y-86744394D01*
X97596378Y-86744394D01*
X97572980Y-86604177D01*
X97498963Y-86388574D01*
X97390469Y-86188094D01*
X97250456Y-86008206D01*
X97105609Y-85874865D01*
X97082742Y-85853814D01*
X96891912Y-85729139D01*
X96719342Y-85653443D01*
X96683155Y-85637570D01*
X96683153Y-85637569D01*
X96683150Y-85637568D01*
X96462180Y-85581611D01*
X96462179Y-85581610D01*
X96462176Y-85581610D01*
X96235000Y-85562786D01*
X96234999Y-85562786D01*
X96206842Y-85565119D01*
X96007824Y-85581610D01*
X96007820Y-85581610D01*
X96007819Y-85581611D01*
X95786849Y-85637568D01*
X95578087Y-85729139D01*
X95387257Y-85853814D01*
X95219544Y-86008205D01*
X95079530Y-86188095D01*
X94971036Y-86388574D01*
X94908727Y-86570075D01*
X94897020Y-86604177D01*
X94859500Y-86829023D01*
X94859500Y-86903118D01*
X94859500Y-86943000D01*
X94859500Y-87056977D01*
X73610500Y-87056977D01*
X73610500Y-86943000D01*
X73610500Y-86903118D01*
X73610500Y-86829023D01*
X73572980Y-86604177D01*
X73498963Y-86388574D01*
X73390469Y-86188094D01*
X73250456Y-86008206D01*
X73105609Y-85874865D01*
X73082742Y-85853814D01*
X72891912Y-85729139D01*
X72719342Y-85653443D01*
X72683155Y-85637570D01*
X72683153Y-85637569D01*
X72683150Y-85637568D01*
X72462180Y-85581611D01*
X72462179Y-85581610D01*
X72462176Y-85581610D01*
X72235000Y-85562786D01*
X72234999Y-85562786D01*
X72206842Y-85565119D01*
X72007824Y-85581610D01*
X72007820Y-85581610D01*
X72007819Y-85581611D01*
X71786849Y-85637568D01*
X71578087Y-85729139D01*
X71387257Y-85853814D01*
X71219544Y-86008205D01*
X71079530Y-86188095D01*
X70971036Y-86388574D01*
X70908727Y-86570075D01*
X70897020Y-86604177D01*
X70859500Y-86829023D01*
X70859500Y-86903118D01*
X70859500Y-86943000D01*
X70859500Y-87056977D01*
X62731847Y-87056977D01*
X62423196Y-86909490D01*
X62418420Y-86907082D01*
X61605871Y-86475533D01*
X61601202Y-86472925D01*
X60807653Y-86007252D01*
X60803098Y-86004447D01*
X60030086Y-85505552D01*
X60025654Y-85502557D01*
X59569487Y-85179928D01*
X59300948Y-84990000D01*
X64226496Y-84990000D01*
X64246458Y-85179929D01*
X64305472Y-85361556D01*
X64400958Y-85526942D01*
X64400960Y-85526944D01*
X64528747Y-85668866D01*
X64683248Y-85781118D01*
X64857712Y-85858794D01*
X65044513Y-85898500D01*
X65044515Y-85898500D01*
X65235485Y-85898500D01*
X65235487Y-85898500D01*
X65422288Y-85858794D01*
X65596752Y-85781118D01*
X65751253Y-85668866D01*
X65879040Y-85526944D01*
X65974527Y-85361556D01*
X66033542Y-85179928D01*
X66053504Y-84990000D01*
X66033542Y-84800072D01*
X65984780Y-84650000D01*
X65974527Y-84618443D01*
X65879041Y-84453057D01*
X65751252Y-84311133D01*
X65615296Y-84212355D01*
X65596752Y-84198882D01*
X65422288Y-84121206D01*
X65235487Y-84081500D01*
X65044513Y-84081500D01*
X64919978Y-84107970D01*
X64857711Y-84121206D01*
X64683246Y-84198883D01*
X64528747Y-84311133D01*
X64400958Y-84453057D01*
X64305472Y-84618443D01*
X64246458Y-84800070D01*
X64226496Y-84990000D01*
X59300948Y-84990000D01*
X59274474Y-84971276D01*
X59270181Y-84968102D01*
X59104359Y-84839928D01*
X58542226Y-84405419D01*
X58538066Y-84402060D01*
X58536156Y-84400450D01*
X57834660Y-83809000D01*
X57830646Y-83805467D01*
X57804233Y-83781207D01*
X57704934Y-83690000D01*
X68056496Y-83690000D01*
X68076458Y-83879929D01*
X68135472Y-84061556D01*
X68230958Y-84226942D01*
X68330004Y-84336944D01*
X68358747Y-84368866D01*
X68513248Y-84481118D01*
X68687712Y-84558794D01*
X68874513Y-84598500D01*
X68874515Y-84598500D01*
X69065485Y-84598500D01*
X69065487Y-84598500D01*
X69252288Y-84558794D01*
X69426752Y-84481118D01*
X69581253Y-84368866D01*
X69709040Y-84226944D01*
X69804527Y-84061556D01*
X69863542Y-83879928D01*
X69866688Y-83850000D01*
X71036496Y-83850000D01*
X71056458Y-84039929D01*
X71115472Y-84221556D01*
X71210958Y-84386942D01*
X71303237Y-84489428D01*
X71338747Y-84528866D01*
X71493248Y-84641118D01*
X71667712Y-84718794D01*
X71854513Y-84758500D01*
X71854515Y-84758500D01*
X72045485Y-84758500D01*
X72045487Y-84758500D01*
X72232288Y-84718794D01*
X72406752Y-84641118D01*
X72475939Y-84590849D01*
X72542806Y-84566992D01*
X72611958Y-84583072D01*
X72624059Y-84590849D01*
X72693248Y-84641118D01*
X72867712Y-84718794D01*
X73054513Y-84758500D01*
X73054515Y-84758500D01*
X73245485Y-84758500D01*
X73245487Y-84758500D01*
X73432288Y-84718794D01*
X73598755Y-84644678D01*
X73669118Y-84635245D01*
X73701240Y-84644676D01*
X73867712Y-84718794D01*
X74054513Y-84758500D01*
X74054515Y-84758500D01*
X74245485Y-84758500D01*
X74245487Y-84758500D01*
X74432288Y-84718794D01*
X74606752Y-84641118D01*
X74675939Y-84590849D01*
X74742806Y-84566992D01*
X74811958Y-84583072D01*
X74824059Y-84590849D01*
X74893248Y-84641118D01*
X75067712Y-84718794D01*
X75254513Y-84758500D01*
X75254515Y-84758500D01*
X75445485Y-84758500D01*
X75445487Y-84758500D01*
X75632288Y-84718794D01*
X75806752Y-84641118D01*
X75961253Y-84528866D01*
X76089040Y-84386944D01*
X76184527Y-84221556D01*
X76243542Y-84039928D01*
X76263504Y-83850000D01*
X76258249Y-83799999D01*
X77186496Y-83799999D01*
X77206458Y-83989929D01*
X77265472Y-84171556D01*
X77360958Y-84336942D01*
X77360960Y-84336944D01*
X77488747Y-84478866D01*
X77643248Y-84591118D01*
X77817712Y-84668794D01*
X78004513Y-84708500D01*
X78004515Y-84708500D01*
X78195485Y-84708500D01*
X78195487Y-84708500D01*
X78382288Y-84668794D01*
X78556752Y-84591118D01*
X78711253Y-84478866D01*
X78839040Y-84336944D01*
X78934527Y-84171556D01*
X78993519Y-83990000D01*
X104709534Y-83990000D01*
X104729312Y-84140235D01*
X104787301Y-84280232D01*
X104787302Y-84280233D01*
X104879549Y-84400451D01*
X104999767Y-84492698D01*
X105139764Y-84550687D01*
X105252280Y-84565500D01*
X105256402Y-84565500D01*
X105323598Y-84565500D01*
X105327720Y-84565500D01*
X105440039Y-84550713D01*
X105456683Y-84548522D01*
X105456971Y-84550713D01*
X105504867Y-84545562D01*
X105568356Y-84577338D01*
X105602335Y-84630623D01*
X105615473Y-84671057D01*
X105710958Y-84836442D01*
X105710960Y-84836444D01*
X105838747Y-84978366D01*
X105993248Y-85090618D01*
X106167712Y-85168294D01*
X106354513Y-85208000D01*
X106354515Y-85208000D01*
X106545485Y-85208000D01*
X106545487Y-85208000D01*
X106732288Y-85168294D01*
X106906752Y-85090618D01*
X107061253Y-84978366D01*
X107189040Y-84836444D01*
X107284527Y-84671056D01*
X107291369Y-84650000D01*
X109136496Y-84650000D01*
X109156458Y-84839929D01*
X109215472Y-85021556D01*
X109310958Y-85186942D01*
X109310960Y-85186944D01*
X109438747Y-85328866D01*
X109593248Y-85441118D01*
X109767712Y-85518794D01*
X109954513Y-85558500D01*
X109954515Y-85558500D01*
X110145485Y-85558500D01*
X110145487Y-85558500D01*
X110332288Y-85518794D01*
X110506752Y-85441118D01*
X110661253Y-85328866D01*
X110789040Y-85186944D01*
X110884527Y-85021556D01*
X110943542Y-84839928D01*
X110960526Y-84678327D01*
X110987539Y-84612673D01*
X111045761Y-84572043D01*
X111085836Y-84565500D01*
X111103598Y-84565500D01*
X111107720Y-84565500D01*
X111220236Y-84550687D01*
X111360233Y-84492698D01*
X111480451Y-84400451D01*
X111572698Y-84280233D01*
X111630687Y-84140236D01*
X111650466Y-83990000D01*
X111630687Y-83839764D01*
X111572698Y-83699767D01*
X111480451Y-83579549D01*
X111376875Y-83500072D01*
X111360232Y-83487301D01*
X111220235Y-83429312D01*
X111111807Y-83415038D01*
X111111806Y-83415037D01*
X111107720Y-83414500D01*
X111032280Y-83414500D01*
X111028194Y-83415037D01*
X111028192Y-83415038D01*
X110919764Y-83429312D01*
X110779767Y-83487301D01*
X110659549Y-83579549D01*
X110567300Y-83699768D01*
X110551724Y-83737372D01*
X110507175Y-83792652D01*
X110439811Y-83815072D01*
X110384068Y-83804259D01*
X110332291Y-83781207D01*
X110332289Y-83781206D01*
X110332288Y-83781206D01*
X110145487Y-83741500D01*
X109954513Y-83741500D01*
X109829978Y-83767970D01*
X109767711Y-83781206D01*
X109593246Y-83858883D01*
X109438747Y-83971133D01*
X109310958Y-84113057D01*
X109215472Y-84278443D01*
X109156458Y-84460070D01*
X109136496Y-84650000D01*
X107291369Y-84650000D01*
X107343542Y-84489428D01*
X107363504Y-84299500D01*
X107343542Y-84109572D01*
X107304667Y-83989928D01*
X107284527Y-83927943D01*
X107189041Y-83762557D01*
X107061252Y-83620633D01*
X106941310Y-83533490D01*
X106906752Y-83508382D01*
X106732288Y-83430706D01*
X106587828Y-83400000D01*
X114886496Y-83400000D01*
X114906458Y-83589929D01*
X114965472Y-83771556D01*
X115060958Y-83936942D01*
X115060960Y-83936944D01*
X115188747Y-84078866D01*
X115343248Y-84191118D01*
X115517712Y-84268794D01*
X115704513Y-84308500D01*
X115704515Y-84308500D01*
X115895485Y-84308500D01*
X115895487Y-84308500D01*
X116082288Y-84268794D01*
X116256752Y-84191118D01*
X116411253Y-84078866D01*
X116539040Y-83936944D01*
X116634527Y-83771556D01*
X116693542Y-83589928D01*
X116713504Y-83400000D01*
X116707572Y-83343560D01*
X120886496Y-83343560D01*
X120906458Y-83533490D01*
X120965472Y-83715117D01*
X121060958Y-83880503D01*
X121060960Y-83880505D01*
X121188747Y-84022427D01*
X121343248Y-84134679D01*
X121517712Y-84212355D01*
X121704513Y-84252061D01*
X121704515Y-84252061D01*
X121895485Y-84252061D01*
X121895487Y-84252061D01*
X122082288Y-84212355D01*
X122256752Y-84134679D01*
X122411253Y-84022427D01*
X122539040Y-83880505D01*
X122634527Y-83715117D01*
X122693542Y-83533489D01*
X122713504Y-83343561D01*
X122693542Y-83153633D01*
X122647241Y-83011133D01*
X122634527Y-82972004D01*
X122539041Y-82806618D01*
X122411252Y-82664694D01*
X122256753Y-82552444D01*
X122256752Y-82552443D01*
X122082288Y-82474767D01*
X121895487Y-82435061D01*
X121704513Y-82435061D01*
X121579978Y-82461531D01*
X121517711Y-82474767D01*
X121343246Y-82552444D01*
X121188747Y-82664694D01*
X121060958Y-82806618D01*
X120965472Y-82972004D01*
X120906458Y-83153631D01*
X120886496Y-83343560D01*
X116707572Y-83343560D01*
X116693542Y-83210072D01*
X116646325Y-83064753D01*
X116634527Y-83028443D01*
X116539041Y-82863057D01*
X116411252Y-82721133D01*
X116256753Y-82608883D01*
X116256752Y-82608882D01*
X116082288Y-82531206D01*
X115895487Y-82491500D01*
X115704513Y-82491500D01*
X115579979Y-82517970D01*
X115517711Y-82531206D01*
X115343246Y-82608883D01*
X115188747Y-82721133D01*
X115060958Y-82863057D01*
X114965472Y-83028443D01*
X114906458Y-83210070D01*
X114886496Y-83400000D01*
X106587828Y-83400000D01*
X106545487Y-83391000D01*
X106354513Y-83391000D01*
X106243955Y-83414500D01*
X106167711Y-83430706D01*
X105993243Y-83508384D01*
X105869494Y-83598293D01*
X105802627Y-83622152D01*
X105733475Y-83606071D01*
X105713993Y-83589147D01*
X105713610Y-83589647D01*
X105700452Y-83579550D01*
X105700451Y-83579549D01*
X105613823Y-83513076D01*
X105580232Y-83487301D01*
X105440235Y-83429312D01*
X105331807Y-83415038D01*
X105331806Y-83415037D01*
X105327720Y-83414500D01*
X105252280Y-83414500D01*
X105248194Y-83415037D01*
X105248192Y-83415038D01*
X105139764Y-83429312D01*
X104999767Y-83487301D01*
X104879549Y-83579549D01*
X104787301Y-83699767D01*
X104729312Y-83839764D01*
X104709534Y-83990000D01*
X78993519Y-83990000D01*
X78993542Y-83989928D01*
X79013504Y-83800000D01*
X78993542Y-83610072D01*
X78935262Y-83430706D01*
X78934527Y-83428443D01*
X78839041Y-83263057D01*
X78711252Y-83121133D01*
X78620667Y-83055319D01*
X78556752Y-83008882D01*
X78382288Y-82931206D01*
X78195487Y-82891500D01*
X78004513Y-82891500D01*
X77924535Y-82908500D01*
X77817711Y-82931206D01*
X77643246Y-83008883D01*
X77488747Y-83121133D01*
X77360958Y-83263057D01*
X77265472Y-83428443D01*
X77206458Y-83610070D01*
X77186496Y-83799999D01*
X76258249Y-83799999D01*
X76243542Y-83660072D01*
X76194255Y-83508382D01*
X76184527Y-83478443D01*
X76089041Y-83313057D01*
X75961252Y-83171133D01*
X75849999Y-83090303D01*
X75806752Y-83058882D01*
X75632288Y-82981206D01*
X75445487Y-82941500D01*
X75254513Y-82941500D01*
X75129978Y-82967970D01*
X75067711Y-82981206D01*
X75000492Y-83011134D01*
X74900993Y-83055434D01*
X74893246Y-83058883D01*
X74824061Y-83109149D01*
X74757193Y-83133008D01*
X74688041Y-83116927D01*
X74675939Y-83109149D01*
X74634360Y-83078940D01*
X74606752Y-83058882D01*
X74432288Y-82981206D01*
X74245487Y-82941500D01*
X74054513Y-82941500D01*
X73867712Y-82981206D01*
X73867710Y-82981206D01*
X73867709Y-82981207D01*
X73701248Y-83055319D01*
X73630881Y-83064753D01*
X73598752Y-83055319D01*
X73432290Y-82981207D01*
X73432288Y-82981206D01*
X73245487Y-82941500D01*
X73054513Y-82941500D01*
X72929979Y-82967970D01*
X72867711Y-82981206D01*
X72800492Y-83011134D01*
X72700993Y-83055434D01*
X72693246Y-83058883D01*
X72624061Y-83109149D01*
X72557193Y-83133008D01*
X72488041Y-83116927D01*
X72475939Y-83109149D01*
X72434360Y-83078940D01*
X72406752Y-83058882D01*
X72232288Y-82981206D01*
X72045487Y-82941500D01*
X71854513Y-82941500D01*
X71729978Y-82967970D01*
X71667711Y-82981206D01*
X71600492Y-83011134D01*
X71500993Y-83055434D01*
X71493246Y-83058883D01*
X71338747Y-83171133D01*
X71210958Y-83313057D01*
X71115472Y-83478443D01*
X71056458Y-83660070D01*
X71036496Y-83850000D01*
X69866688Y-83850000D01*
X69883504Y-83690000D01*
X69863542Y-83500072D01*
X69804527Y-83318444D01*
X69804527Y-83318443D01*
X69709041Y-83153057D01*
X69581252Y-83011133D01*
X69426753Y-82898883D01*
X69426752Y-82898882D01*
X69252288Y-82821206D01*
X69065487Y-82781500D01*
X68874513Y-82781500D01*
X68756343Y-82806618D01*
X68687711Y-82821206D01*
X68513246Y-82898883D01*
X68358747Y-83011133D01*
X68230958Y-83153057D01*
X68135472Y-83318443D01*
X68076458Y-83500070D01*
X68056496Y-83690000D01*
X57704934Y-83690000D01*
X57153042Y-83183085D01*
X57149181Y-83179384D01*
X56498615Y-82528818D01*
X56494914Y-82524957D01*
X56255516Y-82264318D01*
X123734804Y-82264318D01*
X123754766Y-82454247D01*
X123813780Y-82635874D01*
X123909266Y-82801260D01*
X123997165Y-82898882D01*
X124037055Y-82943184D01*
X124191556Y-83055436D01*
X124366020Y-83133112D01*
X124552821Y-83172818D01*
X124552823Y-83172818D01*
X124743793Y-83172818D01*
X124743795Y-83172818D01*
X124930596Y-83133112D01*
X125105060Y-83055436D01*
X125259561Y-82943184D01*
X125387348Y-82801262D01*
X125482835Y-82635874D01*
X125541850Y-82454246D01*
X125561812Y-82264318D01*
X125541850Y-82074390D01*
X125517679Y-81999999D01*
X125986496Y-81999999D01*
X126006458Y-82189929D01*
X126065472Y-82371556D01*
X126160958Y-82536942D01*
X126160960Y-82536944D01*
X126288747Y-82678866D01*
X126443248Y-82791118D01*
X126617712Y-82868794D01*
X126804513Y-82908500D01*
X126804515Y-82908500D01*
X126995485Y-82908500D01*
X126995487Y-82908500D01*
X127182288Y-82868794D01*
X127356752Y-82791118D01*
X127511253Y-82678866D01*
X127639040Y-82536944D01*
X127734527Y-82371556D01*
X127793542Y-82189928D01*
X127813504Y-82000000D01*
X127793542Y-81810072D01*
X127741819Y-81650887D01*
X127734527Y-81628443D01*
X127639041Y-81463057D01*
X127511252Y-81321133D01*
X127356753Y-81208883D01*
X127356752Y-81208882D01*
X127182288Y-81131206D01*
X126995487Y-81091500D01*
X126804513Y-81091500D01*
X126700744Y-81113557D01*
X126617711Y-81131206D01*
X126443246Y-81208883D01*
X126288747Y-81321133D01*
X126160958Y-81463057D01*
X126065472Y-81628443D01*
X126006458Y-81810070D01*
X125986496Y-81999999D01*
X125517679Y-81999999D01*
X125502228Y-81952446D01*
X125482835Y-81892761D01*
X125387349Y-81727375D01*
X125259560Y-81585451D01*
X125105061Y-81473201D01*
X125105060Y-81473200D01*
X124930596Y-81395524D01*
X124743795Y-81355818D01*
X124552821Y-81355818D01*
X124428286Y-81382288D01*
X124366019Y-81395524D01*
X124191554Y-81473201D01*
X124037055Y-81585451D01*
X123909266Y-81727375D01*
X123813780Y-81892761D01*
X123754766Y-82074388D01*
X123734804Y-82264318D01*
X56255516Y-82264318D01*
X55872529Y-81847349D01*
X55868998Y-81843338D01*
X55867125Y-81841116D01*
X55275933Y-81139925D01*
X55272578Y-81135771D01*
X54709885Y-80407803D01*
X54706728Y-80403533D01*
X54272800Y-79790000D01*
X65106496Y-79790000D01*
X65126458Y-79979929D01*
X65185472Y-80161556D01*
X65280958Y-80326942D01*
X65351887Y-80405717D01*
X65408747Y-80468866D01*
X65563248Y-80581118D01*
X65737712Y-80658794D01*
X65924513Y-80698500D01*
X65924515Y-80698500D01*
X66115485Y-80698500D01*
X66115487Y-80698500D01*
X66302288Y-80658794D01*
X66476752Y-80581118D01*
X66631253Y-80468866D01*
X66759040Y-80326944D01*
X66854527Y-80161556D01*
X66913542Y-79979928D01*
X66933504Y-79790000D01*
X66913542Y-79600072D01*
X66877530Y-79489240D01*
X66854527Y-79418443D01*
X66759041Y-79253057D01*
X66631252Y-79111133D01*
X66507378Y-79021133D01*
X66478289Y-78999999D01*
X71086496Y-78999999D01*
X71106458Y-79189929D01*
X71165472Y-79371556D01*
X71260958Y-79536942D01*
X71260960Y-79536944D01*
X71388747Y-79678866D01*
X71427104Y-79706734D01*
X71452065Y-79724870D01*
X71495419Y-79781093D01*
X71503314Y-79839976D01*
X71488471Y-79981206D01*
X71486496Y-80000000D01*
X71496113Y-80091500D01*
X71506458Y-80189929D01*
X71565472Y-80371556D01*
X71660958Y-80536942D01*
X71700734Y-80581118D01*
X71788747Y-80678866D01*
X71943248Y-80791118D01*
X72117712Y-80868794D01*
X72304513Y-80908500D01*
X72304515Y-80908500D01*
X72495485Y-80908500D01*
X72495487Y-80908500D01*
X72682288Y-80868794D01*
X72856752Y-80791118D01*
X72925939Y-80740849D01*
X72992806Y-80716992D01*
X73061958Y-80733072D01*
X73074059Y-80740849D01*
X73143248Y-80791118D01*
X73317712Y-80868794D01*
X73504513Y-80908500D01*
X73504515Y-80908500D01*
X73695485Y-80908500D01*
X73695487Y-80908500D01*
X73882288Y-80868794D01*
X74056752Y-80791118D01*
X74211253Y-80678866D01*
X74339040Y-80536944D01*
X74434527Y-80371556D01*
X74493542Y-80189928D01*
X74513504Y-80000000D01*
X74493542Y-79810072D01*
X74447637Y-79668793D01*
X74434527Y-79628443D01*
X74339041Y-79463057D01*
X74225488Y-79336944D01*
X74211253Y-79321134D01*
X74203238Y-79315311D01*
X74181217Y-79299312D01*
X77987184Y-79299312D01*
X78007146Y-79489241D01*
X78066160Y-79670868D01*
X78161646Y-79836254D01*
X78238072Y-79921134D01*
X78289435Y-79978178D01*
X78443936Y-80090430D01*
X78618400Y-80168106D01*
X78618403Y-80168106D01*
X78628125Y-80172435D01*
X78682220Y-80218415D01*
X78702870Y-80286342D01*
X78702186Y-80300712D01*
X78688623Y-80429760D01*
X78686496Y-80450000D01*
X78695634Y-80536942D01*
X78706458Y-80639929D01*
X78765472Y-80821556D01*
X78860958Y-80986942D01*
X78956097Y-81092605D01*
X78988747Y-81128866D01*
X79143248Y-81241118D01*
X79317712Y-81318794D01*
X79504513Y-81358500D01*
X79504515Y-81358500D01*
X79695485Y-81358500D01*
X79695487Y-81358500D01*
X79882288Y-81318794D01*
X80056752Y-81241118D01*
X80211253Y-81128866D01*
X80282265Y-81049999D01*
X104886496Y-81049999D01*
X104906458Y-81239929D01*
X104965472Y-81421556D01*
X105060958Y-81586942D01*
X105080369Y-81608500D01*
X105188747Y-81728866D01*
X105343248Y-81841118D01*
X105517712Y-81918794D01*
X105704513Y-81958500D01*
X105704515Y-81958500D01*
X105895485Y-81958500D01*
X105895487Y-81958500D01*
X106082288Y-81918794D01*
X106256752Y-81841118D01*
X106411253Y-81728866D01*
X106481467Y-81650884D01*
X106541910Y-81613647D01*
X106612894Y-81614998D01*
X106649162Y-81633261D01*
X106703755Y-81672925D01*
X106743248Y-81701618D01*
X106917712Y-81779294D01*
X107104513Y-81819000D01*
X107104515Y-81819000D01*
X107295485Y-81819000D01*
X107295487Y-81819000D01*
X107482288Y-81779294D01*
X107656752Y-81701618D01*
X107811253Y-81589366D01*
X107886101Y-81506237D01*
X107946546Y-81468999D01*
X108017530Y-81470350D01*
X108073374Y-81506239D01*
X108093748Y-81528867D01*
X108112229Y-81542294D01*
X108248248Y-81641118D01*
X108422712Y-81718794D01*
X108609513Y-81758500D01*
X108609515Y-81758500D01*
X108800485Y-81758500D01*
X108800487Y-81758500D01*
X108987288Y-81718794D01*
X109161752Y-81641118D01*
X109316253Y-81528866D01*
X109444040Y-81386944D01*
X109539527Y-81221556D01*
X109564628Y-81144302D01*
X109604701Y-81085697D01*
X109670098Y-81058060D01*
X109740054Y-81070167D01*
X109792361Y-81118173D01*
X109793580Y-81120239D01*
X109860958Y-81236942D01*
X109970409Y-81358500D01*
X109988747Y-81378866D01*
X110143248Y-81491118D01*
X110317712Y-81568794D01*
X110504513Y-81608500D01*
X110504515Y-81608500D01*
X110695485Y-81608500D01*
X110695487Y-81608500D01*
X110882288Y-81568794D01*
X111056752Y-81491118D01*
X111211253Y-81378866D01*
X111339040Y-81236944D01*
X111434527Y-81071556D01*
X111493542Y-80889928D01*
X111513504Y-80700000D01*
X111493542Y-80510072D01*
X111448398Y-80371133D01*
X111434527Y-80328443D01*
X111339041Y-80163057D01*
X111211252Y-80021133D01*
X111134002Y-79965008D01*
X111056752Y-79908882D01*
X110882288Y-79831206D01*
X110695487Y-79791500D01*
X110504513Y-79791500D01*
X110405486Y-79812549D01*
X110317711Y-79831206D01*
X110143246Y-79908883D01*
X109988747Y-80021133D01*
X109860958Y-80163057D01*
X109765473Y-80328443D01*
X109740371Y-80405697D01*
X109700297Y-80464303D01*
X109634900Y-80491939D01*
X109564943Y-80479832D01*
X109512637Y-80431825D01*
X109511419Y-80429760D01*
X109444041Y-80313057D01*
X109316252Y-80171133D01*
X109233825Y-80111246D01*
X109161752Y-80058882D01*
X108987288Y-79981206D01*
X108800487Y-79941500D01*
X108609513Y-79941500D01*
X108484978Y-79967970D01*
X108422711Y-79981206D01*
X108248246Y-80058883D01*
X108093747Y-80171133D01*
X108018898Y-80254261D01*
X107958451Y-80291500D01*
X107887468Y-80290148D01*
X107831626Y-80254260D01*
X107811253Y-80231634D01*
X107811252Y-80231633D01*
X107811251Y-80231632D01*
X107656753Y-80119383D01*
X107656752Y-80119382D01*
X107482288Y-80041706D01*
X107295487Y-80002000D01*
X107104513Y-80002000D01*
X106979978Y-80028470D01*
X106917711Y-80041706D01*
X106743246Y-80119383D01*
X106588744Y-80231635D01*
X106518532Y-80309613D01*
X106458086Y-80346852D01*
X106387102Y-80345500D01*
X106350836Y-80327238D01*
X106256753Y-80258883D01*
X106256752Y-80258882D01*
X106082288Y-80181206D01*
X105895487Y-80141500D01*
X105704513Y-80141500D01*
X105603101Y-80163056D01*
X105517711Y-80181206D01*
X105343246Y-80258883D01*
X105188747Y-80371133D01*
X105060958Y-80513057D01*
X104965472Y-80678443D01*
X104906458Y-80860070D01*
X104886496Y-81049999D01*
X80282265Y-81049999D01*
X80339040Y-80986944D01*
X80434527Y-80821556D01*
X80493542Y-80639928D01*
X80513504Y-80450000D01*
X80493542Y-80260072D01*
X80434527Y-80078444D01*
X80434527Y-80078443D01*
X80339041Y-79913057D01*
X80211252Y-79771133D01*
X80113346Y-79700000D01*
X80056752Y-79658882D01*
X79882288Y-79581206D01*
X79882284Y-79581205D01*
X79872561Y-79576876D01*
X79818466Y-79530896D01*
X79797816Y-79462969D01*
X79798498Y-79448625D01*
X79814192Y-79299312D01*
X79794230Y-79109384D01*
X79741137Y-78945981D01*
X79735215Y-78927755D01*
X79639729Y-78762369D01*
X79551428Y-78664301D01*
X79511941Y-78620446D01*
X79497662Y-78610072D01*
X79483798Y-78599999D01*
X123386496Y-78599999D01*
X123406458Y-78789929D01*
X123465472Y-78971556D01*
X123560958Y-79136942D01*
X123651000Y-79236944D01*
X123688747Y-79278866D01*
X123843248Y-79391118D01*
X124017712Y-79468794D01*
X124204513Y-79508500D01*
X124204515Y-79508500D01*
X124395485Y-79508500D01*
X124395487Y-79508500D01*
X124582288Y-79468794D01*
X124756752Y-79391118D01*
X124911253Y-79278866D01*
X125039040Y-79136944D01*
X125134527Y-78971556D01*
X125190269Y-78800000D01*
X135086496Y-78800000D01*
X135106458Y-78989929D01*
X135165472Y-79171556D01*
X135260958Y-79336942D01*
X135260960Y-79336944D01*
X135388747Y-79478866D01*
X135543248Y-79591118D01*
X135717712Y-79668794D01*
X135904513Y-79708500D01*
X135904515Y-79708500D01*
X136095485Y-79708500D01*
X136095487Y-79708500D01*
X136282288Y-79668794D01*
X136315804Y-79653871D01*
X136386168Y-79644437D01*
X136450466Y-79674542D01*
X136488280Y-79734630D01*
X136492360Y-79755801D01*
X136501208Y-79839976D01*
X136506458Y-79889929D01*
X136518362Y-79926564D01*
X136520389Y-79997532D01*
X136483727Y-80058330D01*
X136420015Y-80089655D01*
X136398529Y-80091500D01*
X136304513Y-80091500D01*
X136211616Y-80111246D01*
X136117711Y-80131206D01*
X135943246Y-80208883D01*
X135788747Y-80321133D01*
X135660958Y-80463057D01*
X135565472Y-80628443D01*
X135506458Y-80810070D01*
X135486496Y-81000000D01*
X135506458Y-81189929D01*
X135565472Y-81371556D01*
X135660958Y-81536942D01*
X135704636Y-81585451D01*
X135788747Y-81678866D01*
X135943248Y-81791118D01*
X136117712Y-81868794D01*
X136304513Y-81908500D01*
X136304515Y-81908500D01*
X136495485Y-81908500D01*
X136495487Y-81908500D01*
X136682288Y-81868794D01*
X136856752Y-81791118D01*
X137011253Y-81678866D01*
X137036795Y-81650499D01*
X142240496Y-81650499D01*
X142260458Y-81840429D01*
X142319472Y-82022056D01*
X142414958Y-82187442D01*
X142542747Y-82329365D01*
X142542747Y-82329366D01*
X142697248Y-82441618D01*
X142871712Y-82519294D01*
X143058513Y-82559000D01*
X143058515Y-82559000D01*
X143249485Y-82559000D01*
X143249487Y-82559000D01*
X143436288Y-82519294D01*
X143610752Y-82441618D01*
X143765253Y-82329366D01*
X143893040Y-82187444D01*
X143988527Y-82022056D01*
X144047542Y-81840428D01*
X144067504Y-81650500D01*
X144059489Y-81574246D01*
X144072261Y-81504410D01*
X144120763Y-81452563D01*
X144133538Y-81445975D01*
X144256752Y-81391118D01*
X144411253Y-81278866D01*
X144539040Y-81136944D01*
X144634527Y-80971556D01*
X144693542Y-80789928D01*
X144713504Y-80600000D01*
X144693542Y-80410072D01*
X144658409Y-80301944D01*
X144634527Y-80228443D01*
X144608928Y-80184105D01*
X151569674Y-80184105D01*
X151589636Y-80374034D01*
X151648650Y-80555661D01*
X151744136Y-80721047D01*
X151807228Y-80791118D01*
X151871925Y-80862971D01*
X152026426Y-80975223D01*
X152200890Y-81052899D01*
X152387691Y-81092605D01*
X152387693Y-81092605D01*
X152578663Y-81092605D01*
X152578665Y-81092605D01*
X152765466Y-81052899D01*
X152939930Y-80975223D01*
X152963740Y-80957923D01*
X153030605Y-80934067D01*
X153099757Y-80950147D01*
X153149237Y-81001060D01*
X153157632Y-81020925D01*
X153165472Y-81045056D01*
X153260958Y-81210442D01*
X153260960Y-81210444D01*
X153388747Y-81352366D01*
X153543248Y-81464618D01*
X153717712Y-81542294D01*
X153904513Y-81582000D01*
X153904515Y-81582000D01*
X154095485Y-81582000D01*
X154095487Y-81582000D01*
X154282288Y-81542294D01*
X154456752Y-81464618D01*
X154611253Y-81352366D01*
X154739040Y-81210444D01*
X154834527Y-81045056D01*
X154893542Y-80863428D01*
X154913504Y-80673500D01*
X154893542Y-80483572D01*
X154857795Y-80373556D01*
X154834527Y-80301943D01*
X154739041Y-80136557D01*
X154635113Y-80021133D01*
X154611253Y-79994634D01*
X154610621Y-79994175D01*
X154491263Y-79907456D01*
X154456752Y-79882382D01*
X154282288Y-79804706D01*
X154095487Y-79765000D01*
X153904513Y-79765000D01*
X153786903Y-79789999D01*
X153717711Y-79804706D01*
X153543246Y-79882383D01*
X153519439Y-79899680D01*
X153452571Y-79923538D01*
X153383419Y-79907456D01*
X153333940Y-79856542D01*
X153325546Y-79836680D01*
X153323142Y-79829284D01*
X153317705Y-79812549D01*
X153240523Y-79678866D01*
X153222219Y-79647162D01*
X153094430Y-79505238D01*
X152939931Y-79392988D01*
X152939930Y-79392987D01*
X152765466Y-79315311D01*
X152578665Y-79275605D01*
X152387691Y-79275605D01*
X152276164Y-79299311D01*
X152200889Y-79315311D01*
X152152301Y-79336944D01*
X152030629Y-79391116D01*
X152026424Y-79392988D01*
X151871925Y-79505238D01*
X151744136Y-79647162D01*
X151648650Y-79812548D01*
X151589636Y-79994175D01*
X151569674Y-80184105D01*
X144608928Y-80184105D01*
X144539041Y-80063057D01*
X144416142Y-79926564D01*
X144411253Y-79921134D01*
X144256752Y-79808882D01*
X144082288Y-79731206D01*
X143895487Y-79691500D01*
X143704513Y-79691500D01*
X143624535Y-79708500D01*
X143517711Y-79731206D01*
X143423587Y-79773113D01*
X143352628Y-79804706D01*
X143343246Y-79808883D01*
X143188747Y-79921133D01*
X143060958Y-80063057D01*
X142965472Y-80228443D01*
X142906458Y-80410070D01*
X142886496Y-80600000D01*
X142894510Y-80676252D01*
X142881737Y-80746091D01*
X142833235Y-80797937D01*
X142820450Y-80804528D01*
X142697248Y-80859381D01*
X142542747Y-80971633D01*
X142414958Y-81113557D01*
X142319472Y-81278943D01*
X142260458Y-81460570D01*
X142240496Y-81650499D01*
X137036795Y-81650499D01*
X137139040Y-81536944D01*
X137234527Y-81371556D01*
X137293542Y-81189928D01*
X137313504Y-81000000D01*
X137293542Y-80810072D01*
X137281637Y-80773435D01*
X137279611Y-80702468D01*
X137316273Y-80641670D01*
X137379985Y-80610345D01*
X137401471Y-80608500D01*
X137495485Y-80608500D01*
X137495487Y-80608500D01*
X137682288Y-80568794D01*
X137856752Y-80491118D01*
X138011253Y-80378866D01*
X138139040Y-80236944D01*
X138234527Y-80071556D01*
X138293542Y-79889928D01*
X138313504Y-79700000D01*
X138293542Y-79510072D01*
X138255499Y-79392988D01*
X138234527Y-79328443D01*
X138139041Y-79163057D01*
X138011252Y-79021133D01*
X137901344Y-78941280D01*
X137856752Y-78908882D01*
X137682288Y-78831206D01*
X137682287Y-78831205D01*
X137670835Y-78826107D01*
X137616739Y-78780127D01*
X137596090Y-78712199D01*
X137615442Y-78643891D01*
X137668653Y-78596890D01*
X137722084Y-78585000D01*
X137869365Y-78585000D01*
X137869367Y-78585000D01*
X138056168Y-78545294D01*
X138230632Y-78467618D01*
X138385133Y-78355366D01*
X138512920Y-78213444D01*
X138563117Y-78126500D01*
X138886496Y-78126500D01*
X138893163Y-78189929D01*
X138906458Y-78316429D01*
X138965472Y-78498056D01*
X139060958Y-78663442D01*
X139093875Y-78700000D01*
X139188747Y-78805366D01*
X139343248Y-78917618D01*
X139517712Y-78995294D01*
X139704513Y-79035000D01*
X139704515Y-79035000D01*
X139895485Y-79035000D01*
X139895487Y-79035000D01*
X140082288Y-78995294D01*
X140256752Y-78917618D01*
X140411253Y-78805366D01*
X140539040Y-78663444D01*
X140575670Y-78599999D01*
X143586496Y-78599999D01*
X143606458Y-78789929D01*
X143665472Y-78971556D01*
X143760958Y-79136942D01*
X143851000Y-79236944D01*
X143888747Y-79278866D01*
X144043248Y-79391118D01*
X144217712Y-79468794D01*
X144404513Y-79508500D01*
X144404515Y-79508500D01*
X144595485Y-79508500D01*
X144595487Y-79508500D01*
X144782288Y-79468794D01*
X144956752Y-79391118D01*
X145111253Y-79278866D01*
X145239040Y-79136944D01*
X145334527Y-78971556D01*
X145393542Y-78789928D01*
X145413504Y-78600000D01*
X145393542Y-78410072D01*
X145346730Y-78266000D01*
X147971039Y-78266000D01*
X147990820Y-78441562D01*
X148049170Y-78608315D01*
X148049171Y-78608317D01*
X148143165Y-78757909D01*
X148143167Y-78757912D01*
X148268087Y-78882832D01*
X148268089Y-78882833D01*
X148268091Y-78882835D01*
X148417683Y-78976829D01*
X148483899Y-78999999D01*
X148583925Y-79035000D01*
X148584440Y-79035180D01*
X148715970Y-79050000D01*
X148719505Y-79050000D01*
X148800495Y-79050000D01*
X148804030Y-79050000D01*
X148935560Y-79035180D01*
X149102317Y-78976829D01*
X149251909Y-78882835D01*
X149376835Y-78757909D01*
X149413221Y-78700000D01*
X154286496Y-78700000D01*
X154306458Y-78889929D01*
X154365472Y-79071556D01*
X154460958Y-79236942D01*
X154551000Y-79336944D01*
X154588747Y-79378866D01*
X154743248Y-79491118D01*
X154917712Y-79568794D01*
X155104513Y-79608500D01*
X155104515Y-79608500D01*
X155295485Y-79608500D01*
X155295487Y-79608500D01*
X155482288Y-79568794D01*
X155656752Y-79491118D01*
X155811253Y-79378866D01*
X155939040Y-79236944D01*
X156034527Y-79071556D01*
X156093542Y-78889928D01*
X156113504Y-78700000D01*
X156093542Y-78510072D01*
X156034527Y-78328444D01*
X156034527Y-78328443D01*
X155939041Y-78163057D01*
X155811252Y-78021133D01*
X155713344Y-77949999D01*
X155656752Y-77908882D01*
X155482288Y-77831206D01*
X155295487Y-77791500D01*
X155104513Y-77791500D01*
X154979979Y-77817970D01*
X154917711Y-77831206D01*
X154743246Y-77908883D01*
X154588747Y-78021133D01*
X154460958Y-78163057D01*
X154365472Y-78328443D01*
X154306458Y-78510070D01*
X154286496Y-78700000D01*
X149413221Y-78700000D01*
X149470829Y-78608317D01*
X149529180Y-78441560D01*
X149548961Y-78266000D01*
X149529180Y-78090440D01*
X149470829Y-77923683D01*
X149376835Y-77774091D01*
X149376833Y-77774089D01*
X149376832Y-77774087D01*
X149251912Y-77649167D01*
X149159527Y-77591118D01*
X149102317Y-77555171D01*
X149102316Y-77555170D01*
X149102315Y-77555170D01*
X148935562Y-77496820D01*
X148807539Y-77482395D01*
X148807532Y-77482394D01*
X148804030Y-77482000D01*
X148715970Y-77482000D01*
X148712468Y-77482394D01*
X148712460Y-77482395D01*
X148584437Y-77496820D01*
X148417684Y-77555170D01*
X148268087Y-77649167D01*
X148143167Y-77774087D01*
X148049170Y-77923684D01*
X147990820Y-78090437D01*
X147971039Y-78266000D01*
X145346730Y-78266000D01*
X145334527Y-78228444D01*
X145334527Y-78228443D01*
X145239041Y-78063057D01*
X145111252Y-77921133D01*
X144956753Y-77808883D01*
X144956752Y-77808882D01*
X144782288Y-77731206D01*
X144595487Y-77691500D01*
X144404513Y-77691500D01*
X144324535Y-77708500D01*
X144217711Y-77731206D01*
X144043246Y-77808883D01*
X143888747Y-77921133D01*
X143760958Y-78063057D01*
X143665472Y-78228443D01*
X143606458Y-78410070D01*
X143586496Y-78599999D01*
X140575670Y-78599999D01*
X140634527Y-78498056D01*
X140693542Y-78316428D01*
X140713504Y-78126500D01*
X140693542Y-77936572D01*
X140646405Y-77791500D01*
X140634527Y-77754943D01*
X140539041Y-77589557D01*
X140411252Y-77447633D01*
X140256753Y-77335383D01*
X140256752Y-77335382D01*
X140082288Y-77257706D01*
X140046034Y-77250000D01*
X153051039Y-77250000D01*
X153070820Y-77425562D01*
X153129170Y-77592315D01*
X153223167Y-77741912D01*
X153348087Y-77866832D01*
X153348089Y-77866833D01*
X153348091Y-77866835D01*
X153497683Y-77960829D01*
X153664440Y-78019180D01*
X153795970Y-78034000D01*
X153799505Y-78034000D01*
X153880495Y-78034000D01*
X153884030Y-78034000D01*
X154015560Y-78019180D01*
X154182317Y-77960829D01*
X154331909Y-77866835D01*
X154456835Y-77741909D01*
X154550829Y-77592317D01*
X154609180Y-77425560D01*
X154628961Y-77250000D01*
X154609180Y-77074440D01*
X154550829Y-76907683D01*
X154456835Y-76758091D01*
X154456833Y-76758089D01*
X154456832Y-76758087D01*
X154331912Y-76633167D01*
X154182315Y-76539170D01*
X154015562Y-76480820D01*
X153887539Y-76466395D01*
X153887532Y-76466394D01*
X153884030Y-76466000D01*
X153795970Y-76466000D01*
X153792468Y-76466394D01*
X153792460Y-76466395D01*
X153664437Y-76480820D01*
X153497684Y-76539170D01*
X153348087Y-76633167D01*
X153223167Y-76758087D01*
X153129170Y-76907684D01*
X153070820Y-77074437D01*
X153051039Y-77250000D01*
X140046034Y-77250000D01*
X139895487Y-77218000D01*
X139704513Y-77218000D01*
X139579979Y-77244470D01*
X139517711Y-77257706D01*
X139343246Y-77335383D01*
X139188747Y-77447633D01*
X139060958Y-77589557D01*
X138965473Y-77754942D01*
X138912681Y-77917419D01*
X138906532Y-77926411D01*
X138906980Y-77928115D01*
X138906341Y-77937682D01*
X138886496Y-78126500D01*
X138563117Y-78126500D01*
X138608407Y-78048056D01*
X138661199Y-77885578D01*
X138667346Y-77876588D01*
X138666899Y-77874884D01*
X138667535Y-77865347D01*
X138687384Y-77676500D01*
X138667422Y-77486572D01*
X138618804Y-77336942D01*
X138608407Y-77304943D01*
X138512921Y-77139557D01*
X138385132Y-76997633D01*
X138261328Y-76907684D01*
X138230632Y-76885382D01*
X138056168Y-76807706D01*
X137869367Y-76768000D01*
X137678393Y-76768000D01*
X137553858Y-76794470D01*
X137491591Y-76807706D01*
X137317126Y-76885383D01*
X137162627Y-76997633D01*
X137034838Y-77139557D01*
X136939352Y-77304943D01*
X136880338Y-77486570D01*
X136880337Y-77486572D01*
X136880338Y-77486572D01*
X136860376Y-77676500D01*
X136868621Y-77754943D01*
X136880338Y-77866429D01*
X136939352Y-78048056D01*
X137034838Y-78213442D01*
X137127567Y-78316428D01*
X137162627Y-78355366D01*
X137317128Y-78467618D01*
X137491592Y-78545294D01*
X137491593Y-78545294D01*
X137503045Y-78550393D01*
X137557141Y-78596373D01*
X137577790Y-78664301D01*
X137558438Y-78732609D01*
X137505227Y-78779610D01*
X137451796Y-78791500D01*
X137304513Y-78791500D01*
X137191139Y-78815598D01*
X137117706Y-78831207D01*
X137084194Y-78846128D01*
X137013827Y-78855562D01*
X136949531Y-78825455D01*
X136911718Y-78765365D01*
X136907639Y-78744205D01*
X136893542Y-78610072D01*
X136857777Y-78499999D01*
X136834527Y-78428443D01*
X136739041Y-78263057D01*
X136628175Y-78139928D01*
X136611253Y-78121134D01*
X136569002Y-78090437D01*
X136470926Y-78019180D01*
X136456752Y-78008882D01*
X136282288Y-77931206D01*
X136095487Y-77891500D01*
X135904513Y-77891500D01*
X135782574Y-77917419D01*
X135717711Y-77931206D01*
X135543246Y-78008883D01*
X135388747Y-78121133D01*
X135260958Y-78263057D01*
X135165472Y-78428443D01*
X135106458Y-78610070D01*
X135086496Y-78800000D01*
X125190269Y-78800000D01*
X125193542Y-78789928D01*
X125213504Y-78600000D01*
X125193542Y-78410072D01*
X125134527Y-78228444D01*
X125134527Y-78228443D01*
X125039041Y-78063057D01*
X124911252Y-77921133D01*
X124756753Y-77808883D01*
X124756752Y-77808882D01*
X124582288Y-77731206D01*
X124395487Y-77691500D01*
X124204513Y-77691500D01*
X124124535Y-77708500D01*
X124017711Y-77731206D01*
X123843246Y-77808883D01*
X123688747Y-77921133D01*
X123560958Y-78063057D01*
X123465472Y-78228443D01*
X123406458Y-78410070D01*
X123386496Y-78599999D01*
X79483798Y-78599999D01*
X79415522Y-78550393D01*
X79357440Y-78508194D01*
X79182976Y-78430518D01*
X78996175Y-78390812D01*
X78805201Y-78390812D01*
X78680667Y-78417282D01*
X78618399Y-78430518D01*
X78478384Y-78492856D01*
X78466707Y-78498056D01*
X78443934Y-78508195D01*
X78289435Y-78620445D01*
X78161646Y-78762369D01*
X78066160Y-78927755D01*
X78007146Y-79109382D01*
X77987184Y-79299312D01*
X74181217Y-79299312D01*
X74056753Y-79208883D01*
X74056752Y-79208882D01*
X73882288Y-79131206D01*
X73695487Y-79091500D01*
X73504513Y-79091500D01*
X73412148Y-79111133D01*
X73317711Y-79131206D01*
X73246175Y-79163056D01*
X73143248Y-79208882D01*
X73143246Y-79208883D01*
X73143247Y-79208883D01*
X73099691Y-79240528D01*
X73032823Y-79264386D01*
X72963672Y-79248305D01*
X72914192Y-79197390D01*
X72900093Y-79127808D01*
X72900311Y-79125522D01*
X72913504Y-79000000D01*
X72893542Y-78810072D01*
X72834527Y-78628444D01*
X72796741Y-78562997D01*
X72780004Y-78494005D01*
X72796741Y-78437001D01*
X72834527Y-78371556D01*
X72893542Y-78189928D01*
X72913504Y-78000000D01*
X72893542Y-77810072D01*
X72855015Y-77691500D01*
X72834527Y-77628443D01*
X72739041Y-77463057D01*
X72625488Y-77336944D01*
X72611253Y-77321134D01*
X72604584Y-77316289D01*
X72513344Y-77249999D01*
X72456752Y-77208882D01*
X72282288Y-77131206D01*
X72095487Y-77091500D01*
X71904513Y-77091500D01*
X71779979Y-77117970D01*
X71717711Y-77131206D01*
X71543246Y-77208883D01*
X71388747Y-77321133D01*
X71260958Y-77463057D01*
X71165472Y-77628443D01*
X71106458Y-77810070D01*
X71094785Y-77921133D01*
X71086496Y-78000000D01*
X71094077Y-78072128D01*
X71106458Y-78189929D01*
X71165472Y-78371556D01*
X71203256Y-78436999D01*
X71219994Y-78505995D01*
X71203257Y-78562998D01*
X71165472Y-78628444D01*
X71106458Y-78810070D01*
X71086496Y-78999999D01*
X66478289Y-78999999D01*
X66476752Y-78998882D01*
X66302288Y-78921206D01*
X66115487Y-78881500D01*
X65924513Y-78881500D01*
X65799978Y-78907970D01*
X65737711Y-78921206D01*
X65563246Y-78998883D01*
X65408747Y-79111133D01*
X65280958Y-79253057D01*
X65185472Y-79418443D01*
X65126458Y-79600070D01*
X65106496Y-79790000D01*
X54272800Y-79790000D01*
X54175435Y-79652335D01*
X54172447Y-79647913D01*
X54171962Y-79647162D01*
X53673548Y-78874895D01*
X53670747Y-78870346D01*
X53205074Y-78076797D01*
X53202466Y-78072128D01*
X53168876Y-78008882D01*
X53137603Y-77950000D01*
X54536496Y-77950000D01*
X54556458Y-78139929D01*
X54615472Y-78321556D01*
X54710958Y-78486942D01*
X54768090Y-78550393D01*
X54838747Y-78628866D01*
X54993248Y-78741118D01*
X55167712Y-78818794D01*
X55354513Y-78858500D01*
X55354515Y-78858500D01*
X55545485Y-78858500D01*
X55545487Y-78858500D01*
X55732288Y-78818794D01*
X55906752Y-78741118D01*
X56061253Y-78628866D01*
X56189040Y-78486944D01*
X56284527Y-78321556D01*
X56343542Y-78139928D01*
X56363504Y-77950000D01*
X56343542Y-77760072D01*
X56312931Y-77665862D01*
X56284527Y-77578443D01*
X56189041Y-77413057D01*
X56061252Y-77271133D01*
X55906753Y-77158883D01*
X55906752Y-77158882D01*
X55732288Y-77081206D01*
X55545487Y-77041500D01*
X55354513Y-77041500D01*
X55229978Y-77067970D01*
X55167711Y-77081206D01*
X54993246Y-77158883D01*
X54838747Y-77271133D01*
X54710958Y-77413057D01*
X54615472Y-77578443D01*
X54556458Y-77760070D01*
X54536496Y-77950000D01*
X53137603Y-77950000D01*
X52770908Y-77259561D01*
X52768509Y-77254803D01*
X52766213Y-77249999D01*
X52551184Y-76800000D01*
X63486496Y-76800000D01*
X63506458Y-76989929D01*
X63565472Y-77171556D01*
X63660958Y-77336942D01*
X63660960Y-77336944D01*
X63788747Y-77478866D01*
X63943248Y-77591118D01*
X64117712Y-77668794D01*
X64304513Y-77708500D01*
X64304515Y-77708500D01*
X64495485Y-77708500D01*
X64495487Y-77708500D01*
X64682288Y-77668794D01*
X64856752Y-77591118D01*
X65011253Y-77478866D01*
X65139040Y-77336944D01*
X65234527Y-77171556D01*
X65293542Y-76989928D01*
X65313504Y-76800000D01*
X65293542Y-76610072D01*
X65234527Y-76428444D01*
X65234527Y-76428443D01*
X65139041Y-76263057D01*
X65011252Y-76121133D01*
X64856753Y-76008883D01*
X64856752Y-76008882D01*
X64682288Y-75931206D01*
X64495487Y-75891500D01*
X64304513Y-75891500D01*
X64179978Y-75917970D01*
X64117711Y-75931206D01*
X63943246Y-76008883D01*
X63788747Y-76121133D01*
X63660958Y-76263057D01*
X63565472Y-76428443D01*
X63506458Y-76610070D01*
X63486496Y-76800000D01*
X52551184Y-76800000D01*
X52371823Y-76424645D01*
X52369623Y-76419776D01*
X52302750Y-76263056D01*
X52008527Y-75573532D01*
X52006554Y-75568624D01*
X51941921Y-75397357D01*
X55841500Y-75397357D01*
X55841501Y-75400544D01*
X55852113Y-75504426D01*
X55907885Y-75672738D01*
X55950660Y-75742087D01*
X56000972Y-75823655D01*
X56126344Y-75949027D01*
X56126346Y-75949028D01*
X56126348Y-75949030D01*
X56277262Y-76042115D01*
X56445574Y-76097887D01*
X56521637Y-76105658D01*
X56546253Y-76108173D01*
X56546255Y-76108173D01*
X56549455Y-76108500D01*
X58150544Y-76108499D01*
X58254426Y-76097887D01*
X58422738Y-76042115D01*
X58573652Y-75949030D01*
X58699030Y-75823652D01*
X58792115Y-75672738D01*
X58847887Y-75504426D01*
X58858500Y-75400545D01*
X58858500Y-75300000D01*
X111959996Y-75300000D01*
X111979958Y-75489929D01*
X112038972Y-75671556D01*
X112134458Y-75836942D01*
X112224500Y-75936944D01*
X112262247Y-75978866D01*
X112416748Y-76091118D01*
X112591212Y-76168794D01*
X112778013Y-76208500D01*
X112778015Y-76208500D01*
X112968985Y-76208500D01*
X112968987Y-76208500D01*
X113155788Y-76168794D01*
X113330252Y-76091118D01*
X113484753Y-75978866D01*
X113612540Y-75836944D01*
X113708027Y-75671556D01*
X113767042Y-75489928D01*
X113776494Y-75399999D01*
X128686496Y-75399999D01*
X128706458Y-75589929D01*
X128765472Y-75771556D01*
X128860958Y-75936942D01*
X128871842Y-75949030D01*
X128988747Y-76078866D01*
X129143248Y-76191118D01*
X129317712Y-76268794D01*
X129504513Y-76308500D01*
X129504515Y-76308500D01*
X129695485Y-76308500D01*
X129695487Y-76308500D01*
X129882288Y-76268794D01*
X130056752Y-76191118D01*
X130125939Y-76140849D01*
X130192806Y-76116992D01*
X130261958Y-76133072D01*
X130274059Y-76140849D01*
X130343248Y-76191118D01*
X130517712Y-76268794D01*
X130704513Y-76308500D01*
X130704515Y-76308500D01*
X130895485Y-76308500D01*
X130895487Y-76308500D01*
X131082288Y-76268794D01*
X131160437Y-76234000D01*
X147971039Y-76234000D01*
X147990820Y-76409562D01*
X148036173Y-76539171D01*
X148049171Y-76576317D01*
X148084891Y-76633165D01*
X148143167Y-76725912D01*
X148268087Y-76850832D01*
X148268089Y-76850833D01*
X148268091Y-76850835D01*
X148417683Y-76944829D01*
X148584440Y-77003180D01*
X148715970Y-77018000D01*
X148719505Y-77018000D01*
X148800495Y-77018000D01*
X148804030Y-77018000D01*
X148935560Y-77003180D01*
X149102317Y-76944829D01*
X149251909Y-76850835D01*
X149376835Y-76725909D01*
X149470829Y-76576317D01*
X149529180Y-76409560D01*
X149548961Y-76234000D01*
X149529180Y-76058440D01*
X149470829Y-75891683D01*
X149376835Y-75742091D01*
X149376833Y-75742089D01*
X149376832Y-75742087D01*
X149251912Y-75617167D01*
X149251909Y-75617165D01*
X149102317Y-75523171D01*
X149102316Y-75523170D01*
X149102315Y-75523170D01*
X148935562Y-75464820D01*
X148807539Y-75450395D01*
X148807532Y-75450394D01*
X148804030Y-75450000D01*
X148715970Y-75450000D01*
X148712468Y-75450394D01*
X148712460Y-75450395D01*
X148584437Y-75464820D01*
X148417684Y-75523170D01*
X148268087Y-75617167D01*
X148143167Y-75742087D01*
X148049170Y-75891684D01*
X147990820Y-76058437D01*
X147971039Y-76234000D01*
X131160437Y-76234000D01*
X131256752Y-76191118D01*
X131411253Y-76078866D01*
X131539040Y-75936944D01*
X131634527Y-75771556D01*
X131693542Y-75589928D01*
X131713504Y-75400000D01*
X131702994Y-75300000D01*
X151311496Y-75300000D01*
X151331458Y-75489929D01*
X151390472Y-75671556D01*
X151485958Y-75836942D01*
X151576000Y-75936944D01*
X151613747Y-75978866D01*
X151768248Y-76091118D01*
X151942712Y-76168794D01*
X152129513Y-76208500D01*
X152129515Y-76208500D01*
X152320485Y-76208500D01*
X152320487Y-76208500D01*
X152507288Y-76168794D01*
X152681752Y-76091118D01*
X152836253Y-75978866D01*
X152964040Y-75836944D01*
X153059527Y-75671556D01*
X153118542Y-75489928D01*
X153138504Y-75300000D01*
X153118542Y-75110072D01*
X153062288Y-74936942D01*
X153059527Y-74928443D01*
X152964041Y-74763057D01*
X152836252Y-74621133D01*
X152712478Y-74531206D01*
X152681752Y-74508882D01*
X152507288Y-74431206D01*
X152360476Y-74400000D01*
X158912996Y-74400000D01*
X158932958Y-74589929D01*
X158991972Y-74771556D01*
X159087458Y-74936942D01*
X159087460Y-74936944D01*
X159215247Y-75078866D01*
X159369748Y-75191118D01*
X159544212Y-75268794D01*
X159731013Y-75308500D01*
X159731015Y-75308500D01*
X159921985Y-75308500D01*
X159921987Y-75308500D01*
X160108788Y-75268794D01*
X160283252Y-75191118D01*
X160437753Y-75078866D01*
X160565540Y-74936944D01*
X160661027Y-74771556D01*
X160720042Y-74589928D01*
X160740004Y-74400000D01*
X160720042Y-74210072D01*
X160661027Y-74028444D01*
X160661027Y-74028443D01*
X160565541Y-73863057D01*
X160437752Y-73721133D01*
X160360502Y-73665007D01*
X160283252Y-73608882D01*
X160108788Y-73531206D01*
X159921987Y-73491500D01*
X159731013Y-73491500D01*
X159606478Y-73517970D01*
X159544211Y-73531206D01*
X159369746Y-73608883D01*
X159215247Y-73721133D01*
X159087458Y-73863057D01*
X158991972Y-74028443D01*
X158932958Y-74210070D01*
X158912996Y-74400000D01*
X152360476Y-74400000D01*
X152320487Y-74391500D01*
X152129513Y-74391500D01*
X152004978Y-74417970D01*
X151942711Y-74431206D01*
X151768246Y-74508883D01*
X151613747Y-74621133D01*
X151485958Y-74763057D01*
X151390472Y-74928443D01*
X151331458Y-75110070D01*
X151311496Y-75300000D01*
X131702994Y-75300000D01*
X131693542Y-75210072D01*
X131634527Y-75028444D01*
X131634527Y-75028443D01*
X131539041Y-74863057D01*
X131411252Y-74721133D01*
X131325938Y-74659149D01*
X131256752Y-74608882D01*
X131082288Y-74531206D01*
X130895487Y-74491500D01*
X130704513Y-74491500D01*
X130579979Y-74517970D01*
X130517711Y-74531206D01*
X130343246Y-74608883D01*
X130274061Y-74659149D01*
X130207193Y-74683008D01*
X130138041Y-74666927D01*
X130125939Y-74659149D01*
X130056753Y-74608883D01*
X130056752Y-74608882D01*
X129882288Y-74531206D01*
X129695487Y-74491500D01*
X129504513Y-74491500D01*
X129379979Y-74517970D01*
X129317711Y-74531206D01*
X129143246Y-74608883D01*
X128988747Y-74721133D01*
X128860958Y-74863057D01*
X128765472Y-75028443D01*
X128706458Y-75210070D01*
X128686496Y-75399999D01*
X113776494Y-75399999D01*
X113787004Y-75300000D01*
X113767042Y-75110072D01*
X113710789Y-74936944D01*
X113708708Y-74930538D01*
X113706681Y-74859570D01*
X113743343Y-74798772D01*
X113777288Y-74776497D01*
X113856752Y-74741118D01*
X114011253Y-74628866D01*
X114139040Y-74486944D01*
X114234527Y-74321556D01*
X114293542Y-74139928D01*
X114313504Y-73950000D01*
X114293542Y-73760072D01*
X114262931Y-73665862D01*
X114246490Y-73615260D01*
X147401756Y-73615260D01*
X147421718Y-73805189D01*
X147480732Y-73986816D01*
X147576218Y-74152202D01*
X147704007Y-74294125D01*
X147704007Y-74294126D01*
X147858508Y-74406378D01*
X148032972Y-74484054D01*
X148219773Y-74523760D01*
X148219775Y-74523760D01*
X148410745Y-74523760D01*
X148410747Y-74523760D01*
X148597548Y-74484054D01*
X148772012Y-74406378D01*
X148926513Y-74294126D01*
X149054300Y-74152204D01*
X149149787Y-73986816D01*
X149208802Y-73805188D01*
X149228764Y-73615260D01*
X149208802Y-73425332D01*
X149158700Y-73271134D01*
X149149787Y-73243703D01*
X149054301Y-73078317D01*
X148926512Y-72936393D01*
X148772013Y-72824143D01*
X148772012Y-72824142D01*
X148597548Y-72746466D01*
X148410747Y-72706760D01*
X148219773Y-72706760D01*
X148095239Y-72733230D01*
X148032971Y-72746466D01*
X147858506Y-72824143D01*
X147704007Y-72936393D01*
X147576218Y-73078317D01*
X147480732Y-73243703D01*
X147421718Y-73425330D01*
X147401756Y-73615260D01*
X114246490Y-73615260D01*
X114234527Y-73578443D01*
X114139041Y-73413057D01*
X114011252Y-73271133D01*
X113856753Y-73158883D01*
X113856752Y-73158882D01*
X113682288Y-73081206D01*
X113495487Y-73041500D01*
X113304513Y-73041500D01*
X113179979Y-73067970D01*
X113117711Y-73081206D01*
X112943246Y-73158883D01*
X112788747Y-73271133D01*
X112660958Y-73413057D01*
X112565472Y-73578443D01*
X112506458Y-73760070D01*
X112486496Y-73950000D01*
X112506458Y-74139929D01*
X112564792Y-74319461D01*
X112566819Y-74390429D01*
X112530157Y-74451226D01*
X112496209Y-74473503D01*
X112416748Y-74508881D01*
X112262247Y-74621133D01*
X112134458Y-74763057D01*
X112038972Y-74928443D01*
X111979958Y-75110070D01*
X111959996Y-75300000D01*
X58858500Y-75300000D01*
X58858499Y-74099456D01*
X58847887Y-73995574D01*
X58792115Y-73827262D01*
X58699030Y-73676348D01*
X58699028Y-73676346D01*
X58699027Y-73676344D01*
X58573655Y-73550972D01*
X58573652Y-73550970D01*
X58422738Y-73457885D01*
X58254426Y-73402113D01*
X58254423Y-73402112D01*
X58254421Y-73402112D01*
X58153746Y-73391826D01*
X58153725Y-73391824D01*
X58150545Y-73391500D01*
X58147339Y-73391500D01*
X56552661Y-73391500D01*
X56552641Y-73391500D01*
X56549456Y-73391501D01*
X56546279Y-73391825D01*
X56546270Y-73391826D01*
X56445573Y-73402113D01*
X56277262Y-73457885D01*
X56126344Y-73550972D01*
X56000972Y-73676344D01*
X55949829Y-73759259D01*
X55907885Y-73827262D01*
X55852113Y-73995574D01*
X55852112Y-73995578D01*
X55841826Y-74096253D01*
X55841825Y-74096270D01*
X55841500Y-74099455D01*
X55841500Y-74102659D01*
X55841500Y-74102660D01*
X55841500Y-75397338D01*
X55841500Y-75397357D01*
X51941921Y-75397357D01*
X51681677Y-74707757D01*
X51679906Y-74702743D01*
X51668100Y-74666927D01*
X51391877Y-73828920D01*
X51390311Y-73823806D01*
X51348555Y-73676348D01*
X51139632Y-72938561D01*
X51138288Y-72933399D01*
X51127949Y-72889929D01*
X50925403Y-72038302D01*
X50924277Y-72033077D01*
X50879199Y-71800000D01*
X55486496Y-71800000D01*
X55506458Y-71989929D01*
X55565472Y-72171556D01*
X55660958Y-72336942D01*
X55660960Y-72336944D01*
X55788747Y-72478866D01*
X55943248Y-72591118D01*
X56117712Y-72668794D01*
X56304513Y-72708500D01*
X56304515Y-72708500D01*
X56495485Y-72708500D01*
X56495487Y-72708500D01*
X56682288Y-72668794D01*
X56856752Y-72591118D01*
X57011253Y-72478866D01*
X57011252Y-72478866D01*
X57021967Y-72471082D01*
X57023774Y-72473570D01*
X57066801Y-72447058D01*
X57137785Y-72448405D01*
X57176453Y-72473255D01*
X57178033Y-72471082D01*
X57188747Y-72478866D01*
X57343248Y-72591118D01*
X57517712Y-72668794D01*
X57704513Y-72708500D01*
X57704515Y-72708500D01*
X57895485Y-72708500D01*
X57895487Y-72708500D01*
X58082288Y-72668794D01*
X58256752Y-72591118D01*
X58411253Y-72478866D01*
X58411252Y-72478866D01*
X58421967Y-72471082D01*
X58423774Y-72473570D01*
X58466801Y-72447058D01*
X58537785Y-72448405D01*
X58576453Y-72473255D01*
X58578033Y-72471082D01*
X58588747Y-72478866D01*
X58743248Y-72591118D01*
X58917712Y-72668794D01*
X59104513Y-72708500D01*
X59104515Y-72708500D01*
X59295485Y-72708500D01*
X59295487Y-72708500D01*
X59482288Y-72668794D01*
X59656752Y-72591118D01*
X59811253Y-72478866D01*
X59882265Y-72399999D01*
X71486496Y-72399999D01*
X71506458Y-72589929D01*
X71565472Y-72771556D01*
X71660958Y-72936942D01*
X71782165Y-73071556D01*
X71788747Y-73078866D01*
X71943248Y-73191118D01*
X72117712Y-73268794D01*
X72304513Y-73308500D01*
X72304515Y-73308500D01*
X72495485Y-73308500D01*
X72495487Y-73308500D01*
X72682288Y-73268794D01*
X72856752Y-73191118D01*
X73011253Y-73078866D01*
X73139040Y-72936944D01*
X73234527Y-72771556D01*
X73257777Y-72700000D01*
X152886496Y-72700000D01*
X152906458Y-72889929D01*
X152965472Y-73071556D01*
X153060958Y-73236942D01*
X153060960Y-73236944D01*
X153188747Y-73378866D01*
X153343248Y-73491118D01*
X153517712Y-73568794D01*
X153704513Y-73608500D01*
X153704515Y-73608500D01*
X153895485Y-73608500D01*
X153895487Y-73608500D01*
X154082288Y-73568794D01*
X154256752Y-73491118D01*
X154411253Y-73378866D01*
X154539040Y-73236944D01*
X154634527Y-73071556D01*
X154693542Y-72889928D01*
X154713504Y-72700000D01*
X154693542Y-72510072D01*
X154634527Y-72328444D01*
X154634527Y-72328443D01*
X154539041Y-72163057D01*
X154424371Y-72035703D01*
X154411253Y-72021134D01*
X154256752Y-71908882D01*
X154082288Y-71831206D01*
X153895487Y-71791500D01*
X153704513Y-71791500D01*
X153579979Y-71817970D01*
X153517711Y-71831206D01*
X153343246Y-71908883D01*
X153188747Y-72021133D01*
X153060958Y-72163057D01*
X152965472Y-72328443D01*
X152906458Y-72510070D01*
X152886496Y-72700000D01*
X73257777Y-72700000D01*
X73293542Y-72589928D01*
X73313504Y-72400000D01*
X73293542Y-72210072D01*
X73257470Y-72099056D01*
X73234527Y-72028443D01*
X73139041Y-71863057D01*
X73016984Y-71727499D01*
X74401116Y-71727499D01*
X74421078Y-71917429D01*
X74480092Y-72099056D01*
X74575578Y-72264442D01*
X74615248Y-72308500D01*
X74703367Y-72406366D01*
X74857868Y-72518618D01*
X75032332Y-72596294D01*
X75219133Y-72636000D01*
X75219135Y-72636000D01*
X75410105Y-72636000D01*
X75410107Y-72636000D01*
X75596908Y-72596294D01*
X75771372Y-72518618D01*
X75925873Y-72406366D01*
X76053660Y-72264444D01*
X76149147Y-72099056D01*
X76208162Y-71917428D01*
X76228124Y-71727500D01*
X76228019Y-71726499D01*
X145909996Y-71726499D01*
X145929958Y-71916429D01*
X145988972Y-72098056D01*
X146084458Y-72263442D01*
X146141778Y-72327102D01*
X146212247Y-72405366D01*
X146366748Y-72517618D01*
X146541212Y-72595294D01*
X146728013Y-72635000D01*
X146728015Y-72635000D01*
X146918985Y-72635000D01*
X146918987Y-72635000D01*
X147105788Y-72595294D01*
X147280252Y-72517618D01*
X147434753Y-72405366D01*
X147562540Y-72263444D01*
X147658027Y-72098056D01*
X147717042Y-71916428D01*
X147737004Y-71726500D01*
X147737004Y-71726499D01*
X149978996Y-71726499D01*
X149998958Y-71916429D01*
X150057972Y-72098056D01*
X150153458Y-72263442D01*
X150210778Y-72327102D01*
X150281247Y-72405366D01*
X150435748Y-72517618D01*
X150610212Y-72595294D01*
X150797013Y-72635000D01*
X150797015Y-72635000D01*
X150987985Y-72635000D01*
X150987987Y-72635000D01*
X151174788Y-72595294D01*
X151349252Y-72517618D01*
X151503753Y-72405366D01*
X151631540Y-72263444D01*
X151727027Y-72098056D01*
X151786042Y-71916428D01*
X151806004Y-71726500D01*
X151786042Y-71536572D01*
X151750909Y-71428444D01*
X151727027Y-71354943D01*
X151631541Y-71189557D01*
X151504653Y-71048634D01*
X151503753Y-71047634D01*
X151501110Y-71045714D01*
X151362674Y-70945134D01*
X151349252Y-70935382D01*
X151174788Y-70857706D01*
X150987987Y-70818000D01*
X150797013Y-70818000D01*
X150672479Y-70844470D01*
X150610211Y-70857706D01*
X150534309Y-70891500D01*
X150445128Y-70931206D01*
X150435746Y-70935383D01*
X150281247Y-71047633D01*
X150153458Y-71189557D01*
X150057972Y-71354943D01*
X149998958Y-71536570D01*
X149978996Y-71726499D01*
X147737004Y-71726499D01*
X147717042Y-71536572D01*
X147681909Y-71428444D01*
X147658027Y-71354943D01*
X147562541Y-71189557D01*
X147435653Y-71048634D01*
X147434753Y-71047634D01*
X147432110Y-71045714D01*
X147293674Y-70945134D01*
X147280252Y-70935382D01*
X147105788Y-70857706D01*
X146918987Y-70818000D01*
X146728013Y-70818000D01*
X146603478Y-70844470D01*
X146541211Y-70857706D01*
X146465309Y-70891500D01*
X146376128Y-70931206D01*
X146366746Y-70935383D01*
X146212247Y-71047633D01*
X146084458Y-71189557D01*
X145988972Y-71354943D01*
X145929958Y-71536570D01*
X145909996Y-71726499D01*
X76228019Y-71726499D01*
X76208162Y-71537572D01*
X76163462Y-71400000D01*
X76149147Y-71355943D01*
X76053661Y-71190557D01*
X75925872Y-71048633D01*
X75771373Y-70936383D01*
X75771372Y-70936382D01*
X75596908Y-70858706D01*
X75410107Y-70819000D01*
X75219133Y-70819000D01*
X75134714Y-70836944D01*
X75032331Y-70858706D01*
X74857866Y-70936383D01*
X74703367Y-71048633D01*
X74575578Y-71190557D01*
X74480092Y-71355943D01*
X74421078Y-71537570D01*
X74401116Y-71727499D01*
X73016984Y-71727499D01*
X73011253Y-71721134D01*
X72856752Y-71608882D01*
X72682288Y-71531206D01*
X72495487Y-71491500D01*
X72304513Y-71491500D01*
X72179978Y-71517970D01*
X72117711Y-71531206D01*
X71943246Y-71608883D01*
X71788747Y-71721133D01*
X71660958Y-71863057D01*
X71565472Y-72028443D01*
X71506458Y-72210070D01*
X71486496Y-72399999D01*
X59882265Y-72399999D01*
X59939040Y-72336944D01*
X59939039Y-72336944D01*
X59947902Y-72327102D01*
X59949546Y-72328583D01*
X59988288Y-72291638D01*
X60058001Y-72278198D01*
X60072229Y-72280382D01*
X60204511Y-72308500D01*
X60204513Y-72308500D01*
X60395485Y-72308500D01*
X60395487Y-72308500D01*
X60582288Y-72268794D01*
X60756752Y-72191118D01*
X60911253Y-72078866D01*
X61039040Y-71936944D01*
X61134527Y-71771556D01*
X61193542Y-71589928D01*
X61213504Y-71400000D01*
X61193542Y-71210072D01*
X61141087Y-71048633D01*
X61134527Y-71028443D01*
X61039041Y-70863057D01*
X60925488Y-70736944D01*
X60911253Y-70721134D01*
X60883703Y-70701118D01*
X60756753Y-70608883D01*
X60756752Y-70608882D01*
X60582288Y-70531206D01*
X60395487Y-70491500D01*
X60204513Y-70491500D01*
X60079979Y-70517970D01*
X60017711Y-70531206D01*
X59843246Y-70608883D01*
X59688745Y-70721135D01*
X59552099Y-70872897D01*
X59550455Y-70871417D01*
X59511695Y-70908369D01*
X59441980Y-70921799D01*
X59427771Y-70919618D01*
X59392806Y-70912186D01*
X59295487Y-70891500D01*
X59104513Y-70891500D01*
X59007194Y-70912186D01*
X58917711Y-70931206D01*
X58743246Y-71008883D01*
X58578033Y-71128918D01*
X58576225Y-71126430D01*
X58533185Y-71152944D01*
X58462202Y-71151590D01*
X58423544Y-71126746D01*
X58421967Y-71128918D01*
X58295373Y-71036942D01*
X58256752Y-71008882D01*
X58082288Y-70931206D01*
X57895487Y-70891500D01*
X57704513Y-70891500D01*
X57607194Y-70912186D01*
X57517711Y-70931206D01*
X57343246Y-71008883D01*
X57178033Y-71128918D01*
X57176225Y-71126430D01*
X57133185Y-71152944D01*
X57062202Y-71151590D01*
X57023545Y-71126747D01*
X57021968Y-71128919D01*
X57011253Y-71121134D01*
X56984829Y-71101935D01*
X56941475Y-71045714D01*
X56935399Y-70974978D01*
X56968531Y-70912186D01*
X56984829Y-70898064D01*
X57011253Y-70878866D01*
X57139040Y-70736944D01*
X57234527Y-70571556D01*
X57293542Y-70389928D01*
X57313504Y-70200000D01*
X57293542Y-70010072D01*
X57261026Y-69909999D01*
X106536496Y-69909999D01*
X106556458Y-70099929D01*
X106615472Y-70281556D01*
X106710958Y-70446942D01*
X106710960Y-70446944D01*
X106838747Y-70588866D01*
X106993248Y-70701118D01*
X107167712Y-70778794D01*
X107354513Y-70818500D01*
X107354515Y-70818500D01*
X107545485Y-70818500D01*
X107545487Y-70818500D01*
X107732288Y-70778794D01*
X107906752Y-70701118D01*
X107906754Y-70701116D01*
X107918850Y-70695731D01*
X107920087Y-70698509D01*
X107967803Y-70681483D01*
X108030956Y-70696166D01*
X108031150Y-70695731D01*
X108033407Y-70696736D01*
X108036955Y-70697561D01*
X108040776Y-70700017D01*
X108043246Y-70701116D01*
X108043248Y-70701118D01*
X108217712Y-70778794D01*
X108404513Y-70818500D01*
X108404515Y-70818500D01*
X108595485Y-70818500D01*
X108595487Y-70818500D01*
X108782288Y-70778794D01*
X108956752Y-70701118D01*
X109111253Y-70588866D01*
X109239040Y-70446944D01*
X109323878Y-70300000D01*
X113412996Y-70300000D01*
X113432958Y-70489929D01*
X113491972Y-70671556D01*
X113587458Y-70836942D01*
X113618625Y-70871556D01*
X113715247Y-70978866D01*
X113869748Y-71091118D01*
X114044212Y-71168794D01*
X114231013Y-71208500D01*
X114231015Y-71208500D01*
X114421985Y-71208500D01*
X114421987Y-71208500D01*
X114608788Y-71168794D01*
X114783252Y-71091118D01*
X114937753Y-70978866D01*
X115065540Y-70836944D01*
X115161027Y-70671556D01*
X115220042Y-70489928D01*
X115240004Y-70300000D01*
X115240004Y-70299999D01*
X143986496Y-70299999D01*
X144006458Y-70489929D01*
X144065472Y-70671556D01*
X144160958Y-70836942D01*
X144192125Y-70871556D01*
X144288747Y-70978866D01*
X144443248Y-71091118D01*
X144617712Y-71168794D01*
X144804513Y-71208500D01*
X144804515Y-71208500D01*
X144995485Y-71208500D01*
X144995487Y-71208500D01*
X145182288Y-71168794D01*
X145356752Y-71091118D01*
X145511253Y-70978866D01*
X145639040Y-70836944D01*
X145734527Y-70671556D01*
X145790269Y-70500000D01*
X151886496Y-70500000D01*
X151906458Y-70689929D01*
X151965472Y-70871556D01*
X152060958Y-71036942D01*
X152144531Y-71129759D01*
X152188747Y-71178866D01*
X152343248Y-71291118D01*
X152517712Y-71368794D01*
X152704513Y-71408500D01*
X152704515Y-71408500D01*
X152895485Y-71408500D01*
X152895487Y-71408500D01*
X153082288Y-71368794D01*
X153256752Y-71291118D01*
X153411253Y-71178866D01*
X153539040Y-71036944D01*
X153634527Y-70871556D01*
X153693542Y-70689928D01*
X153713504Y-70500000D01*
X153693542Y-70310072D01*
X153634527Y-70128444D01*
X153634527Y-70128443D01*
X153539041Y-69963057D01*
X153411252Y-69821133D01*
X153331316Y-69763056D01*
X153256752Y-69708882D01*
X153082288Y-69631206D01*
X152895487Y-69591500D01*
X152704513Y-69591500D01*
X152579978Y-69617970D01*
X152517711Y-69631206D01*
X152343246Y-69708883D01*
X152188747Y-69821133D01*
X152060958Y-69963057D01*
X151965472Y-70128443D01*
X151906458Y-70310070D01*
X151886496Y-70500000D01*
X145790269Y-70500000D01*
X145793542Y-70489928D01*
X145813504Y-70300000D01*
X145793542Y-70110072D01*
X145734527Y-69928444D01*
X145734527Y-69928443D01*
X145639041Y-69763057D01*
X145511252Y-69621133D01*
X145356753Y-69508883D01*
X145356752Y-69508882D01*
X145182288Y-69431206D01*
X144995487Y-69391500D01*
X144804513Y-69391500D01*
X144679978Y-69417970D01*
X144617711Y-69431206D01*
X144443246Y-69508883D01*
X144288747Y-69621133D01*
X144160958Y-69763057D01*
X144065472Y-69928443D01*
X144006458Y-70110070D01*
X143986496Y-70299999D01*
X115240004Y-70299999D01*
X115220042Y-70110072D01*
X115161027Y-69928444D01*
X115161027Y-69928443D01*
X115065541Y-69763057D01*
X114937752Y-69621133D01*
X114783253Y-69508883D01*
X114783252Y-69508882D01*
X114608788Y-69431206D01*
X114421987Y-69391500D01*
X114231013Y-69391500D01*
X114106478Y-69417970D01*
X114044211Y-69431206D01*
X113869746Y-69508883D01*
X113715247Y-69621133D01*
X113587458Y-69763057D01*
X113491972Y-69928443D01*
X113432958Y-70110070D01*
X113412996Y-70300000D01*
X109323878Y-70300000D01*
X109334527Y-70281556D01*
X109393542Y-70099928D01*
X109413504Y-69910000D01*
X109393542Y-69720072D01*
X109334527Y-69538444D01*
X109334527Y-69538443D01*
X109239041Y-69373057D01*
X109111252Y-69231133D01*
X108976017Y-69132879D01*
X108956752Y-69118882D01*
X108782288Y-69041206D01*
X108595487Y-69001500D01*
X108404513Y-69001500D01*
X108279979Y-69027970D01*
X108217711Y-69041206D01*
X108141838Y-69074986D01*
X108043248Y-69118882D01*
X108043245Y-69118883D01*
X108031150Y-69124269D01*
X108029913Y-69121491D01*
X107982180Y-69138517D01*
X107919045Y-69123829D01*
X107918850Y-69124269D01*
X107916568Y-69123253D01*
X107913030Y-69122430D01*
X107909221Y-69119981D01*
X107732288Y-69041206D01*
X107545487Y-69001500D01*
X107354513Y-69001500D01*
X107229979Y-69027970D01*
X107167711Y-69041206D01*
X106993246Y-69118883D01*
X106838747Y-69231133D01*
X106710958Y-69373057D01*
X106615472Y-69538443D01*
X106556458Y-69720070D01*
X106536496Y-69909999D01*
X57261026Y-69909999D01*
X57234527Y-69828444D01*
X57234527Y-69828443D01*
X57139041Y-69663057D01*
X57011252Y-69521133D01*
X56856753Y-69408883D01*
X56856752Y-69408882D01*
X56682288Y-69331206D01*
X56495487Y-69291500D01*
X56304513Y-69291500D01*
X56179979Y-69317970D01*
X56117711Y-69331206D01*
X55943246Y-69408883D01*
X55788747Y-69521133D01*
X55660958Y-69663057D01*
X55565472Y-69828443D01*
X55506458Y-70010070D01*
X55486496Y-70200000D01*
X55506458Y-70389929D01*
X55565472Y-70571556D01*
X55660958Y-70736942D01*
X55660960Y-70736944D01*
X55788747Y-70878866D01*
X55815171Y-70898064D01*
X55858524Y-70954287D01*
X55864599Y-71025023D01*
X55831467Y-71087815D01*
X55815172Y-71101934D01*
X55815170Y-71101937D01*
X55788746Y-71121135D01*
X55660958Y-71263057D01*
X55565472Y-71428443D01*
X55506458Y-71610070D01*
X55486496Y-71800000D01*
X50879199Y-71800000D01*
X50873698Y-71771556D01*
X50795804Y-71368794D01*
X50749574Y-71129759D01*
X50748670Y-71124488D01*
X50743675Y-71091118D01*
X50612454Y-70214522D01*
X50611785Y-70209292D01*
X50514316Y-69294384D01*
X50513863Y-69289065D01*
X50511061Y-69245131D01*
X50455311Y-68370856D01*
X50455085Y-68365522D01*
X50454614Y-68343321D01*
X50435761Y-67455291D01*
X51359498Y-67455291D01*
X51359500Y-67455310D01*
X51359500Y-67556977D01*
X51397020Y-67781823D01*
X51397021Y-67781825D01*
X51471036Y-67997425D01*
X51471037Y-67997426D01*
X51579531Y-68197906D01*
X51709992Y-68365522D01*
X51719544Y-68377794D01*
X51887257Y-68532185D01*
X52078087Y-68656860D01*
X52078089Y-68656861D01*
X52078091Y-68656862D01*
X52286845Y-68748430D01*
X52507824Y-68804390D01*
X52735000Y-68823214D01*
X52962176Y-68804390D01*
X53183155Y-68748430D01*
X53391909Y-68656862D01*
X53582745Y-68532183D01*
X53667660Y-68454013D01*
X150905056Y-68454013D01*
X150925018Y-68643942D01*
X150984032Y-68825569D01*
X151079518Y-68990955D01*
X151079520Y-68990957D01*
X151207307Y-69132879D01*
X151361808Y-69245131D01*
X151536272Y-69322807D01*
X151723073Y-69362513D01*
X151723075Y-69362513D01*
X151914045Y-69362513D01*
X151914047Y-69362513D01*
X152100848Y-69322807D01*
X152275312Y-69245131D01*
X152429813Y-69132879D01*
X152557600Y-68990957D01*
X152653087Y-68825569D01*
X152712102Y-68643941D01*
X152732064Y-68454013D01*
X152712102Y-68264085D01*
X152653087Y-68082457D01*
X152653087Y-68082456D01*
X152557601Y-67917070D01*
X152429812Y-67775146D01*
X152275313Y-67662896D01*
X152275312Y-67662895D01*
X152100848Y-67585219D01*
X151967981Y-67556977D01*
X162359500Y-67556977D01*
X162397020Y-67781823D01*
X162397021Y-67781825D01*
X162471036Y-67997425D01*
X162471037Y-67997426D01*
X162579531Y-68197906D01*
X162709992Y-68365522D01*
X162719544Y-68377794D01*
X162887257Y-68532185D01*
X163078087Y-68656860D01*
X163078089Y-68656861D01*
X163078091Y-68656862D01*
X163286845Y-68748430D01*
X163507824Y-68804390D01*
X163735000Y-68823214D01*
X163962176Y-68804390D01*
X164183155Y-68748430D01*
X164391909Y-68656862D01*
X164582745Y-68532183D01*
X164750456Y-68377794D01*
X164890469Y-68197906D01*
X164998963Y-67997426D01*
X165072980Y-67781823D01*
X165110500Y-67556977D01*
X165110500Y-67443000D01*
X165110500Y-67403118D01*
X165110500Y-67403117D01*
X165110500Y-67329023D01*
X165072980Y-67104177D01*
X164998963Y-66888574D01*
X164890469Y-66688094D01*
X164750456Y-66508206D01*
X164632913Y-66400000D01*
X164582742Y-66353814D01*
X164391912Y-66229139D01*
X164183150Y-66137568D01*
X163962180Y-66081611D01*
X163962179Y-66081610D01*
X163962176Y-66081610D01*
X163735000Y-66062786D01*
X163734999Y-66062786D01*
X163706842Y-66065119D01*
X163507824Y-66081610D01*
X163507820Y-66081610D01*
X163507819Y-66081611D01*
X163286849Y-66137568D01*
X163078087Y-66229139D01*
X162887257Y-66353814D01*
X162719544Y-66508205D01*
X162579530Y-66688095D01*
X162471036Y-66888574D01*
X162408727Y-67070075D01*
X162397020Y-67104177D01*
X162359500Y-67329023D01*
X162359500Y-67403117D01*
X162359500Y-67403118D01*
X162359500Y-67443000D01*
X162359500Y-67556977D01*
X151967981Y-67556977D01*
X151914047Y-67545513D01*
X151723073Y-67545513D01*
X151598538Y-67571983D01*
X151536271Y-67585219D01*
X151361806Y-67662896D01*
X151207307Y-67775146D01*
X151079518Y-67917070D01*
X150984032Y-68082456D01*
X150925018Y-68264083D01*
X150905056Y-68454013D01*
X53667660Y-68454013D01*
X53750456Y-68377794D01*
X53890469Y-68197906D01*
X53998963Y-67997426D01*
X54072980Y-67781823D01*
X54110500Y-67556977D01*
X54110500Y-67443000D01*
X54110500Y-67403118D01*
X54110500Y-67329023D01*
X54072980Y-67104177D01*
X53998963Y-66888574D01*
X53890469Y-66688094D01*
X53750456Y-66508206D01*
X53632913Y-66400000D01*
X53582742Y-66353814D01*
X53391912Y-66229139D01*
X53183150Y-66137568D01*
X52962180Y-66081611D01*
X52962179Y-66081610D01*
X52962176Y-66081610D01*
X52735000Y-66062786D01*
X52734999Y-66062786D01*
X52706842Y-66065119D01*
X52507824Y-66081610D01*
X52507820Y-66081610D01*
X52507819Y-66081611D01*
X52286849Y-66137568D01*
X52078087Y-66229139D01*
X51887257Y-66353814D01*
X51719544Y-66508205D01*
X51579530Y-66688095D01*
X51471036Y-66888574D01*
X51397021Y-67104174D01*
X51359499Y-67329026D01*
X51359498Y-67455291D01*
X50435761Y-67455291D01*
X50435556Y-67445637D01*
X50435556Y-67440362D01*
X50455085Y-66520466D01*
X50455312Y-66515133D01*
X50500914Y-65800000D01*
X61186496Y-65800000D01*
X61206458Y-65989929D01*
X61265472Y-66171556D01*
X61360958Y-66336942D01*
X61417736Y-66400000D01*
X61488747Y-66478866D01*
X61643248Y-66591118D01*
X61817712Y-66668794D01*
X62004513Y-66708500D01*
X62004515Y-66708500D01*
X62195485Y-66708500D01*
X62195487Y-66708500D01*
X62382288Y-66668794D01*
X62556752Y-66591118D01*
X62711253Y-66478866D01*
X62839040Y-66336944D01*
X62934527Y-66171556D01*
X62993542Y-65989928D01*
X63013504Y-65800000D01*
X62993542Y-65610072D01*
X62934527Y-65428444D01*
X62934527Y-65428443D01*
X62839041Y-65263057D01*
X62721989Y-65133058D01*
X62711253Y-65121134D01*
X62693536Y-65108262D01*
X62602551Y-65042157D01*
X62556752Y-65008882D01*
X62382288Y-64931206D01*
X62195487Y-64891500D01*
X62004513Y-64891500D01*
X61919501Y-64909570D01*
X61817711Y-64931206D01*
X61643246Y-65008883D01*
X61488747Y-65121133D01*
X61360958Y-65263057D01*
X61265472Y-65428443D01*
X61206458Y-65610070D01*
X61186496Y-65800000D01*
X50500914Y-65800000D01*
X50513864Y-65596919D01*
X50514317Y-65591604D01*
X50527687Y-65466108D01*
X50611786Y-64676701D01*
X50612453Y-64671483D01*
X50748671Y-63761501D01*
X50749574Y-63756240D01*
X50753306Y-63736942D01*
X50857152Y-63200000D01*
X54486496Y-63200000D01*
X54506458Y-63389929D01*
X54565472Y-63571556D01*
X54660958Y-63736942D01*
X54737595Y-63822056D01*
X54788747Y-63878866D01*
X54943248Y-63991118D01*
X55117712Y-64068794D01*
X55304513Y-64108500D01*
X55304515Y-64108500D01*
X55495485Y-64108500D01*
X55495487Y-64108500D01*
X55682288Y-64068794D01*
X55856752Y-63991118D01*
X56011253Y-63878866D01*
X56139040Y-63736944D01*
X56234527Y-63571556D01*
X56293542Y-63389928D01*
X56313504Y-63200000D01*
X56293542Y-63010072D01*
X56245744Y-62862965D01*
X56234527Y-62828443D01*
X56139041Y-62663057D01*
X56011252Y-62521133D01*
X55887855Y-62431480D01*
X55856752Y-62408882D01*
X55682288Y-62331206D01*
X55495487Y-62291500D01*
X55304513Y-62291500D01*
X55179978Y-62317970D01*
X55117711Y-62331206D01*
X54943246Y-62408883D01*
X54788747Y-62521133D01*
X54660958Y-62663057D01*
X54565472Y-62828443D01*
X54506458Y-63010070D01*
X54486496Y-63200000D01*
X50857152Y-63200000D01*
X50924280Y-62852907D01*
X50925404Y-62847693D01*
X50929982Y-62828444D01*
X51073145Y-62226500D01*
X77158996Y-62226500D01*
X77178958Y-62416429D01*
X77237972Y-62598056D01*
X77333458Y-62763442D01*
X77333460Y-62763444D01*
X77461247Y-62905366D01*
X77615748Y-63017618D01*
X77790212Y-63095294D01*
X77977013Y-63135000D01*
X77977015Y-63135000D01*
X78167985Y-63135000D01*
X78167987Y-63135000D01*
X78354788Y-63095294D01*
X78441822Y-63056543D01*
X78512188Y-63047110D01*
X78576485Y-63077216D01*
X78602189Y-63108651D01*
X78660958Y-63210442D01*
X78778617Y-63341116D01*
X78788747Y-63352366D01*
X78943248Y-63464618D01*
X79117712Y-63542294D01*
X79304513Y-63582000D01*
X79304515Y-63582000D01*
X79495485Y-63582000D01*
X79495487Y-63582000D01*
X79682288Y-63542294D01*
X79856752Y-63464618D01*
X79964660Y-63386217D01*
X80031524Y-63362361D01*
X80089963Y-63373047D01*
X80192712Y-63418794D01*
X80379513Y-63458500D01*
X80379515Y-63458500D01*
X80570485Y-63458500D01*
X80570487Y-63458500D01*
X80757288Y-63418794D01*
X80931752Y-63341118D01*
X81086253Y-63228866D01*
X81214040Y-63086944D01*
X81309527Y-62921556D01*
X81368542Y-62739928D01*
X81388504Y-62550000D01*
X81368542Y-62360072D01*
X81329891Y-62241116D01*
X81309527Y-62178443D01*
X81214041Y-62013057D01*
X81086252Y-61871133D01*
X80948542Y-61771081D01*
X80931752Y-61758882D01*
X80757288Y-61681206D01*
X80570487Y-61641500D01*
X80379513Y-61641500D01*
X80270752Y-61664618D01*
X80192711Y-61681206D01*
X80018246Y-61758883D01*
X79910343Y-61837279D01*
X79843475Y-61861138D01*
X79785034Y-61850450D01*
X79682291Y-61804707D01*
X79682289Y-61804706D01*
X79682288Y-61804706D01*
X79495487Y-61765000D01*
X79304513Y-61765000D01*
X79224535Y-61782000D01*
X79117706Y-61804707D01*
X79030676Y-61843455D01*
X78960309Y-61852889D01*
X78896013Y-61822782D01*
X78870310Y-61791348D01*
X78811541Y-61689557D01*
X78683752Y-61547633D01*
X78529253Y-61435383D01*
X78529252Y-61435382D01*
X78354788Y-61357706D01*
X78167987Y-61318000D01*
X77977013Y-61318000D01*
X77873846Y-61339929D01*
X77790211Y-61357706D01*
X77615746Y-61435383D01*
X77461247Y-61547633D01*
X77333458Y-61689557D01*
X77237972Y-61854943D01*
X77178958Y-62036570D01*
X77158996Y-62226500D01*
X51073145Y-62226500D01*
X51138294Y-61952574D01*
X51139629Y-61947449D01*
X51365446Y-61150000D01*
X63336496Y-61150000D01*
X63356458Y-61339929D01*
X63415472Y-61521556D01*
X63510958Y-61686942D01*
X63584657Y-61768793D01*
X63638747Y-61828866D01*
X63793248Y-61941118D01*
X63967712Y-62018794D01*
X64154513Y-62058500D01*
X64154515Y-62058500D01*
X64345485Y-62058500D01*
X64345487Y-62058500D01*
X64532288Y-62018794D01*
X64706752Y-61941118D01*
X64861253Y-61828866D01*
X64989040Y-61686944D01*
X65084527Y-61521556D01*
X65143542Y-61339928D01*
X65163504Y-61150000D01*
X65143542Y-60960072D01*
X65105719Y-60843667D01*
X65084527Y-60778443D01*
X64989041Y-60613057D01*
X64888994Y-60501944D01*
X64861253Y-60471134D01*
X64802495Y-60428444D01*
X64706753Y-60358883D01*
X64706752Y-60358882D01*
X64532288Y-60281206D01*
X64345487Y-60241500D01*
X64154513Y-60241500D01*
X64053101Y-60263056D01*
X63967711Y-60281206D01*
X63793246Y-60358883D01*
X63638747Y-60471133D01*
X63510958Y-60613057D01*
X63415472Y-60778443D01*
X63356458Y-60960070D01*
X63336496Y-61150000D01*
X51365446Y-61150000D01*
X51390318Y-61062168D01*
X51391877Y-61057079D01*
X51414011Y-60989929D01*
X51679917Y-60183224D01*
X51681671Y-60178257D01*
X51900893Y-59597357D01*
X57091500Y-59597357D01*
X57091501Y-59600544D01*
X57091825Y-59603721D01*
X57091826Y-59603729D01*
X57099502Y-59678866D01*
X57102113Y-59704426D01*
X57157885Y-59872738D01*
X57241861Y-60008884D01*
X57250972Y-60023655D01*
X57376344Y-60149027D01*
X57376346Y-60149028D01*
X57376348Y-60149030D01*
X57527262Y-60242115D01*
X57695574Y-60297887D01*
X57771637Y-60305658D01*
X57796253Y-60308173D01*
X57796255Y-60308173D01*
X57799455Y-60308500D01*
X59400544Y-60308499D01*
X59504426Y-60297887D01*
X59672738Y-60242115D01*
X59823652Y-60149030D01*
X59949030Y-60023652D01*
X60042115Y-59872738D01*
X60066218Y-59799999D01*
X65086496Y-59799999D01*
X65106458Y-59989929D01*
X65165472Y-60171556D01*
X65260958Y-60336942D01*
X65280713Y-60358882D01*
X65388747Y-60478866D01*
X65543248Y-60591118D01*
X65717712Y-60668794D01*
X65904513Y-60708500D01*
X65904515Y-60708500D01*
X66095485Y-60708500D01*
X66095487Y-60708500D01*
X66282288Y-60668794D01*
X66456752Y-60591118D01*
X66611253Y-60478866D01*
X66739040Y-60336944D01*
X66834527Y-60171556D01*
X66893542Y-59989928D01*
X66913504Y-59800000D01*
X66893542Y-59610072D01*
X66834527Y-59428444D01*
X66834527Y-59428443D01*
X66739041Y-59263057D01*
X66673195Y-59189928D01*
X66611253Y-59121134D01*
X66456752Y-59008882D01*
X66282288Y-58931206D01*
X66095487Y-58891500D01*
X65904513Y-58891500D01*
X65779979Y-58917970D01*
X65717711Y-58931206D01*
X65543246Y-59008883D01*
X65388747Y-59121133D01*
X65260958Y-59263057D01*
X65165472Y-59428443D01*
X65106458Y-59610070D01*
X65086496Y-59799999D01*
X60066218Y-59799999D01*
X60097887Y-59704426D01*
X60108500Y-59600545D01*
X60108499Y-58326500D01*
X67612996Y-58326500D01*
X67621614Y-58408500D01*
X67632958Y-58516429D01*
X67691972Y-58698056D01*
X67787458Y-58863442D01*
X67787460Y-58863444D01*
X67915247Y-59005366D01*
X68069748Y-59117618D01*
X68244212Y-59195294D01*
X68431013Y-59235000D01*
X68431015Y-59235000D01*
X68621985Y-59235000D01*
X68621987Y-59235000D01*
X68808788Y-59195294D01*
X68983252Y-59117618D01*
X69137753Y-59005366D01*
X69142585Y-59000000D01*
X94886496Y-59000000D01*
X94906458Y-59189929D01*
X94965472Y-59371556D01*
X95060958Y-59536942D01*
X95188747Y-59678866D01*
X95343248Y-59791118D01*
X95517712Y-59868794D01*
X95704513Y-59908500D01*
X95704515Y-59908500D01*
X95895485Y-59908500D01*
X95895487Y-59908500D01*
X96082288Y-59868794D01*
X96256752Y-59791118D01*
X96411253Y-59678866D01*
X96539040Y-59536944D01*
X96634527Y-59371556D01*
X96693542Y-59189928D01*
X96713504Y-59000000D01*
X96693542Y-58810072D01*
X96662931Y-58715862D01*
X96634527Y-58628443D01*
X96539041Y-58463057D01*
X96454165Y-58368793D01*
X96411253Y-58321134D01*
X96377007Y-58296253D01*
X96256753Y-58208883D01*
X96256752Y-58208882D01*
X96082288Y-58131206D01*
X96082286Y-58131205D01*
X96074765Y-58127857D01*
X96020669Y-58081877D01*
X96000020Y-58013950D01*
X96019372Y-57945642D01*
X96072583Y-57898640D01*
X96074765Y-57897643D01*
X96082285Y-57894294D01*
X96082288Y-57894294D01*
X96256752Y-57816618D01*
X96411253Y-57704366D01*
X96539040Y-57562444D01*
X96634527Y-57397056D01*
X96693542Y-57215428D01*
X96713504Y-57025500D01*
X96693542Y-56835572D01*
X96652378Y-56708882D01*
X96634527Y-56653943D01*
X96539041Y-56488557D01*
X96411252Y-56346633D01*
X96334002Y-56290508D01*
X96256752Y-56234382D01*
X96082288Y-56156706D01*
X95895487Y-56117000D01*
X95704513Y-56117000D01*
X95579979Y-56143470D01*
X95517711Y-56156706D01*
X95343246Y-56234383D01*
X95188747Y-56346633D01*
X95060958Y-56488557D01*
X94965472Y-56653943D01*
X94906458Y-56835570D01*
X94886496Y-57025500D01*
X94906458Y-57215429D01*
X94965472Y-57397056D01*
X95060958Y-57562442D01*
X95131797Y-57641117D01*
X95188747Y-57704366D01*
X95343248Y-57816618D01*
X95517712Y-57894294D01*
X95525234Y-57897643D01*
X95579330Y-57943623D01*
X95599979Y-58011551D01*
X95580627Y-58079859D01*
X95527416Y-58126860D01*
X95525234Y-58127857D01*
X95517711Y-58131206D01*
X95517712Y-58131206D01*
X95373130Y-58195578D01*
X95343246Y-58208883D01*
X95188747Y-58321133D01*
X95060958Y-58463057D01*
X94965472Y-58628443D01*
X94906458Y-58810070D01*
X94886496Y-59000000D01*
X69142585Y-59000000D01*
X69265540Y-58863444D01*
X69361027Y-58698056D01*
X69420042Y-58516428D01*
X69440004Y-58326500D01*
X69420042Y-58136572D01*
X69361027Y-57954944D01*
X69361027Y-57954943D01*
X69265541Y-57789557D01*
X69165874Y-57678866D01*
X69137753Y-57647634D01*
X68983252Y-57535382D01*
X68808788Y-57457706D01*
X68621987Y-57418000D01*
X68431013Y-57418000D01*
X68306479Y-57444470D01*
X68244211Y-57457706D01*
X68069746Y-57535383D01*
X67915247Y-57647633D01*
X67787458Y-57789557D01*
X67691972Y-57954943D01*
X67632958Y-58136570D01*
X67613560Y-58321133D01*
X67612996Y-58326500D01*
X60108499Y-58326500D01*
X60108499Y-58299456D01*
X60097887Y-58195574D01*
X60042115Y-58027262D01*
X59949030Y-57876348D01*
X59949028Y-57876346D01*
X59949027Y-57876344D01*
X59823655Y-57750972D01*
X59823652Y-57750970D01*
X59672738Y-57657885D01*
X59504426Y-57602113D01*
X59504423Y-57602112D01*
X59504421Y-57602112D01*
X59403746Y-57591826D01*
X59403725Y-57591824D01*
X59400545Y-57591500D01*
X59397339Y-57591500D01*
X57802661Y-57591500D01*
X57802641Y-57591500D01*
X57799456Y-57591501D01*
X57796279Y-57591825D01*
X57796270Y-57591826D01*
X57695573Y-57602113D01*
X57527262Y-57657885D01*
X57376344Y-57750972D01*
X57250972Y-57876344D01*
X57237835Y-57897643D01*
X57157885Y-58027262D01*
X57102113Y-58195574D01*
X57102112Y-58195578D01*
X57091826Y-58296253D01*
X57091825Y-58296270D01*
X57091500Y-58299455D01*
X57091500Y-58302659D01*
X57091500Y-58302660D01*
X57091500Y-59597338D01*
X57091500Y-59597357D01*
X51900893Y-59597357D01*
X52006560Y-59317359D01*
X52008520Y-59312484D01*
X52369633Y-58466199D01*
X52371815Y-58461372D01*
X52768527Y-57631159D01*
X52770898Y-57626457D01*
X53202477Y-56813850D01*
X53205074Y-56809202D01*
X53285885Y-56671493D01*
X69015002Y-56671493D01*
X69034964Y-56861423D01*
X69093978Y-57043050D01*
X69189464Y-57208436D01*
X69280976Y-57310070D01*
X69317253Y-57350360D01*
X69471754Y-57462612D01*
X69646218Y-57540288D01*
X69833019Y-57579994D01*
X69833021Y-57579994D01*
X70023991Y-57579994D01*
X70023993Y-57579994D01*
X70210794Y-57540288D01*
X70385258Y-57462612D01*
X70539759Y-57350360D01*
X70667546Y-57208438D01*
X70763033Y-57043050D01*
X70822048Y-56861422D01*
X70842010Y-56671494D01*
X70822048Y-56481566D01*
X70767296Y-56313057D01*
X70763033Y-56299937D01*
X70667547Y-56134551D01*
X70539758Y-55992627D01*
X70385259Y-55880377D01*
X70385258Y-55880376D01*
X70210794Y-55802700D01*
X70023993Y-55762994D01*
X69833019Y-55762994D01*
X69708485Y-55789464D01*
X69646217Y-55802700D01*
X69471752Y-55880377D01*
X69317253Y-55992627D01*
X69189464Y-56134551D01*
X69093978Y-56299937D01*
X69034964Y-56481564D01*
X69015002Y-56671493D01*
X53285885Y-56671493D01*
X53311148Y-56628443D01*
X53670750Y-56015646D01*
X53673535Y-56011125D01*
X54063512Y-55406876D01*
X98532764Y-55406876D01*
X98536941Y-55451053D01*
X98537500Y-55462912D01*
X98537500Y-64138930D01*
X98535199Y-64159771D01*
X98537438Y-64231011D01*
X98537500Y-64234969D01*
X98537500Y-64262983D01*
X98537995Y-64266903D01*
X98537996Y-64266919D01*
X98538012Y-64267045D01*
X98538940Y-64278850D01*
X98540334Y-64323205D01*
X98546014Y-64342755D01*
X98550022Y-64362110D01*
X98552572Y-64382296D01*
X98568906Y-64423552D01*
X98572749Y-64434779D01*
X98585130Y-64477392D01*
X98595492Y-64494914D01*
X98604189Y-64512667D01*
X98611680Y-64531587D01*
X98637764Y-64567489D01*
X98644275Y-64577401D01*
X98666866Y-64615598D01*
X98681254Y-64629986D01*
X98694092Y-64645017D01*
X98706058Y-64661487D01*
X98740255Y-64689777D01*
X98749035Y-64697767D01*
X101391183Y-67339915D01*
X101404300Y-67356287D01*
X101456281Y-67405100D01*
X101459123Y-67407855D01*
X101478906Y-67427638D01*
X101482031Y-67430062D01*
X101482032Y-67430063D01*
X101482121Y-67430132D01*
X101491141Y-67437836D01*
X101523494Y-67468217D01*
X101541335Y-67478025D01*
X101557853Y-67488876D01*
X101573933Y-67501349D01*
X101614658Y-67518972D01*
X101625303Y-67524187D01*
X101664197Y-67545569D01*
X101683918Y-67550632D01*
X101702609Y-67557032D01*
X101721292Y-67565117D01*
X101765114Y-67572057D01*
X101776741Y-67574465D01*
X101819717Y-67585500D01*
X101819718Y-67585500D01*
X101840066Y-67585500D01*
X101859775Y-67587050D01*
X101879879Y-67590235D01*
X101924055Y-67586059D01*
X101935914Y-67585500D01*
X121565931Y-67585500D01*
X121586769Y-67587800D01*
X121589716Y-67587707D01*
X121589719Y-67587708D01*
X121658012Y-67585561D01*
X121661969Y-67585500D01*
X121686027Y-67585500D01*
X121689983Y-67585500D01*
X121693995Y-67584992D01*
X121694004Y-67584992D01*
X121705848Y-67584058D01*
X121750205Y-67582665D01*
X121769744Y-67576987D01*
X121789102Y-67572978D01*
X121809299Y-67570427D01*
X121850555Y-67554092D01*
X121861765Y-67550253D01*
X121904393Y-67537869D01*
X121921907Y-67527510D01*
X121939667Y-67518810D01*
X121958586Y-67511320D01*
X121958586Y-67511319D01*
X121958588Y-67511319D01*
X121994499Y-67485227D01*
X122004399Y-67478724D01*
X122042598Y-67456134D01*
X122056986Y-67441745D01*
X122072021Y-67428904D01*
X122088487Y-67416942D01*
X122116788Y-67382729D01*
X122124747Y-67373983D01*
X123226329Y-66272402D01*
X123288639Y-66238379D01*
X123315422Y-66235500D01*
X132241476Y-66235500D01*
X132309597Y-66255502D01*
X132356090Y-66309158D01*
X132366785Y-66374668D01*
X132361496Y-66425000D01*
X132368036Y-66487225D01*
X132381458Y-66614929D01*
X132440472Y-66796556D01*
X132535958Y-66961942D01*
X132535960Y-66961944D01*
X132663747Y-67103866D01*
X132818248Y-67216118D01*
X132992712Y-67293794D01*
X133179513Y-67333500D01*
X133179515Y-67333500D01*
X133370485Y-67333500D01*
X133370487Y-67333500D01*
X133557288Y-67293794D01*
X133731752Y-67216118D01*
X133886253Y-67103866D01*
X134014040Y-66961944D01*
X134109527Y-66796556D01*
X134168542Y-66614928D01*
X134188504Y-66425000D01*
X134185876Y-66400000D01*
X160086496Y-66400000D01*
X160106458Y-66589929D01*
X160165472Y-66771556D01*
X160260958Y-66936942D01*
X160260960Y-66936944D01*
X160388747Y-67078866D01*
X160543248Y-67191118D01*
X160717712Y-67268794D01*
X160904513Y-67308500D01*
X160904515Y-67308500D01*
X161095485Y-67308500D01*
X161095487Y-67308500D01*
X161282288Y-67268794D01*
X161456752Y-67191118D01*
X161611253Y-67078866D01*
X161739040Y-66936944D01*
X161834527Y-66771556D01*
X161893542Y-66589928D01*
X161913504Y-66400000D01*
X161893542Y-66210072D01*
X161889028Y-66196182D01*
X161887000Y-66125219D01*
X161915222Y-66072940D01*
X162025326Y-65950658D01*
X162120813Y-65785270D01*
X162179828Y-65603642D01*
X162199790Y-65413714D01*
X162179828Y-65223786D01*
X162134246Y-65083500D01*
X162120813Y-65042157D01*
X162025327Y-64876771D01*
X161897538Y-64734847D01*
X161773898Y-64645017D01*
X161743038Y-64622596D01*
X161568574Y-64544920D01*
X161381773Y-64505214D01*
X161190799Y-64505214D01*
X161066724Y-64531587D01*
X161003997Y-64544920D01*
X160829532Y-64622597D01*
X160675033Y-64734847D01*
X160547244Y-64876771D01*
X160451758Y-65042157D01*
X160392744Y-65223784D01*
X160372782Y-65413714D01*
X160392744Y-65603645D01*
X160397256Y-65617532D01*
X160399283Y-65688499D01*
X160371059Y-65740777D01*
X160260960Y-65863054D01*
X160165472Y-66028443D01*
X160106458Y-66210070D01*
X160086496Y-66400000D01*
X134185876Y-66400000D01*
X134168542Y-66235072D01*
X134118679Y-66081610D01*
X134109527Y-66053443D01*
X134014041Y-65888057D01*
X133886252Y-65746133D01*
X133731753Y-65633883D01*
X133731752Y-65633882D01*
X133610761Y-65580013D01*
X133556667Y-65534035D01*
X133536018Y-65466108D01*
X133555370Y-65397800D01*
X133572913Y-65375817D01*
X133932489Y-65016241D01*
X133994799Y-64982217D01*
X134065614Y-64987282D01*
X134115216Y-65021026D01*
X134171468Y-65083500D01*
X134210379Y-65126715D01*
X134261878Y-65164131D01*
X134364879Y-65238966D01*
X134539343Y-65316642D01*
X134726144Y-65356348D01*
X134726146Y-65356348D01*
X134917116Y-65356348D01*
X134917118Y-65356348D01*
X135103919Y-65316642D01*
X135278383Y-65238966D01*
X135432884Y-65126714D01*
X135560671Y-64984792D01*
X135656158Y-64819404D01*
X135715173Y-64637776D01*
X135735135Y-64447848D01*
X135729703Y-64396168D01*
X135742475Y-64326331D01*
X135790977Y-64274485D01*
X135859810Y-64257090D01*
X135906259Y-64267891D01*
X136021712Y-64319294D01*
X136208513Y-64359000D01*
X136208515Y-64359000D01*
X136399485Y-64359000D01*
X136399487Y-64359000D01*
X136586288Y-64319294D01*
X136760752Y-64241618D01*
X136852443Y-64175000D01*
X150437496Y-64175000D01*
X150457458Y-64364929D01*
X150516472Y-64546556D01*
X150611958Y-64711942D01*
X150611960Y-64711944D01*
X150739747Y-64853866D01*
X150894248Y-64966118D01*
X151068712Y-65043794D01*
X151255513Y-65083500D01*
X151255515Y-65083500D01*
X151446485Y-65083500D01*
X151446487Y-65083500D01*
X151633288Y-65043794D01*
X151807752Y-64966118D01*
X151962253Y-64853866D01*
X152090040Y-64711944D01*
X152185527Y-64546556D01*
X152244542Y-64364928D01*
X152264504Y-64175000D01*
X152244542Y-63985072D01*
X152210033Y-63878866D01*
X152185528Y-63803446D01*
X152165630Y-63768982D01*
X152133307Y-63712997D01*
X152116570Y-63644005D01*
X152133308Y-63587000D01*
X152185527Y-63496556D01*
X152244542Y-63314928D01*
X152264504Y-63125000D01*
X152244542Y-62935072D01*
X152195618Y-62784500D01*
X152185527Y-62753443D01*
X152090041Y-62588057D01*
X151962252Y-62446133D01*
X151843799Y-62360072D01*
X151807752Y-62333882D01*
X151682802Y-62278251D01*
X160283496Y-62278251D01*
X160303458Y-62468180D01*
X160362472Y-62649807D01*
X160457958Y-62815193D01*
X160546525Y-62913557D01*
X160585747Y-62957117D01*
X160740248Y-63069369D01*
X160914712Y-63147045D01*
X161101513Y-63186751D01*
X161101515Y-63186751D01*
X161292485Y-63186751D01*
X161292487Y-63186751D01*
X161479288Y-63147045D01*
X161653752Y-63069369D01*
X161808253Y-62957117D01*
X161936040Y-62815195D01*
X162031527Y-62649807D01*
X162090542Y-62468179D01*
X162094399Y-62431479D01*
X162121411Y-62365823D01*
X162179632Y-62325192D01*
X162193504Y-62321404D01*
X162205788Y-62318794D01*
X162380252Y-62241118D01*
X162534753Y-62128866D01*
X162662540Y-61986944D01*
X162758027Y-61821556D01*
X162817042Y-61639928D01*
X162837004Y-61450000D01*
X162817042Y-61260072D01*
X162777991Y-61139885D01*
X162758027Y-61078443D01*
X162662541Y-60913057D01*
X162554657Y-60793240D01*
X162534753Y-60771134D01*
X162510527Y-60753533D01*
X162403617Y-60675858D01*
X162380252Y-60658882D01*
X162205788Y-60581206D01*
X162018987Y-60541500D01*
X161828013Y-60541500D01*
X161724013Y-60563606D01*
X161641211Y-60581206D01*
X161466746Y-60658883D01*
X161312247Y-60771133D01*
X161184458Y-60913057D01*
X161088972Y-61078443D01*
X161029957Y-61260073D01*
X161026099Y-61296775D01*
X160999085Y-61362431D01*
X160940862Y-61403059D01*
X160926989Y-61406847D01*
X160914714Y-61409456D01*
X160740246Y-61487134D01*
X160585747Y-61599384D01*
X160457958Y-61741308D01*
X160362472Y-61906694D01*
X160303458Y-62088321D01*
X160283496Y-62278251D01*
X151682802Y-62278251D01*
X151633288Y-62256206D01*
X151446487Y-62216500D01*
X151255513Y-62216500D01*
X151139695Y-62241118D01*
X151068711Y-62256206D01*
X151018764Y-62278444D01*
X150900259Y-62331206D01*
X150894246Y-62333883D01*
X150739747Y-62446133D01*
X150611958Y-62588057D01*
X150516472Y-62753443D01*
X150457458Y-62935070D01*
X150441496Y-63086942D01*
X150437496Y-63125000D01*
X150445379Y-63200000D01*
X150457458Y-63314929D01*
X150516472Y-63496556D01*
X150568690Y-63586999D01*
X150585428Y-63655994D01*
X150568691Y-63712998D01*
X150516472Y-63803445D01*
X150457458Y-63985070D01*
X150437496Y-64175000D01*
X136852443Y-64175000D01*
X136915253Y-64129366D01*
X137043040Y-63987444D01*
X137138527Y-63822056D01*
X137197542Y-63640428D01*
X137217504Y-63450500D01*
X137197542Y-63260572D01*
X137153491Y-63124999D01*
X137138527Y-63078943D01*
X137043041Y-62913557D01*
X136997489Y-62862966D01*
X146466996Y-62862966D01*
X146486958Y-63052895D01*
X146545972Y-63234522D01*
X146641458Y-63399908D01*
X146759660Y-63531185D01*
X146769247Y-63541832D01*
X146923748Y-63654084D01*
X147098212Y-63731760D01*
X147285013Y-63771466D01*
X147285015Y-63771466D01*
X147475985Y-63771466D01*
X147475987Y-63771466D01*
X147662788Y-63731760D01*
X147837252Y-63654084D01*
X147991753Y-63541832D01*
X148119540Y-63399910D01*
X148215027Y-63234522D01*
X148274042Y-63052894D01*
X148294004Y-62862966D01*
X148274042Y-62673038D01*
X148215027Y-62491410D01*
X148215027Y-62491409D01*
X148119541Y-62326023D01*
X147991752Y-62184099D01*
X147837253Y-62071849D01*
X147837252Y-62071848D01*
X147662788Y-61994172D01*
X147475987Y-61954466D01*
X147285013Y-61954466D01*
X147206597Y-61971134D01*
X147098211Y-61994172D01*
X146923746Y-62071849D01*
X146769247Y-62184099D01*
X146641458Y-62326023D01*
X146545972Y-62491409D01*
X146486958Y-62673036D01*
X146466996Y-62862966D01*
X136997489Y-62862966D01*
X136915252Y-62771633D01*
X136765810Y-62663057D01*
X136760752Y-62659382D01*
X136586288Y-62581706D01*
X136399487Y-62542000D01*
X136208513Y-62542000D01*
X136083978Y-62568470D01*
X136021711Y-62581706D01*
X135915752Y-62628882D01*
X135868321Y-62650000D01*
X135847246Y-62659383D01*
X135692747Y-62771633D01*
X135564958Y-62913557D01*
X135469472Y-63078943D01*
X135410458Y-63260570D01*
X135390496Y-63450500D01*
X135395927Y-63502179D01*
X135383154Y-63572017D01*
X135334652Y-63623863D01*
X135265819Y-63641257D01*
X135219369Y-63630455D01*
X135103921Y-63579055D01*
X135103919Y-63579054D01*
X134917118Y-63539348D01*
X134726144Y-63539348D01*
X134539343Y-63579054D01*
X134539342Y-63579054D01*
X134537697Y-63579404D01*
X134466906Y-63574002D01*
X134410273Y-63531185D01*
X134385780Y-63464547D01*
X134385500Y-63456157D01*
X134385500Y-61165422D01*
X134405502Y-61097301D01*
X134422405Y-61076327D01*
X135668588Y-59830145D01*
X135730900Y-59796119D01*
X135757683Y-59793240D01*
X141078688Y-59793240D01*
X141146809Y-59813242D01*
X141193302Y-59866898D01*
X141203997Y-59906067D01*
X141210192Y-59965000D01*
X141221718Y-60074669D01*
X141280732Y-60256296D01*
X141376218Y-60421682D01*
X141448485Y-60501943D01*
X141504007Y-60563606D01*
X141658508Y-60675858D01*
X141832972Y-60753534D01*
X142019773Y-60793240D01*
X142019775Y-60793240D01*
X142210745Y-60793240D01*
X142210747Y-60793240D01*
X142397548Y-60753534D01*
X142572012Y-60675858D01*
X142726513Y-60563606D01*
X142854300Y-60421684D01*
X142949787Y-60256296D01*
X143008802Y-60074668D01*
X143026522Y-59906068D01*
X143053535Y-59840412D01*
X143111757Y-59799783D01*
X143151832Y-59793240D01*
X146131909Y-59793240D01*
X146200030Y-59813242D01*
X146246523Y-59866898D01*
X146256627Y-59937172D01*
X146227133Y-60001752D01*
X146183159Y-60034346D01*
X146015748Y-60108882D01*
X146015746Y-60108883D01*
X145861247Y-60221133D01*
X145733458Y-60363057D01*
X145637972Y-60528443D01*
X145578958Y-60710070D01*
X145558996Y-60900000D01*
X145578958Y-61089929D01*
X145637972Y-61271556D01*
X145733458Y-61436942D01*
X145771207Y-61478866D01*
X145861247Y-61578866D01*
X146015748Y-61691118D01*
X146190212Y-61768794D01*
X146377013Y-61808500D01*
X146377015Y-61808500D01*
X146567985Y-61808500D01*
X146567987Y-61808500D01*
X146754788Y-61768794D01*
X146929252Y-61691118D01*
X147083753Y-61578866D01*
X147211540Y-61436944D01*
X147307027Y-61271556D01*
X147313408Y-61251915D01*
X147321788Y-61226128D01*
X147361862Y-61167522D01*
X147427258Y-61139885D01*
X147497215Y-61151992D01*
X147515682Y-61163128D01*
X147616748Y-61236557D01*
X147791212Y-61314233D01*
X147978013Y-61353939D01*
X147978015Y-61353939D01*
X148168985Y-61353939D01*
X148168987Y-61353939D01*
X148355788Y-61314233D01*
X148530252Y-61236557D01*
X148557408Y-61216826D01*
X148624274Y-61192968D01*
X148693426Y-61209047D01*
X148740588Y-61255761D01*
X148787459Y-61336944D01*
X148877500Y-61436944D01*
X148915247Y-61478866D01*
X149069748Y-61591118D01*
X149244212Y-61668794D01*
X149431013Y-61708500D01*
X149431015Y-61708500D01*
X149621985Y-61708500D01*
X149621987Y-61708500D01*
X149808788Y-61668794D01*
X149983252Y-61591118D01*
X150137753Y-61478866D01*
X150265540Y-61336944D01*
X150361027Y-61171556D01*
X150420042Y-60989928D01*
X150432279Y-60873500D01*
X156186496Y-60873500D01*
X156190654Y-60913057D01*
X156206458Y-61063429D01*
X156265472Y-61245056D01*
X156360958Y-61410442D01*
X156360960Y-61410444D01*
X156488747Y-61552366D01*
X156643248Y-61664618D01*
X156817712Y-61742294D01*
X157004513Y-61782000D01*
X157004515Y-61782000D01*
X157195485Y-61782000D01*
X157195487Y-61782000D01*
X157382288Y-61742294D01*
X157556752Y-61664618D01*
X157711253Y-61552366D01*
X157839040Y-61410444D01*
X157881475Y-61336944D01*
X157915377Y-61278225D01*
X157966759Y-61229232D01*
X158006161Y-61219673D01*
X158005801Y-61217978D01*
X158018753Y-61215225D01*
X158018755Y-61215225D01*
X158205556Y-61175519D01*
X158380020Y-61097843D01*
X158534521Y-60985591D01*
X158662308Y-60843669D01*
X158757795Y-60678281D01*
X158816810Y-60496653D01*
X158836772Y-60306725D01*
X158816810Y-60116797D01*
X158775588Y-59989929D01*
X158757795Y-59935168D01*
X158662309Y-59769782D01*
X158534520Y-59627858D01*
X158409381Y-59536939D01*
X158380020Y-59515607D01*
X158205556Y-59437931D01*
X158018755Y-59398225D01*
X157827781Y-59398225D01*
X157720008Y-59421133D01*
X157640979Y-59437931D01*
X157466514Y-59515608D01*
X157312015Y-59627858D01*
X157184226Y-59769782D01*
X157107891Y-59902000D01*
X157056509Y-59950993D01*
X157017106Y-59960551D01*
X157017467Y-59962247D01*
X157004515Y-59965000D01*
X157004513Y-59965000D01*
X156888422Y-59989676D01*
X156817711Y-60004706D01*
X156643246Y-60082383D01*
X156488747Y-60194633D01*
X156360958Y-60336557D01*
X156265472Y-60501943D01*
X156206458Y-60683570D01*
X156189631Y-60843669D01*
X156186496Y-60873500D01*
X150432279Y-60873500D01*
X150440004Y-60800000D01*
X150420042Y-60610072D01*
X150384909Y-60501944D01*
X150361027Y-60428443D01*
X150265541Y-60263057D01*
X150193688Y-60183256D01*
X150137753Y-60121134D01*
X149983252Y-60008882D01*
X149808788Y-59931206D01*
X149621987Y-59891500D01*
X149431013Y-59891500D01*
X149306478Y-59917970D01*
X149244211Y-59931206D01*
X149169167Y-59964618D01*
X149079128Y-60004706D01*
X149069744Y-60008884D01*
X149042587Y-60028614D01*
X148975719Y-60052471D01*
X148906568Y-60036388D01*
X148859410Y-59989676D01*
X148812541Y-59908496D01*
X148684752Y-59766572D01*
X148530253Y-59654322D01*
X148530252Y-59654321D01*
X148355788Y-59576645D01*
X148168987Y-59536939D01*
X148168985Y-59536939D01*
X148115923Y-59536939D01*
X148047802Y-59516937D01*
X148026828Y-59500034D01*
X147700294Y-59173500D01*
X153086496Y-59173500D01*
X153106458Y-59363429D01*
X153165472Y-59545056D01*
X153260958Y-59710442D01*
X153260960Y-59710444D01*
X153388747Y-59852366D01*
X153543248Y-59964618D01*
X153717712Y-60042294D01*
X153904513Y-60082000D01*
X153904515Y-60082000D01*
X154095485Y-60082000D01*
X154095487Y-60082000D01*
X154282288Y-60042294D01*
X154456752Y-59964618D01*
X154611253Y-59852366D01*
X154739040Y-59710444D01*
X154834527Y-59545056D01*
X154893542Y-59363428D01*
X154913504Y-59173500D01*
X154893542Y-58983572D01*
X154837168Y-58810072D01*
X154834527Y-58801943D01*
X154739041Y-58636557D01*
X154637239Y-58523494D01*
X154611253Y-58494634D01*
X154572363Y-58466379D01*
X154534002Y-58438507D01*
X154456752Y-58382382D01*
X154282288Y-58304706D01*
X154095487Y-58265000D01*
X153904513Y-58265000D01*
X153781648Y-58291116D01*
X153717711Y-58304706D01*
X153543246Y-58382383D01*
X153388747Y-58494633D01*
X153260958Y-58636557D01*
X153165472Y-58801943D01*
X153106458Y-58983570D01*
X153086496Y-59173500D01*
X147700294Y-59173500D01*
X147294617Y-58767823D01*
X147281506Y-58751457D01*
X147229535Y-58702654D01*
X147226692Y-58699898D01*
X147209701Y-58682907D01*
X147206895Y-58680101D01*
X147203678Y-58677605D01*
X147194660Y-58669904D01*
X147162307Y-58639523D01*
X147162304Y-58639521D01*
X147144473Y-58629718D01*
X147127955Y-58618868D01*
X147111868Y-58606390D01*
X147071137Y-58588764D01*
X147060479Y-58583542D01*
X147021603Y-58562170D01*
X147001887Y-58557108D01*
X146983181Y-58550703D01*
X146964510Y-58542623D01*
X146920674Y-58535680D01*
X146909051Y-58533272D01*
X146866085Y-58522240D01*
X146866083Y-58522240D01*
X146845735Y-58522240D01*
X146826025Y-58520689D01*
X146805922Y-58517505D01*
X146805921Y-58517505D01*
X146761745Y-58521681D01*
X146749887Y-58522240D01*
X135526329Y-58522240D01*
X135505490Y-58519939D01*
X135440128Y-58521993D01*
X135434247Y-58522178D01*
X135430291Y-58522240D01*
X135402277Y-58522240D01*
X135398365Y-58522733D01*
X135398331Y-58522736D01*
X135398211Y-58522752D01*
X135386410Y-58523680D01*
X135342055Y-58525074D01*
X135322504Y-58530754D01*
X135303154Y-58534761D01*
X135282959Y-58537313D01*
X135241701Y-58553647D01*
X135230477Y-58557490D01*
X135187865Y-58569871D01*
X135170344Y-58580232D01*
X135152601Y-58588924D01*
X135133675Y-58596418D01*
X135097773Y-58622502D01*
X135087857Y-58629016D01*
X135049659Y-58651607D01*
X135035271Y-58665995D01*
X135020244Y-58678829D01*
X135003775Y-58690795D01*
X134975482Y-58724995D01*
X134967493Y-58733773D01*
X133360078Y-60341187D01*
X133343711Y-60354301D01*
X133294928Y-60406249D01*
X133292179Y-60409086D01*
X133275158Y-60426107D01*
X133275144Y-60426122D01*
X133272361Y-60428906D01*
X133269946Y-60432018D01*
X133269923Y-60432045D01*
X133269841Y-60432152D01*
X133262156Y-60441148D01*
X133231781Y-60473496D01*
X133221974Y-60491333D01*
X133211125Y-60507849D01*
X133198649Y-60523933D01*
X133181022Y-60564664D01*
X133175804Y-60575316D01*
X133154430Y-60614197D01*
X133149370Y-60633906D01*
X133142967Y-60652608D01*
X133134883Y-60671289D01*
X133127941Y-60715119D01*
X133125534Y-60726740D01*
X133114500Y-60769717D01*
X133114500Y-60790065D01*
X133112949Y-60809775D01*
X133109764Y-60829878D01*
X133113167Y-60865871D01*
X133113888Y-60873499D01*
X133113941Y-60874054D01*
X133114500Y-60885912D01*
X133114500Y-63984576D01*
X133094498Y-64052697D01*
X133077596Y-64073671D01*
X132223670Y-64927596D01*
X132161360Y-64961620D01*
X132134577Y-64964500D01*
X123084069Y-64964500D01*
X123063231Y-64962199D01*
X122992002Y-64964438D01*
X122988044Y-64964500D01*
X122960017Y-64964500D01*
X122956097Y-64964994D01*
X122956079Y-64964996D01*
X122955947Y-64965013D01*
X122944143Y-64965941D01*
X122899795Y-64967335D01*
X122880254Y-64973013D01*
X122860894Y-64977022D01*
X122840703Y-64979572D01*
X122799443Y-64995908D01*
X122788216Y-64999751D01*
X122745606Y-65012130D01*
X122728085Y-65022492D01*
X122710341Y-65031185D01*
X122691412Y-65038680D01*
X122655520Y-65064757D01*
X122645603Y-65071271D01*
X122607401Y-65093865D01*
X122593003Y-65108262D01*
X122577978Y-65121094D01*
X122561513Y-65133057D01*
X122533220Y-65167256D01*
X122525233Y-65176032D01*
X121423670Y-66277596D01*
X121361360Y-66311620D01*
X121334577Y-66314500D01*
X102215423Y-66314500D01*
X102147302Y-66294498D01*
X102126328Y-66277595D01*
X99845405Y-63996672D01*
X99811379Y-63934360D01*
X99808500Y-63907577D01*
X99808500Y-62650000D01*
X104236496Y-62650000D01*
X104256458Y-62839929D01*
X104315472Y-63021556D01*
X104410958Y-63186942D01*
X104453799Y-63234522D01*
X104538747Y-63328866D01*
X104693248Y-63441118D01*
X104867712Y-63518794D01*
X105054513Y-63558500D01*
X105054515Y-63558500D01*
X105245485Y-63558500D01*
X105245487Y-63558500D01*
X105432288Y-63518794D01*
X105606752Y-63441118D01*
X105761253Y-63328866D01*
X105889040Y-63186944D01*
X105984527Y-63021556D01*
X106043542Y-62839928D01*
X106060749Y-62676214D01*
X113985282Y-62676214D01*
X114005244Y-62866143D01*
X114064258Y-63047770D01*
X114159744Y-63213156D01*
X114174975Y-63230072D01*
X114287533Y-63355080D01*
X114442034Y-63467332D01*
X114616498Y-63545008D01*
X114803299Y-63584714D01*
X114803301Y-63584714D01*
X114994271Y-63584714D01*
X114994273Y-63584714D01*
X115181074Y-63545008D01*
X115355538Y-63467332D01*
X115510039Y-63355080D01*
X115637826Y-63213158D01*
X115733313Y-63047770D01*
X115792328Y-62866142D01*
X115800909Y-62784499D01*
X124095579Y-62784499D01*
X124115541Y-62974429D01*
X124174555Y-63156056D01*
X124270041Y-63321442D01*
X124386245Y-63450500D01*
X124397830Y-63463366D01*
X124552331Y-63575618D01*
X124726795Y-63653294D01*
X124913596Y-63693000D01*
X124913598Y-63693000D01*
X125104568Y-63693000D01*
X125104570Y-63693000D01*
X125291371Y-63653294D01*
X125465835Y-63575618D01*
X125620336Y-63463366D01*
X125659383Y-63420000D01*
X128006496Y-63420000D01*
X128011471Y-63467330D01*
X128026458Y-63609929D01*
X128085472Y-63791556D01*
X128180958Y-63956942D01*
X128211730Y-63991118D01*
X128308747Y-64098866D01*
X128463248Y-64211118D01*
X128637712Y-64288794D01*
X128824513Y-64328500D01*
X128824515Y-64328500D01*
X129015485Y-64328500D01*
X129015487Y-64328500D01*
X129202288Y-64288794D01*
X129376752Y-64211118D01*
X129531253Y-64098866D01*
X129659040Y-63956944D01*
X129754527Y-63791556D01*
X129813542Y-63609928D01*
X129833504Y-63420000D01*
X129813542Y-63230072D01*
X129761326Y-63069369D01*
X129754527Y-63048443D01*
X129659041Y-62883057D01*
X129531252Y-62741133D01*
X129437527Y-62673038D01*
X129376752Y-62628882D01*
X129202288Y-62551206D01*
X129015487Y-62511500D01*
X128824513Y-62511500D01*
X128699979Y-62537970D01*
X128637711Y-62551206D01*
X128463246Y-62628883D01*
X128308747Y-62741133D01*
X128180958Y-62883057D01*
X128085472Y-63048443D01*
X128026458Y-63230070D01*
X128006623Y-63418793D01*
X128006496Y-63420000D01*
X125659383Y-63420000D01*
X125748123Y-63321444D01*
X125843610Y-63156056D01*
X125902625Y-62974428D01*
X125922587Y-62784500D01*
X125902625Y-62594572D01*
X125869105Y-62491409D01*
X125843610Y-62412943D01*
X125748124Y-62247557D01*
X125620335Y-62105633D01*
X125492914Y-62013056D01*
X125465835Y-61993382D01*
X125291371Y-61915706D01*
X125104570Y-61876000D01*
X124913596Y-61876000D01*
X124808067Y-61898431D01*
X124726794Y-61915706D01*
X124552329Y-61993383D01*
X124397830Y-62105633D01*
X124270041Y-62247557D01*
X124174555Y-62412943D01*
X124115541Y-62594570D01*
X124095579Y-62784499D01*
X115800909Y-62784499D01*
X115812290Y-62676214D01*
X115792328Y-62486286D01*
X115733313Y-62304658D01*
X115733313Y-62304657D01*
X115637827Y-62139271D01*
X115524183Y-62013057D01*
X115510039Y-61997348D01*
X115504580Y-61993382D01*
X115355539Y-61885097D01*
X115355538Y-61885096D01*
X115181074Y-61807420D01*
X114994273Y-61767714D01*
X114803299Y-61767714D01*
X114678765Y-61794184D01*
X114616497Y-61807420D01*
X114442032Y-61885097D01*
X114287533Y-61997347D01*
X114159744Y-62139271D01*
X114064258Y-62304657D01*
X114005244Y-62486284D01*
X113985282Y-62676214D01*
X106060749Y-62676214D01*
X106063504Y-62650000D01*
X106043542Y-62460072D01*
X106001671Y-62331206D01*
X105984527Y-62278443D01*
X105889041Y-62113057D01*
X105775488Y-61986944D01*
X105761253Y-61971134D01*
X105606752Y-61858882D01*
X105432288Y-61781206D01*
X105245487Y-61741500D01*
X105054513Y-61741500D01*
X104943955Y-61765000D01*
X104867711Y-61781206D01*
X104693246Y-61858883D01*
X104538747Y-61971133D01*
X104410958Y-62113057D01*
X104315472Y-62278443D01*
X104256458Y-62460070D01*
X104236496Y-62650000D01*
X99808500Y-62650000D01*
X99808500Y-61069669D01*
X99828502Y-61001548D01*
X99882158Y-60955055D01*
X99952432Y-60944951D01*
X99985743Y-60954560D01*
X100017712Y-60968794D01*
X100204513Y-61008500D01*
X100204515Y-61008500D01*
X100395485Y-61008500D01*
X100395487Y-61008500D01*
X100529733Y-60979965D01*
X115627993Y-60979965D01*
X115630992Y-61008500D01*
X115647955Y-61169894D01*
X115706969Y-61351521D01*
X115802455Y-61516907D01*
X115858243Y-61578866D01*
X115930244Y-61658831D01*
X116084745Y-61771083D01*
X116259209Y-61848759D01*
X116446010Y-61888465D01*
X116446012Y-61888465D01*
X116636982Y-61888465D01*
X116636984Y-61888465D01*
X116823785Y-61848759D01*
X116998249Y-61771083D01*
X117152750Y-61658831D01*
X117280537Y-61516909D01*
X117376024Y-61351521D01*
X117435039Y-61169893D01*
X117455001Y-60979965D01*
X117435039Y-60790037D01*
X117400446Y-60683572D01*
X117376024Y-60608408D01*
X117280538Y-60443022D01*
X117204778Y-60358882D01*
X117152750Y-60301099D01*
X117137374Y-60289928D01*
X117006214Y-60194634D01*
X116998249Y-60188847D01*
X116823785Y-60111171D01*
X116636984Y-60071465D01*
X116446010Y-60071465D01*
X116321476Y-60097935D01*
X116259208Y-60111171D01*
X116084743Y-60188848D01*
X115930244Y-60301098D01*
X115802455Y-60443022D01*
X115706969Y-60608408D01*
X115647955Y-60790035D01*
X115635025Y-60913056D01*
X115627993Y-60979965D01*
X100529733Y-60979965D01*
X100582288Y-60968794D01*
X100756752Y-60891118D01*
X100911253Y-60778866D01*
X101039040Y-60636944D01*
X101134527Y-60471556D01*
X101193542Y-60289928D01*
X101213504Y-60100000D01*
X101193542Y-59910072D01*
X101134527Y-59728444D01*
X101134527Y-59728443D01*
X101039041Y-59563057D01*
X100911252Y-59421133D01*
X100768480Y-59317403D01*
X100756752Y-59308882D01*
X100582288Y-59231206D01*
X100395487Y-59191500D01*
X100204513Y-59191500D01*
X100017712Y-59231206D01*
X100017710Y-59231206D01*
X100017709Y-59231207D01*
X99985748Y-59245437D01*
X99915381Y-59254871D01*
X99851084Y-59224764D01*
X99813271Y-59164675D01*
X99808500Y-59130330D01*
X99808500Y-58534500D01*
X99828502Y-58466379D01*
X99882158Y-58419886D01*
X99934500Y-58408500D01*
X99995485Y-58408500D01*
X99995487Y-58408500D01*
X100182288Y-58368794D01*
X100356752Y-58291118D01*
X100511253Y-58178866D01*
X100639040Y-58036944D01*
X100734527Y-57871556D01*
X100793542Y-57689928D01*
X100813504Y-57500000D01*
X100793542Y-57310072D01*
X100748535Y-57171556D01*
X100734527Y-57128443D01*
X100639041Y-56963057D01*
X100511252Y-56821133D01*
X100482165Y-56800000D01*
X105886496Y-56800000D01*
X105906458Y-56989929D01*
X105965472Y-57171556D01*
X106060958Y-57336942D01*
X106060960Y-57336944D01*
X106188747Y-57478866D01*
X106343248Y-57591118D01*
X106517712Y-57668794D01*
X106704513Y-57708500D01*
X106704515Y-57708500D01*
X106895485Y-57708500D01*
X106895487Y-57708500D01*
X107082288Y-57668794D01*
X107256752Y-57591118D01*
X107266529Y-57584013D01*
X107333391Y-57560155D01*
X107402543Y-57576232D01*
X107414635Y-57584002D01*
X107493248Y-57641118D01*
X107667712Y-57718794D01*
X107854513Y-57758500D01*
X107854515Y-57758500D01*
X108045485Y-57758500D01*
X108045487Y-57758500D01*
X108232288Y-57718794D01*
X108406752Y-57641118D01*
X108561253Y-57528866D01*
X108689040Y-57386944D01*
X108784527Y-57221556D01*
X108843542Y-57039928D01*
X108848947Y-56988500D01*
X137847496Y-56988500D01*
X137867458Y-57178429D01*
X137926472Y-57360056D01*
X138021958Y-57525442D01*
X138090992Y-57602112D01*
X138149747Y-57667366D01*
X138304248Y-57779618D01*
X138478712Y-57857294D01*
X138665513Y-57897000D01*
X138665515Y-57897000D01*
X138856485Y-57897000D01*
X138856487Y-57897000D01*
X139043288Y-57857294D01*
X139217752Y-57779618D01*
X139372253Y-57667366D01*
X139500040Y-57525444D01*
X139523728Y-57484414D01*
X139575109Y-57435422D01*
X139644823Y-57421985D01*
X139710734Y-57448371D01*
X139741966Y-57484414D01*
X139756994Y-57510444D01*
X139884781Y-57652366D01*
X140039282Y-57764618D01*
X140213746Y-57842294D01*
X140400547Y-57882000D01*
X140400549Y-57882000D01*
X140591519Y-57882000D01*
X140591521Y-57882000D01*
X140778322Y-57842294D01*
X140952786Y-57764618D01*
X141107287Y-57652366D01*
X141235074Y-57510444D01*
X141330561Y-57345056D01*
X141389576Y-57163428D01*
X141409538Y-56973500D01*
X141389576Y-56783572D01*
X141349448Y-56660072D01*
X141330561Y-56601943D01*
X141228453Y-56425087D01*
X141232410Y-56422801D01*
X141212788Y-56381865D01*
X141217317Y-56322685D01*
X141266428Y-56171541D01*
X141277573Y-56065500D01*
X142779873Y-56065500D01*
X142799835Y-56255429D01*
X142858849Y-56437056D01*
X142954335Y-56602442D01*
X142977747Y-56628444D01*
X143082124Y-56744366D01*
X143236625Y-56856618D01*
X143411089Y-56934294D01*
X143597890Y-56974000D01*
X143597892Y-56974000D01*
X143788863Y-56974000D01*
X143788864Y-56974000D01*
X143857882Y-56959329D01*
X143928669Y-56964729D01*
X143985302Y-57007545D01*
X143993196Y-57019575D01*
X144060958Y-57136942D01*
X144060960Y-57136944D01*
X144188747Y-57278866D01*
X144343248Y-57391118D01*
X144517712Y-57468794D01*
X144704513Y-57508500D01*
X144704515Y-57508500D01*
X144895485Y-57508500D01*
X144895487Y-57508500D01*
X145082288Y-57468794D01*
X145256752Y-57391118D01*
X145411253Y-57278866D01*
X145539040Y-57136944D01*
X145618105Y-57000000D01*
X153486496Y-57000000D01*
X153506458Y-57189929D01*
X153565472Y-57371556D01*
X153660958Y-57536942D01*
X153696335Y-57576232D01*
X153788747Y-57678866D01*
X153943248Y-57791118D01*
X154117712Y-57868794D01*
X154304513Y-57908500D01*
X154304515Y-57908500D01*
X154495485Y-57908500D01*
X154495487Y-57908500D01*
X154682288Y-57868794D01*
X154856752Y-57791118D01*
X155011253Y-57678866D01*
X155139040Y-57536944D01*
X155234527Y-57371556D01*
X155293542Y-57189928D01*
X155313504Y-57000000D01*
X155293542Y-56810072D01*
X155242812Y-56653943D01*
X155234527Y-56628443D01*
X155139041Y-56463057D01*
X155011252Y-56321133D01*
X154891851Y-56234383D01*
X154856752Y-56208882D01*
X154682288Y-56131206D01*
X154495487Y-56091500D01*
X154304513Y-56091500D01*
X154184546Y-56117000D01*
X154117711Y-56131206D01*
X153943246Y-56208883D01*
X153788747Y-56321133D01*
X153660958Y-56463057D01*
X153565472Y-56628443D01*
X153506458Y-56810070D01*
X153486496Y-57000000D01*
X145618105Y-57000000D01*
X145634527Y-56971556D01*
X145693542Y-56789928D01*
X145713504Y-56600000D01*
X145693542Y-56410072D01*
X145638392Y-56240338D01*
X145634527Y-56228443D01*
X145539041Y-56063057D01*
X145411252Y-55921133D01*
X145256753Y-55808883D01*
X145256752Y-55808882D01*
X145082288Y-55731206D01*
X144895487Y-55691500D01*
X144704513Y-55691500D01*
X144693015Y-55693944D01*
X144635494Y-55706170D01*
X144564703Y-55700767D01*
X144508071Y-55657950D01*
X144500179Y-55645923D01*
X144432418Y-55528557D01*
X144304629Y-55386633D01*
X144189170Y-55302747D01*
X144150129Y-55274382D01*
X143975665Y-55196706D01*
X143788864Y-55157000D01*
X143597890Y-55157000D01*
X143473355Y-55183470D01*
X143411088Y-55196706D01*
X143236623Y-55274383D01*
X143082124Y-55386633D01*
X142954335Y-55528557D01*
X142858849Y-55693943D01*
X142799835Y-55875570D01*
X142779873Y-56065500D01*
X141277573Y-56065500D01*
X141286390Y-55981613D01*
X141266428Y-55791685D01*
X141222975Y-55657950D01*
X141207413Y-55610056D01*
X141111927Y-55444670D01*
X140984138Y-55302746D01*
X140893569Y-55236944D01*
X140829638Y-55190495D01*
X140655174Y-55112819D01*
X140468373Y-55073113D01*
X140277399Y-55073113D01*
X140152865Y-55099583D01*
X140090597Y-55112819D01*
X139916132Y-55190496D01*
X139761633Y-55302746D01*
X139633844Y-55444670D01*
X139538358Y-55610056D01*
X139479344Y-55791683D01*
X139464680Y-55931206D01*
X139459382Y-55981613D01*
X139474330Y-56123841D01*
X139461559Y-56193678D01*
X139413057Y-56245524D01*
X139344224Y-56262919D01*
X139276914Y-56240338D01*
X139274960Y-56238946D01*
X139217753Y-56197383D01*
X139217752Y-56197382D01*
X139043288Y-56119706D01*
X138856487Y-56080000D01*
X138665513Y-56080000D01*
X138540979Y-56106470D01*
X138478711Y-56119706D01*
X138363202Y-56171134D01*
X138312568Y-56193678D01*
X138304246Y-56197383D01*
X138149747Y-56309633D01*
X138021958Y-56451557D01*
X137926472Y-56616943D01*
X137867458Y-56798570D01*
X137847496Y-56988500D01*
X108848947Y-56988500D01*
X108863504Y-56850000D01*
X108843542Y-56660072D01*
X108787813Y-56488556D01*
X108784527Y-56478443D01*
X108689041Y-56313057D01*
X108561252Y-56171133D01*
X108484002Y-56115008D01*
X108406752Y-56058882D01*
X108232288Y-55981206D01*
X108045487Y-55941500D01*
X107854513Y-55941500D01*
X107729979Y-55967970D01*
X107667711Y-55981206D01*
X107493244Y-56058884D01*
X107483466Y-56065988D01*
X107416597Y-56089844D01*
X107347446Y-56073760D01*
X107335348Y-56065985D01*
X107266071Y-56015653D01*
X107256752Y-56008882D01*
X107082288Y-55931206D01*
X106895487Y-55891500D01*
X106704513Y-55891500D01*
X106579978Y-55917970D01*
X106517711Y-55931206D01*
X106343246Y-56008883D01*
X106188747Y-56121133D01*
X106060958Y-56263057D01*
X105965472Y-56428443D01*
X105906458Y-56610070D01*
X105886496Y-56800000D01*
X100482165Y-56800000D01*
X100405591Y-56744366D01*
X100356752Y-56708882D01*
X100182288Y-56631206D01*
X99995487Y-56591500D01*
X99995485Y-56591500D01*
X99934500Y-56591500D01*
X99866379Y-56571498D01*
X99819886Y-56517842D01*
X99808500Y-56465500D01*
X99808500Y-55742423D01*
X99828502Y-55674302D01*
X99845405Y-55653327D01*
X100353329Y-55145404D01*
X100415641Y-55111379D01*
X100442424Y-55108500D01*
X100495485Y-55108500D01*
X100495487Y-55108500D01*
X100682288Y-55068794D01*
X100856752Y-54991118D01*
X101011253Y-54878866D01*
X101139040Y-54736944D01*
X101234527Y-54571556D01*
X101293542Y-54389928D01*
X101313504Y-54200000D01*
X101293542Y-54010072D01*
X101240482Y-53846770D01*
X101234527Y-53828443D01*
X101218105Y-53800000D01*
X102186496Y-53800000D01*
X102206458Y-53989929D01*
X102265472Y-54171556D01*
X102360958Y-54336942D01*
X102392125Y-54371556D01*
X102488747Y-54478866D01*
X102643248Y-54591118D01*
X102817712Y-54668794D01*
X103004513Y-54708500D01*
X103004515Y-54708500D01*
X103195485Y-54708500D01*
X103195487Y-54708500D01*
X103336576Y-54678510D01*
X103407365Y-54683912D01*
X103463997Y-54726729D01*
X103488081Y-54788586D01*
X103506458Y-54963429D01*
X103565472Y-55145056D01*
X103660958Y-55310442D01*
X103660960Y-55310444D01*
X103788747Y-55452366D01*
X103943248Y-55564618D01*
X104117712Y-55642294D01*
X104304513Y-55682000D01*
X104304515Y-55682000D01*
X104495485Y-55682000D01*
X104495487Y-55682000D01*
X104682288Y-55642294D01*
X104856752Y-55564618D01*
X105011253Y-55452366D01*
X105139040Y-55310444D01*
X105234527Y-55145056D01*
X105293542Y-54963428D01*
X105313504Y-54773500D01*
X105293542Y-54583572D01*
X105282634Y-54550000D01*
X106236496Y-54550000D01*
X106245370Y-54634428D01*
X106256458Y-54739929D01*
X106315472Y-54921556D01*
X106410958Y-55086942D01*
X106504830Y-55191197D01*
X106538747Y-55228866D01*
X106693248Y-55341118D01*
X106867712Y-55418794D01*
X107054513Y-55458500D01*
X107054515Y-55458500D01*
X107245485Y-55458500D01*
X107245487Y-55458500D01*
X107432288Y-55418794D01*
X107606752Y-55341118D01*
X107761253Y-55228866D01*
X107889040Y-55086944D01*
X107984527Y-54921556D01*
X108043542Y-54739928D01*
X108063504Y-54550000D01*
X108043542Y-54360072D01*
X107988259Y-54189929D01*
X107984527Y-54178443D01*
X107889041Y-54013057D01*
X107777868Y-53889587D01*
X107761253Y-53871134D01*
X107752810Y-53865000D01*
X107663346Y-53800000D01*
X107606752Y-53758882D01*
X107432288Y-53681206D01*
X107245487Y-53641500D01*
X107054513Y-53641500D01*
X106953101Y-53663056D01*
X106867711Y-53681206D01*
X106727696Y-53743544D01*
X106717425Y-53748118D01*
X106693246Y-53758883D01*
X106538747Y-53871133D01*
X106410958Y-54013057D01*
X106315472Y-54178443D01*
X106256458Y-54360070D01*
X106238717Y-54528866D01*
X106236496Y-54550000D01*
X105282634Y-54550000D01*
X105245432Y-54435505D01*
X105234527Y-54401943D01*
X105139041Y-54236557D01*
X105011252Y-54094633D01*
X104881001Y-54000000D01*
X104856752Y-53982382D01*
X104682288Y-53904706D01*
X104495487Y-53865000D01*
X104304513Y-53865000D01*
X104275660Y-53871133D01*
X104163424Y-53894989D01*
X104092634Y-53889587D01*
X104036001Y-53846770D01*
X104011918Y-53784913D01*
X104008944Y-53756616D01*
X103993542Y-53610072D01*
X103938070Y-53439347D01*
X103934527Y-53428443D01*
X103839041Y-53263057D01*
X103720322Y-53131206D01*
X103711253Y-53121134D01*
X103670465Y-53091500D01*
X103625571Y-53058882D01*
X103556752Y-53008882D01*
X103382288Y-52931206D01*
X103195487Y-52891500D01*
X103004513Y-52891500D01*
X102931084Y-52907108D01*
X102817711Y-52931206D01*
X102677696Y-52993544D01*
X102652628Y-53004706D01*
X102643246Y-53008883D01*
X102488747Y-53121133D01*
X102360958Y-53263057D01*
X102265472Y-53428443D01*
X102206458Y-53610070D01*
X102186496Y-53800000D01*
X101218105Y-53800000D01*
X101139041Y-53663057D01*
X101011252Y-53521133D01*
X100892700Y-53435000D01*
X100856752Y-53408882D01*
X100682288Y-53331206D01*
X100495487Y-53291500D01*
X100304513Y-53291500D01*
X100203101Y-53313056D01*
X100117711Y-53331206D01*
X99943246Y-53408883D01*
X99788747Y-53521133D01*
X99660958Y-53663057D01*
X99565472Y-53828443D01*
X99506458Y-54010070D01*
X99489425Y-54172131D01*
X99462411Y-54237788D01*
X99453210Y-54248055D01*
X98783078Y-54918187D01*
X98766711Y-54931301D01*
X98717928Y-54983249D01*
X98715179Y-54986086D01*
X98698158Y-55003107D01*
X98698144Y-55003122D01*
X98695361Y-55005906D01*
X98692946Y-55009018D01*
X98692923Y-55009045D01*
X98692841Y-55009152D01*
X98685156Y-55018148D01*
X98654781Y-55050496D01*
X98644974Y-55068333D01*
X98634125Y-55084849D01*
X98621649Y-55100933D01*
X98604022Y-55141664D01*
X98598804Y-55152316D01*
X98577430Y-55191197D01*
X98572370Y-55210906D01*
X98565967Y-55229608D01*
X98557883Y-55248289D01*
X98550941Y-55292119D01*
X98548534Y-55303739D01*
X98537500Y-55346717D01*
X98537499Y-55367074D01*
X98535948Y-55386774D01*
X98532764Y-55406876D01*
X54063512Y-55406876D01*
X54172469Y-55238053D01*
X54175420Y-55233685D01*
X54706744Y-54482443D01*
X54709868Y-54478219D01*
X55195458Y-53850000D01*
X96886496Y-53850000D01*
X96892246Y-53904706D01*
X96906458Y-54039929D01*
X96965472Y-54221556D01*
X97060958Y-54386942D01*
X97060960Y-54386944D01*
X97188747Y-54528866D01*
X97343248Y-54641118D01*
X97517712Y-54718794D01*
X97704513Y-54758500D01*
X97704515Y-54758500D01*
X97895485Y-54758500D01*
X97895487Y-54758500D01*
X98082288Y-54718794D01*
X98256752Y-54641118D01*
X98411253Y-54528866D01*
X98539040Y-54386944D01*
X98634527Y-54221556D01*
X98693542Y-54039928D01*
X98713504Y-53850000D01*
X98693542Y-53660072D01*
X98642325Y-53502444D01*
X98634527Y-53478443D01*
X98539041Y-53313057D01*
X98411252Y-53171133D01*
X98334002Y-53115008D01*
X98256752Y-53058882D01*
X98082288Y-52981206D01*
X97895487Y-52941500D01*
X97704513Y-52941500D01*
X97593955Y-52965000D01*
X97517711Y-52981206D01*
X97343246Y-53058883D01*
X97188747Y-53171133D01*
X97060958Y-53313057D01*
X96965472Y-53478443D01*
X96906458Y-53660070D01*
X96888471Y-53831206D01*
X96886496Y-53850000D01*
X55195458Y-53850000D01*
X55272602Y-53750197D01*
X55275914Y-53746096D01*
X55869022Y-53042633D01*
X55872507Y-53038673D01*
X56494937Y-52361017D01*
X56498591Y-52357205D01*
X57149205Y-51706591D01*
X57153017Y-51702937D01*
X57830673Y-51080507D01*
X57834633Y-51077022D01*
X58538096Y-50483914D01*
X58542197Y-50480602D01*
X58872875Y-50225000D01*
X65461496Y-50225000D01*
X65463195Y-50241161D01*
X65481458Y-50414929D01*
X65540472Y-50596556D01*
X65635958Y-50761942D01*
X65635960Y-50761944D01*
X65763747Y-50903866D01*
X65918248Y-51016118D01*
X66092712Y-51093794D01*
X66279513Y-51133500D01*
X66279515Y-51133500D01*
X66470485Y-51133500D01*
X66470487Y-51133500D01*
X66657288Y-51093794D01*
X66831752Y-51016118D01*
X66986253Y-50903866D01*
X67114040Y-50761944D01*
X67178671Y-50650000D01*
X104436496Y-50650000D01*
X104456458Y-50839929D01*
X104515472Y-51021556D01*
X104610958Y-51186942D01*
X104658667Y-51239928D01*
X104738747Y-51328866D01*
X104893248Y-51441118D01*
X105067712Y-51518794D01*
X105254513Y-51558500D01*
X105254515Y-51558500D01*
X105445485Y-51558500D01*
X105445487Y-51558500D01*
X105632288Y-51518794D01*
X105806752Y-51441118D01*
X105961253Y-51328866D01*
X106089040Y-51186944D01*
X106168105Y-51050000D01*
X135236496Y-51050000D01*
X135256458Y-51239929D01*
X135315472Y-51421556D01*
X135410958Y-51586942D01*
X135472187Y-51654944D01*
X135538747Y-51728866D01*
X135693248Y-51841118D01*
X135867712Y-51918794D01*
X136054513Y-51958500D01*
X136054515Y-51958500D01*
X136067467Y-51961253D01*
X136066736Y-51964691D01*
X136113772Y-51978502D01*
X136160265Y-52032158D01*
X136170369Y-52102432D01*
X136154771Y-52147498D01*
X136150473Y-52154942D01*
X136091458Y-52336570D01*
X136071496Y-52526499D01*
X136091458Y-52716429D01*
X136150472Y-52898056D01*
X136245958Y-53063442D01*
X136342924Y-53171134D01*
X136373747Y-53205366D01*
X136528248Y-53317618D01*
X136702712Y-53395294D01*
X136889513Y-53435000D01*
X136889515Y-53435000D01*
X137080485Y-53435000D01*
X137080487Y-53435000D01*
X137267288Y-53395294D01*
X137441752Y-53317618D01*
X137596253Y-53205366D01*
X137724040Y-53063444D01*
X137819527Y-52898056D01*
X137878542Y-52716428D01*
X137898504Y-52526500D01*
X137878542Y-52336572D01*
X137847468Y-52240937D01*
X137819527Y-52154943D01*
X137724041Y-51989557D01*
X137596252Y-51847633D01*
X137441753Y-51735383D01*
X137441752Y-51735382D01*
X137267288Y-51657706D01*
X137080487Y-51618000D01*
X137080485Y-51618000D01*
X137067533Y-51615247D01*
X137068263Y-51611808D01*
X137021228Y-51597998D01*
X136974735Y-51544342D01*
X136964631Y-51474068D01*
X136980229Y-51429002D01*
X136984526Y-51421557D01*
X136984527Y-51421556D01*
X137013463Y-51332500D01*
X140986496Y-51332500D01*
X141006458Y-51522429D01*
X141065472Y-51704056D01*
X141160958Y-51869442D01*
X141160960Y-51869444D01*
X141288747Y-52011366D01*
X141443248Y-52123618D01*
X141617712Y-52201294D01*
X141804513Y-52241000D01*
X141804515Y-52241000D01*
X141995485Y-52241000D01*
X141995487Y-52241000D01*
X141995782Y-52240937D01*
X141996607Y-52241000D01*
X142008731Y-52241000D01*
X142008731Y-52241924D01*
X142066572Y-52246337D01*
X142123206Y-52289152D01*
X142141815Y-52325246D01*
X142165473Y-52398057D01*
X142260958Y-52563442D01*
X142260960Y-52563444D01*
X142388747Y-52705366D01*
X142543248Y-52817618D01*
X142717712Y-52895294D01*
X142904513Y-52935000D01*
X142904515Y-52935000D01*
X143095488Y-52935000D01*
X143142180Y-52925074D01*
X143226707Y-52907108D01*
X143297497Y-52912509D01*
X143354130Y-52955325D01*
X143378214Y-53017183D01*
X143392744Y-53155429D01*
X143451758Y-53337056D01*
X143547244Y-53502442D01*
X143644153Y-53610070D01*
X143675033Y-53644366D01*
X143829534Y-53756618D01*
X144003998Y-53834294D01*
X144190799Y-53874000D01*
X144190801Y-53874000D01*
X144381771Y-53874000D01*
X144381773Y-53874000D01*
X144568574Y-53834294D01*
X144614387Y-53813896D01*
X144684752Y-53804462D01*
X144749049Y-53834567D01*
X144786863Y-53894656D01*
X144790945Y-53915832D01*
X144806458Y-54063429D01*
X144865472Y-54245056D01*
X144960958Y-54410442D01*
X145074859Y-54536942D01*
X145088747Y-54552366D01*
X145243248Y-54664618D01*
X145417712Y-54742294D01*
X145604513Y-54782000D01*
X145604515Y-54782000D01*
X145795485Y-54782000D01*
X145795487Y-54782000D01*
X145982288Y-54742294D01*
X146156752Y-54664618D01*
X146311253Y-54552366D01*
X146377433Y-54478866D01*
X146384162Y-54471393D01*
X146444608Y-54434153D01*
X146515591Y-54435505D01*
X146574576Y-54475018D01*
X146586917Y-54492703D01*
X146612458Y-54536942D01*
X146626344Y-54552364D01*
X146740247Y-54678866D01*
X146894748Y-54791118D01*
X147069212Y-54868794D01*
X147256013Y-54908500D01*
X147256015Y-54908500D01*
X147446985Y-54908500D01*
X147446987Y-54908500D01*
X147633788Y-54868794D01*
X147808252Y-54791118D01*
X147962753Y-54678866D01*
X148090540Y-54536944D01*
X148186027Y-54371556D01*
X148245042Y-54189928D01*
X148254758Y-54097486D01*
X148623506Y-54097486D01*
X148643468Y-54287415D01*
X148702482Y-54469042D01*
X148797968Y-54634428D01*
X148857009Y-54700000D01*
X148925757Y-54776352D01*
X149080258Y-54888604D01*
X149254722Y-54966280D01*
X149441523Y-55005986D01*
X149441525Y-55005986D01*
X149632495Y-55005986D01*
X149632497Y-55005986D01*
X149819298Y-54966280D01*
X149993762Y-54888604D01*
X150148263Y-54776352D01*
X150217011Y-54699999D01*
X151986496Y-54699999D01*
X152006458Y-54889929D01*
X152065472Y-55071556D01*
X152160958Y-55236942D01*
X152160960Y-55236944D01*
X152288747Y-55378866D01*
X152443248Y-55491118D01*
X152617712Y-55568794D01*
X152804513Y-55608500D01*
X152804515Y-55608500D01*
X152995485Y-55608500D01*
X152995487Y-55608500D01*
X153182288Y-55568794D01*
X153356752Y-55491118D01*
X153511253Y-55378866D01*
X153639040Y-55236944D01*
X153734527Y-55071556D01*
X153793542Y-54889928D01*
X153813504Y-54700000D01*
X153793542Y-54510072D01*
X153758409Y-54401944D01*
X153734527Y-54328443D01*
X153639041Y-54163057D01*
X153511252Y-54021133D01*
X153482165Y-54000000D01*
X155686496Y-54000000D01*
X155693163Y-54063429D01*
X155706458Y-54189929D01*
X155765472Y-54371556D01*
X155860958Y-54536942D01*
X155874844Y-54552364D01*
X155988747Y-54678866D01*
X156143248Y-54791118D01*
X156317712Y-54868794D01*
X156504513Y-54908500D01*
X156504515Y-54908500D01*
X156695485Y-54908500D01*
X156695487Y-54908500D01*
X156882288Y-54868794D01*
X157056752Y-54791118D01*
X157211253Y-54678866D01*
X157339040Y-54536944D01*
X157434527Y-54371556D01*
X157493542Y-54189928D01*
X157513504Y-54000000D01*
X157493542Y-53810072D01*
X157441591Y-53650184D01*
X157434527Y-53628443D01*
X157339041Y-53463057D01*
X157211252Y-53321133D01*
X157056753Y-53208883D01*
X157056752Y-53208882D01*
X156882288Y-53131206D01*
X156695487Y-53091500D01*
X156504513Y-53091500D01*
X156379979Y-53117970D01*
X156317711Y-53131206D01*
X156143246Y-53208883D01*
X155988747Y-53321133D01*
X155860958Y-53463057D01*
X155765472Y-53628443D01*
X155706458Y-53810070D01*
X155687554Y-53989929D01*
X155686496Y-54000000D01*
X153482165Y-54000000D01*
X153425073Y-53958520D01*
X153356752Y-53908882D01*
X153182288Y-53831206D01*
X152995487Y-53791500D01*
X152804513Y-53791500D01*
X152699144Y-53813897D01*
X152617711Y-53831206D01*
X152486585Y-53889587D01*
X152452628Y-53904706D01*
X152443246Y-53908883D01*
X152288747Y-54021133D01*
X152160958Y-54163057D01*
X152065472Y-54328443D01*
X152006458Y-54510070D01*
X151986496Y-54699999D01*
X150217011Y-54699999D01*
X150276050Y-54634430D01*
X150371537Y-54469042D01*
X150430552Y-54287414D01*
X150450514Y-54097486D01*
X150430552Y-53907558D01*
X150379432Y-53750228D01*
X150371537Y-53725929D01*
X150276051Y-53560543D01*
X150163012Y-53435000D01*
X150148263Y-53418620D01*
X150134861Y-53408883D01*
X150014087Y-53321135D01*
X149993762Y-53306368D01*
X149819298Y-53228692D01*
X149632497Y-53188986D01*
X149441523Y-53188986D01*
X149316989Y-53215456D01*
X149254721Y-53228692D01*
X149080256Y-53306369D01*
X148925757Y-53418619D01*
X148797968Y-53560543D01*
X148702482Y-53725929D01*
X148643468Y-53907556D01*
X148623506Y-54097486D01*
X148254758Y-54097486D01*
X148265004Y-54000000D01*
X148245042Y-53810072D01*
X148193091Y-53650184D01*
X148186027Y-53628443D01*
X148090541Y-53463057D01*
X147962752Y-53321133D01*
X147808253Y-53208883D01*
X147808252Y-53208882D01*
X147633788Y-53131206D01*
X147446987Y-53091500D01*
X147256013Y-53091500D01*
X147131479Y-53117970D01*
X147069211Y-53131206D01*
X146894746Y-53208883D01*
X146740245Y-53321135D01*
X146667338Y-53402107D01*
X146606892Y-53439347D01*
X146535909Y-53437995D01*
X146476924Y-53398482D01*
X146464583Y-53380797D01*
X146439041Y-53336557D01*
X146311252Y-53194633D01*
X146210088Y-53121133D01*
X146156752Y-53082382D01*
X145982288Y-53004706D01*
X145795487Y-52965000D01*
X145604513Y-52965000D01*
X145417712Y-53004706D01*
X145417711Y-53004706D01*
X145417708Y-53004707D01*
X145371898Y-53025103D01*
X145301531Y-53034537D01*
X145237234Y-53004430D01*
X145199421Y-52944341D01*
X145195341Y-52923174D01*
X145179828Y-52775572D01*
X145120813Y-52593944D01*
X145120813Y-52593943D01*
X145025327Y-52428557D01*
X144942503Y-52336572D01*
X144897539Y-52286634D01*
X144834729Y-52241000D01*
X144780079Y-52201294D01*
X144743038Y-52174382D01*
X144568574Y-52096706D01*
X144381773Y-52057000D01*
X144190799Y-52057000D01*
X144059578Y-52084892D01*
X143988787Y-52079490D01*
X143932154Y-52036673D01*
X143908072Y-51974817D01*
X143893542Y-51836572D01*
X143850114Y-51702914D01*
X143834527Y-51654943D01*
X143739041Y-51489557D01*
X143611252Y-51347633D01*
X143456753Y-51235383D01*
X143456752Y-51235382D01*
X143282288Y-51157706D01*
X143095487Y-51118000D01*
X142904513Y-51118000D01*
X142904511Y-51118000D01*
X142904205Y-51118065D01*
X142903354Y-51118000D01*
X142891270Y-51118000D01*
X142891270Y-51117076D01*
X142833414Y-51112657D01*
X142776785Y-51069837D01*
X142758184Y-51033752D01*
X142734527Y-50960943D01*
X142639041Y-50795557D01*
X142511252Y-50653633D01*
X142356753Y-50541383D01*
X142356752Y-50541382D01*
X142182288Y-50463706D01*
X141995487Y-50424000D01*
X141804513Y-50424000D01*
X141679979Y-50450470D01*
X141617711Y-50463706D01*
X141443246Y-50541383D01*
X141288747Y-50653633D01*
X141160958Y-50795557D01*
X141065472Y-50960943D01*
X141006458Y-51142570D01*
X140986496Y-51332500D01*
X137013463Y-51332500D01*
X137043542Y-51239928D01*
X137063504Y-51050000D01*
X137043542Y-50860072D01*
X136984527Y-50678444D01*
X136984527Y-50678443D01*
X136889041Y-50513057D01*
X136761252Y-50371133D01*
X136684002Y-50315008D01*
X136606752Y-50258882D01*
X136432288Y-50181206D01*
X136245487Y-50141500D01*
X136054513Y-50141500D01*
X135929978Y-50167970D01*
X135867711Y-50181206D01*
X135693246Y-50258883D01*
X135538747Y-50371133D01*
X135410958Y-50513057D01*
X135315472Y-50678443D01*
X135256458Y-50860070D01*
X135236496Y-51050000D01*
X106168105Y-51050000D01*
X106184527Y-51021556D01*
X106243542Y-50839928D01*
X106263504Y-50650000D01*
X106243542Y-50460072D01*
X106188645Y-50291118D01*
X106184527Y-50278443D01*
X106089041Y-50113057D01*
X105961252Y-49971133D01*
X105824196Y-49871556D01*
X105806752Y-49858882D01*
X105632288Y-49781206D01*
X105445487Y-49741500D01*
X105254513Y-49741500D01*
X105129978Y-49767970D01*
X105067711Y-49781206D01*
X104893246Y-49858883D01*
X104738747Y-49971133D01*
X104610958Y-50113057D01*
X104515472Y-50278443D01*
X104456458Y-50460070D01*
X104436496Y-50650000D01*
X67178671Y-50650000D01*
X67209527Y-50596556D01*
X67268542Y-50414928D01*
X67288504Y-50225000D01*
X67268542Y-50035072D01*
X67212081Y-49861304D01*
X67209527Y-49853443D01*
X67114041Y-49688057D01*
X66986252Y-49546133D01*
X66922754Y-49499999D01*
X139586496Y-49499999D01*
X139606458Y-49689929D01*
X139665472Y-49871556D01*
X139760958Y-50036942D01*
X139888747Y-50178865D01*
X139888747Y-50178866D01*
X140043248Y-50291118D01*
X140217712Y-50368794D01*
X140404513Y-50408500D01*
X140404515Y-50408500D01*
X140595485Y-50408500D01*
X140595487Y-50408500D01*
X140782288Y-50368794D01*
X140956752Y-50291118D01*
X141111253Y-50178866D01*
X141239040Y-50036944D01*
X141298048Y-49934740D01*
X145421236Y-49934740D01*
X145441198Y-50124669D01*
X145500212Y-50306296D01*
X145595698Y-50471682D01*
X145606734Y-50483939D01*
X145723487Y-50613606D01*
X145877988Y-50725858D01*
X146052452Y-50803534D01*
X146239253Y-50843240D01*
X146239255Y-50843240D01*
X146430225Y-50843240D01*
X146430227Y-50843240D01*
X146617028Y-50803534D01*
X146791492Y-50725858D01*
X146945993Y-50613606D01*
X147073780Y-50471684D01*
X147169267Y-50306296D01*
X147228282Y-50124668D01*
X147236000Y-50051231D01*
X149733364Y-50051231D01*
X149753326Y-50241161D01*
X149812340Y-50422788D01*
X149907826Y-50588174D01*
X149989105Y-50678443D01*
X150035615Y-50730098D01*
X150190116Y-50842350D01*
X150364580Y-50920026D01*
X150551381Y-50959732D01*
X150551383Y-50959732D01*
X150742353Y-50959732D01*
X150742355Y-50959732D01*
X150929156Y-50920026D01*
X151103620Y-50842350D01*
X151258121Y-50730098D01*
X151385908Y-50588176D01*
X151481395Y-50422788D01*
X151540410Y-50241160D01*
X151560372Y-50051232D01*
X151540410Y-49861304D01*
X151502559Y-49744812D01*
X151481395Y-49679675D01*
X151385909Y-49514289D01*
X151258120Y-49372365D01*
X151103621Y-49260115D01*
X151103620Y-49260114D01*
X150929156Y-49182438D01*
X150742355Y-49142732D01*
X150551381Y-49142732D01*
X150426846Y-49169202D01*
X150364579Y-49182438D01*
X150304745Y-49209078D01*
X150199642Y-49255873D01*
X150190114Y-49260115D01*
X150035615Y-49372365D01*
X149907826Y-49514289D01*
X149812340Y-49679675D01*
X149753326Y-49861302D01*
X149733364Y-50051231D01*
X147236000Y-50051231D01*
X147248244Y-49934740D01*
X147228282Y-49744812D01*
X147169267Y-49563184D01*
X147169267Y-49563183D01*
X147073781Y-49397797D01*
X146945992Y-49255873D01*
X146791493Y-49143623D01*
X146791492Y-49143622D01*
X146617028Y-49065946D01*
X146430227Y-49026240D01*
X146239253Y-49026240D01*
X146114718Y-49052710D01*
X146052451Y-49065946D01*
X145877986Y-49143623D01*
X145723487Y-49255873D01*
X145595698Y-49397797D01*
X145500212Y-49563183D01*
X145441198Y-49744810D01*
X145421236Y-49934740D01*
X141298048Y-49934740D01*
X141334527Y-49871556D01*
X141393542Y-49689928D01*
X141413504Y-49500000D01*
X141393542Y-49310072D01*
X141339459Y-49143622D01*
X141334527Y-49128443D01*
X141239041Y-48963057D01*
X141111252Y-48821133D01*
X140956753Y-48708883D01*
X140956752Y-48708882D01*
X140782288Y-48631206D01*
X140595487Y-48591500D01*
X140404513Y-48591500D01*
X140279978Y-48617970D01*
X140217711Y-48631206D01*
X140043246Y-48708883D01*
X139888747Y-48821133D01*
X139760958Y-48963057D01*
X139665472Y-49128443D01*
X139606458Y-49310070D01*
X139586496Y-49499999D01*
X66922754Y-49499999D01*
X66831753Y-49433883D01*
X66831752Y-49433882D01*
X66657288Y-49356206D01*
X66470487Y-49316500D01*
X66279513Y-49316500D01*
X66154978Y-49342970D01*
X66092711Y-49356206D01*
X65918246Y-49433883D01*
X65763747Y-49546133D01*
X65635958Y-49688057D01*
X65540472Y-49853443D01*
X65481458Y-50035070D01*
X65472041Y-50124668D01*
X65461496Y-50225000D01*
X58872875Y-50225000D01*
X59270219Y-49917868D01*
X59274443Y-49914744D01*
X60025685Y-49383420D01*
X60030053Y-49380469D01*
X60803125Y-48881535D01*
X60807653Y-48878747D01*
X60905833Y-48821133D01*
X61601201Y-48413074D01*
X61605850Y-48410477D01*
X62271444Y-48056977D01*
X70859500Y-48056977D01*
X70897020Y-48281823D01*
X70897021Y-48281825D01*
X70971036Y-48497425D01*
X70971037Y-48497426D01*
X71079531Y-48697906D01*
X71219544Y-48877794D01*
X71387257Y-49032185D01*
X71578087Y-49156860D01*
X71578089Y-49156861D01*
X71578091Y-49156862D01*
X71786845Y-49248430D01*
X72007824Y-49304390D01*
X72235000Y-49323214D01*
X72462176Y-49304390D01*
X72683155Y-49248430D01*
X72891909Y-49156862D01*
X73082745Y-49032183D01*
X73250456Y-48877794D01*
X73390469Y-48697906D01*
X73498963Y-48497426D01*
X73572980Y-48281823D01*
X73610500Y-48056977D01*
X73610500Y-47943000D01*
X73610500Y-47903118D01*
X73610500Y-47829023D01*
X73572980Y-47604177D01*
X73498963Y-47388574D01*
X73390469Y-47188094D01*
X73250456Y-47008206D01*
X73120685Y-46888743D01*
X73082742Y-46853814D01*
X72891912Y-46729139D01*
X72683150Y-46637568D01*
X72462180Y-46581611D01*
X72462179Y-46581610D01*
X72462176Y-46581610D01*
X72235000Y-46562786D01*
X72234999Y-46562786D01*
X72206842Y-46565119D01*
X72007824Y-46581610D01*
X72007820Y-46581610D01*
X72007819Y-46581611D01*
X71786849Y-46637568D01*
X71578087Y-46729139D01*
X71387257Y-46853814D01*
X71219544Y-47008205D01*
X71079530Y-47188095D01*
X70971036Y-47388574D01*
X70908727Y-47570075D01*
X70897020Y-47604177D01*
X70859500Y-47829023D01*
X70859500Y-47903118D01*
X70859500Y-47943000D01*
X70859500Y-48056977D01*
X62271444Y-48056977D01*
X62418457Y-47978898D01*
X62423159Y-47976527D01*
X63253372Y-47579815D01*
X63258199Y-47577633D01*
X64104484Y-47216520D01*
X64109359Y-47214560D01*
X64970257Y-46889671D01*
X64975224Y-46887917D01*
X65849090Y-46599873D01*
X65854168Y-46598318D01*
X66739449Y-46347629D01*
X66744574Y-46346294D01*
X67639707Y-46133400D01*
X67644907Y-46132280D01*
X68548243Y-45957573D01*
X68553501Y-45956671D01*
X69463483Y-45820453D01*
X69468701Y-45819786D01*
X70383619Y-45722315D01*
X70388919Y-45721864D01*
X71307145Y-45663311D01*
X71312466Y-45663085D01*
X72233681Y-45643527D01*
X72236355Y-45643500D01*
X92255763Y-45643500D01*
X92263847Y-45639606D01*
X92290482Y-45630286D01*
X92299231Y-45628290D01*
X92301175Y-45626738D01*
X92306247Y-45622695D01*
X92330139Y-45607681D01*
X92338224Y-45603788D01*
X92343821Y-45596768D01*
X92363768Y-45576821D01*
X92370788Y-45571224D01*
X92374683Y-45563136D01*
X92389695Y-45539247D01*
X92395289Y-45532232D01*
X92395288Y-45532232D01*
X92395290Y-45532231D01*
X92397287Y-45523481D01*
X92406607Y-45496846D01*
X92410500Y-45488762D01*
X92410500Y-43451000D01*
X92430502Y-43382879D01*
X92484158Y-43336386D01*
X92536500Y-43325000D01*
X92949000Y-43325000D01*
X93017121Y-43345002D01*
G37*
G04 #@! TD.AperFunction*
M02*
